<?xml version="1.0" encoding="UTF-8"?>
<!DOCTYPE svg PUBLIC "-//W3C//DTD SVG 1.1//EN" "http://www.w3.org/Graphics/SVG/1.1/DTD/svg11.dtd">
<!-- Creator: CorelDRAW 2021 (64-Bit) -->
<svg xmlns="http://www.w3.org/2000/svg" xml:space="preserve" width="179.916mm" height="91.0166mm" version="1.1" style="shape-rendering:geometricPrecision; text-rendering:geometricPrecision; image-rendering:optimizeQuality; fill-rule:evenodd; clip-rule:evenodd"
viewBox="0 0 20090.49 10163.43"
 xmlns:xlink="http://www.w3.org/1999/xlink"
 xmlns:xodm="http://www.corel.com/coreldraw/odm/2003">
 <defs>
  <style type="text/css">
   <![CDATA[
    .str2 {stroke:#00678F;stroke-width:47.27;stroke-linejoin:round;stroke-miterlimit:22.9256}
    .str0 {stroke:#E9EAEA;stroke-width:19.71;stroke-linejoin:round;stroke-miterlimit:22.9256}
    .str1 {stroke:#434343;stroke-width:19.71;stroke-linecap:square;stroke-linejoin:round;stroke-miterlimit:22.9256}
    .fil1 {fill:none;fill-rule:nonzero}
    .fil2 {fill:#434343;fill-rule:nonzero}
    .fil0 {fill:white;fill-rule:nonzero}
    .fil3 {fill:#434343;fill-rule:nonzero}
   ]]>
  </style>
 </defs>
 <g id="Layer_x0020_1">
  <metadata id="CorelCorpID_0Corel-Layer"/>
  <g id="_2554886650672">
   <polygon class="fil0" points="-0,10163.43 20090.49,10163.43 20090.49,0 -0,0 "/>
   <polygon class="fil0" points="-0,10163.43 20090.49,10163.43 20090.49,0 -0,0 "/>
   <polygon class="fil0" points="1447.7,2009.04 19529.14,2009.04 19529.14,324.99 1447.7,324.99 "/>
   <line class="fil1 str0" x1="1447.7" y1="2009.04" x2="1447.7" y2= "324.99" />
   <line class="fil1 str0" x1="4030.78" y1="2009.04" x2="4030.78" y2= "324.99" />
   <line class="fil1 str0" x1="6613.82" y1="2009.04" x2="6613.82" y2= "324.99" />
   <line class="fil1 str0" x1="9196.87" y1="2009.04" x2="9196.87" y2= "324.99" />
   <line class="fil1 str0" x1="11779.96" y1="2009.04" x2="11779.96" y2= "324.99" />
   <line class="fil1 str0" x1="14363.01" y1="2009.04" x2="14363.01" y2= "324.99" />
   <line class="fil1 str0" x1="16946.05" y1="2009.04" x2="16946.05" y2= "324.99" />
   <line class="fil1 str0" x1="19529.14" y1="2009.04" x2="19529.14" y2= "324.99" />
   <line class="fil1 str0" x1="19529.14" y1="2009.04" x2="1447.7" y2= "2009.04" />
   <line class="fil1 str0" x1="19529.14" y1="1447.7" x2="1447.7" y2= "1447.7" />
   <line class="fil1 str0" x1="19529.14" y1="886.35" x2="1447.7" y2= "886.35" />
   <line class="fil1 str0" x1="19529.14" y1="324.99" x2="1447.7" y2= "324.99" />
   <line class="fil1 str1" x1="1447.7" y1="2009.04" x2="19529.14" y2= "2009.04" />
   <line class="fil1 str1" x1="1447.7" y1="2009.04" x2="1447.7" y2= "1828.24" />
   <line class="fil1 str1" x1="4030.78" y1="2009.04" x2="4030.78" y2= "1828.24" />
   <line class="fil1 str1" x1="6613.82" y1="2009.04" x2="6613.82" y2= "1828.24" />
   <line class="fil1 str1" x1="9196.87" y1="2009.04" x2="9196.87" y2= "1828.24" />
   <line class="fil1 str1" x1="11779.96" y1="2009.04" x2="11779.96" y2= "1828.24" />
   <line class="fil1 str1" x1="14363.01" y1="2009.04" x2="14363.01" y2= "1828.24" />
   <line class="fil1 str1" x1="16946.05" y1="2009.04" x2="16946.05" y2= "1828.24" />
   <line class="fil1 str1" x1="19529.14" y1="2009.04" x2="19529.14" y2= "1828.24" />
   <path class="fil2" d="M1447.7 2425c-28.92,0 -48.62,-11.89 -59.08,-35.77 -10.46,-23.83 -15.7,-52.24 -15.7,-85.17 0,-20.6 1.84,-39.94 5.54,-57.94 3.7,-18.01 11.16,-33.41 22.39,-46.17 11.22,-12.76 26.86,-19.14 46.85,-19.14 15.7,0 28.47,3.85 38.32,11.54 9.84,7.68 17.39,17.53 22.63,29.55 5.21,12.02 8.75,24.93 10.6,38.76 1.86,13.87 2.8,28.33 2.8,43.42 0,20.32 -1.86,39.32 -5.56,57.01 -3.7,17.72 -10.99,32.76 -21.92,45.26 -10.93,12.45 -26.55,18.67 -46.87,18.67l-0.01 0zm0 -9.21c13.23,0 23.08,-6.78 29.55,-20.33 6.47,-13.51 10.46,-28.47 12,-44.74 1.53,-16.3 2.29,-33.72 2.29,-52.19 0,-17.84 -0.76,-34.31 -2.29,-49.4 -1.54,-15.09 -5.54,-28.68 -12,-40.86 -6.47,-12.17 -16.3,-18.24 -29.55,-18.24 -13.23,0 -23.08,6.14 -29.55,18.48 -6.45,12.28 -10.45,25.92 -11.99,40.85 -1.53,14.93 -2.3,31.32 -2.3,49.17 0,12.95 0.31,25.25 0.92,36.95 0.61,11.66 2.3,23.75 5.07,36.24 2.77,12.45 7.24,22.92 13.39,31.36 6.16,8.48 14.32,12.73 24.47,12.73z"/>
   <path class="fil2" d="M3959.68 2417.16l0 -9.69c0,-0.63 0.31,-1.22 0.9,-1.84l54.92 -60.95c8.31,-8.9 15.13,-16.46 20.32,-22.61 5.28,-6.14 10.41,-13.23 15.49,-21.23 5.04,-8 9.06,-16.11 12.02,-24.26 2.91,-8.16 4.37,-16.83 4.37,-26.09 0,-9.84 -1.76,-19.14 -5.32,-27.93 -3.54,-8.74 -8.82,-15.83 -15.91,-21.23 -7.09,-5.36 -15.73,-8.04 -25.88,-8.04 -10.13,0 -19.39,3.15 -27.65,9.41 -8.32,6.34 -14.18,14.25 -17.58,23.8 0.95,0 2.32,0 4.18,0 5.24,0 9.69,1.78 13.4,5.32 3.66,3.55 5.51,8.07 5.51,13.59 0,5.56 -1.84,10.21 -5.51,13.87 -3.71,3.71 -8.16,5.55 -13.4,5.55 -5.55,0 -10.24,-1.93 -14.1,-5.78 -3.82,-3.86 -5.75,-8.4 -5.75,-13.63 0,-8.9 1.7,-17.21 5.08,-24.89 3.35,-7.68 8.2,-14.62 14.54,-20.77 6.3,-6.18 13.39,-10.87 21.23,-14.09 7.84,-3.24 16.24,-4.86 25.18,-4.86 13.51,0 26.15,2.91 37.81,8.78 11.7,5.83 20.96,13.91 27.74,24.23 6.78,10.32 10.16,22.53 10.16,36.67 0,10.16 -2.24,19.9 -6.7,29.11 -4.49,9.22 -10.24,17.61 -17.33,25.12 -7.09,7.56 -16.07,16.15 -26.98,25.84 -10.95,9.74 -18.12,16.11 -21.52,19.18l-40.13 38.77 33.71 0c16.9,0 30.96,-0.12 42.2,-0.45 11.27,-0.31 17.17,-0.79 17.8,-1.38 2.76,-3.1 5.72,-14.03 8.79,-32.81l10.16 0 -10.16 63.26 -131.58 0 0 0.03z"/>
   <path class="fil2" d="M6534.89 2358.55l0 -12.48 109.87 -163.41c0.63,-1.25 1.85,-1.84 3.71,-1.84l5.08 0c2.76,0 4.13,1.37 4.13,4.18l0 161.08 34.63 0 0 12.48 -34.63 0 0 35.06c0,4.6 3.47,7.6 10.4,9.02 6.93,1.37 14.85,2.04 23.76,2.04l0 12.48 -97.38 0 0 -12.48c8.9,0 16.86,-0.67 23.75,-2.04 6.93,-1.42 10.41,-4.42 10.41,-9.02l0 -35.06 -93.72 0zm11.96 -12.48l84.03 0 0 -125.55 -84.03 125.55z"/>
   <path class="fil2" d="M9196.87 2425c-14.77,0 -26.99,-3.9 -36.68,-11.78 -9.69,-7.84 -17.25,-17.92 -22.65,-30.21 -5.36,-12.34 -9.15,-25.34 -11.32,-39.04 -2.17,-13.66 -3.23,-27.46 -3.23,-41.28 0,-18.79 3.71,-37.54 11.11,-56.34 7.37,-18.75 18.07,-34.39 32.06,-46.84 14.03,-12.48 30.7,-18.7 50.07,-18.7 8.32,0 15.96,1.53 22.89,4.6 6.89,3.09 12.37,7.6 16.35,13.63 4.02,5.99 6.02,13.15 6.02,21.47 0,4.92 -1.61,8.98 -4.86,12.25 -3.23,3.23 -7.33,4.86 -12.25,4.86 -4.61,0 -8.63,-1.61 -12.02,-4.86 -3.39,-3.27 -5.05,-7.33 -5.05,-12.25 0,-4.66 1.65,-8.55 5.05,-11.78 3.37,-3.23 7.4,-4.86 12.02,-4.86l1.84 0c-3.07,-4.33 -7.28,-7.48 -12.67,-9.46 -5.4,-2.01 -11.16,-3.03 -17.34,-3.03 -7.05,0 -13.59,1.53 -19.62,4.65 -5.99,3.07 -11.46,7.19 -16.38,12.45 -4.92,5.24 -8.98,11.07 -12.22,17.52 -3.23,6.47 -5.71,13.79 -7.4,21.94 -1.7,8.16 -2.76,15.85 -3.23,23.09 -0.45,7.25 -0.67,16.23 -0.67,27.02 3.98,-9.84 9.84,-17.84 17.53,-24.03 7.68,-6.14 16.3,-9.22 25.84,-9.22 10.47,0 20.01,2.17 28.64,6.47 8.62,4.29 16.07,10.21 22.37,17.77 6.31,7.56 11.08,16.15 14.3,25.84 3.23,9.69 4.86,19.46 4.86,29.31 0,13.87 -3.07,27.1 -9.22,39.71 -6.14,12.64 -14.85,22.65 -26.07,30.02 -11.22,7.4 -23.91,11.07 -38.09,11.07l0.02 0.01zm0 -11.54c9.27,0 16.62,-2.05 22.18,-6.23 5.52,-4.18 9.61,-9.61 12.21,-16.38 2.65,-6.78 4.25,-13.66 4.86,-20.8 0.64,-7.05 0.95,-15.68 0.95,-25.84 0,-13.24 -0.71,-24.62 -2.09,-34.16 -1.37,-9.53 -4.86,-17.84 -10.36,-24.93 -5.55,-7.05 -14.18,-10.6 -25.84,-10.6 -9.57,0 -17.41,3.23 -23.56,9.69 -6.19,6.47 -10.71,14.62 -13.62,24.47 -2.96,9.84 -4.41,19.22 -4.41,28.16 0,3.07 0.16,5.52 0.47,7.37 0,0.31 0,0.55 0,0.7 0,0.16 -0.16,0.4 -0.47,0.67 0,10.21 1.09,20.49 3.26,30.96 2.13,10.44 6.15,19.23 11.98,26.32 5.87,7.09 14.03,10.6 24.47,10.6l-0.01 0z"/>
   <path class="fil2" d="M11706.1 2363.16c0,-14.15 4.69,-26.71 14.07,-37.62 9.38,-10.92 21.47,-19.93 36.24,-27.02l-13.39 -8.79c-8,-5.2 -14.54,-12.22 -19.62,-20.96 -5.08,-8.79 -7.6,-18.12 -7.6,-27.97 0,-11.38 2.99,-21.62 9.02,-30.69 5.99,-9.1 13.87,-16.23 23.72,-21.46 9.84,-5.2 20.32,-7.84 31.43,-7.84 10.44,0 20.6,2.17 30.45,6.45 9.84,4.3 17.84,10.44 24.03,18.48 6.14,8 9.21,17.53 9.21,28.6 0,7.68 -1.84,15.01 -5.51,21.94 -3.75,6.93 -8.83,13.09 -15.29,18.47 -6.47,5.4 -13.36,9.93 -20.76,13.63l20.32 12.89c9.22,6.18 16.71,14.25 22.38,24.26 5.71,9.96 8.54,20.37 8.54,31.15 0,12.92 -3.46,24.62 -10.35,35.1 -6.98,10.44 -16.04,18.59 -27.27,24.47 -11.22,5.83 -23.16,8.74 -35.77,8.74 -12.33,0 -24.19,-2.43 -35.53,-7.36 -11.39,-4.92 -20.65,-12.17 -27.74,-21.71 -7.09,-9.54 -10.6,-20.45 -10.6,-32.76l0 -0.01zm19.39 0c0,9.53 2.52,18.16 7.6,25.84 5.08,7.68 11.86,13.71 20.32,18 8.48,4.3 17.3,6.47 26.55,6.47 13.82,0 26.32,-3.99 37.39,-11.98 11.07,-8.03 16.63,-18.63 16.63,-31.87 0,-4.29 -0.87,-8.7 -2.57,-13.15 -1.69,-4.46 -4.13,-8.55 -7.36,-12.25 -3.24,-3.66 -6.86,-6.58 -10.88,-8.74l-47.51 -30.96c-7.4,4.02 -14.18,9.02 -20.32,15.01 -6.14,6.02 -10.99,12.72 -14.54,20.09 -3.54,7.4 -5.32,15.24 -5.32,23.56zm24.47 -108.03l42.94 27.69c9.84,-5.87 17.92,-12.89 24.23,-21.04 6.3,-8.16 9.45,-17.3 9.45,-27.46 0,-8 -2.21,-15.32 -6.66,-21.94 -4.49,-6.58 -10.24,-11.74 -17.33,-15.44 -7.09,-3.71 -14.77,-5.55 -23.08,-5.55 -7.09,0 -14.23,1.37 -21.47,4.18 -7.19,2.75 -13.23,6.85 -18,12.21 -4.77,5.39 -7.17,11.78 -7.17,19.18 0,11.07 5.71,20.49 17.1,28.17z"/>
   <path class="fil2" d="M14218.52 2417.16l0 -12.48c29.55,0 44.32,-3.66 44.32,-11.07l0 -186.5c-12.02,6.14 -27.38,9.22 -46.13,9.22l0 -12.45c28.91,0 50.77,-7.73 65.55,-23.08l5.05 0c0.63,0 1.34,0.39 2.09,1.14 0.78,0.78 1.17,1.45 1.17,2.09l0 209.57c0,7.4 14.77,11.07 44.32,11.07l0 12.48 -116.37 0 0 0.01z"/>
   <path class="fil2" d="M14451.65 2425c-28.91,0 -48.61,-11.89 -59.08,-35.77 -10.44,-23.83 -15.68,-52.24 -15.68,-85.17 0,-20.6 1.81,-39.94 5.52,-57.94 3.7,-18.01 11.19,-33.41 22.41,-46.17 11.22,-12.76 26.82,-19.14 46.83,-19.14 15.69,0 28.49,3.85 38.33,11.54 9.84,7.68 17.38,17.53 22.61,29.55 5.24,12.02 8.79,24.93 10.63,38.76 1.85,13.87 2.76,28.33 2.76,43.42 0,20.32 -1.84,39.32 -5.55,57.01 -3.66,17.72 -10.99,32.76 -21.94,45.26 -10.91,12.45 -26.51,18.67 -46.84,18.67zm0 -9.21c13.24,0 23.09,-6.78 29.55,-20.33 6.47,-13.51 10.49,-28.47 12.02,-44.74 1.54,-16.3 2.29,-33.72 2.29,-52.19 0,-17.84 -0.75,-34.31 -2.29,-49.4 -1.53,-15.09 -5.55,-28.68 -12.02,-40.86 -6.45,-12.17 -16.3,-18.24 -29.55,-18.24 -13.23,0 -23.08,6.14 -29.55,18.48 -6.47,12.28 -10.44,25.92 -11.98,40.85 -1.53,14.93 -2.32,31.32 -2.32,49.17 0,12.95 0.31,25.25 0.95,36.95 0.59,11.66 2.28,23.75 5.04,36.24 2.76,12.45 7.25,22.92 13.4,31.36 6.14,8.48 14.29,12.73 24.45,12.73l0.01 0z"/>
   <path class="fil2" d="M16801.56 2417.16l0 -12.48c29.55,0 44.32,-3.66 44.32,-11.07l0 -186.5c-11.98,6.14 -27.38,9.22 -46.13,9.22l0 -12.45c28.91,0 50.77,-7.73 65.55,-23.08l5.05 0c0.63,0 1.33,0.39 2.08,1.14 0.79,0.78 1.18,1.45 1.18,2.09l0 209.57c0,7.4 14.77,11.07 44.32,11.07l0 12.48 -116.37 0 0 0.01z"/>
   <path class="fil2" d="M16963.62 2417.16l0 -9.69c0,-0.63 0.32,-1.22 0.9,-1.84l54.92 -60.95c8.35,-8.9 15.13,-16.46 20.32,-22.61 5.28,-6.14 10.41,-13.23 15.49,-21.23 5.08,-8 9.06,-16.11 12.02,-24.26 2.91,-8.16 4.37,-16.83 4.37,-26.09 0,-9.84 -1.76,-19.14 -5.32,-27.93 -3.54,-8.74 -8.82,-15.83 -15.91,-21.23 -7.09,-5.36 -15.68,-8.04 -25.84,-8.04 -10.16,0 -19.39,3.15 -27.69,9.41 -8.32,6.34 -14.18,14.25 -17.58,23.8 0.95,0 2.32,0 4.18,0 5.24,0 9.69,1.78 13.4,5.32 3.66,3.55 5.52,8.07 5.52,13.59 0,5.56 -1.85,10.21 -5.52,13.87 -3.71,3.71 -8.16,5.55 -13.4,5.55 -5.55,0 -10.24,-1.93 -14.1,-5.78 -3.82,-3.86 -5.75,-8.4 -5.75,-13.63 0,-8.9 1.7,-17.21 5.08,-24.89 3.39,-7.68 8.24,-14.62 14.54,-20.77 6.31,-6.18 13.4,-10.87 21.24,-14.09 7.84,-3.24 16.23,-4.86 25.17,-4.86 13.55,0 26.15,2.91 37.82,8.78 11.69,5.83 20.95,13.91 27.73,24.23 6.78,10.32 10.16,22.53 10.16,36.67 0,10.16 -2.24,19.9 -6.69,29.11 -4.46,9.22 -10.25,17.61 -17.34,25.12 -7.09,7.56 -16.07,16.15 -26.98,25.84 -10.95,9.74 -18.07,16.11 -21.47,19.18l-40.18 38.77 33.72 0c16.9,0 31,-0.12 42.19,-0.45 11.27,-0.31 17.17,-0.79 17.8,-1.38 2.8,-3.1 5.72,-14.03 8.79,-32.81l10.16 0 -10.16 63.26 -131.58 0 0 0.03z"/>
   <path class="fil2" d="M19384.65 2417.16l0 -12.48c29.55,0 44.32,-3.66 44.32,-11.07l0 -186.5c-12.02,6.14 -27.38,9.22 -46.16,9.22l0 -12.45c28.94,0 50.81,-7.73 65.58,-23.08l5.05 0c0.63,0 1.3,0.39 2.09,1.14 0.75,0.78 1.14,1.45 1.14,2.09l0 209.57c0,7.4 14.77,11.07 44.32,11.07l0 12.48 -116.33 0 0 0.01z"/>
   <path class="fil2" d="M19538.83 2358.55l0 -12.48 109.87 -163.41c0.64,-1.25 1.85,-1.84 3.71,-1.84l5.08 0c2.76,0 4.13,1.37 4.13,4.18l0 161.08 34.63 0 0 12.48 -34.63 0 0 35.06c0,4.6 3.47,7.6 10.41,9.02 6.92,1.37 14.85,2.04 23.78,2.04l0 12.48 -97.42 0 0 -12.48c8.9,0 16.86,-0.67 23.75,-2.04 6.93,-1.42 10.41,-4.42 10.41,-9.02l0 -35.06 -93.72 0zm11.97 -12.48l84.06 0 0 -125.55 -84.06 125.55z"/>
   <line class="fil1 str1" x1="1447.7" y1="2009.04" x2="1447.7" y2= "324.99" />
   <line class="fil1 str1" x1="1447.7" y1="2009.04" x2="1628.5" y2= "2009.04" />
   <line class="fil1 str1" x1="1447.7" y1="1447.7" x2="1628.5" y2= "1447.7" />
   <line class="fil1 str1" x1="1447.7" y1="886.35" x2="1628.5" y2= "886.35" />
   <line class="fil1 str1" x1="1447.7" y1="324.99" x2="1628.5" y2= "324.99" />
   <path class="fil2" d="M1248.76 2101.98c-28.93,0 -48.63,-11.91 -59.09,-35.78 -10.46,-23.83 -15.69,-52.24 -15.69,-85.17 0,-20.6 1.84,-39.94 5.54,-57.94 3.68,-18 11.16,-33.41 22.39,-46.17 11.21,-12.76 26.86,-19.14 46.85,-19.14 15.7,0 28.47,3.86 38.32,11.54 9.84,7.68 17.39,17.53 22.6,29.55 5.25,12.02 8.78,24.93 10.63,38.77 1.86,13.86 2.78,28.32 2.78,43.4 0,20.33 -1.86,39.32 -5.55,57.01 -3.7,17.72 -10.99,32.76 -21.93,45.26 -10.92,12.45 -26.54,18.68 -46.85,18.68zm0 -9.22c13.23,0 23.08,-6.78 29.55,-20.32 6.47,-13.51 10.46,-28.49 12,-44.76 1.52,-16.3 2.29,-33.72 2.29,-52.19 0,-17.84 -0.77,-34.31 -2.29,-49.4 -1.54,-15.09 -5.54,-28.68 -12,-40.85 -6.47,-12.17 -16.3,-18.25 -29.55,-18.25 -13.23,0 -23.08,6.15 -29.55,18.48 -6.47,12.29 -10.46,25.92 -12,40.85 -1.52,14.93 -2.29,31.32 -2.29,49.17 0,12.95 0.31,25.25 0.9,36.95 0.63,11.66 2.31,23.75 5.08,36.24 2.77,12.45 7.24,22.94 13.39,31.37 6.15,8.46 14.32,12.72 24.47,12.72z"/>
   <path class="fil2" d="M1000.39 1532.79l0 -9.69c0,-0.64 0.31,-1.23 0.93,-1.85l54.92 -60.94c8.31,-8.91 15.1,-16.47 20.33,-22.61 5.21,-6.15 10.37,-13.24 15.44,-21.24 5.1,-8 9.1,-16.11 12.04,-24.26 2.9,-8.15 4.37,-16.82 4.37,-26.07 0,-9.84 -1.76,-19.15 -5.33,-27.94 -3.52,-8.74 -8.83,-15.83 -15.9,-21.23 -7.08,-5.36 -15.7,-8.04 -25.85,-8.04 -10.16,0 -19.37,3.16 -27.7,9.41 -8.31,6.34 -14.16,14.25 -17.54,23.8 0.93,0 2.31,0 4.18,0 5.21,0 9.67,1.78 13.37,5.32 3.7,3.55 5.54,8.07 5.54,13.6 0,5.55 -1.84,10.2 -5.54,13.86 -3.7,3.71 -8.15,5.56 -13.37,5.56 -5.56,0 -10.26,-1.93 -14.1,-5.8 -3.84,-3.86 -5.77,-8.39 -5.77,-13.62 0,-8.91 1.72,-17.22 5.1,-24.9 3.37,-7.68 8.2,-14.62 14.53,-20.76 6.3,-6.19 13.37,-10.88 21.25,-14.1 7.83,-3.23 16.21,-4.86 25.12,-4.86 13.55,0 26.16,2.91 37.84,8.79 11.71,5.83 20.94,13.9 27.72,24.22 6.78,10.33 10.17,22.53 10.17,36.68 0,10.16 -2.26,19.89 -6.71,29.11 -4.48,9.21 -10.25,17.61 -17.31,25.12 -7.08,7.57 -16.09,16.16 -27.01,25.85 -10.94,9.73 -18.09,16.1 -21.48,19.18l-40.14 38.76 33.7 0c16.93,0 31,-0.12 42.22,-0.45 11.26,-0.31 17.17,-0.78 17.79,-1.37 2.77,-3.12 5.71,-14.03 8.78,-32.82l10.17 0 -10.17 63.27 -131.58 0 0.01 0.02z"/>
   <path class="fil2" d="M1248.76 1540.63c-28.93,0 -48.63,-11.91 -59.09,-35.78 -10.46,-23.83 -15.69,-52.23 -15.69,-85.17 0,-20.6 1.84,-39.94 5.54,-57.94 3.68,-18 11.16,-33.41 22.39,-46.17 11.21,-12.76 26.86,-19.14 46.85,-19.14 15.7,0 28.47,3.86 38.32,11.55 9.84,7.68 17.39,17.52 22.6,29.55 5.25,12.02 8.78,24.95 10.63,38.77 1.86,13.87 2.78,28.32 2.78,43.4 0,20.33 -1.86,39.32 -5.55,57.01 -3.7,17.73 -10.99,32.76 -21.93,45.27 -10.92,12.44 -26.54,18.67 -46.85,18.67l0 -0.01zm0 -9.23c13.23,0 23.08,-6.78 29.55,-20.32 6.47,-13.51 10.46,-28.49 12,-44.76 1.52,-16.3 2.29,-33.71 2.29,-52.19 0,-17.84 -0.77,-34.31 -2.29,-49.4 -1.54,-15.09 -5.54,-28.68 -12,-40.85 -6.47,-12.17 -16.3,-18.25 -29.55,-18.25 -13.23,0 -23.08,6.15 -29.55,18.48 -6.47,12.29 -10.46,25.92 -12,40.85 -1.52,14.93 -2.29,31.32 -2.29,49.17 0,12.96 0.31,25.25 0.9,36.95 0.63,11.66 2.31,23.75 5.08,36.25 2.77,12.44 7.24,22.92 13.39,31.36 6.15,8.46 14.32,12.72 24.47,12.72z"/>
   <path class="fil2" d="M992.55 912.81l0 -12.48 109.87 -163.4c0.61,-1.26 1.84,-1.85 3.7,-1.85l5.07 0c2.77,0 4.14,1.38 4.14,4.18l0 161.08 34.64 0 0 12.48 -34.64 0 0 35.06c0,4.61 3.48,7.6 10.41,9.02 6.9,1.38 14.85,2.05 23.78,2.05l0 12.48 -97.42 0 0 -12.48c8.92,0 16.85,-0.67 23.75,-2.05 6.95,-1.42 10.41,-4.41 10.41,-9.02l0 -35.06 -93.71 0zm11.98 -12.5l84.04 0 0 -125.55 -84.04 125.55z"/>
   <path class="fil2" d="M1248.76 979.27c-28.93,0 -48.63,-11.91 -59.09,-35.77 -10.46,-23.84 -15.69,-52.24 -15.69,-85.17 0,-20.6 1.84,-39.95 5.54,-57.95 3.68,-18 11.16,-33.4 22.39,-46.16 11.21,-12.76 26.86,-19.15 46.85,-19.15 15.7,0 28.47,3.86 38.32,11.55 9.84,7.68 17.39,17.53 22.6,29.55 5.25,12.02 8.78,24.93 10.63,38.76 1.86,13.87 2.78,28.32 2.78,43.42 0,20.32 -1.86,39.31 -5.55,56.99 -3.7,17.73 -10.99,32.76 -21.93,45.27 -10.92,12.44 -26.54,18.67 -46.85,18.67zm0 -9.23c13.23,0 23.08,-6.77 29.55,-20.32 6.47,-13.51 10.46,-28.49 12,-44.76 1.52,-16.3 2.29,-33.71 2.29,-52.19 0,-17.84 -0.77,-34.31 -2.29,-49.4 -1.54,-15.09 -5.54,-28.68 -12,-40.85 -6.47,-12.17 -16.3,-18.24 -29.55,-18.24 -13.23,0 -23.08,6.14 -29.55,18.47 -6.47,12.29 -10.46,25.92 -12,40.85 -1.52,14.94 -2.29,31.32 -2.29,49.17 0,12.96 0.31,25.25 0.9,36.95 0.63,11.66 2.31,23.75 5.08,36.25 2.77,12.45 7.24,22.92 13.39,31.36 6.15,8.46 14.32,12.72 24.47,12.72z"/>
   <path class="fil2" d="M1071.5 417.92c-14.77,0 -27,-3.9 -36.69,-11.78 -9.68,-7.84 -17.24,-17.92 -22.62,-30.22 -5.39,-12.33 -9.16,-25.33 -11.33,-39.04 -2.13,-13.66 -3.22,-27.45 -3.22,-41.28 0,-18.78 3.7,-37.54 11.09,-56.32 7.38,-18.76 18.07,-34.39 32.08,-46.84 14,-12.48 30.7,-18.72 50.08,-18.72 8.31,0 15.93,1.54 22.87,4.61 6.9,3.07 12.36,7.6 16.36,13.63 4,5.99 6,13.15 6,21.46 0,4.92 -1.61,8.99 -4.86,12.25 -3.23,3.24 -7.3,4.86 -12.23,4.86 -4.6,0 -8.6,-1.61 -11.99,-4.86 -3.37,-3.26 -5.08,-7.33 -5.08,-12.25 0,-4.65 1.7,-8.54 5.08,-11.77 3.39,-3.24 7.39,-4.86 11.99,-4.86l1.86 0c-3.07,-4.33 -7.31,-7.5 -12.7,-9.46 -5.39,-2.01 -11.17,-3.04 -17.32,-3.04 -7.08,0 -13.61,1.54 -19.62,4.66 -6.01,3.07 -11.48,7.19 -16.4,12.44 -4.92,5.25 -9,11.08 -12.23,17.53 -3.23,6.47 -5.69,13.79 -7.39,21.94 -1.69,8.15 -2.77,15.83 -3.22,23.08 -0.46,7.26 -0.67,16.24 -0.67,27.03 4,-9.84 9.83,-17.86 17.51,-24.03 7.7,-6.15 16.33,-9.22 25.85,-9.22 10.49,0 20.02,2.17 28.64,6.47 8.61,4.29 16.09,10.2 22.39,17.77 6.31,7.56 11.05,16.15 14.29,25.84 3.23,9.69 4.86,19.46 4.86,29.31 0,13.86 -3.06,27.1 -9.22,39.71 -6.15,12.64 -14.86,22.65 -26.07,30.02 -11.23,7.4 -23.93,11.07 -38.09,11.07l0 0.01zm0 -11.55c9.23,0 16.62,-2.04 22.15,-6.22 5.54,-4.18 9.63,-9.61 12.24,-16.39 2.61,-6.77 4.23,-13.66 4.86,-20.79 0.6,-7.06 0.9,-15.68 0.9,-25.84 0,-13.24 -0.69,-24.62 -2.05,-34.16 -1.38,-9.54 -4.86,-17.84 -10.41,-24.93 -5.54,-7.06 -14.16,-10.6 -25.85,-10.6 -9.53,0 -17.38,3.23 -23.52,9.69 -6.16,6.45 -10.71,14.62 -13.61,24.45 -2.94,9.84 -4.4,19.23 -4.4,28.17 0,3.07 0.16,5.52 0.46,7.37 0,0.31 0,0.55 0,0.7 0,0.16 -0.16,0.39 -0.46,0.67 0,10.21 1.07,20.48 3.24,30.96 2.14,10.44 6.14,19.22 11.99,26.3 5.84,7.09 14,10.6 24.47,10.6l-0.01 0.01z"/>
   <path class="fil2" d="M1248.76 417.92c-28.93,0 -48.63,-11.89 -59.09,-35.77 -10.46,-23.84 -15.69,-52.24 -15.69,-85.17 0,-20.6 1.84,-39.94 5.54,-57.95 3.68,-18 11.16,-33.4 22.39,-46.16 11.21,-12.76 26.86,-19.15 46.85,-19.15 15.7,0 28.47,3.86 38.32,11.55 9.84,7.68 17.39,17.53 22.6,29.55 5.25,12.02 8.78,24.93 10.63,38.76 1.86,13.87 2.78,28.33 2.78,43.42 0,20.32 -1.86,39.31 -5.55,56.99 -3.7,17.73 -10.99,32.79 -21.93,45.27 -10.92,12.45 -26.54,18.67 -46.85,18.67zm0 -9.22c13.23,0 23.08,-6.78 29.55,-20.33 6.47,-13.51 10.46,-28.47 12,-44.74 1.52,-16.3 2.29,-33.72 2.29,-52.2 0,-17.84 -0.77,-34.3 -2.29,-49.4 -1.54,-15.09 -5.54,-28.68 -12,-40.85 -6.47,-12.17 -16.3,-18.24 -29.55,-18.24 -13.23,0 -23.08,6.14 -29.55,18.47 -6.47,12.29 -10.46,25.93 -12,40.86 -1.52,14.93 -2.29,31.31 -2.29,49.16 0,12.96 0.31,25.26 0.9,36.95 0.63,11.67 2.31,23.76 5.08,36.25 2.77,12.45 7.24,22.92 13.39,31.36 6.15,8.48 14.32,12.73 24.47,12.73z"/>
   <polyline class="fil1 str2" points="1447.7,841.12 1770.59,864.44 2093.46,867.83 2416.36,854.04 2739.23,864.44 3062.12,889.73 3384.99,888.31 3707.88,902.38 4030.78,878.74 4353.65,862.52 4676.52,880.71 4999.43,904.63 5322.29,890.84 5645.15,863.89 5968.06,877.92 6290.96,906.23 6613.82,890.01 6936.69,866.13 7259.6,890.01 7582.47,899.27 7905.34,908.8 8228.24,903.48 8551.13,905.14 8874.02,887.17 9196.87,873.69 9519.79,895.88 9842.64,907.98 10165.52,913.29 10488.41,908.24 10811.34,888.31 11134.18,890.01 11457.07,872.56 11779.96,891.11 12102.84,916.41 12425.69,911.59 12748.61,891.38 13071.51,876.22 13394.38,890.56 13717.23,917.78 14040.15,909.07 14363.01,879.88 14685.89,896.46 15008.78,916.08 15331.7,915.81 15654.54,909.66 15977.41,910.49 16300.32,912.15 16623.19,878.46 16946.05,888.31 17268.96,914.4 17591.87,918.65 17914.74,920.57 18237.61,879.88 "/>
   <path class="fil2" d="M413.99 1812.68c0,2.43 -1.7,3.7 -5.09,3.7 -0.6,0 -1.69,-0.16 -3.22,-0.47 -1.54,-0.31 -2.77,-0.87 -3.7,-1.61 -0.93,-0.78 -1.38,-1.61 -1.38,-2.56 0,-15.68 -0.93,-26.59 -2.8,-32.74 -1.21,-3.37 -4.59,-5.86 -10.15,-7.4l-210.95 -52.63c-2.47,-0.31 -4.31,-0.45 -5.56,-0.45 -2.76,0 -4.29,1.34 -4.6,4.14 -0.94,4.92 -1.4,14.14 -1.4,27.69 0,2.8 -1.7,4.18 -5.08,4.18 -0.61,-0.32 -1.67,-0.64 -3.22,-0.95 -1.54,-0.31 -2.77,-0.83 -3.7,-1.61 -0.93,-0.75 -1.38,-1.61 -1.38,-2.52l0 -132.51c0,-12.29 2.16,-24.15 6.47,-35.53 4.29,-11.39 10.83,-20.71 19.62,-27.93 8.77,-7.21 19.46,-10.83 32.08,-10.83 16.3,0 30.85,5.75 43.61,17.29 12.8,11.55 22.71,25.85 29.78,42.95 7.08,17.1 10.62,33.6 10.62,49.59l0 62.37 95.09 23.55c2.47,0.28 4.31,0.45 5.56,0.45 0.92,0 1.69,-0.16 2.3,-0.45 0.61,-0.36 1.08,-0.7 1.38,-1.18 0.3,-0.47 0.45,-1.3 0.45,-2.51 1.25,-4.92 1.86,-14.35 1.86,-28.17 0,-2.48 1.7,-3.7 5.08,-3.7 3.37,0.9 5.62,1.61 6.68,2.09 1.07,0.42 1.63,2.04 1.63,4.84l0 102.94 0.01 -0.01zm-131.12 -99.71l0 -54.05c0,-24.9 -6.78,-43.81 -20.3,-56.77 -6.47,-6.45 -16,-11.86 -28.64,-16.15 -12.6,-4.3 -23.99,-6.47 -34.14,-6.47 -12.64,0 -21.56,4.86 -26.78,14.54 -5.24,9.69 -7.86,21.63 -7.86,35.81l0 36.91c0,7.06 0.63,11.7 1.85,13.87 1.24,2.12 4.92,4.13 11.09,5.99l104.78 26.32z"/>
   <path class="fil2" d="M478.47 1514.74c0,21.86 -9,36.64 -27,44.32 -18.01,7.68 -39.32,11.54 -63.94,11.54 -15.38,0 -29.85,-1.37 -43.39,-4.18 -13.55,-2.76 -25.08,-8.26 -34.64,-16.58 -9.53,-8.31 -14.29,-20.01 -14.29,-35.1 0,-11.7 2.85,-21.24 8.54,-28.6 5.68,-7.4 13.09,-13.09 22.15,-17.1 9.08,-4.02 18.77,-6.7 29.07,-8.07 10.33,-1.38 21.17,-2.09 32.56,-2.09 15.39,0 29.7,1.37 42.94,4.13 13.23,2.8 24.53,8.31 33.91,16.63 9.4,8.35 14.09,20.01 14.09,35.1zm-6.9 0c0,-9.84 -5.09,-17.25 -15.24,-22.18 -10.17,-4.92 -21.41,-7.92 -33.72,-8.99 -12.31,-1.06 -25.38,-1.61 -39.23,-1.61 -13.24,0 -25.47,0.55 -36.69,1.61 -11.23,1.07 -21.46,4.06 -30.7,8.99 -9.23,4.92 -13.86,12.33 -13.86,22.18 0,10.16 4.62,17.61 13.86,22.38 9.23,4.77 19.46,7.72 30.7,8.78 11.22,1.07 23.45,1.61 36.69,1.61 9.84,0 19.17,-0.23 27.95,-0.7 8.77,-0.45 17.77,-1.7 27.01,-3.68 9.21,-2 17.06,-5.32 23.54,-9.96 6.47,-4.57 9.69,-10.75 9.69,-18.44l0 0.02z"/>
   <path class="fil2" d="M509.08 1176.12c-11.09,14.18 -23.94,26.4 -38.56,36.68 -14.61,10.35 -30.15,18.78 -46.61,25.4 -16.47,6.62 -33.7,11.55 -51.71,14.77 -18,3.23 -36.08,4.86 -54.24,4.86 -18.48,0 -36.72,-1.61 -54.72,-4.86 -18.01,-3.23 -35.32,-8.15 -51.92,-14.77 -16.62,-6.62 -32.17,-15.13 -46.64,-25.6 -14.46,-10.49 -27.08,-22.66 -37.85,-36.48 -0.61,0 -0.9,-0.59 -0.9,-1.85l0 -3.66c0,-0.63 0.29,-1.26 0.9,-1.89 0.61,-0.59 1.38,-0.9 2.31,-0.9 1.25,0 2.17,0.16 2.77,0.47 12,12.61 25,23.08 39,31.4 14,8.31 28.93,15.01 44.78,20.09 15.87,5.08 32.26,8.74 49.17,11.07 16.93,2.32 34.63,3.47 53.11,3.47 81.25,0 143.09,-21.86 185.57,-65.59 0.61,-0.59 1.69,-0.9 3.25,-0.9 0.61,0 1.31,0.31 2.08,0.9 0.76,0.63 1.15,1.26 1.15,1.89l0 3.66c0,1.26 -0.31,1.85 -0.93,1.85z"/>
   <path class="fil2" d="M418.13 1023.99l-241 78.47c-5.21,2.17 -8.52,6.11 -9.92,11.83 -1.38,5.67 -2.08,13.15 -2.08,22.37l-13.37 0 0 -102.97 13.37 0c0,21.54 3.39,32.34 10.16,32.34l1.83 0 189.3 -61.42 -161.58 -52.16 -27.72 8.75c-5.21,1.89 -8.52,5.71 -9.92,11.58 -1.38,5.83 -2.08,13.39 -2.08,22.61l-13.37 0 0 -102.93 13.37 0c0,21.82 3.39,32.73 10.16,32.73 0.3,0 0.84,-0.16 1.61,-0.45 0.77,-0.31 1.31,-0.47 1.6,-0.47l187.91 -60.94 -178.65 -57.68c-0.64,-0.31 -1.86,-0.47 -3.7,-0.47 -6.77,0 -11.6,3.54 -14.54,10.6 -2.93,7.09 -4.4,14.61 -4.4,22.65l-13.37 0 0 -82.17 13.37 0c0,19.98 7.55,32.42 22.63,37.34l230.36 74.82c2.77,0.9 4.14,2.91 4.14,6.02l0 2.76c0,2.76 -1.37,4.61 -4.14,5.56l-195.29 63.23 195.29 63.69c2.77,0.95 4.14,2.91 4.14,6.02l0 2.76c0,2.76 -1.37,4.61 -4.14,5.52l0.01 0.02z"/>
   <path class="fil2" d="M510.01 717.82c0,2.17 -1.08,3.23 -3.23,3.23 -1.24,0 -2.16,-0.16 -2.78,-0.47 -42.78,-44.01 -104.78,-66.03 -186.04,-66.03 -81.25,0 -143.11,21.71 -185.58,65.08 -0.64,0.95 -1.71,1.42 -3.25,1.42 -0.93,0 -1.7,-0.31 -2.31,-0.94 -0.61,-0.64 -0.9,-1.38 -0.9,-2.29l0 -3.71c0,-0.63 0.29,-1.26 0.9,-1.84 14.48,-18.48 32.1,-33.77 52.86,-45.94 20.77,-12.17 42.86,-21.07 66.24,-26.79 23.39,-5.67 47.41,-8.54 72.04,-8.54 18.16,0 35.99,1.53 53.53,4.65 17.54,3.07 34.85,7.92 51.94,14.54 17.08,6.62 32.85,15.04 47.34,25.4 14.45,10.28 27.22,22.5 38.31,36.68 0.61,0.58 0.93,1.22 0.93,1.84l0 3.71z"/>
   <polygon class="fil0" points="1447.7,4343.09 19529.14,4343.09 19529.14,2688.59 1447.7,2688.59 "/>
   <line class="fil1 str0" x1="1447.7" y1="4343.09" x2="1447.7" y2= "2688.59" />
   <line class="fil1 str0" x1="4030.78" y1="4343.09" x2="4030.78" y2= "2688.59" />
   <line class="fil1 str0" x1="6613.82" y1="4343.09" x2="6613.82" y2= "2688.59" />
   <line class="fil1 str0" x1="9196.87" y1="4343.09" x2="9196.87" y2= "2688.59" />
   <line class="fil1 str0" x1="11779.96" y1="4343.09" x2="11779.96" y2= "2688.59" />
   <line class="fil1 str0" x1="14363.01" y1="4343.09" x2="14363.01" y2= "2688.59" />
   <line class="fil1 str0" x1="16946.05" y1="4343.09" x2="16946.05" y2= "2688.59" />
   <line class="fil1 str0" x1="19529.14" y1="4343.09" x2="19529.14" y2= "2688.59" />
   <line class="fil1 str0" x1="19529.14" y1="4343.09" x2="1447.7" y2= "4343.09" />
   <line class="fil1 str0" x1="19529.14" y1="3515.84" x2="1447.7" y2= "3515.84" />
   <line class="fil1 str0" x1="19529.14" y1="2688.59" x2="1447.7" y2= "2688.59" />
   <line class="fil1 str1" x1="1447.7" y1="4343.09" x2="19529.14" y2= "4343.09" />
   <line class="fil1 str1" x1="1447.7" y1="4343.09" x2="1447.7" y2= "4162.28" />
   <line class="fil1 str1" x1="4030.78" y1="4343.09" x2="4030.78" y2= "4162.28" />
   <line class="fil1 str1" x1="6613.82" y1="4343.09" x2="6613.82" y2= "4162.28" />
   <line class="fil1 str1" x1="9196.87" y1="4343.09" x2="9196.87" y2= "4162.28" />
   <line class="fil1 str1" x1="11779.96" y1="4343.09" x2="11779.96" y2= "4162.28" />
   <line class="fil1 str1" x1="14363.01" y1="4343.09" x2="14363.01" y2= "4162.28" />
   <line class="fil1 str1" x1="16946.05" y1="4343.09" x2="16946.05" y2= "4162.28" />
   <line class="fil1 str1" x1="19529.14" y1="4343.09" x2="19529.14" y2= "4162.28" />
   <path class="fil2" d="M1447.7 4759.05c-28.92,0 -48.62,-11.89 -59.08,-35.77 -10.46,-23.83 -15.7,-52.24 -15.7,-85.17 0,-20.6 1.84,-39.94 5.54,-57.95 3.7,-18 11.16,-33.4 22.39,-46.16 11.22,-12.76 26.86,-19.15 46.85,-19.15 15.7,0 28.47,3.86 38.32,11.55 9.84,7.68 17.39,17.53 22.63,29.55 5.21,12.02 8.75,24.93 10.6,38.76 1.86,13.87 2.8,28.33 2.8,43.42 0,20.32 -1.86,39.32 -5.56,57.01 -3.7,17.72 -10.99,32.76 -21.92,45.26 -10.93,12.45 -26.55,18.67 -46.87,18.67l-0.01 0zm0 -9.21c13.23,0 23.08,-6.78 29.55,-20.33 6.47,-13.51 10.46,-28.47 12,-44.74 1.53,-16.3 2.29,-33.72 2.29,-52.2 0,-17.84 -0.76,-34.3 -2.29,-49.39 -1.54,-15.1 -5.54,-28.69 -12,-40.86 -6.47,-12.17 -16.3,-18.24 -29.55,-18.24 -13.23,0 -23.08,6.14 -29.55,18.47 -6.45,12.29 -10.45,25.93 -11.99,40.86 -1.53,14.93 -2.3,31.31 -2.3,49.16 0,12.96 0.31,25.26 0.92,36.95 0.61,11.67 2.3,23.76 5.07,36.25 2.77,12.45 7.24,22.92 13.39,31.36 6.16,8.48 14.32,12.73 24.47,12.73z"/>
   <path class="fil2" d="M3959.68 4751.21l0 -9.69c0,-0.63 0.31,-1.22 0.9,-1.85l54.92 -60.94c8.31,-8.9 15.13,-16.47 20.32,-22.61 5.28,-6.14 10.41,-13.23 15.49,-21.23 5.04,-8.01 9.06,-16.11 12.02,-24.28 2.91,-8.15 4.37,-16.82 4.37,-26.07 0,-9.84 -1.76,-19.14 -5.32,-27.93 -3.54,-8.74 -8.82,-15.83 -15.91,-21.24 -7.09,-5.35 -15.73,-8.03 -25.88,-8.03 -10.13,0 -19.39,3.15 -27.65,9.41 -8.32,6.34 -14.18,14.25 -17.58,23.8 0.95,0 2.32,0 4.18,0 5.24,0 9.69,1.76 13.4,5.32 3.66,3.54 5.51,8.07 5.51,13.59 0,5.55 -1.84,10.21 -5.51,13.87 -3.71,3.7 -8.16,5.55 -13.4,5.55 -5.55,0 -10.24,-1.93 -14.1,-5.78 -3.82,-3.86 -5.75,-8.4 -5.75,-13.63 0,-8.9 1.7,-17.22 5.08,-24.9 3.35,-7.67 8.2,-14.61 14.54,-20.76 6.3,-6.19 13.39,-10.87 21.23,-14.1 7.84,-3.23 16.24,-4.86 25.18,-4.86 13.51,0 26.15,2.91 37.81,8.79 11.7,5.83 20.96,13.9 27.74,24.23 6.78,10.32 10.16,22.53 10.16,36.67 0,10.16 -2.24,19.9 -6.7,29.11 -4.49,9.22 -10.24,17.61 -17.33,25.12 -7.09,7.56 -16.07,16.15 -26.98,25.84 -10.95,9.73 -18.12,16.11 -21.52,19.18l-40.13 38.76 33.71 0c16.9,0 30.96,-0.11 42.2,-0.42 11.27,-0.32 17.17,-0.79 17.8,-1.38 2.76,-3.12 5.72,-14.03 8.79,-32.82l10.16 0 -10.16 63.27 -131.58 0 0 0.02z"/>
   <path class="fil2" d="M6534.89 4692.59l0 -12.48 109.87 -163.4c0.63,-1.26 1.85,-1.85 3.71,-1.85l5.08 0c2.76,0 4.13,1.38 4.13,4.18l0 161.08 34.63 0 0 12.48 -34.63 0 0 35.05c0,4.61 3.47,7.6 10.4,9.02 6.93,1.38 14.85,2.05 23.76,2.05l0 12.48 -97.38 0 0 -12.48c8.9,0 16.86,-0.67 23.75,-2.05 6.93,-1.42 10.41,-4.41 10.41,-9.02l0 -35.05 -93.72 0zm11.96 -12.48l84.03 0 0 -125.55 -84.03 125.55z"/>
   <path class="fil2" d="M9196.87 4759.05c-14.77,0 -26.99,-3.9 -36.68,-11.78 -9.69,-7.84 -17.25,-17.92 -22.65,-30.21 -5.36,-12.34 -9.15,-25.34 -11.32,-39.05 -2.17,-13.66 -3.23,-27.45 -3.23,-41.28 0,-18.78 3.71,-37.54 11.11,-56.32 7.37,-18.76 18.07,-34.39 32.06,-46.84 14.03,-12.48 30.7,-18.72 50.07,-18.72 8.32,0 15.96,1.54 22.89,4.61 6.89,3.07 12.37,7.6 16.35,13.63 4.02,5.99 6.02,13.15 6.02,21.46 0,4.92 -1.61,8.99 -4.86,12.26 -3.23,3.23 -7.33,4.84 -12.25,4.84 -4.61,0 -8.63,-1.61 -12.02,-4.84 -3.39,-3.27 -5.05,-7.34 -5.05,-12.26 0,-4.65 1.65,-8.54 5.05,-11.77 3.37,-3.24 7.4,-4.86 12.02,-4.86l1.84 0c-3.07,-4.33 -7.28,-7.5 -12.67,-9.46 -5.4,-2.01 -11.16,-3.04 -17.34,-3.04 -7.05,0 -13.59,1.54 -19.62,4.66 -5.99,3.07 -11.46,7.19 -16.38,12.44 -4.92,5.25 -8.98,11.08 -12.22,17.53 -3.23,6.47 -5.71,13.79 -7.4,21.94 -1.7,8.16 -2.76,15.83 -3.23,23.09 -0.45,7.25 -0.67,16.23 -0.67,27.02 3.98,-9.84 9.84,-17.84 17.53,-24.03 7.68,-6.15 16.3,-9.22 25.84,-9.22 10.47,0 20.01,2.17 28.64,6.47 8.62,4.29 16.07,10.2 22.37,17.77 6.31,7.56 11.08,16.15 14.3,25.84 3.23,9.69 4.86,19.46 4.86,29.31 0,13.86 -3.07,27.1 -9.22,39.71 -6.14,12.64 -14.85,22.65 -26.07,30.02 -11.22,7.4 -23.91,11.07 -38.09,11.07l0.02 0.01zm0 -11.55c9.27,0 16.62,-2.04 22.18,-6.22 5.52,-4.18 9.61,-9.61 12.21,-16.38 2.65,-6.78 4.25,-13.68 4.86,-20.8 0.64,-7.06 0.95,-15.68 0.95,-25.84 0,-13.24 -0.71,-24.62 -2.09,-34.16 -1.37,-9.54 -4.86,-17.84 -10.36,-24.93 -5.55,-7.05 -14.18,-10.6 -25.84,-10.6 -9.57,0 -17.41,3.23 -23.56,9.69 -6.19,6.45 -10.71,14.62 -13.62,24.47 -2.96,9.84 -4.41,19.22 -4.41,28.16 0,3.07 0.16,5.52 0.47,7.37 0,0.31 0,0.55 0,0.7 0,0.16 -0.16,0.39 -0.47,0.67 0,10.21 1.09,20.49 3.26,30.96 2.13,10.44 6.15,19.23 11.98,26.32 5.87,7.09 14.03,10.59 24.47,10.59l-0.01 0z"/>
   <path class="fil2" d="M11706.1 4697.21c0,-14.15 4.69,-26.71 14.07,-37.63 9.38,-10.91 21.47,-19.93 36.24,-27.02l-13.39 -8.78c-8,-5.2 -14.54,-12.22 -19.62,-20.96 -5.08,-8.79 -7.6,-18.12 -7.6,-27.97 0,-11.38 2.99,-21.63 9.02,-30.69 5.99,-9.1 13.87,-16.23 23.72,-21.47 9.84,-5.19 20.32,-7.84 31.43,-7.84 10.44,0 20.6,2.17 30.45,6.47 9.84,4.3 17.84,10.44 24.03,18.48 6.14,8 9.21,17.52 9.21,28.6 0,7.68 -1.84,15.01 -5.51,21.94 -3.75,6.93 -8.83,13.09 -15.29,18.47 -6.47,5.39 -13.36,9.93 -20.76,13.63l20.32 12.88c9.22,6.19 16.71,14.25 22.38,24.26 5.71,9.97 8.54,20.37 8.54,31.17 0,12.92 -3.46,24.62 -10.35,35.1 -6.98,10.44 -16.04,18.59 -27.27,24.47 -11.22,5.83 -23.16,8.74 -35.77,8.74 -12.33,0 -24.19,-2.45 -35.53,-7.37 -11.39,-4.92 -20.65,-12.17 -27.74,-21.7 -7.09,-9.54 -10.6,-20.45 -10.6,-32.76l0 -0.01zm19.39 0c0,9.53 2.52,18.16 7.6,25.84 5.08,7.68 11.86,13.7 20.32,18 8.48,4.29 17.3,6.45 26.55,6.45 13.82,0 26.32,-3.98 37.39,-11.97 11.07,-8.04 16.63,-18.64 16.63,-31.87 0,-4.29 -0.87,-8.71 -2.57,-13.15 -1.69,-4.46 -4.13,-8.55 -7.36,-12.25 -3.24,-3.66 -6.86,-6.58 -10.88,-8.75l-47.51 -30.95c-7.4,4.01 -14.18,9.02 -20.32,15.01 -6.14,6.02 -10.99,12.72 -14.54,20.09 -3.54,7.4 -5.32,15.24 -5.32,23.56zm24.47 -108.03l42.94 27.69c9.84,-5.86 17.92,-12.88 24.23,-21.03 6.3,-8.16 9.45,-17.3 9.45,-27.46 0,-8 -2.21,-15.33 -6.66,-21.94 -4.49,-6.58 -10.24,-11.75 -17.33,-15.44 -7.09,-3.71 -14.77,-5.56 -23.08,-5.56 -7.09,0 -14.23,1.38 -21.47,4.18 -7.19,2.76 -13.23,6.86 -18,12.22 -4.77,5.39 -7.17,11.78 -7.17,19.18 0,11.07 5.71,20.48 17.1,28.16z"/>
   <path class="fil2" d="M14218.52 4751.21l0 -12.48c29.55,0 44.32,-3.66 44.32,-11.08l0 -186.48c-12.02,6.14 -27.38,9.21 -46.13,9.21l0 -12.44c28.91,0 50.77,-7.73 65.55,-23.09l5.05 0c0.63,0 1.34,0.4 2.09,1.15 0.78,0.78 1.17,1.45 1.17,2.09l0 209.56c0,7.41 14.77,11.08 44.32,11.08l0 12.48 -116.37 0z"/>
   <path class="fil2" d="M14451.65 4759.05c-28.91,0 -48.61,-11.89 -59.08,-35.77 -10.44,-23.83 -15.68,-52.24 -15.68,-85.17 0,-20.6 1.81,-39.94 5.52,-57.95 3.7,-18 11.19,-33.4 22.41,-46.16 11.22,-12.76 26.82,-19.15 46.83,-19.15 15.69,0 28.49,3.86 38.33,11.55 9.84,7.68 17.38,17.53 22.61,29.55 5.24,12.02 8.79,24.93 10.63,38.76 1.85,13.87 2.76,28.33 2.76,43.42 0,20.32 -1.84,39.32 -5.55,57.01 -3.66,17.72 -10.99,32.76 -21.94,45.26 -10.91,12.45 -26.51,18.67 -46.84,18.67zm0 -9.21c13.24,0 23.09,-6.78 29.55,-20.33 6.47,-13.51 10.49,-28.47 12.02,-44.74 1.54,-16.3 2.29,-33.72 2.29,-52.2 0,-17.84 -0.75,-34.3 -2.29,-49.39 -1.53,-15.1 -5.55,-28.69 -12.02,-40.86 -6.45,-12.17 -16.3,-18.24 -29.55,-18.24 -13.23,0 -23.08,6.14 -29.55,18.47 -6.47,12.29 -10.44,25.93 -11.98,40.86 -1.53,14.93 -2.32,31.31 -2.32,49.16 0,12.96 0.31,25.26 0.95,36.95 0.59,11.67 2.28,23.76 5.04,36.25 2.76,12.45 7.25,22.92 13.4,31.36 6.14,8.48 14.29,12.73 24.45,12.73l0.01 0z"/>
   <path class="fil2" d="M16801.56 4751.21l0 -12.48c29.55,0 44.32,-3.66 44.32,-11.08l0 -186.48c-11.98,6.14 -27.38,9.21 -46.13,9.21l0 -12.44c28.91,0 50.77,-7.73 65.55,-23.09l5.05 0c0.63,0 1.33,0.4 2.08,1.15 0.79,0.78 1.18,1.45 1.18,2.09l0 209.56c0,7.41 14.77,11.08 44.32,11.08l0 12.48 -116.37 0z"/>
   <path class="fil2" d="M16963.62 4751.21l0 -9.69c0,-0.63 0.32,-1.22 0.9,-1.85l54.92 -60.94c8.35,-8.9 15.13,-16.47 20.32,-22.61 5.28,-6.14 10.41,-13.23 15.49,-21.23 5.08,-8.01 9.06,-16.11 12.02,-24.28 2.91,-8.15 4.37,-16.82 4.37,-26.07 0,-9.84 -1.76,-19.14 -5.32,-27.93 -3.54,-8.74 -8.82,-15.83 -15.91,-21.24 -7.09,-5.35 -15.68,-8.03 -25.84,-8.03 -10.16,0 -19.39,3.15 -27.69,9.41 -8.32,6.34 -14.18,14.25 -17.58,23.8 0.95,0 2.32,0 4.18,0 5.24,0 9.69,1.76 13.4,5.32 3.66,3.54 5.52,8.07 5.52,13.59 0,5.55 -1.85,10.21 -5.52,13.87 -3.71,3.7 -8.16,5.55 -13.4,5.55 -5.55,0 -10.24,-1.93 -14.1,-5.78 -3.82,-3.86 -5.75,-8.4 -5.75,-13.63 0,-8.9 1.7,-17.22 5.08,-24.9 3.39,-7.67 8.24,-14.61 14.54,-20.76 6.31,-6.19 13.4,-10.87 21.24,-14.1 7.84,-3.23 16.23,-4.86 25.17,-4.86 13.55,0 26.15,2.91 37.82,8.79 11.69,5.83 20.95,13.9 27.73,24.23 6.78,10.32 10.16,22.53 10.16,36.67 0,10.16 -2.24,19.9 -6.69,29.11 -4.46,9.22 -10.25,17.61 -17.34,25.12 -7.09,7.56 -16.07,16.15 -26.98,25.84 -10.95,9.73 -18.07,16.11 -21.47,19.18l-40.18 38.76 33.72 0c16.9,0 31,-0.11 42.19,-0.42 11.27,-0.32 17.17,-0.79 17.8,-1.38 2.8,-3.12 5.72,-14.03 8.79,-32.82l10.16 0 -10.16 63.27 -131.58 0 0 0.02z"/>
   <path class="fil2" d="M19384.65 4751.21l0 -12.48c29.55,0 44.32,-3.66 44.32,-11.08l0 -186.48c-12.02,6.14 -27.38,9.21 -46.16,9.21l0 -12.44c28.94,0 50.81,-7.73 65.58,-23.09l5.05 0c0.63,0 1.3,0.4 2.09,1.15 0.75,0.78 1.14,1.45 1.14,2.09l0 209.56c0,7.41 14.77,11.08 44.32,11.08l0 12.48 -116.33 0z"/>
   <path class="fil2" d="M19538.83 4692.59l0 -12.48 109.87 -163.4c0.64,-1.26 1.85,-1.85 3.71,-1.85l5.08 0c2.76,0 4.13,1.38 4.13,4.18l0 161.08 34.63 0 0 12.48 -34.63 0 0 35.05c0,4.61 3.47,7.6 10.41,9.02 6.92,1.38 14.85,2.05 23.78,2.05l0 12.48 -97.42 0 0 -12.48c8.9,0 16.86,-0.67 23.75,-2.05 6.93,-1.42 10.41,-4.41 10.41,-9.02l0 -35.05 -93.72 0zm11.97 -12.48l84.06 0 0 -125.55 -84.06 125.55z"/>
   <line class="fil1 str1" x1="1447.7" y1="4343.09" x2="1447.7" y2= "2688.59" />
   <line class="fil1 str1" x1="1447.7" y1="4343.09" x2="1628.5" y2= "4343.09" />
   <line class="fil1 str1" x1="1447.7" y1="3515.84" x2="1628.5" y2= "3515.84" />
   <line class="fil1 str1" x1="1447.7" y1="2688.59" x2="1628.5" y2= "2688.59" />
   <path class="fil2" d="M917.15 4428.18l0 -12.48c29.55,0 44.32,-3.66 44.32,-11.07l0 -186.5c-12,6.15 -27.39,9.22 -46.17,9.22l0 -12.45c28.92,0 50.77,-7.73 65.55,-23.08l5.09 0c0.6,0 1.3,0.39 2.07,1.14 0.77,0.79 1.15,1.45 1.15,2.09l0 209.57c0,7.4 14.77,11.07 44.32,11.07l0 12.48 -116.32 0 0 0.01z"/>
   <path class="fil2" d="M1091.63 4408.81c0,-5.56 1.93,-10.17 5.8,-13.87 3.84,-3.71 8.39,-5.56 13.62,-5.56 3.09,0 6.22,0.87 9.45,2.57 3.24,1.69 5.69,4.05 7.38,7.17 1.7,3.07 2.55,6.3 2.55,9.69 0,4.92 -1.92,9.37 -5.78,13.39 -3.85,3.98 -8.39,5.99 -13.59,5.99 -5.25,0 -9.78,-2.01 -13.62,-5.99 -3.86,-4.02 -5.8,-8.46 -5.8,-13.39z"/>
   <path class="fil2" d="M1200.27 4413.41c6.47,7.41 17.7,11.08 33.71,11.08 8.93,0 17.32,-2.99 25.18,-9.02 7.83,-5.95 13.9,-13.43 18.21,-22.38 4.92,-10.16 8.07,-20.91 9.47,-32.3 1.36,-11.38 2.05,-25.37 2.05,-41.99 -4,9.53 -9.83,17.29 -17.51,23.32 -7.7,5.99 -16.33,8.98 -25.85,8.98 -13.87,0 -26.17,-3.7 -36.93,-11.07 -10.78,-7.4 -19.09,-17.17 -24.95,-29.35 -5.85,-12.14 -8.78,-25.12 -8.78,-39 0,-14.14 3.24,-27.37 9.7,-39.71 6.47,-12.28 15.47,-22.05 27,-29.3 11.55,-7.21 24.53,-10.83 38.99,-10.83 14.16,0 26.09,3.9 35.78,11.77 9.71,7.84 17.1,17.93 22.15,30.26 5.08,12.28 8.63,25.29 10.64,38.96 2,13.7 2.98,27.34 2.98,40.89 0,18.16 -3.31,36.7 -9.93,55.62 -6.62,18.9 -16.62,34.78 -29.99,47.55 -13.37,12.76 -29.47,19.14 -48.24,19.14 -14.16,0 -26.09,-3.31 -35.78,-9.93 -9.69,-6.62 -14.54,-16.54 -14.54,-29.74 0,-4.92 1.69,-9.02 5.08,-12.25 3.39,-3.24 7.55,-4.86 12.47,-4.86 4.6,0 8.53,1.61 11.76,4.86 3.23,3.23 4.86,7.33 4.86,12.25 0,4.57 -1.61,8.59 -4.86,11.97 -3.23,3.39 -7.16,5.08 -11.76,5.08l-0.95 0zm46.62 -71.57c9.56,0 17.41,-3.23 23.55,-9.65 6.16,-6.45 10.63,-14.54 13.37,-24.26 2.8,-9.69 4.18,-19.31 4.18,-28.83l0 -8.32c0,-17.84 -2.61,-33.68 -7.86,-47.55 -5.21,-13.86 -15.06,-20.79 -29.55,-20.79 -9.53,0 -17.14,2.01 -22.84,6.02 -5.69,4.02 -9.93,9.38 -12.71,16.16 -2.76,6.78 -4.51,14.1 -5.28,21.94 -0.77,7.84 -1.15,16.23 -1.15,25.12 0,13.56 0.6,25.02 1.83,34.39 1.23,9.41 4.71,17.73 10.4,24.93 5.69,7.25 14.38,10.83 26.05,10.83l0.01 0z"/>
   <path class="fil2" d="M739.89 3600.93l0 -12.48c29.55,0 44.32,-3.66 44.32,-11.08l0 -186.48c-12,6.14 -27.39,9.21 -46.17,9.21l0 -12.44c28.92,0 50.77,-7.73 65.55,-23.09l5.09 0c0.6,0 1.3,0.4 2.07,1.15 0.77,0.78 1.15,1.45 1.15,2.09l0 209.56c0,7.41 14.77,11.08 44.32,11.08l0 12.48 -116.32 0z"/>
   <path class="fil2" d="M914.36 3581.54c0,-5.55 1.93,-10.16 5.8,-13.86 3.84,-3.71 8.39,-5.56 13.59,-5.56 3.09,0 6.25,0.87 9.48,2.56 3.24,1.7 5.69,4.06 7.38,7.17 1.7,3.09 2.55,6.31 2.55,9.69 0,4.92 -1.92,9.38 -5.78,13.4 -3.85,3.98 -8.39,5.99 -13.62,5.99 -5.21,0 -9.75,-2.01 -13.59,-5.99 -3.86,-4.02 -5.8,-8.48 -5.8,-13.4z"/>
   <path class="fil2" d="M1023.01 3586.15c6.47,7.4 17.7,11.07 33.71,11.07 8.93,0 17.32,-2.99 25.18,-9.01 7.83,-5.95 13.9,-13.43 18.21,-22.38 4.92,-10.16 8.07,-20.93 9.47,-32.3 1.36,-11.39 2.05,-25.37 2.05,-42 -4,9.54 -9.83,17.3 -17.51,23.33 -7.7,5.99 -16.33,8.98 -25.85,8.98 -13.87,0 -26.17,-3.7 -36.93,-11.07 -10.78,-7.4 -19.09,-17.17 -24.95,-29.35 -5.85,-12.14 -8.78,-25.12 -8.78,-39 0,-14.14 3.24,-27.38 9.7,-39.71 6.47,-12.29 15.47,-22.05 27,-29.31 11.55,-7.19 24.53,-10.83 38.99,-10.83 14.16,0 26.09,3.91 35.78,11.78 9.71,7.84 17.1,17.92 22.15,30.25 5.08,12.29 8.63,25.29 10.64,38.96 2,13.71 2.98,27.35 2.98,40.89 0,18.17 -3.31,36.72 -9.93,55.62 -6.62,18.92 -16.62,34.8 -29.99,47.56 -13.37,12.76 -29.47,19.14 -48.24,19.14 -14.16,0 -26.09,-3.31 -35.78,-9.93 -9.69,-6.62 -14.54,-16.55 -14.54,-29.74 0,-4.92 1.69,-9.02 5.08,-12.26 3.39,-3.23 7.55,-4.86 12.47,-4.86 4.6,0 8.53,1.61 11.76,4.86 3.23,3.24 4.86,7.34 4.86,12.26 0,4.57 -1.61,8.59 -4.86,11.97 -3.23,3.37 -7.16,5.08 -11.76,5.08l-0.95 0zm46.62 -71.58c9.56,0 17.41,-3.23 23.55,-9.65 6.16,-6.47 10.63,-14.54 13.37,-24.26 2.8,-9.69 4.18,-19.31 4.18,-28.84l0 -8.31c0,-17.84 -2.61,-33.68 -7.86,-47.55 -5.21,-13.87 -15.06,-20.8 -29.55,-20.8 -9.53,0 -17.14,2.01 -22.84,6.02 -5.69,4.02 -9.93,9.38 -12.71,16.15 -2.76,6.78 -4.51,14.1 -5.28,21.94 -0.77,7.84 -1.15,16.24 -1.15,25.12 0,13.56 0.6,25.01 1.83,34.39 1.23,9.41 4.71,17.72 10.4,24.93 5.69,7.25 14.38,10.83 26.05,10.83l0.01 0.02z"/>
   <path class="fil2" d="M1191.07 3560.79c2.46,6.73 6.15,12.96 11.08,18.67 4.92,5.67 10.84,10.08 17.75,13.17 6.93,3.07 14.09,4.6 21.48,4.6 16.92,0 28.6,-6.62 35.06,-19.85 6.48,-13.23 9.73,-29.22 9.73,-48.02 0,-8.31 -0.08,-15.21 -0.25,-20.76 -0.16,-5.52 -0.99,-10.91 -2.53,-16.16 -2.18,-8.31 -5.94,-15.63 -11.32,-21.91 -5.38,-6.34 -12.08,-9.49 -20.1,-9.49 -7.98,0 -14.83,1.26 -20.52,3.7 -5.69,2.49 -10.32,5.33 -13.87,8.55 -3.53,3.23 -6.68,6.62 -9.45,10.13 -2.77,3.54 -4.63,5.47 -5.56,5.78l-3.68 0c-0.61,0 -1.38,-0.39 -2.31,-1.14 -0.92,-0.79 -1.38,-1.46 -1.38,-2.09l0 -118.66c0,-0.27 0.4,-0.83 1.18,-1.61 0.77,-0.75 1.6,-1.15 2.51,-1.15l0.94 0c16,7.68 32.92,11.55 50.76,11.55 17.55,0 34.48,-3.86 50.8,-11.55l0.9 0c0.93,0 1.71,0.32 2.34,0.9 0.59,0.64 0.9,1.23 0.9,1.85l0 3.71c0,0.95 -0.16,1.37 -0.46,1.37 -8.33,10.75 -18.56,19.15 -30.7,25.18 -12.16,5.99 -24.7,9.01 -37.63,9.01 -9.54,0 -19.26,-1.25 -29.1,-3.7l0 66.93c7.72,-6.47 14.64,-11.11 20.78,-13.87 6.16,-2.76 14.17,-4.14 24.02,-4.14 12.92,0 24.53,3.74 34.86,11.32 10.3,7.56 18.22,17.41 23.75,29.55 5.55,12.13 8.34,24.38 8.34,36.67 0,14.49 -3.48,27.69 -10.41,39.75 -6.95,11.97 -16.4,21.58 -28.39,28.83 -12,7.25 -25.09,10.83 -39.25,10.83 -11.7,0 -22.4,-2.99 -32.09,-8.98 -9.69,-6.02 -17.39,-14.1 -23.08,-24.23 -5.68,-10.16 -8.54,-20.96 -8.54,-32.34 0,-5.52 1.78,-9.93 5.3,-13.15 3.55,-3.24 7.94,-4.86 13.17,-4.86 5.24,0 9.53,1.69 12.93,5.08 3.37,3.37 5.07,7.68 5.07,12.92 0,4.92 -1.69,9.18 -5.07,12.72 -3.41,3.51 -7.69,5.28 -12.93,5.28 -0.93,0 -1.92,-0.08 -3,-0.23 -1.08,-0.12 -1.78,-0.2 -2.07,-0.2l0.02 0.01z"/>
   <path class="fil2" d="M1177.66 2773.67l0 -9.69c0,-0.64 0.31,-1.23 0.93,-1.85l54.92 -60.94c8.31,-8.91 15.1,-16.47 20.33,-22.61 5.21,-6.15 10.37,-13.24 15.44,-21.24 5.1,-8 9.1,-16.11 12.04,-24.26 2.9,-8.15 4.37,-16.82 4.37,-26.07 0,-9.84 -1.76,-19.15 -5.33,-27.94 -3.52,-8.74 -8.83,-15.83 -15.9,-21.23 -7.08,-5.36 -15.7,-8.04 -25.85,-8.04 -10.16,0 -19.37,3.16 -27.7,9.41 -8.31,6.34 -14.16,14.25 -17.54,23.8 0.93,0 2.31,0 4.18,0 5.21,0 9.67,1.78 13.37,5.32 3.7,3.55 5.54,8.07 5.54,13.6 0,5.55 -1.84,10.2 -5.54,13.86 -3.7,3.71 -8.15,5.56 -13.37,5.56 -5.56,0 -10.26,-1.93 -14.1,-5.8 -3.84,-3.86 -5.77,-8.39 -5.77,-13.62 0,-8.91 1.72,-17.22 5.1,-24.9 3.37,-7.68 8.2,-14.62 14.53,-20.76 6.3,-6.19 13.37,-10.88 21.25,-14.1 7.83,-3.23 16.21,-4.86 25.12,-4.86 13.55,0 26.16,2.91 37.84,8.79 11.71,5.83 20.94,13.9 27.72,24.22 6.78,10.33 10.17,22.53 10.17,36.68 0,10.16 -2.26,19.89 -6.71,29.11 -4.48,9.21 -10.25,17.61 -17.31,25.12 -7.08,7.57 -16.09,16.16 -27.01,25.85 -10.94,9.73 -18.09,16.1 -21.48,19.18l-40.14 38.76 33.7 0c16.93,0 31,-0.12 42.22,-0.45 11.26,-0.31 17.17,-0.78 17.79,-1.37 2.77,-3.12 5.71,-14.03 8.78,-32.82l10.17 0 -10.17 63.27 -131.58 0 0.01 0.02z"/>
   <polyline class="fil1 str2" points="1447.7,4012.19 1770.59,3846.74 2093.46,3681.3 2416.36,4012.19 2739.23,3846.74 3062.12,3515.84 3707.88,3515.84 4030.78,3846.74 4353.65,3846.74 4676.52,3515.84 4999.43,3350.38 5322.29,3681.3 5645.15,3846.74 5968.06,3681.3 6290.96,3184.94 6613.82,3681.3 6936.69,3846.74 7259.6,3350.38 7582.47,3350.38 7905.34,3184.94 8228.24,3350.38 8551.13,3350.38 8874.02,3515.84 9196.87,3515.84 9519.79,3350.38 9842.64,3184.94 10165.52,3184.94 10488.41,3350.38 10811.34,3681.3 11134.18,3515.84 11457.07,3846.74 11779.96,3515.84 12102.84,3184.94 12425.69,3350.38 12748.61,3515.84 13071.51,3681.3 13394.38,3350.38 13717.23,3019.48 14040.15,3350.38 14363.01,3681.3 14685.89,3184.94 15331.7,3184.94 15654.54,3350.38 15977.41,3184.94 16300.32,3184.94 16623.19,3515.84 16946.05,3515.84 17268.96,3184.94 17591.87,3184.94 17914.74,3019.48 18237.61,3515.84 "/>
   <polygon class="fil0" points="1447.7,6706.67 19529.14,6706.67 19529.14,5022.62 1447.7,5022.62 "/>
   <line class="fil1 str0" x1="1447.7" y1="6706.67" x2="1447.7" y2= "5022.62" />
   <line class="fil1 str0" x1="4030.78" y1="6706.67" x2="4030.78" y2= "5022.62" />
   <line class="fil1 str0" x1="6613.82" y1="6706.67" x2="6613.82" y2= "5022.62" />
   <line class="fil1 str0" x1="9196.87" y1="6706.67" x2="9196.87" y2= "5022.62" />
   <line class="fil1 str0" x1="11779.96" y1="6706.67" x2="11779.96" y2= "5022.62" />
   <line class="fil1 str0" x1="14363.01" y1="6706.67" x2="14363.01" y2= "5022.62" />
   <line class="fil1 str0" x1="16946.05" y1="6706.67" x2="16946.05" y2= "5022.62" />
   <line class="fil1 str0" x1="19529.14" y1="6706.67" x2="19529.14" y2= "5022.62" />
   <line class="fil1 str0" x1="19529.14" y1="6706.67" x2="1447.7" y2= "6706.67" />
   <line class="fil1 str0" x1="19529.14" y1="5864.65" x2="1447.7" y2= "5864.65" />
   <line class="fil1 str0" x1="19529.14" y1="5022.62" x2="1447.7" y2= "5022.62" />
   <line class="fil1 str1" x1="1447.7" y1="6706.67" x2="19529.14" y2= "6706.67" />
   <line class="fil1 str1" x1="1447.7" y1="6706.67" x2="1447.7" y2= "6525.86" />
   <line class="fil1 str1" x1="4030.78" y1="6706.67" x2="4030.78" y2= "6525.86" />
   <line class="fil1 str1" x1="6613.82" y1="6706.67" x2="6613.82" y2= "6525.86" />
   <line class="fil1 str1" x1="9196.87" y1="6706.67" x2="9196.87" y2= "6525.86" />
   <line class="fil1 str1" x1="11779.96" y1="6706.67" x2="11779.96" y2= "6525.86" />
   <line class="fil1 str1" x1="14363.01" y1="6706.67" x2="14363.01" y2= "6525.86" />
   <line class="fil1 str1" x1="16946.05" y1="6706.67" x2="16946.05" y2= "6525.86" />
   <line class="fil1 str1" x1="19529.14" y1="6706.67" x2="19529.14" y2= "6525.86" />
   <path class="fil2" d="M1447.7 7122.64c-28.92,0 -48.62,-11.93 -59.08,-35.78 -10.46,-23.85 -15.7,-52.24 -15.7,-85.17 0,-20.62 1.84,-39.93 5.54,-57.93 3.7,-18.01 11.16,-33.41 22.39,-46.18 11.22,-12.77 26.86,-19.14 46.85,-19.14 15.7,0 28.47,3.84 38.32,11.54 9.84,7.69 17.39,17.54 22.63,29.55 5.21,12 8.75,24.92 10.6,38.76 1.86,13.86 2.8,28.32 2.8,43.42 0,20.31 -1.86,39.32 -5.56,57.01 -3.7,17.7 -10.99,32.79 -21.92,45.25 -10.93,12.46 -26.55,18.69 -46.87,18.69l-0.01 0zm0 -9.26c13.23,0 23.08,-6.76 29.55,-20.3 6.47,-13.53 10.46,-28.49 12,-44.78 1.53,-16.3 2.29,-33.7 2.29,-52.18 0,-17.84 -0.76,-34.31 -2.29,-49.39 -1.54,-15.09 -5.54,-28.69 -12,-40.85 -6.47,-12.17 -16.3,-18.25 -29.55,-18.25 -13.23,0 -23.08,6.15 -29.55,18.47 -6.45,12.31 -10.45,25.93 -11.99,40.85 -1.53,14.93 -2.3,31.32 -2.3,49.17 0,12.94 0.31,25.26 0.92,36.93 0.61,11.7 2.3,23.78 5.07,36.26 2.77,12.47 7.24,22.94 13.39,31.38 6.16,8.46 14.32,12.7 24.47,12.7z"/>
   <path class="fil2" d="M3959.68 7114.79l0 -9.69c0,-0.61 0.31,-1.23 0.9,-1.86l54.92 -60.91c8.31,-8.93 15.13,-16.47 20.32,-22.63 5.28,-6.14 10.41,-13.22 15.49,-21.24 5.04,-8.01 9.06,-16.08 12.02,-24.23 2.91,-8.16 4.37,-16.85 4.37,-26.09 0,-9.84 -1.76,-19.16 -5.32,-27.93 -3.54,-8.77 -8.82,-15.83 -15.91,-21.24 -7.09,-5.37 -15.73,-8.06 -25.88,-8.06 -10.13,0 -19.39,3.15 -27.65,9.45 -8.32,6.31 -14.18,14.24 -17.58,23.78 0.95,0 2.32,0 4.18,0 5.24,0 9.69,1.78 13.4,5.32 3.66,3.54 5.51,8.06 5.51,13.6 0,5.55 -1.84,10.17 -5.51,13.85 -3.71,3.71 -8.16,5.56 -13.4,5.56 -5.55,0 -10.24,-1.93 -14.1,-5.78 -3.82,-3.85 -5.75,-8.39 -5.75,-13.62 0,-8.92 1.7,-17.23 5.08,-24.91 3.35,-7.69 8.2,-14.62 14.54,-20.77 6.3,-6.15 13.39,-10.87 21.23,-14.1 7.84,-3.22 16.24,-4.82 25.18,-4.82 13.51,0 26.15,2.93 37.81,8.77 11.7,5.85 20.96,13.92 27.74,24.22 6.78,10.33 10.16,22.56 10.16,36.7 0,10.15 -2.24,19.87 -6.7,29.1 -4.49,9.21 -10.24,17.6 -17.33,25.12 -7.09,7.55 -16.07,16.16 -26.98,25.85 -10.95,9.7 -18.12,16.09 -21.52,19.17l-40.13 38.77 33.71 0c16.9,0 30.96,-0.16 42.2,-0.45 11.27,-0.31 17.17,-0.77 17.8,-1.38 2.76,-3.09 5.72,-14.01 8.79,-32.8l10.16 0 -10.16 63.26 -131.58 0 0 0.01z"/>
   <path class="fil2" d="M6534.89 7056.18l0 -12.46 109.87 -163.43c0.63,-1.24 1.85,-1.83 3.71,-1.83l5.08 0c2.76,0 4.13,1.38 4.13,4.15l0 161.11 34.63 0 0 12.46 -34.63 0 0 35.07c0,4.61 3.47,7.62 10.4,9.01 6.93,1.38 14.85,2.07 23.76,2.07l0 12.47 -97.38 0 0 -12.47c8.9,0 16.86,-0.68 23.75,-2.07 6.93,-1.4 10.41,-4.4 10.41,-9.01l0 -35.07 -93.72 0zm11.96 -12.47l84.03 0 0 -125.57 -84.03 125.57z"/>
   <path class="fil2" d="M9196.87 7122.64c-14.77,0 -26.99,-3.92 -36.68,-11.78 -9.69,-7.84 -17.25,-17.91 -22.65,-30.23 -5.36,-12.31 -9.15,-25.31 -11.32,-39.03 -2.17,-13.69 -3.23,-27.46 -3.23,-41.31 0,-18.78 3.71,-37.55 11.11,-56.32 7.37,-18.77 18.07,-34.39 32.06,-46.85 14.03,-12.46 30.7,-18.69 50.07,-18.69 8.32,0 15.96,1.52 22.89,4.6 6.89,3.07 12.37,7.62 16.35,13.61 4.02,6.02 6.02,13.18 6.02,21.48 0,4.92 -1.61,9 -4.86,12.23 -3.23,3.24 -7.33,4.86 -12.25,4.86 -4.61,0 -8.63,-1.61 -12.02,-4.86 -3.39,-3.23 -5.05,-7.3 -5.05,-12.23 0,-4.63 1.65,-8.55 5.05,-11.79 3.37,-3.23 7.4,-4.86 12.02,-4.86l1.84 0c-3.07,-4.31 -7.28,-7.46 -12.67,-9.45 -5.4,-2.01 -11.16,-3.01 -17.34,-3.01 -7.05,0 -13.59,1.54 -19.62,4.63 -5.99,3.09 -11.46,7.21 -16.38,12.45 -4.92,5.23 -8.98,11.08 -12.22,17.54 -3.23,6.47 -5.71,13.77 -7.4,21.92 -1.7,8.16 -2.76,15.86 -3.23,23.1 -0.45,7.24 -0.67,16.24 -0.67,27 3.98,-9.84 9.84,-17.84 17.53,-24.02 7.68,-6.14 16.3,-9.21 25.84,-9.21 10.47,0 20.01,2.16 28.64,6.44 8.62,4.31 16.07,10.24 22.37,17.79 6.31,7.55 11.08,16.17 14.3,25.85 3.23,9.69 4.86,19.46 4.86,29.31 0,13.85 -3.07,27.08 -9.22,39.72 -6.14,12.62 -14.85,22.61 -26.07,30 -11.22,7.38 -23.91,11.08 -38.09,11.08l0.02 0.01zm0 -11.55c9.27,0 16.62,-2.08 22.18,-6.25 5.52,-4.15 9.61,-9.61 12.21,-16.38 2.65,-6.76 4.25,-13.69 4.86,-20.78 0.64,-7.06 0.95,-15.68 0.95,-25.85 0,-13.23 -0.71,-24.62 -2.09,-34.15 -1.37,-9.54 -4.86,-17.84 -10.36,-24.95 -5.55,-7.06 -14.18,-10.6 -25.84,-10.6 -9.57,0 -17.41,3.23 -23.56,9.69 -6.19,6.44 -10.71,14.61 -13.62,24.45 -2.96,9.84 -4.41,19.23 -4.41,28.16 0,3.07 0.16,5.54 0.47,7.38 0,0.32 0,0.56 0,0.71 0,0.13 -0.16,0.36 -0.47,0.67 0,10.17 1.09,20.48 3.26,30.94 2.13,10.45 6.15,19.24 11.98,26.32 5.87,7.08 14.03,10.62 24.47,10.62l-0.01 0z"/>
   <path class="fil2" d="M11706.1 7060.79c0,-14.16 4.69,-26.72 14.07,-37.64 9.38,-10.91 21.47,-19.92 36.24,-27.01l-13.39 -8.77c-8,-5.24 -14.54,-12.22 -19.62,-20.99 -5.08,-8.77 -7.6,-18.09 -7.6,-27.94 0,-11.39 2.99,-21.62 9.02,-30.71 5.99,-9.08 13.87,-16.21 23.72,-21.44 9.84,-5.24 20.32,-7.85 31.43,-7.85 10.44,0 20.6,2.14 30.45,6.45 9.84,4.3 17.84,10.45 24.03,18.47 6.14,8.01 9.21,17.53 9.21,28.61 0,7.69 -1.84,15.02 -5.51,21.94 -3.75,6.9 -8.83,13.06 -15.29,18.47 -6.47,5.38 -13.36,9.93 -20.76,13.61l20.32 12.91c9.22,6.18 16.71,14.25 22.38,24.24 5.71,9.99 8.54,20.39 8.54,31.15 0,12.93 -3.46,24.62 -10.35,35.1 -6.98,10.46 -16.04,18.63 -27.27,24.48 -11.22,5.84 -23.16,8.77 -35.77,8.77 -12.33,0 -24.19,-2.46 -35.53,-7.38 -11.39,-4.92 -20.65,-12.16 -27.74,-21.72 -7.09,-9.53 -10.6,-20.45 -10.6,-32.75zm19.39 0c0,9.53 2.52,18.13 7.6,25.84 5.08,7.68 11.86,13.69 20.32,18 8.48,4.3 17.3,6.48 26.55,6.48 13.82,0 26.32,-4.01 37.39,-12 11.07,-8.02 16.63,-18.64 16.63,-31.86 0,-4.31 -0.87,-8.69 -2.57,-13.18 -1.69,-4.44 -4.13,-8.52 -7.36,-12.23 -3.24,-3.68 -6.86,-6.6 -10.88,-8.78l-47.51 -30.92c-7.4,4.01 -14.18,9.01 -20.32,15 -6.14,6.01 -10.99,12.72 -14.54,20.1 -3.54,7.38 -5.32,15.23 -5.32,23.55zm24.47 -108.01l42.94 27.68c9.84,-5.85 17.92,-12.85 24.23,-21 6.3,-8.16 9.45,-17.31 9.45,-27.47 0,-8.01 -2.21,-15.31 -6.66,-21.93 -4.49,-6.62 -10.24,-11.77 -17.33,-15.44 -7.09,-3.71 -14.77,-5.56 -23.08,-5.56 -7.09,0 -14.23,1.38 -21.47,4.18 -7.19,2.77 -13.23,6.85 -18,12.22 -4.77,5.38 -7.17,11.77 -7.17,19.15 0,11.09 5.71,20.49 17.1,28.18z"/>
   <path class="fil2" d="M14218.52 7114.79l0 -12.47c29.55,0 44.32,-3.7 44.32,-11.08l0 -186.5c-12.02,6.15 -27.38,9.22 -46.13,9.22l0 -12.47c28.91,0 50.77,-7.69 65.55,-23.06l5.05 0c0.63,0 1.34,0.38 2.09,1.14 0.78,0.77 1.17,1.46 1.17,2.08l0 209.59c0,7.38 14.77,11.08 44.32,11.08l0 12.47 -116.37 0 0 0.01z"/>
   <path class="fil2" d="M14451.65 7122.64c-28.91,0 -48.61,-11.93 -59.08,-35.78 -10.44,-23.85 -15.68,-52.24 -15.68,-85.17 0,-20.62 1.81,-39.93 5.52,-57.93 3.7,-18.01 11.19,-33.41 22.41,-46.18 11.22,-12.77 26.82,-19.14 46.83,-19.14 15.69,0 28.49,3.84 38.33,11.54 9.84,7.69 17.38,17.54 22.61,29.55 5.24,12 8.79,24.92 10.63,38.76 1.85,13.86 2.76,28.32 2.76,43.42 0,20.31 -1.84,39.32 -5.55,57.01 -3.66,17.7 -10.99,32.79 -21.94,45.25 -10.91,12.46 -26.51,18.69 -46.84,18.69zm0 -9.26c13.24,0 23.09,-6.76 29.55,-20.3 6.47,-13.53 10.49,-28.49 12.02,-44.78 1.54,-16.3 2.29,-33.7 2.29,-52.18 0,-17.84 -0.75,-34.31 -2.29,-49.39 -1.53,-15.09 -5.55,-28.69 -12.02,-40.85 -6.45,-12.17 -16.3,-18.25 -29.55,-18.25 -13.23,0 -23.08,6.15 -29.55,18.47 -6.47,12.31 -10.44,25.93 -11.98,40.85 -1.53,14.93 -2.32,31.32 -2.32,49.17 0,12.94 0.31,25.26 0.95,36.93 0.59,11.7 2.28,23.78 5.04,36.26 2.76,12.47 7.25,22.94 13.4,31.38 6.14,8.46 14.29,12.7 24.45,12.7l0.01 0z"/>
   <path class="fil2" d="M16801.56 7114.79l0 -12.47c29.55,0 44.32,-3.7 44.32,-11.08l0 -186.5c-11.98,6.15 -27.38,9.22 -46.13,9.22l0 -12.47c28.91,0 50.77,-7.69 65.55,-23.06l5.05 0c0.63,0 1.33,0.38 2.08,1.14 0.79,0.77 1.18,1.46 1.18,2.08l0 209.59c0,7.38 14.77,11.08 44.32,11.08l0 12.47 -116.37 0 0 0.01z"/>
   <path class="fil2" d="M16963.62 7114.79l0 -9.69c0,-0.61 0.32,-1.23 0.9,-1.86l54.92 -60.91c8.35,-8.93 15.13,-16.47 20.32,-22.63 5.28,-6.14 10.41,-13.22 15.49,-21.24 5.08,-8.01 9.06,-16.08 12.02,-24.23 2.91,-8.16 4.37,-16.85 4.37,-26.09 0,-9.84 -1.76,-19.16 -5.32,-27.93 -3.54,-8.77 -8.82,-15.83 -15.91,-21.24 -7.09,-5.37 -15.68,-8.06 -25.84,-8.06 -10.16,0 -19.39,3.15 -27.69,9.45 -8.32,6.31 -14.18,14.24 -17.58,23.78 0.95,0 2.32,0 4.18,0 5.24,0 9.69,1.78 13.4,5.32 3.66,3.54 5.52,8.06 5.52,13.6 0,5.55 -1.85,10.17 -5.52,13.85 -3.71,3.71 -8.16,5.56 -13.4,5.56 -5.55,0 -10.24,-1.93 -14.1,-5.78 -3.82,-3.85 -5.75,-8.39 -5.75,-13.62 0,-8.92 1.7,-17.23 5.08,-24.91 3.39,-7.69 8.24,-14.62 14.54,-20.77 6.31,-6.15 13.4,-10.87 21.24,-14.1 7.84,-3.22 16.23,-4.82 25.17,-4.82 13.55,0 26.15,2.93 37.82,8.77 11.69,5.85 20.95,13.92 27.73,24.22 6.78,10.33 10.16,22.56 10.16,36.7 0,10.15 -2.24,19.87 -6.69,29.1 -4.46,9.21 -10.25,17.6 -17.34,25.12 -7.09,7.55 -16.07,16.16 -26.98,25.85 -10.95,9.7 -18.07,16.09 -21.47,19.17l-40.18 38.77 33.72 0c16.9,0 31,-0.16 42.19,-0.45 11.27,-0.31 17.17,-0.77 17.8,-1.38 2.8,-3.09 5.72,-14.01 8.79,-32.8l10.16 0 -10.16 63.26 -131.58 0 0 0.01z"/>
   <path class="fil2" d="M19384.65 7114.79l0 -12.47c29.55,0 44.32,-3.7 44.32,-11.08l0 -186.5c-12.02,6.15 -27.38,9.22 -46.16,9.22l0 -12.47c28.94,0 50.81,-7.69 65.58,-23.06l5.05 0c0.63,0 1.3,0.38 2.09,1.14 0.75,0.77 1.14,1.46 1.14,2.08l0 209.59c0,7.38 14.77,11.08 44.32,11.08l0 12.47 -116.33 0 0 0.01z"/>
   <path class="fil2" d="M19538.83 7056.18l0 -12.46 109.87 -163.43c0.64,-1.24 1.85,-1.83 3.71,-1.83l5.08 0c2.76,0 4.13,1.38 4.13,4.15l0 161.11 34.63 0 0 12.46 -34.63 0 0 35.07c0,4.61 3.47,7.62 10.41,9.01 6.92,1.38 14.85,2.07 23.78,2.07l0 12.47 -97.42 0 0 -12.47c8.9,0 16.86,-0.68 23.75,-2.07 6.93,-1.4 10.41,-4.4 10.41,-9.01l0 -35.07 -93.72 0zm11.97 -12.47l84.06 0 0 -125.57 -84.06 125.57z"/>
   <line class="fil1 str1" x1="1447.7" y1="6706.67" x2="1447.7" y2= "5022.62" />
   <line class="fil1 str1" x1="1447.7" y1="6706.67" x2="1628.5" y2= "6706.67" />
   <line class="fil1 str1" x1="1447.7" y1="5864.65" x2="1628.5" y2= "5864.65" />
   <line class="fil1 str1" x1="1447.7" y1="5022.62" x2="1628.5" y2= "5022.62" />
   <path class="fil2" d="M1248.76 6799.61c-28.93,0 -48.63,-11.93 -59.09,-35.77 -10.46,-23.86 -15.69,-52.25 -15.69,-85.18 0,-20.62 1.84,-39.93 5.54,-57.93 3.68,-18.01 11.16,-33.41 22.39,-46.18 11.21,-12.77 26.86,-19.14 46.85,-19.14 15.7,0 28.47,3.84 38.32,11.54 9.84,7.69 17.39,17.54 22.6,29.55 5.25,12 8.78,24.93 10.63,38.76 1.86,13.86 2.78,28.32 2.78,43.42 0,20.31 -1.86,39.32 -5.55,57.02 -3.7,17.69 -10.99,32.76 -21.93,45.24 -10.92,12.46 -26.54,18.69 -46.85,18.69zm0 -9.26c13.23,0 23.08,-6.76 29.55,-20.29 6.47,-13.55 10.46,-28.49 12,-44.78 1.52,-16.3 2.29,-33.7 2.29,-52.19 0,-17.84 -0.77,-34.3 -2.29,-49.39 -1.54,-15.09 -5.54,-28.69 -12,-40.84 -6.47,-12.17 -16.3,-18.26 -29.55,-18.26 -13.23,0 -23.08,6.16 -29.55,18.47 -6.47,12.31 -10.46,25.93 -12,40.86 -1.52,14.92 -2.29,31.31 -2.29,49.16 0,12.95 0.31,25.26 0.9,36.94 0.63,11.69 2.31,23.77 5.08,36.26 2.77,12.46 7.24,22.92 13.39,31.37 6.15,8.46 14.32,12.7 24.47,12.7z"/>
   <path class="fil2" d="M1191.07 5909.59c2.46,6.73 6.15,12.96 11.08,18.67 4.92,5.67 10.84,10.08 17.75,13.15 6.93,3.09 14.09,4.61 21.48,4.61 16.92,0 28.6,-6.62 35.06,-19.85 6.48,-13.23 9.73,-29.22 9.73,-48.02 0,-8.32 -0.08,-15.21 -0.25,-20.76 -0.16,-5.52 -0.99,-10.92 -2.53,-16.16 -2.18,-8.31 -5.94,-15.63 -11.32,-21.91 -5.38,-6.34 -12.08,-9.49 -20.1,-9.49 -7.98,0 -14.83,1.26 -20.52,3.7 -5.69,2.48 -10.32,5.32 -13.87,8.55 -3.53,3.23 -6.68,6.62 -9.45,10.12 -2.77,3.55 -4.63,5.48 -5.56,5.8l-3.68 0c-0.61,0 -1.38,-0.39 -2.31,-1.14 -0.92,-0.79 -1.38,-1.46 -1.38,-2.09l0 -118.66c0,-0.28 0.4,-0.83 1.18,-1.61 0.77,-0.75 1.6,-1.14 2.51,-1.14l0.94 0c16,7.68 32.92,11.55 50.76,11.55 17.55,0 34.48,-3.86 50.8,-11.55l0.9 0c0.93,0 1.71,0.31 2.34,0.9 0.59,0.64 0.9,1.23 0.9,1.85l0 3.71c0,0.94 -0.16,1.37 -0.46,1.37 -8.33,10.75 -18.56,19.15 -30.7,25.17 -12.16,6 -24.7,9.02 -37.63,9.02 -9.54,0 -19.26,-1.26 -29.1,-3.7l0 66.92c7.72,-6.45 14.64,-11.11 20.78,-13.86 6.16,-2.76 14.17,-4.14 24.02,-4.14 12.92,0 24.53,3.74 34.86,11.32 10.3,7.56 18.22,17.41 23.75,29.55 5.55,12.14 8.34,24.39 8.34,36.68 0,14.49 -3.48,27.69 -10.41,39.74 -6.95,11.98 -16.4,21.6 -28.39,28.84 -12,7.25 -25.09,10.83 -39.25,10.83 -11.7,0 -22.4,-2.99 -32.09,-8.99 -9.69,-6.02 -17.39,-14.1 -23.08,-24.22 -5.68,-10.16 -8.54,-20.96 -8.54,-32.34 0,-5.52 1.78,-9.93 5.3,-13.17 3.55,-3.23 7.94,-4.86 13.17,-4.86 5.24,0 9.53,1.7 12.93,5.08 3.37,3.39 5.07,7.68 5.07,12.93 0,4.92 -1.69,9.18 -5.07,12.72 -3.41,3.51 -7.69,5.28 -12.93,5.28 -0.93,0 -1.92,-0.08 -3,-0.23 -1.08,-0.12 -1.78,-0.2 -2.07,-0.2l0.02 -0.01z"/>
   <path class="fil2" d="M1015.62 5107.71l0 -12.48c29.55,0 44.32,-3.66 44.32,-11.07l0 -186.5c-11.98,6.15 -27.37,9.22 -46.14,9.22l0 -12.45c28.93,0 50.79,-7.72 65.56,-23.08l5.05 0c0.64,0 1.33,0.39 2.1,1.14 0.77,0.79 1.15,1.46 1.15,2.09l0 209.57c0,7.4 14.77,11.07 44.32,11.07l0 12.48 -116.36 0 0 0.01z"/>
   <path class="fil2" d="M1248.76 5115.56c-28.93,0 -48.63,-11.91 -59.09,-35.78 -10.46,-23.83 -15.69,-52.24 -15.69,-85.17 0,-20.6 1.84,-39.94 5.54,-57.94 3.68,-18 11.16,-33.41 22.39,-46.17 11.21,-12.76 26.86,-19.14 46.85,-19.14 15.7,0 28.47,3.86 38.32,11.54 9.84,7.68 17.39,17.53 22.6,29.55 5.25,12.02 8.78,24.93 10.63,38.77 1.86,13.86 2.78,28.32 2.78,43.4 0,20.33 -1.86,39.32 -5.55,57.01 -3.7,17.72 -10.99,32.76 -21.93,45.26 -10.92,12.45 -26.54,18.68 -46.85,18.68zm0 -9.22c13.23,0 23.08,-6.78 29.55,-20.32 6.47,-13.51 10.46,-28.49 12,-44.76 1.52,-16.3 2.29,-33.72 2.29,-52.19 0,-17.84 -0.77,-34.31 -2.29,-49.4 -1.54,-15.09 -5.54,-28.68 -12,-40.85 -6.47,-12.17 -16.3,-18.25 -29.55,-18.25 -13.23,0 -23.08,6.15 -29.55,18.48 -6.47,12.29 -10.46,25.92 -12,40.85 -1.52,14.93 -2.29,31.32 -2.29,49.17 0,12.95 0.31,25.25 0.9,36.95 0.63,11.66 2.31,23.75 5.08,36.24 2.77,12.45 7.24,22.94 13.39,31.37 6.15,8.46 14.32,12.72 24.47,12.72z"/>
   <polyline class="fil1 str2" points="1447.7,6285.66 1770.59,6272.18 2093.46,6300.81 2416.36,6337.88 2739.23,6356.38 3062.12,6339.55 3384.99,6346.28 3707.88,6376.6 4030.78,6326.08 4353.65,6358.08 4676.52,6354.7 4999.43,6378.28 5322.29,6307.56 5645.15,6346.28 5968.06,6381.65 6290.96,6361.45 6613.82,6307.56 6936.69,6344.6 7259.6,6358.08 7582.47,6359.75 7905.34,6356.38 8228.24,6292.39 8551.13,6294.08 8874.02,6265.45 9196.87,6371.54 9519.79,6361.45 9842.64,6353.03 10165.52,6337.88 10488.41,6272.18 10811.34,6265.45 11134.18,6304.19 11457.07,6314.28 11779.96,6366.5 12102.84,6342.91 12425.69,6275.55 12748.61,6251.97 13071.51,6321.03 13394.38,6358.08 13717.23,6329.43 14040.15,6245.25 14363.01,6287.34 14685.89,6347.96 15008.78,6315.97 15331.7,6310.93 15654.54,6332.81 15977.41,6337.88 16300.32,6236.82 16623.19,6290.71 16946.05,6376.6 17268.96,6327.76 17591.87,6302.49 17914.74,6270.5 18237.61,6297.44 "/>
   <path class="fil2" d="M422.27 6506.96c0,19.06 -4.39,36.05 -13.14,50.99 -8.78,14.93 -21,26.48 -36.7,34.63 -15.69,8.15 -33.09,12.24 -52.18,12.24 -28.01,0 -55.78,-7.93 -83.3,-23.8 -27.57,-15.83 -50.1,-36.68 -67.64,-62.53 -17.54,-25.86 -26.33,-52.94 -26.33,-81.25 0,-14.77 2.64,-28.24 7.86,-40.4 5.23,-12.15 12.53,-22.39 21.93,-30.7 9.37,-8.31 20.3,-14.77 32.76,-19.37 12.46,-4.63 26.09,-6.96 40.86,-6.96 16.93,0 34,3.01 51.24,9.02 17.23,6 33.23,14.23 48.01,24.7 14.77,10.46 27.85,22.69 39.25,36.69 11.39,14 20.31,29.01 26.78,45.02 11.7,-1.86 20.93,-4.4 27.68,-7.63 6.78,-3.24 10.16,-9.63 10.16,-19.17 0,-10.15 -3.62,-19.61 -10.84,-28.4 -7.22,-8.75 -15.77,-14.37 -25.62,-16.83 -2.17,-0.32 -3.25,-1.71 -3.25,-4.18 0,-2.75 1.7,-4.14 5.08,-4.14 8.01,1.86 16.24,4.62 24.7,8.32 8.48,3.68 16.4,8.15 23.78,13.39 7.39,5.23 13.39,11.38 17.99,18.46 4.63,7.08 6.95,14.93 6.95,23.55 0,21.54 -13.7,32.3 -41.09,32.3 -1.85,0 -6.31,-0.3 -13.37,-0.9 -7.1,-0.63 -12.8,-0.95 -17.08,-0.95 3.68,12.31 5.53,24.95 5.53,37.89l-0.01 0zm-26.3 14.29c10.15,0 15.22,-5.69 15.22,-17.08 0,-11.39 -2.78,-23.39 -8.3,-36.01l-3.7 0c-10.17,0 -18.18,1.61 -24.02,4.86 -5.83,3.23 -8.75,9.61 -8.75,19.17 0,4.6 1.38,9.13 4.13,13.61 2.8,4.44 6.49,8.14 11.09,11.08 4.62,2.91 9.4,4.38 14.33,4.38zm0.92 9.69c-6.77,0 -13.31,-1.85 -19.62,-5.53 -6.31,-3.71 -11.4,-8.55 -15.24,-14.57 -3.84,-5.99 -5.76,-12.37 -5.76,-19.14 0,-11.39 3.77,-19.55 11.32,-24.47 7.53,-4.92 17.3,-8.32 29.31,-10.16 -9.56,-16.3 -23.41,-30.78 -41.54,-43.4 -18.17,-12.61 -38.09,-22.13 -59.81,-28.6 -21.67,-6.48 -42.22,-9.71 -61.63,-9.71 -14.15,0 -27.24,2.3 -39.25,6.93 -11.98,4.61 -21.67,11.76 -29.07,21.45 -7.38,9.7 -11.08,21.64 -11.08,35.78 0,13.85 3.37,27.16 10.15,39.94 6.78,12.77 15.7,24.53 26.79,35.32 11.07,10.44 24.61,19.91 40.62,28.39 15.99,8.46 32.76,14.93 50.33,19.37 17.52,4.48 34.29,6.71 50.32,6.71 16.29,0 31.15,-3.23 44.54,-9.69 13.37,-6.47 22.99,-16.46 28.84,-30 -2.47,0.92 -5.54,1.38 -9.22,1.38l-0.01 0z"/>
   <path class="fil2" d="M478.47 6248.93c0,21.86 -9,36.64 -27,44.31 -18.01,7.72 -39.32,11.56 -63.94,11.56 -15.38,0 -29.85,-1.38 -43.39,-4.17 -13.55,-2.76 -25.08,-8.29 -34.64,-16.62 -9.53,-8.31 -14.29,-20.01 -14.29,-35.1 0,-11.68 2.85,-21.21 8.54,-28.61 5.68,-7.37 13.09,-13.09 22.15,-17.05 9.08,-4.02 18.77,-6.74 29.07,-8.12 10.33,-1.38 21.17,-2.05 32.56,-2.05 15.39,0 29.7,1.38 42.94,4.14 13.23,2.76 24.53,8.31 33.91,16.62 9.4,8.32 14.09,20.01 14.09,35.07l0 0.01zm-6.9 0c0,-9.84 -5.09,-17.24 -15.24,-22.17 -10.17,-4.9 -21.41,-7.89 -33.72,-8.96 -12.31,-1.11 -25.38,-1.65 -39.23,-1.65 -13.24,0 -25.47,0.55 -36.69,1.65 -11.23,1.07 -21.46,4.06 -30.7,8.96 -9.23,4.92 -13.86,12.32 -13.86,22.17 0,10.16 4.62,17.63 13.86,22.4 9.23,4.77 19.46,7.69 30.7,8.77 11.22,1.08 23.45,1.64 36.69,1.64 9.84,0 19.17,-0.26 27.95,-0.71 8.77,-0.46 17.77,-1.69 27.01,-3.7 9.21,-2 17.06,-5.3 23.54,-9.94 6.47,-4.6 9.69,-10.75 9.69,-18.46z"/>
   <path class="fil2" d="M509.08 5910.3c-11.09,14.18 -23.94,26.4 -38.56,36.72 -14.61,10.33 -30.15,18.79 -46.61,25.42 -16.47,6.62 -33.7,11.54 -51.71,14.77 -18,3.23 -36.08,4.86 -54.24,4.86 -18.48,0 -36.72,-1.61 -54.72,-4.86 -18.01,-3.24 -35.32,-8.16 -51.92,-14.77 -16.62,-6.62 -32.17,-15.16 -46.64,-25.6 -14.46,-10.49 -27.08,-22.66 -37.85,-36.53 -0.61,0 -0.9,-0.58 -0.9,-1.81l0 -3.7c0,-0.64 0.29,-1.26 0.9,-1.85 0.61,-0.59 1.38,-0.9 2.31,-0.9 1.25,0 2.17,0.16 2.77,0.47 12,12.61 25,23.05 39,31.36 14,8.31 28.93,15.01 44.78,20.09 15.87,5.08 32.26,8.79 49.17,11.08 16.93,2.32 34.63,3.46 53.11,3.46 81.25,0 143.09,-21.82 185.57,-65.55 0.61,-0.59 1.69,-0.9 3.25,-0.9 0.61,0 1.31,0.31 2.08,0.9 0.76,0.59 1.15,1.22 1.15,1.85l0 3.7c0,1.23 -0.31,1.81 -0.93,1.81z"/>
   <path class="fil2" d="M413.99 5784.06l-141.27 55.86c-4.62,2.49 -7.55,6.19 -8.77,11.11 -1.25,4.92 -1.86,11.39 -1.86,19.34l-13.84 0 0 -80.76 13.84 0c0,14.46 2.93,21.67 8.78,21.67 1.24,0 2.01,-0.16 2.3,-0.45l108.49 -42.94 -97.85 -38.77c-1.85,-0.94 -3.85,-1.37 -6.01,-1.37 -4.92,0 -8.77,1.81 -11.54,5.52 -2.8,3.7 -4.18,8.15 -4.18,13.39l-13.84 0 0 -64.17 13.84 0c0,8 1.78,15.01 5.32,21 3.55,5.99 8.86,10.55 15.92,13.62l130.66 51.72c2.77,1.23 4.15,3.35 4.15,6.42l0 2.8c0,3.07 -1.38,5.04 -4.15,5.99l0 0.01z"/>
   <path class="fil2" d="M376.12 5678.36c-15.09,0 -27.39,-5.99 -36.93,-18 -9.56,-12.02 -16.34,-26.48 -20.33,-43.37 -4,-16.94 -6,-32.94 -6,-48.03l-15.68 0c-7.39,0 -14.54,1.61 -21.48,4.86 -6.9,3.23 -12.61,7.92 -17.08,14.1 -4.44,6.14 -6.68,12.89 -6.68,20.29 0,16.94 3.85,29.86 11.52,38.8 0,-4.92 1.85,-8.94 5.56,-12.02 3.68,-3.12 7.98,-4.65 12.91,-4.65 4.92,0 9.23,1.81 12.94,5.32 3.68,3.54 5.53,7.76 5.53,12.69 0,5.24 -1.85,9.73 -5.53,13.43 -3.71,3.66 -8.02,5.52 -12.94,5.52 -13.52,0 -23.61,-6.15 -30.23,-18.48 -6.62,-12.29 -9.92,-25.84 -9.92,-40.61 0,-10.44 2.21,-20.91 6.68,-31.4 4.46,-10.47 10.87,-18.98 19.17,-25.6 8.31,-6.62 17.84,-9.93 28.62,-9.93l86.78 0c4.92,0 9.46,-1.11 13.61,-3.23 4.18,-2.17 6.25,-5.55 6.25,-10.16 0,-4.3 -2.17,-7.45 -6.48,-9.46 -4.31,-2.01 -8.78,-3.04 -13.39,-3.04l-24.93 0 0 -11.07 24.93 0c5.54,0 10.92,1.46 16.17,4.41 5.23,2.91 9.39,6.9 12.46,11.98 3.09,5.08 4.6,10.55 4.6,16.43 0,7.64 -2.93,14.18 -8.77,19.62 -5.85,5.35 -12.77,8.35 -20.78,8.98 9.56,4.61 17.16,11.55 22.87,20.76 5.69,9.22 8.54,19.23 8.54,30.02 0,9.54 -1.38,19.11 -4.15,28.6 -2.78,9.58 -7.33,17.5 -13.63,23.8 -6.3,6.31 -14.37,9.46 -24.22,9.46l0 -0.01zm0 -31.36c9.21,0 16.83,-3.32 22.84,-9.93 6.02,-6.62 9.01,-14.42 9.01,-23.33 0,-8.31 -2,-15.83 -6,-22.61 -4,-6.81 -9.61,-12.17 -16.86,-16.19 -7.24,-3.98 -14.68,-5.99 -22.38,-5.99l-40.18 0c0,11.7 1.94,23.64 5.78,35.77 3.85,12.18 9.84,22.22 18,30.26 8.16,8 18.09,12.02 29.78,12.02z"/>
   <path class="fil2" d="M413.99 5488.43l-13.39 0c0,-8.62 -0.69,-15.76 -2.08,-21.46 -1.38,-5.67 -4.87,-8.55 -10.38,-8.55l-104.81 0c-6.77,0 -11.69,1.11 -14.77,3.27 -3.06,2.13 -4.91,5.13 -5.53,8.98 -0.63,3.86 -0.94,9.77 -0.94,17.77l-13.84 0 -4.15 -54.91 37.84 0c-11.39,-4.02 -20.52,-9.89 -27.45,-17.53 -6.93,-7.73 -10.4,-16.98 -10.4,-27.74 0,-7.68 2.3,-14.53 6.9,-20.52 4.63,-6.02 10.63,-9.02 18.02,-9.02 4.61,0 8.6,1.7 12,5.09 3.37,3.37 5.07,7.52 5.07,12.44 0,4.66 -1.69,8.63 -5.07,12.02 -3.41,3.39 -7.39,5.08 -12,5.08 -7.1,0 -12.03,-2.48 -14.77,-7.4l0 2.32c0,10.49 3.76,18.95 11.32,25.42 7.53,6.45 16.83,11.07 27.93,13.82 11.07,2.76 21.67,4.18 31.85,4.18l62.79 0c8.31,0 12.46,-12.33 12.46,-36.95l13.39 0 0 93.71z"/>
   <path class="fil2" d="M510.01 5320.94c0,2.13 -1.08,3.19 -3.23,3.19 -1.24,0 -2.16,-0.11 -2.78,-0.45 -42.78,-44 -104.78,-66.02 -186.04,-66.02 -81.25,0 -143.11,21.71 -185.58,65.08 -0.64,0.94 -1.71,1.37 -3.25,1.37 -0.93,0 -1.7,-0.28 -2.31,-0.9 -0.61,-0.59 -0.9,-1.38 -0.9,-2.29l0 -3.7c0,-0.59 0.29,-1.23 0.9,-1.85 14.48,-18.48 32.1,-33.76 52.86,-45.93 20.77,-12.14 42.86,-21.08 66.24,-26.79 23.39,-5.72 47.41,-8.55 72.04,-8.55 18.16,0 35.99,1.57 53.53,4.65 17.54,3.09 34.85,7.93 51.94,14.54 17.08,6.62 32.85,15.09 47.34,25.37 14.45,10.32 27.22,22.57 38.31,36.72 0.61,0.63 0.93,1.26 0.93,1.85l0 3.7 0 0.01z"/>
   <polygon class="fil0" points="1447.7,9040.72 19529.14,9040.72 19529.14,7386.2 1447.7,7386.2 "/>
   <line class="fil1 str0" x1="1447.7" y1="9040.72" x2="1447.7" y2= "7386.2" />
   <line class="fil1 str0" x1="4030.78" y1="9040.72" x2="4030.78" y2= "7386.2" />
   <line class="fil1 str0" x1="6613.82" y1="9040.72" x2="6613.82" y2= "7386.2" />
   <line class="fil1 str0" x1="9196.87" y1="9040.72" x2="9196.87" y2= "7386.2" />
   <line class="fil1 str0" x1="11779.96" y1="9040.72" x2="11779.96" y2= "7386.2" />
   <line class="fil1 str0" x1="14363.01" y1="9040.72" x2="14363.01" y2= "7386.2" />
   <line class="fil1 str0" x1="16946.05" y1="9040.72" x2="16946.05" y2= "7386.2" />
   <line class="fil1 str0" x1="19529.14" y1="9040.72" x2="19529.14" y2= "7386.2" />
   <line class="fil1 str0" x1="19529.14" y1="9040.72" x2="1447.7" y2= "9040.72" />
   <line class="fil1 str0" x1="19529.14" y1="7386.2" x2="1447.7" y2= "7386.2" />
   <line class="fil1 str1" x1="1447.7" y1="9040.72" x2="19529.14" y2= "9040.72" />
   <line class="fil1 str1" x1="1447.7" y1="9040.72" x2="1447.7" y2= "8859.91" />
   <line class="fil1 str1" x1="4030.78" y1="9040.72" x2="4030.78" y2= "8859.91" />
   <line class="fil1 str1" x1="6613.82" y1="9040.72" x2="6613.82" y2= "8859.91" />
   <line class="fil1 str1" x1="9196.87" y1="9040.72" x2="9196.87" y2= "8859.91" />
   <line class="fil1 str1" x1="11779.96" y1="9040.72" x2="11779.96" y2= "8859.91" />
   <line class="fil1 str1" x1="14363.01" y1="9040.72" x2="14363.01" y2= "8859.91" />
   <line class="fil1 str1" x1="16946.05" y1="9040.72" x2="16946.05" y2= "8859.91" />
   <line class="fil1 str1" x1="19529.14" y1="9040.72" x2="19529.14" y2= "8859.91" />
   <path class="fil2" d="M1447.7 9456.7c-28.92,0 -48.62,-11.93 -59.08,-35.78 -10.46,-23.85 -15.7,-52.24 -15.7,-85.17 0,-20.62 1.84,-39.93 5.54,-57.94 3.7,-18 11.16,-33.4 22.39,-46.17 11.22,-12.77 26.86,-19.14 46.85,-19.14 15.7,0 28.47,3.84 38.32,11.54 9.84,7.69 17.39,17.54 22.63,29.55 5.21,12 8.75,24.92 10.6,38.76 1.86,13.85 2.8,28.32 2.8,43.42 0,20.31 -1.86,39.31 -5.56,57.01 -3.7,17.7 -10.99,32.79 -21.92,45.25 -10.93,12.46 -26.55,18.69 -46.87,18.69l-0.01 0zm0 -9.26c13.23,0 23.08,-6.76 29.55,-20.3 6.47,-13.55 10.46,-28.49 12,-44.78 1.53,-16.3 2.29,-33.7 2.29,-52.18 0,-17.84 -0.76,-34.31 -2.29,-49.4 -1.54,-15.07 -5.54,-28.68 -12,-40.84 -6.47,-12.17 -16.3,-18.25 -29.55,-18.25 -13.23,0 -23.08,6.15 -29.55,18.47 -6.45,12.31 -10.45,25.93 -11.99,40.85 -1.53,14.93 -2.3,31.32 -2.3,49.17 0,12.94 0.31,25.26 0.92,36.93 0.61,11.7 2.3,23.78 5.07,36.26 2.77,12.46 7.24,22.92 13.39,31.38 6.16,8.46 14.32,12.7 24.47,12.7z"/>
   <path class="fil2" d="M3959.68 9448.84l0 -9.69c0,-0.61 0.31,-1.23 0.9,-1.86l54.92 -60.91c8.31,-8.93 15.13,-16.47 20.32,-22.65 5.28,-6.13 10.41,-13.21 15.49,-21.23 5.04,-8.01 9.06,-16.08 12.02,-24.24 2.91,-8.15 4.37,-16.84 4.37,-26.07 0,-9.84 -1.76,-19.16 -5.32,-27.94 -3.54,-8.75 -8.82,-15.82 -15.91,-21.23 -7.09,-5.37 -15.73,-8.06 -25.88,-8.06 -10.13,0 -19.39,3.15 -27.65,9.45 -8.32,6.31 -14.18,14.23 -17.58,23.78 0.95,0 2.32,0 4.18,0 5.24,0 9.69,1.78 13.4,5.32 3.66,3.54 5.51,8.06 5.51,13.6 0,5.55 -1.84,10.17 -5.51,13.85 -3.71,3.71 -8.16,5.56 -13.4,5.56 -5.55,0 -10.24,-1.93 -14.1,-5.8 -3.82,-3.84 -5.75,-8.39 -5.75,-13.61 0,-8.92 1.7,-17.23 5.08,-24.91 3.35,-7.69 8.2,-14.62 14.54,-20.78 6.3,-6.15 13.39,-10.87 21.23,-14.09 7.84,-3.22 16.24,-4.82 25.18,-4.82 13.51,0 26.15,2.91 37.81,8.77 11.7,5.84 20.96,13.92 27.74,24.22 6.78,10.33 10.16,22.56 10.16,36.7 0,10.15 -2.24,19.87 -6.7,29.1 -4.49,9.21 -10.24,17.6 -17.33,25.12 -7.09,7.55 -16.07,16.16 -26.98,25.85 -10.95,9.7 -18.12,16.08 -21.52,19.17l-40.13 38.77 33.71 0c16.9,0 30.96,-0.16 42.2,-0.45 11.27,-0.31 17.17,-0.77 17.8,-1.38 2.76,-3.09 5.72,-14.03 8.79,-32.8l10.16 0 -10.16 63.26 -131.58 0 0 0.01z"/>
   <path class="fil2" d="M6534.89 9390.21l0 -12.46 109.87 -163.45c0.63,-1.23 1.85,-1.82 3.71,-1.82l5.08 0c2.76,0 4.13,1.37 4.13,4.14l0 161.12 34.63 0 0 12.46 -34.63 0 0 35.06c0,4.62 3.47,7.63 10.4,9.02 6.93,1.38 14.85,2.07 23.76,2.07l0 12.47 -97.38 0 0 -12.47c8.9,0 16.86,-0.68 23.75,-2.07 6.93,-1.4 10.41,-4.4 10.41,-9.02l0 -35.06 -93.72 0zm11.96 -12.46l84.03 0 0 -125.57 -84.03 125.57z"/>
   <path class="fil2" d="M9196.87 9456.7c-14.77,0 -26.99,-3.92 -36.68,-11.78 -9.69,-7.84 -17.25,-17.92 -22.65,-30.23 -5.36,-12.31 -9.15,-25.31 -11.32,-39.03 -2.17,-13.69 -3.23,-27.47 -3.23,-41.31 0,-18.78 3.71,-37.55 11.11,-56.32 7.37,-18.77 18.07,-34.39 32.06,-46.85 14.03,-12.46 30.7,-18.69 50.07,-18.69 8.32,0 15.96,1.52 22.89,4.6 6.89,3.07 12.37,7.62 16.35,13.61 4.02,6.02 6.02,13.18 6.02,21.48 0,4.92 -1.61,9 -4.86,12.23 -3.23,3.24 -7.33,4.86 -12.25,4.86 -4.61,0 -8.63,-1.61 -12.02,-4.86 -3.39,-3.23 -5.05,-7.3 -5.05,-12.23 0,-4.63 1.65,-8.55 5.05,-11.79 3.37,-3.23 7.4,-4.86 12.02,-4.86l1.84 0c-3.07,-4.31 -7.28,-7.46 -12.67,-9.45 -5.4,-2.01 -11.16,-3.01 -17.34,-3.01 -7.05,0 -13.59,1.54 -19.62,4.63 -5.99,3.07 -11.46,7.21 -16.38,12.45 -4.92,5.23 -8.98,11.08 -12.22,17.54 -3.23,6.45 -5.71,13.77 -7.4,21.92 -1.7,8.16 -2.76,15.86 -3.23,23.1 -0.45,7.22 -0.67,16.24 -0.67,27 3.98,-9.84 9.84,-17.84 17.53,-24.02 7.68,-6.14 16.3,-9.21 25.84,-9.21 10.47,0 20.01,2.16 28.64,6.44 8.62,4.31 16.07,10.23 22.37,17.79 6.31,7.55 11.08,16.17 14.3,25.85 3.23,9.69 4.86,19.46 4.86,29.31 0,13.85 -3.07,27.08 -9.22,39.72 -6.14,12.62 -14.85,22.61 -26.07,30 -11.22,7.38 -23.91,11.08 -38.09,11.08l0.02 0.01zm0 -11.56c9.27,0 16.62,-2.08 22.18,-6.24 5.52,-4.15 9.61,-9.61 12.21,-16.39 2.65,-6.76 4.25,-13.68 4.86,-20.77 0.64,-7.06 0.95,-15.68 0.95,-25.85 0,-13.23 -0.71,-24.62 -2.09,-34.15 -1.37,-9.54 -4.86,-17.84 -10.36,-24.95 -5.55,-7.06 -14.18,-10.6 -25.84,-10.6 -9.57,0 -17.41,3.23 -23.56,9.69 -6.19,6.44 -10.71,14.61 -13.62,24.45 -2.96,9.84 -4.41,19.23 -4.41,28.15 0,3.09 0.16,5.54 0.47,7.39 0,0.32 0,0.56 0,0.7 0,0.16 -0.16,0.37 -0.47,0.68 0,10.17 1.09,20.48 3.26,30.94 2.13,10.45 6.15,19.24 11.98,26.32 5.87,7.08 14.03,10.61 24.47,10.61l-0.01 0z"/>
   <path class="fil2" d="M11706.1 9394.82c0,-14.16 4.69,-26.71 14.07,-37.63 9.38,-10.92 21.47,-19.92 36.24,-27.01l-13.39 -8.77c-8,-5.24 -14.54,-12.23 -19.62,-20.99 -5.08,-8.78 -7.6,-18.1 -7.6,-27.95 0,-11.38 2.99,-21.62 9.02,-30.7 5.99,-9.08 13.87,-16.21 23.72,-21.45 9.84,-5.23 20.32,-7.84 31.43,-7.84 10.44,0 20.6,2.14 30.45,6.45 9.84,4.3 17.84,10.45 24.03,18.47 6.14,8.01 9.21,17.53 9.21,28.61 0,7.69 -1.84,15.02 -5.51,21.94 -3.75,6.9 -8.83,13.06 -15.29,18.46 -6.47,5.39 -13.36,9.93 -20.76,13.62l20.32 12.91c9.22,6.18 16.71,14.25 22.38,24.24 5.71,9.99 8.54,20.39 8.54,31.15 0,12.93 -3.46,24.62 -10.35,35.1 -6.98,10.46 -16.04,18.63 -27.27,24.47 -11.22,5.85 -23.16,8.78 -35.77,8.78 -12.33,0 -24.19,-2.46 -35.53,-7.38 -11.39,-4.92 -20.65,-12.16 -27.74,-21.72 -7.09,-9.53 -10.6,-20.45 -10.6,-32.76zm19.39 0c0,9.53 2.52,18.15 7.6,25.85 5.08,7.68 11.86,13.69 20.32,17.99 8.48,4.31 17.3,6.48 26.55,6.48 13.82,0 26.32,-4 37.39,-12 11.07,-8.01 16.63,-18.63 16.63,-31.85 0,-4.31 -0.87,-8.7 -2.57,-13.18 -1.69,-4.44 -4.13,-8.52 -7.36,-12.23 -3.24,-3.68 -6.86,-6.6 -10.88,-8.78l-47.51 -30.92c-7.4,4.01 -14.18,9.01 -20.32,15 -6.14,6.01 -10.99,12.71 -14.54,20.1 -3.54,7.38 -5.32,15.23 -5.32,23.54zm24.47 -108.01l42.94 27.67c9.84,-5.84 17.92,-12.84 24.23,-21 6.3,-8.15 9.45,-17.31 9.45,-27.46 0,-8.01 -2.21,-15.31 -6.66,-21.93 -4.49,-6.62 -10.24,-11.77 -17.33,-15.45 -7.09,-3.71 -14.77,-5.55 -23.08,-5.55 -7.09,0 -14.23,1.38 -21.47,4.18 -7.19,2.77 -13.23,6.85 -18,12.22 -4.77,5.38 -7.17,11.77 -7.17,19.15 0,11.08 5.71,20.49 17.1,28.18z"/>
   <path class="fil2" d="M14218.52 9448.84l0 -12.47c29.55,0 44.32,-3.7 44.32,-11.09l0 -186.48c-12.02,6.15 -27.38,9.21 -46.13,9.21l0 -12.46c28.91,0 50.77,-7.69 65.55,-23.06l5.05 0c0.63,0 1.34,0.38 2.09,1.14 0.78,0.76 1.17,1.45 1.17,2.08l0 209.57c0,7.39 14.77,11.09 44.32,11.09l0 12.47 -116.37 0z"/>
   <path class="fil2" d="M14451.65 9456.7c-28.91,0 -48.61,-11.93 -59.08,-35.78 -10.44,-23.85 -15.68,-52.24 -15.68,-85.17 0,-20.62 1.81,-39.93 5.52,-57.94 3.7,-18 11.19,-33.4 22.41,-46.17 11.22,-12.77 26.82,-19.14 46.83,-19.14 15.69,0 28.49,3.84 38.33,11.54 9.84,7.69 17.38,17.54 22.61,29.55 5.24,12 8.79,24.92 10.63,38.76 1.85,13.85 2.76,28.32 2.76,43.42 0,20.31 -1.84,39.31 -5.55,57.01 -3.66,17.7 -10.99,32.79 -21.94,45.25 -10.91,12.46 -26.51,18.69 -46.84,18.69zm0 -9.26c13.24,0 23.09,-6.76 29.55,-20.3 6.47,-13.55 10.49,-28.49 12.02,-44.78 1.54,-16.3 2.29,-33.7 2.29,-52.18 0,-17.84 -0.75,-34.31 -2.29,-49.4 -1.53,-15.07 -5.55,-28.68 -12.02,-40.84 -6.45,-12.17 -16.3,-18.25 -29.55,-18.25 -13.23,0 -23.08,6.15 -29.55,18.47 -6.47,12.31 -10.44,25.93 -11.98,40.85 -1.53,14.93 -2.32,31.32 -2.32,49.17 0,12.94 0.31,25.26 0.95,36.93 0.59,11.7 2.28,23.78 5.04,36.26 2.76,12.46 7.25,22.92 13.4,31.38 6.14,8.46 14.29,12.7 24.45,12.7l0.01 0z"/>
   <path class="fil2" d="M16801.56 9448.84l0 -12.47c29.55,0 44.32,-3.7 44.32,-11.09l0 -186.48c-11.98,6.15 -27.38,9.21 -46.13,9.21l0 -12.46c28.91,0 50.77,-7.69 65.55,-23.06l5.05 0c0.63,0 1.33,0.38 2.08,1.14 0.79,0.76 1.18,1.45 1.18,2.08l0 209.57c0,7.39 14.77,11.09 44.32,11.09l0 12.47 -116.37 0z"/>
   <path class="fil2" d="M16963.62 9448.84l0 -9.69c0,-0.61 0.32,-1.23 0.9,-1.86l54.92 -60.91c8.35,-8.93 15.13,-16.47 20.32,-22.65 5.28,-6.13 10.41,-13.21 15.49,-21.23 5.08,-8.01 9.06,-16.08 12.02,-24.24 2.91,-8.15 4.37,-16.84 4.37,-26.07 0,-9.84 -1.76,-19.16 -5.32,-27.94 -3.54,-8.75 -8.82,-15.82 -15.91,-21.23 -7.09,-5.37 -15.68,-8.06 -25.84,-8.06 -10.16,0 -19.39,3.15 -27.69,9.45 -8.32,6.31 -14.18,14.23 -17.58,23.78 0.95,0 2.32,0 4.18,0 5.24,0 9.69,1.78 13.4,5.32 3.66,3.54 5.52,8.06 5.52,13.6 0,5.55 -1.85,10.17 -5.52,13.85 -3.71,3.71 -8.16,5.56 -13.4,5.56 -5.55,0 -10.24,-1.93 -14.1,-5.8 -3.82,-3.84 -5.75,-8.39 -5.75,-13.61 0,-8.92 1.7,-17.23 5.08,-24.91 3.39,-7.69 8.24,-14.62 14.54,-20.78 6.31,-6.15 13.4,-10.87 21.24,-14.09 7.84,-3.22 16.23,-4.82 25.17,-4.82 13.55,0 26.15,2.91 37.82,8.77 11.69,5.84 20.95,13.92 27.73,24.22 6.78,10.33 10.16,22.56 10.16,36.7 0,10.15 -2.24,19.87 -6.69,29.1 -4.46,9.21 -10.25,17.6 -17.34,25.12 -7.09,7.55 -16.07,16.16 -26.98,25.85 -10.95,9.7 -18.07,16.08 -21.47,19.17l-40.18 38.77 33.72 0c16.9,0 31,-0.16 42.19,-0.45 11.27,-0.31 17.17,-0.77 17.8,-1.38 2.8,-3.09 5.72,-14.03 8.79,-32.8l10.16 0 -10.16 63.26 -131.58 0 0 0.01z"/>
   <path class="fil2" d="M19384.65 9448.84l0 -12.47c29.55,0 44.32,-3.7 44.32,-11.09l0 -186.48c-12.02,6.15 -27.38,9.21 -46.16,9.21l0 -12.46c28.94,0 50.81,-7.69 65.58,-23.06l5.05 0c0.63,0 1.3,0.38 2.09,1.14 0.75,0.76 1.14,1.45 1.14,2.08l0 209.57c0,7.39 14.77,11.09 44.32,11.09l0 12.47 -116.33 0z"/>
   <path class="fil2" d="M19538.83 9390.21l0 -12.46 109.87 -163.45c0.64,-1.23 1.85,-1.82 3.71,-1.82l5.08 0c2.76,0 4.13,1.37 4.13,4.14l0 161.12 34.63 0 0 12.46 -34.63 0 0 35.06c0,4.62 3.47,7.63 10.41,9.02 6.92,1.38 14.85,2.07 23.78,2.07l0 12.47 -97.42 0 0 -12.47c8.9,0 16.86,-0.68 23.75,-2.07 6.93,-1.4 10.41,-4.4 10.41,-9.02l0 -35.06 -93.72 0zm11.97 -12.46l84.06 0 0 -125.57 -84.06 125.57z"/>
   <path class="fil2" d="M9567.69 9923.76l0 -13.39c12.64,0 25.01,-0.77 37.17,-2.31 12.13,-1.52 18.24,-4.92 18.24,-10.16l0 -210.98c0,-5.52 -1.53,-8.91 -4.65,-10.12 -3.04,-1.25 -7.96,-1.86 -14.77,-1.86l-16.15 0c-21.24,0 -36.12,4.61 -44.76,13.85 -4.65,4.61 -7.96,12 -9.93,22.15 -2.01,10.15 -3.79,22.91 -5.32,38.32l-11.08 0 7.37 -87.71 234.55 0 7.36 87.71 -11.07 0c-1.57,-16.3 -3.27,-29.32 -5.08,-39.03 -1.85,-9.69 -5.08,-16.84 -9.69,-21.45 -9.27,-9.23 -24.31,-13.85 -45.26,-13.85l-16.16 0c-4.61,0 -8.23,0.16 -10.87,0.46 -2.6,0.3 -4.69,1.37 -6.23,3.24 -1.53,1.84 -2.28,4.61 -2.28,8.29l0 210.98c0,5.24 6.06,8.64 18.24,10.16 12.17,1.54 24.53,2.31 37.15,2.31l0 13.39 -146.81 0z"/>
   <path class="fil2" d="M9796.27 9923.76l0 -13.39c8.59,0 15.76,-0.69 21.47,-2.07 5.67,-1.4 8.51,-4.86 8.51,-10.41l0 -104.78c0,-9.84 -1.89,-15.85 -5.75,-18 -3.82,-2.16 -11.47,-3.25 -22.85,-3.25l0 -13.81 55.39 -4.18 0 144.03c0,5.55 2.48,9.01 7.4,10.41 4.92,1.37 11.39,2.07 19.39,2.07l0 13.39 -83.56 0 0 -0.01zm16.16 -235.88c0,-5.56 2.17,-10.49 6.45,-14.77 4.3,-4.32 9.07,-6.48 14.34,-6.48 3.66,0 7.21,0.99 10.6,2.98 3.39,2.01 6,4.71 7.84,8.1 1.85,3.37 2.8,6.77 2.8,10.17 0,5.52 -2.09,10.44 -6.26,14.76 -4.14,4.3 -9.15,6.44 -14.97,6.44 -5.27,0 -10.04,-2.14 -14.34,-6.44 -4.29,-4.32 -6.45,-9.25 -6.45,-14.76z"/>
   <path class="fil2" d="M9904.13 9923.76l0 -13.39c8.63,0 15.76,-0.69 21.47,-2.07 5.72,-1.4 8.55,-4.86 8.55,-10.41l0 -104.78c0,-6.79 -1.07,-11.71 -3.24,-14.77 -2.17,-3.09 -5.16,-4.92 -9.02,-5.53 -3.85,-0.63 -9.77,-0.95 -17.77,-0.95l0 -13.81 55.43 -4.18 0 37.84c5.2,-11.07 12.92,-20.14 23.05,-27.24 10.16,-7.07 21.12,-10.61 32.81,-10.61 29.55,0 46.92,12 52.13,36.01 4.92,-10.78 12.33,-19.47 22.18,-26.09 9.84,-6.62 20.79,-9.93 32.76,-9.93 11.38,0 21.07,1.92 29.11,5.75 7.95,3.86 13.98,9.64 17.97,17.32 4.01,7.7 6.02,17.24 6.02,28.63l0 92.33c0,5.55 2.84,9.01 8.51,10.41 5.72,1.37 12.89,2.07 21.47,2.07l0 13.39 -87.69 0 0 -13.39c8.63,0 15.8,-0.69 21.47,-2.07 5.71,-1.4 8.54,-4.86 8.54,-10.41l0 -90.94c0,-12.92 -1.85,-23.32 -5.55,-31.15 -3.71,-7.85 -11.23,-11.78 -22.61,-11.78 -14.77,0 -26.94,5.93 -36.48,17.77 -9.54,11.86 -14.29,25.33 -14.29,40.39l0 75.72c0,5.55 2.76,9.01 8.31,10.41 5.55,1.37 12.76,2.07 21.71,2.07l0 13.39 -88.2 0 0 -13.39c8.94,0 16.15,-0.69 21.71,-2.07 5.55,-1.4 8.31,-4.86 8.31,-10.41l0 -90.94c0,-12.62 -1.78,-22.92 -5.32,-30.93 -3.51,-8 -10.99,-12 -22.38,-12 -14.77,0 -26.94,5.93 -36.48,17.77 -9.53,11.86 -14.29,25.33 -14.29,40.39l0 75.72c0,5.55 2.76,9.01 8.31,10.41 5.52,1.37 12.61,2.07 21.24,2.07l0 13.39 -87.75 0 0.02 -0.01z"/>
   <path class="fil2" d="M10313.16 9927.93c-15.68,0 -30.02,-4.08 -42.94,-12.24 -12.92,-8.16 -23.16,-19.11 -30.69,-32.79 -7.53,-13.7 -11.32,-28.08 -11.32,-43.18 0,-15.06 3.39,-29.38 10.13,-42.91 6.78,-13.55 16.3,-24.45 28.64,-32.79 12.28,-8.31 25.84,-12.46 40.61,-12.46 12.02,0 22.33,2 30.92,6.01 8.63,4 15.8,9.46 21.51,16.4 5.67,6.9 9.93,15.13 12.69,24.69 2.76,9.53 4.14,20 4.14,31.38 0,3.37 -1.23,5.08 -3.66,5.08l-111.29 0 0 4.17c0,21.23 4.29,39.46 12.95,54.69 8.59,15.23 22.58,22.87 42,22.87 7.68,0 14.89,-1.79 21.66,-5.33 6.81,-3.54 12.65,-8.39 17.58,-14.54 4.92,-6.15 8.15,-12.94 9.68,-20.33 0.32,-0.59 0.87,-1.28 1.61,-2.05 0.79,-0.77 1.46,-1.16 2.09,-1.16l3.71 0c2.43,0 3.66,1.7 3.66,5.08 -3.39,14.46 -11.08,26.32 -23.09,35.54 -12.02,9.23 -25.53,13.87 -40.61,13.87l0.02 0zm-50.77 -102.5l87.26 0c0,-9.56 -1.34,-19.26 -3.94,-29.1 -2.6,-9.84 -7.09,-18.07 -13.39,-24.67 -6.31,-6.62 -14.54,-9.93 -24.7,-9.93 -14.46,0 -25.6,6.76 -33.44,20.3 -7.88,13.53 -11.78,28.01 -11.78,43.39z"/>
   <path class="fil2" d="M10640.01 10018.86c-14.14,-11.08 -26.35,-23.93 -36.67,-38.55 -10.32,-14.62 -18.75,-30.16 -25.37,-46.63 -6.62,-16.46 -11.55,-33.7 -14.77,-51.7 -3.23,-18 -4.86,-36.08 -4.86,-54.24 0,-18.48 1.61,-36.72 4.86,-54.73 3.23,-18 8.15,-35.3 14.77,-51.9 6.62,-16.64 15.13,-32.17 25.6,-46.65 10.47,-14.46 22.61,-27.07 36.44,-37.85 0,-0.6 0.64,-0.9 1.9,-0.9l3.66 0c0.63,0 1.22,0.3 1.84,0.9 0.64,0.61 0.92,1.38 0.92,2.31 0,1.24 -0.17,2.17 -0.45,2.78 -12.65,11.99 -23.08,24.99 -31.4,38.99 -8.31,14 -15.01,28.93 -20.09,44.79 -5.05,15.86 -8.74,32.25 -11.07,49.17 -2.32,16.92 -3.47,34.62 -3.47,53.1 0,81.25 21.86,143.1 65.55,185.55 0.64,0.61 0.92,1.71 0.92,3.26 0,0.6 -0.28,1.3 -0.92,2.07 -0.63,0.77 -1.22,1.16 -1.84,1.16l-3.66 0c-1.26,0 -1.9,-0.31 -1.9,-0.93l0.01 0z"/>
   <path class="fil2" d="M10684.13 9923.76l0 -13.39c8.63,0 15.76,-0.69 21.52,-2.07 5.67,-1.4 8.51,-4.86 8.51,-10.41l0 -104.78c0,-6.79 -1.07,-11.71 -3.24,-14.77 -2.17,-3.09 -5.16,-4.92 -8.98,-5.53 -3.86,-0.63 -9.82,-0.95 -17.81,-0.95l0 -13.81 55.43 -4.18 0 37.84c5.2,-11.07 12.92,-20.14 23.05,-27.24 10.16,-7.07 21.12,-10.61 32.81,-10.61 29.55,0 46.92,12 52.13,36.01 4.92,-10.78 12.33,-19.47 22.18,-26.09 9.84,-6.62 20.79,-9.93 32.76,-9.93 11.38,0 21.07,1.92 29.11,5.75 7.95,3.86 13.98,9.64 17.97,17.32 4.01,7.7 6.02,17.24 6.02,28.63l0 92.33c0,5.55 2.84,9.01 8.55,10.41 5.67,1.37 12.84,2.07 21.43,2.07l0 13.39 -87.69 0 0 -13.39c8.63,0 15.8,-0.69 21.47,-2.07 5.71,-1.4 8.54,-4.86 8.54,-10.41l0 -90.94c0,-12.92 -1.85,-23.32 -5.55,-31.15 -3.71,-7.85 -11.23,-11.78 -22.61,-11.78 -14.77,0 -26.94,5.93 -36.48,17.77 -9.54,11.86 -14.29,25.33 -14.29,40.39l0 75.72c0,5.55 2.76,9.01 8.31,10.41 5.55,1.37 12.76,2.07 21.71,2.07l0 13.39 -88.2 0 0 -13.39c8.94,0 16.15,-0.69 21.71,-2.07 5.55,-1.4 8.31,-4.86 8.31,-10.41l0 -90.94c0,-12.62 -1.78,-22.92 -5.32,-30.93 -3.51,-8 -10.99,-12 -22.38,-12 -14.77,0 -26.94,5.93 -36.48,17.77 -9.53,11.86 -14.29,25.33 -14.29,40.39l0 75.72c0,5.55 2.76,9.01 8.31,10.41 5.52,1.37 12.61,2.07 21.24,2.07l0 13.39 -87.75 0 0.02 -0.01z"/>
   <path class="fil2" d="M11009.59 9923.76l0 -13.39c8.62,0 15.76,-0.69 21.46,-2.07 5.67,-1.4 8.51,-4.86 8.51,-10.41l0 -104.78c0,-9.84 -1.89,-15.85 -5.75,-18 -3.82,-2.16 -11.46,-3.25 -22.85,-3.25l0 -13.81 55.39 -4.18 0 144.03c0,5.55 2.49,9.01 7.41,10.41 4.92,1.37 11.38,2.07 19.37,2.07l0 13.39 -83.55 0 0 -0.01zm16.15 -235.88c0,-5.56 2.17,-10.49 6.47,-14.77 4.33,-4.32 9.1,-6.48 14.34,-6.48 3.66,0 7.19,0.99 10.6,2.98 3.37,2.01 5.99,4.71 7.84,8.1 1.85,3.37 2.76,6.77 2.76,10.17 0,5.52 -2.05,10.44 -6.23,14.76 -4.13,4.3 -9.13,6.44 -14.96,6.44 -5.24,0 -10.01,-2.14 -14.34,-6.44 -4.3,-4.32 -6.47,-9.25 -6.47,-14.76z"/>
   <path class="fil2" d="M11117.45 9923.76l0 -13.39c8.62,0 15.76,-0.69 21.47,-2.07 5.67,-1.4 8.54,-4.86 8.54,-10.41l0 -104.78c0,-6.79 -1.11,-11.71 -3.23,-14.77 -2.17,-3.09 -5.16,-4.92 -9.02,-5.53 -3.82,-0.63 -9.77,-0.95 -17.77,-0.95l0 -13.81 55.42 -4.18 0 37.84c5.2,-11.07 12.89,-20.14 23.09,-27.24 10.12,-7.07 21.07,-10.61 32.73,-10.61 17.89,0 31.28,4.31 40.19,12.91 8.93,8.63 13.39,21.56 13.39,38.79l0 92.33c0,5.55 2.76,9.01 8.31,10.41 5.52,1.37 12.76,2.07 21.67,2.07l0 13.39 -88.16 0 0 -13.39c8.93,0 16.15,-0.69 21.7,-2.07 5.56,-1.4 8.32,-4.86 8.32,-10.41l0 -90.94c0,-12.62 -1.78,-22.92 -5.32,-30.93 -3.55,-8 -11,-12 -22.38,-12 -14.77,0 -26.94,5.93 -36.48,17.77 -9.54,11.86 -14.3,25.33 -14.3,40.39l0 75.72c0,5.55 2.76,9.01 8.32,10.41 5.52,1.37 12.61,2.07 21.23,2.07l0 13.39 -87.72 0 0 -0.01z"/>
   <path class="fil2" d="M11347.51 10019.78c-2.12,0 -3.23,-1.08 -3.23,-3.23 0,-1.24 0.16,-2.17 0.47,-2.78 44.01,-42.78 66.03,-104.78 66.03,-186.04 0,-81.25 -21.71,-143.11 -65.12,-185.58 -0.9,-0.64 -1.37,-1.72 -1.37,-3.25 0,-0.93 0.31,-1.7 0.95,-2.31 0.58,-0.6 1.33,-0.9 2.28,-0.9l3.71 0c0.59,0 1.22,0.3 1.85,0.9 18.47,14.48 33.76,32.1 45.88,52.86 12.17,20.78 21.12,42.87 26.83,66.24 5.67,23.41 8.51,47.41 8.51,72.04 0,18.16 -1.54,36.01 -4.61,53.53 -3.07,17.54 -7.92,34.86 -14.54,51.94 -6.62,17.07 -15.09,32.85 -25.4,47.34 -10.32,14.46 -22.53,27.24 -36.67,38.31 -0.64,0.61 -1.26,0.93 -1.85,0.93l-3.71 0z"/>
   <line class="fil1 str1" x1="1447.7" y1="9040.72" x2="1447.7" y2= "7386.2" />
   <line class="fil1 str1" x1="1447.7" y1="9040.72" x2="1628.5" y2= "9040.72" />
   <line class="fil1 str1" x1="1447.7" y1="7386.2" x2="1628.5" y2= "7386.2" />
   <path class="fil2" d="M1248.76 9133.67c-28.93,0 -48.63,-11.93 -59.09,-35.78 -10.46,-23.85 -15.69,-52.24 -15.69,-85.17 0,-20.62 1.84,-39.93 5.54,-57.93 3.68,-18.01 11.16,-33.41 22.39,-46.18 11.21,-12.77 26.86,-19.14 46.85,-19.14 15.7,0 28.47,3.84 38.32,11.54 9.84,7.69 17.39,17.54 22.6,29.55 5.25,12 8.78,24.92 10.63,38.76 1.86,13.86 2.78,28.32 2.78,43.42 0,20.31 -1.86,39.32 -5.55,57.01 -3.7,17.7 -10.99,32.79 -21.93,45.25 -10.92,12.46 -26.54,18.69 -46.85,18.69zm0 -9.26c13.23,0 23.08,-6.76 29.55,-20.3 6.47,-13.53 10.46,-28.47 12,-44.78 1.52,-16.3 2.29,-33.7 2.29,-52.18 0,-17.84 -0.77,-34.31 -2.29,-49.39 -1.54,-15.09 -5.54,-28.69 -12,-40.85 -6.47,-12.17 -16.3,-18.25 -29.55,-18.25 -13.23,0 -23.08,6.15 -29.55,18.47 -6.47,12.31 -10.46,25.93 -12,40.86 -1.52,14.92 -2.29,31.31 -2.29,49.16 0,12.94 0.31,25.26 0.9,36.93 0.63,11.7 2.31,23.78 5.08,36.26 2.77,12.47 7.24,22.94 13.39,31.38 6.15,8.46 14.32,12.7 24.47,12.7z"/>
   <path class="fil2" d="M973.03 7479.15c-28.94,0 -48.65,-11.94 -59.09,-35.78 -10.47,-23.85 -15.73,-52.25 -15.73,-85.18 0,-20.62 1.86,-39.93 5.55,-57.93 3.7,-18.01 11.17,-33.41 22.41,-46.18 11.21,-12.76 26.83,-19.14 46.85,-19.14 15.68,0 28.44,3.85 38.29,11.54 9.84,7.69 17.39,17.54 22.63,29.55 5.23,12 8.77,24.93 10.6,38.77 1.85,13.85 2.77,28.31 2.77,43.4 0,20.31 -1.83,39.32 -5.53,57.02 -3.68,17.69 -11,32.76 -21.91,45.24 -10.94,12.47 -26.55,18.7 -46.85,18.7l0.01 0zm0 -9.27c13.22,0 23.08,-6.76 29.55,-20.29 6.44,-13.55 10.44,-28.49 11.98,-44.78 1.54,-16.3 2.31,-33.7 2.31,-52.19 0,-17.84 -0.77,-34.3 -2.31,-49.39 -1.54,-15.07 -5.54,-28.69 -11.98,-40.84 -6.48,-12.17 -16.33,-18.26 -29.55,-18.26 -13.24,0 -23.09,6.16 -29.55,18.47 -6.48,12.32 -10.5,25.93 -12.04,40.86 -1.53,14.93 -2.3,31.31 -2.3,49.16 0,12.95 0.3,25.26 0.93,36.94 0.63,11.69 2.32,23.77 5.07,36.26 2.8,12.46 7.25,22.92 13.39,31.37 6.18,8.46 14.33,12.7 24.5,12.7z"/>
   <path class="fil2" d="M1091.63 7451.91c0,-5.55 1.93,-10.16 5.8,-13.85 3.84,-3.71 8.39,-5.55 13.62,-5.55 3.09,0 6.22,0.85 9.45,2.53 3.24,1.7 5.69,4.08 7.38,7.17 1.7,3.09 2.55,6.31 2.55,9.69 0,4.92 -1.92,9.39 -5.78,13.39 -3.85,4.01 -8.39,6.01 -13.59,6.01 -5.25,0 -9.78,-2 -13.62,-6.01 -3.86,-4 -5.8,-8.46 -5.8,-13.39z"/>
   <path class="fil2" d="M1191.07 7431.14c2.46,6.76 6.15,12.99 11.08,18.68 4.92,5.69 10.84,10.08 17.75,13.18 6.93,3.07 14.09,4.61 21.48,4.61 16.92,0 28.6,-6.62 35.06,-19.87 6.48,-13.23 9.73,-29.23 9.73,-48.01 0,-8.32 -0.08,-15.24 -0.25,-20.77 -0.16,-5.54 -0.99,-10.92 -2.53,-16.17 -2.18,-8.31 -5.94,-15.61 -11.32,-21.91 -5.38,-6.31 -12.08,-9.47 -20.1,-9.47 -7.98,0 -14.83,1.24 -20.52,3.7 -5.69,2.46 -10.32,5.32 -13.87,8.54 -3.53,3.23 -6.68,6.62 -9.45,10.15 -2.77,3.54 -4.63,5.48 -5.56,5.78l-3.68 0c-0.61,0 -1.38,-0.38 -2.31,-1.15 -0.92,-0.77 -1.38,-1.46 -1.38,-2.1l0 -118.62c0,-0.3 0.4,-0.86 1.18,-1.63 0.77,-0.76 1.6,-1.14 2.51,-1.14l0.94 0c16,7.69 32.92,11.54 50.76,11.54 17.55,0 34.48,-3.84 50.8,-11.54l0.9 0c0.93,0 1.71,0.29 2.34,0.9 0.59,0.61 0.9,1.24 0.9,1.86l0 3.7c0,0.93 -0.16,1.38 -0.46,1.38 -8.33,10.75 -18.56,19.14 -30.7,25.15 -12.16,6.01 -24.7,9.01 -37.63,9.01 -9.54,0 -19.26,-1.23 -29.1,-3.7l0 66.92c7.72,-6.45 14.64,-11.08 20.78,-13.82 6.16,-2.77 14.17,-4.18 24.02,-4.18 12.92,0 24.53,3.77 34.86,11.32 10.3,7.55 18.22,17.4 23.75,29.55 5.55,12.14 8.34,24.38 8.34,36.69 0,14.46 -3.48,27.69 -10.41,39.71 -6.95,11.99 -16.4,21.6 -28.39,28.84 -12,7.25 -25.09,10.87 -39.25,10.87 -11.7,0 -22.4,-3 -32.09,-9 -9.69,-6.02 -17.39,-14.09 -23.08,-24.24 -5.68,-10.16 -8.54,-20.93 -8.54,-32.32 0,-5.54 1.78,-9.93 5.3,-13.15 3.55,-3.25 7.94,-4.87 13.17,-4.87 5.24,0 9.53,1.7 12.93,5.08 3.37,3.37 5.07,7.69 5.07,12.94 0,4.92 -1.69,9.16 -5.07,12.7 -3.41,3.54 -7.69,5.29 -12.93,5.29 -0.93,0 -1.92,-0.08 -3,-0.23 -1.08,-0.13 -1.78,-0.21 -2.07,-0.21l0.02 -0.01z"/>
   <line class="fil1 str2" x1="1447.7" y1="9040.72" x2="18237.59" y2= "9040.72" />
   <g>
    <path class="fil3" d="M411.79 3735.79c-1.54,0 -2.77,-0.11 -3.7,-0.44l-114.42 -28.63c-7.08,-1.82 -13.22,-2.76 -18.47,-2.76 -11.07,0 -16.59,3.7 -16.59,11.07 0,8 4.78,13.9 14.3,17.81 9.53,3.82 21.66,7.56 36.44,11.27 0.63,0 1.17,0.39 1.62,1.14 0.47,0.78 0.7,1.5 0.7,2.12l0 4.58c0,0.94 -0.46,1.69 -1.38,2.32 -0.93,0.63 -1.84,0.9 -2.77,0.9 -11.1,-2.76 -20.47,-5.44 -28.15,-8.07 -7.69,-2.6 -14.77,-6.62 -21.23,-11.98 -6.45,-5.39 -9.68,-12.25 -9.68,-20.56 0,-9.54 3.06,-17.97 9.21,-25.37 6.16,-7.37 13.86,-11.07 23.08,-11.07 -9.85,-7.68 -17.68,-16.63 -23.53,-26.76 -5.84,-10.16 -8.77,-21.12 -8.77,-32.81 0,-8.91 1.62,-16.71 4.85,-23.33 3.22,-6.62 7.98,-11.74 14.28,-15.4 6.32,-3.74 13.79,-5.56 22.39,-5.56 10.45,0 23.14,2.29 38.06,6.93 14.92,4.57 31.62,10.44 50.08,17.53 8.3,3.66 15.98,5.52 23.07,5.52 7.37,0 11.07,-2.91 11.07,-8.74 0,-10.16 -5.32,-18.56 -15.91,-25.17 -10.62,-6.62 -22.07,-11.31 -34.38,-14.07 -1.53,-0.63 -2.29,-1.7 -2.29,-3.23l0 -4.65c0,-0.92 0.29,-1.74 0.9,-2.52 0.61,-0.79 1.38,-1.14 2.31,-1.14 0.31,0 0.77,0.11 1.38,0.47 14.45,3.38 27.75,9.46 39.89,18.2 12.17,8.78 18.25,19.65 18.25,32.57 0,8.9 -3.07,16.58 -9.23,23.05 -6.13,6.45 -13.67,9.69 -22.61,9.69 -4.62,0 -9.53,-1.07 -14.77,-3.24 -8.29,-3.03 -18.27,-6.66 -29.96,-10.83 -11.7,-4.13 -22.86,-7.6 -33.47,-10.4 -10.61,-2.76 -19.92,-4.18 -27.91,-4.18 -7.38,0 -13.55,1.5 -18.45,4.41 -4.92,2.91 -7.39,7.92 -7.39,15.01 0,9.22 2.08,17.84 6.24,25.84 4.15,8.01 9.59,14.93 16.35,20.8 6.78,5.83 14.77,11.23 24.01,16.16l104.75 25.84c3.38,0.9 6.3,2.91 8.74,5.99 2.47,3.07 3.7,6.47 3.7,10.16 0,3.07 -0.99,5.75 -3,8.07 -2.01,2.29 -4.54,3.43 -7.6,3.43z"/>
    <path class="fil3" d="M528.38 3537.76c0,1.85 -1.22,2.8 -3.67,2.8 -3.72,-0.64 -5.56,-1.9 -5.56,-3.71 0,-5.55 -0.54,-9.41 -1.6,-11.55 -1.08,-2.17 -3.62,-3.85 -7.62,-5.08l-119.5 -30.02c-3.38,-1.22 -7.68,-1.85 -12.9,-1.85 -7.7,0 -11.56,2.49 -11.56,7.4 0,5.56 3.31,9.69 9.93,12.45 6.61,2.76 14.99,5.4 25.12,7.84 1.25,0 1.86,0.79 1.86,2.37l0 3.19c0,0.31 -0.31,0.7 -0.93,1.14 -0.61,0.47 -1.24,0.71 -1.84,0.71 -7.68,-1.85 -14.22,-3.63 -19.62,-5.33 -5.37,-1.69 -10.3,-4.44 -14.76,-8.31 -4.44,-3.86 -6.68,-8.51 -6.68,-14.07 0,-6.14 1.78,-11.54 5.29,-16.15 3.54,-4.61 8.24,-7.53 14.08,-8.79 -5.53,-4.92 -10.14,-10.32 -13.85,-16.15 -3.67,-5.83 -5.53,-11.86 -5.53,-18 0,-7.37 2,-13.82 6.01,-19.34 3.99,-5.56 9.21,-9.74 15.68,-12.5 6.44,-2.79 13.37,-4.18 20.76,-4.18 11.69,0 23.61,2.91 35.76,8.79 12.15,5.83 22.21,13.79 30.21,23.75 8.01,10.01 12.03,20.73 12.03,32.12 0,5.19 -1.49,9.88 -4.4,14.06 -2.93,4.13 -6.7,7.45 -11.31,9.93l47.07 11.97c2.77,0.32 4.31,0.64 4.6,0.95 2.47,0 3.7,-5.83 3.7,-17.53 0,-1.85 1.07,-2.79 3.25,-2.79 2.46,0.63 4.08,1.09 4.85,1.42 0.77,0.31 1.14,1.37 1.14,3.18l0 51.25zm-55.83 -72.44c0,-6.19 -2.53,-11.94 -7.62,-17.34 -5.06,-5.39 -10.68,-9.6 -16.84,-12.69 -4.92,-2.43 -10.76,-4.77 -17.53,-6.93 -6.76,-2.12 -14.05,-4.01 -21.92,-5.51 -7.83,-1.54 -14.06,-2.33 -18.69,-2.33 -3.99,0 -7.76,0.56 -11.28,1.62 -3.54,1.06 -6.54,2.84 -9,5.32 -2.47,2.45 -3.7,5.67 -3.7,9.69 0,6.47 2.31,12.61 6.91,18.48 4.63,5.83 10.47,11.07 17.54,15.68l0.92 0 58.61 14.77c6.14,-1.23 11.45,-3.63 15.91,-7.14 4.44,-3.54 6.68,-8.07 6.68,-13.62z"/>
    <path class="fil3" d="M446.72 3365.34c-4.01,0 -8.39,-0.44 -13.14,-1.34 -4.77,-0.95 -8.68,-1.85 -11.76,-2.79 -3.09,-0.92 -9.09,-3.08 -18.02,-6.47 -8.91,-3.38 -13.52,-5.08 -13.85,-5.08 -6.44,-2.45 -11.68,-3.66 -15.68,-3.66 -5.53,0 -8.3,1.97 -8.3,5.99 0,7.09 3.62,12.84 10.83,17.3 7.24,4.49 15.31,7.79 24.22,9.93 1.25,0.31 1.86,1.11 1.86,2.32l0 3.23c0,1.54 -0.77,2.32 -2.31,2.32l-0.9 0c-10.49,-3.1 -19.87,-7.56 -28.17,-13.39 -8.3,-5.87 -12.44,-13.23 -12.44,-22.14 0,-6.45 2.08,-11.86 6.21,-16.19 4.15,-4.29 9.47,-6.45 15.93,-6.45 3.37,0 6.91,0.78 10.61,2.32 8.92,3.38 16.06,6.06 21.43,8.07 5.4,1.98 11.48,3.82 18.26,5.52 6.76,1.7 12.91,2.56 18.46,2.56 6.76,0 12.21,-1.53 16.36,-4.6 4.15,-3.08 6.23,-7.88 6.23,-14.35 0,-12.28 -9.38,-23.35 -28.14,-33.2 -6.14,-3.12 -13.38,-6 -21.69,-8.75 -8.29,-2.79 -15.06,-4.18 -20.31,-4.18 -5.53,0 -9.75,0.84 -12.66,2.52 -2.94,1.7 -6.02,3.94 -9.25,6.7 -3.22,2.76 -5.76,4.13 -7.62,4.13 -3.68,0 -6.91,-1.42 -9.68,-4.37 -2.76,-2.91 -4.14,-6.06 -4.14,-9.46 0,-4.29 1.93,-7.37 5.76,-9.21 3.84,-1.85 8.23,-2.8 13.13,-2.8 5.85,0 12.85,0.87 21.02,2.56 8.13,1.7 16.6,3.99 25.35,6.9 8.79,2.95 15.64,5.78 20.57,8.54 23.06,11.7 34.61,25.26 34.61,40.61 0,11.39 -2.79,20.41 -8.33,26.99 -5.54,6.62 -13.69,9.93 -24.44,9.93z"/>
   </g>
   <g>
    <path class="fil3" d="M414.41 8428.11c-1.54,0 -2.77,-0.16 -3.7,-0.47l-114.42 -28.6c-7.08,-1.84 -13.22,-2.77 -18.47,-2.77 -11.07,0 -16.59,3.7 -16.59,11.07 0,8 4.78,13.92 14.3,17.75 9.53,3.86 21.66,7.63 36.44,11.31 0.63,0 1.17,0.38 1.62,1.15 0.47,0.77 0.7,1.49 0.7,2.11l0 4.6c0,0.93 -0.46,1.7 -1.38,2.31 -0.93,0.59 -1.84,0.9 -2.77,0.9 -11.1,-2.76 -20.47,-5.45 -28.15,-8.06 -7.69,-2.61 -14.77,-6.62 -21.23,-12.02 -6.45,-5.38 -9.68,-12.23 -9.68,-20.54 0,-9.54 3.06,-17.98 9.21,-25.37 6.16,-7.38 13.86,-11.08 23.08,-11.08 -9.85,-7.72 -17.68,-16.63 -23.53,-26.77 -5.84,-10.16 -8.77,-21.09 -8.77,-32.79 0,-8.93 1.62,-16.69 4.85,-23.32 3.22,-6.62 7.98,-11.76 14.28,-15.44 6.32,-3.7 13.79,-5.56 22.39,-5.56 10.45,0 23.14,2.32 38.06,6.96 14.92,4.6 31.62,10.43 50.08,17.51 8.3,3.7 15.98,5.56 23.07,5.56 7.37,0 11.07,-2.93 11.07,-8.78 0,-10.17 -5.32,-18.56 -15.91,-25.17 -10.62,-6.62 -22.07,-11.3 -34.38,-14.07 -1.53,-0.6 -2.29,-1.69 -2.29,-3.25l0 -4.6c0,-0.92 0.29,-1.76 0.9,-2.53 0.61,-0.77 1.38,-1.15 2.31,-1.15 0.31,0 0.77,0.15 1.38,0.46 14.45,3.39 27.75,9.46 39.89,18.24 12.17,8.75 18.25,19.62 18.25,32.55 0,8.92 -3.07,16.62 -9.23,23.08 -6.13,6.44 -13.67,9.67 -22.61,9.67 -4.62,0 -9.53,-1.07 -14.77,-3.22 -8.29,-3.09 -18.27,-6.71 -29.96,-10.85 -11.7,-4.17 -22.86,-7.63 -33.47,-10.37 -10.61,-2.79 -19.92,-4.18 -27.91,-4.18 -7.38,0 -13.55,1.46 -18.45,4.4 -4.92,2.93 -7.39,7.91 -7.39,14.97 0,9.25 2.08,17.86 6.24,25.85 4.15,8.02 9.59,14.94 16.35,20.79 6.78,5.83 14.77,11.22 24.01,16.15l104.75 25.83c3.38,0.93 6.3,2.95 8.74,6.04 2.47,3.07 3.7,6.44 3.7,10.12 0,3.09 -0.99,5.81 -3,8.1 -2.01,2.31 -4.54,3.46 -7.6,3.46z"/>
    <path class="fil3" d="M527.33 8184.39c-3.72,-0.64 -5.56,-1.72 -5.56,-3.25 0,-6.47 -0.54,-11.52 -1.6,-15.22 -1.08,-3.7 -3.62,-6.15 -7.62,-7.39l-45.21 -11.08c9.85,10.14 14.77,20.14 14.77,29.99 0,11.38 -4.15,20.23 -12.46,26.55 -8.31,6.3 -18.31,9.45 -30.02,9.45 -11.37,0 -23.14,-2.91 -35.28,-8.77 -12.15,-5.85 -22.3,-13.77 -30.44,-23.78 -8.16,-9.97 -12.24,-20.83 -12.24,-32.52 0,-5.24 1.62,-10.01 4.85,-14.29 3.24,-4.31 7.45,-7.56 12.66,-9.73 -1.83,-1.22 -5.19,-4.13 -10.12,-8.74 -4.92,-4.63 -7.39,-8.02 -7.39,-10.16 0,-1.85 1.23,-2.78 3.7,-2.78l148.09 37.41c2.77,0.29 4.31,0.44 4.6,0.44 2.47,0 3.7,-5.84 3.7,-17.52 0,-0.92 0.31,-1.63 0.94,-2.09 0.61,-0.46 1.38,-0.68 2.31,-0.68 2.46,0.6 4.08,1.14 4.85,1.59 0.77,0.48 1.14,1.49 1.14,3.01l0 56.78c0,1.85 -1.22,2.78 -3.67,2.78zm-52.16 -7.39c0,-6.18 -2.31,-12.17 -6.9,-18.02 -4.62,-5.84 -10.16,-11.08 -16.64,-15.68l-59.96 -14.77c-6.14,0.93 -11.52,3.16 -16.16,6.71 -4.6,3.52 -6.91,8.2 -6.91,14.05 0,5.86 2.46,11.4 7.38,16.64 4.92,5.21 10.78,9.53 17.54,12.91 7.07,3.38 16.76,6.69 29.06,9.93 12.32,3.23 21.99,4.85 29.06,4.85 5.84,0 11.23,-1.31 16.16,-3.93 4.92,-2.6 7.38,-6.82 7.38,-12.67z"/>
    <path class="fil3" d="M449.34 8063.36c-4.01,0 -8.39,-0.46 -13.14,-1.38 -4.77,-0.93 -8.68,-1.84 -11.76,-2.77 -3.09,-0.94 -9.09,-3.09 -18.02,-6.48 -8.91,-3.38 -13.52,-5.08 -13.85,-5.08 -6.44,-2.46 -11.68,-3.7 -15.68,-3.7 -5.53,0 -8.3,2.02 -8.3,6.03 0,7.07 3.62,12.82 10.83,17.29 7.24,4.47 15.31,7.77 24.22,9.93 1.25,0.31 1.86,1.09 1.86,2.32l0 3.22c0,1.54 -0.77,2.31 -2.31,2.31l-0.9 0c-10.49,-3.07 -19.87,-7.53 -28.17,-13.38 -8.3,-5.84 -12.44,-13.23 -12.44,-22.15 0,-6.47 2.08,-11.85 6.21,-16.16 4.15,-4.31 9.47,-6.48 15.93,-6.48 3.37,0 6.91,0.77 10.61,2.3 8.92,3.38 16.06,6.1 21.43,8.1 5.4,1.99 11.48,3.83 18.26,5.53 6.76,1.7 12.91,2.55 18.46,2.55 6.76,0 12.21,-1.54 16.36,-4.61 4.15,-3.07 6.23,-7.85 6.23,-14.29 0,-12.31 -9.38,-23.39 -28.14,-33.23 -6.14,-3.09 -13.38,-6.02 -21.69,-8.78 -8.29,-2.78 -15.06,-4.17 -20.31,-4.17 -5.53,0 -9.75,0.85 -12.66,2.53 -2.94,1.7 -6.02,3.94 -9.25,6.71 -3.22,2.76 -5.76,4.14 -7.62,4.14 -3.68,0 -6.91,-1.46 -9.68,-4.38 -2.76,-2.94 -4.14,-6.1 -4.14,-9.46 0,-4.31 1.93,-7.39 5.76,-9.23 3.84,-1.86 8.23,-2.79 13.13,-2.79 5.85,0 12.85,0.85 21.02,2.55 8.13,1.69 16.6,4.01 25.35,6.93 8.79,2.93 15.64,5.77 20.57,8.54 23.06,11.68 34.61,25.23 34.61,40.62 0,11.37 -2.79,20.38 -8.33,26.99 -5.54,6.62 -13.69,9.93 -24.44,9.93z"/>
   </g>
  </g>
 </g>
</svg>
