<?xml version="1.0" encoding="UTF-8"?>
<!DOCTYPE svg PUBLIC "-//W3C//DTD SVG 1.1//EN" "http://www.w3.org/Graphics/SVG/1.1/DTD/svg11.dtd">
<!-- Creator: CorelDRAW 2021 (64-Bit) -->
<svg xmlns="http://www.w3.org/2000/svg" xml:space="preserve" width="179.917mm" height="90.9998mm" version="1.1" style="shape-rendering:geometricPrecision; text-rendering:geometricPrecision; image-rendering:optimizeQuality; fill-rule:evenodd; clip-rule:evenodd"
viewBox="0 0 42645.84 21569.79"
 xmlns:xlink="http://www.w3.org/1999/xlink"
 xmlns:xodm="http://www.corel.com/coreldraw/odm/2003">
 <defs>
  <style type="text/css">
   <![CDATA[
    .str2 {stroke:#00678F;stroke-width:100.38;stroke-linejoin:round;stroke-miterlimit:10}
    .str0 {stroke:#E9EAEA;stroke-width:41.86;stroke-linejoin:round;stroke-miterlimit:10}
    .str1 {stroke:#434343;stroke-width:41.86;stroke-linecap:square;stroke-linejoin:round;stroke-miterlimit:10}
    .fil1 {fill:none;fill-rule:nonzero}
    .fil2 {fill:#434343;fill-rule:nonzero}
    .fil0 {fill:white;fill-rule:nonzero}
   ]]>
  </style>
 </defs>
 <g id="Layer_x0020_1">
  <metadata id="CorelCorpID_0Corel-Layer"/>
  <g id="_1831938058016">
   <polygon class="fil0" points="-0,21569.79 42645.84,21569.79 42645.84,0 -0,0 "/>
   <polygon class="fil0" points="-0,21569.79 42645.84,21569.79 42645.84,0 -0,0 "/>
   <polygon class="fil0" points="3074.46,4263.83 41473.6,4263.83 41473.6,689.76 3074.46,689.76 "/>
   <line class="fil1 str0" x1="3074.46" y1="4263.79" x2="3074.46" y2= "689.74" />
   <line class="fil1 str0" x1="15874.28" y1="4263.79" x2="15874.28" y2= "689.74" />
   <line class="fil1 str0" x1="28673.99" y1="4263.79" x2="28673.99" y2= "689.74" />
   <line class="fil1 str0" x1="41473.72" y1="4263.79" x2="41473.72" y2= "689.74" />
   <line class="fil1 str0" x1="41473.72" y1="4263.79" x2="3074.46" y2= "4263.79" />
   <line class="fil1 str0" x1="41473.72" y1="2476.76" x2="3074.46" y2= "2476.76" />
   <line class="fil1 str0" x1="41473.72" y1="689.74" x2="3074.46" y2= "689.74" />
   <line class="fil1 str1" x1="3074.46" y1="4263.79" x2="41473.72" y2= "4263.79" />
   <line class="fil1 str1" x1="3074.46" y1="4263.79" x2="3074.46" y2= "3880.03" />
   <line class="fil1 str1" x1="15874.28" y1="4263.79" x2="15874.28" y2= "3880.03" />
   <line class="fil1 str1" x1="28673.99" y1="4263.79" x2="28673.99" y2= "3880.03" />
   <line class="fil1 str1" x1="41473.72" y1="4263.79" x2="41473.72" y2= "3880.03" />
   <path class="fil2" d="M3074.46 5146.59c-61.49,0 -103.3,-25.24 -125.48,-75.92 -22.21,-50.58 -33.33,-110.88 -33.33,-180.78 0,-43.73 3.91,-84.71 11.73,-122.92 7.87,-38.21 23.7,-70.9 47.55,-97.99 23.85,-27.09 57.01,-40.65 99.53,-40.65 33.3,0 60.47,8.2 81.37,24.51 20.88,16.31 36.93,37.21 48.05,62.72 11.09,25.5 18.61,52.93 22.54,82.27 3.91,29.34 5.9,60.11 5.9,92.06 0,43.14 -3.96,83.46 -11.83,121.08 -7.8,37.47 -23.32,69.5 -46.55,96 -23.21,26.43 -56.37,39.63 -99.48,39.63zm0 -19.56c28.09,0 48.99,-14.39 62.72,-43.07 13.75,-28.78 22.21,-60.47 25.48,-95.07 3.25,-34.63 4.88,-71.49 4.88,-110.79 0,-37.81 -1.64,-72.77 -4.88,-104.79 -3.27,-32.02 -11.73,-60.87 -25.48,-86.61 -13.72,-25.86 -34.63,-38.8 -62.72,-38.8 -28.11,0 -49.02,13.04 -62.74,39.2 -13.72,26.1 -22.21,55.01 -25.48,86.71 -3.27,31.69 -4.91,66.49 -4.91,104.29 0,27.5 0.66,53.59 1.97,78.43 1.28,24.82 4.86,50.42 10.78,76.92 5.83,26.43 15.31,48.66 28.4,66.56 13.08,17.99 30.39,27.02 51.98,27.02z"/>
   <path class="fil2" d="M15751.55 5044.73c5.26,14.32 13.13,27.52 23.58,39.66 10.45,12.04 22.99,21.4 37.71,27.92 14.72,6.52 29.94,9.79 45.58,9.79 35.96,0 60.77,-14.06 74.57,-42.14 13.72,-28.11 20.57,-62.05 20.57,-101.85 0,-17.66 -0.17,-32.35 -0.5,-44.06 -0.33,-11.8 -2.18,-23.25 -5.43,-34.3 -4.53,-17.64 -12.54,-33.18 -24.01,-46.58 -11.45,-13.37 -25.67,-20.05 -42.64,-20.05 -17.07,0 -31.53,2.58 -43.64,7.85 -12.04,5.19 -21.93,11.31 -29.44,18.16 -7.44,6.85 -14.13,13.96 -20.08,21.48 -5.85,7.54 -9.79,11.64 -11.78,12.3l-7.87 0c-1.26,0 -2.92,-0.83 -4.86,-2.42 -1.99,-1.68 -3.01,-3.18 -3.01,-4.53l0 -251.68c0,-0.69 0.92,-1.85 2.51,-3.53 1.68,-1.59 3.44,-2.42 5.36,-2.42l2.01 0c34.04,16.4 69.9,24.51 107.87,24.51 37.19,0 73.15,-8.11 107.78,-24.51l2.01 0c1.92,0 3.58,0.66 4.93,1.92 1.26,1.35 1.92,2.68 1.92,4.03l0 7.77c0,1.99 -0.33,2.92 -1,2.92 -17.66,22.92 -39.39,40.65 -65.23,53.43 -25.77,12.73 -52.43,19.08 -79.86,19.08 -20.24,0 -40.89,-2.61 -61.79,-7.77l0 141.98c16.38,-13.72 31.1,-23.49 44.06,-29.34 13.13,-5.95 30.17,-8.86 51.08,-8.86 27.45,0 52.1,8.01 74,23.99 21.93,16.05 38.73,36.95 50.44,62.72 11.78,25.84 17.73,51.77 17.73,77.94 0,30.7 -7.37,58.78 -22.09,84.19 -14.72,25.5 -34.77,45.91 -60.28,61.3 -25.5,15.38 -53.26,22.99 -83.36,22.99 -24.84,0 -47.5,-6.35 -68.08,-19.06 -20.65,-12.8 -36.95,-29.94 -49.09,-51.44 -12.04,-21.57 -18.13,-44.47 -18.13,-68.55 0,-11.8 3.75,-21.07 11.28,-27.95 7.51,-6.92 16.81,-10.36 28.02,-10.36 11.02,0 20.15,3.6 27.33,10.78 7.28,7.18 10.88,16.31 10.88,27.52 0,10.45 -3.6,19.39 -10.88,26.93 -7.18,7.44 -16.31,11.19 -27.33,11.19 -2.01,0 -4.2,-0.17 -6.45,-0.5 -2.35,-0.24 -3.77,-0.43 -4.43,-0.43z"/>
   <path class="fil2" d="M28366.92 5129.95l0 -26.43c62.72,0 94.08,-7.85 94.08,-23.56l0 -395.77c-25.41,13.04 -58.12,19.56 -97.99,19.56l0 -26.43c61.44,0 107.85,-16.38 139.21,-48.99l10.78 0c1.35,0 2.84,0.83 4.43,2.42 1.59,1.68 2.44,3.11 2.44,4.43l0 444.79c0,15.72 31.36,23.56 94.15,23.56l0 26.43 -247.1 0z"/>
   <path class="fil2" d="M28862.03 5146.59c-61.46,0 -103.27,-25.24 -125.51,-75.92 -22.23,-50.58 -33.28,-110.88 -33.28,-180.78 0,-43.73 3.84,-84.71 11.71,-122.92 7.87,-38.21 23.75,-70.9 47.57,-97.99 23.85,-27.09 57.03,-40.65 99.51,-40.65 33.37,0 60.47,8.2 81.37,24.51 20.91,16.31 36.95,37.21 48.07,62.72 11.05,25.5 18.56,52.93 22.49,82.27 3.93,29.34 5.95,60.11 5.95,92.06 0,43.14 -3.93,83.46 -11.8,121.08 -7.85,37.47 -23.39,69.5 -46.58,96 -23.23,26.43 -56.44,39.63 -99.51,39.63zm0 -19.56c28.11,0 49.02,-14.39 62.72,-43.07 13.72,-28.78 22.26,-60.47 25.5,-95.07 3.27,-34.63 4.86,-71.49 4.86,-110.79 0,-37.81 -1.59,-72.77 -4.86,-104.79 -3.25,-32.02 -11.78,-60.87 -25.5,-86.61 -13.7,-25.86 -34.61,-38.8 -62.72,-38.8 -28.09,0 -49.09,13.04 -62.79,39.2 -13.72,26.1 -22.16,55.01 -25.43,86.71 -3.25,31.69 -4.93,66.49 -4.93,104.29 0,27.5 0.69,53.59 2.01,78.43 1.26,24.82 4.86,50.42 10.71,76.92 5.93,26.43 15.38,48.66 28.51,66.56 13.04,17.99 30.34,27.02 51.91,27.02z"/>
   <path class="fil2" d="M41166.62 5129.95l0 -26.43c62.72,0 94.08,-7.85 94.08,-23.56l0 -395.77c-25.5,13.04 -58.12,19.56 -98.01,19.56l0 -26.43c61.46,0 107.87,-16.38 139.23,-48.99l10.69 0c1.35,0 2.84,0.83 4.53,2.42 1.59,1.68 2.42,3.11 2.42,4.43l0 444.79c0,15.72 31.36,23.56 94.08,23.56l0 26.43 -247.01 0z"/>
   <path class="fil2" d="M41539.14 5044.73c5.26,14.32 13.04,27.52 23.49,39.66 10.45,12.04 23.09,21.4 37.81,27.92 14.62,6.52 29.84,9.79 45.58,9.79 35.93,0 60.77,-14.06 74.5,-42.14 13.7,-28.11 20.57,-62.05 20.57,-101.85 0,-17.66 -0.09,-32.35 -0.43,-44.06 -0.33,-11.8 -2.18,-23.25 -5.43,-34.3 -4.6,-17.64 -12.54,-33.18 -24.01,-46.58 -11.45,-13.37 -25.67,-20.05 -42.64,-20.05 -17.07,0 -31.53,2.58 -43.64,7.85 -12.14,5.19 -21.93,11.31 -29.44,18.16 -7.44,6.85 -14.13,13.96 -20.08,21.48 -5.85,7.54 -9.79,11.64 -11.71,12.3l-7.85 0c-1.35,0 -3.01,-0.83 -5.03,-2.42 -1.92,-1.68 -2.84,-3.18 -2.84,-4.53l0 -251.68c0,-0.69 0.83,-1.85 2.42,-3.53 1.68,-1.59 3.44,-2.42 5.45,-2.42l1.92 0c33.94,16.4 69.9,24.51 107.87,24.51 37.19,0 73.15,-8.11 107.78,-24.51l2.01 0c1.92,0 3.58,0.66 4.93,1.92 1.26,1.35 1.92,2.68 1.92,4.03l0 7.77c0,1.99 -0.33,2.92 -1.02,2.92 -17.64,22.92 -39.37,40.65 -65.21,53.43 -25.77,12.73 -52.43,19.08 -79.86,19.08 -20.31,0 -40.89,-2.61 -61.79,-7.77l0 141.98c16.31,-13.72 31.1,-23.49 44.14,-29.34 13.06,-5.95 30.03,-8.86 51.01,-8.86 27.42,0 52.1,8.01 74,23.99 21.83,16.05 38.73,36.95 50.44,62.72 11.78,25.84 17.73,51.77 17.73,77.94 0,30.7 -7.37,58.78 -22.09,84.19 -14.72,25.5 -34.77,45.91 -60.37,61.3 -25.41,15.38 -53.17,22.99 -83.27,22.99 -24.84,0 -47.6,-6.35 -68.17,-19.06 -20.55,-12.8 -36.86,-29.94 -48.99,-51.44 -12.04,-21.57 -18.13,-44.47 -18.13,-68.55 0,-11.8 3.75,-21.07 11.28,-27.95 7.51,-6.92 16.81,-10.36 27.92,-10.36 11.12,0 20.24,3.6 27.42,10.78 7.21,7.18 10.78,16.31 10.78,27.52 0,10.45 -3.58,19.39 -10.78,26.93 -7.18,7.44 -16.31,11.19 -27.42,11.19 -1.92,0 -4.1,-0.17 -6.35,-0.5 -2.25,-0.24 -3.77,-0.43 -4.43,-0.43z"/>
   <line class="fil1 str1" x1="3074.46" y1="4263.79" x2="3074.46" y2= "689.74" />
   <line class="fil1 str1" x1="3074.46" y1="4263.79" x2="3458.47" y2= "4263.79" />
   <line class="fil1 str1" x1="3074.46" y1="2476.76" x2="3458.47" y2= "2476.76" />
   <line class="fil1 str1" x1="3074.46" y1="689.74" x2="3458.47" y2= "689.74" />
   <path class="fil2" d="M2152.98 4359.24c5.24,14.29 13.06,27.5 23.51,39.54 10.45,12.14 23.04,21.4 37.71,28.02 14.72,6.52 29.94,9.79 45.63,9.79 35.93,0 60.75,-14.06 74.48,-42.14 13.75,-28.09 20.65,-62.05 20.65,-101.92 0,-17.66 -0.19,-32.28 -0.5,-44.09 -0.36,-11.69 -2.16,-23.16 -5.43,-34.27 -4.57,-17.64 -12.61,-33.11 -24.01,-46.58 -11.42,-13.3 -25.65,-19.98 -42.67,-19.98 -16.97,0 -31.5,2.58 -43.59,7.77 -12.11,5.26 -21.93,11.28 -29.44,18.16 -7.51,6.85 -14.17,14.03 -20.08,21.48 -5.93,7.54 -9.84,11.64 -11.8,12.3l-7.82 0c-1.3,0 -2.96,-0.85 -4.91,-2.44 -1.97,-1.59 -2.94,-3.08 -2.94,-4.43l0 -251.77c0,-0.66 0.81,-1.83 2.47,-3.41 1.66,-1.68 3.44,-2.51 5.38,-2.51l1.99 0c33.97,16.38 69.9,24.58 107.78,24.58 37.29,0 73.24,-8.2 107.85,-24.58l1.97 0c1.97,0 3.63,0.66 4.95,2.01 1.28,1.23 1.94,2.58 1.94,3.91l0 7.87c0,1.92 -0.33,2.92 -1.02,2.92 -17.64,22.85 -39.35,40.65 -65.16,53.36 -25.84,12.8 -52.45,19.15 -79.9,19.15 -20.29,0 -40.86,-2.58 -61.79,-7.87l0 142.08c16.38,-13.8 31.05,-23.49 44.14,-29.34 13.06,-5.95 30.08,-8.86 50.99,-8.86 27.45,0 52.12,8.04 74.05,23.99 21.88,16.07 38.71,36.88 50.44,62.72 11.78,25.84 17.68,51.77 17.68,77.86 0,30.67 -7.32,58.78 -22.07,84.29 -14.74,25.5 -34.82,45.82 -60.3,61.2 -25.48,15.38 -53.24,23.09 -83.32,23.09 -24.86,0 -47.57,-6.38 -68.15,-19.15 -20.57,-12.73 -36.91,-29.87 -48.99,-51.34 -12.09,-21.66 -18.13,-44.49 -18.13,-68.67 0,-11.71 3.72,-21.07 11.21,-27.92 7.54,-6.85 16.85,-10.29 27.99,-10.29 11.07,0 20.22,3.6 27.42,10.78 7.18,7.21 10.78,16.31 10.78,27.42 0,10.45 -3.6,19.48 -10.78,26.93 -7.21,7.54 -16.36,11.31 -27.42,11.31 -1.97,0 -4.1,-0.26 -6.4,-0.52 -2.3,-0.33 -3.77,-0.4 -4.39,-0.4z"/>
   <path class="fil2" d="M2651.98 4461.09c-61.46,0 -103.27,-25.34 -125.48,-75.94 -22.21,-50.58 -33.33,-110.86 -33.33,-180.78 0,-43.73 3.93,-84.79 11.73,-122.92 7.87,-38.21 23.73,-70.9 47.57,-98.08 23.85,-27 56.98,-40.63 99.51,-40.63 33.33,0 60.47,8.2 81.37,24.58 20.91,16.31 36.91,37.21 47.98,62.72 11.14,25.41 18.7,52.83 22.61,82.2 3.91,29.42 5.9,60.11 5.9,92.13 0,43.16 -3.93,83.46 -11.8,121 -7.82,37.55 -23.32,69.57 -46.55,96 -23.23,26.5 -56.37,39.73 -99.51,39.73zm0 -19.65c28.11,0 49.02,-14.32 62.72,-43.07 13.72,-28.78 22.21,-60.47 25.48,-95.07 3.27,-34.63 4.91,-71.51 4.91,-110.72 0,-37.88 -1.64,-72.84 -4.91,-104.86 -3.27,-31.95 -11.76,-60.87 -25.48,-86.63 -13.7,-25.84 -34.61,-38.8 -62.72,-38.8 -28.11,0 -49.02,13.13 -62.74,39.23 -13.72,26.17 -22.21,55.01 -25.48,86.71 -3.25,31.69 -4.88,66.49 -4.88,104.36 0,27.42 0.64,53.59 1.94,78.34 1.28,24.84 4.88,50.51 10.78,76.94 5.85,26.5 15.31,48.66 28.42,66.65 13.06,17.97 30.36,26.93 51.96,26.93z"/>
   <path class="fil2" d="M2275.5 2674.04c-31.36,0 -57.36,-8.34 -77.94,-24.98 -20.57,-16.64 -36.57,-38.07 -48.05,-64.14 -11.42,-26.17 -19.44,-53.78 -24.03,-82.87 -4.55,-29.11 -6.83,-58.29 -6.83,-87.63 0,-39.89 7.85,-79.69 23.51,-119.58 15.72,-39.8 38.4,-72.91 68.15,-99.43 29.75,-26.41 65.18,-39.7 106.36,-39.7 17.66,0 33.82,3.25 48.54,9.86 14.72,6.52 26.29,16.14 34.77,28.85 8.49,12.8 12.73,27.92 12.73,45.58 0,10.45 -3.41,19.15 -10.29,26 -6.85,6.85 -15.5,10.29 -25.95,10.29 -9.81,0 -18.3,-3.44 -25.48,-10.29 -7.18,-6.85 -10.78,-15.55 -10.78,-26 0,-9.79 3.6,-18.16 10.78,-25.01 7.18,-6.85 15.67,-10.29 25.48,-10.29l3.93 0c-6.52,-9.13 -15.5,-15.81 -26.97,-20.08 -11.42,-4.27 -23.68,-6.35 -36.76,-6.35 -15,0 -28.92,3.27 -41.67,9.79 -12.75,6.61 -24.37,15.38 -34.82,26.43 -10.45,11.12 -19.13,23.58 -25.98,37.21 -6.87,13.7 -12.09,29.25 -15.69,46.58 -3.6,17.3 -5.88,33.61 -6.83,48.99 -0.97,15.38 -1.42,34.44 -1.42,57.36 8.49,-20.91 20.86,-37.97 37.19,-51.01 16.33,-13.04 34.65,-19.58 54.9,-19.58 22.26,0 42.5,4.53 60.8,13.65 18.32,9.2 34.18,21.81 47.55,37.78 13.42,15.98 23.54,34.27 30.39,54.85 6.85,20.57 10.29,41.31 10.29,62.22 0,29.44 -6.54,57.46 -19.6,84.29 -13.06,26.76 -31.55,48 -55.39,63.71 -23.85,15.64 -50.8,23.49 -80.88,23.49zm0 -24.49c19.63,0 35.32,-4.43 47.07,-13.23 11.76,-8.86 20.41,-20.48 25.95,-34.87 5.57,-14.29 9.01,-29.01 10.31,-44.06 1.3,-14.96 1.94,-33.28 1.94,-54.85 0,-28.09 -1.47,-52.27 -4.41,-72.51 -2.92,-20.22 -10.29,-37.88 -22.07,-52.93 -11.76,-14.96 -30.06,-22.49 -54.92,-22.49 -20.24,0 -36.88,6.87 -49.94,20.57 -13.08,13.72 -22.73,31.03 -28.92,51.93 -6.23,20.91 -9.34,40.79 -9.34,59.71 0,6.59 0.33,11.78 1,15.72 0,0.66 0,1.16 0,1.49 0,0.26 -0.33,0.76 -1,1.42 0,21.59 2.3,43.5 6.9,65.66 4.55,22.23 13.04,40.89 25.48,55.94 12.42,14.96 29.72,22.49 51.93,22.49z"/>
   <path class="fil2" d="M2651.98 2674.04c-61.46,0 -103.27,-25.31 -125.48,-75.92 -22.21,-50.68 -33.33,-110.88 -33.33,-180.78 0,-43.8 3.93,-84.69 11.73,-122.92 7.87,-38.21 23.73,-70.9 47.57,-98.08 23.85,-27.09 56.98,-40.63 99.51,-40.63 33.33,0 60.47,8.18 81.37,24.58 20.91,16.31 36.91,37.21 47.98,62.72 11.14,25.41 18.7,52.83 22.61,82.2 3.91,29.42 5.9,60.11 5.9,92.13 0,43.07 -3.93,83.46 -11.8,121 -7.82,37.55 -23.32,69.57 -46.55,96 -23.23,26.5 -56.37,39.7 -99.51,39.7zm0 -19.65c28.11,0 49.02,-14.29 62.72,-43.04 13.72,-28.78 22.21,-60.47 25.48,-95.07 3.27,-34.63 4.91,-71.51 4.91,-110.72 0,-37.88 -1.64,-72.84 -4.91,-104.86 -3.27,-31.95 -11.76,-60.87 -25.48,-86.63 -13.7,-25.84 -34.61,-38.8 -62.72,-38.8 -28.11,0 -49.02,13.13 -62.74,39.23 -13.72,26.17 -22.21,55.01 -25.48,86.71 -3.25,31.69 -4.88,66.49 -4.88,104.36 0,27.42 0.64,53.59 1.94,78.34 1.28,24.84 4.88,50.51 10.78,76.94 5.85,26.5 15.31,48.66 28.42,66.63 13.06,17.99 30.36,26.93 51.96,26.93z"/>
   <path class="fil2" d="M2218.66 850.73c0,-28.09 2.47,-55.35 7.35,-81.78 4.88,-26.5 11.92,-52.76 21.07,-78.86 9.15,-26.17 20.46,-51.84 33.82,-77.01 13.37,-25.08 28.23,-48.73 44.61,-70.99l68.64 -94.98 -86.28 0c-88.89,0 -134.97,0.9 -138.26,2.92 -6.54,8.44 -12.75,31.69 -18.61,69.57l-21.59 0 24.49 -157.7 22.59 0 0 1.92c0,9.13 15.36,15.05 46.06,17.64 30.74,2.61 60.82,3.93 90.21,3.93l139.18 0 0 19.58c0,0.66 0,1.16 0,1.49 0,0.26 0,0.43 0,0.43l-103.89 145.99c-25.48,37.88 -41.48,79.86 -48.02,125.86 -6.57,46.06 -9.84,103.42 -9.84,171.99 0,9.79 -3.41,18.32 -10.29,25.5 -6.85,7.21 -15.19,10.78 -24.98,10.78 -10.45,0 -19.1,-3.58 -25.95,-10.78 -6.87,-7.18 -10.31,-15.72 -10.31,-25.5z"/>
   <path class="fil2" d="M2651.98 887.02c-61.46,0 -103.27,-25.34 -125.48,-75.92 -22.21,-50.68 -33.33,-110.88 -33.33,-180.78 0,-43.83 3.93,-84.79 11.73,-123 7.87,-38.23 23.73,-70.82 47.57,-98.01 23.85,-27.09 56.98,-40.63 99.51,-40.63 33.33,0 60.47,8.18 81.37,24.58 20.91,16.31 36.91,37.21 47.98,62.72 11.14,25.41 18.7,52.83 22.61,82.18 3.91,29.44 5.9,60.13 5.9,92.16 0,43.07 -3.93,83.46 -11.8,121 -7.82,37.55 -23.32,69.57 -46.55,96 -23.23,26.41 -56.37,39.7 -99.51,39.7zm0 -19.65c28.11,0 49.02,-14.39 62.72,-43.07 13.72,-28.75 22.21,-60.44 25.48,-95.07 3.27,-34.61 4.91,-71.49 4.91,-110.69 0,-37.88 -1.64,-72.84 -4.91,-104.86 -3.27,-31.95 -11.76,-60.87 -25.48,-86.63 -13.7,-25.84 -34.61,-38.8 -62.72,-38.8 -28.11,0 -49.02,13.04 -62.74,39.23 -13.72,26.07 -22.21,55.01 -25.48,86.71 -3.25,31.69 -4.88,66.49 -4.88,104.36 0,27.42 0.64,53.59 1.94,78.34 1.28,24.84 4.88,50.51 10.78,76.94 5.85,26.5 15.31,48.66 28.42,66.63 13.06,17.9 30.36,26.93 51.96,26.93z"/>
   <polyline class="fil1 str2" points="3074.46,1624.37 3714.44,1631.49 4354.43,1735.14 4994.41,1731.63 5634.4,1711.91 6274.43,1853.09 6914.41,1801.27 7554.4,1792.31 8194.38,1908.5 8834.39,1974.54 9474.37,1910.35 10114.36,1928.25 10754.34,2033.56 11394.3,2121.17 12034.28,2121.17 12674.27,2122.92 13314.25,2151.51 13954.24,2122.92 14594.22,2135.39 15234.3,2219.46 15874.28,2285.6 16514.24,2328.4 17154.23,2367.78 17794.21,2392.76 18434.2,2421.34 19074.18,2439.31 19714.17,2473.18 20354.15,2466.07 20994.13,2496.51 21634.12,2525.09 22274.08,2535.78 22914.06,2571.48 23554.05,2573.23 24194.1,2555.43 24834.09,2594.71 25474.07,2635.76 26114.05,2600.07 26754.04,2598.31 27394.02,2634.01 28034.01,2646.55 28673.99,2582.17 29313.97,2541.14 29953.96,2639.37 30593.94,2653.73 31233.9,2576.84 31873.89,2684.07 32513.87,2716.26 33153.95,2614.36 33793.93,2698.36 34433.92,2771.68 35073.9,2659.09 35713.89,2802.02 36353.85,2684.07 36993.83,2825.27 37633.82,2716.26 38273.8,2809.13 38913.78,2837.71 39553.77,2744.84 "/>
   <path class="fil2" d="M879.15 3847.06c0,5.19 -3.58,7.77 -10.76,7.77 -1.33,0 -3.6,-0.33 -6.87,-0.92 -3.25,-0.66 -5.88,-1.83 -7.82,-3.41 -1.97,-1.68 -2.96,-3.44 -2.96,-5.45 0,-33.28 -1.94,-56.44 -5.9,-69.47 -2.58,-7.28 -9.77,-12.47 -21.55,-15.72l-448.04 -111.71c-5.21,-0.59 -9.13,-0.92 -11.78,-0.92 -5.85,0 -9.13,2.92 -9.77,8.77 -1.99,10.45 -2.99,30.03 -2.99,58.78 0,5.95 -3.58,8.86 -10.76,8.86 -1.3,-0.66 -3.6,-1.33 -6.87,-2.01 -3.22,-0.66 -5.83,-1.75 -7.82,-3.41 -1.97,-1.59 -2.94,-3.44 -2.94,-5.36l0 -281.21c0,-26.17 4.57,-51.25 13.75,-75.42 9.1,-24.15 22.99,-43.9 41.65,-59.28 18.61,-15.38 41.31,-22.99 68.12,-22.99 34.65,0 65.54,12.21 92.63,36.69 27.16,24.51 48.21,54.87 63.24,91.16 15.03,36.19 22.52,71.32 22.52,105.27l0 132.29 202 50.01c5.21,0.57 9.13,0.92 11.78,0.92 1.97,0 3.6,-0.36 4.91,-0.92 1.26,-0.69 2.28,-1.52 2.94,-2.51 0.62,-1 0.95,-2.77 0.95,-5.36 2.63,-10.45 3.93,-30.34 3.93,-59.78 0,-5.19 3.6,-7.77 10.78,-7.77 7.23,1.92 11.92,3.34 14.17,4.34 2.32,1 3.46,4.36 3.46,10.29l0 218.5zm-278.44 -211.65l0 -114.63c0,-52.86 -14.39,-93.08 -43.12,-120.51 -13.72,-13.7 -33.99,-25.17 -60.8,-34.37 -26.76,-9.1 -50.96,-13.63 -72.51,-13.63 -26.83,0 -45.77,10.29 -56.86,30.86 -11.12,20.57 -16.71,45.91 -16.71,75.92l0 78.43c0,14.98 1.35,24.75 3.96,29.37 2.61,4.6 10.45,8.77 23.56,12.7l222.48 55.84z"/>
   <path class="fil2" d="M1016.13 3214.74c0,46.41 -19.13,77.77 -57.34,94.08 -38.26,16.31 -83.48,24.49 -135.77,24.49 -32.66,0 -63.41,-2.92 -92.18,-8.86 -28.75,-5.83 -53.24,-17.54 -73.53,-35.2 -20.27,-17.64 -30.39,-42.48 -30.39,-74.5 0,-24.84 6.04,-44.99 18.13,-60.7 12.09,-15.64 27.76,-27.76 47.07,-36.22 19.27,-8.6 39.84,-14.29 61.72,-17.21 21.93,-2.94 44.99,-4.36 69.17,-4.36 32.66,0 63.03,2.94 91.16,8.79 28.09,5.85 52.12,17.64 72.01,35.27 19.96,17.66 29.94,42.4 29.94,74.43zm-14.67 0c0,-20.91 -10.81,-36.55 -32.38,-47 -21.59,-10.45 -45.46,-16.81 -71.61,-19.06 -26.12,-2.35 -53.92,-3.51 -83.32,-3.51 -28.11,0 -54.09,1.16 -77.94,3.51 -23.85,2.25 -45.56,8.6 -65.18,19.06 -19.6,10.45 -29.42,26.1 -29.42,47 0,21.57 9.81,37.38 29.42,47.5 19.63,10.12 41.34,16.31 65.18,18.65 23.85,2.32 49.82,3.41 77.94,3.41 20.91,0 40.7,-0.5 59.35,-1.49 18.63,-0.92 37.74,-3.53 57.36,-7.87 19.56,-4.17 36.22,-11.21 50.01,-20.98 13.7,-9.79 20.57,-22.92 20.57,-39.23z"/>
   <path class="fil2" d="M1081.12 2496.1c-23.56,30.03 -50.82,56.03 -81.87,77.86 -31.05,21.9 -64.05,39.87 -99.03,53.92 -34.94,14.06 -71.56,24.51 -109.77,31.36 -38.26,6.85 -76.63,10.29 -115.22,10.29 -39.23,0 -77.96,-3.44 -116.17,-10.29 -38.26,-6.85 -75,-17.3 -110.24,-31.36 -35.32,-14.06 -68.34,-32.19 -99.08,-54.35 -30.7,-22.23 -57.53,-48.07 -80.38,-77.44 -1.3,0 -1.97,-1.33 -1.97,-3.91l0 -7.87c0,-1.35 0.66,-2.58 1.97,-3.93 1.3,-1.26 2.89,-1.92 4.91,-1.92 2.61,0 4.6,0.33 5.88,1 25.46,26.76 53.07,48.92 82.82,66.56 29.72,17.66 61.44,31.86 95.12,42.67 33.68,10.78 68.45,18.63 104.39,23.49 35.93,4.93 73.53,7.35 112.76,7.35 172.58,0 303.92,-46.32 394.09,-139.14 1.3,-1.26 3.6,-1.92 6.92,-1.92 1.28,0 2.75,0.66 4.39,1.92 1.64,1.35 2.44,2.58 2.44,3.93l0 7.87c0,2.58 -0.64,3.91 -1.94,3.91z"/>
   <path class="fil2" d="M888.01 2173.27l-511.82 166.56c-11.07,4.5 -18.09,12.87 -21.05,25.01 -2.94,12.04 -4.43,27.83 -4.43,47.48l-28.4 0 0 -218.5 28.4 0c0,45.75 7.23,68.57 21.59,68.57l3.89 0 402 -130.27 -343.13 -110.72 -58.88 18.56c-11.07,3.93 -18.09,12.14 -21.05,24.51 -2.94,12.47 -4.43,28.42 -4.43,48l-28.4 0 0 -218.42 28.4 0c0,46.34 7.23,69.5 21.59,69.5 0.64,0 1.78,-0.33 3.46,-0.92 1.64,-0.66 2.75,-1 3.37,-1l399.07 -129.28 -379.39 -122.5c-1.35,-0.69 -3.96,-1.02 -7.85,-1.02 -14.39,0 -24.7,7.54 -30.89,22.49 -6.21,15.05 -9.36,31.12 -9.36,48.09l-28.4 0 0 -174.43 28.4 0c0,42.48 16.05,68.9 48.09,79.36l489.21 158.79c5.85,1.92 8.79,6.09 8.79,12.7l0 5.85c0,5.85 -2.94,9.79 -8.79,11.78l-414.73 134.23 414.73 135.2c5.85,1.92 8.79,6.19 8.79,12.7l0 5.85c0,5.85 -2.94,9.79 -8.79,11.8z"/>
   <path class="fil2" d="M1083.07 1523.45c0,4.53 -2.28,6.85 -6.83,6.85 -2.63,0 -4.6,-0.33 -5.9,-1 -90.83,-93.39 -222.52,-140.06 -395.11,-140.06 -172.51,0 -303.9,45.98 -394.09,138.05 -1.33,2.01 -3.63,3.01 -6.87,3.01 -2.01,0 -3.6,-0.66 -4.91,-1.92 -1.3,-1.33 -1.97,-3.01 -1.97,-4.93l0 -7.85c0,-1.35 0.66,-2.61 1.97,-3.93 30.74,-39.13 68.17,-71.68 112.23,-97.51 44.11,-25.84 91.02,-44.73 140.68,-56.77 49.68,-12.11 100.67,-18.13 152.96,-18.13 38.59,0 76.47,3.25 113.7,9.77 37.29,6.52 74.02,16.9 110.31,30.96 36.27,13.96 69.76,31.93 100.5,53.83 30.7,21.83 57.81,47.83 81.37,77.86 1.3,1.33 1.94,2.58 1.94,3.93l0 7.85z"/>
   <polygon class="fil0" points="3074.46,9217.36 41473.6,9217.36 41473.6,5705.98 3074.46,5705.98 "/>
   <line class="fil1 str0" x1="3074.46" y1="9217.29" x2="3074.46" y2= "5705.93" />
   <line class="fil1 str0" x1="15874.28" y1="9217.29" x2="15874.28" y2= "5705.93" />
   <line class="fil1 str0" x1="28673.99" y1="9217.29" x2="28673.99" y2= "5705.93" />
   <line class="fil1 str0" x1="41473.72" y1="9217.29" x2="41473.72" y2= "5705.93" />
   <line class="fil1 str0" x1="41473.72" y1="9217.29" x2="3074.46" y2= "9217.29" />
   <line class="fil1 str0" x1="41473.72" y1="7461.62" x2="3074.46" y2= "7461.62" />
   <line class="fil1 str0" x1="41473.72" y1="5705.93" x2="3074.46" y2= "5705.93" />
   <line class="fil1 str1" x1="3074.46" y1="9217.29" x2="41473.72" y2= "9217.29" />
   <line class="fil1 str1" x1="3074.46" y1="9217.29" x2="3074.46" y2= "8833.61" />
   <line class="fil1 str1" x1="15874.28" y1="9217.29" x2="15874.28" y2= "8833.61" />
   <line class="fil1 str1" x1="28673.99" y1="9217.29" x2="28673.99" y2= "8833.61" />
   <line class="fil1 str1" x1="41473.72" y1="9217.29" x2="41473.72" y2= "8833.61" />
   <path class="fil2" d="M3074.46 10100.21c-61.49,0 -103.3,-25.34 -125.48,-75.92 -22.21,-50.68 -33.33,-110.98 -33.33,-180.78 0,-43.83 3.91,-84.81 11.73,-123.02 7.87,-38.21 23.7,-70.9 47.55,-97.99 23.85,-27.09 57.01,-40.65 99.53,-40.65 33.3,0 60.47,8.2 81.37,24.51 20.88,16.31 36.93,37.21 48.05,62.72 11.09,25.5 18.61,52.93 22.54,82.27 3.91,29.34 5.9,60.11 5.9,92.16 0,43.04 -3.96,83.36 -11.83,120.98 -7.8,37.55 -23.32,69.5 -46.55,96 -23.21,26.5 -56.37,39.73 -99.48,39.73zm0 -19.65c28.09,0 48.99,-14.39 62.72,-43.07 13.75,-28.78 22.21,-60.47 25.48,-95.07 3.25,-34.63 4.88,-71.49 4.88,-110.72 0,-37.88 -1.64,-72.84 -4.88,-104.86 -3.27,-32.02 -11.73,-60.87 -25.48,-86.61 -13.72,-25.86 -34.63,-38.8 -62.72,-38.8 -28.11,0 -49.02,13.13 -62.74,39.2 -13.72,26.1 -22.21,55.01 -25.48,86.71 -3.27,31.71 -4.91,66.49 -4.91,104.36 0,27.42 0.66,53.52 1.97,78.36 1.28,24.82 4.86,50.49 10.78,76.92 5.83,26.52 15.31,48.66 28.4,66.56 13.08,18.06 30.39,27.02 51.98,27.02z"/>
   <path class="fil2" d="M15751.55 9998.26c5.26,14.32 13.13,27.52 23.58,39.66 10.45,12.04 22.99,21.4 37.71,27.99 14.72,6.45 29.94,9.72 45.58,9.72 35.96,0 60.77,-14.06 74.57,-42.14 13.72,-28.02 20.57,-62.05 20.57,-101.85 0,-17.66 -0.17,-32.35 -0.5,-44.06 -0.33,-11.8 -2.18,-23.25 -5.43,-34.3 -4.53,-17.64 -12.54,-33.18 -24.01,-46.58 -11.45,-13.37 -25.67,-20.05 -42.64,-20.05 -17.07,0 -31.53,2.58 -43.64,7.85 -12.04,5.19 -21.93,11.31 -29.44,18.16 -7.44,6.85 -14.13,13.96 -20.08,21.48 -5.85,7.54 -9.79,11.64 -11.78,12.3l-7.87 0c-1.26,0 -2.92,-0.83 -4.86,-2.42 -1.99,-1.68 -3.01,-3.11 -3.01,-4.43l0 -251.77c0,-0.69 0.92,-1.85 2.51,-3.44 1.68,-1.68 3.44,-2.51 5.36,-2.51l2.01 0c34.04,16.4 69.9,24.51 107.87,24.51 37.19,0 73.15,-8.11 107.78,-24.51l2.01 0c1.92,0 3.58,0.66 4.93,1.92 1.26,1.35 1.92,2.68 1.92,4.03l0 7.77c0,1.99 -0.33,3.01 -1,3.01 -17.66,22.83 -39.39,40.56 -65.23,53.33 -25.77,12.73 -52.43,19.15 -79.86,19.15 -20.24,0 -40.89,-2.68 -61.79,-7.85l0 141.98c16.38,-13.72 31.1,-23.49 44.06,-29.34 13.13,-5.85 30.17,-8.86 51.08,-8.86 27.45,0 52.1,8.01 74,24.08 21.93,15.95 38.73,36.86 50.44,62.62 11.78,25.84 17.73,51.84 17.73,77.94 0,30.7 -7.37,58.78 -22.09,84.29 -14.72,25.41 -34.77,45.82 -60.28,61.2 -25.5,15.38 -53.26,23.09 -83.36,23.09 -24.84,0 -47.5,-6.45 -68.08,-19.15 -20.65,-12.7 -36.95,-29.94 -49.09,-51.44 -12.04,-21.57 -18.13,-44.4 -18.13,-68.55 0,-11.8 3.75,-21.07 11.28,-27.95 7.51,-6.92 16.81,-10.36 28.02,-10.36 11.02,0 20.15,3.6 27.33,10.78 7.28,7.18 10.88,16.31 10.88,27.52 0,10.45 -3.6,19.39 -10.88,26.93 -7.18,7.44 -16.31,11.19 -27.33,11.19 -2.01,0 -4.2,-0.17 -6.45,-0.5 -2.35,-0.24 -3.77,-0.43 -4.43,-0.43z"/>
   <path class="fil2" d="M28366.92 10083.47l0 -26.41c62.72,0 94.08,-7.87 94.08,-23.58l0 -395.77c-25.41,13.04 -58.12,19.56 -97.99,19.56l0 -26.43c61.44,0 107.85,-16.28 139.21,-48.99l10.78 0c1.35,0 2.84,0.83 4.43,2.51 1.59,1.59 2.44,3.01 2.44,4.34l0 444.79c0,15.72 31.36,23.58 94.15,23.58l0 26.41 -247.1 0z"/>
   <path class="fil2" d="M28862.03 10100.21c-61.46,0 -103.27,-25.34 -125.51,-75.92 -22.23,-50.68 -33.28,-110.98 -33.28,-180.78 0,-43.83 3.84,-84.81 11.71,-123.02 7.87,-38.21 23.75,-70.9 47.57,-97.99 23.85,-27.09 57.03,-40.65 99.51,-40.65 33.37,0 60.47,8.2 81.37,24.51 20.91,16.31 36.95,37.21 48.07,62.72 11.05,25.5 18.56,52.93 22.49,82.27 3.93,29.34 5.95,60.11 5.95,92.16 0,43.04 -3.93,83.36 -11.8,120.98 -7.85,37.55 -23.39,69.5 -46.58,96 -23.23,26.5 -56.44,39.73 -99.51,39.73zm0 -19.65c28.11,0 49.02,-14.39 62.72,-43.07 13.72,-28.78 22.26,-60.47 25.5,-95.07 3.27,-34.63 4.86,-71.49 4.86,-110.72 0,-37.88 -1.59,-72.84 -4.86,-104.86 -3.25,-32.02 -11.78,-60.87 -25.5,-86.61 -13.7,-25.86 -34.61,-38.8 -62.72,-38.8 -28.09,0 -49.09,13.13 -62.79,39.2 -13.72,26.1 -22.16,55.01 -25.43,86.71 -3.25,31.71 -4.93,66.49 -4.93,104.36 0,27.42 0.69,53.52 2.01,78.36 1.26,24.82 4.86,50.49 10.71,76.92 5.93,26.52 15.38,48.66 28.51,66.56 13.04,18.06 30.34,27.02 51.91,27.02z"/>
   <path class="fil2" d="M41166.62 10083.47l0 -26.41c62.72,0 94.08,-7.87 94.08,-23.58l0 -395.77c-25.5,13.04 -58.12,19.56 -98.01,19.56l0 -26.43c61.46,0 107.87,-16.28 139.23,-48.99l10.69 0c1.35,0 2.84,0.83 4.53,2.51 1.59,1.59 2.42,3.01 2.42,4.34l0 444.79c0,15.72 31.36,23.58 94.08,23.58l0 26.41 -247.01 0z"/>
   <path class="fil2" d="M41539.14 9998.26c5.26,14.32 13.04,27.52 23.49,39.66 10.45,12.04 23.09,21.4 37.81,27.99 14.62,6.45 29.84,9.72 45.58,9.72 35.93,0 60.77,-14.06 74.5,-42.14 13.7,-28.02 20.57,-62.05 20.57,-101.85 0,-17.66 -0.09,-32.35 -0.43,-44.06 -0.33,-11.8 -2.18,-23.25 -5.43,-34.3 -4.6,-17.64 -12.54,-33.18 -24.01,-46.58 -11.45,-13.37 -25.67,-20.05 -42.64,-20.05 -17.07,0 -31.53,2.58 -43.64,7.85 -12.14,5.19 -21.93,11.31 -29.44,18.16 -7.44,6.85 -14.13,13.96 -20.08,21.48 -5.85,7.54 -9.79,11.64 -11.71,12.3l-7.85 0c-1.35,0 -3.01,-0.83 -5.03,-2.42 -1.92,-1.68 -2.84,-3.11 -2.84,-4.43l0 -251.77c0,-0.69 0.83,-1.85 2.42,-3.44 1.68,-1.68 3.44,-2.51 5.45,-2.51l1.92 0c33.94,16.4 69.9,24.51 107.87,24.51 37.19,0 73.15,-8.11 107.78,-24.51l2.01 0c1.92,0 3.58,0.66 4.93,1.92 1.26,1.35 1.92,2.68 1.92,4.03l0 7.77c0,1.99 -0.33,3.01 -1.02,3.01 -17.64,22.83 -39.37,40.56 -65.21,53.33 -25.77,12.73 -52.43,19.15 -79.86,19.15 -20.31,0 -40.89,-2.68 -61.79,-7.85l0 141.98c16.31,-13.72 31.1,-23.49 44.14,-29.34 13.06,-5.85 30.03,-8.86 51.01,-8.86 27.42,0 52.1,8.01 74,24.08 21.83,15.95 38.73,36.86 50.44,62.62 11.78,25.84 17.73,51.84 17.73,77.94 0,30.7 -7.37,58.78 -22.09,84.29 -14.72,25.41 -34.77,45.82 -60.37,61.2 -25.41,15.38 -53.17,23.09 -83.27,23.09 -24.84,0 -47.6,-6.45 -68.17,-19.15 -20.55,-12.7 -36.86,-29.94 -48.99,-51.44 -12.04,-21.57 -18.13,-44.4 -18.13,-68.55 0,-11.8 3.75,-21.07 11.28,-27.95 7.51,-6.92 16.81,-10.36 27.92,-10.36 11.12,0 20.24,3.6 27.42,10.78 7.21,7.18 10.78,16.31 10.78,27.52 0,10.45 -3.58,19.39 -10.78,26.93 -7.18,7.44 -16.31,11.19 -27.42,11.19 -1.92,0 -4.1,-0.17 -6.35,-0.5 -2.25,-0.24 -3.77,-0.43 -4.43,-0.43z"/>
   <line class="fil1 str1" x1="3074.46" y1="9217.29" x2="3074.46" y2= "5705.93" />
   <line class="fil1 str1" x1="3074.46" y1="9217.29" x2="3458.47" y2= "9217.29" />
   <line class="fil1 str1" x1="3074.46" y1="7461.62" x2="3458.47" y2= "7461.62" />
   <line class="fil1 str1" x1="3074.46" y1="5705.93" x2="3458.47" y2= "5705.93" />
   <polygon class="fil2" points="1635.94,9258.82 1835,9258.82 1835,9211.79 1635.94,9211.79 "/>
   <path class="fil2" d="M2066.39 9414.62c-61.44,0 -103.27,-25.27 -125.51,-75.94 -22.23,-50.58 -33.37,-110.86 -33.37,-180.78 0,-43.73 3.96,-84.69 11.8,-122.92 7.82,-38.21 23.68,-70.9 47.55,-97.99 23.85,-27.09 57.03,-40.65 99.53,-40.65 33.28,0 60.4,8.2 81.3,24.51 20.93,16.31 36.95,37.21 48.07,62.72 11.12,25.41 18.63,52.83 22.52,82.2 3.96,29.42 5.9,60.11 5.9,92.13 0,43.16 -3.91,83.46 -11.71,121 -7.87,37.55 -23.39,69.57 -46.58,96 -23.21,26.5 -56.39,39.73 -99.51,39.73zm0 -19.58c28.06,0 48.97,-14.39 62.74,-43.14 13.72,-28.78 22.21,-60.47 25.48,-95 3.27,-34.61 4.86,-71.58 4.86,-110.79 0,-37.88 -1.59,-72.84 -4.86,-104.86 -3.27,-31.95 -11.76,-60.8 -25.48,-86.63 -13.77,-25.84 -34.68,-38.71 -62.74,-38.71 -28.14,0 -49.02,13.04 -62.74,39.13 -13.75,26.17 -22.28,55.01 -25.55,86.71 -3.27,31.69 -4.88,66.49 -4.88,104.36 0,27.52 0.64,53.59 1.94,78.34 1.35,24.84 4.93,50.51 10.78,76.94 5.9,26.5 15.38,48.66 28.42,66.65 13.08,17.97 30.43,27 52.03,27z"/>
   <path class="fil2" d="M2318.28 9356.83c0,-11.8 4.12,-21.57 12.33,-29.44 8.13,-7.85 17.8,-11.78 28.92,-11.78 6.52,0 13.23,1.75 20.08,5.33 6.87,3.6 12.09,8.7 15.67,15.31 3.6,6.52 5.4,13.39 5.4,20.57 0,10.45 -4.1,19.91 -12.28,28.35 -8.18,8.53 -17.78,12.8 -28.87,12.8 -11.12,0 -20.79,-4.27 -28.92,-12.8 -8.2,-8.44 -12.33,-17.9 -12.33,-28.35z"/>
   <path class="fil2" d="M2533.32 9397.98l0 -26.52c62.74,0 94.1,-7.77 94.1,-23.49l0 -395.77c-25.43,13.04 -58.14,19.56 -97.99,19.56l0 -26.5c61.44,0 107.85,-16.31 139.26,-48.92l10.71 0c1.33,0 2.8,0.85 4.43,2.44 1.64,1.59 2.44,3.08 2.44,4.43l0 444.77c0,15.72 31.41,23.49 94.15,23.49l0 26.52 -247.1 0z"/>
   <path class="fil2" d="M2651.98 7658.93c-61.46,0 -103.27,-25.34 -125.48,-75.92 -22.21,-50.58 -33.33,-110.88 -33.33,-180.78 0,-43.8 3.93,-84.71 11.73,-122.92 7.87,-38.21 23.73,-70.9 47.57,-98.08 23.85,-27 56.98,-40.56 99.51,-40.56 33.33,0 60.47,8.11 81.37,24.51 20.91,16.31 36.91,37.21 47.98,62.72 11.14,25.41 18.7,52.83 22.61,82.18 3.91,29.44 5.9,60.13 5.9,92.16 0,43.14 -3.93,83.46 -11.8,121 -7.82,37.55 -23.32,69.57 -46.55,96 -23.23,26.5 -56.37,39.7 -99.51,39.7zm0 -19.65c28.11,0 49.02,-14.29 62.72,-43.04 13.72,-28.78 22.21,-60.47 25.48,-95.1 3.27,-34.61 4.91,-71.49 4.91,-110.69 0,-37.88 -1.64,-72.84 -4.91,-104.86 -3.27,-31.95 -11.76,-60.87 -25.48,-86.63 -13.7,-25.84 -34.61,-38.8 -62.72,-38.8 -28.11,0 -49.02,13.13 -62.74,39.23 -13.72,26.17 -22.21,55.01 -25.48,86.71 -3.25,31.69 -4.88,66.49 -4.88,104.36 0,27.42 0.64,53.59 1.94,78.34 1.28,24.84 4.88,50.51 10.78,76.94 5.85,26.5 15.31,48.66 28.42,66.63 13.06,17.99 30.36,26.93 51.96,26.93z"/>
   <path class="fil2" d="M2066.39 5903.26c-61.44,0 -103.27,-25.34 -125.51,-75.92 -22.23,-50.68 -33.37,-110.88 -33.37,-180.78 0,-43.83 3.96,-84.79 11.8,-122.92 7.82,-38.3 23.68,-70.92 47.55,-98.08 23.85,-27.09 57.03,-40.65 99.53,-40.65 33.28,0 60.4,8.2 81.3,24.6 20.93,16.31 36.95,37.19 48.07,62.69 11.12,25.43 18.63,52.86 22.52,82.2 3.96,29.44 5.9,60.13 5.9,92.16 0,43.07 -3.91,83.46 -11.71,121 -7.87,37.55 -23.39,69.57 -46.58,95.97 -23.21,26.52 -56.39,39.73 -99.51,39.73zm0 -19.65c28.06,0 48.97,-14.39 62.74,-43.07 13.72,-28.75 22.21,-60.44 25.48,-95.07 3.27,-34.61 4.86,-71.49 4.86,-110.72 0,-37.88 -1.59,-72.82 -4.86,-104.84 -3.27,-31.95 -11.76,-60.89 -25.48,-86.63 -13.77,-25.84 -34.68,-38.8 -62.74,-38.8 -28.14,0 -49.02,13.13 -62.74,39.2 -13.75,26.19 -22.28,55.04 -25.55,86.73 -3.27,31.69 -4.88,66.46 -4.88,104.34 0,27.45 0.64,53.62 1.94,78.36 1.35,24.84 4.93,50.51 10.78,76.94 5.9,26.5 15.38,48.66 28.42,66.63 13.08,17.99 30.43,26.93 52.03,26.93z"/>
   <path class="fil2" d="M2318.28 5845.4c0,-11.78 4.12,-21.57 12.33,-29.34 8.13,-7.87 17.8,-11.8 28.92,-11.8 6.52,0 13.23,1.75 20.08,5.36 6.87,3.6 12.09,8.7 15.67,15.31 3.6,6.42 5.4,13.3 5.4,20.48 0,10.45 -4.1,19.98 -12.28,28.42 -8.18,8.53 -17.78,12.8 -28.87,12.8 -11.12,0 -20.79,-4.27 -28.92,-12.8 -8.2,-8.44 -12.33,-17.97 -12.33,-28.42z"/>
   <path class="fil2" d="M2533.32 5886.62l0 -26.5c62.74,0 94.1,-7.87 94.1,-23.49l0 -395.77c-25.43,13.04 -58.14,19.56 -97.99,19.56l0 -26.5c61.44,0 107.85,-16.31 139.26,-49.02l10.71 0c1.33,0 2.8,0.85 4.43,2.51 1.64,1.59 2.44,3.11 2.44,4.36l0 444.86c0,15.62 31.41,23.49 94.15,23.49l0 26.5 -247.1 0z"/>
   <line class="fil1 str2" x1="3074.46" y1="7461.62" x2="39553.77" y2= "7461.62" />
   <path class="fil2" d="M879.15 8154.89c0,5.26 -3.58,7.85 -10.76,7.85 -1.33,0 -3.6,-0.5 -6.87,-1.49 -3.25,-0.92 -5.88,-2.09 -7.82,-3.34 -1.97,-1.35 -2.96,-3.01 -2.96,-5.03 0,-33.28 -1.94,-56.44 -5.9,-69.5 -2.58,-7.18 -9.77,-12.44 -21.55,-15.72l-448.04 -111.62c-5.21,-1.35 -9.13,-1.94 -11.78,-1.94 -5.85,0 -9.13,3.27 -9.77,9.72 -1.99,10.45 -2.99,30.1 -2.99,58.78 0,5.26 -3.58,7.85 -10.76,7.85 -7.18,-1.99 -11.92,-3.41 -14.17,-4.43 -2.32,-0.9 -3.46,-4.01 -3.46,-9.2l0 -218.57c0,-5.85 3.58,-8.79 10.76,-8.79 1.3,0 3.44,0.5 6.35,1.42 2.96,1.02 5.57,2.18 7.87,3.51 2.28,1.26 3.41,3.18 3.41,5.78 0,33.35 1.97,56.53 5.93,69.64 2.58,7.21 9.77,12.4 21.59,15.64l264.65 65.63 -247.03 -319.42c-1.28,-0.57 -5.07,-4.01 -11.28,-10.29 -6.21,-6.19 -12.25,-9.27 -18.16,-9.27 -10.45,0 -15.69,9.1 -15.69,27.42 0,5.26 -3.58,7.87 -10.76,7.87 -4.57,-0.69 -8.01,-1.35 -10.29,-1.94 -2.32,-0.66 -4.12,-1.99 -5.4,-3.91 -1.3,-2.01 -1.94,-4.6 -1.94,-7.87l0 -157.7c0,-3.37 0.97,-5.62 2.94,-6.87 1.99,-1.33 4.6,-1.99 7.82,-1.99 1.3,0.66 3.6,1.49 6.87,2.42 3.27,1 5.88,2.18 7.82,3.51 1.97,1.26 2.94,3.18 2.94,5.78 0,39.87 18.35,83.36 54.92,130.34 0.69,0.69 1.02,1.19 1.02,1.42 0,0.33 0.17,0.85 0.47,1.52 0.31,0.66 0.47,1 0.47,1l130.34 168.51 286.31 -122.52c12.44,-7.09 19.91,-14.96 22.54,-23.49 2.63,-8.53 3.93,-21.57 3.93,-39.2 0,-5.85 3.6,-8.79 10.78,-8.79 5.88,2.01 10.29,3.77 13.27,5.43 2.89,1.61 4.36,4.69 4.36,9.29l0 189.06c0,4.6 -3.58,6.87 -10.76,6.87 -5.93,-0.69 -10.33,-1.42 -13.27,-2.44 -2.92,-1 -4.39,-3.75 -4.39,-8.34 0,-13.72 -1.45,-25.27 -4.41,-34.7 -2.96,-9.55 -9.34,-14.32 -19.1,-14.32 -3.93,0 -6.87,0 -8.84,0l-235.32 101.95 92.18 118.56 150.99 37.21c6.52,1.33 10.45,1.92 11.78,1.92 5.24,0 8.15,-3.27 8.79,-9.79 2.63,-10.45 3.93,-30.01 3.93,-58.78 0,-5.17 3.6,-7.85 10.78,-7.85 7.23,1.99 11.92,3.41 14.17,4.43 2.32,1 3.46,4.08 3.46,9.36l0 219.42z"/>
   <path class="fil2" d="M1113.19 7503.91c0,3.84 -2.61,5.85 -7.85,5.85 -7.87,-1.35 -11.78,-3.93 -11.78,-7.87 0,-11.78 -1.14,-19.98 -3.41,-24.49 -2.28,-4.6 -7.7,-8.2 -16.19,-10.81l-253.88 -63.62c-7.23,-2.61 -16.38,-3.93 -27.45,-3.93 -16.36,0 -24.53,5.19 -24.53,15.64 0,11.78 7.02,20.57 21.07,26.5 14.08,5.85 31.88,11.45 53.4,16.64 2.65,0 3.96,1.68 3.96,4.93l0 6.78c0,0.66 -0.66,1.49 -1.94,2.51 -1.33,1 -2.65,1.49 -3.93,1.49 -16.33,-3.93 -30.22,-7.77 -41.69,-11.35 -11.4,-3.53 -21.88,-9.46 -31.36,-17.56 -9.46,-8.2 -14.17,-18.16 -14.17,-29.94 0,-13.06 3.72,-24.41 11.21,-34.3 7.54,-9.77 17.52,-15.95 29.96,-18.63 -11.76,-10.45 -21.57,-21.83 -29.44,-34.3 -7.85,-12.37 -11.73,-25.08 -11.73,-38.11 0,-15.74 4.24,-29.44 12.75,-41.15 8.46,-11.78 19.56,-20.57 33.3,-26.5 13.72,-5.85 28.42,-8.86 44.11,-8.86 24.84,0 50.16,6.26 75.97,18.63 25.81,12.47 47.19,29.27 64.19,50.51 17.02,21.24 25.53,43.9 25.53,68.08 0,11.12 -3.08,21.07 -9.34,29.84 -6.19,8.86 -14.2,15.88 -24.03,21.07l100.03 25.5c5.9,0.66 9.15,1.26 9.79,2.01 5.24,0 7.85,-12.47 7.85,-37.31 0,-3.91 2.28,-5.85 6.9,-5.85 5.21,1.35 8.65,2.28 10.29,2.94 1.61,0.66 2.44,2.92 2.44,6.85l0 108.8zm-118.63 -153.86c0,-13.06 -5.43,-25.34 -16.21,-36.72 -10.74,-11.45 -22.66,-20.48 -35.74,-27 -10.45,-5.19 -22.87,-10.12 -37.29,-14.65 -14.34,-4.6 -29.84,-8.53 -46.55,-11.78 -16.64,-3.27 -29.87,-4.93 -39.7,-4.93 -8.49,0 -16.5,1.16 -23.99,3.41 -7.51,2.35 -13.91,6.12 -19.13,11.38 -5.24,5.19 -7.85,12.04 -7.85,20.57 0,13.63 4.91,26.76 14.7,39.13 9.81,12.47 22.26,23.49 37.29,33.28l1.92 0 124.54 31.36c13.08,-2.58 24.34,-7.7 33.8,-15.15 9.48,-7.51 14.22,-17.14 14.22,-28.92z"/>
   <path class="fil2" d="M939.64 7137.91c-8.49,0 -17.8,-0.92 -27.92,-2.94 -10.12,-1.92 -18.44,-3.91 -24.98,-5.85 -6.57,-1.99 -19.29,-6.59 -38.23,-13.8 -18.96,-7.11 -28.8,-10.69 -29.44,-10.69 -13.72,-5.29 -24.82,-7.87 -33.33,-7.87 -11.76,0 -17.64,4.27 -17.64,12.7 0,15.05 7.68,27.26 23.04,36.72 15.34,9.53 32.5,16.57 51.44,21.07 2.65,0.66 3.96,2.35 3.96,4.93l0 6.85c0,3.27 -1.64,4.95 -4.91,4.95l-1.92 0c-22.26,-6.54 -42.22,-16.07 -59.87,-28.44 -17.61,-12.44 -26.41,-28.09 -26.41,-46.98 0,-13.72 4.39,-25.17 13.18,-34.3 8.82,-9.2 20.12,-13.8 33.87,-13.8 7.13,0 14.65,1.68 22.54,4.93 18.94,7.21 34.13,12.87 45.51,17.14 11.47,4.27 24.41,8.2 38.83,11.71 14.34,3.6 27.4,5.45 39.18,5.45 14.34,0 25.93,-3.27 34.77,-9.79 8.82,-6.52 13.25,-16.64 13.25,-30.36 0,-26.07 -19.96,-49.59 -59.8,-70.49 -13.06,-6.59 -28.42,-12.78 -46.06,-18.63 -17.64,-5.95 -32.05,-8.86 -43.19,-8.86 -11.73,0 -20.72,1.75 -26.9,5.33 -6.21,3.6 -12.78,8.37 -19.65,14.32 -6.85,5.85 -12.23,8.77 -16.17,8.77 -7.85,0 -14.7,-3.08 -20.6,-9.27 -5.85,-6.28 -8.77,-12.97 -8.77,-20.17 0,-9.1 4.05,-15.62 12.23,-19.56 8.15,-3.93 17.47,-5.85 27.92,-5.85 12.42,0 27.31,1.75 44.61,5.36 17.33,3.58 35.29,8.53 53.9,14.72 18.65,6.19 33.21,12.21 43.66,18.13 49.04,24.75 73.53,53.52 73.53,86.21 0,24.18 -5.9,43.23 -17.68,57.29 -11.76,14.03 -29.08,21.07 -51.96,21.07z"/>
   <polygon class="fil0" points="3074.46,14233.55 41473.6,14233.55 41473.6,10659.48 3074.46,10659.48 "/>
   <line class="fil1 str0" x1="3074.46" y1="14233.55" x2="3074.46" y2= "10659.5" />
   <line class="fil1 str0" x1="15874.28" y1="14233.55" x2="15874.28" y2= "10659.5" />
   <line class="fil1 str0" x1="28673.99" y1="14233.55" x2="28673.99" y2= "10659.5" />
   <line class="fil1 str0" x1="41473.72" y1="14233.55" x2="41473.72" y2= "10659.5" />
   <line class="fil1 str0" x1="41473.72" y1="14233.55" x2="3074.46" y2= "14233.55" />
   <line class="fil1 str0" x1="41473.72" y1="12446.53" x2="3074.46" y2= "12446.53" />
   <line class="fil1 str0" x1="41473.72" y1="10659.5" x2="3074.46" y2= "10659.5" />
   <line class="fil1 str1" x1="3074.46" y1="14233.55" x2="41473.72" y2= "14233.55" />
   <line class="fil1 str1" x1="3074.46" y1="14233.55" x2="3074.46" y2= "13849.8" />
   <line class="fil1 str1" x1="15874.28" y1="14233.55" x2="15874.28" y2= "13849.8" />
   <line class="fil1 str1" x1="28673.99" y1="14233.55" x2="28673.99" y2= "13849.8" />
   <line class="fil1 str1" x1="41473.72" y1="14233.55" x2="41473.72" y2= "13849.8" />
   <path class="fil2" d="M3074.46 15116.4c-61.49,0 -103.3,-25.29 -125.48,-75.92 -22.21,-50.63 -33.33,-110.88 -33.33,-180.78 0,-43.73 3.91,-84.74 11.73,-122.95 7.87,-38.21 23.7,-70.9 47.55,-97.99 23.85,-27.12 57.01,-40.65 99.53,-40.65 33.3,0 60.47,8.18 81.37,24.51 20.88,16.31 36.93,37.21 48.05,62.72 11.09,25.43 18.61,52.88 22.54,82.25 3.91,29.39 5.9,60.09 5.9,92.11 0,43.12 -3.96,83.46 -11.83,121 -7.8,37.57 -23.32,69.54 -46.55,96 -23.21,26.48 -56.37,39.7 -99.48,39.7zm0 -19.6c28.09,0 48.99,-14.36 62.72,-43.09 13.75,-28.78 22.21,-60.44 25.48,-95.05 3.25,-34.63 4.88,-71.54 4.88,-110.72 0,-37.9 -1.64,-72.84 -4.88,-104.86 -3.27,-31.98 -11.73,-60.85 -25.48,-86.66 -13.72,-25.84 -34.63,-38.73 -62.72,-38.73 -28.11,0 -49.02,13.06 -62.74,39.16 -13.72,26.12 -22.21,55.04 -25.48,86.73 -3.27,31.67 -4.91,66.46 -4.91,104.36 0,27.42 0.66,53.57 1.97,78.36 1.28,24.82 4.86,50.46 10.78,76.92 5.83,26.48 15.31,48.66 28.4,66.61 13.08,17.94 30.39,26.97 51.98,26.97z"/>
   <path class="fil2" d="M15751.55 15014.53c5.26,14.34 13.13,27.52 23.58,39.61 10.45,12.09 22.99,21.4 37.71,27.97 14.72,6.52 29.94,9.79 45.58,9.79 35.96,0 60.77,-14.03 74.57,-42.12 13.72,-28.11 20.57,-62.08 20.57,-101.92 0,-17.64 -0.17,-32.31 -0.5,-44.06 -0.33,-11.76 -2.18,-23.18 -5.43,-34.3 -4.53,-17.64 -12.54,-33.16 -24.01,-46.51 -11.45,-13.39 -25.67,-20.1 -42.64,-20.1 -17.07,0 -31.53,2.63 -43.64,7.85 -12.04,5.24 -21.93,11.26 -29.44,18.13 -7.44,6.85 -14.13,14.01 -20.08,21.5 -5.85,7.54 -9.79,11.61 -11.78,12.3l-7.87 0c-1.26,0 -2.92,-0.81 -4.86,-2.44 -1.99,-1.64 -3.01,-3.13 -3.01,-4.48l0 -251.75c0,-0.64 0.92,-1.83 2.51,-3.41 1.68,-1.64 3.44,-2.47 5.36,-2.47l2.01 0c34.04,16.33 69.9,24.51 107.87,24.51 37.19,0 73.15,-8.18 107.78,-24.51l2.01 0c1.92,0 3.58,0.66 4.93,1.94 1.26,1.3 1.92,2.61 1.92,3.93l0 7.85c0,1.97 -0.33,2.94 -1,2.94 -17.66,22.85 -39.39,40.63 -65.23,53.38 -25.77,12.73 -52.43,19.1 -79.86,19.1 -20.24,0 -40.89,-2.61 -61.79,-7.85l0 142.03c16.38,-13.68 31.1,-23.49 44.06,-29.32 13.13,-5.88 30.17,-8.86 51.08,-8.86 27.45,0 52.1,8.01 74,24.06 21.93,16 38.73,36.91 50.44,62.67 11.78,25.81 17.73,51.77 17.73,77.86 0,30.7 -7.37,58.78 -22.09,84.26 -14.72,25.48 -34.77,45.87 -60.28,61.23 -25.5,15.38 -53.26,23.06 -83.36,23.06 -24.84,0 -47.5,-6.38 -68.08,-19.1 -20.65,-12.75 -36.95,-29.89 -49.09,-51.41 -12.04,-21.59 -18.13,-44.47 -18.13,-68.6 0,-11.78 3.75,-21.07 11.28,-27.92 7.51,-6.9 16.81,-10.33 28.02,-10.33 11.02,0 20.15,3.6 27.33,10.78 7.28,7.18 10.88,16.33 10.88,27.47 0,10.45 -3.6,19.44 -10.88,26.93 -7.18,7.49 -16.31,11.26 -27.33,11.26 -2.01,0 -4.2,-0.17 -6.45,-0.52 -2.35,-0.31 -3.77,-0.43 -4.43,-0.43z"/>
   <path class="fil2" d="M28366.92 15099.74l0 -26.45c62.72,0 94.08,-7.85 94.08,-23.51l0 -395.79c-25.41,13.04 -58.12,19.56 -97.99,19.56l0 -26.45c61.44,0 107.85,-16.33 139.21,-48.97l10.78 0c1.35,0 2.84,0.83 4.43,2.47 1.59,1.59 2.44,3.06 2.44,4.36l0 444.84c0,15.67 31.36,23.51 94.15,23.51l0 26.45 -247.1 0z"/>
   <path class="fil2" d="M28862.03 15116.4c-61.46,0 -103.27,-25.29 -125.51,-75.92 -22.23,-50.63 -33.28,-110.88 -33.28,-180.78 0,-43.73 3.84,-84.74 11.71,-122.95 7.87,-38.21 23.75,-70.9 47.57,-97.99 23.85,-27.12 57.03,-40.65 99.51,-40.65 33.37,0 60.47,8.18 81.37,24.51 20.91,16.31 36.95,37.21 48.07,62.72 11.05,25.43 18.56,52.88 22.49,82.25 3.93,29.39 5.95,60.09 5.95,92.11 0,43.12 -3.93,83.46 -11.8,121 -7.85,37.57 -23.39,69.54 -46.58,96 -23.23,26.48 -56.44,39.7 -99.51,39.7zm0 -19.6c28.11,0 49.02,-14.36 62.72,-43.09 13.72,-28.78 22.26,-60.44 25.5,-95.05 3.27,-34.63 4.86,-71.54 4.86,-110.72 0,-37.9 -1.59,-72.84 -4.86,-104.86 -3.25,-31.98 -11.78,-60.85 -25.5,-86.66 -13.7,-25.84 -34.61,-38.73 -62.72,-38.73 -28.09,0 -49.09,13.06 -62.79,39.16 -13.72,26.12 -22.16,55.04 -25.43,86.73 -3.25,31.67 -4.93,66.46 -4.93,104.36 0,27.42 0.69,53.57 2.01,78.36 1.26,24.82 4.86,50.46 10.71,76.92 5.93,26.48 15.38,48.66 28.51,66.61 13.04,17.94 30.34,26.97 51.91,26.97z"/>
   <path class="fil2" d="M41166.62 15099.74l0 -26.45c62.72,0 94.08,-7.85 94.08,-23.51l0 -395.79c-25.5,13.04 -58.12,19.56 -98.01,19.56l0 -26.45c61.46,0 107.87,-16.33 139.23,-48.97l10.69 0c1.35,0 2.84,0.83 4.53,2.47 1.59,1.59 2.42,3.06 2.42,4.36l0 444.84c0,15.67 31.36,23.51 94.08,23.51l0 26.45 -247.01 0z"/>
   <path class="fil2" d="M41539.14 15014.53c5.26,14.34 13.04,27.52 23.49,39.61 10.45,12.09 23.09,21.4 37.81,27.97 14.62,6.52 29.84,9.79 45.58,9.79 35.93,0 60.77,-14.03 74.5,-42.12 13.7,-28.11 20.57,-62.08 20.57,-101.92 0,-17.64 -0.09,-32.31 -0.43,-44.06 -0.33,-11.76 -2.18,-23.18 -5.43,-34.3 -4.6,-17.64 -12.54,-33.16 -24.01,-46.51 -11.45,-13.39 -25.67,-20.1 -42.64,-20.1 -17.07,0 -31.53,2.63 -43.64,7.85 -12.14,5.24 -21.93,11.26 -29.44,18.13 -7.44,6.85 -14.13,14.01 -20.08,21.5 -5.85,7.54 -9.79,11.61 -11.71,12.3l-7.85 0c-1.35,0 -3.01,-0.81 -5.03,-2.44 -1.92,-1.64 -2.84,-3.13 -2.84,-4.48l0 -251.75c0,-0.64 0.83,-1.83 2.42,-3.41 1.68,-1.64 3.44,-2.47 5.45,-2.47l1.92 0c33.94,16.33 69.9,24.51 107.87,24.51 37.19,0 73.15,-8.18 107.78,-24.51l2.01 0c1.92,0 3.58,0.66 4.93,1.94 1.26,1.3 1.92,2.61 1.92,3.93l0 7.85c0,1.97 -0.33,2.94 -1.02,2.94 -17.64,22.85 -39.37,40.63 -65.21,53.38 -25.77,12.73 -52.43,19.1 -79.86,19.1 -20.31,0 -40.89,-2.61 -61.79,-7.85l0 142.03c16.31,-13.68 31.1,-23.49 44.14,-29.32 13.06,-5.88 30.03,-8.86 51.01,-8.86 27.42,0 52.1,8.01 74,24.06 21.83,16 38.73,36.91 50.44,62.67 11.78,25.81 17.73,51.77 17.73,77.86 0,30.7 -7.37,58.78 -22.09,84.26 -14.72,25.48 -34.77,45.87 -60.37,61.23 -25.41,15.38 -53.17,23.06 -83.27,23.06 -24.84,0 -47.6,-6.38 -68.17,-19.1 -20.55,-12.75 -36.86,-29.89 -48.99,-51.41 -12.04,-21.59 -18.13,-44.47 -18.13,-68.6 0,-11.78 3.75,-21.07 11.28,-27.92 7.51,-6.9 16.81,-10.33 27.92,-10.33 11.12,0 20.24,3.6 27.42,10.78 7.21,7.18 10.78,16.33 10.78,27.47 0,10.45 -3.58,19.44 -10.78,26.93 -7.18,7.49 -16.31,11.26 -27.42,11.26 -1.92,0 -4.1,-0.17 -6.35,-0.52 -2.25,-0.31 -3.77,-0.43 -4.43,-0.43z"/>
   <line class="fil1 str1" x1="3074.46" y1="14233.55" x2="3074.46" y2= "10659.5" />
   <line class="fil1 str1" x1="3074.46" y1="14233.55" x2="3458.47" y2= "14233.55" />
   <line class="fil1 str1" x1="3074.46" y1="12446.53" x2="3458.47" y2= "12446.53" />
   <line class="fil1 str1" x1="3074.46" y1="10659.5" x2="3458.47" y2= "10659.5" />
   <path class="fil2" d="M2156.86 14414.2l0 -26.45c62.74,0 94.1,-7.85 94.1,-23.54l0 -395.77c-25.46,13.01 -58.14,19.56 -97.99,19.56l0 -26.45c61.44,0 107.85,-16.33 139.21,-48.97l10.76 0c1.33,0 2.8,0.83 4.43,2.42 1.64,1.64 2.44,3.11 2.44,4.41l0 444.81c0,15.69 31.36,23.54 94.1,23.54l0 26.45 -247.06 0z"/>
   <path class="fil2" d="M2501.01 14414.2l0 -20.57c0,-1.3 0.66,-2.63 1.92,-3.96l116.64 -129.3c17.68,-18.94 32.05,-34.94 43.19,-48.05 11.07,-13.01 22.02,-28.04 32.83,-45.06 10.78,-16.97 19.32,-34.11 25.5,-51.41 6.21,-17.33 9.32,-35.77 9.32,-55.37 0,-20.91 -3.79,-40.67 -11.31,-59.26 -7.47,-18.61 -18.75,-33.63 -33.8,-45.08 -15.03,-11.42 -33.33,-17.11 -54.92,-17.11 -21.55,0 -41.15,6.66 -58.78,20.05 -17.66,13.37 -30.08,30.22 -37.26,50.46 1.97,0 4.88,0 8.84,0 11.07,0 20.55,3.77 28.42,11.31 7.82,7.49 11.73,17.09 11.73,28.85 0,11.8 -3.91,21.59 -11.73,29.42 -7.87,7.85 -17.35,11.78 -28.42,11.78 -11.78,0 -21.78,-4.1 -29.94,-12.28 -8.15,-8.18 -12.23,-17.8 -12.23,-28.92 0,-18.94 3.6,-36.55 10.78,-52.83 7.16,-16.38 17.45,-31.07 30.86,-44.11 13.39,-13.08 28.47,-23.06 45.11,-29.91 16.66,-6.83 34.46,-10.26 53.4,-10.26 28.78,0 55.56,6.21 80.4,18.63 24.84,12.4 44.44,29.51 58.85,51.41 14.36,21.88 21.55,47.83 21.55,77.86 0,21.55 -4.72,42.17 -14.22,61.77 -9.48,19.56 -21.76,37.33 -36.76,53.33 -15.03,16.05 -34.13,34.32 -57.36,54.87 -23.21,20.57 -38.4,34.13 -45.58,40.7l-85.28 82.27 71.58 0c35.93,0 65.82,-0.31 89.67,-0.92 23.87,-0.69 36.46,-1.68 37.76,-2.96 5.9,-6.57 12.11,-29.77 18.65,-69.59l21.55 0 -21.55 134.25 -279.41 0z"/>
   <path class="fil2" d="M2156.86 12627.17l0 -26.5c62.74,0 94.1,-7.77 94.1,-23.49l0 -395.77c-25.46,13.04 -58.14,19.56 -97.99,19.56l0 -26.5c61.44,0 107.85,-16.31 139.21,-48.92l10.76 0c1.33,0 2.8,0.83 4.43,2.42 1.64,1.59 2.44,3.11 2.44,4.36l0 444.86c0,15.72 31.36,23.49 94.1,23.49l0 26.5 -247.06 0z"/>
   <path class="fil2" d="M2535.33 12569.31c11.73,16.97 27.57,29.61 47.5,37.71 19.96,8.2 41.36,12.3 64.26,12.3 28.73,0 49.33,-12.47 61.72,-37.31 12.42,-24.82 18.63,-52.93 18.63,-84.29 0,-14.29 -1.28,-28.51 -3.89,-42.55 -2.61,-14.06 -7.04,-27.26 -13.23,-39.66 -6.26,-12.44 -14.58,-22.23 -25.03,-29.42 -10.48,-7.21 -23.56,-10.78 -39.23,-10.78l-50.01 0c-4.57,0 -6.83,-2.28 -6.83,-6.87l0 -6.76c0,-3.93 2.25,-5.95 6.83,-5.95l41.22 -3.93c17.61,0 32.31,-6.52 44.11,-19.56 11.76,-13.13 20.41,-29.11 25.98,-48 5.57,-18.99 8.34,-36.95 8.34,-53.95 0,-24.15 -5.71,-43.9 -17.18,-59.19 -11.42,-15.38 -28.59,-23.09 -51.44,-23.09 -18.96,0 -37.29,3.6 -54.92,10.78 -17.64,7.21 -31.36,17.99 -41.15,32.35 0.62,0 1.28,-0.17 1.92,-0.5 0.66,-0.33 1.64,-0.5 2.99,-0.5 11.07,0 20.38,3.93 27.87,11.8 7.56,7.77 11.31,17.3 11.31,28.33 0,11.14 -3.75,20.57 -11.31,28.44 -7.49,7.87 -16.81,11.71 -27.87,11.71 -11.14,0 -20.62,-3.84 -28.42,-11.71 -7.89,-7.87 -11.83,-17.3 -11.83,-28.44 0,-21.48 6.57,-40.13 19.65,-55.84 13.04,-15.64 29.7,-27.76 49.97,-36.22 20.27,-8.51 40.86,-12.7 61.79,-12.7 14.98,0 31,2.25 47.98,6.78 17.02,4.67 32.4,11.21 46.13,19.65 13.72,8.44 24.82,19.39 33.33,32.78 8.49,13.46 12.73,28.68 12.73,45.56 0,20.91 -4.57,40.39 -13.75,58.38 -9.13,17.9 -22.02,33.28 -38.71,45.98 -16.66,12.8 -34.8,22.42 -54.4,28.94 22.21,3.93 43.12,12.04 62.77,24.41 19.6,12.44 35.27,28.09 47.03,47.07 11.76,18.99 17.64,39.56 17.64,61.7 0,28.11 -7.51,53.28 -22.54,75.45 -14.98,22.23 -34.91,39.7 -59.78,52.41 -24.84,12.8 -50.99,19.15 -78.41,19.15 -23.56,0 -47.26,-4.6 -71.11,-13.7 -23.85,-9.2 -43.28,-22.59 -58.33,-40.22 -15.03,-17.64 -22.54,-39.13 -22.54,-64.64 0,-12.47 4.24,-22.75 12.73,-30.86 8.51,-8.2 18.94,-12.28 31.38,-12.28 7.85,0 15.22,1.83 22.09,5.43 6.85,3.6 12.23,8.77 16.14,15.64 3.91,6.85 5.88,14.2 5.88,22.07 0,12.37 -4.41,22.83 -13.23,31.36 -8.82,8.44 -19.13,12.7 -30.89,12.7l-3.89 0z"/>
   <path class="fil2" d="M2156.86 10840.15l0 -26.5c62.74,0 94.1,-7.87 94.1,-23.49l0 -395.77c-25.46,13.04 -58.14,19.56 -97.99,19.56l0 -26.5c61.44,0 107.85,-16.31 139.21,-48.92l10.76 0c1.33,0 2.8,0.83 4.43,2.42 1.64,1.59 2.44,3.11 2.44,4.36l0 444.86c0,15.62 31.36,23.49 94.1,23.49l0 26.5 -247.06 0z"/>
   <path class="fil2" d="M2484.32 10715.73l0 -26.5 233.36 -346.87c1.26,-2.58 3.89,-3.84 7.82,-3.84l10.78 0c5.88,0 8.79,2.92 8.79,8.77l0 341.94 73.53 0 0 26.5 -73.53 0 0 74.43c0,9.77 7.37,16.12 22.07,19.06 14.72,3.01 31.53,4.43 50.54,4.43l0 26.5 -206.88 0 0 -26.5c18.96,0 35.77,-1.42 50.46,-4.43 14.72,-2.94 22.07,-9.29 22.07,-19.06l0 -74.43 -199.01 0zm25.48 -26.5l178.44 0 0 -266.42 -178.44 266.42z"/>
   <polyline class="fil1 str2" points="3074.46,12035.52 3714.44,12839.67 4354.43,13036.29 4994.41,11946.16 5634.4,13018.39 6274.43,12714.54 6914.41,12160.58 7554.4,12929.03 8194.38,12946.93 8834.39,12142.68 9474.37,12124.88 10114.36,12803.9 10754.34,13089.86 11394.3,12553.69 12034.28,12106.98 12674.27,12124.88 13314.25,11981.85 13954.24,12196.34 14594.22,12392.87 15234.3,12196.34 15874.28,11981.85 16514.24,12214.24 17154.23,12410.76 17794.21,12964.8 18434.2,12839.67 19074.18,12875.37 19714.17,12660.95 20354.15,12196.34 20994.13,12232.11 21634.12,12857.57 22274.08,12982.6 22914.06,12678.84 23554.05,12375.06 24194.1,12106.98 24834.09,12106.98 25474.07,12786.08 26114.05,13089.86 26754.04,13107.66 27394.02,12964.8 28034.01,12446.53 28673.99,12178.45 29313.97,12643.05 29953.96,13054.09 30593.94,12249.94 31233.9,12893.24 31873.89,13179.22 32513.87,12214.24 33153.95,12553.69 33793.93,13125.65 34433.92,12517.99 35073.9,12625.25 35713.89,12607.36 36353.85,12786.08 36993.83,12768.2 37633.82,12482.23 38273.8,13054.09 38913.78,12303.6 39553.77,12446.53 "/>
   <path class="fil2" d="M896.81 13809.72c0,40.46 -9.32,76.51 -27.95,108.2 -18.61,31.71 -44.59,56.18 -77.94,73.5 -33.3,17.3 -70.26,25.95 -110.79,25.95 -59.47,0 -118.47,-16.81 -176.94,-50.46 -58.52,-33.61 -106.38,-77.86 -143.62,-132.74 -37.26,-54.85 -55.89,-112.33 -55.89,-172.44 0,-31.36 5.55,-59.95 16.69,-85.71 11.07,-25.81 26.59,-47.52 46.55,-65.16 19.89,-17.64 43.12,-31.36 69.57,-41.12 26.5,-9.84 55.39,-14.72 86.8,-14.72 35.93,0 72.18,6.35 108.8,19.1 36.57,12.75 70.59,30.2 101.95,52.41 31.36,22.23 59.14,48.16 83.39,77.89 24.18,29.72 43.12,61.56 56.84,95.57 24.84,-3.96 44.44,-9.34 58.78,-16.21 14.41,-6.83 21.59,-20.41 21.59,-40.65 0,-21.52 -7.68,-41.62 -23.04,-60.28 -15.34,-18.61 -33.47,-30.51 -54.4,-35.72 -4.57,-0.69 -6.9,-3.63 -6.9,-8.86 0,-5.83 3.6,-8.79 10.81,-8.79 17,3.96 34.46,9.81 52.43,17.66 17.99,7.82 34.84,17.3 50.54,28.37 15.67,11.14 28.42,24.2 38.21,39.2 9.84,15.05 14.74,31.71 14.74,49.97 0,45.75 -29.11,68.6 -87.3,68.6 -3.91,0 -13.39,-0.64 -28.4,-1.92 -15.08,-1.35 -27.16,-2.04 -36.27,-2.04 7.8,26.14 11.73,52.93 11.73,80.4zm-55.87 30.34c21.57,0 32.31,-12.09 32.31,-36.22 0,-24.18 -5.85,-49.66 -17.61,-76.44l-7.82 0c-21.59,0 -38.61,3.44 -51.03,10.26 -12.37,6.85 -18.58,20.43 -18.58,40.7 0,9.79 2.94,19.44 8.79,28.89 5.9,9.46 13.75,17.28 23.54,23.51 9.84,6.21 19.96,9.29 30.41,9.29zm1.97 20.57c-14.41,0 -28.3,-3.91 -41.69,-11.73 -13.42,-7.87 -24.2,-18.16 -32.35,-30.89 -8.18,-12.75 -12.23,-26.26 -12.23,-40.63 0,-24.18 8.01,-41.5 24.01,-51.96 15.98,-10.43 36.76,-17.64 62.27,-21.55 -20.29,-34.63 -49.73,-65.33 -88.22,-92.11 -38.59,-26.76 -80.92,-47 -127,-60.7 -46.06,-13.75 -89.69,-20.65 -130.89,-20.65 -30.08,0 -57.84,4.91 -83.32,14.74 -25.48,9.79 -46.06,24.96 -61.75,45.53 -15.67,20.6 -23.51,45.94 -23.51,75.94 0,29.37 7.16,57.62 21.52,84.76 14.39,27.07 33.35,52.08 56.91,74.93 23.49,22.19 52.27,42.26 86.26,60.28 33.97,17.94 69.57,31.67 106.85,41.12 37.24,9.46 72.84,14.22 106.88,14.22 34.61,0 66.13,-6.85 94.58,-20.57 28.42,-13.7 48.83,-34.94 61.25,-63.69 -5.21,1.97 -11.76,2.94 -19.56,2.94z"/>
   <path class="fil2" d="M1016.13 13262.13c0,46.39 -19.13,77.75 -57.34,94.03 -38.26,16.38 -83.48,24.56 -135.77,24.56 -32.66,0 -63.41,-2.96 -92.18,-8.86 -28.75,-5.85 -53.24,-17.56 -73.53,-35.25 -20.27,-17.64 -30.39,-42.45 -30.39,-74.48 0,-24.79 6.04,-45.01 18.13,-60.66 12.09,-15.72 27.76,-27.76 47.07,-36.29 19.27,-8.53 39.84,-14.22 61.72,-17.14 21.93,-2.94 44.99,-4.43 69.17,-4.43 32.66,0 63.03,2.92 91.16,8.77 28.09,5.95 52.12,17.66 72.01,35.29 19.96,17.64 29.94,42.48 29.94,74.45zm-14.67 0c0,-20.91 -10.81,-36.57 -32.38,-47.03 -21.59,-10.45 -45.46,-16.81 -71.61,-19.06 -26.12,-2.35 -53.92,-3.44 -83.32,-3.44 -28.11,0 -54.09,1.09 -77.94,3.44 -23.85,2.25 -45.56,8.6 -65.18,19.06 -19.6,10.45 -29.42,26.12 -29.42,47.03 0,21.57 9.81,37.4 29.42,47.52 19.63,10.14 41.34,16.33 65.18,18.63 23.85,2.32 49.82,3.46 77.94,3.46 20.91,0 40.7,-0.52 59.35,-1.49 18.63,-1 37.74,-3.6 57.36,-7.85 19.56,-4.24 36.22,-11.28 50.01,-21.07 13.7,-9.81 20.57,-22.87 20.57,-39.2z"/>
   <path class="fil2" d="M1081.12 12543.48c-23.56,30.1 -50.82,56.03 -81.87,77.94 -31.05,21.9 -64.05,39.8 -99.03,53.85 -34.94,14.03 -71.56,24.49 -109.77,31.36 -38.26,6.85 -76.63,10.36 -115.22,10.36 -39.23,0 -77.96,-3.51 -116.17,-10.36 -38.26,-6.87 -75,-17.33 -110.24,-31.36 -35.32,-14.06 -68.34,-32.12 -99.08,-54.35 -30.7,-22.26 -57.53,-48 -80.38,-77.44 -1.3,0 -1.97,-1.26 -1.97,-3.84l0 -7.87c0,-1.33 0.66,-2.68 1.97,-3.93 1.3,-1.33 2.89,-1.99 4.91,-1.99 2.61,0 4.6,0.4 5.88,1 25.46,26.76 53.07,48.99 82.82,66.65 29.72,17.64 61.44,31.86 95.12,42.64 33.68,10.78 68.45,18.56 104.39,23.49 35.93,4.93 73.53,7.37 112.76,7.37 172.58,0 303.92,-46.41 394.09,-139.16 1.3,-1.33 3.6,-1.99 6.92,-1.99 1.28,0 2.75,0.66 4.39,1.99 1.64,1.26 2.44,2.61 2.44,3.93l0 7.87c0,2.58 -0.64,3.84 -1.94,3.84z"/>
   <path class="fil2" d="M879.15 12275.46l-299.99 118.59c-9.81,5.26 -16.02,13.04 -18.61,23.49 -2.65,10.45 -3.96,24.18 -3.96,41.22l-29.37 0 0 -171.49 29.37 0c0,30.7 6.21,46.08 18.63,46.08 2.63,0 4.27,-0.33 4.88,-1.02l230.42 -91.14 -207.81 -82.27c-3.96,-1.92 -8.2,-2.94 -12.73,-2.94 -10.5,0 -18.65,3.93 -24.53,11.71 -5.93,7.87 -8.86,17.4 -8.86,28.51l-29.37 0 0 -136.22 29.37 0c0,17 3.77,31.86 11.28,44.59 7.54,12.7 18.8,22.33 33.82,28.92l277.44 109.72c5.93,2.58 8.86,7.18 8.86,13.7l0 5.85c0,6.52 -2.94,10.78 -8.86,12.7z"/>
   <path class="fil2" d="M798.77 12051.21c-32.05,0 -58.17,-12.7 -78.43,-38.14 -20.27,-25.58 -34.65,-56.27 -43.14,-92.13 -8.49,-35.96 -12.73,-69.92 -12.73,-101.95l-33.33 0c-15.67,0 -30.91,3.44 -45.63,10.29 -14.67,6.87 -26.76,16.81 -36.27,29.94 -9.43,13.06 -14.17,27.42 -14.17,43.07 0,35.96 8.18,63.38 24.46,82.37 0,-10.45 3.93,-18.99 11.8,-25.5 7.82,-6.61 16.95,-9.86 27.42,-9.86 10.45,0 19.6,3.84 27.47,11.35 7.82,7.44 11.73,16.4 11.73,26.86 0,11.12 -3.91,20.65 -11.73,28.51 -7.87,7.77 -17.02,11.71 -27.47,11.71 -28.73,0 -50.13,-13.06 -64.21,-39.23 -14.03,-26.1 -21.07,-54.85 -21.07,-86.21 0,-22.16 4.74,-44.4 14.17,-66.56 9.5,-22.26 23.06,-40.39 40.75,-54.45 17.64,-14.03 37.92,-21.07 60.77,-21.07l184.29 0c10.45,0 20.1,-2.25 28.92,-6.85 8.84,-4.5 13.25,-11.71 13.25,-21.57 0,-9.13 -4.6,-15.81 -13.75,-20.08 -9.15,-4.27 -18.61,-6.35 -28.42,-6.35l-52.95 0 0 -23.49 52.95 0c11.76,0 23.21,3.08 34.35,9.27 11.09,6.28 19.91,14.72 26.45,25.5 6.52,10.78 9.79,22.42 9.79,34.8 0,16.31 -6.21,30.17 -18.65,41.65 -12.4,11.35 -27.12,17.8 -44.09,19.15 20.24,9.77 36.41,24.41 48.57,44.06 12.09,19.56 18.13,40.72 18.13,63.62 0,20.24 -2.94,40.56 -8.86,60.73 -5.9,20.31 -15.55,37.12 -28.89,50.49 -13.39,13.39 -30.55,20.08 -51.48,20.08zm0 -66.56c19.6,0 35.77,-7.02 48.5,-21.07 12.78,-14.06 19.15,-30.53 19.15,-49.52 0,-17.64 -4.24,-33.61 -12.73,-48 -8.51,-14.36 -20.43,-25.84 -35.84,-34.27 -15.36,-8.53 -31.17,-12.8 -47.5,-12.8l-85.31 0c0,24.84 4.08,50.18 12.28,75.94 8.15,25.84 20.91,47.15 38.21,64.21 17.33,16.97 38.42,25.5 63.24,25.5z"/>
   <path class="fil2" d="M879.15 11648.16l-28.42 0c0,-18.32 -1.45,-33.54 -4.41,-45.58 -2.96,-12.11 -10.31,-18.13 -22.07,-18.13l-222.55 0c-14.39,0 -24.84,2.25 -31.38,6.95 -6.49,4.5 -10.43,10.86 -11.73,19.06 -1.33,8.2 -1.99,20.74 -1.99,37.71l-29.37 0 -8.84 -116.57 80.38 0c-24.2,-8.51 -43.59,-20.91 -58.29,-37.29 -14.74,-16.31 -22.09,-35.86 -22.09,-58.78 0,-16.31 4.91,-30.77 14.67,-43.57 9.84,-12.8 22.59,-19.15 38.28,-19.15 9.79,0 18.28,3.6 25.48,10.78 7.18,7.21 10.76,16.07 10.76,26.5 0,9.79 -3.58,18.25 -10.76,25.43 -7.21,7.18 -15.69,10.78 -25.48,10.78 -15.08,0 -25.5,-5.19 -31.36,-15.64l0 4.86c0,22.23 7.99,40.22 24.01,53.92 16,13.72 35.77,23.51 59.31,29.37 23.49,5.93 46.06,8.86 67.62,8.86l133.33 0c17.68,0 26.48,-26.19 26.48,-78.46l28.42 0 0 198.94z"/>
   <path class="fil2" d="M1083.07 11292.61c0,4.6 -2.28,6.85 -6.83,6.85 -2.63,0 -4.6,-0.33 -5.9,-0.92 -90.83,-93.49 -222.52,-140.13 -395.11,-140.13 -172.51,0 -303.9,46.08 -394.09,138.14 -1.33,1.92 -3.63,2.92 -6.87,2.92 -2.01,0 -3.6,-0.66 -4.91,-1.92 -1.3,-1.33 -1.97,-2.92 -1.97,-4.93l0 -7.77c0,-1.35 0.66,-2.68 1.97,-4.01 30.74,-39.13 68.17,-71.58 112.23,-97.42 44.11,-25.84 91.02,-44.75 140.68,-56.86 49.68,-12.14 100.67,-18.16 152.96,-18.16 38.59,0 76.47,3.34 113.7,9.88 37.29,6.52 74.02,16.81 110.31,30.84 36.27,14.06 69.76,32.02 100.5,53.85 30.7,21.9 57.81,47.83 81.37,77.86 1.3,1.33 1.94,2.65 1.94,4.01l0 7.77z"/>
   <polygon class="fil0" points="3074.46,19187.06 41473.6,19187.06 41473.6,15675.7 3074.46,15675.7 "/>
   <line class="fil1 str0" x1="3074.46" y1="19187.06" x2="3074.46" y2= "15675.7" />
   <line class="fil1 str0" x1="15874.28" y1="19187.06" x2="15874.28" y2= "15675.7" />
   <line class="fil1 str0" x1="28673.99" y1="19187.06" x2="28673.99" y2= "15675.7" />
   <line class="fil1 str0" x1="41473.72" y1="19187.06" x2="41473.72" y2= "15675.7" />
   <line class="fil1 str0" x1="41473.72" y1="19187.06" x2="3074.46" y2= "19187.06" />
   <line class="fil1 str0" x1="41473.72" y1="17431.37" x2="3074.46" y2= "17431.37" />
   <line class="fil1 str0" x1="41473.72" y1="15675.7" x2="3074.46" y2= "15675.7" />
   <line class="fil1 str1" x1="3074.46" y1="19187.06" x2="41473.72" y2= "19187.06" />
   <line class="fil1 str1" x1="3074.46" y1="19187.06" x2="3074.46" y2= "18803.33" />
   <line class="fil1 str1" x1="15874.28" y1="19187.06" x2="15874.28" y2= "18803.33" />
   <line class="fil1 str1" x1="28673.99" y1="19187.06" x2="28673.99" y2= "18803.33" />
   <line class="fil1 str1" x1="41473.72" y1="19187.06" x2="41473.72" y2= "18803.33" />
   <path class="fil2" d="M3074.46 20069.95c-61.49,0 -103.3,-25.29 -125.48,-75.94 -22.21,-50.63 -33.33,-110.88 -33.33,-180.76 0,-43.76 3.91,-84.76 11.73,-122.97 7.87,-38.19 23.7,-70.87 47.55,-97.99 23.85,-27.07 57.01,-40.63 99.53,-40.63 33.3,0 60.47,8.15 81.37,24.49 20.88,16.33 36.93,37.21 48.05,62.72 11.09,25.43 18.61,52.88 22.54,82.27 3.91,29.37 5.9,60.09 5.9,92.11 0,43.09 -3.96,83.43 -11.83,121.03 -7.8,37.52 -23.32,69.52 -46.55,96 -23.21,26.45 -56.37,39.68 -99.48,39.68zm0 -19.63c28.09,0 48.99,-14.36 62.72,-43.07 13.75,-28.75 22.21,-60.47 25.48,-95.05 3.25,-34.63 4.88,-71.54 4.88,-110.74 0,-37.9 -1.64,-72.84 -4.88,-104.86 -3.27,-31.98 -11.73,-60.85 -25.48,-86.66 -13.72,-25.84 -34.63,-38.73 -62.72,-38.73 -28.11,0 -49.02,13.06 -62.74,39.2 -13.72,26.1 -22.21,54.99 -25.48,86.68 -3.27,31.71 -4.91,66.46 -4.91,104.36 0,27.47 0.66,53.57 1.97,78.36 1.28,24.82 4.86,50.49 10.78,76.96 5.83,26.45 15.31,48.62 28.4,66.56 13.08,17.99 30.39,26.97 51.98,26.97z"/>
   <path class="fil2" d="M15751.55 19968.05c5.26,14.34 13.13,27.57 23.58,39.63 10.45,12.06 22.99,21.4 37.71,27.97 14.72,6.52 29.94,9.77 45.58,9.77 35.96,0 60.77,-14.03 74.57,-42.12 13.72,-28.09 20.57,-62.08 20.57,-101.88 0,-17.66 -0.17,-32.35 -0.5,-44.11 -0.33,-11.71 -2.18,-23.16 -5.43,-34.27 -4.53,-17.66 -12.54,-33.16 -24.01,-46.53 -11.45,-13.39 -25.67,-20.08 -42.64,-20.08 -17.07,0 -31.53,2.61 -43.64,7.82 -12.04,5.24 -21.93,11.28 -29.44,18.13 -7.44,6.87 -14.13,14.06 -20.08,21.52 -5.85,7.51 -9.79,11.59 -11.78,12.28l-7.87 0c-1.26,0 -2.92,-0.81 -4.86,-2.44 -1.99,-1.64 -3.01,-3.11 -3.01,-4.43l0 -251.77c0,-0.66 0.92,-1.8 2.51,-3.44 1.68,-1.64 3.44,-2.44 5.36,-2.44l2.01 0c34.04,16.33 69.9,24.49 107.87,24.49 37.19,0 73.15,-8.15 107.78,-24.49l2.01 0c1.92,0 3.58,0.64 4.93,1.92 1.26,1.3 1.92,2.61 1.92,3.96l0 7.82c0,1.97 -0.33,2.99 -1,2.99 -17.66,22.8 -39.39,40.6 -65.23,53.33 -25.77,12.75 -52.43,19.15 -79.86,19.15 -20.24,0 -40.89,-2.63 -61.79,-7.85l0 142.03c16.38,-13.72 31.1,-23.51 44.06,-29.37 13.13,-5.88 30.17,-8.82 51.08,-8.82 27.45,0 52.1,7.99 74,24.01 21.93,16 38.73,36.91 50.44,62.67 11.78,25.81 17.73,51.77 17.73,77.91 0,30.67 -7.37,58.76 -22.09,84.26 -14.72,25.46 -34.77,45.87 -60.28,61.18 -25.5,15.38 -53.26,23.09 -83.36,23.09 -24.84,0 -47.5,-6.4 -68.08,-19.13 -20.65,-12.75 -36.95,-29.89 -49.09,-51.41 -12.04,-21.57 -18.13,-44.42 -18.13,-68.6 0,-11.76 3.75,-21.02 11.28,-27.9 7.51,-6.9 16.81,-10.36 28.02,-10.36 11.02,0 20.15,3.6 27.33,10.78 7.28,7.18 10.88,16.36 10.88,27.47 0,10.45 -3.6,19.44 -10.88,26.95 -7.18,7.47 -16.31,11.24 -27.33,11.24 -2.01,0 -4.2,-0.17 -6.45,-0.5 -2.35,-0.28 -3.77,-0.45 -4.43,-0.45z"/>
   <path class="fil2" d="M28366.92 20053.26l0 -26.45c62.72,0 94.08,-7.85 94.08,-23.51l0 -395.79c-25.41,13.06 -58.12,19.58 -97.99,19.58l0 -26.48c61.44,0 107.85,-16.33 139.21,-48.95l10.78 0c1.35,0 2.84,0.81 4.43,2.44 1.59,1.64 2.44,3.08 2.44,4.39l0 444.81c0,15.67 31.36,23.51 94.15,23.51l0 26.45 -247.1 0z"/>
   <path class="fil2" d="M28862.03 20069.95c-61.46,0 -103.27,-25.29 -125.51,-75.94 -22.23,-50.63 -33.28,-110.88 -33.28,-180.76 0,-43.76 3.84,-84.76 11.71,-122.97 7.87,-38.19 23.75,-70.87 47.57,-97.99 23.85,-27.07 57.03,-40.63 99.51,-40.63 33.37,0 60.47,8.15 81.37,24.49 20.91,16.33 36.95,37.21 48.07,62.72 11.05,25.43 18.56,52.88 22.49,82.27 3.93,29.37 5.95,60.09 5.95,92.11 0,43.09 -3.93,83.43 -11.8,121.03 -7.85,37.52 -23.39,69.52 -46.58,96 -23.23,26.45 -56.44,39.68 -99.51,39.68zm0 -19.63c28.11,0 49.02,-14.36 62.72,-43.07 13.72,-28.75 22.26,-60.47 25.5,-95.05 3.27,-34.63 4.86,-71.54 4.86,-110.74 0,-37.9 -1.59,-72.84 -4.86,-104.86 -3.25,-31.98 -11.78,-60.85 -25.5,-86.66 -13.7,-25.84 -34.61,-38.73 -62.72,-38.73 -28.09,0 -49.09,13.06 -62.79,39.2 -13.72,26.1 -22.16,54.99 -25.43,86.68 -3.25,31.71 -4.93,66.46 -4.93,104.36 0,27.47 0.69,53.57 2.01,78.36 1.26,24.82 4.86,50.49 10.71,76.96 5.93,26.45 15.38,48.62 28.51,66.56 13.04,17.99 30.34,26.97 51.91,26.97z"/>
   <path class="fil2" d="M41166.62 20053.26l0 -26.45c62.72,0 94.08,-7.85 94.08,-23.51l0 -395.79c-25.5,13.06 -58.12,19.58 -98.01,19.58l0 -26.48c61.46,0 107.87,-16.33 139.23,-48.95l10.69 0c1.35,0 2.84,0.81 4.53,2.44 1.59,1.64 2.42,3.08 2.42,4.39l0 444.81c0,15.67 31.36,23.51 94.08,23.51l0 26.45 -247.01 0z"/>
   <path class="fil2" d="M41539.14 19968.05c5.26,14.34 13.04,27.57 23.49,39.63 10.45,12.06 23.09,21.4 37.81,27.97 14.62,6.52 29.84,9.77 45.58,9.77 35.93,0 60.77,-14.03 74.5,-42.12 13.7,-28.09 20.57,-62.08 20.57,-101.88 0,-17.66 -0.09,-32.35 -0.43,-44.11 -0.33,-11.71 -2.18,-23.16 -5.43,-34.27 -4.6,-17.66 -12.54,-33.16 -24.01,-46.53 -11.45,-13.39 -25.67,-20.08 -42.64,-20.08 -17.07,0 -31.53,2.61 -43.64,7.82 -12.14,5.24 -21.93,11.28 -29.44,18.13 -7.44,6.87 -14.13,14.06 -20.08,21.52 -5.85,7.51 -9.79,11.59 -11.71,12.28l-7.85 0c-1.35,0 -3.01,-0.81 -5.03,-2.44 -1.92,-1.64 -2.84,-3.11 -2.84,-4.43l0 -251.77c0,-0.66 0.83,-1.8 2.42,-3.44 1.68,-1.64 3.44,-2.44 5.45,-2.44l1.92 0c33.94,16.33 69.9,24.49 107.87,24.49 37.19,0 73.15,-8.15 107.78,-24.49l2.01 0c1.92,0 3.58,0.64 4.93,1.92 1.26,1.3 1.92,2.61 1.92,3.96l0 7.82c0,1.97 -0.33,2.99 -1.02,2.99 -17.64,22.8 -39.37,40.6 -65.21,53.33 -25.77,12.75 -52.43,19.15 -79.86,19.15 -20.31,0 -40.89,-2.63 -61.79,-7.85l0 142.03c16.31,-13.72 31.1,-23.51 44.14,-29.37 13.06,-5.88 30.03,-8.82 51.01,-8.82 27.42,0 52.1,7.99 74,24.01 21.83,16 38.73,36.91 50.44,62.67 11.78,25.81 17.73,51.77 17.73,77.91 0,30.67 -7.37,58.76 -22.09,84.26 -14.72,25.46 -34.77,45.87 -60.37,61.18 -25.41,15.38 -53.17,23.09 -83.27,23.09 -24.84,0 -47.6,-6.4 -68.17,-19.13 -20.55,-12.75 -36.86,-29.89 -48.99,-51.41 -12.04,-21.57 -18.13,-44.42 -18.13,-68.6 0,-11.76 3.75,-21.02 11.28,-27.9 7.51,-6.9 16.81,-10.36 27.92,-10.36 11.12,0 20.24,3.6 27.42,10.78 7.21,7.18 10.78,16.36 10.78,27.47 0,10.45 -3.58,19.44 -10.78,26.95 -7.18,7.47 -16.31,11.24 -27.42,11.24 -1.92,0 -4.1,-0.17 -6.35,-0.5 -2.25,-0.28 -3.77,-0.45 -4.43,-0.45z"/>
   <path class="fil2" d="M20318.59 21061.21l0 -28.42c26.83,0 53.17,-1.64 79,-4.91 25.77,-3.22 38.64,-10.45 38.64,-21.55l0 -447.78c0,-11.76 -3.25,-18.89 -9.77,-21.52 -6.45,-2.61 -16.9,-3.93 -31.36,-3.93l-34.3 0c-45.06,0 -76.75,9.81 -95.07,29.42 -9.86,9.77 -16.88,25.46 -21.07,47.05 -4.27,21.52 -8.04,48.64 -11.28,81.3l-23.49 0 15.62 -186.16 498.05 0 15.72 186.16 -23.49 0c-3.34,-34.61 -6.95,-62.24 -10.88,-82.84 -3.84,-20.55 -10.78,-35.74 -20.57,-45.51 -19.56,-19.6 -51.58,-29.42 -96.07,-29.42l-34.3 0c-9.86,0 -17.47,0.36 -23.06,1 -5.52,0.62 -9.96,2.92 -13.23,6.83 -3.25,3.96 -4.93,9.84 -4.93,17.64l0 447.78c0,11.09 12.97,18.32 38.73,21.55 25.84,3.27 52.17,4.91 78.93,4.91l0 28.42 -311.81 0z"/>
   <path class="fil2" d="M20804.08 21061.21l0 -28.42c18.32,0 33.45,-1.47 45.58,-4.39 12.04,-2.96 18.13,-10.31 18.13,-22.07l0 -222.41c0,-20.91 -4.1,-33.66 -12.21,-38.19 -8.2,-4.62 -24.32,-6.9 -48.59,-6.9l0 -29.37 117.66 -8.82 0 305.68c0,11.76 5.26,19.1 15.72,22.07 10.45,2.92 24.18,4.39 41.15,4.39l0 28.42 -177.44 0zm34.27 -500.63c0,-11.8 4.6,-22.26 13.72,-31.36 9.2,-9.15 19.32,-13.72 30.43,-13.72 7.87,0 15.31,2.11 22.49,6.33 7.18,4.24 12.8,10 16.73,17.18 3.91,7.18 5.93,14.36 5.93,21.57 0,11.76 -4.43,22.21 -13.3,31.34 -8.77,9.13 -19.39,13.7 -31.86,13.7 -11.12,0 -21.24,-4.57 -30.43,-13.7 -9.13,-9.13 -13.72,-19.58 -13.72,-31.34z"/>
   <path class="fil2" d="M21033.2 21061.21l0 -28.42c18.23,0 33.45,-1.47 45.49,-4.39 12.21,-2.96 18.23,-10.31 18.23,-22.07l0 -222.41c0,-14.39 -2.25,-24.84 -6.95,-31.36 -4.5,-6.52 -10.86,-10.43 -19.06,-11.73 -8.2,-1.35 -20.74,-1.99 -37.71,-1.99l0 -29.37 117.57 -8.82 0 80.33c11.21,-23.49 27.52,-42.76 49.09,-57.84 21.57,-15.03 44.73,-22.49 69.66,-22.49 62.69,0 99.58,25.48 110.69,76.44 10.45,-22.87 26.1,-41.34 47.1,-55.37 20.88,-14.06 44.06,-21.07 69.57,-21.07 24.25,0 44.82,4.08 61.79,12.21 16.97,8.2 29.68,20.46 38.21,36.76 8.44,16.33 12.7,36.57 12.7,60.75l0 195.95c0,11.76 6.02,19.1 18.16,22.07 12.11,2.92 27.33,4.39 45.65,4.39l0 28.42 -186.31 0 0 -28.42c18.3,0 33.54,-1.47 45.58,-4.39 12.11,-2.96 18.13,-10.31 18.13,-22.07l0 -193.01c0,-27.4 -3.93,-49.47 -11.78,-66.16 -7.87,-16.62 -23.85,-24.96 -48,-24.96 -31.36,0 -57.2,12.59 -77.53,37.71 -20.22,25.15 -30.34,53.73 -30.34,85.71l0 160.71c0,11.76 5.85,19.1 17.64,22.07 11.8,2.92 27.19,4.39 46.08,4.39l0 28.42 -187.23 0 0 -28.42c18.92,0 34.3,-1.47 46.08,-4.39 11.8,-2.96 17.64,-10.31 17.64,-22.07l0 -193.01c0,-26.78 -3.75,-48.69 -11.28,-65.63 -7.51,-16.97 -23.32,-25.48 -47.57,-25.48 -31.36,0 -57.2,12.59 -77.44,37.71 -20.24,25.15 -30.34,53.73 -30.34,85.71l0 160.71c0,11.76 5.85,19.1 17.64,22.07 11.71,2.92 26.76,4.39 45.15,4.39l0 28.42 -186.31 0z"/>
   <path class="fil2" d="M21901.75 21070.03c-33.28,0 -63.64,-8.65 -91.14,-25.93 -27.42,-17.35 -49.16,-40.58 -65.14,-69.62 -16.07,-29.06 -24.08,-59.59 -24.08,-91.61 0,-32 7.18,-62.36 21.57,-91.11 14.39,-28.7 34.61,-51.89 60.8,-69.54 26.17,-17.64 54.85,-26.45 86.21,-26.45 25.58,0 47.41,4.24 65.73,12.75 18.3,8.49 33.52,20.08 45.65,34.77 12.04,14.67 20.98,32.14 26.83,52.43 5.95,20.22 8.86,42.43 8.86,66.61 0,7.18 -2.58,10.78 -7.87,10.78l-236.23 0 0 8.82c0,45.06 9.13,83.74 27.45,116.07 18.3,32.33 48,48.54 89.22,48.54 16.31,0 31.69,-3.79 46.08,-11.31 14.36,-7.51 26.83,-17.8 37.29,-30.84 10.45,-13.08 17.3,-27.47 20.57,-43.14 0.66,-1.3 1.75,-2.77 3.41,-4.41 1.68,-1.61 3.11,-2.42 4.43,-2.42l7.77 0c5.29,0 7.87,3.58 7.87,10.78 -7.18,30.67 -23.49,55.82 -48.99,75.42 -25.5,19.58 -54.28,29.39 -86.3,29.39zm-107.87 -217.52l185.31 0c0,-20.27 -2.77,-40.86 -8.37,-61.75 -5.52,-20.91 -14.96,-38.35 -28.35,-52.36 -13.46,-14.06 -30.93,-21.07 -52.5,-21.07 -30.7,0 -54.35,14.36 -71.09,43.07 -16.64,28.78 -25.01,59.49 -25.01,92.11z"/>
   <path class="fil2" d="M22595.85 21263.05c-30.01,-23.54 -56.01,-50.84 -77.84,-81.82 -21.9,-31.05 -39.89,-64 -53.95,-98.94 -14.03,-34.96 -24.49,-71.54 -31.34,-109.77 -6.87,-38.19 -10.29,-76.56 -10.29,-115.1 0,-39.23 3.41,-77.94 10.29,-116.12 6.85,-38.21 17.3,-74.93 31.34,-110.17 14.06,-35.27 32.21,-68.31 54.45,-99.01 22.16,-30.7 48,-57.46 77.34,-80.31 0,-1.3 1.35,-1.97 4.03,-1.97l7.77 0c1.33,0 2.68,0.66 3.91,1.97 1.35,1.26 1.94,2.89 1.94,4.86 0,2.63 -0.26,4.6 -0.92,5.9 -26.86,25.46 -49.02,53.05 -66.72,82.77 -17.66,29.72 -31.79,61.41 -42.57,95.07 -10.78,33.63 -18.65,68.41 -23.49,104.32 -4.93,35.93 -7.44,73.46 -7.44,112.68 0,172.44 46.41,303.71 139.21,393.83 1.35,1.3 1.94,3.6 1.94,6.9 0,1.3 -0.59,2.77 -1.94,4.41 -1.23,1.64 -2.58,2.44 -3.91,2.44l-7.77 0c-2.68,0 -4.03,-0.64 -4.03,-1.94z"/>
   <path class="fil2" d="M22689.59 21061.21l0 -28.42c18.3,0 33.45,-1.47 45.56,-4.39 12.14,-2.96 18.16,-10.31 18.16,-22.07l0 -222.41c0,-14.39 -2.25,-24.84 -6.85,-31.36 -4.6,-6.52 -10.95,-10.43 -19.08,-11.73 -8.18,-1.35 -20.81,-1.99 -37.78,-1.99l0 -29.37 117.64 -8.82 0 80.33c11.14,-23.49 27.45,-42.76 49.02,-57.84 21.57,-15.03 44.82,-22.49 69.64,-22.49 62.72,0 99.6,25.48 110.72,76.44 10.45,-22.87 26.17,-41.34 47.07,-55.37 20.91,-14.06 44.06,-21.07 69.66,-21.07 24.15,0 44.73,4.08 61.7,12.21 17,8.2 29.77,20.46 38.23,36.76 8.51,16.33 12.78,36.57 12.78,60.75l0 195.95c0,11.76 6.02,19.1 18.16,22.07 12.11,2.92 27.26,4.39 45.58,4.39l0 28.42 -186.31 0 0 -28.42c18.3,0 33.52,-1.47 45.65,-4.39 12.04,-2.96 18.06,-10.31 18.06,-22.07l0 -193.01c0,-27.4 -3.93,-49.47 -11.8,-66.16 -7.77,-16.62 -23.82,-24.96 -48,-24.96 -31.34,0 -57.2,12.59 -77.41,37.71 -20.34,25.15 -30.43,53.73 -30.43,85.71l0 160.71c0,11.76 5.93,19.1 17.64,22.07 11.78,2.92 27.16,4.39 46.15,4.39l0 28.42 -187.3 0 0 -28.42c18.99,0 34.37,-1.47 46.15,-4.39 11.71,-2.96 17.56,-10.31 17.56,-22.07l0 -193.01c0,-26.78 -3.77,-48.69 -11.28,-65.63 -7.54,-16.97 -23.32,-25.48 -47.5,-25.48 -31.43,0 -57.2,12.59 -77.51,37.71 -20.24,25.15 -30.36,53.73 -30.36,85.71l0 160.71c0,11.76 5.85,19.1 17.66,22.07 11.78,2.92 26.83,4.39 45.06,4.39l0 28.42 -186.21 0z"/>
   <path class="fil2" d="M23380.78 21061.21l0 -28.42c18.25,0 33.47,-1.47 45.51,-4.39 12.11,-2.96 18.13,-10.31 18.13,-22.07l0 -222.41c0,-20.91 -4.01,-33.66 -12.21,-38.19 -8.2,-4.62 -24.34,-6.9 -48.59,-6.9l0 -29.37 117.66 -8.82 0 305.68c0,11.76 5.26,19.1 15.72,22.07 10.45,2.92 24.18,4.39 41.22,4.39l0 28.42 -177.44 0zm34.3 -500.63c0,-11.8 4.5,-22.26 13.7,-31.36 9.13,-9.15 19.25,-13.72 30.46,-13.72 7.77,0 15.29,2.11 22.47,6.33 7.21,4.24 12.8,10 16.73,17.18 3.84,7.18 5.76,14.36 5.76,21.57 0,11.76 -4.34,22.21 -13.2,31.34 -8.77,9.13 -19.39,13.7 -31.76,13.7 -11.21,0 -21.33,-4.57 -30.46,-13.7 -9.2,-9.13 -13.7,-19.58 -13.7,-31.34z"/>
   <path class="fil2" d="M23609.82 21061.21l0 -28.42c18.32,0 33.54,-1.47 45.58,-4.39 12.11,-2.96 18.13,-10.31 18.13,-22.07l0 -222.41c0,-14.39 -2.25,-24.84 -6.85,-31.36 -4.53,-6.52 -10.95,-10.43 -19.15,-11.73 -8.11,-1.35 -20.74,-1.99 -37.71,-1.99l0 -29.37 117.66 -8.82 0 80.33c11.12,-23.49 27.42,-42.76 48.99,-57.84 21.57,-15.03 44.82,-22.49 69.57,-22.49 37.97,0 66.39,9.13 85.38,27.4 18.89,18.3 28.42,45.72 28.42,82.32l0 195.95c0,11.76 5.85,19.1 17.66,22.07 11.71,2.92 27.09,4.39 45.98,4.39l0 28.42 -187.23 0 0 -28.42c18.99,0 34.37,-1.47 46.08,-4.39 11.78,-2.96 17.73,-10.31 17.73,-22.07l0 -193.01c0,-26.78 -3.77,-48.69 -11.38,-65.63 -7.44,-16.97 -23.32,-25.48 -47.5,-25.48 -31.36,0 -57.2,12.59 -77.41,37.71 -20.34,25.15 -30.43,53.73 -30.43,85.71l0 160.71c0,11.76 5.85,19.1 17.71,22.07 11.71,2.92 26.76,4.39 44.99,4.39l0 28.42 -186.21 0z"/>
   <path class="fil2" d="M24098.32 21264.99c-4.5,0 -6.76,-2.28 -6.76,-6.85 0,-2.61 0.24,-4.57 0.9,-5.88 93.49,-90.81 140.23,-222.41 140.23,-394.85 0,-172.42 -46.06,-303.71 -138.21,-393.83 -2.01,-1.33 -2.92,-3.65 -2.92,-6.92 0,-1.97 0.66,-3.6 1.92,-4.86 1.26,-1.3 2.92,-1.97 4.84,-1.97l7.87 0c1.33,0 2.58,0.66 3.93,1.97 39.2,30.7 71.75,68.1 97.49,112.16 25.93,44.09 44.92,90.97 56.96,140.58 12.11,49.63 18.13,100.6 18.13,152.86 0,38.54 -3.27,76.4 -9.86,113.61 -6.52,37.26 -16.81,73.98 -30.86,110.24 -14.06,36.24 -32.02,69.73 -53.92,100.43 -21.93,30.72 -47.83,57.81 -77.94,81.35 -1.35,1.3 -2.61,1.94 -3.93,1.94l-7.87 0z"/>
   <line class="fil1 str1" x1="3074.46" y1="19187.06" x2="3074.46" y2= "15675.7" />
   <line class="fil1 str1" x1="3074.46" y1="19187.06" x2="3458.47" y2= "19187.06" />
   <line class="fil1 str1" x1="3074.46" y1="17431.37" x2="3458.47" y2= "17431.37" />
   <line class="fil1 str1" x1="3074.46" y1="15675.7" x2="3458.47" y2= "15675.7" />
   <polygon class="fil2" points="1635.94,19228.58 1835,19228.58 1835,19181.58 1635.94,19181.58 "/>
   <path class="fil2" d="M2066.39 19384.41c-61.44,0 -103.27,-25.31 -125.51,-75.94 -22.23,-50.63 -33.37,-110.88 -33.37,-180.76 0,-43.76 3.96,-84.76 11.8,-122.97 7.82,-38.23 23.68,-70.87 47.55,-97.99 23.85,-27.12 57.03,-40.65 99.53,-40.65 33.28,0 60.4,8.18 81.3,24.51 20.93,16.31 36.95,37.19 48.07,62.72 11.12,25.43 18.63,52.88 22.52,82.27 3.96,29.37 5.9,60.06 5.9,92.11 0,43.09 -3.91,83.43 -11.71,120.98 -7.87,37.57 -23.39,69.54 -46.58,96.02 -23.21,26.48 -56.39,39.7 -99.51,39.7zm0 -19.63c28.06,0 48.97,-14.36 62.74,-43.09 13.72,-28.78 22.21,-60.47 25.48,-95.05 3.27,-34.61 4.86,-71.54 4.86,-110.72 0,-37.9 -1.59,-72.84 -4.86,-104.86 -3.27,-31.98 -11.76,-60.85 -25.48,-86.66 -13.77,-25.84 -34.68,-38.73 -62.74,-38.73 -28.14,0 -49.02,13.06 -62.74,39.16 -13.75,26.14 -22.28,55.04 -25.55,86.73 -3.27,31.69 -4.88,66.46 -4.88,104.36 0,27.42 0.64,53.55 1.94,78.34 1.35,24.84 4.93,50.51 10.78,76.96 5.9,26.45 15.38,48.64 28.42,66.58 13.08,17.99 30.43,26.97 52.03,26.97z"/>
   <path class="fil2" d="M2318.28 19326.6c0,-11.8 4.12,-21.59 12.33,-29.44 8.13,-7.85 17.8,-11.78 28.92,-11.78 6.52,0 13.23,1.8 20.08,5.43 6.87,3.58 12.09,8.65 15.67,15.22 3.6,6.52 5.4,13.39 5.4,20.57 0,10.45 -4.1,19.89 -12.28,28.37 -8.18,8.51 -17.78,12.75 -28.87,12.75 -11.12,0 -20.79,-4.24 -28.92,-12.75 -8.2,-8.49 -12.33,-17.92 -12.33,-28.37z"/>
   <path class="fil2" d="M2533.32 19367.72l0 -26.45c62.74,0 94.1,-7.85 94.1,-23.51l0 -395.79c-25.43,13.04 -58.14,19.56 -97.99,19.56l0 -26.45c61.44,0 107.85,-16.33 139.26,-48.97l10.71 0c1.33,0 2.8,0.83 4.43,2.47 1.64,1.61 2.44,3.06 2.44,4.39l0 444.81c0,15.67 31.41,23.51 94.15,23.51l0 26.45 -247.1 0z"/>
   <path class="fil2" d="M2651.98 17628.69c-61.46,0 -103.27,-25.31 -125.48,-75.9 -22.21,-50.63 -33.33,-110.91 -33.33,-180.81 0,-43.76 3.93,-84.71 11.73,-122.95 7.87,-38.21 23.73,-70.87 47.57,-97.99 23.85,-27.12 56.98,-40.63 99.51,-40.63 33.33,0 60.47,8.15 81.37,24.49 20.91,16.31 36.91,37.21 47.98,62.72 11.14,25.46 18.7,52.88 22.61,82.25 3.91,29.39 5.9,60.11 5.9,92.11 0,43.12 -3.93,83.46 -11.8,121.03 -7.82,37.55 -23.32,69.54 -46.55,96 -23.23,26.45 -56.37,39.68 -99.51,39.68zm0 -19.6c28.11,0 49.02,-14.36 62.72,-43.07 13.72,-28.78 22.21,-60.47 25.48,-95.07 3.27,-34.61 4.91,-71.51 4.91,-110.74 0,-37.85 -1.64,-72.82 -4.91,-104.82 -3.27,-32 -11.76,-60.87 -25.48,-86.66 -13.7,-25.84 -34.61,-38.75 -62.72,-38.75 -28.11,0 -49.02,13.04 -62.74,39.18 -13.72,26.12 -22.21,55.04 -25.48,86.71 -3.25,31.69 -4.88,66.49 -4.88,104.34 0,27.45 0.64,53.59 1.94,78.39 1.28,24.82 4.88,50.46 10.78,76.92 5.85,26.5 15.31,48.69 28.42,66.61 13.06,17.97 30.36,26.97 51.96,26.97z"/>
   <path class="fil2" d="M2066.39 15873.03c-61.44,0 -103.27,-25.34 -125.51,-75.92 -22.23,-50.63 -33.37,-110.88 -33.37,-180.78 0,-43.78 3.96,-84.74 11.8,-122.95 7.82,-38.23 23.68,-70.9 47.55,-98.04 23.85,-27.07 57.03,-40.63 99.53,-40.63 33.28,0 60.4,8.2 81.3,24.53 20.93,16.28 36.95,37.19 48.07,62.72 11.12,25.43 18.63,52.88 22.52,82.25 3.96,29.39 5.9,60.09 5.9,92.11 0,43.12 -3.91,83.43 -11.71,121 -7.87,37.52 -23.39,69.54 -46.58,96 -23.21,26.48 -56.39,39.7 -99.51,39.7zm0 -19.65c28.06,0 48.97,-14.34 62.74,-43.04 13.72,-28.78 22.21,-60.47 25.48,-95.07 3.27,-34.61 4.86,-71.51 4.86,-110.74 0,-37.85 -1.59,-72.82 -4.86,-104.82 -3.27,-31.98 -11.76,-60.89 -25.48,-86.66 -13.77,-25.84 -34.68,-38.78 -62.74,-38.78 -28.14,0 -49.02,13.08 -62.74,39.2 -13.75,26.14 -22.28,55.04 -25.55,86.73 -3.27,31.67 -4.88,66.46 -4.88,104.32 0,27.47 0.64,53.62 1.94,78.39 1.35,24.84 4.93,50.49 10.78,76.94 5.9,26.45 15.38,48.66 28.42,66.58 13.08,17.97 30.43,26.95 52.03,26.95z"/>
   <path class="fil2" d="M2318.28 15815.22c0,-11.8 4.12,-21.59 12.33,-29.42 8.13,-7.87 17.8,-11.78 28.92,-11.78 6.52,0 13.23,1.8 20.08,5.38 6.87,3.6 12.09,8.7 15.67,15.26 3.6,6.49 5.4,13.34 5.4,20.55 0,10.45 -4.1,19.91 -12.28,28.4 -8.18,8.51 -17.78,12.75 -28.87,12.75 -11.12,0 -20.79,-4.24 -28.92,-12.75 -8.2,-8.49 -12.33,-17.94 -12.33,-28.4z"/>
   <path class="fil2" d="M2533.32 15856.36l0 -26.48c62.74,0 94.1,-7.82 94.1,-23.51l0 -395.77c-25.43,13.04 -58.14,19.56 -97.99,19.56l0 -26.45c61.44,0 107.85,-16.33 139.26,-48.99l10.71 0c1.33,0 2.8,0.81 4.43,2.44 1.64,1.64 2.44,3.11 2.44,4.41l0 444.81c0,15.69 31.41,23.51 94.15,23.51l0 26.48 -247.1 0z"/>
   <line class="fil1 str2" x1="3074.46" y1="17431.37" x2="39553.77" y2= "17431.37" />
   <path class="fil2" d="M879.15 18118.59c0,5.24 -3.58,7.85 -10.76,7.85 -1.33,0 -3.6,-0.47 -6.87,-1.45 -3.25,-0.95 -5.88,-2.09 -7.82,-3.44 -1.97,-1.3 -2.96,-2.92 -2.96,-4.88 0,-33.33 -1.94,-56.51 -5.9,-69.54 -2.58,-7.18 -9.77,-12.42 -21.55,-15.69l-448.04 -111.67c-5.21,-1.35 -9.13,-1.99 -11.78,-1.99 -5.85,0 -9.13,3.27 -9.77,9.84 -1.99,10.45 -2.99,30.06 -2.99,58.76 0,5.21 -3.58,7.85 -10.76,7.85 -7.18,-1.97 -11.92,-3.44 -14.17,-4.39 -2.32,-1.02 -3.46,-4.15 -3.46,-9.34l0 -218.5c0,-5.88 3.58,-8.82 10.76,-8.82 1.3,0 3.44,0.5 6.35,1.49 2.96,0.95 5.57,2.09 7.87,3.39 2.28,1.33 3.41,3.32 3.41,5.88 0,33.33 1.97,56.53 5.93,69.62 2.58,7.16 9.77,12.37 21.59,15.69l264.65 65.59 -247.03 -319.35c-1.28,-0.69 -5.07,-4.12 -11.28,-10.29 -6.21,-6.26 -12.25,-9.36 -18.16,-9.36 -10.45,0 -15.69,9.15 -15.69,27.5 0,5.21 -3.58,7.82 -10.76,7.82 -4.57,-0.69 -8.01,-1.33 -10.29,-2.01 -2.32,-0.62 -4.12,-1.9 -5.4,-3.89 -1.3,-1.97 -1.94,-4.57 -1.94,-7.85l0 -157.74c0,-3.25 0.97,-5.55 2.94,-6.85 1.99,-1.28 4.6,-1.92 7.82,-1.92 1.3,0.62 3.6,1.42 6.87,2.44 3.27,0.95 5.88,2.09 7.82,3.37 1.97,1.35 2.94,3.29 2.94,5.93 0,39.8 18.35,83.25 54.92,130.3 0.69,0.64 1.02,1.16 1.02,1.49 0,0.33 0.17,0.81 0.47,1.42 0.31,0.69 0.47,1.02 0.47,1.02l130.34 168.48 286.31 -122.45c12.44,-7.18 19.91,-15.03 22.54,-23.51 2.63,-8.51 3.93,-21.57 3.93,-39.2 0,-5.85 3.6,-8.79 10.78,-8.79 5.88,1.94 10.29,3.72 13.27,5.36 2.89,1.66 4.36,4.79 4.36,9.34l0 189.1c0,4.57 -3.58,6.83 -10.76,6.83 -5.93,-0.66 -10.33,-1.47 -13.27,-2.42 -2.92,-1.02 -4.39,-3.79 -4.39,-8.37 0,-13.68 -1.45,-25.31 -4.41,-34.77 -2.96,-9.46 -9.34,-14.17 -19.1,-14.17 -3.93,0 -6.87,0 -8.84,0l-235.32 101.88 92.18 118.54 150.99 37.21c6.52,1.3 10.45,1.94 11.78,1.94 5.24,0 8.15,-3.25 8.79,-9.77 2.63,-10.45 3.93,-30.06 3.93,-58.76 0,-5.24 3.6,-7.85 10.78,-7.85 7.23,1.97 11.92,3.44 14.17,4.41 2.32,0.95 3.46,4.05 3.46,9.27l0 219.44z"/>
   <path class="fil2" d="M1105.35 17370.61c-7.87,-1.3 -11.78,-3.58 -11.78,-6.9 0,-13.7 -1.14,-24.46 -3.41,-32.28 -2.28,-7.85 -7.7,-13.08 -16.19,-15.69l-96.02 -23.49c20.88,21.55 31.34,42.74 31.34,63.64 0,24.2 -8.79,42.97 -26.48,56.37 -17.64,13.37 -38.9,20.05 -63.74,20.05 -24.15,0 -49.18,-6.19 -75,-18.61 -25.79,-12.42 -47.36,-29.23 -64.66,-50.44 -17.3,-21.24 -25.98,-44.25 -25.98,-69.07 0,-11.12 3.44,-21.24 10.29,-30.34 6.87,-9.15 15.81,-16.02 26.93,-20.6 -3.89,-2.61 -11.07,-8.82 -21.52,-18.61 -10.45,-9.84 -15.69,-17.02 -15.69,-21.57 0,-3.93 2.63,-5.9 7.85,-5.9l314.66 79.41c5.9,0.62 9.15,0.92 9.79,0.92 5.24,0 7.85,-12.4 7.85,-37.19 0,-1.94 0.64,-3.46 1.99,-4.43 1.3,-0.97 2.94,-1.45 4.91,-1.45 5.21,1.28 8.65,2.42 10.29,3.44 1.61,0.97 2.44,3.08 2.44,6.33l0 120.53c0,3.93 -2.61,5.88 -7.85,5.88zm-110.79 -15.67c0,-13.06 -4.91,-25.84 -14.7,-38.26 -9.79,-12.37 -21.55,-23.44 -35.32,-33.28l-127.45 -31.36c-13.04,1.97 -24.49,6.68 -34.3,14.25 -9.79,7.47 -14.7,17.4 -14.7,29.84 0,12.42 5.24,24.18 15.69,35.29 10.45,11.07 22.9,20.22 37.26,27.4 15.03,7.18 35.6,14.2 61.72,21.07 26.17,6.85 46.74,10.29 61.77,10.29 12.42,0 23.85,-2.75 34.3,-8.27 10.45,-5.59 15.72,-14.55 15.72,-26.97z"/>
   <path class="fil2" d="M939.64 17113.72c-8.49,0 -17.8,-0.97 -27.92,-2.94 -10.12,-1.97 -18.44,-3.93 -24.98,-5.88 -6.57,-1.99 -19.29,-6.57 -38.23,-13.75 -18.96,-7.16 -28.8,-10.71 -29.44,-10.71 -13.72,-5.24 -24.82,-7.85 -33.33,-7.85 -11.76,0 -17.64,4.24 -17.64,12.73 0,15 7.68,27.26 23.04,36.76 15.34,9.43 32.5,16.45 51.44,21.07 2.65,0.62 3.96,2.25 3.96,4.86l0 6.85c0,3.25 -1.64,4.88 -4.91,4.88l-1.92 0c-22.26,-6.52 -42.22,-15.98 -59.87,-28.4 -17.61,-12.4 -26.41,-28.09 -26.41,-47.03 0,-13.72 4.39,-25.15 13.18,-34.3 8.82,-9.15 20.12,-13.72 33.87,-13.72 7.13,0 14.65,1.64 22.54,4.93 18.94,7.16 34.13,12.87 45.51,17.11 11.47,4.29 24.41,8.2 38.83,11.8 14.34,3.56 27.4,5.33 39.18,5.33 14.34,0 25.93,-3.25 34.77,-9.79 8.82,-6.52 13.25,-16.62 13.25,-30.34 0,-26.12 -19.96,-49.66 -59.8,-70.56 -13.06,-6.49 -28.42,-12.73 -46.06,-18.61 -17.64,-5.88 -32.05,-8.84 -43.19,-8.84 -11.73,0 -20.72,1.78 -26.9,5.38 -6.21,3.63 -12.78,8.37 -19.65,14.25 -6.85,5.85 -12.23,8.77 -16.17,8.77 -7.85,0 -14.7,-3.11 -20.6,-9.27 -5.85,-6.21 -8.77,-12.87 -8.77,-20.05 0,-9.17 4.05,-15.72 12.23,-19.63 8.15,-3.96 17.47,-5.93 27.92,-5.93 12.42,0 27.31,1.8 44.61,5.4 17.33,3.58 35.29,8.51 53.9,14.72 18.65,6.21 33.21,12.25 43.66,18.13 49.04,24.82 73.53,53.57 73.53,86.23 0,24.13 -5.9,43.26 -17.68,57.29 -11.76,14.06 -29.08,21.07 -51.96,21.07z"/>
  </g>
 </g>
</svg>
