<?xml version="1.0" encoding="UTF-8"?>
<!DOCTYPE svg PUBLIC "-//W3C//DTD SVG 1.1//EN" "http://www.w3.org/Graphics/SVG/1.1/DTD/svg11.dtd">
<!-- Creator: CorelDRAW 2021 (64-Bit) -->
<svg xmlns="http://www.w3.org/2000/svg" xml:space="preserve" width="179.917mm" height="90.9998mm" version="1.1" style="shape-rendering:geometricPrecision; text-rendering:geometricPrecision; image-rendering:optimizeQuality; fill-rule:evenodd; clip-rule:evenodd"
viewBox="0 0 17753.65 8979.6"
 xmlns:xlink="http://www.w3.org/1999/xlink"
 xmlns:xodm="http://www.corel.com/coreldraw/odm/2003">
 <defs>
  <style type="text/css">
   <![CDATA[
    .str2 {stroke:#00678F;stroke-width:41.79;stroke-linejoin:round;stroke-miterlimit:22.9256}
    .str0 {stroke:#E9EAEA;stroke-width:17.43;stroke-linejoin:round;stroke-miterlimit:22.9256}
    .str1 {stroke:#434343;stroke-width:17.43;stroke-linecap:square;stroke-linejoin:round;stroke-miterlimit:22.9256}
    .fil1 {fill:none;fill-rule:nonzero}
    .fil2 {fill:#434343;fill-rule:nonzero}
    .fil0 {fill:white;fill-rule:nonzero}
    .fil3 {fill:#434343;fill-rule:nonzero}
   ]]>
  </style>
 </defs>
 <g id="Layer_x0020_1">
  <metadata id="CorelCorpID_0Corel-Layer"/>
  <g id="_2553767314864">
   <polygon class="fil0" points="-0,8979.6 17753.65,8979.6 17753.65,0 -0,0 "/>
   <polygon class="fil0" points="-0,8979.6 17753.65,8979.6 17753.65,0 -0,0 "/>
   <polygon class="fil0" points="1279.91,1775.05 17265.64,1775.05 17265.64,287.15 1279.91,287.15 "/>
   <line class="fil1 str0" x1="1279.91" y1="1775.03" x2="1279.91" y2= "287.14" />
   <line class="fil1 str0" x1="6608.53" y1="1775.03" x2="6608.53" y2= "287.14" />
   <line class="fil1 str0" x1="11937.11" y1="1775.03" x2="11937.11" y2= "287.14" />
   <line class="fil1 str0" x1="17265.69" y1="1775.03" x2="17265.69" y2= "287.14" />
   <line class="fil1 str0" x1="17265.69" y1="1775.03" x2="1279.91" y2= "1775.03" />
   <line class="fil1 str0" x1="17265.69" y1="1031.09" x2="1279.91" y2= "1031.09" />
   <line class="fil1 str0" x1="17265.69" y1="287.14" x2="1279.91" y2= "287.14" />
   <line class="fil1 str1" x1="1279.91" y1="1775.03" x2="17265.69" y2= "1775.03" />
   <line class="fil1 str1" x1="1279.91" y1="1775.03" x2="1279.91" y2= "1615.28" />
   <line class="fil1 str1" x1="6608.53" y1="1775.03" x2="6608.53" y2= "1615.28" />
   <line class="fil1 str1" x1="11937.11" y1="1775.03" x2="11937.11" y2= "1615.28" />
   <line class="fil1 str1" x1="17265.69" y1="1775.03" x2="17265.69" y2= "1615.28" />
   <path class="fil2" d="M1279.91 2142.55c-25.6,0 -43,-10.51 -52.24,-31.61 -9.25,-21.06 -13.87,-46.16 -13.87,-75.26 0,-18.21 1.63,-35.27 4.88,-51.17 3.28,-15.91 9.87,-29.51 19.79,-40.79 9.93,-11.28 23.73,-16.92 41.43,-16.92 13.86,0 25.17,3.41 33.88,10.2 8.69,6.79 15.37,15.49 20,26.11 4.62,10.62 7.75,22.03 9.38,34.25 1.63,12.22 2.46,25.02 2.46,38.33 0,17.96 -1.65,34.74 -4.92,50.4 -3.25,15.6 -9.71,28.93 -19.38,39.96 -9.66,11 -23.47,16.5 -41.41,16.5zm0 -8.14c11.69,0 20.4,-5.99 26.11,-17.93 5.72,-11.98 9.25,-25.17 10.61,-39.58 1.35,-14.42 2.03,-29.76 2.03,-46.12 0,-15.74 -0.68,-30.29 -2.03,-43.63 -1.36,-13.33 -4.88,-25.34 -10.61,-36.06 -5.71,-10.77 -14.42,-16.15 -26.11,-16.15 -11.7,0 -20.41,5.43 -26.12,16.32 -5.71,10.86 -9.25,22.9 -10.61,36.1 -1.36,13.19 -2.04,27.68 -2.04,43.42 0,11.45 0.28,22.31 0.82,32.65 0.53,10.33 2.02,20.99 4.49,32.02 2.43,11 6.37,20.26 11.82,27.71 5.45,7.49 12.65,11.25 21.64,11.25z"/>
   <path class="fil2" d="M6557.44 2100.15c2.19,5.96 5.47,11.46 9.82,16.51 4.35,5.01 9.57,8.91 15.7,11.62 6.13,2.71 12.46,4.08 18.98,4.08 14.97,0 25.3,-5.85 31.04,-17.54 5.71,-11.7 8.57,-25.83 8.57,-42.4 0,-7.35 -0.07,-13.47 -0.21,-18.34 -0.14,-4.91 -0.91,-9.68 -2.26,-14.28 -1.88,-7.34 -5.22,-13.81 -10,-19.39 -4.77,-5.57 -10.69,-8.35 -17.75,-8.35 -7.1,0 -13.12,1.08 -18.17,3.27 -5.01,2.16 -9.13,4.71 -12.26,7.56 -3.1,2.85 -5.88,5.81 -8.36,8.94 -2.44,3.14 -4.08,4.85 -4.9,5.12l-3.28 0c-0.52,0 -1.21,-0.35 -2.02,-1.01 -0.83,-0.7 -1.25,-1.32 -1.25,-1.88l0 -104.78c0,-0.29 0.38,-0.77 1.05,-1.47 0.7,-0.66 1.43,-1.01 2.23,-1.01l0.84 0c14.17,6.83 29.1,10.2 44.91,10.2 15.48,0 30.45,-3.37 44.87,-10.2l0.84 0c0.8,0 1.49,0.28 2.05,0.8 0.52,0.56 0.8,1.12 0.8,1.68l0 3.24c0,0.83 -0.14,1.21 -0.41,1.21 -7.35,9.54 -16.4,16.92 -27.16,22.24 -10.73,5.3 -21.83,7.94 -33.24,7.94 -8.43,0 -17.02,-1.09 -25.73,-3.24l0 59.11c6.82,-5.71 12.95,-9.78 18.34,-12.22 5.47,-2.48 12.56,-3.69 21.26,-3.69 11.43,0 21.69,3.34 30.81,9.99 9.13,6.68 16.12,15.38 21,26.11 4.9,10.76 7.38,21.55 7.38,32.45 0,12.78 -3.07,24.47 -9.2,35.05 -6.13,10.62 -14.48,19.11 -25.09,25.52 -10.62,6.4 -22.17,9.57 -34.7,9.57 -10.34,0 -19.77,-2.64 -28.34,-7.93 -8.59,-5.33 -15.38,-12.46 -20.44,-21.41 -5.01,-8.98 -7.55,-18.51 -7.55,-28.54 0,-4.91 1.56,-8.77 4.7,-11.63 3.13,-2.88 7,-4.31 11.66,-4.31 4.59,0 8.39,1.5 11.38,4.49 3.03,2.99 4.53,6.79 4.53,11.46 0,4.35 -1.5,8.07 -4.53,11.21 -2.99,3.1 -6.79,4.66 -11.38,4.66 -0.84,0 -1.75,-0.07 -2.68,-0.21 -0.98,-0.1 -1.57,-0.18 -1.85,-0.18z"/>
   <path class="fil2" d="M11809.27 2135.62l0 -11c26.11,0 39.16,-3.27 39.16,-9.81l0 -164.76c-10.58,5.43 -24.2,8.14 -40.79,8.14l0 -11c25.58,0 44.9,-6.82 57.95,-20.4l4.49 0c0.56,0 1.18,0.35 1.85,1.01 0.66,0.7 1.02,1.29 1.02,1.85l0 185.17c0,6.54 13.05,9.81 39.19,9.81l0 11 -102.87 0z"/>
   <path class="fil2" d="M12015.39 2142.55c-25.59,0 -42.99,-10.51 -52.25,-31.61 -9.26,-21.06 -13.85,-46.16 -13.85,-75.26 0,-18.21 1.6,-35.27 4.87,-51.17 3.28,-15.91 9.89,-29.51 19.8,-40.79 9.93,-11.28 23.74,-16.92 41.42,-16.92 13.89,0 25.17,3.41 33.88,10.2 8.7,6.79 15.38,15.49 20.01,26.11 4.6,10.62 7.73,22.03 9.36,34.25 1.64,12.22 2.48,25.02 2.48,38.33 0,17.96 -1.64,34.74 -4.91,50.4 -3.27,15.6 -9.74,28.93 -19.39,39.96 -9.67,11 -23.5,16.5 -41.42,16.5zm0 -8.14c11.7,0 20.41,-5.99 26.11,-17.93 5.71,-11.98 9.27,-25.17 10.62,-39.58 1.36,-14.42 2.02,-29.76 2.02,-46.12 0,-15.74 -0.66,-30.29 -2.02,-43.63 -1.35,-13.33 -4.9,-25.34 -10.62,-36.06 -5.7,-10.77 -14.41,-16.15 -26.11,-16.15 -11.69,0 -20.44,5.43 -26.14,16.32 -5.71,10.86 -9.23,22.9 -10.59,36.1 -1.35,13.19 -2.05,27.68 -2.05,43.42 0,11.45 0.29,22.31 0.84,32.65 0.52,10.33 2.02,20.99 4.46,32.02 2.47,11 6.4,20.26 11.87,27.71 5.43,7.49 12.63,11.25 21.61,11.25z"/>
   <path class="fil2" d="M17137.85 2135.62l0 -11c26.11,0 39.16,-3.27 39.16,-9.81l0 -164.76c-10.62,5.43 -24.2,8.14 -40.8,8.14l0 -11c25.59,0 44.91,-6.82 57.96,-20.4l4.45 0c0.56,0 1.18,0.35 1.88,1.01 0.66,0.7 1.01,1.29 1.01,1.85l0 185.17c0,6.54 13.05,9.81 39.16,9.81l0 11 -102.83 0z"/>
   <path class="fil2" d="M17292.93 2100.15c2.19,5.96 5.43,11.46 9.78,16.51 4.35,5.01 9.61,8.91 15.74,11.62 6.09,2.71 12.42,4.08 18.98,4.08 14.96,0 25.3,-5.85 31.01,-17.54 5.7,-11.7 8.57,-25.83 8.57,-42.4 0,-7.35 -0.04,-13.47 -0.18,-18.34 -0.14,-4.91 -0.91,-9.68 -2.26,-14.28 -1.91,-7.34 -5.22,-13.81 -10,-19.39 -4.77,-5.57 -10.69,-8.35 -17.75,-8.35 -7.1,0 -13.12,1.08 -18.17,3.27 -5.05,2.16 -9.13,4.71 -12.26,7.56 -3.1,2.85 -5.88,5.81 -8.36,8.94 -2.44,3.14 -4.08,4.85 -4.87,5.12l-3.27 0c-0.56,0 -1.25,-0.35 -2.09,-1.01 -0.8,-0.7 -1.18,-1.32 -1.18,-1.88l0 -104.78c0,-0.29 0.35,-0.77 1.01,-1.47 0.7,-0.66 1.43,-1.01 2.27,-1.01l0.8 0c14.13,6.83 29.1,10.2 44.91,10.2 15.48,0 30.45,-3.37 44.87,-10.2l0.84 0c0.8,0 1.49,0.28 2.05,0.8 0.52,0.56 0.8,1.12 0.8,1.68l0 3.24c0,0.83 -0.14,1.21 -0.42,1.21 -7.34,9.54 -16.39,16.92 -27.15,22.24 -10.73,5.3 -21.83,7.94 -33.24,7.94 -8.46,0 -17.02,-1.09 -25.73,-3.24l0 59.11c6.79,-5.71 12.95,-9.78 18.37,-12.22 5.44,-2.48 12.5,-3.69 21.24,-3.69 11.42,0 21.69,3.34 30.81,9.99 9.09,6.68 16.12,15.38 21,26.11 4.9,10.76 7.38,21.55 7.38,32.45 0,12.78 -3.07,24.47 -9.2,35.05 -6.13,10.62 -14.48,19.11 -25.13,25.52 -10.58,6.4 -22.13,9.57 -34.67,9.57 -10.34,0 -19.81,-2.64 -28.38,-7.93 -8.56,-5.33 -15.34,-12.46 -20.4,-21.41 -5.01,-8.98 -7.55,-18.51 -7.55,-28.54 0,-4.91 1.56,-8.77 4.7,-11.63 3.13,-2.88 7,-4.31 11.62,-4.31 4.63,0 8.43,1.5 11.42,4.49 3,2.99 4.49,6.79 4.49,11.46 0,4.35 -1.49,8.07 -4.49,11.21 -2.99,3.1 -6.79,4.66 -11.42,4.66 -0.8,0 -1.71,-0.07 -2.64,-0.21 -0.94,-0.1 -1.57,-0.18 -1.85,-0.18z"/>
   <line class="fil1 str1" x1="1279.91" y1="1775.03" x2="1279.91" y2= "287.14" />
   <line class="fil1 str1" x1="1279.91" y1="1775.03" x2="1439.78" y2= "1775.03" />
   <line class="fil1 str1" x1="1279.91" y1="1031.09" x2="1439.78" y2= "1031.09" />
   <line class="fil1 str1" x1="1279.91" y1="287.14" x2="1439.78" y2= "287.14" />
   <path class="fil2" d="M896.29 1814.77c2.18,5.95 5.44,11.45 9.79,16.46 4.35,5.05 9.59,8.91 15.7,11.66 6.13,2.71 12.46,4.08 19,4.08 14.96,0 25.29,-5.85 31,-17.54 5.72,-11.69 8.59,-25.83 8.59,-42.43 0,-7.35 -0.08,-13.44 -0.21,-18.35 -0.15,-4.86 -0.9,-9.64 -2.26,-14.27 -1.9,-7.34 -5.25,-13.79 -10,-19.39 -4.76,-5.54 -10.68,-8.32 -17.76,-8.32 -7.07,0 -13.11,1.08 -18.15,3.24 -5.04,2.19 -9.13,4.7 -12.26,7.56 -3.13,2.85 -5.9,5.84 -8.36,8.94 -2.47,3.14 -4.1,4.85 -4.91,5.12l-3.26 0c-0.54,0 -1.23,-0.36 -2.04,-1.02 -0.82,-0.66 -1.22,-1.28 -1.22,-1.85l0 -104.81c0,-0.28 0.34,-0.76 1.03,-1.42 0.69,-0.7 1.43,-1.05 2.24,-1.05l0.83 0c14.14,6.82 29.1,10.23 44.87,10.23 15.52,0 30.49,-3.41 44.9,-10.23l0.82 0c0.82,0 1.51,0.28 2.06,0.84 0.53,0.51 0.81,1.08 0.81,1.63l0 3.28c0,0.8 -0.14,1.21 -0.42,1.21 -7.34,9.51 -16.38,16.92 -27.13,22.21 -10.76,5.33 -21.84,7.97 -33.26,7.97 -8.45,0 -17.01,-1.08 -25.73,-3.28l0 59.15c6.82,-5.74 12.93,-9.78 18.37,-12.22 5.44,-2.48 12.52,-3.69 21.23,-3.69 11.43,0 21.7,3.35 30.83,9.99 9.11,6.69 16.11,15.35 21,26.11 4.9,10.76 7.36,21.55 7.36,32.42 0,12.77 -3.05,24.47 -9.19,35.09 -6.14,10.62 -14.5,19.07 -25.1,25.48 -10.61,6.4 -22.16,9.61 -34.69,9.61 -10.35,0 -19.8,-2.65 -28.37,-7.97 -8.57,-5.3 -15.36,-12.43 -20.4,-21.37 -5.03,-9.02 -7.55,-18.52 -7.55,-28.59 0,-4.87 1.55,-8.77 4.67,-11.62 3.14,-2.85 7.02,-4.28 11.65,-4.28 4.61,0 8.42,1.5 11.42,4.49 2.99,3 4.49,6.79 4.49,11.42 0,4.35 -1.5,8.11 -4.49,11.21 -3,3.14 -6.81,4.71 -11.42,4.71 -0.82,0 -1.71,-0.11 -2.66,-0.22 -0.96,-0.14 -1.57,-0.17 -1.83,-0.17z"/>
   <path class="fil2" d="M1104.03 1857.17c-25.59,0 -42.99,-10.55 -52.24,-31.62 -9.25,-21.06 -13.87,-46.15 -13.87,-75.26 0,-18.21 1.64,-35.3 4.88,-51.17 3.28,-15.91 9.88,-29.51 19.8,-40.83 9.93,-11.24 23.72,-16.91 41.42,-16.91 13.87,0 25.17,3.41 33.88,10.23 8.7,6.79 15.36,15.49 19.97,26.11 4.64,10.58 7.79,22 9.41,34.22 1.63,12.25 2.46,25.02 2.46,38.36 0,17.97 -1.64,34.74 -4.91,50.37 -3.26,15.63 -9.71,28.96 -19.38,39.96 -9.67,11.03 -23.47,16.54 -41.42,16.54zm0 -8.18c11.7,0 20.41,-5.96 26.11,-17.93 5.71,-11.98 9.25,-25.17 10.61,-39.58 1.36,-14.42 2.04,-29.77 2.04,-46.09 0,-15.77 -0.68,-30.32 -2.04,-43.65 -1.36,-13.3 -4.89,-25.34 -10.61,-36.07 -5.7,-10.76 -14.41,-16.15 -26.11,-16.15 -11.7,0 -20.41,5.47 -26.12,16.33 -5.71,10.89 -9.25,22.9 -10.61,36.1 -1.35,13.19 -2.03,27.68 -2.03,43.45 0,11.42 0.27,22.31 0.81,32.61 0.53,10.34 2.03,21.03 4.49,32.03 2.44,11.03 6.37,20.26 11.83,27.75 5.44,7.48 12.64,11.21 21.63,11.21z"/>
   <path class="fil2" d="M947.3 1113.22c-13.05,0 -23.88,-3.47 -32.45,-10.4 -8.57,-6.93 -15.23,-15.85 -20,-26.7 -4.76,-10.89 -8.09,-22.39 -10.01,-34.5 -1.89,-12.12 -2.84,-24.26 -2.84,-36.48 0,-16.61 3.27,-33.18 9.79,-49.78 6.54,-16.57 15.99,-30.35 28.37,-41.4 12.38,-10.99 27.14,-16.53 44.28,-16.53 7.35,0 14.08,1.35 20.21,4.1 6.13,2.71 10.94,6.72 14.48,12.01 3.53,5.33 5.3,11.62 5.3,18.98 0,4.35 -1.42,7.97 -4.28,10.82 -2.85,2.85 -6.45,4.28 -10.81,4.28 -4.09,0 -7.62,-1.43 -10.61,-4.28 -2.99,-2.85 -4.49,-6.47 -4.49,-10.82 0,-4.08 1.5,-7.56 4.49,-10.41 2.99,-2.85 6.52,-4.28 10.61,-4.28l1.64 0c-2.71,-3.8 -6.45,-6.58 -11.23,-8.36 -4.76,-1.78 -9.86,-2.64 -15.3,-2.64 -6.25,0 -12.04,1.36 -17.35,4.08 -5.31,2.75 -10.14,6.4 -14.5,11 -4.35,4.63 -7.96,9.82 -10.82,15.49 -2.86,5.7 -5.03,12.18 -6.53,19.39 -1.5,7.2 -2.45,13.99 -2.84,20.4 -0.4,6.4 -0.59,14.34 -0.59,23.88 3.53,-8.7 8.68,-15.81 15.48,-21.24 6.8,-5.43 14.43,-8.15 22.85,-8.15 9.27,0 17.69,1.88 25.31,5.68 7.63,3.83 14.23,9.08 19.79,15.73 5.59,6.65 9.8,14.27 12.65,22.83 2.85,8.57 4.28,17.2 4.28,25.9 0,12.26 -2.72,23.92 -8.16,35.09 -5.44,11.14 -13.13,19.98 -23.06,26.52 -9.93,6.51 -21.15,9.78 -33.67,9.78zm0 -10.19c8.17,0 14.7,-1.85 19.6,-5.51 4.89,-3.69 8.5,-8.53 10.81,-14.52 2.32,-5.95 3.75,-12.08 4.29,-18.34 0.54,-6.23 0.81,-13.85 0.81,-22.83 0,-11.69 -0.61,-21.76 -1.84,-30.19 -1.21,-8.42 -4.28,-15.77 -9.19,-22.03 -4.89,-6.23 -12.51,-9.36 -22.86,-9.36 -8.43,0 -15.35,2.86 -20.79,8.57 -5.45,5.71 -9.46,12.92 -12.04,21.62 -2.6,8.7 -3.89,16.98 -3.89,24.86 0,2.74 0.14,4.9 0.41,6.54 0,0.28 0,0.48 0,0.62 0,0.11 -0.14,0.32 -0.41,0.59 0,8.99 0.96,18.11 2.87,27.33 1.89,9.26 5.43,17.02 10.61,23.29 5.17,6.23 12.37,9.36 21.62,9.36z"/>
   <path class="fil2" d="M1104.03 1113.22c-25.59,0 -42.99,-10.54 -52.24,-31.61 -9.25,-21.1 -13.87,-46.16 -13.87,-75.26 0,-18.24 1.64,-35.26 4.88,-51.17 3.28,-15.91 9.88,-29.51 19.8,-40.83 9.93,-11.28 23.72,-16.91 41.42,-16.91 13.87,0 25.17,3.4 33.88,10.23 8.7,6.79 15.36,15.49 19.97,26.11 4.64,10.58 7.79,22 9.41,34.22 1.63,12.25 2.46,25.02 2.46,38.36 0,17.93 -1.64,34.74 -4.91,50.37 -3.26,15.63 -9.71,28.96 -19.38,39.96 -9.67,11.03 -23.47,16.53 -41.42,16.53zm0 -8.18c11.7,0 20.41,-5.95 26.11,-17.92 5.71,-11.98 9.25,-25.17 10.61,-39.58 1.36,-14.42 2.04,-29.77 2.04,-46.09 0,-15.77 -0.68,-30.32 -2.04,-43.65 -1.36,-13.3 -4.89,-25.34 -10.61,-36.07 -5.7,-10.76 -14.41,-16.15 -26.11,-16.15 -11.7,0 -20.41,5.47 -26.12,16.33 -5.71,10.89 -9.25,22.9 -10.61,36.1 -1.35,13.19 -2.03,27.68 -2.03,43.45 0,11.42 0.27,22.31 0.81,32.61 0.53,10.34 2.03,21.03 4.49,32.03 2.44,11.03 6.37,20.26 11.83,27.74 5.44,7.49 12.64,11.21 21.63,11.21z"/>
   <path class="fil2" d="M923.64 354.16c0,-11.69 1.03,-23.04 3.06,-34.04 2.03,-11.03 4.96,-21.97 8.77,-32.83 3.81,-10.89 8.52,-21.58 14.08,-32.06 5.57,-10.44 11.75,-20.29 18.57,-29.55l28.58 -39.54 -35.92 0c-37,0 -56.19,0.37 -57.56,1.21 -2.72,3.51 -5.31,13.19 -7.75,28.96l-8.99 0 10.19 -65.65 9.4 0 0 0.8c0,3.8 6.39,6.27 19.17,7.34 12.8,1.09 25.32,1.64 37.56,1.64l57.94 0 0 8.15c0,0.28 0,0.48 0,0.62 0,0.11 0,0.18 0,0.18l-43.25 60.78c-10.61,15.77 -17.27,33.24 -19.99,52.4 -2.73,19.17 -4.1,43.05 -4.1,71.6 0,4.08 -1.42,7.63 -4.28,10.62 -2.85,3 -6.33,4.49 -10.4,4.49 -4.35,0 -7.95,-1.49 -10.81,-4.49 -2.86,-2.99 -4.29,-6.54 -4.29,-10.62z"/>
   <path class="fil2" d="M1104.03 369.27c-25.59,0 -42.99,-10.55 -52.24,-31.61 -9.25,-21.1 -13.87,-46.16 -13.87,-75.26 0,-18.25 1.64,-35.3 4.88,-51.2 3.28,-15.92 9.88,-29.48 19.8,-40.8 9.93,-11.28 23.72,-16.91 41.42,-16.91 13.87,0 25.17,3.4 33.88,10.23 8.7,6.79 15.36,15.49 19.97,26.11 4.64,10.58 7.79,22 9.41,34.21 1.63,12.26 2.46,25.03 2.46,38.37 0,17.93 -1.64,34.74 -4.91,50.37 -3.26,15.63 -9.71,28.96 -19.38,39.96 -9.67,10.99 -23.47,16.53 -41.42,16.53zm0 -8.18c11.7,0 20.41,-5.99 26.11,-17.93 5.71,-11.97 9.25,-25.16 10.61,-39.58 1.36,-14.41 2.04,-29.76 2.04,-46.08 0,-15.77 -0.68,-30.32 -2.04,-43.65 -1.36,-13.3 -4.89,-25.34 -10.61,-36.07 -5.7,-10.76 -14.41,-16.15 -26.11,-16.15 -11.7,0 -20.41,5.43 -26.12,16.33 -5.71,10.85 -9.25,22.9 -10.61,36.1 -1.35,13.19 -2.03,27.68 -2.03,43.45 0,11.42 0.27,22.31 0.81,32.61 0.53,10.34 2.03,21.03 4.49,32.03 2.44,11.03 6.37,20.26 11.83,27.74 5.44,7.45 12.64,11.21 21.63,11.21z"/>
   <polyline class="fil1 str2" points="1279.91,676.23 1546.34,679.19 1812.77,722.35 2079.2,720.89 2345.62,712.68 2612.07,771.45 2878.5,749.88 3144.93,746.15 3411.36,794.52 3677.79,822.01 3944.22,795.29 4210.65,802.74 4477.08,846.58 4743.5,883.05 5009.93,883.05 5276.35,883.78 5542.78,895.68 5809.21,883.78 6075.64,888.97 6342.11,923.97 6608.53,951.5 6874.95,969.33 7141.38,985.72 7407.81,996.12 7674.24,1008.02 7940.67,1015.5 8207.09,1029.6 8473.52,1026.64 8739.95,1039.31 9006.38,1051.21 9272.8,1055.66 9539.23,1070.52 9805.65,1071.25 10072.11,1063.84 10338.54,1080.19 10604.97,1097.28 10871.4,1082.42 11137.82,1081.69 11404.25,1096.55 11670.68,1101.77 11937.11,1074.97 12203.54,1057.89 12469.97,1098.78 12736.39,1104.76 13002.81,1072.75 13269.24,1117.39 13535.67,1130.79 13802.14,1088.37 14068.56,1123.34 14334.99,1153.86 14601.42,1106.99 14867.85,1166.49 15134.27,1117.39 15400.7,1176.17 15667.12,1130.79 15933.55,1169.45 16199.98,1181.35 16466.41,1142.69 "/>
   <path class="fil2" d="M365.99 1601.55c0,2.16 -1.49,3.24 -4.48,3.24 -0.55,0 -1.5,-0.14 -2.86,-0.38 -1.35,-0.28 -2.45,-0.76 -3.26,-1.42 -0.82,-0.7 -1.23,-1.43 -1.23,-2.27 0,-13.85 -0.81,-23.5 -2.46,-28.92 -1.08,-3.03 -4.07,-5.19 -8.97,-6.54l-186.52 -46.51c-2.17,-0.25 -3.8,-0.38 -4.9,-0.38 -2.44,0 -3.8,1.21 -4.07,3.65 -0.83,4.35 -1.24,12.5 -1.24,24.47 0,2.48 -1.49,3.69 -4.48,3.69 -0.54,-0.28 -1.5,-0.55 -2.86,-0.84 -1.34,-0.28 -2.43,-0.73 -3.26,-1.42 -0.82,-0.66 -1.22,-1.43 -1.22,-2.23l0 -117.07c0,-10.89 1.9,-21.33 5.72,-31.4 3.79,-10.06 9.57,-18.28 17.34,-24.68 7.75,-6.4 17.2,-9.57 28.36,-9.57 14.43,0 27.28,5.08 38.56,15.28 11.31,10.2 20.07,22.84 26.33,37.95 6.26,15.07 9.37,29.69 9.37,43.82l0 55.07 84.09 20.82c2.17,0.24 3.8,0.38 4.9,0.38 0.82,0 1.5,-0.15 2.04,-0.38 0.52,-0.29 0.95,-0.63 1.22,-1.05 0.26,-0.41 0.39,-1.15 0.39,-2.23 1.1,-4.35 1.64,-12.63 1.64,-24.89 0,-2.16 1.5,-3.24 4.49,-3.24 3.01,0.8 4.96,1.39 5.9,1.81 0.97,0.41 1.44,1.82 1.44,4.28l0 90.96zm-115.92 -88.11l0 -47.72c0,-22 -5.99,-38.75 -17.95,-50.17 -5.71,-5.7 -14.15,-10.48 -25.31,-14.31 -11.14,-3.79 -21.22,-5.67 -30.19,-5.67 -11.17,0 -19.05,4.28 -23.67,12.85 -4.63,8.57 -6.96,19.11 -6.96,31.61l0 32.65c0,6.24 0.56,10.3 1.65,12.23 1.09,1.91 4.35,3.65 9.81,5.29l92.62 23.25z"/>
   <path class="fil2" d="M423.02 1338.31c0,19.32 -7.96,32.38 -23.87,39.16 -15.93,6.79 -34.75,10.19 -56.52,10.19 -13.6,0 -26.4,-1.21 -38.38,-3.69 -11.97,-2.43 -22.16,-7.3 -30.61,-14.65 -8.44,-7.34 -12.65,-17.68 -12.65,-31.01 0,-10.34 2.52,-18.73 7.55,-25.27 5.03,-6.51 11.56,-11.56 19.6,-15.08 8.02,-3.58 16.59,-5.95 25.7,-7.16 9.13,-1.22 18.73,-1.82 28.79,-1.82 13.6,0 26.24,1.22 37.95,3.66 11.69,2.44 21.7,7.34 29.98,14.68 8.31,7.35 12.46,17.65 12.46,30.98zm-6.11 0c0,-8.7 -4.5,-15.22 -13.48,-19.57 -8.99,-4.35 -18.93,-7 -29.81,-7.93 -10.87,-0.98 -22.45,-1.46 -34.69,-1.46 -11.7,0 -22.52,0.48 -32.45,1.46 -9.93,0.94 -18.97,3.58 -27.14,7.93 -8.16,4.35 -12.25,10.86 -12.25,19.57 0,8.98 4.09,15.56 12.25,19.77 8.17,4.21 17.21,6.79 27.14,7.77 9.93,0.97 20.74,1.42 32.45,1.42 8.7,0 16.94,-0.21 24.71,-0.62 7.76,-0.38 15.71,-1.47 23.88,-3.28 8.14,-1.74 15.08,-4.67 20.82,-8.73 5.7,-4.08 8.57,-9.54 8.57,-16.33z"/>
   <path class="fil2" d="M450.08 1039.14c-9.81,12.5 -21.16,23.33 -34.08,32.42 -12.93,9.12 -26.66,16.6 -41.23,22.45 -14.55,5.85 -29.79,10.2 -45.7,13.05 -15.93,2.85 -31.9,4.28 -47.97,4.28 -16.33,0 -32.45,-1.43 -48.36,-4.28 -15.93,-2.85 -31.22,-7.2 -45.89,-13.05 -14.7,-5.85 -28.45,-13.4 -41.25,-22.63 -12.78,-9.26 -23.95,-20.01 -33.46,-32.24 -0.54,0 -0.82,-0.55 -0.82,-1.63l0 -3.28c0,-0.56 0.28,-1.08 0.82,-1.64 0.54,-0.52 1.2,-0.8 2.04,-0.8 1.09,0 1.91,0.14 2.45,0.41 10.6,11.14 22.09,20.37 34.48,27.71 12.37,7.35 25.58,13.26 39.6,17.76 14.02,4.49 28.5,7.76 43.46,9.78 14.96,2.05 30.61,3.06 46.94,3.06 71.85,0 126.52,-19.28 164.06,-57.92 0.54,-0.52 1.5,-0.8 2.88,-0.8 0.53,0 1.14,0.28 1.83,0.8 0.68,0.56 1.02,1.08 1.02,1.64l0 3.28c0,1.08 -0.27,1.63 -0.81,1.63z"/>
   <path class="fil2" d="M369.68 904.74l-213.07 69.34c-4.61,1.87 -7.53,5.36 -8.76,10.41 -1.22,5.01 -1.85,11.58 -1.85,19.77l-11.82 0 0 -90.96 11.82 0c0,19.04 3.01,28.55 8.99,28.55l1.62 0 167.36 -54.23 -142.84 -46.09 -24.51 7.73c-4.61,1.64 -7.53,5.05 -8.76,10.2 -1.22,5.19 -1.85,11.83 -1.85,19.98l-11.82 0 0 -90.93 11.82 0c0,19.29 3.01,28.93 8.99,28.93 0.27,0 0.74,-0.14 1.44,-0.38 0.68,-0.28 1.14,-0.41 1.4,-0.41l166.13 -53.82 -157.94 -51c-0.56,-0.29 -1.65,-0.42 -3.27,-0.42 -5.99,0 -10.28,3.14 -12.86,9.36 -2.59,6.27 -3.9,12.96 -3.9,20.02l-11.82 0 0 -72.62 11.82 0c0,17.68 6.68,28.69 20.02,33.04l203.66 66.1c2.44,0.8 3.66,2.54 3.66,5.29l0 2.44c0,2.44 -1.22,4.08 -3.66,4.9l-172.66 55.88 172.66 56.29c2.44,0.8 3.66,2.58 3.66,5.29l0 2.44c0,2.44 -1.22,4.08 -3.66,4.91z"/>
   <path class="fil2" d="M450.89 634.22c0,1.88 -0.95,2.85 -2.84,2.85 -1.1,0 -1.91,-0.14 -2.46,-0.41 -37.81,-38.88 -92.64,-58.31 -164.48,-58.31 -71.82,0 -126.51,19.14 -164.06,57.47 -0.55,0.84 -1.51,1.25 -2.86,1.25 -0.84,0 -1.5,-0.28 -2.04,-0.8 -0.54,-0.55 -0.82,-1.25 -0.82,-2.05l0 -3.27c0,-0.56 0.28,-1.09 0.82,-1.64 12.8,-16.29 28.38,-29.84 46.72,-40.6 18.36,-10.76 37.89,-18.62 58.56,-23.63 20.68,-5.04 41.91,-7.55 63.68,-7.55 16.06,0 31.83,1.35 47.34,4.07 15.52,2.71 30.82,7.04 45.92,12.89 15.1,5.81 29.04,13.29 41.84,22.41 12.78,9.09 24.07,19.91 33.88,32.42 0.54,0.55 0.81,1.08 0.81,1.64l0 3.27z"/>
   <polygon class="fil0" points="1279.91,3837.23 17265.64,3837.23 17265.64,2375.42 1279.91,2375.42 "/>
   <line class="fil1 str0" x1="1279.91" y1="3837.2" x2="1279.91" y2= "2375.4" />
   <line class="fil1 str0" x1="6608.53" y1="3837.2" x2="6608.53" y2= "2375.4" />
   <line class="fil1 str0" x1="11937.11" y1="3837.2" x2="11937.11" y2= "2375.4" />
   <line class="fil1 str0" x1="17265.69" y1="3837.2" x2="17265.69" y2= "2375.4" />
   <line class="fil1 str0" x1="17265.69" y1="3837.2" x2="1279.91" y2= "3837.2" />
   <line class="fil1 str0" x1="17265.69" y1="3106.31" x2="1279.91" y2= "3106.31" />
   <line class="fil1 str0" x1="17265.69" y1="2375.4" x2="1279.91" y2= "2375.4" />
   <line class="fil1 str1" x1="1279.91" y1="3837.2" x2="17265.69" y2= "3837.2" />
   <line class="fil1 str1" x1="1279.91" y1="3837.2" x2="1279.91" y2= "3677.47" />
   <line class="fil1 str1" x1="6608.53" y1="3837.2" x2="6608.53" y2= "3677.47" />
   <line class="fil1 str1" x1="11937.11" y1="3837.2" x2="11937.11" y2= "3677.47" />
   <line class="fil1 str1" x1="17265.69" y1="3837.2" x2="17265.69" y2= "3677.47" />
   <path class="fil2" d="M1279.91 4204.76c-25.6,0 -43,-10.55 -52.24,-31.61 -9.25,-21.1 -13.87,-46.2 -13.87,-75.26 0,-18.25 1.63,-35.31 4.88,-51.21 3.28,-15.91 9.87,-29.51 19.79,-40.79 9.93,-11.28 23.73,-16.92 41.43,-16.92 13.86,0 25.17,3.41 33.88,10.2 8.69,6.79 15.37,15.49 20,26.11 4.62,10.62 7.75,22.03 9.38,34.25 1.63,12.22 2.46,25.02 2.46,38.37 0,17.92 -1.65,34.7 -4.92,50.36 -3.25,15.63 -9.71,28.93 -19.38,39.96 -9.66,11.03 -23.47,16.54 -41.41,16.54zm0 -8.18c11.69,0 20.4,-5.99 26.11,-17.93 5.72,-11.98 9.25,-25.17 10.61,-39.58 1.35,-14.42 2.03,-29.76 2.03,-46.09 0,-15.77 -0.68,-30.32 -2.03,-43.65 -1.36,-13.33 -4.88,-25.34 -10.61,-36.06 -5.71,-10.77 -14.42,-16.15 -26.11,-16.15 -11.7,0 -20.41,5.47 -26.12,16.32 -5.71,10.86 -9.25,22.9 -10.61,36.1 -1.36,13.2 -2.04,27.68 -2.04,43.45 0,11.42 0.28,22.28 0.82,32.62 0.53,10.33 2.02,21.02 4.49,32.02 2.43,11.04 6.37,20.26 11.82,27.71 5.45,7.52 12.65,11.25 21.64,11.25z"/>
   <path class="fil2" d="M6557.44 4162.32c2.19,5.96 5.47,11.46 9.82,16.51 4.35,5.01 9.57,8.91 15.7,11.65 6.13,2.68 12.46,4.05 18.98,4.05 14.97,0 25.3,-5.85 31.04,-17.54 5.71,-11.66 8.57,-25.83 8.57,-42.4 0,-7.35 -0.07,-13.47 -0.21,-18.34 -0.14,-4.91 -0.91,-9.68 -2.26,-14.28 -1.88,-7.34 -5.22,-13.81 -10,-19.39 -4.77,-5.57 -10.69,-8.35 -17.75,-8.35 -7.1,0 -13.12,1.08 -18.17,3.27 -5.01,2.16 -9.13,4.71 -12.26,7.56 -3.1,2.85 -5.88,5.81 -8.36,8.94 -2.44,3.14 -4.08,4.85 -4.9,5.12l-3.28 0c-0.52,0 -1.21,-0.35 -2.02,-1.01 -0.83,-0.7 -1.25,-1.29 -1.25,-1.85l0 -104.81c0,-0.29 0.38,-0.77 1.05,-1.43 0.7,-0.7 1.43,-1.05 2.23,-1.05l0.84 0c14.17,6.83 29.1,10.2 44.91,10.2 15.48,0 30.45,-3.37 44.87,-10.2l0.84 0c0.8,0 1.49,0.28 2.05,0.8 0.52,0.56 0.8,1.12 0.8,1.68l0 3.24c0,0.83 -0.14,1.25 -0.41,1.25 -7.35,9.5 -16.4,16.88 -27.16,22.2 -10.73,5.3 -21.83,7.97 -33.24,7.97 -8.43,0 -17.02,-1.12 -25.73,-3.27l0 59.11c6.82,-5.71 12.95,-9.78 18.34,-12.22 5.47,-2.44 12.56,-3.69 21.26,-3.69 11.43,0 21.69,3.34 30.81,10.03 9.13,6.64 16.12,15.34 21,26.07 4.9,10.76 7.38,21.58 7.38,32.45 0,12.78 -3.07,24.47 -9.2,35.09 -6.13,10.58 -14.48,19.07 -25.09,25.48 -10.62,6.4 -22.17,9.61 -34.7,9.61 -10.34,0 -19.77,-2.68 -28.34,-7.97 -8.59,-5.29 -15.38,-12.46 -20.44,-21.41 -5.01,-8.98 -7.55,-18.48 -7.55,-28.54 0,-4.91 1.56,-8.77 4.7,-11.63 3.13,-2.88 7,-4.31 11.66,-4.31 4.59,0 8.39,1.5 11.38,4.49 3.03,2.99 4.53,6.79 4.53,11.46 0,4.35 -1.5,8.07 -4.53,11.21 -2.99,3.1 -6.79,4.66 -11.38,4.66 -0.84,0 -1.75,-0.07 -2.68,-0.21 -0.98,-0.1 -1.57,-0.18 -1.85,-0.18z"/>
   <path class="fil2" d="M11809.27 4197.79l0 -10.99c26.11,0 39.16,-3.28 39.16,-9.82l0 -164.76c-10.58,5.43 -24.2,8.14 -40.79,8.14l0 -11c25.58,0 44.9,-6.78 57.95,-20.4l4.49 0c0.56,0 1.18,0.35 1.85,1.05 0.66,0.66 1.02,1.25 1.02,1.81l0 185.17c0,6.54 13.05,9.82 39.19,9.82l0 10.99 -102.87 0z"/>
   <path class="fil2" d="M12015.39 4204.76c-25.59,0 -42.99,-10.55 -52.25,-31.61 -9.26,-21.1 -13.85,-46.2 -13.85,-75.26 0,-18.25 1.6,-35.31 4.87,-51.21 3.28,-15.91 9.89,-29.51 19.8,-40.79 9.93,-11.28 23.74,-16.92 41.42,-16.92 13.89,0 25.17,3.41 33.88,10.2 8.7,6.79 15.38,15.49 20.01,26.11 4.6,10.62 7.73,22.03 9.36,34.25 1.64,12.22 2.48,25.02 2.48,38.37 0,17.92 -1.64,34.7 -4.91,50.36 -3.27,15.63 -9.74,28.93 -19.39,39.96 -9.67,11.03 -23.5,16.54 -41.42,16.54zm0 -8.18c11.7,0 20.41,-5.99 26.11,-17.93 5.71,-11.98 9.27,-25.17 10.62,-39.58 1.36,-14.42 2.02,-29.76 2.02,-46.09 0,-15.77 -0.66,-30.32 -2.02,-43.65 -1.35,-13.33 -4.9,-25.34 -10.62,-36.06 -5.7,-10.77 -14.41,-16.15 -26.11,-16.15 -11.69,0 -20.44,5.47 -26.14,16.32 -5.71,10.86 -9.23,22.9 -10.59,36.1 -1.35,13.2 -2.05,27.68 -2.05,43.45 0,11.42 0.29,22.28 0.84,32.62 0.52,10.33 2.02,21.02 4.46,32.02 2.47,11.04 6.4,20.26 11.87,27.71 5.43,7.52 12.63,11.25 21.61,11.25z"/>
   <path class="fil2" d="M17137.85 4197.79l0 -10.99c26.11,0 39.16,-3.28 39.16,-9.82l0 -164.76c-10.62,5.43 -24.2,8.14 -40.8,8.14l0 -11c25.59,0 44.91,-6.78 57.96,-20.4l4.45 0c0.56,0 1.18,0.35 1.88,1.05 0.66,0.66 1.01,1.25 1.01,1.81l0 185.17c0,6.54 13.05,9.82 39.16,9.82l0 10.99 -102.83 0z"/>
   <path class="fil2" d="M17292.93 4162.32c2.19,5.96 5.43,11.46 9.78,16.51 4.35,5.01 9.61,8.91 15.74,11.65 6.09,2.68 12.42,4.05 18.98,4.05 14.96,0 25.3,-5.85 31.01,-17.54 5.7,-11.66 8.57,-25.83 8.57,-42.4 0,-7.35 -0.04,-13.47 -0.18,-18.34 -0.14,-4.91 -0.91,-9.68 -2.26,-14.28 -1.91,-7.34 -5.22,-13.81 -10,-19.39 -4.77,-5.57 -10.69,-8.35 -17.75,-8.35 -7.1,0 -13.12,1.08 -18.17,3.27 -5.05,2.16 -9.13,4.71 -12.26,7.56 -3.1,2.85 -5.88,5.81 -8.36,8.94 -2.44,3.14 -4.08,4.85 -4.87,5.12l-3.27 0c-0.56,0 -1.25,-0.35 -2.09,-1.01 -0.8,-0.7 -1.18,-1.29 -1.18,-1.85l0 -104.81c0,-0.29 0.35,-0.77 1.01,-1.43 0.7,-0.7 1.43,-1.05 2.27,-1.05l0.8 0c14.13,6.83 29.1,10.2 44.91,10.2 15.48,0 30.45,-3.37 44.87,-10.2l0.84 0c0.8,0 1.49,0.28 2.05,0.8 0.52,0.56 0.8,1.12 0.8,1.68l0 3.24c0,0.83 -0.14,1.25 -0.42,1.25 -7.34,9.5 -16.39,16.88 -27.15,22.2 -10.73,5.3 -21.83,7.97 -33.24,7.97 -8.46,0 -17.02,-1.12 -25.73,-3.27l0 59.11c6.79,-5.71 12.95,-9.78 18.37,-12.22 5.44,-2.44 12.5,-3.69 21.24,-3.69 11.42,0 21.69,3.34 30.81,10.03 9.09,6.64 16.12,15.34 21,26.07 4.9,10.76 7.38,21.58 7.38,32.45 0,12.78 -3.07,24.47 -9.2,35.09 -6.13,10.58 -14.48,19.07 -25.13,25.48 -10.58,6.4 -22.13,9.61 -34.67,9.61 -10.34,0 -19.81,-2.68 -28.38,-7.97 -8.56,-5.29 -15.34,-12.46 -20.4,-21.41 -5.01,-8.98 -7.55,-18.48 -7.55,-28.54 0,-4.91 1.56,-8.77 4.7,-11.63 3.13,-2.88 7,-4.31 11.62,-4.31 4.63,0 8.43,1.5 11.42,4.49 3,2.99 4.49,6.79 4.49,11.46 0,4.35 -1.49,8.07 -4.49,11.21 -2.99,3.1 -6.79,4.66 -11.42,4.66 -0.8,0 -1.71,-0.07 -2.64,-0.21 -0.94,-0.1 -1.57,-0.18 -1.85,-0.18z"/>
   <line class="fil1 str1" x1="1279.91" y1="3837.2" x2="1279.91" y2= "2375.4" />
   <line class="fil1 str1" x1="1279.91" y1="3837.2" x2="1439.78" y2= "3837.2" />
   <line class="fil1 str1" x1="1279.91" y1="3106.31" x2="1439.78" y2= "3106.31" />
   <line class="fil1 str1" x1="1279.91" y1="2375.4" x2="1439.78" y2= "2375.4" />
   <polygon class="fil2" points="681.05,3854.49 763.92,3854.49 763.92,3834.91 681.05,3834.91 "/>
   <path class="fil2" d="M860.25 3919.35c-25.58,0 -42.99,-10.52 -52.25,-31.62 -9.26,-21.06 -13.89,-46.15 -13.89,-75.26 0,-18.21 1.65,-35.26 4.91,-51.17 3.26,-15.91 9.86,-29.51 19.79,-40.79 9.93,-11.28 23.74,-16.92 41.43,-16.92 13.85,0 25.14,3.41 33.85,10.2 8.71,6.79 15.38,15.49 20.01,26.11 4.63,10.58 7.76,22 9.37,34.22 1.65,12.25 2.46,25.02 2.46,38.36 0,17.97 -1.63,34.74 -4.87,50.37 -3.28,15.63 -9.74,28.96 -19.39,39.96 -9.66,11.03 -23.48,16.54 -41.42,16.54zm0 -8.15c11.68,0 20.39,-5.99 26.12,-17.96 5.71,-11.98 9.25,-25.17 10.61,-39.55 1.36,-14.41 2.02,-29.8 2.02,-46.12 0,-15.77 -0.66,-30.32 -2.02,-43.65 -1.36,-13.3 -4.89,-25.31 -10.61,-36.07 -5.73,-10.76 -14.44,-16.11 -26.12,-16.11 -11.71,0 -20.41,5.43 -26.12,16.29 -5.72,10.89 -9.28,22.9 -10.64,36.1 -1.36,13.19 -2.03,27.68 -2.03,43.45 0,11.46 0.27,22.31 0.81,32.61 0.56,10.34 2.05,21.03 4.49,32.03 2.46,11.03 6.4,20.26 11.83,27.75 5.45,7.48 12.67,11.24 21.66,11.24z"/>
   <path class="fil2" d="M965.11 3895.29c0,-4.91 1.72,-8.98 5.13,-12.26 3.38,-3.27 7.41,-4.9 12.04,-4.9 2.71,0 5.51,0.73 8.36,2.22 2.86,1.5 5.03,3.62 6.52,6.37 1.5,2.71 2.25,5.58 2.25,8.57 0,4.35 -1.71,8.29 -5.11,11.8 -3.4,3.55 -7.4,5.33 -12.02,5.33 -4.63,0 -8.65,-1.78 -12.04,-5.33 -3.41,-3.51 -5.13,-7.45 -5.13,-11.8z"/>
   <path class="fil2" d="M1054.63 3912.42l0 -11.04c26.12,0 39.17,-3.24 39.17,-9.78l0 -164.76c-10.59,5.43 -24.21,8.14 -40.79,8.14l0 -11.03c25.58,0 44.9,-6.79 57.97,-20.37l4.46 0c0.55,0 1.16,0.36 1.85,1.02 0.68,0.66 1.02,1.28 1.02,1.85l0 185.16c0,6.54 13.07,9.78 39.19,9.78l0 11.04 -102.87 0z"/>
   <path class="fil2" d="M1104.03 3188.45c-25.59,0 -42.99,-10.55 -52.24,-31.61 -9.25,-21.06 -13.87,-46.16 -13.87,-75.26 0,-18.24 1.64,-35.27 4.88,-51.17 3.28,-15.91 9.88,-29.51 19.8,-40.83 9.93,-11.24 23.72,-16.88 41.42,-16.88 13.87,0 25.17,3.37 33.88,10.2 8.7,6.79 15.36,15.49 19.97,26.11 4.64,10.58 7.79,22 9.41,34.21 1.63,12.26 2.46,25.03 2.46,38.37 0,17.96 -1.64,34.74 -4.91,50.37 -3.26,15.63 -9.71,28.96 -19.38,39.96 -9.67,11.03 -23.47,16.53 -41.42,16.53zm0 -8.18c11.7,0 20.41,-5.95 26.11,-17.92 5.71,-11.98 9.25,-25.17 10.61,-39.59 1.36,-14.41 2.04,-29.76 2.04,-46.08 0,-15.77 -0.68,-30.32 -2.04,-43.65 -1.36,-13.3 -4.89,-25.34 -10.61,-36.07 -5.7,-10.76 -14.41,-16.15 -26.11,-16.15 -11.7,0 -20.41,5.47 -26.12,16.33 -5.71,10.89 -9.25,22.9 -10.61,36.1 -1.35,13.19 -2.03,27.68 -2.03,43.45 0,11.42 0.27,22.31 0.81,32.61 0.53,10.34 2.03,21.03 4.49,32.03 2.44,11.03 6.37,20.26 11.83,27.74 5.44,7.49 12.64,11.21 21.63,11.21z"/>
   <path class="fil2" d="M860.25 2457.55c-25.58,0 -42.99,-10.55 -52.25,-31.61 -9.26,-21.1 -13.89,-46.16 -13.89,-75.26 0,-18.25 1.65,-35.3 4.91,-51.17 3.26,-15.95 9.86,-29.52 19.79,-40.83 9.93,-11.28 23.74,-16.92 41.43,-16.92 13.85,0 25.14,3.41 33.85,10.24 8.71,6.79 15.38,15.48 20.01,26.1 4.63,10.59 7.76,22 9.37,34.22 1.65,12.26 2.46,25.03 2.46,38.37 0,17.93 -1.63,34.74 -4.87,50.37 -3.28,15.63 -9.74,28.96 -19.39,39.95 -9.66,11.04 -23.48,16.54 -41.42,16.54zm0 -8.18c11.68,0 20.39,-5.99 26.12,-17.93 5.71,-11.97 9.25,-25.16 10.61,-39.58 1.36,-14.41 2.02,-29.76 2.02,-46.09 0,-15.77 -0.66,-30.31 -2.02,-43.64 -1.36,-13.3 -4.89,-25.35 -10.61,-36.07 -5.73,-10.76 -14.44,-16.15 -26.12,-16.15 -11.71,0 -20.41,5.47 -26.12,16.32 -5.72,10.9 -9.28,22.91 -10.64,36.11 -1.36,13.19 -2.03,27.67 -2.03,43.44 0,11.43 0.27,22.32 0.81,32.62 0.56,10.34 2.05,21.03 4.49,32.03 2.46,11.03 6.4,20.26 11.83,27.74 5.45,7.49 12.67,11.21 21.66,11.21z"/>
   <path class="fil2" d="M965.11 2433.47c0,-4.9 1.72,-8.98 5.13,-12.22 3.38,-3.28 7.41,-4.91 12.04,-4.91 2.71,0 5.51,0.73 8.36,2.23 2.86,1.5 5.03,3.62 6.52,6.37 1.5,2.67 2.25,5.54 2.25,8.53 0,4.35 -1.71,8.32 -5.11,11.83 -3.4,3.55 -7.4,5.33 -12.02,5.33 -4.63,0 -8.65,-1.78 -12.04,-5.33 -3.41,-3.51 -5.13,-7.48 -5.13,-11.83z"/>
   <path class="fil2" d="M1054.63 2450.63l0 -11.03c26.12,0 39.17,-3.28 39.17,-9.78l0 -164.76c-10.59,5.43 -24.21,8.14 -40.79,8.14l0 -11.03c25.58,0 44.9,-6.79 57.97,-20.41l4.46 0c0.55,0 1.16,0.36 1.85,1.05 0.68,0.66 1.02,1.29 1.02,1.82l0 185.2c0,6.5 13.07,9.78 39.19,9.78l0 11.03 -102.87 0z"/>
   <line class="fil1 str2" x1="1279.91" y1="3106.31" x2="16466.41" y2= "3106.31" />
   <polygon class="fil0" points="1279.91,5925.49 17265.64,5925.49 17265.64,4437.59 1279.91,4437.59 "/>
   <line class="fil1 str0" x1="1279.91" y1="5925.49" x2="1279.91" y2= "4437.6" />
   <line class="fil1 str0" x1="6608.53" y1="5925.49" x2="6608.53" y2= "4437.6" />
   <line class="fil1 str0" x1="11937.11" y1="5925.49" x2="11937.11" y2= "4437.6" />
   <line class="fil1 str0" x1="17265.69" y1="5925.49" x2="17265.69" y2= "4437.6" />
   <line class="fil1 str0" x1="17265.69" y1="5925.49" x2="1279.91" y2= "5925.49" />
   <line class="fil1 str0" x1="17265.69" y1="5181.55" x2="1279.91" y2= "5181.55" />
   <line class="fil1 str0" x1="17265.69" y1="4437.6" x2="1279.91" y2= "4437.6" />
   <line class="fil1 str1" x1="1279.91" y1="5925.49" x2="17265.69" y2= "5925.49" />
   <line class="fil1 str1" x1="1279.91" y1="5925.49" x2="1279.91" y2= "5765.73" />
   <line class="fil1 str1" x1="6608.53" y1="5925.49" x2="6608.53" y2= "5765.73" />
   <line class="fil1 str1" x1="11937.11" y1="5925.49" x2="11937.11" y2= "5765.73" />
   <line class="fil1 str1" x1="17265.69" y1="5925.49" x2="17265.69" y2= "5765.73" />
   <path class="fil2" d="M1279.91 6293.02c-25.6,0 -43,-10.53 -52.24,-31.61 -9.25,-21.08 -13.87,-46.16 -13.87,-75.26 0,-18.21 1.63,-35.28 4.88,-51.18 3.28,-15.91 9.87,-29.51 19.79,-40.79 9.93,-11.29 23.73,-16.92 41.43,-16.92 13.86,0 25.17,3.4 33.88,10.2 8.69,6.79 15.37,15.49 20,26.11 4.62,10.59 7.75,22.01 9.38,34.24 1.63,12.24 2.46,25.01 2.46,38.35 0,17.95 -1.65,34.74 -4.92,50.37 -3.25,15.64 -9.71,28.95 -19.38,39.96 -9.66,11.02 -23.47,16.53 -41.41,16.53zm0 -8.16c11.69,0 20.4,-5.98 26.11,-17.94 5.72,-11.98 9.25,-25.16 10.61,-39.57 1.35,-14.42 2.03,-29.78 2.03,-46.09 0,-15.78 -0.68,-30.32 -2.03,-43.65 -1.36,-13.31 -4.88,-25.33 -10.61,-36.08 -5.71,-10.76 -14.42,-16.12 -26.11,-16.12 -11.7,0 -20.41,5.44 -26.12,16.3 -5.71,10.87 -9.25,22.91 -10.61,36.11 -1.36,13.18 -2.04,27.67 -2.04,43.45 0,11.42 0.28,22.3 0.82,32.62 0.53,10.33 2.02,21.01 4.49,32.02 2.43,11.02 6.37,20.26 11.82,27.73 5.45,7.47 12.65,11.23 21.64,11.23z"/>
   <path class="fil2" d="M6557.44 6250.61c2.19,5.97 5.47,11.46 9.82,16.49 4.35,5.03 9.57,8.91 15.7,11.64 6.13,2.71 12.46,4.08 18.98,4.08 14.97,0 25.3,-5.84 31.04,-17.53 5.71,-11.7 8.57,-25.84 8.57,-42.43 0,-7.34 -0.07,-13.45 -0.21,-18.34 -0.14,-4.89 -0.91,-9.65 -2.26,-14.28 -1.88,-7.34 -5.22,-13.8 -10,-19.36 -4.77,-5.58 -10.69,-8.37 -17.75,-8.37 -7.1,0 -13.12,1.1 -18.17,3.27 -5.01,2.18 -9.13,4.69 -12.26,7.55 -3.1,2.85 -5.88,5.83 -8.36,8.95 -2.44,3.14 -4.08,4.84 -4.9,5.12l-3.28 0c-0.52,0 -1.21,-0.34 -2.02,-1.02 -0.83,-0.68 -1.25,-1.3 -1.25,-1.86l0 -104.8c0,-0.27 0.38,-0.76 1.05,-1.42 0.7,-0.68 1.43,-1.03 2.23,-1.03l0.84 0c14.17,6.8 29.1,10.2 44.91,10.2 15.48,0 30.45,-3.4 44.87,-10.2l0.84 0c0.8,0 1.49,0.28 2.05,0.81 0.52,0.54 0.8,1.09 0.8,1.64l0 3.27c0,0.82 -0.14,1.22 -0.41,1.22 -7.35,9.51 -16.4,16.91 -27.16,22.22 -10.73,5.3 -21.83,7.95 -33.24,7.95 -8.43,0 -17.02,-1.09 -25.73,-3.27l0 59.13c6.82,-5.69 12.95,-9.78 18.34,-12.21 5.47,-2.45 12.56,-3.69 21.26,-3.69 11.43,0 21.69,3.34 30.81,10.02 9.13,6.66 16.12,15.36 21,26.09 4.9,10.75 7.38,21.55 7.38,32.42 0,12.78 -3.07,24.47 -9.2,35.08 -6.13,10.61 -14.48,19.09 -25.09,25.49 -10.62,6.4 -22.17,9.6 -34.7,9.6 -10.34,0 -19.77,-2.65 -28.34,-7.95 -8.59,-5.31 -15.38,-12.44 -20.44,-21.4 -5.01,-8.99 -7.55,-18.51 -7.55,-28.56 0,-4.9 1.56,-8.77 4.7,-11.62 3.13,-2.87 7,-4.3 11.66,-4.3 4.59,0 8.39,1.5 11.38,4.49 3.03,2.99 4.53,6.8 4.53,11.44 0,4.35 -1.5,8.09 -4.53,11.21 -2.99,3.12 -6.79,4.69 -11.38,4.69 -0.84,0 -1.75,-0.07 -2.68,-0.22 -0.98,-0.13 -1.57,-0.18 -1.85,-0.18z"/>
   <path class="fil2" d="M11809.27 6286.09l0 -11.01c26.11,0 39.16,-3.27 39.16,-9.79l0 -164.77c-10.58,5.43 -24.2,8.14 -40.79,8.14l0 -11.01c25.58,0 44.9,-6.8 57.95,-20.39l4.49 0c0.56,0 1.18,0.35 1.85,1.03 0.66,0.66 1.02,1.27 1.02,1.82l0 185.19c0,6.52 13.05,9.79 39.19,9.79l0 11.01 -102.87 0z"/>
   <path class="fil2" d="M12015.39 6293.02c-25.59,0 -42.99,-10.53 -52.25,-31.61 -9.26,-21.08 -13.85,-46.16 -13.85,-75.26 0,-18.21 1.6,-35.28 4.87,-51.18 3.28,-15.91 9.89,-29.51 19.8,-40.79 9.93,-11.29 23.74,-16.92 41.42,-16.92 13.89,0 25.17,3.4 33.88,10.2 8.7,6.79 15.38,15.49 20.01,26.11 4.6,10.59 7.73,22.01 9.36,34.24 1.64,12.24 2.48,25.01 2.48,38.35 0,17.95 -1.64,34.74 -4.91,50.37 -3.27,15.64 -9.74,28.95 -19.39,39.96 -9.67,11.02 -23.5,16.53 -41.42,16.53zm0 -8.16c11.7,0 20.41,-5.98 26.11,-17.94 5.71,-11.98 9.27,-25.16 10.62,-39.57 1.36,-14.42 2.02,-29.78 2.02,-46.09 0,-15.78 -0.66,-30.32 -2.02,-43.65 -1.35,-13.31 -4.9,-25.33 -10.62,-36.08 -5.7,-10.76 -14.41,-16.12 -26.11,-16.12 -11.69,0 -20.44,5.44 -26.14,16.3 -5.71,10.87 -9.23,22.91 -10.59,36.11 -1.35,13.18 -2.05,27.67 -2.05,43.45 0,11.42 0.29,22.3 0.84,32.62 0.52,10.33 2.02,21.01 4.46,32.02 2.47,11.02 6.4,20.26 11.87,27.73 5.43,7.47 12.63,11.23 21.61,11.23z"/>
   <path class="fil2" d="M17137.85 6286.09l0 -11.01c26.11,0 39.16,-3.27 39.16,-9.79l0 -164.77c-10.62,5.43 -24.2,8.14 -40.8,8.14l0 -11.01c25.59,0 44.91,-6.8 57.96,-20.39l4.45 0c0.56,0 1.18,0.35 1.88,1.03 0.66,0.66 1.01,1.27 1.01,1.82l0 185.19c0,6.52 13.05,9.79 39.16,9.79l0 11.01 -102.83 0z"/>
   <path class="fil2" d="M17292.93 6250.61c2.19,5.97 5.43,11.46 9.78,16.49 4.35,5.03 9.61,8.91 15.74,11.64 6.09,2.71 12.42,4.08 18.98,4.08 14.96,0 25.3,-5.84 31.01,-17.53 5.7,-11.7 8.57,-25.84 8.57,-42.43 0,-7.34 -0.04,-13.45 -0.18,-18.34 -0.14,-4.89 -0.91,-9.65 -2.26,-14.28 -1.91,-7.34 -5.22,-13.8 -10,-19.36 -4.77,-5.58 -10.69,-8.37 -17.75,-8.37 -7.1,0 -13.12,1.1 -18.17,3.27 -5.05,2.18 -9.13,4.69 -12.26,7.55 -3.1,2.85 -5.88,5.83 -8.36,8.95 -2.44,3.14 -4.08,4.84 -4.87,5.12l-3.27 0c-0.56,0 -1.25,-0.34 -2.09,-1.02 -0.8,-0.68 -1.18,-1.3 -1.18,-1.86l0 -104.8c0,-0.27 0.35,-0.76 1.01,-1.42 0.7,-0.68 1.43,-1.03 2.27,-1.03l0.8 0c14.13,6.8 29.1,10.2 44.91,10.2 15.48,0 30.45,-3.4 44.87,-10.2l0.84 0c0.8,0 1.49,0.28 2.05,0.81 0.52,0.54 0.8,1.09 0.8,1.64l0 3.27c0,0.82 -0.14,1.22 -0.42,1.22 -7.34,9.51 -16.39,16.91 -27.15,22.22 -10.73,5.3 -21.83,7.95 -33.24,7.95 -8.46,0 -17.02,-1.09 -25.73,-3.27l0 59.13c6.79,-5.69 12.95,-9.78 18.37,-12.21 5.44,-2.45 12.5,-3.69 21.24,-3.69 11.42,0 21.69,3.34 30.81,10.02 9.09,6.66 16.12,15.36 21,26.09 4.9,10.75 7.38,21.55 7.38,32.42 0,12.78 -3.07,24.47 -9.2,35.08 -6.13,10.61 -14.48,19.09 -25.13,25.49 -10.58,6.4 -22.13,9.6 -34.67,9.6 -10.34,0 -19.81,-2.65 -28.38,-7.95 -8.56,-5.31 -15.34,-12.44 -20.4,-21.4 -5.01,-8.99 -7.55,-18.51 -7.55,-28.56 0,-4.9 1.56,-8.77 4.7,-11.62 3.13,-2.87 7,-4.3 11.62,-4.3 4.63,0 8.43,1.5 11.42,4.49 3,2.99 4.49,6.8 4.49,11.44 0,4.35 -1.49,8.09 -4.49,11.21 -2.99,3.12 -6.79,4.69 -11.42,4.69 -0.8,0 -1.71,-0.07 -2.64,-0.22 -0.94,-0.13 -1.57,-0.18 -1.85,-0.18z"/>
   <line class="fil1 str1" x1="1279.91" y1="5925.49" x2="1279.91" y2= "4437.6" />
   <line class="fil1 str1" x1="1279.91" y1="5925.49" x2="1439.78" y2= "5925.49" />
   <line class="fil1 str1" x1="1279.91" y1="5181.55" x2="1439.78" y2= "5181.55" />
   <line class="fil1 str1" x1="1279.91" y1="4437.6" x2="1439.78" y2= "4437.6" />
   <path class="fil2" d="M897.91 6000.69l0 -11.01c26.12,0 39.17,-3.27 39.17,-9.8l0 -164.76c-10.6,5.42 -24.21,8.14 -40.79,8.14l0 -11.01c25.58,0 44.9,-6.8 57.95,-20.39l4.48 0c0.55,0 1.16,0.35 1.85,1.01 0.68,0.68 1.02,1.29 1.02,1.84l0 185.18c0,6.53 13.05,9.8 39.17,9.8l0 11.01 -102.85 0z"/>
   <path class="fil2" d="M1041.18 6000.69l0 -8.57c0,-0.54 0.28,-1.1 0.8,-1.65l48.56 -53.83c7.36,-7.88 13.34,-14.55 17.98,-20 4.61,-5.42 9.17,-11.67 13.67,-18.76 4.49,-7.07 8.04,-14.2 10.62,-21.4 2.59,-7.21 3.88,-14.89 3.88,-23.05 0,-8.7 -1.58,-16.93 -4.71,-24.67 -3.11,-7.75 -7.81,-14 -14.07,-18.77 -6.26,-4.76 -13.87,-7.12 -22.86,-7.12 -8.97,0 -17.13,2.77 -24.47,8.35 -7.35,5.57 -12.52,12.58 -15.51,21.01 0.82,0 2.03,0 3.68,0 4.61,0 8.56,1.57 11.83,4.71 3.26,3.12 4.88,7.11 4.88,12.01 0,4.91 -1.63,8.99 -4.88,12.25 -3.28,3.27 -7.22,4.9 -11.83,4.9 -4.9,0 -9.07,-1.71 -12.46,-5.11 -3.39,-3.4 -5.09,-7.41 -5.09,-12.04 0,-7.88 1.5,-15.22 4.49,-22 2.98,-6.82 7.26,-12.94 12.85,-18.36 5.58,-5.45 11.85,-9.6 18.78,-12.45 6.94,-2.84 14.35,-4.27 22.23,-4.27 11.98,0 23.13,2.59 33.47,7.76 10.34,5.16 18.5,12.29 24.5,21.4 5.98,9.11 8.97,19.91 8.97,32.42 0,8.97 -1.96,17.55 -5.92,25.72 -3.95,8.14 -9.06,15.54 -15.3,22.2 -6.26,6.68 -14.21,14.29 -23.88,22.84 -9.66,8.57 -15.99,14.21 -18.98,16.94l-35.5 34.25 29.8 0c14.96,0 27.4,-0.13 37.33,-0.38 9.94,-0.29 15.18,-0.7 15.72,-1.23 2.46,-2.73 5.04,-12.39 7.77,-28.97l8.97 0 -8.97 55.89 -116.32 0z"/>
   <path class="fil2" d="M897.91 5256.75l0 -11.03c26.12,0 39.17,-3.24 39.17,-9.78l0 -164.76c-10.6,5.43 -24.21,8.14 -40.79,8.14l0 -11.03c25.58,0 44.9,-6.79 57.95,-20.37l4.48 0c0.55,0 1.16,0.35 1.85,1.01 0.68,0.66 1.02,1.29 1.02,1.82l0 185.2c0,6.54 13.05,9.78 39.17,9.78l0 11.03 -102.85 0z"/>
   <path class="fil2" d="M1055.47 5232.66c4.88,7.07 11.48,12.32 19.77,15.7 8.31,3.41 17.22,5.12 26.75,5.12 11.96,0 20.53,-5.19 25.7,-15.53 5.17,-10.33 7.76,-22.03 7.76,-35.09 0,-5.95 -0.53,-11.87 -1.62,-17.71 -1.09,-5.85 -2.93,-11.35 -5.51,-16.51 -2.61,-5.18 -6.07,-9.26 -10.42,-12.25 -4.36,-3 -9.81,-4.49 -16.33,-4.49l-20.82 0c-1.9,0 -2.84,-0.95 -2.84,-2.86l0 -2.81c0,-1.64 0.94,-2.48 2.84,-2.48l17.16 -1.64c7.33,0 13.45,-2.71 18.36,-8.14 4.89,-5.47 8.5,-12.12 10.82,-19.98 2.32,-7.9 3.47,-15.38 3.47,-22.46 0,-10.06 -2.38,-18.28 -7.15,-24.64 -4.76,-6.4 -11.9,-9.61 -21.41,-9.61 -7.89,0 -15.52,1.5 -22.86,4.49 -7.34,3 -13.05,7.49 -17.13,13.47 0.26,0 0.53,-0.07 0.8,-0.21 0.28,-0.14 0.68,-0.21 1.24,-0.21 4.61,0 8.49,1.64 11.6,4.91 3.15,3.24 4.71,7.2 4.71,11.79 0,4.64 -1.56,8.57 -4.71,11.84 -3.12,3.28 -7,4.87 -11.6,4.87 -4.64,0 -8.58,-1.6 -11.83,-4.87 -3.29,-3.28 -4.92,-7.2 -4.92,-11.84 0,-8.94 2.73,-16.71 8.18,-23.25 5.43,-6.51 12.36,-11.56 20.8,-15.08 8.44,-3.54 17.01,-5.29 25.73,-5.29 6.24,0 12.91,0.94 19.97,2.82 7.09,1.94 13.49,4.67 19.2,8.18 5.71,3.51 10.33,8.07 13.87,13.65 3.53,5.6 5.3,11.94 5.3,18.97 0,8.7 -1.9,16.81 -5.72,24.3 -3.8,7.45 -9.17,13.85 -16.11,19.14 -6.94,5.33 -14.49,9.33 -22.65,12.05 9.25,1.64 17.95,5.01 26.13,10.16 8.16,5.18 14.68,11.69 19.58,19.6 4.89,7.9 7.34,16.47 7.34,25.69 0,11.7 -3.13,22.18 -9.38,31.41 -6.24,9.26 -14.54,16.53 -24.89,21.82 -10.34,5.33 -21.23,7.97 -32.64,7.97 -9.81,0 -19.68,-1.91 -29.6,-5.7 -9.93,-3.83 -18.02,-9.4 -24.28,-16.75 -6.26,-7.34 -9.38,-16.29 -9.38,-26.91 0,-5.19 1.77,-9.47 5.3,-12.85 3.54,-3.41 7.88,-5.11 13.06,-5.11 3.27,0 6.34,0.76 9.2,2.26 2.85,1.5 5.09,3.65 6.72,6.51 1.63,2.85 2.45,5.91 2.45,9.19 0,5.15 -1.84,9.5 -5.51,13.05 -3.67,3.51 -7.96,5.29 -12.86,5.29l-1.62 0z"/>
   <path class="fil2" d="M897.91 4512.8l0 -11.03c26.12,0 39.17,-3.28 39.17,-9.78l0 -164.76c-10.6,5.43 -24.21,8.14 -40.79,8.14l0 -11.03c25.58,0 44.9,-6.79 57.95,-20.37l4.48 0c0.55,0 1.16,0.35 1.85,1.01 0.68,0.66 1.02,1.29 1.02,1.82l0 185.2c0,6.5 13.05,9.78 39.17,9.78l0 11.03 -102.85 0z"/>
   <path class="fil2" d="M1034.23 4461l0 -11.03 97.15 -144.4c0.52,-1.08 1.62,-1.6 3.26,-1.6l4.49 0c2.45,0 3.66,1.21 3.66,3.65l0 142.35 30.61 0 0 11.03 -30.61 0 0 30.98c0,4.07 3.07,6.71 9.19,7.93 6.13,1.25 13.12,1.85 21.04,1.85l0 11.03 -86.13 0 0 -11.03c7.89,0 14.89,-0.59 21.01,-1.85 6.13,-1.22 9.19,-3.87 9.19,-7.93l0 -30.98 -82.85 0zm10.61 -11.03l74.28 0 0 -110.91 -74.28 110.91z"/>
   <polyline class="fil1 str2" points="1279.91,5010.44 1546.34,5345.21 1812.77,5427.06 2079.2,4973.24 2345.62,5419.61 2612.07,5293.12 2878.5,5062.5 3144.93,5382.41 3411.36,5389.86 3677.79,5055.05 3944.22,5047.64 4210.65,5330.32 4477.08,5449.36 4743.5,5226.16 5009.93,5040.19 5276.35,5047.64 5542.78,4988.1 5809.21,5077.39 6075.64,5159.2 6342.11,5077.39 6608.53,4988.1 6874.95,5084.84 7141.38,5166.65 7407.81,5397.3 7674.24,5345.21 7940.67,5360.07 8207.09,5270.81 8473.52,5077.39 8739.95,5092.28 9006.38,5352.66 9272.8,5404.71 9539.23,5278.26 9805.65,5151.79 10072.11,5040.19 10338.54,5040.19 10604.97,5322.9 10871.4,5449.36 11137.82,5456.78 11404.25,5397.3 11670.68,5181.55 11937.11,5069.94 12203.54,5263.36 12469.97,5434.47 12736.39,5099.7 13002.81,5367.51 13269.24,5486.57 13535.67,5084.84 13802.14,5226.16 14068.56,5464.26 14334.99,5211.3 14601.42,5255.95 14867.85,5248.5 15134.27,5322.9 15400.7,5315.46 15667.12,5196.41 15933.55,5434.47 16199.98,5122.04 16466.41,5181.55 "/>
   <path class="fil2" d="M373.34 5749.05c0,16.84 -3.88,31.85 -11.63,45.05 -7.75,13.2 -18.56,23.39 -32.45,30.6 -13.86,7.2 -29.25,10.81 -46.12,10.81 -24.76,0 -49.32,-7 -73.66,-21.01 -24.36,-13.99 -44.29,-32.42 -59.79,-55.26 -15.51,-22.83 -23.27,-46.76 -23.27,-71.79 0,-13.05 2.31,-24.96 6.95,-35.68 4.61,-10.75 11.07,-19.78 19.38,-27.13 8.28,-7.34 17.95,-13.05 28.96,-17.12 11.03,-4.1 23.06,-6.13 36.14,-6.13 14.96,0 30.05,2.64 45.29,7.95 15.23,5.31 29.39,12.57 42.44,21.82 13.05,9.26 24.62,20.05 34.71,32.43 10.07,12.37 17.95,25.63 23.66,39.79 10.34,-1.65 18.5,-3.89 24.47,-6.75 6,-2.84 8.99,-8.5 8.99,-16.92 0,-8.96 -3.2,-17.33 -9.59,-25.09 -6.38,-7.75 -13.93,-12.7 -22.65,-14.87 -1.9,-0.29 -2.87,-1.51 -2.87,-3.69 0,-2.43 1.5,-3.66 4.5,-3.66 7.08,1.65 14.35,4.09 21.83,7.35 7.49,3.26 14.51,7.2 21.04,11.81 6.52,4.64 11.83,10.07 15.91,16.32 4.1,6.27 6.14,13.2 6.14,20.8 0,19.04 -12.12,28.56 -36.34,28.56 -1.63,0 -5.58,-0.27 -11.82,-0.8 -6.28,-0.56 -11.31,-0.85 -15.1,-0.85 3.25,10.88 4.88,22.03 4.88,33.47zm-23.26 12.63c8.98,0 13.45,-5.03 13.45,-15.08 0,-10.07 -2.44,-20.67 -7.33,-31.82l-3.26 0c-8.99,0 -16.07,1.43 -21.25,4.27 -5.15,2.85 -7.74,8.51 -7.74,16.94 0,4.08 1.22,8.09 3.66,12.03 2.46,3.94 5.72,7.19 9.8,9.79 4.1,2.59 8.31,3.87 12.66,3.87zm0.82 8.57c-6,0 -11.78,-1.63 -17.36,-4.88 -5.59,-3.28 -10.07,-7.56 -13.47,-12.86 -3.4,-5.31 -5.09,-10.93 -5.09,-16.91 0,-10.07 3.34,-17.28 10,-21.63 6.65,-4.34 15.3,-7.34 25.92,-8.97 -8.45,-14.42 -20.7,-27.2 -36.73,-38.35 -16.06,-11.14 -33.69,-19.57 -52.87,-25.27 -19.17,-5.72 -37.34,-8.59 -54.49,-8.59 -12.52,0 -24.08,2.04 -34.69,6.14 -10.61,4.08 -19.17,10.39 -25.71,18.96 -6.52,8.58 -9.79,19.12 -9.79,31.62 0,12.23 2.98,23.99 8.96,35.29 5.99,11.27 13.88,21.68 23.69,31.19 9.78,9.24 21.76,17.59 35.91,25.09 14.14,7.47 28.96,13.18 44.48,17.12 15.5,3.94 30.32,5.92 44.49,5.92 14.41,0 27.53,-2.85 39.37,-8.57 11.83,-5.7 20.33,-14.55 25.5,-26.51 -2.17,0.82 -4.89,1.22 -8.14,1.22z"/>
   <path class="fil2" d="M423.02 5521.08c0,19.31 -7.96,32.37 -23.87,39.15 -15.93,6.82 -34.75,10.22 -56.52,10.22 -13.6,0 -26.4,-1.23 -38.38,-3.69 -11.97,-2.44 -22.16,-7.31 -30.61,-14.67 -8.44,-7.34 -12.65,-17.67 -12.65,-31 0,-10.32 2.52,-18.74 7.55,-25.25 5.03,-6.54 11.56,-11.56 19.6,-15.11 8.02,-3.55 16.59,-5.92 25.7,-7.13 9.13,-1.22 18.73,-1.85 28.79,-1.85 13.6,0 26.24,1.21 37.95,3.65 11.69,2.48 21.7,7.35 29.98,14.69 8.31,7.34 12.46,17.68 12.46,30.99zm-6.11 0c0,-8.7 -4.5,-15.23 -13.48,-19.58 -8.99,-4.35 -18.93,-7 -29.81,-7.93 -10.87,-0.98 -22.45,-1.43 -34.69,-1.43 -11.7,0 -22.52,0.45 -32.45,1.43 -9.93,0.94 -18.97,3.58 -27.14,7.93 -8.16,4.35 -12.25,10.87 -12.25,19.58 0,8.98 4.09,15.57 12.25,19.78 8.17,4.22 17.21,6.8 27.14,7.76 9.93,0.97 20.74,1.44 32.45,1.44 8.7,0 16.94,-0.22 24.71,-0.62 7.76,-0.41 15.71,-1.5 23.88,-3.27 8.14,-1.77 15.08,-4.7 20.82,-8.77 5.7,-4.09 8.57,-9.52 8.57,-16.32z"/>
   <path class="fil2" d="M450.08 5221.9c-9.81,12.53 -21.16,23.33 -34.08,32.45 -12.93,9.12 -26.66,16.57 -41.23,22.42 -14.55,5.84 -29.79,10.19 -45.7,13.05 -15.93,2.85 -31.9,4.31 -47.97,4.31 -16.33,0 -32.45,-1.46 -48.36,-4.31 -15.93,-2.86 -31.22,-7.21 -45.89,-13.05 -14.7,-5.85 -28.45,-13.37 -41.25,-22.63 -12.78,-9.27 -23.95,-19.98 -33.46,-32.24 -0.54,0 -0.82,-0.52 -0.82,-1.6l0 -3.28c0,-0.55 0.28,-1.12 0.82,-1.64 0.54,-0.55 1.2,-0.83 2.04,-0.83 1.09,0 1.91,0.17 2.45,0.41 10.6,11.14 22.09,20.4 34.48,27.75 12.37,7.34 25.58,13.26 39.6,17.75 14.02,4.49 28.5,7.73 43.46,9.78 14.96,2.05 30.61,3.07 46.94,3.07 71.85,0 126.52,-19.32 164.06,-57.93 0.54,-0.55 1.5,-0.83 2.88,-0.83 0.53,0 1.14,0.28 1.83,0.83 0.68,0.52 1.02,1.09 1.02,1.64l0 3.28c0,1.08 -0.27,1.6 -0.81,1.6z"/>
   <path class="fil2" d="M365.99 5110.33l-124.89 49.37c-4.09,2.19 -6.67,5.43 -7.75,9.78 -1.11,4.35 -1.65,10.07 -1.65,17.16l-12.23 0 0 -71.39 12.23 0c0,12.78 2.59,19.18 7.76,19.18 1.1,0 1.78,-0.14 2.03,-0.42l95.92 -37.94 -86.51 -34.25c-1.65,-0.8 -3.41,-1.22 -5.3,-1.22 -4.37,0 -7.77,1.64 -10.21,4.87 -2.47,3.28 -3.69,7.24 -3.69,11.87l-12.23 0 0 -56.71 12.23 0c0,7.08 1.57,13.26 4.7,18.56 3.14,5.29 7.83,9.3 14.08,12.04l115.5 45.68c2.47,1.08 3.69,2.99 3.69,5.7l0 2.44c0,2.71 -1.22,4.49 -3.69,5.29z"/>
   <path class="fil2" d="M332.53 5016.97c-13.34,0 -24.22,-5.29 -32.65,-15.88 -8.44,-10.65 -14.43,-23.43 -17.96,-38.36 -3.53,-14.97 -5.3,-29.11 -5.3,-42.44l-13.87 0c-6.52,0 -12.87,1.43 -19,4.28 -6.11,2.86 -11.14,7 -15.1,12.46 -3.93,5.44 -5.9,11.42 -5.9,17.93 0,14.97 3.4,26.39 10.18,34.29 0,-4.35 1.64,-7.9 4.91,-10.62 3.26,-2.75 7.06,-4.1 11.42,-4.1 4.35,0 8.16,1.6 11.44,4.73 3.26,3.1 4.88,6.83 4.88,11.18 0,4.63 -1.63,8.59 -4.88,11.87 -3.28,3.24 -7.09,4.87 -11.44,4.87 -11.96,0 -20.87,-5.44 -26.73,-16.33 -5.84,-10.86 -8.77,-22.83 -8.77,-35.89 0,-9.23 1.97,-18.48 5.9,-27.71 3.96,-9.27 9.6,-16.81 16.96,-22.67 7.34,-5.84 15.79,-8.77 25.3,-8.77l76.72 0c4.35,0 8.37,-0.94 12.04,-2.85 3.68,-1.87 5.52,-4.87 5.52,-8.98 0,-3.8 -1.91,-6.58 -5.72,-8.36 -3.81,-1.78 -7.75,-2.64 -11.83,-2.64l-22.04 0 0 -9.78 22.04 0c4.89,0 9.66,1.28 14.3,3.86 4.62,2.61 8.29,6.13 11.01,10.62 2.71,4.49 4.08,9.33 4.08,14.49 0,6.79 -2.59,12.56 -7.77,17.34 -5.16,4.73 -11.29,7.41 -18.35,7.97 8.43,4.07 15.16,10.16 20.22,18.34 5.03,8.14 7.55,16.95 7.55,26.48 0,8.43 -1.22,16.88 -3.69,25.28 -2.46,8.46 -6.47,15.45 -12.03,21.02 -5.58,5.58 -12.72,8.36 -21.43,8.36zm0 -27.71c8.16,0 14.89,-2.92 20.19,-8.77 5.32,-5.85 7.97,-12.71 7.97,-20.61 0,-7.34 -1.77,-13.99 -5.3,-19.98 -3.54,-5.98 -8.51,-10.76 -14.92,-14.27 -6.39,-3.55 -12.98,-5.33 -19.77,-5.33l-35.51 0c0,10.34 1.7,20.89 5.11,31.62 3.39,10.76 8.7,19.63 15.91,26.73 7.21,7.07 16,10.62 26.33,10.62z"/>
   <path class="fil2" d="M365.99 4849.18l-11.83 0c0,-7.63 -0.6,-13.96 -1.84,-18.98 -1.23,-5.04 -4.29,-7.55 -9.19,-7.55l-92.65 0c-5.99,0 -10.34,0.94 -13.06,2.89 -2.7,1.87 -4.34,4.52 -4.88,7.93 -0.55,3.41 -0.83,8.63 -0.83,15.7l-12.23 0 -3.68 -48.53 33.46 0c-10.07,-3.54 -18.15,-8.7 -24.26,-15.52 -6.14,-6.79 -9.2,-14.93 -9.2,-24.47 0,-6.79 2.04,-12.81 6.11,-18.14 4.1,-5.33 9.4,-7.97 15.94,-7.97 4.08,0 7.61,1.5 10.61,4.49 2.99,3 4.48,6.69 4.48,11.03 0,4.08 -1.49,7.6 -4.48,10.59 -3,2.99 -6.53,4.49 -10.61,4.49 -6.28,0 -10.62,-2.16 -13.05,-6.51l0 2.02c0,9.26 3.33,16.75 10,22.45 6.66,5.71 14.89,9.79 24.69,12.23 9.78,2.47 19.17,3.69 28.15,3.69l55.51 0c7.36,0 11.02,-10.9 11.02,-32.66l11.83 0 0 82.82z"/>
   <path class="fil2" d="M450.89 4701.17c0,1.91 -0.95,2.85 -2.84,2.85 -1.1,0 -1.91,-0.14 -2.46,-0.38 -37.81,-38.92 -92.64,-58.34 -164.48,-58.34 -71.82,0 -126.51,19.18 -164.06,57.51 -0.55,0.8 -1.51,1.21 -2.86,1.21 -0.84,0 -1.5,-0.28 -2.04,-0.8 -0.54,-0.55 -0.82,-1.21 -0.82,-2.05l0 -3.24c0,-0.56 0.28,-1.12 0.82,-1.67 12.8,-16.29 28.38,-29.8 46.72,-40.56 18.36,-10.76 37.89,-18.63 58.56,-23.67 20.68,-5.05 41.91,-7.56 63.68,-7.56 16.06,0 31.83,1.39 47.34,4.11 15.52,2.71 30.82,7 45.92,12.84 15.1,5.85 29.04,13.33 41.84,22.42 12.78,9.12 24.07,19.91 33.88,32.42 0.54,0.55 0.81,1.11 0.81,1.67l0 3.24z"/>
   <polygon class="fil0" points="1279.91,7987.66 17265.64,7987.66 17265.64,6525.86 1279.91,6525.86 "/>
   <line class="fil1 str0" x1="1279.91" y1="7987.66" x2="1279.91" y2= "6525.86" />
   <line class="fil1 str0" x1="6608.53" y1="7987.66" x2="6608.53" y2= "6525.86" />
   <line class="fil1 str0" x1="11937.11" y1="7987.66" x2="11937.11" y2= "6525.86" />
   <line class="fil1 str0" x1="17265.69" y1="7987.66" x2="17265.69" y2= "6525.86" />
   <line class="fil1 str0" x1="17265.69" y1="7987.66" x2="1279.91" y2= "7987.66" />
   <line class="fil1 str0" x1="17265.69" y1="7256.75" x2="1279.91" y2= "7256.75" />
   <line class="fil1 str0" x1="17265.69" y1="6525.86" x2="1279.91" y2= "6525.86" />
   <line class="fil1 str1" x1="1279.91" y1="7987.66" x2="17265.69" y2= "7987.66" />
   <line class="fil1 str1" x1="1279.91" y1="7987.66" x2="1279.91" y2= "7827.91" />
   <line class="fil1 str1" x1="6608.53" y1="7987.66" x2="6608.53" y2= "7827.91" />
   <line class="fil1 str1" x1="11937.11" y1="7987.66" x2="11937.11" y2= "7827.91" />
   <line class="fil1 str1" x1="17265.69" y1="7987.66" x2="17265.69" y2= "7827.91" />
   <path class="fil2" d="M1279.91 8355.21c-25.6,0 -43,-10.53 -52.24,-31.62 -9.25,-21.08 -13.87,-46.16 -13.87,-75.25 0,-18.22 1.63,-35.29 4.88,-51.19 3.28,-15.9 9.87,-29.5 19.79,-40.79 9.93,-11.27 23.73,-16.91 41.43,-16.91 13.86,0 25.17,3.39 33.88,10.19 8.69,6.8 15.37,15.49 20,26.11 4.62,10.59 7.75,22.01 9.38,34.25 1.63,12.23 2.46,25.01 2.46,38.35 0,17.94 -1.65,34.73 -4.92,50.38 -3.25,15.62 -9.71,28.94 -19.38,39.96 -9.66,11.01 -23.47,16.52 -41.41,16.52zm0 -8.17c11.69,0 20.4,-5.98 26.11,-17.93 5.72,-11.97 9.25,-25.17 10.61,-39.57 1.35,-14.42 2.03,-29.78 2.03,-46.1 0,-15.78 -0.68,-30.32 -2.03,-43.65 -1.36,-13.31 -4.88,-25.33 -10.61,-36.08 -5.71,-10.76 -14.42,-16.12 -26.11,-16.12 -11.7,0 -20.41,5.44 -26.12,16.32 -5.71,10.86 -9.25,22.89 -10.61,36.09 -1.36,13.2 -2.04,27.67 -2.04,43.45 0,11.44 0.28,22.3 0.82,32.62 0.53,10.33 2.02,21.02 4.49,32.04 2.43,11.01 6.37,20.24 11.82,27.71 5.45,7.49 12.65,11.23 21.64,11.23z"/>
   <path class="fil2" d="M6557.44 8312.79c2.19,5.97 5.47,11.48 9.82,16.5 4.35,5.02 9.57,8.91 15.7,11.64 6.13,2.71 12.46,4.07 18.98,4.07 14.97,0 25.3,-5.84 31.04,-17.53 5.71,-11.69 8.57,-25.84 8.57,-42.41 0,-7.35 -0.07,-13.47 -0.21,-18.36 -0.14,-4.87 -0.91,-9.64 -2.26,-14.27 -1.88,-7.35 -5.22,-13.8 -10,-19.37 -4.77,-5.58 -10.69,-8.36 -17.75,-8.36 -7.1,0 -13.12,1.09 -18.17,3.26 -5.01,2.18 -9.13,4.7 -12.26,7.55 -3.1,2.86 -5.88,5.85 -8.36,8.96 -2.44,3.13 -4.08,4.83 -4.9,5.11l-3.28 0c-0.52,0 -1.21,-0.34 -2.02,-1.02 -0.83,-0.68 -1.25,-1.29 -1.25,-1.85l0 -104.81c0,-0.28 0.38,-0.75 1.05,-1.43 0.7,-0.68 1.43,-1.02 2.23,-1.02l0.84 0c14.17,6.8 29.1,10.19 44.91,10.19 15.48,0 30.45,-3.39 44.87,-10.19l0.84 0c0.8,0 1.49,0.27 2.05,0.8 0.52,0.54 0.8,1.09 0.8,1.65l0 3.26c0,0.82 -0.14,1.24 -0.41,1.24 -7.35,9.49 -16.4,16.9 -27.16,22.2 -10.73,5.31 -21.83,7.97 -33.24,7.97 -8.43,0 -17.02,-1.1 -25.73,-3.27l0 59.13c6.82,-5.71 12.95,-9.79 18.34,-12.23 5.47,-2.45 12.56,-3.67 21.26,-3.67 11.43,0 21.69,3.33 30.81,10 9.13,6.66 16.12,15.36 21,26.09 4.9,10.75 7.38,21.55 7.38,32.44 0,12.77 -3.07,24.46 -9.2,35.08 -6.13,10.6 -14.48,19.09 -25.09,25.47 -10.62,6.4 -22.17,9.61 -34.7,9.61 -10.34,0 -19.77,-2.66 -28.34,-7.96 -8.59,-5.31 -15.38,-12.44 -20.44,-21.4 -5.01,-8.98 -7.55,-18.49 -7.55,-28.56 0,-4.89 1.56,-8.75 4.7,-11.61 3.13,-2.87 7,-4.31 11.66,-4.31 4.59,0 8.39,1.5 11.38,4.49 3.03,2.99 4.53,6.81 4.53,11.44 0,4.35 -1.5,8.09 -4.53,11.22 -2.99,3.11 -6.79,4.68 -11.38,4.68 -0.84,0 -1.75,-0.07 -2.68,-0.21 -0.98,-0.12 -1.57,-0.19 -1.85,-0.19z"/>
   <path class="fil2" d="M11809.27 8348.26l0 -11.01c26.11,0 39.16,-3.27 39.16,-9.79l0 -164.77c-10.58,5.44 -24.2,8.15 -40.79,8.15l0 -11.02c25.58,0 44.9,-6.8 57.95,-20.38l4.49 0c0.56,0 1.18,0.34 1.85,1.02 0.66,0.68 1.02,1.28 1.02,1.83l0 185.18c0,6.52 13.05,9.79 39.19,9.79l0 11.01 -102.87 0z"/>
   <path class="fil2" d="M12015.39 8355.21c-25.59,0 -42.99,-10.53 -52.25,-31.62 -9.26,-21.08 -13.85,-46.16 -13.85,-75.25 0,-18.22 1.6,-35.29 4.87,-51.19 3.28,-15.9 9.89,-29.5 19.8,-40.79 9.93,-11.27 23.74,-16.91 41.42,-16.91 13.89,0 25.17,3.39 33.88,10.19 8.7,6.8 15.38,15.49 20.01,26.11 4.6,10.59 7.73,22.01 9.36,34.25 1.64,12.23 2.48,25.01 2.48,38.35 0,17.94 -1.64,34.73 -4.91,50.38 -3.27,15.62 -9.74,28.94 -19.39,39.96 -9.67,11.01 -23.5,16.52 -41.42,16.52zm0 -8.17c11.7,0 20.41,-5.98 26.11,-17.93 5.71,-11.97 9.27,-25.17 10.62,-39.57 1.36,-14.42 2.02,-29.78 2.02,-46.1 0,-15.78 -0.66,-30.32 -2.02,-43.65 -1.35,-13.31 -4.9,-25.33 -10.62,-36.08 -5.7,-10.76 -14.41,-16.12 -26.11,-16.12 -11.69,0 -20.44,5.44 -26.14,16.32 -5.71,10.86 -9.23,22.89 -10.59,36.09 -1.35,13.2 -2.05,27.67 -2.05,43.45 0,11.44 0.29,22.3 0.84,32.62 0.52,10.33 2.02,21.02 4.46,32.04 2.47,11.01 6.4,20.24 11.87,27.71 5.43,7.49 12.63,11.23 21.61,11.23z"/>
   <path class="fil2" d="M17137.85 8348.26l0 -11.01c26.11,0 39.16,-3.27 39.16,-9.79l0 -164.77c-10.62,5.44 -24.2,8.15 -40.8,8.15l0 -11.02c25.59,0 44.91,-6.8 57.96,-20.38l4.45 0c0.56,0 1.18,0.34 1.88,1.02 0.66,0.68 1.01,1.28 1.01,1.83l0 185.18c0,6.52 13.05,9.79 39.16,9.79l0 11.01 -102.83 0z"/>
   <path class="fil2" d="M17292.93 8312.79c2.19,5.97 5.43,11.48 9.78,16.5 4.35,5.02 9.61,8.91 15.74,11.64 6.09,2.71 12.42,4.07 18.98,4.07 14.96,0 25.3,-5.84 31.01,-17.53 5.7,-11.69 8.57,-25.84 8.57,-42.41 0,-7.35 -0.04,-13.47 -0.18,-18.36 -0.14,-4.87 -0.91,-9.64 -2.26,-14.27 -1.91,-7.35 -5.22,-13.8 -10,-19.37 -4.77,-5.58 -10.69,-8.36 -17.75,-8.36 -7.1,0 -13.12,1.09 -18.17,3.26 -5.05,2.18 -9.13,4.7 -12.26,7.55 -3.1,2.86 -5.88,5.85 -8.36,8.96 -2.44,3.13 -4.08,4.83 -4.87,5.11l-3.27 0c-0.56,0 -1.25,-0.34 -2.09,-1.02 -0.8,-0.68 -1.18,-1.29 -1.18,-1.85l0 -104.81c0,-0.28 0.35,-0.75 1.01,-1.43 0.7,-0.68 1.43,-1.02 2.27,-1.02l0.8 0c14.13,6.8 29.1,10.19 44.91,10.19 15.48,0 30.45,-3.39 44.87,-10.19l0.84 0c0.8,0 1.49,0.27 2.05,0.8 0.52,0.54 0.8,1.09 0.8,1.65l0 3.26c0,0.82 -0.14,1.24 -0.42,1.24 -7.34,9.49 -16.39,16.9 -27.15,22.2 -10.73,5.31 -21.83,7.97 -33.24,7.97 -8.46,0 -17.02,-1.1 -25.73,-3.27l0 59.13c6.79,-5.71 12.95,-9.79 18.37,-12.23 5.44,-2.45 12.5,-3.67 21.24,-3.67 11.42,0 21.69,3.33 30.81,10 9.09,6.66 16.12,15.36 21,26.09 4.9,10.75 7.38,21.55 7.38,32.44 0,12.77 -3.07,24.46 -9.2,35.08 -6.13,10.6 -14.48,19.09 -25.13,25.47 -10.58,6.4 -22.13,9.61 -34.67,9.61 -10.34,0 -19.81,-2.66 -28.38,-7.96 -8.56,-5.31 -15.34,-12.44 -20.4,-21.4 -5.01,-8.98 -7.55,-18.49 -7.55,-28.56 0,-4.89 1.56,-8.75 4.7,-11.61 3.13,-2.87 7,-4.31 11.62,-4.31 4.63,0 8.43,1.5 11.42,4.49 3,2.99 4.49,6.81 4.49,11.44 0,4.35 -1.49,8.09 -4.49,11.22 -2.99,3.11 -6.79,4.68 -11.42,4.68 -0.8,0 -1.71,-0.07 -2.64,-0.21 -0.94,-0.12 -1.57,-0.19 -1.85,-0.19z"/>
   <path class="fil2" d="M8458.72 8767.88l0 -11.83c11.17,0 22.13,-0.68 32.89,-2.04 10.73,-1.34 16.08,-4.35 16.08,-8.97l0 -186.41c0,-4.89 -1.35,-7.86 -4.07,-8.96 -2.68,-1.09 -7.04,-1.64 -13.05,-1.64l-14.28 0c-18.76,0 -31.95,4.09 -39.58,12.25 -4.1,4.07 -7.03,10.6 -8.77,19.59 -1.78,8.96 -3.35,20.25 -4.7,33.85l-9.78 0 6.5 -77.5 207.34 0 6.54 77.5 -9.78 0c-1.39,-14.41 -2.89,-25.91 -4.53,-34.49 -1.6,-8.56 -4.49,-14.88 -8.57,-18.95 -8.14,-8.16 -21.47,-12.25 -39.99,-12.25l-14.28 0c-4.1,0 -7.27,0.15 -9.6,0.41 -2.3,0.26 -4.14,1.21 -5.51,2.84 -1.35,1.65 -2.05,4.1 -2.05,7.34l0 186.41c0,4.62 5.4,7.63 16.12,8.97 10.76,1.36 21.72,2.04 32.86,2.04l0 11.83 -129.81 0z"/>
   <path class="fil2" d="M8660.83 8767.88l0 -11.83c7.63,0 13.92,-0.61 18.98,-1.83 5.01,-1.23 7.55,-4.29 7.55,-9.19l0 -92.59c0,-8.7 -1.71,-14.01 -5.08,-15.9 -3.41,-1.92 -10.12,-2.87 -20.23,-2.87l0 -12.23 48.98 -3.67 0 127.25c0,4.89 2.19,7.95 6.54,9.19 4.35,1.21 10.07,1.83 17.13,1.83l0 11.83 -73.87 0zm14.27 -208.42c0,-4.91 1.91,-9.27 5.71,-13.05 3.83,-3.81 8.04,-5.71 12.67,-5.71 3.28,0 6.37,0.88 9.36,2.63 2.99,1.77 5.33,4.16 6.97,7.15 1.63,2.99 2.47,5.98 2.47,8.98 0,4.89 -1.85,9.25 -5.54,13.05 -3.65,3.8 -8.07,5.7 -13.26,5.7 -4.63,0 -8.84,-1.9 -12.67,-5.7 -3.8,-3.8 -5.71,-8.15 -5.71,-13.05z"/>
   <path class="fil2" d="M8756.21 8767.88l0 -11.83c7.59,0 13.92,-0.61 18.94,-1.83 5.08,-1.23 7.59,-4.29 7.59,-9.19l0 -92.59c0,-5.99 -0.94,-10.34 -2.89,-13.05 -1.87,-2.71 -4.52,-4.34 -7.93,-4.88 -3.41,-0.56 -8.63,-0.83 -15.7,-0.83l0 -12.23 48.94 -3.67 0 33.44c4.67,-9.78 11.46,-17.8 20.44,-24.08 8.98,-6.26 18.62,-9.36 29,-9.36 26.1,0 41.45,10.61 46.08,31.82 4.35,-9.52 10.86,-17.21 19.61,-23.05 8.69,-5.85 18.34,-8.77 28.96,-8.77 10.09,0 18.66,1.7 25.73,5.08 7.07,3.41 12.35,8.52 15.91,15.3 3.51,6.8 5.29,15.23 5.29,25.29l0 81.58c0,4.89 2.51,7.95 7.56,9.19 5.04,1.21 11.38,1.83 19.01,1.83l0 11.83 -77.56 0 0 -11.83c7.62,0 13.96,-0.61 18.98,-1.83 5.04,-1.23 7.55,-4.29 7.55,-9.19l0 -80.35c0,-11.41 -1.64,-20.59 -4.9,-27.54 -3.28,-6.92 -9.93,-10.39 -19.98,-10.39 -13.05,0 -23.81,5.24 -32.28,15.7 -8.42,10.47 -12.63,22.37 -12.63,35.68l0 66.9c0,4.89 2.44,7.95 7.34,9.19 4.91,1.21 11.32,1.83 19.18,1.83l0 11.83 -77.95 0 0 -11.83c7.87,0 14.28,-0.61 19.18,-1.83 4.91,-1.23 7.34,-4.29 7.34,-9.19l0 -80.35c0,-11.15 -1.56,-20.27 -4.7,-27.32 -3.13,-7.07 -9.71,-10.61 -19.8,-10.61 -13.05,0 -23.81,5.24 -32.24,15.7 -8.43,10.47 -12.63,22.37 -12.63,35.68l0 66.9c0,4.89 2.44,7.95 7.34,9.19 4.87,1.21 11.14,1.83 18.8,1.83l0 11.83 -77.56 0z"/>
   <path class="fil2" d="M9117.79 8771.55c-13.85,0 -26.49,-3.6 -37.94,-10.8 -11.42,-7.22 -20.47,-16.89 -27.12,-28.98 -6.69,-12.1 -10.03,-24.81 -10.03,-38.14 0,-13.32 2.99,-25.96 8.98,-37.93 5.99,-11.95 14.41,-21.6 25.31,-28.95 10.89,-7.34 22.83,-11.01 35.89,-11.01 10.65,0 19.74,1.77 27.36,5.31 7.62,3.53 13.95,8.36 19.01,14.48 5.01,6.11 8.73,13.38 11.17,21.83 2.48,8.42 3.69,17.66 3.69,27.73 0,2.99 -1.08,4.49 -3.28,4.49l-98.34 0 0 3.67c0,18.76 3.8,34.86 11.43,48.32 7.62,13.46 19.98,20.21 37.14,20.21 6.79,0 13.19,-1.58 19.18,-4.71 5.98,-3.13 11.17,-7.41 15.52,-12.84 4.35,-5.45 7.2,-11.44 8.57,-17.96 0.28,-0.54 0.73,-1.15 1.42,-1.84 0.7,-0.67 1.29,-1.01 1.85,-1.01l3.24 0c2.2,0 3.28,1.49 3.28,4.49 -2.99,12.77 -9.78,23.24 -20.4,31.4 -10.62,8.15 -22.6,12.24 -35.93,12.24zm-44.91 -90.56l77.15 0c0,-8.44 -1.15,-17.01 -3.48,-25.71 -2.3,-8.7 -6.23,-15.97 -11.8,-21.8 -5.6,-5.85 -12.88,-8.77 -21.86,-8.77 -12.78,0 -22.63,5.98 -29.59,17.93 -6.93,11.98 -10.41,24.77 -10.41,38.35z"/>
   <path class="fil2" d="M9406.75 8851.9c-12.49,-9.8 -23.32,-21.17 -32.41,-34.06 -9.12,-12.93 -16.61,-26.64 -22.46,-41.19 -5.84,-14.55 -10.19,-29.78 -13.05,-45.7 -2.86,-15.9 -4.28,-31.87 -4.28,-47.92 0,-16.33 1.42,-32.45 4.28,-48.34 2.85,-15.91 7.2,-31.19 13.05,-45.87 5.85,-14.68 13.41,-28.44 22.67,-41.22 9.23,-12.78 19.98,-23.92 32.2,-33.43 0,-0.54 0.56,-0.82 1.68,-0.82l3.24 0c0.55,0 1.12,0.28 1.63,0.82 0.56,0.52 0.81,1.2 0.81,2.02 0,1.1 -0.11,1.91 -0.38,2.46 -11.18,10.6 -20.41,22.08 -27.78,34.46 -7.35,12.37 -13.23,25.57 -17.72,39.58 -4.49,14 -7.77,28.48 -9.78,43.43 -2.05,14.96 -3.1,30.58 -3.1,46.91 0,71.79 19.32,126.43 57.95,163.95 0.56,0.54 0.81,1.5 0.81,2.87 0,0.54 -0.25,1.15 -0.81,1.84 -0.51,0.68 -1.08,1.02 -1.63,1.02l-3.24 0c-1.12,0 -1.68,-0.27 -1.68,-0.81z"/>
   <path class="fil2" d="M9445.78 8767.88l0 -11.83c7.62,0 13.92,-0.61 18.97,-1.83 5.05,-1.23 7.56,-4.29 7.56,-9.19l0 -92.59c0,-5.99 -0.94,-10.34 -2.85,-13.05 -1.91,-2.71 -4.56,-4.34 -7.94,-4.88 -3.4,-0.56 -8.66,-0.83 -15.73,-0.83l0 -12.23 48.97 -3.67 0 33.44c4.64,-9.78 11.43,-17.8 20.41,-24.08 8.98,-6.26 18.66,-9.36 28.99,-9.36 26.11,0 41.46,10.61 46.09,31.82 4.35,-9.52 10.89,-17.21 19.6,-23.05 8.7,-5.85 18.34,-8.77 29,-8.77 10.06,0 18.62,1.7 25.69,5.08 7.08,3.41 12.39,8.52 15.92,15.3 3.54,6.8 5.32,15.23 5.32,25.29l0 81.58c0,4.89 2.51,7.95 7.56,9.19 5.04,1.21 11.35,1.83 18.98,1.83l0 11.83 -77.56 0 0 -11.83c7.62,0 13.95,-0.61 19.01,-1.83 5.01,-1.23 7.52,-4.29 7.52,-9.19l0 -80.35c0,-11.41 -1.64,-20.59 -4.91,-27.54 -3.24,-6.92 -9.92,-10.39 -19.98,-10.39 -13.05,0 -23.81,5.24 -32.23,15.7 -8.47,10.47 -12.67,22.37 -12.67,35.68l0 66.9c0,4.89 2.47,7.95 7.34,9.19 4.9,1.21 11.31,1.83 19.21,1.83l0 11.83 -77.97 0 0 -11.83c7.9,0 14.31,-0.61 19.21,-1.83 4.87,-1.23 7.31,-4.29 7.31,-9.19l0 -80.35c0,-11.15 -1.57,-20.27 -4.7,-27.32 -3.14,-7.07 -9.71,-10.61 -19.77,-10.61 -13.08,0 -23.81,5.24 -32.27,15.7 -8.43,10.47 -12.64,22.37 -12.64,35.68l0 66.9c0,4.89 2.44,7.95 7.35,9.19 4.9,1.21 11.17,1.83 18.76,1.83l0 11.83 -77.52 0z"/>
   <path class="fil2" d="M9733.52 8767.88l0 -11.83c7.6,0 13.93,-0.61 18.95,-1.83 5.04,-1.23 7.55,-4.29 7.55,-9.19l0 -92.59c0,-8.7 -1.67,-14.01 -5.08,-15.9 -3.41,-1.92 -10.13,-2.87 -20.23,-2.87l0 -12.23 48.98 -3.67 0 127.25c0,4.89 2.19,7.95 6.54,9.19 4.35,1.21 10.07,1.83 17.16,1.83l0 11.83 -73.87 0zm14.28 -208.42c0,-4.91 1.87,-9.27 5.7,-13.05 3.8,-3.81 8.01,-5.71 12.68,-5.71 3.24,0 6.36,0.88 9.35,2.63 3,1.77 5.33,4.16 6.97,7.15 1.6,2.99 2.4,5.98 2.4,8.98 0,4.89 -1.81,9.25 -5.5,13.05 -3.65,3.8 -8.07,5.7 -13.22,5.7 -4.67,0 -8.88,-1.9 -12.68,-5.7 -3.83,-3.8 -5.7,-8.15 -5.7,-13.05z"/>
   <path class="fil2" d="M9828.87 8767.88l0 -11.83c7.63,0 13.96,-0.61 18.98,-1.83 5.04,-1.23 7.55,-4.29 7.55,-9.19l0 -92.59c0,-5.99 -0.94,-10.34 -2.85,-13.05 -1.88,-2.71 -4.56,-4.34 -7.97,-4.88 -3.37,-0.56 -8.63,-0.83 -15.7,-0.83l0 -12.23 48.98 -3.67 0 33.44c4.63,-9.78 11.42,-17.8 20.4,-24.08 8.98,-6.26 18.66,-9.36 28.96,-9.36 15.81,0 27.64,3.8 35.54,11.41 7.86,7.62 11.83,19.03 11.83,34.27l0 81.58c0,4.89 2.44,7.95 7.35,9.19 4.87,1.21 11.28,1.83 19.14,1.83l0 11.83 -77.95 0 0 -11.83c7.9,0 14.31,-0.61 19.18,-1.83 4.9,-1.23 7.38,-4.29 7.38,-9.19l0 -80.35c0,-11.15 -1.57,-20.27 -4.74,-27.32 -3.1,-7.07 -9.71,-10.61 -19.77,-10.61 -13.05,0 -23.81,5.24 -32.23,15.7 -8.47,10.47 -12.67,22.37 -12.67,35.68l0 66.9c0,4.89 2.44,7.95 7.37,9.19 4.87,1.21 11.14,1.83 18.73,1.83l0 11.83 -77.52 0z"/>
   <path class="fil2" d="M10032.24 8852.71c-1.87,0 -2.81,-0.95 -2.81,-2.85 0,-1.09 0.1,-1.9 0.37,-2.45 38.92,-37.8 58.38,-92.59 58.38,-164.38 0,-71.78 -19.17,-126.43 -57.54,-163.95 -0.84,-0.55 -1.21,-1.52 -1.21,-2.88 0,-0.82 0.28,-1.5 0.8,-2.02 0.52,-0.54 1.21,-0.82 2.01,-0.82l3.28 0c0.55,0 1.08,0.28 1.64,0.82 16.32,12.78 29.87,28.35 40.59,46.69 10.8,18.35 18.7,37.87 23.71,58.53 5.04,20.66 7.55,41.88 7.55,63.64 0,16.04 -1.36,31.8 -4.1,47.3 -2.71,15.51 -7,30.8 -12.85,45.89 -5.85,15.09 -13.33,29.03 -22.45,41.81 -9.13,12.79 -19.91,24.07 -32.45,33.87 -0.56,0.54 -1.09,0.81 -1.64,0.81l-3.28 0z"/>
   <line class="fil1 str1" x1="1279.91" y1="7987.66" x2="1279.91" y2= "6525.86" />
   <line class="fil1 str1" x1="1279.91" y1="7987.66" x2="1439.78" y2= "7987.66" />
   <line class="fil1 str1" x1="1279.91" y1="7256.75" x2="1439.78" y2= "7256.75" />
   <line class="fil1 str1" x1="1279.91" y1="6525.86" x2="1439.78" y2= "6525.86" />
   <polygon class="fil2" points="681.05,8004.94 763.92,8004.94 763.92,7985.38 681.05,7985.38 "/>
   <path class="fil2" d="M860.25 8069.81c-25.58,0 -42.99,-10.54 -52.25,-31.62 -9.26,-21.08 -13.89,-46.16 -13.89,-75.25 0,-18.22 1.65,-35.29 4.91,-51.19 3.26,-15.92 9.86,-29.5 19.79,-40.79 9.93,-11.29 23.74,-16.92 41.43,-16.92 13.85,0 25.14,3.4 33.85,10.2 8.71,6.79 15.38,15.48 20.01,26.11 4.63,10.59 7.76,22.01 9.37,34.25 1.65,12.23 2.46,25 2.46,38.35 0,17.94 -1.63,34.73 -4.87,50.36 -3.28,15.64 -9.74,28.95 -19.39,39.97 -9.66,11.02 -23.48,16.53 -41.42,16.53zm0 -8.17c11.68,0 20.39,-5.98 26.12,-17.94 5.71,-11.98 9.25,-25.17 10.61,-39.57 1.36,-14.41 2.02,-29.78 2.02,-46.09 0,-15.78 -0.66,-30.32 -2.02,-43.65 -1.36,-13.31 -4.89,-25.33 -10.61,-36.08 -5.73,-10.76 -14.44,-16.12 -26.12,-16.12 -11.71,0 -20.41,5.44 -26.12,16.3 -5.72,10.88 -9.28,22.91 -10.64,36.11 -1.36,13.19 -2.03,27.67 -2.03,43.45 0,11.42 0.27,22.29 0.81,32.61 0.56,10.34 2.05,21.03 4.49,32.04 2.46,11.01 6.4,20.25 11.83,27.72 5.45,7.49 12.67,11.23 21.66,11.23z"/>
   <path class="fil2" d="M965.11 8045.75c0,-4.91 1.72,-8.99 5.13,-12.26 3.38,-3.27 7.41,-4.9 12.04,-4.9 2.71,0 5.51,0.75 8.36,2.26 2.86,1.49 5.03,3.6 6.52,6.34 1.5,2.71 2.25,5.58 2.25,8.57 0,4.35 -1.71,8.28 -5.11,11.81 -3.4,3.54 -7.4,5.31 -12.02,5.31 -4.63,0 -8.65,-1.77 -12.04,-5.31 -3.41,-3.53 -5.13,-7.46 -5.13,-11.81z"/>
   <path class="fil2" d="M1054.63 8062.87l0 -11.01c26.12,0 39.17,-3.27 39.17,-9.79l0 -164.77c-10.59,5.43 -24.21,8.14 -40.79,8.14l0 -11.01c25.58,0 44.9,-6.8 57.97,-20.39l4.46 0c0.55,0 1.16,0.35 1.85,1.03 0.68,0.67 1.02,1.27 1.02,1.83l0 185.18c0,6.52 13.07,9.79 39.19,9.79l0 11.01 -102.87 0z"/>
   <path class="fil2" d="M1104.03 7338.9c-25.59,0 -42.99,-10.54 -52.24,-31.6 -9.25,-21.08 -13.87,-46.17 -13.87,-75.27 0,-18.22 1.64,-35.27 4.88,-51.18 3.28,-15.91 9.88,-29.5 19.8,-40.79 9.93,-11.29 23.72,-16.91 41.42,-16.91 13.87,0 25.17,3.39 33.88,10.19 8.7,6.79 15.36,15.49 19.97,26.11 4.64,10.6 7.79,22.01 9.41,34.24 1.63,12.24 2.46,25.02 2.46,38.35 0,17.95 -1.64,34.74 -4.91,50.38 -3.26,15.63 -9.71,28.95 -19.38,39.96 -9.67,11.01 -23.47,16.52 -41.42,16.52zm0 -8.16c11.7,0 20.41,-5.98 26.11,-17.93 5.71,-11.98 9.25,-25.17 10.61,-39.58 1.36,-14.41 2.04,-29.77 2.04,-46.1 0,-15.76 -0.68,-30.31 -2.04,-43.64 -1.36,-13.32 -4.89,-25.34 -10.61,-36.08 -5.7,-10.76 -14.41,-16.13 -26.11,-16.13 -11.7,0 -20.41,5.43 -26.12,16.31 -5.71,10.87 -9.25,22.91 -10.61,36.1 -1.35,13.19 -2.03,27.68 -2.03,43.44 0,11.43 0.27,22.31 0.81,32.63 0.53,10.33 2.03,21.01 4.49,32.02 2.44,11.03 6.37,20.27 11.83,27.73 5.44,7.48 12.64,11.23 21.63,11.23z"/>
   <path class="fil2" d="M860.25 6608.01c-25.58,0 -42.99,-10.55 -52.25,-31.61 -9.26,-21.08 -13.89,-46.16 -13.89,-75.26 0,-18.23 1.65,-35.28 4.91,-51.18 3.26,-15.92 9.86,-29.51 19.79,-40.81 9.93,-11.27 23.74,-16.91 41.43,-16.91 13.85,0 25.14,3.41 33.85,10.21 8.71,6.78 15.38,15.48 20.01,26.11 4.63,10.59 7.76,22.01 9.37,34.24 1.65,12.24 2.46,25.01 2.46,38.35 0,17.95 -1.63,34.73 -4.87,50.37 -3.28,15.62 -9.74,28.95 -19.39,39.96 -9.66,11.02 -23.48,16.53 -41.42,16.53zm0 -8.18c11.68,0 20.39,-5.97 26.12,-17.92 5.71,-11.98 9.25,-25.17 10.61,-39.58 1.36,-14.41 2.02,-29.77 2.02,-46.1 0,-15.76 -0.66,-30.31 -2.02,-43.64 -1.36,-13.31 -4.89,-25.35 -10.61,-36.08 -5.73,-10.76 -14.44,-16.14 -26.12,-16.14 -11.71,0 -20.41,5.45 -26.12,16.32 -5.72,10.88 -9.28,22.91 -10.64,36.11 -1.36,13.18 -2.03,27.67 -2.03,43.43 0,11.44 0.27,22.32 0.81,32.63 0.56,10.34 2.05,21.02 4.49,32.03 2.46,11.01 6.4,20.26 11.83,27.72 5.45,7.48 12.67,11.22 21.66,11.22z"/>
   <path class="fil2" d="M965.11 6583.94c0,-4.91 1.72,-8.99 5.13,-12.25 3.38,-3.28 7.41,-4.9 12.04,-4.9 2.71,0 5.51,0.75 8.36,2.24 2.86,1.5 5.03,3.62 6.52,6.35 1.5,2.7 2.25,5.56 2.25,8.56 0,4.35 -1.71,8.29 -5.11,11.82 -3.4,3.54 -7.4,5.31 -12.02,5.31 -4.63,0 -8.65,-1.77 -12.04,-5.31 -3.41,-3.53 -5.13,-7.47 -5.13,-11.82z"/>
   <path class="fil2" d="M1054.63 6601.07l0 -11.02c26.12,0 39.17,-3.26 39.17,-9.79l0 -164.76c-10.59,5.43 -24.21,8.14 -40.79,8.14l0 -11.01c25.58,0 44.9,-6.8 57.97,-20.4l4.46 0c0.55,0 1.16,0.34 1.85,1.02 0.68,0.68 1.02,1.29 1.02,1.84l0 185.18c0,6.53 13.07,9.79 39.19,9.79l0 11.02 -102.87 0z"/>
   <line class="fil1 str2" x1="1279.91" y1="7256.75" x2="16466.41" y2= "7256.75" />
   <g>
    <path class="fil3" d="M366.71 3301.3c-1.36,0 -2.45,-0.1 -3.27,-0.38l-101.11 -25.3c-6.26,-1.61 -11.68,-2.44 -16.32,-2.44 -9.78,0 -14.66,3.27 -14.66,9.78 0,7.07 4.22,12.29 12.64,15.74 8.42,3.37 19.14,6.68 32.2,9.96 0.55,0 1.04,0.35 1.43,1.01 0.41,0.69 0.62,1.32 0.62,1.87l0 4.05c0,0.83 -0.4,1.49 -1.22,2.05 -0.82,0.55 -1.63,0.8 -2.45,0.8 -9.81,-2.44 -18.09,-4.81 -24.88,-7.13 -6.8,-2.3 -13.05,-5.85 -18.76,-10.59 -5.7,-4.77 -8.56,-10.82 -8.56,-18.17 0,-8.43 2.7,-15.88 8.14,-22.42 5.45,-6.51 12.25,-9.78 20.4,-9.78 -8.7,-6.79 -15.62,-14.69 -20.79,-23.64 -5.16,-8.98 -7.75,-18.66 -7.75,-28.99 0,-7.87 1.43,-14.76 4.28,-20.61 2.84,-5.85 7.06,-10.37 12.62,-13.61 5.59,-3.31 12.19,-4.91 19.78,-4.91 9.24,0 20.45,2.02 33.63,6.13 13.18,4.04 27.95,9.23 44.26,15.49 7.33,3.24 14.12,4.87 20.39,4.87 6.51,0 9.78,-2.58 9.78,-7.73 0,-8.98 -4.7,-16.4 -14.06,-22.24 -9.38,-5.85 -19.5,-10 -30.38,-12.43 -1.35,-0.55 -2.02,-1.5 -2.02,-2.85l0 -4.1c0,-0.81 0.26,-1.54 0.8,-2.23 0.54,-0.7 1.22,-1.01 2.04,-1.01 0.28,0 0.68,0.1 1.22,0.41 12.77,2.99 24.52,8.36 35.25,16.08 10.76,7.76 16.12,17.37 16.12,28.78 0,7.86 -2.71,14.65 -8.16,20.37 -5.42,5.7 -12.08,8.57 -19.98,8.57 -4.09,0 -8.42,-0.95 -13.05,-2.86 -7.32,-2.67 -16.14,-5.88 -26.48,-9.57 -10.34,-3.65 -20.2,-6.72 -29.57,-9.19 -9.37,-2.44 -17.6,-3.69 -24.66,-3.69 -6.52,0 -11.97,1.32 -16.3,3.9 -4.35,2.58 -6.53,7 -6.53,13.26 0,8.15 1.84,15.77 5.52,22.83 3.67,7.08 8.48,13.19 14.45,18.38 5.99,5.15 13.05,9.93 21.22,14.28l92.57 22.83c2.99,0.8 5.57,2.58 7.73,5.29 2.18,2.71 3.27,5.71 3.27,8.98 0,2.71 -0.88,5.08 -2.65,7.13 -1.78,2.02 -4.02,3.03 -6.72,3.03z"/>
    <path class="fil3" d="M469.74 3126.31c0,1.64 -1.08,2.48 -3.25,2.48 -3.29,-0.56 -4.91,-1.68 -4.91,-3.28 0,-4.9 -0.47,-8.32 -1.41,-10.2 -0.96,-1.91 -3.2,-3.4 -6.73,-4.49l-105.6 -26.52c-2.99,-1.08 -6.79,-1.64 -11.4,-1.64 -6.81,0 -10.21,2.2 -10.21,6.54 0,4.91 2.92,8.57 8.77,11 5.84,2.44 13.24,4.78 22.2,6.93 1.11,0 1.65,0.7 1.65,2.09l0 2.82c0,0.28 -0.28,0.62 -0.82,1.01 -0.54,0.41 -1.1,0.63 -1.63,0.63 -6.79,-1.64 -12.56,-3.21 -17.34,-4.71 -4.75,-1.49 -9.1,-3.93 -13.05,-7.34 -3.93,-3.41 -5.9,-7.52 -5.9,-12.43 0,-5.43 1.57,-10.19 4.68,-14.27 3.13,-4.08 7.28,-6.65 12.44,-7.77 -4.88,-4.35 -8.96,-9.12 -12.24,-14.27 -3.25,-5.15 -4.88,-10.48 -4.88,-15.91 0,-6.51 1.77,-12.22 5.31,-17.09 3.52,-4.91 8.14,-8.6 13.85,-11.04 5.69,-2.47 11.81,-3.69 18.34,-3.69 10.33,0 20.86,2.58 31.6,7.77 10.74,5.15 19.63,12.19 26.69,20.99 7.08,8.84 10.63,18.31 10.63,28.38 0,4.59 -1.31,8.73 -3.89,12.42 -2.59,3.65 -5.92,6.58 -10,8.77l41.59 10.58c2.45,0.29 3.81,0.56 4.07,0.84 2.18,0 3.27,-5.15 3.27,-15.49 0,-1.64 0.95,-2.47 2.87,-2.47 2.17,0.55 3.6,0.97 4.28,1.25 0.68,0.28 1.01,1.21 1.01,2.81l0 45.29zm-49.34 -64.01c0,-5.47 -2.24,-10.55 -6.73,-15.32 -4.47,-4.77 -9.43,-8.49 -14.88,-11.21 -4.35,-2.15 -9.51,-4.21 -15.49,-6.13 -5.97,-1.87 -12.41,-3.54 -19.37,-4.86 -6.92,-1.36 -12.42,-2.06 -16.52,-2.06 -3.52,0 -6.86,0.49 -9.97,1.43 -3.13,0.94 -5.78,2.51 -7.95,4.7 -2.18,2.16 -3.27,5.01 -3.27,8.57 0,5.71 2.04,11.14 6.11,16.33 4.1,5.15 9.26,9.78 15.5,13.85l0.81 0 51.8 13.05c5.43,-1.09 10.11,-3.21 14.06,-6.31 3.93,-3.13 5.9,-7.13 5.9,-12.04z"/>
    <path class="fil3" d="M397.58 2973.94c-3.54,0 -7.41,-0.38 -11.61,-1.18 -4.21,-0.84 -7.67,-1.64 -10.39,-2.47 -2.73,-0.81 -8.03,-2.72 -15.93,-5.71 -7.87,-2.99 -11.95,-4.49 -12.24,-4.49 -5.69,-2.16 -10.32,-3.24 -13.85,-3.24 -4.88,0 -7.33,1.74 -7.33,5.29 0,6.27 3.2,11.35 9.57,15.29 6.39,3.97 13.53,6.89 21.4,8.77 1.11,0.28 1.65,0.98 1.65,2.05l0 2.85c0,1.36 -0.68,2.05 -2.04,2.05l-0.8 0c-9.27,-2.74 -17.55,-6.68 -24.9,-11.83 -7.33,-5.19 -10.99,-11.69 -10.99,-19.57 0,-5.7 1.84,-10.48 5.49,-14.31 3.67,-3.79 8.37,-5.7 14.08,-5.7 2.98,0 6.11,0.69 9.37,2.05 7.88,2.99 14.19,5.36 18.94,7.13 4.78,1.75 10.14,3.37 16.13,4.87 5.97,1.5 11.41,2.26 16.31,2.26 5.97,0 10.79,-1.35 14.46,-4.07 3.67,-2.72 5.51,-6.97 5.51,-12.68 0,-10.85 -8.29,-20.63 -24.87,-29.34 -5.43,-2.75 -11.82,-5.3 -19.16,-7.74 -7.32,-2.47 -13.31,-3.69 -17.95,-3.69 -4.88,0 -8.61,0.74 -11.19,2.23 -2.6,1.5 -5.32,3.48 -8.17,5.92 -2.84,2.44 -5.09,3.65 -6.73,3.65 -3.26,0 -6.11,-1.25 -8.56,-3.86 -2.44,-2.58 -3.66,-5.36 -3.66,-8.36 0,-3.79 1.71,-6.51 5.09,-8.14 3.39,-1.64 7.27,-2.48 11.6,-2.48 5.17,0 11.36,0.77 18.57,2.26 7.18,1.5 14.67,3.52 22.4,6.1 7.77,2.61 13.82,5.11 18.18,7.55 20.38,10.34 30.58,22.32 30.58,35.89 0,10.07 -2.47,18.04 -7.36,23.85 -4.89,5.85 -12.1,8.77 -21.6,8.77z"/>
   </g>
   <g>
    <path class="fil3" d="M357.49 7451.08c-1.36,0 -2.45,-0.14 -3.27,-0.41l-101.11 -25.27c-6.26,-1.63 -11.68,-2.45 -16.32,-2.45 -9.78,0 -14.66,3.27 -14.66,9.78 0,7.07 4.22,12.31 12.64,15.69 8.42,3.41 19.14,6.74 32.2,10 0.55,0 1.04,0.34 1.43,1.02 0.41,0.68 0.62,1.31 0.62,1.86l0 4.07c0,0.82 -0.4,1.5 -1.22,2.04 -0.82,0.52 -1.63,0.8 -2.45,0.8 -9.81,-2.44 -18.09,-4.82 -24.88,-7.12 -6.8,-2.31 -13.05,-5.85 -18.76,-10.62 -5.7,-4.76 -8.56,-10.81 -8.56,-18.15 0,-8.43 2.7,-15.89 8.14,-22.42 5.45,-6.52 12.25,-9.79 20.4,-9.79 -8.7,-6.82 -15.62,-14.69 -20.79,-23.65 -5.16,-8.98 -7.75,-18.64 -7.75,-28.97 0,-7.89 1.43,-14.75 4.28,-20.6 2.84,-5.85 7.06,-10.39 12.62,-13.65 5.59,-3.27 12.19,-4.91 19.78,-4.91 9.24,0 20.45,2.05 33.63,6.15 13.18,4.07 27.95,9.22 44.26,15.47 7.33,3.27 14.12,4.91 20.39,4.91 6.51,0 9.78,-2.59 9.78,-7.76 0,-8.99 -4.7,-16.4 -14.06,-22.24 -9.38,-5.85 -19.5,-9.99 -30.38,-12.43 -1.35,-0.53 -2.02,-1.49 -2.02,-2.87l0 -4.07c0,-0.81 0.26,-1.56 0.8,-2.24 0.54,-0.68 1.22,-1.02 2.04,-1.02 0.28,0 0.68,0.13 1.22,0.4 12.77,3 24.52,8.36 35.25,16.11 10.76,7.74 16.12,17.34 16.12,28.76 0,7.88 -2.71,14.68 -8.16,20.4 -5.42,5.69 -12.08,8.55 -19.98,8.55 -4.09,0 -8.42,-0.95 -13.05,-2.84 -7.32,-2.73 -16.14,-5.93 -26.48,-9.59 -10.34,-3.68 -20.2,-6.74 -29.57,-9.17 -9.37,-2.47 -17.6,-3.69 -24.66,-3.69 -6.52,0 -11.97,1.29 -16.3,3.89 -4.35,2.59 -6.53,6.99 -6.53,13.23 0,8.17 1.84,15.78 5.52,22.84 3.67,7.09 8.48,13.2 14.45,18.37 5.99,5.15 13.05,9.92 21.22,14.27l92.57 22.82c2.99,0.82 5.57,2.61 7.73,5.34 2.18,2.71 3.27,5.69 3.27,8.94 0,2.73 -0.88,5.13 -2.65,7.15 -1.78,2.04 -4.02,3.06 -6.72,3.06z"/>
    <path class="fil3" d="M457.27 7235.71c-3.29,-0.56 -4.91,-1.52 -4.91,-2.87 0,-5.71 -0.47,-10.18 -1.41,-13.45 -0.96,-3.27 -3.2,-5.44 -6.73,-6.53l-39.95 -9.79c8.7,8.96 13.05,17.8 13.05,26.5 0,10.06 -3.67,17.88 -11.01,23.47 -7.34,5.57 -16.18,8.35 -26.52,8.35 -10.05,0 -20.45,-2.58 -31.17,-7.75 -10.74,-5.17 -19.71,-12.17 -26.9,-21.02 -7.21,-8.81 -10.82,-18.4 -10.82,-28.73 0,-4.63 1.43,-8.84 4.28,-12.63 2.86,-3.81 6.58,-6.68 11.19,-8.59 -1.62,-1.08 -4.59,-3.65 -8.94,-7.73 -4.35,-4.1 -6.53,-7.09 -6.53,-8.98 0,-1.64 1.09,-2.46 3.27,-2.46l130.87 33.06c2.45,0.26 3.81,0.38 4.07,0.38 2.18,0 3.27,-5.16 3.27,-15.48 0,-0.81 0.28,-1.44 0.83,-1.85 0.54,-0.4 1.22,-0.6 2.04,-0.6 2.17,0.53 3.6,1.01 4.28,1.4 0.68,0.42 1.01,1.31 1.01,2.66l0 50.18c0,1.64 -1.08,2.46 -3.25,2.46zm-46.09 -6.53c0,-5.46 -2.04,-10.76 -6.1,-15.93 -4.09,-5.16 -8.98,-9.79 -14.7,-13.85l-52.99 -13.05c-5.43,0.82 -10.18,2.79 -14.28,5.93 -4.07,3.11 -6.11,7.24 -6.11,12.41 0,5.18 2.17,10.07 6.52,14.7 4.35,4.61 9.52,8.42 15.5,11.41 6.25,2.99 14.81,5.91 25.68,8.77 10.88,2.85 19.43,4.28 25.68,4.28 5.16,0 9.93,-1.15 14.28,-3.47 4.35,-2.3 6.52,-6.03 6.52,-11.2z"/>
    <path class="fil3" d="M388.35 7128.75c-3.54,0 -7.41,-0.4 -11.61,-1.22 -4.21,-0.82 -7.67,-1.63 -10.39,-2.45 -2.73,-0.83 -8.03,-2.73 -15.93,-5.72 -7.87,-2.99 -11.95,-4.49 -12.24,-4.49 -5.69,-2.17 -10.32,-3.27 -13.85,-3.27 -4.88,0 -7.33,1.79 -7.33,5.33 0,6.25 3.2,11.33 9.57,15.28 6.39,3.95 13.53,6.87 21.4,8.77 1.11,0.28 1.65,0.97 1.65,2.05l0 2.84c0,1.36 -0.68,2.04 -2.04,2.04l-0.8 0c-9.27,-2.71 -17.55,-6.65 -24.9,-11.82 -7.33,-5.16 -10.99,-11.69 -10.99,-19.58 0,-5.71 1.84,-10.47 5.49,-14.28 3.67,-3.81 8.37,-5.72 14.08,-5.72 2.98,0 6.11,0.68 9.37,2.03 7.88,2.99 14.19,5.39 18.94,7.15 4.78,1.76 10.14,3.38 16.13,4.88 5.97,1.5 11.41,2.25 16.31,2.25 5.97,0 10.79,-1.36 14.46,-4.08 3.67,-2.71 5.51,-6.94 5.51,-12.63 0,-10.87 -8.29,-20.67 -24.87,-29.37 -5.43,-2.73 -11.82,-5.32 -19.16,-7.76 -7.32,-2.46 -13.31,-3.68 -17.95,-3.68 -4.88,0 -8.61,0.75 -11.19,2.24 -2.6,1.5 -5.32,3.48 -8.17,5.93 -2.84,2.44 -5.09,3.66 -6.73,3.66 -3.26,0 -6.11,-1.29 -8.56,-3.87 -2.44,-2.6 -3.66,-5.39 -3.66,-8.36 0,-3.81 1.71,-6.53 5.09,-8.16 3.39,-1.65 7.27,-2.47 11.6,-2.47 5.17,0 11.36,0.75 18.57,2.25 7.18,1.49 14.67,3.54 22.4,6.13 7.77,2.59 13.82,5.1 18.18,7.55 20.38,10.32 30.58,22.29 30.58,35.9 0,10.05 -2.47,18.01 -7.36,23.85 -4.89,5.85 -12.1,8.77 -21.6,8.77z"/>
   </g>
  </g>
 </g>
</svg>
