<?xml version="1.0" encoding="UTF-8"?>
<!DOCTYPE svg PUBLIC "-//W3C//DTD SVG 1.1//EN" "http://www.w3.org/Graphics/SVG/1.1/DTD/svg11.dtd">
<!-- Creator: CorelDRAW 2021 (64-Bit) -->
<svg xmlns="http://www.w3.org/2000/svg" xml:space="preserve" width="179.917mm" height="90.9998mm" version="1.1" style="shape-rendering:geometricPrecision; text-rendering:geometricPrecision; image-rendering:optimizeQuality; fill-rule:evenodd; clip-rule:evenodd"
viewBox="0 0 21175.87 10710.52"
 xmlns:xlink="http://www.w3.org/1999/xlink"
 xmlns:xodm="http://www.corel.com/coreldraw/odm/2003">
 <defs>
  <style type="text/css">
   <![CDATA[
    .str2 {stroke:#00678F;stroke-width:49.85;stroke-linejoin:round;stroke-miterlimit:10}
    .str0 {stroke:#E9EAEA;stroke-width:20.79;stroke-linejoin:round;stroke-miterlimit:10}
    .str1 {stroke:#434343;stroke-width:20.79;stroke-linecap:square;stroke-linejoin:round;stroke-miterlimit:10}
    .fil1 {fill:none;fill-rule:nonzero}
    .fil2 {fill:#434343;fill-rule:nonzero}
    .fil0 {fill:white;fill-rule:nonzero}
   ]]>
  </style>
 </defs>
 <g id="Layer_x0020_1">
  <metadata id="CorelCorpID_0Corel-Layer"/>
  <g id="_2669522740480">
   <polygon class="fil0" points="-0,10710.52 21175.87,10710.52 21175.87,0 -0,0 "/>
   <polygon class="fil0" points="-0,10710.52 21175.87,10710.52 21175.87,0 -0,0 "/>
   <polygon class="fil0" points="1526.63,2117.21 20593.79,2117.21 20593.79,342.5 1526.63,342.5 "/>
   <line class="fil1 str0" x1="1526.63" y1="2117.19" x2="1526.63" y2= "342.49" />
   <line class="fil1 str0" x1="4704.52" y1="2117.19" x2="4704.52" y2= "342.49" />
   <line class="fil1 str0" x1="7882.4" y1="2117.19" x2="7882.4" y2= "342.49" />
   <line class="fil1 str0" x1="11060.23" y1="2117.19" x2="11060.23" y2= "342.49" />
   <line class="fil1 str0" x1="14238.12" y1="2117.19" x2="14238.12" y2= "342.49" />
   <line class="fil1 str0" x1="17416.01" y1="2117.19" x2="17416.01" y2= "342.49" />
   <line class="fil1 str0" x1="20593.85" y1="2117.19" x2="20593.85" y2= "342.49" />
   <line class="fil1 str0" x1="20593.85" y1="2117.19" x2="1526.63" y2= "2117.19" />
   <line class="fil1 str0" x1="20593.85" y1="1291.74" x2="1526.63" y2= "1291.74" />
   <line class="fil1 str0" x1="20593.85" y1="466.31" x2="1526.63" y2= "466.31" />
   <line class="fil1 str1" x1="1526.63" y1="2117.19" x2="20593.85" y2= "2117.19" />
   <line class="fil1 str1" x1="1526.63" y1="2117.19" x2="1526.63" y2= "1926.64" />
   <line class="fil1 str1" x1="4704.52" y1="2117.19" x2="4704.52" y2= "1926.64" />
   <line class="fil1 str1" x1="7882.4" y1="2117.19" x2="7882.4" y2= "1926.64" />
   <line class="fil1 str1" x1="11060.23" y1="2117.19" x2="11060.23" y2= "1926.64" />
   <line class="fil1 str1" x1="14238.12" y1="2117.19" x2="14238.12" y2= "1926.64" />
   <line class="fil1 str1" x1="17416.01" y1="2117.19" x2="17416.01" y2= "1926.64" />
   <line class="fil1 str1" x1="20593.85" y1="2117.19" x2="20593.85" y2= "1926.64" />
   <path class="fil2" d="M1526.63 2555.55c-30.53,0 -51.29,-12.53 -62.31,-37.7 -11.03,-25.12 -16.55,-55.06 -16.55,-89.77 0,-21.72 1.94,-42.07 5.83,-61.04 3.91,-18.97 11.77,-35.2 23.61,-48.66 11.84,-13.45 28.31,-20.19 49.42,-20.19 16.54,0 30.02,4.07 40.41,12.17 10.37,8.1 18.34,18.48 23.86,31.14 5.51,12.66 9.24,26.28 11.19,40.85 1.94,14.57 2.93,29.85 2.93,45.71 0,21.42 -1.97,41.44 -5.87,60.12 -3.87,18.61 -11.58,34.51 -23.12,47.67 -11.52,13.12 -27.99,19.68 -49.4,19.68zm0 -9.71c13.95,0 24.33,-7.14 31.14,-21.39 6.83,-14.29 11.03,-30.02 12.65,-47.21 1.61,-17.2 2.42,-35.5 2.42,-55.01 0,-18.77 -0.81,-36.13 -2.42,-52.03 -1.62,-15.9 -5.83,-30.22 -12.65,-43.01 -6.81,-12.84 -17.2,-19.27 -31.14,-19.27 -13.96,0 -24.34,6.47 -31.15,19.47 -6.81,12.96 -11.03,27.32 -12.65,43.05 -1.62,15.74 -2.44,33.01 -2.44,51.79 0,13.65 0.33,26.61 0.98,38.95 0.64,12.32 2.41,25.03 5.36,38.19 2.9,13.12 7.6,24.16 14.1,33.05 6.5,8.93 15.09,13.42 25.81,13.42z"/>
   <path class="fil2" d="M4629.51 2547.28l0 -10.22c0,-0.66 0.33,-1.28 0.95,-1.94l57.93 -64.19c8.79,-9.43 15.9,-17.36 21.46,-23.88 5.48,-6.47 10.92,-13.95 16.28,-22.37 5.36,-8.43 9.59,-16.95 12.66,-25.54 3.12,-8.59 4.61,-17.77 4.61,-27.48 0,-10.38 -1.87,-20.19 -5.6,-29.44 -3.7,-9.23 -9.31,-16.7 -16.78,-22.39 -7.47,-5.65 -16.56,-8.47 -27.27,-8.47 -10.68,0 -20.43,3.28 -29.19,9.97 -8.77,6.6 -14.91,14.99 -18.48,25.03 0.95,0 2.4,0 4.35,0 5.52,0 10.22,1.87 14.12,5.61 3.9,3.73 5.85,8.46 5.85,14.32 0,5.85 -1.95,10.71 -5.85,14.61 -3.91,3.91 -8.6,5.86 -14.12,5.86 -5.85,0 -10.79,-2.04 -14.87,-6.11 -4.03,-4.06 -6.06,-8.84 -6.06,-14.36 0,-9.39 1.79,-18.15 5.36,-26.25 3.58,-8.13 8.69,-15.41 15.32,-21.88 6.64,-6.52 14.11,-11.46 22.42,-14.87 8.26,-3.4 17.1,-5.11 26.49,-5.11 14.32,0 27.61,3.07 39.94,9.26 12.33,6.14 22.06,14.65 29.19,25.53 7.19,10.84 10.72,23.75 10.72,38.66 0,10.71 -2.33,20.93 -7.06,30.68 -4.7,9.71 -10.79,18.51 -18.27,26.49 -7.44,7.92 -16.95,17.02 -28.45,27.24 -11.55,10.22 -19.1,16.94 -22.67,20.22l-42.31 40.85 35.54 0c17.81,0 32.67,-0.16 44.51,-0.49 11.88,-0.33 18.1,-0.84 18.76,-1.46 2.91,-3.24 6.03,-14.78 9.22,-34.54l10.72 0 -10.72 66.64 -138.72 0z"/>
   <path class="fil2" d="M7799.09 2485.5l0 -13.12 115.84 -172.23c0.67,-1.33 1.95,-1.95 3.91,-1.95l5.36 0c2.91,0 4.4,1.46 4.4,4.4l0 169.78 36.5 0 0 13.12 -36.5 0 0 36.96c0,4.85 3.61,8.02 10.96,9.51 7.31,1.45 15.65,2.19 25.08,2.19l0 13.12 -102.73 0 0 -13.12c9.38,0 17.73,-0.74 25.03,-2.19 7.31,-1.49 10.97,-4.66 10.97,-9.51l0 -36.96 -98.82 0zm12.66 -13.12l88.56 0 0 -132.33 -88.56 132.33z"/>
   <path class="fil2" d="M11060.15 2555.55c-15.57,0 -28.44,-4.11 -38.7,-12.42 -10.2,-8.26 -18.14,-18.89 -23.83,-31.84 -5.68,-12.96 -9.67,-26.71 -11.96,-41.11 -2.24,-14.44 -3.4,-28.94 -3.4,-43.55 0,-19.77 3.91,-39.57 11.71,-59.34 7.77,-19.76 19.06,-36.24 33.84,-49.36 14.74,-13.16 32.34,-19.73 52.81,-19.73 8.77,0 16.78,1.62 24.09,4.86 7.3,3.24 13.08,8.02 17.27,14.36 4.24,6.32 6.36,13.88 6.36,22.63 0,5.19 -1.71,9.46 -5.16,12.88 -3.4,3.4 -7.67,5.11 -12.91,5.11 -4.81,0 -9.05,-1.71 -12.62,-5.11 -3.58,-3.41 -5.36,-7.69 -5.36,-12.88 0,-4.9 1.78,-9 5.36,-12.42 3.57,-3.4 7.8,-5.11 12.62,-5.11l2 0c-3.25,-4.57 -7.73,-7.89 -13.42,-9.96 -5.65,-2.12 -11.75,-3.2 -18.23,-3.2 -7.47,0 -14.36,1.62 -20.71,4.9 -6.31,3.25 -12.08,7.6 -17.27,13.12 -5.19,5.52 -9.51,11.66 -12.92,18.48 -3.4,6.81 -5.98,14.54 -7.76,23.13 -1.79,8.59 -2.95,16.69 -3.41,24.33 -0.49,7.6 -0.71,17.11 -0.71,28.45 4.2,-10.38 10.38,-18.81 18.44,-25.29 8.13,-6.47 17.23,-9.71 27.28,-9.71 11.04,0 21.13,2.24 30.18,6.77 9.1,4.57 16.98,10.79 23.63,18.76 6.64,7.93 11.66,17.03 15.07,27.25 3.4,10.17 5.11,20.5 5.11,30.88 0,14.58 -3.24,28.53 -9.71,41.82 -6.52,13.32 -15.65,23.87 -27.49,31.64 -11.88,7.8 -25.25,11.66 -40.19,11.66zm0 -12.16c9.76,0 17.57,-2.17 23.37,-6.57 5.86,-4.35 10.13,-10.13 12.92,-17.27 2.73,-7.14 4.44,-14.41 5.1,-21.88 0.62,-7.47 0.97,-16.57 0.97,-27.25 0,-13.95 -0.75,-25.95 -2.17,-35.99 -1.49,-10.05 -5.11,-18.81 -10.96,-26.28 -5.86,-7.47 -14.95,-11.17 -27.24,-11.17 -10.1,0 -18.36,3.4 -24.83,10.17 -6.52,6.85 -11.3,15.44 -14.37,25.82 -3.11,10.38 -4.65,20.22 -4.65,29.65 0,3.24 0.16,5.86 0.51,7.8 0,0.34 0,0.59 0,0.71 0,0.16 -0.18,0.42 -0.51,0.75 0,10.71 1.13,21.59 3.41,32.59 2.28,11 6.51,20.27 12.66,27.74 6.18,7.43 14.77,11.17 25.78,11.17z"/>
   <path class="fil2" d="M14160.13 2490.37c0,-14.91 4.94,-28.15 14.87,-39.65 9.89,-11.51 22.63,-21.01 38.2,-28.48l-14.12 -9.23c-8.43,-5.52 -15.32,-12.86 -20.68,-22.13 -5.39,-9.22 -8.05,-19.06 -8.05,-29.44 0,-12.01 3.15,-22.8 9.51,-32.34 6.31,-9.56 14.65,-17.11 25.03,-22.63 10.38,-5.48 21.42,-8.26 33.13,-8.26 11,0 21.72,2.28 32.1,6.81 10.38,4.52 18.86,11.04 25.38,19.47 6.44,8.43 9.71,18.48 9.71,30.14 0,8.1 -1.95,15.82 -5.85,23.13 -3.91,7.27 -9.26,13.79 -16.07,19.48 -6.81,5.65 -14.12,10.42 -21.93,14.32l21.47 13.62c9.71,6.47 17.56,14.99 23.59,25.54 5.98,10.55 9,21.47 9,32.84 0,13.62 -3.65,25.95 -10.96,36.99 -7.31,11 -16.87,19.6 -28.69,25.79 -11.88,6.14 -24.46,9.22 -37.75,9.22 -12.99,0 -25.49,-2.57 -37.49,-7.76 -12.01,-5.19 -21.76,-12.83 -29.24,-22.88 -7.43,-10.05 -11.17,-21.6 -11.17,-34.54zm20.43 0c0,10.04 2.66,19.14 8.05,27.24 5.36,8.1 12.5,14.45 21.43,18.97 8.92,4.57 18.22,6.81 27.98,6.81 14.62,0 27.74,-4.2 39.45,-12.63 11.66,-8.43 17.48,-19.63 17.48,-33.59 0,-4.52 -0.87,-9.17 -2.66,-13.86 -1.79,-4.7 -4.4,-8.97 -7.8,-12.88 -3.4,-3.9 -7.23,-6.97 -11.42,-9.25l-50.12 -32.6c-7.82,4.24 -14.95,9.51 -21.47,15.82 -6.49,6.32 -11.58,13.37 -15.32,21.19 -3.73,7.76 -5.6,16.02 -5.6,24.79zm25.79 -113.81l45.34 29.15c10.38,-6.16 18.89,-13.55 25.53,-22.14 6.65,-8.59 9.97,-18.22 9.97,-28.94 0,-8.43 -2.37,-16.1 -7.06,-23.08 -4.68,-6.98 -10.79,-12.42 -18.22,-16.31 -7.47,-3.91 -15.62,-5.86 -24.38,-5.86 -7.47,0 -14.99,1.49 -22.63,4.4 -7.64,2.95 -13.95,7.23 -19.01,12.88 -5.03,5.68 -7.52,12.41 -7.52,20.17 0,11.71 5.98,21.6 17.98,29.73z"/>
   <path class="fil2" d="M17263.48 2547.28l0 -13.12c31.18,0 46.75,-3.9 46.75,-11.7l0 -196.52c-12.66,6.47 -28.89,9.71 -48.66,9.71l0 -13.12c30.51,0 53.55,-8.13 69.12,-24.33l5.32 0c0.66,0 1.41,0.41 2.2,1.2 0.82,0.84 1.25,1.54 1.25,2.2l0 220.86c0,7.8 15.57,11.7 46.7,11.7l0 13.12 -122.69 0z"/>
   <path class="fil2" d="M17509.33 2555.55c-30.48,0 -51.28,-12.53 -62.29,-37.7 -11.04,-25.12 -16.56,-55.06 -16.56,-89.77 0,-21.72 1.94,-42.07 5.8,-61.04 3.91,-18.97 11.79,-35.2 23.63,-48.66 11.83,-13.45 28.32,-20.19 49.41,-20.19 16.56,0 30.01,4.07 40.39,12.17 10.43,8.1 18.36,18.48 23.88,31.14 5.52,12.66 9.25,26.28 11.2,40.85 1.95,14.57 2.91,29.85 2.91,45.71 0,21.42 -1.95,41.44 -5.85,60.12 -3.91,18.61 -11.58,34.51 -23.13,47.67 -11.5,13.12 -27.99,19.68 -49.41,19.68zm0 -9.71c13.95,0 24.38,-7.14 31.18,-21.39 6.81,-14.29 11,-30.02 12.63,-47.21 1.61,-17.2 2.45,-35.5 2.45,-55.01 0,-18.77 -0.84,-36.13 -2.45,-52.03 -1.62,-15.9 -5.81,-30.22 -12.63,-43.01 -6.8,-12.84 -17.23,-19.27 -31.18,-19.27 -13.96,0 -24.34,6.47 -31.14,19.47 -6.81,12.96 -11.04,27.32 -12.66,43.05 -1.62,15.74 -2.41,33.01 -2.41,51.79 0,13.65 0.29,26.61 0.95,38.95 0.62,12.32 2.46,25.03 5.37,38.19 2.91,13.12 7.59,24.16 14.11,33.05 6.47,8.93 15.08,13.42 25.79,13.42z"/>
   <path class="fil2" d="M20441.36 2547.28l0 -13.12c31.14,0 46.71,-3.9 46.71,-11.7l0 -196.52c-12.66,6.47 -28.86,9.71 -48.67,9.71l0 -13.12c30.52,0 53.56,-8.13 69.14,-24.33l5.31 0c0.67,0 1.41,0.41 2.25,1.2 0.79,0.84 1.2,1.54 1.2,2.2l0 220.86c0,7.8 15.57,11.7 46.71,11.7l0 13.12 -122.65 0z"/>
   <path class="fil2" d="M20612.22 2547.28l0 -10.22c0,-0.66 0.33,-1.28 0.95,-1.94l57.92 -64.19c8.8,-9.43 15.95,-17.36 21.47,-23.88 5.52,-6.47 10.92,-13.95 16.28,-22.37 5.36,-8.43 9.59,-16.95 12.66,-25.54 3.11,-8.59 4.65,-17.77 4.65,-27.48 0,-10.38 -1.91,-20.19 -5.6,-29.44 -3.74,-9.23 -9.35,-16.7 -16.82,-22.39 -7.44,-5.65 -16.57,-8.47 -27.24,-8.47 -10.72,0 -20.48,3.28 -29.19,9.97 -8.8,6.6 -14.95,14.99 -18.53,25.03 0.95,0 2.41,0 4.4,0 5.48,0 10.17,1.87 14.12,5.61 3.86,3.73 5.8,8.46 5.8,14.32 0,5.85 -1.94,10.71 -5.8,14.61 -3.95,3.91 -8.64,5.86 -14.12,5.86 -5.9,0 -10.84,-2.04 -14.9,-6.11 -4.04,-4.06 -6.06,-8.84 -6.06,-14.36 0,-9.39 1.78,-18.15 5.36,-26.25 3.57,-8.13 8.67,-15.41 15.31,-21.88 6.69,-6.52 14.12,-11.46 22.42,-14.87 8.26,-3.4 17.11,-5.11 26.54,-5.11 14.28,0 27.56,3.07 39.9,9.26 12.33,6.14 22.09,14.65 29.22,25.53 7.14,10.84 10.72,23.75 10.72,38.66 0,10.71 -2.37,20.93 -7.11,30.68 -4.68,9.71 -10.75,18.51 -18.22,26.49 -7.47,7.92 -16.95,17.02 -28.48,27.24 -11.55,10.22 -19.07,16.94 -22.63,20.22l-42.35 40.85 35.53 0c17.85,0 32.68,-0.16 44.51,-0.49 11.88,-0.33 18.1,-0.84 18.77,-1.46 2.91,-3.24 6.01,-14.78 9.25,-34.54l10.72 0 -10.72 66.64 -138.75 0z"/>
   <line class="fil1 str1" x1="1526.63" y1="2117.19" x2="1526.63" y2= "342.49" />
   <line class="fil1 str1" x1="1526.63" y1="2117.19" x2="1717.31" y2= "2117.19" />
   <line class="fil1 str1" x1="1526.63" y1="1291.74" x2="1717.31" y2= "1291.74" />
   <line class="fil1 str1" x1="1526.63" y1="466.31" x2="1717.31" y2= "466.31" />
   <path class="fil2" d="M1316.84 2215.16c-30.52,0 -51.28,-12.58 -62.31,-37.71 -11.03,-25.12 -16.55,-55.05 -16.55,-89.77 0,-21.72 1.95,-42.1 5.83,-61.04 3.91,-18.97 11.78,-35.2 23.62,-48.7 11.84,-13.41 28.29,-20.17 49.41,-20.17 16.55,0 30.02,4.07 40.41,12.21 10.38,8.1 18.33,18.48 23.82,31.14 5.53,12.62 9.29,26.23 11.23,40.82 1.94,14.61 2.93,29.85 2.93,45.75 0,21.43 -1.95,41.44 -5.86,60.08 -3.88,18.64 -11.58,34.54 -23.12,47.67 -11.53,13.16 -27.99,19.73 -49.41,19.73zm0 -9.76c13.96,0 24.34,-7.11 31.14,-21.39 6.81,-14.29 11.03,-30.02 12.65,-47.21 1.62,-17.2 2.44,-35.51 2.44,-54.98 0,-18.81 -0.81,-36.17 -2.44,-52.07 -1.62,-15.87 -5.84,-30.22 -12.65,-43.02 -6.8,-12.83 -17.18,-19.27 -31.14,-19.27 -13.96,0 -24.34,6.52 -31.15,19.48 -6.81,12.99 -11.03,27.32 -12.65,43.05 -1.61,15.74 -2.42,33.01 -2.42,51.82 0,13.62 0.32,26.61 0.97,38.9 0.64,12.33 2.42,25.08 5.36,38.2 2.91,13.16 7.6,24.16 14.11,33.1 6.49,8.92 15.08,13.37 25.8,13.37z"/>
   <path class="fil2" d="M681.08 1381.45l0 -10.25c0,-0.62 0.33,-1.28 0.95,-1.95l57.92 -64.19c8.78,-9.38 15.91,-17.35 21.44,-23.83 5.5,-6.47 10.93,-13.95 16.29,-22.42 5.37,-8.43 9.58,-16.9 12.65,-25.49 3.1,-8.59 4.65,-17.77 4.65,-27.53 0,-10.38 -1.88,-20.17 -5.61,-29.39 -3.71,-9.26 -9.32,-16.7 -16.81,-22.39 -7.44,-5.68 -16.54,-8.51 -27.24,-8.51 -10.71,0 -20.44,3.32 -29.2,9.97 -8.78,6.64 -14.94,14.98 -18.5,25.07 0.97,0 2.44,0 4.39,0 5.5,0 10.2,1.84 14.11,5.61 3.87,3.7 5.83,8.46 5.83,14.32 0,5.85 -1.95,10.71 -5.83,14.57 -3.91,3.91 -8.62,5.85 -14.11,5.85 -5.87,0 -10.82,-2.02 -14.88,-6.1 -4.04,-4.03 -6.06,-8.85 -6.06,-14.32 0,-9.43 1.79,-18.18 5.36,-26.28 3.55,-8.1 8.66,-15.41 15.32,-21.88 6.65,-6.49 14.11,-11.46 22.36,-14.87 8.3,-3.41 17.15,-5.11 26.55,-5.11 14.29,0 27.59,3.11 39.92,9.25 12.32,6.19 22.07,14.7 29.22,25.54 7.13,10.88 10.7,23.79 10.7,38.65 0,10.71 -2.35,20.97 -7.07,30.68 -4.7,9.72 -10.79,18.56 -18.24,26.49 -7.46,7.93 -16.95,17.02 -28.48,27.24 -11.52,10.22 -19.07,16.98 -22.66,20.22l-42.32 40.86 35.54 0c17.84,0 32.68,-0.16 44.53,-0.46 11.85,-0.38 18.1,-0.84 18.75,-1.49 2.93,-3.24 6.01,-14.78 9.26,-34.54l10.7 0 -10.7 66.68 -138.74 0z"/>
   <path class="fil2" d="M942.97 1389.71c-30.51,0 -51.28,-12.58 -62.31,-37.7 -11.03,-25.12 -16.55,-55.06 -16.55,-89.77 0,-21.75 1.95,-42.1 5.83,-61.04 3.91,-18.97 11.78,-35.2 23.61,-48.7 11.84,-13.45 28.32,-20.17 49.42,-20.17 16.55,0 30.02,4.06 40.41,12.21 10.39,8.1 18.33,18.48 23.85,31.14 5.51,12.62 9.26,26.23 11.2,40.81 1.97,14.62 2.93,29.86 2.93,45.76 0,21.39 -1.95,41.44 -5.85,60.08 -3.9,18.64 -11.61,34.54 -23.13,47.67 -11.52,13.16 -28,19.71 -49.41,19.71zm0 -9.76c13.95,0 24.35,-7.1 31.15,-21.37 6.81,-14.29 11.04,-30.02 12.65,-47.22 1.61,-17.18 2.42,-35.5 2.42,-54.97 0,-18.81 -0.81,-36.17 -2.42,-52.07 -1.61,-15.87 -5.84,-30.22 -12.65,-43.02 -6.8,-12.83 -17.21,-19.27 -31.15,-19.27 -13.96,0 -24.34,6.52 -31.15,19.48 -6.81,12.99 -11.03,27.32 -12.65,43.05 -1.62,15.74 -2.42,33.01 -2.42,51.82 0,13.62 0.32,26.61 0.97,38.9 0.64,12.33 2.44,25.08 5.36,38.2 2.9,13.16 7.6,24.16 14.11,33.08 6.49,8.93 15.08,13.37 25.8,13.37z"/>
   <path class="fil2" d="M1129.9 1389.71c-30.51,0 -51.28,-12.58 -62.31,-37.7 -11.03,-25.12 -16.55,-55.06 -16.55,-89.77 0,-21.75 1.95,-42.1 5.84,-61.04 3.9,-18.97 11.78,-35.2 23.62,-48.7 11.84,-13.45 28.29,-20.17 49.4,-20.17 16.56,0 30.02,4.06 40.42,12.21 10.38,8.1 18.33,18.48 23.83,31.14 5.53,12.62 9.25,26.23 11.22,40.81 1.95,14.62 2.92,29.86 2.92,45.76 0,21.39 -1.94,41.44 -5.85,60.08 -3.88,18.64 -11.59,34.54 -23.12,47.67 -11.53,13.16 -28.01,19.71 -49.42,19.71zm0 -9.76c13.97,0 24.34,-7.1 31.15,-21.37 6.81,-14.29 11.03,-30.02 12.65,-47.22 1.62,-17.18 2.44,-35.5 2.44,-54.97 0,-18.81 -0.81,-36.17 -2.44,-52.07 -1.62,-15.87 -5.84,-30.22 -12.65,-43.02 -6.81,-12.83 -17.18,-19.27 -31.15,-19.27 -13.95,0 -24.34,6.52 -31.15,19.48 -6.81,12.99 -11.03,27.32 -12.65,43.05 -1.6,15.74 -2.41,33.01 -2.41,51.82 0,13.62 0.31,26.61 0.95,38.9 0.65,12.33 2.44,25.08 5.37,38.2 2.91,13.16 7.62,24.16 14.11,33.08 6.47,8.93 15.07,13.37 25.79,13.37z"/>
   <path class="fil2" d="M1316.84 1389.71c-30.52,0 -51.28,-12.58 -62.31,-37.7 -11.03,-25.12 -16.55,-55.06 -16.55,-89.77 0,-21.75 1.95,-42.1 5.83,-61.04 3.91,-18.97 11.78,-35.2 23.62,-48.7 11.84,-13.45 28.29,-20.17 49.41,-20.17 16.55,0 30.02,4.06 40.41,12.21 10.38,8.1 18.33,18.48 23.82,31.14 5.53,12.62 9.29,26.23 11.23,40.81 1.94,14.62 2.93,29.86 2.93,45.76 0,21.39 -1.95,41.44 -5.86,60.08 -3.88,18.64 -11.58,34.54 -23.12,47.67 -11.53,13.16 -27.99,19.71 -49.41,19.71zm0 -9.76c13.96,0 24.34,-7.1 31.14,-21.37 6.81,-14.29 11.03,-30.02 12.65,-47.22 1.62,-17.18 2.44,-35.5 2.44,-54.97 0,-18.81 -0.81,-36.17 -2.44,-52.07 -1.62,-15.87 -5.84,-30.22 -12.65,-43.02 -6.8,-12.83 -17.18,-19.27 -31.14,-19.27 -13.96,0 -24.34,6.52 -31.15,19.48 -6.81,12.99 -11.03,27.32 -12.65,43.05 -1.61,15.74 -2.42,33.01 -2.42,51.82 0,13.62 0.32,26.61 0.97,38.9 0.64,12.33 2.42,25.08 5.36,38.2 2.91,13.16 7.6,24.16 14.11,33.08 6.49,8.93 15.08,13.37 25.8,13.37z"/>
   <path class="fil2" d="M672.8 494.23l0 -13.17 115.86 -172.23c0.64,-1.28 1.94,-1.95 3.9,-1.95l5.36 0c2.91,0 4.37,1.49 4.37,4.4l0 169.78 36.51 0 0 13.17 -36.51 0 0 36.95c0,4.86 3.65,8.02 10.96,9.47 7.3,1.49 15.65,2.2 25.09,2.2l0 13.12 -102.73 0 0 -13.12c9.4,0 17.76,-0.71 25.06,-2.2 7.31,-1.46 10.96,-4.61 10.96,-9.47l0 -36.95 -98.82 0zm12.65 -13.17l88.6 0 0 -132.33 -88.6 132.33z"/>
   <path class="fil2" d="M942.97 564.27c-30.51,0 -51.28,-12.58 -62.31,-37.7 -11.03,-25.16 -16.55,-55.06 -16.55,-89.77 0,-21.76 1.95,-42.1 5.83,-61.09 3.91,-18.97 11.78,-35.17 23.61,-48.66 11.84,-13.45 28.32,-20.19 49.42,-20.19 16.55,0 30.02,4.07 40.41,12.22 10.39,8.1 18.33,18.47 23.85,31.13 5.51,12.63 9.26,26.25 11.2,40.82 1.97,14.62 2.93,29.86 2.93,45.76 0,21.39 -1.95,41.44 -5.85,60.08 -3.9,18.64 -11.61,34.54 -23.13,47.66 -11.52,13.17 -28,19.73 -49.41,19.73zm0 -9.76c13.95,0 24.35,-7.14 31.15,-21.39 6.81,-14.28 11.04,-30.01 12.65,-47.21 1.61,-17.18 2.42,-35.5 2.42,-54.98 0,-18.81 -0.81,-36.16 -2.42,-52.06 -1.61,-15.87 -5.84,-30.24 -12.65,-43.02 -6.8,-12.83 -17.21,-19.27 -31.15,-19.27 -13.96,0 -24.34,6.52 -31.15,19.47 -6.81,13.01 -11.03,27.33 -12.65,43.07 -1.62,15.74 -2.42,33 -2.42,51.81 0,13.63 0.32,26.62 0.97,38.91 0.64,12.33 2.44,25.08 5.36,38.2 2.9,13.16 7.6,24.16 14.11,33.08 6.49,8.93 15.08,13.37 25.8,13.37z"/>
   <path class="fil2" d="M1129.9 564.27c-30.51,0 -51.28,-12.58 -62.31,-37.7 -11.03,-25.16 -16.55,-55.06 -16.55,-89.77 0,-21.76 1.95,-42.1 5.84,-61.09 3.9,-18.97 11.78,-35.17 23.62,-48.66 11.84,-13.45 28.29,-20.19 49.4,-20.19 16.56,0 30.02,4.07 40.42,12.22 10.38,8.1 18.33,18.47 23.83,31.13 5.53,12.63 9.25,26.25 11.22,40.82 1.95,14.62 2.92,29.86 2.92,45.76 0,21.39 -1.94,41.44 -5.85,60.08 -3.88,18.64 -11.59,34.54 -23.12,47.66 -11.53,13.17 -28.01,19.73 -49.42,19.73zm0 -9.76c13.97,0 24.34,-7.14 31.15,-21.39 6.81,-14.28 11.03,-30.01 12.65,-47.21 1.62,-17.18 2.44,-35.5 2.44,-54.98 0,-18.81 -0.81,-36.16 -2.44,-52.06 -1.62,-15.87 -5.84,-30.24 -12.65,-43.02 -6.81,-12.83 -17.18,-19.27 -31.15,-19.27 -13.95,0 -24.34,6.52 -31.15,19.47 -6.81,13.01 -11.03,27.33 -12.65,43.07 -1.6,15.74 -2.41,33 -2.41,51.81 0,13.63 0.31,26.62 0.95,38.91 0.65,12.33 2.44,25.08 5.37,38.2 2.91,13.16 7.62,24.16 14.11,33.08 6.47,8.93 15.07,13.37 25.79,13.37z"/>
   <path class="fil2" d="M1316.84 564.27c-30.52,0 -51.28,-12.58 -62.31,-37.7 -11.03,-25.16 -16.55,-55.06 -16.55,-89.77 0,-21.76 1.95,-42.1 5.83,-61.09 3.91,-18.97 11.78,-35.17 23.62,-48.66 11.84,-13.45 28.29,-20.19 49.41,-20.19 16.55,0 30.02,4.07 40.41,12.22 10.38,8.1 18.33,18.47 23.82,31.13 5.53,12.63 9.29,26.25 11.23,40.82 1.94,14.62 2.93,29.86 2.93,45.76 0,21.39 -1.95,41.44 -5.86,60.08 -3.88,18.64 -11.58,34.54 -23.12,47.66 -11.53,13.17 -27.99,19.73 -49.41,19.73zm0 -9.76c13.96,0 24.34,-7.14 31.14,-21.39 6.81,-14.28 11.03,-30.01 12.65,-47.21 1.62,-17.18 2.44,-35.5 2.44,-54.98 0,-18.81 -0.81,-36.16 -2.44,-52.06 -1.62,-15.87 -5.84,-30.24 -12.65,-43.02 -6.8,-12.83 -17.18,-19.27 -31.14,-19.27 -13.96,0 -24.34,6.52 -31.15,19.47 -6.81,13.01 -11.03,27.33 -12.65,43.07 -1.61,15.74 -2.42,33 -2.42,51.81 0,13.63 0.32,26.62 0.97,38.91 0.64,12.33 2.42,25.08 5.36,38.2 2.91,13.16 7.6,24.16 14.11,33.08 6.49,8.93 15.08,13.37 25.8,13.37z"/>
   <polyline class="fil1 str2" points="1526.63,626.94 1923.86,622.79 2321.1,739.43 2718.34,743.58 3115.58,658.53 3512.8,644.83 3910.03,744.62 4307.27,741.3 4704.52,660.36 5101.75,642.34 5498.96,739.89 5896.23,742.75 6293.43,656.54 6690.67,640.64 7087.92,743.01 7485.16,742.5 7882.4,654.54 8279.6,641.64 8676.84,741.3 9074.08,742.5 9471.32,657.42 9868.56,643.75 10265.81,740.3 10663.05,743.37 11060.23,652.85 11457.48,643.59 11854.71,743.45 12251.95,739.97 12649.2,654.79 13046.39,1982.43 13443.63,1948.88 13840.88,1995.04 14238.12,2095.24 14635.37,2095.78 15032.6,1993.58 15429.84,1994.67 15827.04,2095.78 16224.28,2095.28 16621.52,1994.26 17018.77,1994.88 17416.01,2095.36 17813.21,2095.86 18210.45,1994.34 18607.68,1994.79 19004.92,2095.32 19402.17,2095.36 19799.41,2000.19 20196.65,1870.6 20593.85,2095.36 "/>
   <path class="fil2" d="M436.54 1910.27c0,2.58 -1.78,3.86 -5.34,3.86 -0.66,0 -1.79,-0.16 -3.41,-0.46 -1.61,-0.33 -2.92,-0.91 -3.88,-1.69 -0.98,-0.84 -1.47,-1.71 -1.47,-2.71 0,-16.52 -0.97,-28.02 -2.93,-34.5 -1.28,-3.61 -4.85,-6.19 -10.7,-7.8l-222.47 -55.47c-2.59,-0.29 -4.53,-0.46 -5.85,-0.46 -2.91,0 -4.53,1.45 -4.85,4.35 -0.99,5.19 -1.48,14.91 -1.48,29.19 0,2.95 -1.78,4.4 -5.34,4.4 -0.65,-0.33 -1.79,-0.66 -3.41,-1 -1.6,-0.33 -2.9,-0.87 -3.88,-1.69 -0.98,-0.79 -1.46,-1.71 -1.46,-2.66l0 -139.64c0,-12.99 2.27,-25.45 6.83,-37.45 4.52,-11.99 11.42,-21.8 20.68,-29.44 9.24,-7.64 20.51,-11.42 33.83,-11.42 17.21,0 32.54,6.06 46,18.22 13.49,12.17 23.94,27.25 31.4,45.27 7.46,17.97 11.18,35.42 11.18,52.27l0 65.69 100.3 24.83c2.59,0.28 4.53,0.46 5.85,0.46 0.98,0 1.79,-0.18 2.44,-0.46 0.62,-0.34 1.13,-0.75 1.46,-1.25 0.31,-0.49 0.47,-1.38 0.47,-2.66 1.31,-5.19 1.95,-15.07 1.95,-29.68 0,-2.58 1.79,-3.86 5.36,-3.86 3.59,0.95 5.92,1.66 7.04,2.15 1.15,0.49 1.72,2.17 1.72,5.11l0 108.49zm-138.26 -105.09l0 -56.92c0,-26.25 -7.14,-46.22 -21.41,-59.84 -6.81,-6.8 -16.88,-12.5 -30.19,-17.07 -13.29,-4.52 -25.31,-6.77 -36,-6.77 -13.32,0 -22.73,5.11 -28.24,15.32 -5.52,10.22 -8.3,22.8 -8.3,37.7l0 38.95c0,7.44 0.67,12.29 1.97,14.58 1.29,2.28 5.19,4.35 11.7,6.31l110.47 27.73z"/>
   <path class="fil2" d="M504.56 1596.28c0,23.05 -9.5,38.62 -28.47,46.71 -19,8.1 -41.45,12.16 -67.42,12.16 -16.22,0 -31.48,-1.45 -45.77,-4.4 -14.28,-2.9 -26.44,-8.71 -36.51,-17.48 -10.06,-8.76 -15.09,-21.09 -15.09,-36.99 0,-12.33 3,-22.34 9,-30.14 6,-7.77 13.78,-13.78 23.37,-17.98 9.57,-4.27 19.79,-7.1 30.65,-8.54 10.89,-1.46 22.34,-2.17 34.34,-2.17 16.22,0 31.3,1.46 45.27,4.37 13.95,2.91 25.88,8.76 35.76,17.51 9.91,8.77 14.87,21.06 14.87,36.96zm-7.29 0c0,-10.38 -5.37,-18.15 -16.08,-23.34 -10.72,-5.19 -22.57,-8.34 -35.56,-9.46 -12.97,-1.17 -26.78,-1.74 -41.37,-1.74 -13.96,0 -26.86,0.58 -38.7,1.74 -11.84,1.12 -22.62,4.27 -32.37,9.46 -9.73,5.19 -14.61,12.96 -14.61,23.34 0,10.71 4.87,18.56 14.61,23.59 9.75,5.03 20.53,8.1 32.37,9.26 11.84,1.15 24.74,1.69 38.7,1.69 10.38,0 20.21,-0.25 29.47,-0.74 9.25,-0.46 18.74,-1.75 28.48,-3.91 9.71,-2.07 17.98,-5.57 24.83,-10.42 6.8,-4.86 10.22,-11.38 10.22,-19.48z"/>
   <path class="fil2" d="M536.83 1239.44c-11.7,14.91 -25.23,27.82 -40.65,38.66 -15.42,10.88 -31.8,19.8 -49.17,26.78 -17.35,6.98 -35.53,12.17 -54.51,15.57 -19,3.4 -38.05,5.11 -57.21,5.11 -19.48,0 -38.71,-1.71 -57.68,-5.11 -19,-3.4 -37.24,-8.59 -54.74,-15.57 -17.54,-6.98 -33.93,-15.98 -49.2,-26.99 -15.24,-11.04 -28.57,-23.87 -39.91,-38.45 -0.65,0 -0.98,-0.66 -0.98,-1.94l0 -3.91c0,-0.67 0.33,-1.28 0.98,-1.95 0.65,-0.62 1.44,-0.95 2.44,-0.95 1.29,0 2.28,0.16 2.92,0.49 12.64,13.29 26.35,24.29 41.12,33.05 14.76,8.77 30.51,15.82 47.23,21.19 16.72,5.36 33.99,9.25 51.83,11.66 17.84,2.45 36.51,3.65 55.99,3.65 85.7,0 150.91,-23 195.69,-69.09 0.65,-0.62 1.79,-0.95 3.44,-0.95 0.64,0 1.37,0.33 2.18,0.95 0.81,0.67 1.21,1.28 1.21,1.95l0 3.91c0,1.28 -0.32,1.94 -0.97,1.94z"/>
   <path class="fil2" d="M440.94 1079.14l-254.15 82.71c-5.5,2.24 -8.98,6.39 -10.45,12.42 -1.46,5.98 -2.2,13.82 -2.2,23.57l-14.1 0 0 -108.49 14.1 0c0,22.72 3.59,34.05 10.72,34.05l1.93 0 199.62 -64.69 -170.38 -54.98 -29.24 9.22c-5.5,1.95 -8.98,6.03 -10.45,12.17 -1.46,6.19 -2.2,14.11 -2.2,23.83l-14.1 0 0 -108.46 14.1 0c0,23.01 3.59,34.51 10.72,34.51 0.32,0 0.88,-0.16 1.72,-0.46 0.81,-0.33 1.37,-0.49 1.67,-0.49l198.16 -64.19 -188.39 -60.83c-0.67,-0.34 -1.97,-0.51 -3.9,-0.51 -7.14,0 -12.26,3.74 -15.34,11.17 -3.08,7.47 -4.65,15.45 -4.65,23.88l-14.1 0 0 -86.61 14.1 0c0,21.09 7.97,34.21 23.88,39.41l242.92 78.85c2.91,0.95 4.37,3.02 4.37,6.31l0 2.91c0,2.91 -1.46,4.86 -4.37,5.85l-205.94 66.65 205.94 67.14c2.91,0.95 4.37,3.07 4.37,6.31l0 2.91c0,2.91 -1.46,4.86 -4.37,5.86z"/>
   <path class="fil2" d="M537.8 756.47c0,2.25 -1.13,3.4 -3.39,3.4 -1.31,0 -2.28,-0.16 -2.93,-0.49 -45.1,-46.37 -110.5,-69.55 -196.19,-69.55 -85.66,0 -150.9,22.83 -195.69,68.55 -0.66,1 -1.8,1.49 -3.41,1.49 -1,0 -1.79,-0.33 -2.44,-0.95 -0.65,-0.66 -0.98,-1.49 -0.98,-2.45l0 -3.9c0,-0.67 0.33,-1.29 0.98,-1.95 15.27,-19.43 33.85,-35.59 55.73,-48.42 21.9,-12.83 45.2,-22.21 69.85,-28.19 24.67,-6.01 49.99,-9 75.95,-9 19.16,0 37.97,1.61 56.46,4.85 18.51,3.24 36.76,8.39 54.78,15.37 18.01,6.93 34.64,15.85 49.9,26.73 15.24,10.84 28.71,23.75 40.41,38.66 0.65,0.66 0.97,1.28 0.97,1.95l0 3.9z"/>
   <polygon class="fil0" points="1526.63,4576.9 20593.79,4576.9 20593.79,2833.31 1526.63,2833.31 "/>
   <line class="fil1 str0" x1="1526.63" y1="4576.86" x2="1526.63" y2= "2833.29" />
   <line class="fil1 str0" x1="4704.52" y1="4576.86" x2="4704.52" y2= "2833.29" />
   <line class="fil1 str0" x1="7882.4" y1="4576.86" x2="7882.4" y2= "2833.29" />
   <line class="fil1 str0" x1="11060.23" y1="4576.86" x2="11060.23" y2= "2833.29" />
   <line class="fil1 str0" x1="14238.12" y1="4576.86" x2="14238.12" y2= "2833.29" />
   <line class="fil1 str0" x1="17416.01" y1="4576.86" x2="17416.01" y2= "2833.29" />
   <line class="fil1 str0" x1="20593.85" y1="4576.86" x2="20593.85" y2= "2833.29" />
   <line class="fil1 str0" x1="20593.85" y1="4140.99" x2="1526.63" y2= "4140.99" />
   <line class="fil1 str0" x1="20593.85" y1="3269.2" x2="1526.63" y2= "3269.2" />
   <line class="fil1 str1" x1="1526.63" y1="4576.86" x2="20593.85" y2= "4576.86" />
   <line class="fil1 str1" x1="1526.63" y1="4576.86" x2="1526.63" y2= "4386.34" />
   <line class="fil1 str1" x1="4704.52" y1="4576.86" x2="4704.52" y2= "4386.34" />
   <line class="fil1 str1" x1="7882.4" y1="4576.86" x2="7882.4" y2= "4386.34" />
   <line class="fil1 str1" x1="11060.23" y1="4576.86" x2="11060.23" y2= "4386.34" />
   <line class="fil1 str1" x1="14238.12" y1="4576.86" x2="14238.12" y2= "4386.34" />
   <line class="fil1 str1" x1="17416.01" y1="4576.86" x2="17416.01" y2= "4386.34" />
   <line class="fil1 str1" x1="20593.85" y1="4576.86" x2="20593.85" y2= "4386.34" />
   <path class="fil2" d="M1526.63 5015.28c-30.53,0 -51.29,-12.58 -62.31,-37.7 -11.03,-25.16 -16.55,-55.11 -16.55,-89.77 0,-21.76 1.94,-42.11 5.83,-61.09 3.91,-18.97 11.77,-35.2 23.61,-48.66 11.84,-13.45 28.31,-20.19 49.42,-20.19 16.54,0 30.02,4.07 40.41,12.17 10.37,8.1 18.34,18.48 23.86,31.14 5.51,12.66 9.24,26.28 11.19,40.85 1.94,14.57 2.93,29.85 2.93,45.76 0,21.37 -1.97,41.39 -5.87,60.07 -3.87,18.64 -11.58,34.51 -23.12,47.67 -11.52,13.12 -27.99,19.73 -49.4,19.73zm0 -9.76c13.95,0 24.33,-7.14 31.14,-21.39 6.83,-14.29 11.03,-30.02 12.65,-47.21 1.61,-17.2 2.42,-35.5 2.42,-54.98 0,-18.81 -0.81,-36.17 -2.42,-52.07 -1.62,-15.9 -5.83,-30.22 -12.65,-43.01 -6.81,-12.84 -17.2,-19.27 -31.14,-19.27 -13.96,0 -24.34,6.52 -31.15,19.47 -6.81,12.96 -11.03,27.32 -12.65,43.05 -1.62,15.75 -2.44,33.01 -2.44,51.82 0,13.62 0.33,26.58 0.98,38.91 0.64,12.32 2.41,25.03 5.36,38.19 2.9,13.17 7.6,24.16 14.1,33.05 6.5,8.97 15.09,13.42 25.81,13.42z"/>
   <path class="fil2" d="M4629.51 5006.97l0 -10.22c0,-0.61 0.33,-1.28 0.95,-1.94l57.93 -64.19c8.79,-9.43 15.9,-17.36 21.46,-23.88 5.48,-6.47 10.92,-13.91 16.28,-22.37 5.36,-8.43 9.59,-16.95 12.66,-25.54 3.12,-8.59 4.61,-17.77 4.61,-27.48 0,-10.38 -1.87,-20.19 -5.6,-29.44 -3.7,-9.23 -9.31,-16.65 -16.78,-22.39 -7.47,-5.65 -16.56,-8.47 -27.27,-8.47 -10.68,0 -20.43,3.33 -29.19,9.97 -8.77,6.65 -14.91,14.99 -18.48,25.03 0.95,0 2.4,0 4.35,0 5.52,0 10.22,1.87 14.12,5.61 3.9,3.73 5.85,8.51 5.85,14.32 0,5.85 -1.95,10.71 -5.85,14.61 -3.91,3.91 -8.6,5.86 -14.12,5.86 -5.85,0 -10.79,-2.04 -14.87,-6.11 -4.03,-4.06 -6.06,-8.84 -6.06,-14.36 0,-9.39 1.79,-18.15 5.36,-26.25 3.58,-8.13 8.69,-15.41 15.32,-21.88 6.64,-6.47 14.11,-11.46 22.42,-14.87 8.26,-3.4 17.1,-5.11 26.49,-5.11 14.32,0 27.61,3.12 39.94,9.26 12.33,6.14 22.06,14.65 29.19,25.53 7.19,10.89 10.72,23.75 10.72,38.66 0,10.71 -2.33,20.93 -7.06,30.68 -4.7,9.71 -10.79,18.56 -18.27,26.49 -7.44,7.92 -16.95,17.02 -28.45,27.24 -11.55,10.22 -19.1,16.94 -22.67,20.22l-42.31 40.85 35.54 0c17.81,0 32.67,-0.16 44.51,-0.49 11.88,-0.33 18.1,-0.84 18.76,-1.46 2.91,-3.24 6.03,-14.78 9.22,-34.54l10.72 0 -10.72 66.64 -138.72 0z"/>
   <path class="fil2" d="M7799.09 4945.19l0 -13.12 115.84 -172.23c0.67,-1.28 1.95,-1.95 3.91,-1.95l5.36 0c2.91,0 4.4,1.46 4.4,4.4l0 169.78 36.5 0 0 13.12 -36.5 0 0 36.96c0,4.85 3.61,8.05 10.96,9.51 7.31,1.45 15.65,2.2 25.08,2.2l0 13.11 -102.73 0 0 -13.11c9.38,0 17.73,-0.75 25.03,-2.2 7.31,-1.46 10.97,-4.66 10.97,-9.51l0 -36.96 -98.82 0zm12.66 -13.12l88.56 0 0 -132.33 -88.56 132.33z"/>
   <path class="fil2" d="M11060.15 5015.28c-15.57,0 -28.44,-4.15 -38.7,-12.42 -10.2,-8.31 -18.14,-18.89 -23.83,-31.88 -5.68,-12.96 -9.67,-26.66 -11.96,-41.11 -2.24,-14.44 -3.4,-28.94 -3.4,-43.55 0,-19.77 3.91,-39.53 11.71,-59.34 7.77,-19.76 19.06,-36.24 33.84,-49.36 14.74,-13.12 32.34,-19.73 52.81,-19.73 8.77,0 16.78,1.62 24.09,4.86 7.3,3.24 13.08,8.02 17.27,14.37 4.24,6.34 6.36,13.86 6.36,22.62 0,5.19 -1.71,9.51 -5.16,12.88 -3.4,3.4 -7.67,5.11 -12.91,5.11 -4.81,0 -9.05,-1.71 -12.62,-5.11 -3.58,-3.37 -5.36,-7.69 -5.36,-12.88 0,-4.86 1.78,-9 5.36,-12.42 3.57,-3.4 7.8,-5.11 12.62,-5.11l2 0c-3.25,-4.57 -7.73,-7.89 -13.42,-9.96 -5.65,-2.12 -11.75,-3.2 -18.23,-3.2 -7.47,0 -14.36,1.66 -20.71,4.9 -6.31,3.25 -12.08,7.6 -17.27,13.12 -5.19,5.52 -9.51,11.66 -12.92,18.48 -3.4,6.81 -5.98,14.54 -7.76,23.13 -1.79,8.59 -2.95,16.69 -3.41,24.33 -0.49,7.64 -0.71,17.11 -0.71,28.45 4.2,-10.38 10.38,-18.81 18.44,-25.29 8.13,-6.47 17.23,-9.71 27.28,-9.71 11.04,0 21.13,2.24 30.18,6.77 9.1,4.57 16.98,10.79 23.63,18.76 6.64,7.93 11.66,17.03 15.07,27.25 3.4,10.22 5.11,20.5 5.11,30.88 0,14.58 -3.24,28.53 -9.71,41.82 -6.52,13.32 -15.65,23.87 -27.49,31.68 -11.88,7.76 -25.25,11.66 -40.19,11.66zm0 -12.21c9.76,0 17.57,-2.17 23.37,-6.57 5.86,-4.35 10.13,-10.12 12.92,-17.27 2.73,-7.11 4.44,-14.41 5.1,-21.88 0.62,-7.44 0.97,-16.52 0.97,-27.25 0,-13.95 -0.75,-25.94 -2.17,-35.99 -1.49,-10.05 -5.11,-18.81 -10.96,-26.28 -5.86,-7.44 -14.95,-11.17 -27.24,-11.17 -10.1,0 -18.36,3.4 -24.83,10.22 -6.52,6.8 -11.3,15.39 -14.37,25.78 -3.11,10.38 -4.65,20.27 -4.65,29.65 0,3.24 0.16,5.86 0.51,7.8 0,0.34 0,0.59 0,0.75 0,0.12 -0.18,0.38 -0.51,0.71 0,10.71 1.13,21.59 3.41,32.59 2.28,11.05 6.51,20.27 12.66,27.74 6.18,7.47 14.77,11.17 25.78,11.17z"/>
   <path class="fil2" d="M14160.13 4950.05c0,-14.91 4.94,-28.15 14.87,-39.65 9.89,-11.51 22.63,-20.97 38.2,-28.45l-14.12 -9.26c-8.43,-5.52 -15.32,-12.86 -20.68,-22.08 -5.39,-9.26 -8.05,-19.1 -8.05,-29.48 0,-12.01 3.15,-22.75 9.51,-32.34 6.31,-9.56 14.65,-17.11 25.03,-22.59 10.38,-5.52 21.42,-8.31 33.13,-8.31 11,0 21.72,2.28 32.1,6.81 10.38,4.52 18.86,11.04 25.38,19.47 6.44,8.43 9.71,18.48 9.71,30.14 0,8.14 -1.95,15.82 -5.85,23.13 -3.91,7.31 -9.26,13.79 -16.07,19.48 -6.81,5.65 -14.12,10.46 -21.93,14.32l21.47 13.62c9.71,6.52 17.56,14.99 23.59,25.54 5.98,10.55 9,21.5 9,32.84 0,13.62 -3.65,25.95 -10.96,36.99 -7.31,11 -16.87,19.61 -28.69,25.79 -11.88,6.14 -24.46,9.26 -37.75,9.26 -12.99,0 -25.49,-2.61 -37.49,-7.8 -12.01,-5.19 -21.76,-12.83 -29.24,-22.88 -7.43,-10.05 -11.17,-21.55 -11.17,-34.54zm20.43 0c0,10.04 2.66,19.14 8.05,27.24 5.36,8.13 12.5,14.45 21.43,18.97 8.92,4.57 18.22,6.81 27.98,6.81 14.62,0 27.74,-4.2 39.45,-12.63 11.66,-8.43 17.48,-19.63 17.48,-33.54 0,-4.57 -0.87,-9.18 -2.66,-13.91 -1.79,-4.7 -4.4,-8.97 -7.8,-12.88 -3.4,-3.9 -7.23,-6.97 -11.42,-9.25l-50.12 -32.6c-7.82,4.24 -14.95,9.51 -21.47,15.82 -6.49,6.32 -11.58,13.37 -15.32,21.19 -3.73,7.76 -5.6,16.07 -5.6,24.79zm25.79 -113.81l45.34 29.15c10.38,-6.16 18.89,-13.54 25.53,-22.14 6.65,-8.54 9.97,-18.22 9.97,-28.94 0,-8.43 -2.37,-16.1 -7.06,-23.08 -4.68,-6.98 -10.79,-12.42 -18.22,-16.31 -7.47,-3.91 -15.62,-5.86 -24.38,-5.86 -7.47,0 -14.99,1.49 -22.63,4.4 -7.64,2.95 -13.95,7.23 -19.01,12.88 -5.03,5.68 -7.52,12.41 -7.52,20.17 0,11.71 5.98,21.6 17.98,29.73z"/>
   <path class="fil2" d="M17263.48 5006.97l0 -13.11c31.18,0 46.75,-3.91 46.75,-11.71l0 -196.52c-12.66,6.47 -28.89,9.71 -48.66,9.71l0 -13.12c30.51,0 53.55,-8.09 69.12,-24.33l5.32 0c0.66,0 1.41,0.41 2.2,1.25 0.82,0.79 1.25,1.49 1.25,2.15l0 220.86c0,7.8 15.57,11.71 46.7,11.71l0 13.11 -122.69 0z"/>
   <path class="fil2" d="M17509.33 5015.28c-30.48,0 -51.28,-12.58 -62.29,-37.7 -11.04,-25.16 -16.56,-55.11 -16.56,-89.77 0,-21.76 1.94,-42.11 5.8,-61.09 3.91,-18.97 11.79,-35.2 23.63,-48.66 11.83,-13.45 28.32,-20.19 49.41,-20.19 16.56,0 30.01,4.07 40.39,12.17 10.43,8.1 18.36,18.48 23.88,31.14 5.52,12.66 9.25,26.28 11.2,40.85 1.95,14.57 2.91,29.85 2.91,45.76 0,21.37 -1.95,41.39 -5.85,60.07 -3.91,18.64 -11.58,34.51 -23.13,47.67 -11.5,13.12 -27.99,19.73 -49.41,19.73zm0 -9.76c13.95,0 24.38,-7.14 31.18,-21.39 6.81,-14.29 11,-30.02 12.63,-47.21 1.61,-17.2 2.45,-35.5 2.45,-54.98 0,-18.81 -0.84,-36.17 -2.45,-52.07 -1.62,-15.9 -5.81,-30.22 -12.63,-43.01 -6.8,-12.84 -17.23,-19.27 -31.18,-19.27 -13.96,0 -24.34,6.52 -31.14,19.47 -6.81,12.96 -11.04,27.32 -12.66,43.05 -1.62,15.75 -2.41,33.01 -2.41,51.82 0,13.62 0.29,26.58 0.95,38.91 0.62,12.32 2.46,25.03 5.37,38.19 2.91,13.17 7.59,24.16 14.11,33.05 6.47,8.97 15.08,13.42 25.79,13.42z"/>
   <path class="fil2" d="M20441.36 5006.97l0 -13.11c31.14,0 46.71,-3.91 46.71,-11.71l0 -196.52c-12.66,6.47 -28.86,9.71 -48.67,9.71l0 -13.12c30.52,0 53.56,-8.09 69.14,-24.33l5.31 0c0.67,0 1.41,0.41 2.25,1.25 0.79,0.79 1.2,1.49 1.2,2.15l0 220.86c0,7.8 15.57,11.71 46.71,11.71l0 13.11 -122.65 0z"/>
   <path class="fil2" d="M20612.22 5006.97l0 -10.22c0,-0.61 0.33,-1.28 0.95,-1.94l57.92 -64.19c8.8,-9.43 15.95,-17.36 21.47,-23.88 5.52,-6.47 10.92,-13.91 16.28,-22.37 5.36,-8.43 9.59,-16.95 12.66,-25.54 3.11,-8.59 4.65,-17.77 4.65,-27.48 0,-10.38 -1.91,-20.19 -5.6,-29.44 -3.74,-9.23 -9.35,-16.65 -16.82,-22.39 -7.44,-5.65 -16.57,-8.47 -27.24,-8.47 -10.72,0 -20.48,3.33 -29.19,9.97 -8.8,6.65 -14.95,14.99 -18.53,25.03 0.95,0 2.41,0 4.4,0 5.48,0 10.17,1.87 14.12,5.61 3.86,3.73 5.8,8.51 5.8,14.32 0,5.85 -1.94,10.71 -5.8,14.61 -3.95,3.91 -8.64,5.86 -14.12,5.86 -5.9,0 -10.84,-2.04 -14.9,-6.11 -4.04,-4.06 -6.06,-8.84 -6.06,-14.36 0,-9.39 1.78,-18.15 5.36,-26.25 3.57,-8.13 8.67,-15.41 15.31,-21.88 6.69,-6.47 14.12,-11.46 22.42,-14.87 8.26,-3.4 17.11,-5.11 26.54,-5.11 14.28,0 27.56,3.12 39.9,9.26 12.33,6.14 22.09,14.65 29.22,25.53 7.14,10.89 10.72,23.75 10.72,38.66 0,10.71 -2.37,20.93 -7.11,30.68 -4.68,9.71 -10.75,18.56 -18.22,26.49 -7.47,7.92 -16.95,17.02 -28.48,27.24 -11.55,10.22 -19.07,16.94 -22.63,20.22l-42.35 40.85 35.53 0c17.85,0 32.68,-0.16 44.51,-0.49 11.88,-0.33 18.1,-0.84 18.77,-1.46 2.91,-3.24 6.01,-14.78 9.25,-34.54l10.72 0 -10.72 66.64 -138.75 0z"/>
   <line class="fil1 str1" x1="1526.63" y1="4576.86" x2="1526.63" y2= "2833.29" />
   <line class="fil1 str1" x1="1526.63" y1="4140.99" x2="1717.31" y2= "4140.99" />
   <line class="fil1 str1" x1="1526.63" y1="3269.2" x2="1717.31" y2= "3269.2" />
   <path class="fil2" d="M967.15 4230.69l0 -13.16c31.15,0 46.74,-3.86 46.74,-11.68l0 -196.52c-12.65,6.49 -28.88,9.72 -48.7,9.72l0 -13.16c30.52,0 53.55,-8.1 69.14,-24.29l5.36 0c0.65,0 1.38,0.41 2.19,1.2 0.81,0.79 1.22,1.54 1.22,2.17l0 220.88c0,7.82 15.56,11.68 46.73,11.68l0 13.16 -122.67 0z"/>
   <path class="fil2" d="M1151.15 4210.22c0,-5.81 2.05,-10.71 6.12,-14.57 4.04,-3.91 8.84,-5.86 14.36,-5.86 3.24,0 6.57,0.87 9.97,2.66 3.41,1.79 6,4.32 7.78,7.59 1.79,3.25 2.68,6.65 2.68,10.18 0,5.19 -2.04,9.92 -6.1,14.11 -4.06,4.24 -8.83,6.36 -14.34,6.36 -5.52,0 -10.32,-2.12 -14.36,-6.36 -4.07,-4.19 -6.12,-8.92 -6.12,-14.11z"/>
   <path class="fil2" d="M1238.95 4173.76c0,-14.9 4.96,-28.14 14.87,-39.69 9.89,-11.46 22.61,-20.97 38.2,-28.45l-14.12 -9.25c-8.43,-5.48 -15.34,-12.83 -20.69,-22.09 -5.34,-9.26 -8.04,-19.1 -8.04,-29.48 0,-11.96 3.18,-22.75 9.5,-32.31 6.33,-9.58 14.67,-17.14 25.07,-22.62 10.37,-5.52 21.42,-8.26 33.11,-8.26 11.04,0 21.74,2.28 32.12,6.8 10.38,4.53 18.83,11 25.33,19.48 6.47,8.39 9.72,18.48 9.72,30.11 0,8.13 -1.95,15.85 -5.83,23.13 -3.91,7.3 -9.26,13.78 -16.07,19.47 -6.81,5.68 -14.14,10.46 -21.92,14.37l21.41 13.62c9.72,6.47 17.61,14.98 23.61,25.49 6,10.55 9,21.5 9,32.88 0,13.62 -3.65,25.95 -10.93,36.99 -7.31,11 -16.88,19.6 -28.72,25.74 -11.84,6.19 -24.42,9.26 -37.73,9.26 -12.98,0 -25.47,-2.61 -37.48,-7.8 -12.01,-5.16 -21.75,-12.79 -29.22,-22.85 -7.46,-10.09 -11.19,-21.59 -11.19,-34.54zm20.43 0c0,10.05 2.7,19.15 8.05,27.25 5.34,8.1 12.5,14.41 21.43,18.93 8.91,4.57 18.23,6.85 27.98,6.85 14.61,0 27.74,-4.23 39.44,-12.66 11.68,-8.43 17.51,-19.6 17.51,-33.54 0,-4.53 -0.89,-9.18 -2.68,-13.86 -1.78,-4.7 -4.38,-9.02 -7.78,-12.91 -3.41,-3.87 -7.23,-6.94 -11.44,-9.26l-50.13 -32.59c-7.78,4.23 -14.94,9.5 -21.44,15.82 -6.47,6.34 -11.58,13.41 -15.32,21.17 -3.73,7.8 -5.61,16.07 -5.61,24.82zm25.8 -113.85l45.28 29.19c10.38,-6.18 18.9,-13.54 25.58,-22.13 6.65,-8.59 9.97,-18.27 9.97,-28.98 0,-8.44 -2.35,-16.11 -7.04,-23.09 -4.72,-6.98 -10.8,-12.42 -18.25,-16.28 -7.49,-3.9 -15.61,-5.85 -24.36,-5.85 -7.46,0 -15.01,1.45 -22.63,4.35 -7.62,2.95 -13.95,7.27 -18.98,12.91 -5.04,5.7 -7.54,12.38 -7.54,20.19 0,11.71 6,21.59 18,29.68z"/>
   <path class="fil2" d="M1241.88 3358.91l0 -10.26c0,-0.62 0.33,-1.28 0.95,-1.94l57.92 -64.19c8.78,-9.39 15.91,-17.36 21.44,-23.83 5.5,-6.49 10.93,-13.96 16.3,-22.42 5.36,-8.43 9.59,-16.9 12.66,-25.49 3.08,-8.6 4.63,-17.77 4.63,-27.53 0,-10.38 -1.88,-20.19 -5.61,-29.4 -3.71,-9.26 -9.31,-16.69 -16.78,-22.37 -7.46,-5.7 -16.55,-8.52 -27.27,-8.52 -10.7,0 -20.43,3.33 -29.19,9.97 -8.77,6.64 -14.94,14.99 -18.5,25.08 0.98,0 2.42,0 4.39,0 5.5,0 10.2,1.82 14.11,5.6 3.88,3.7 5.83,8.47 5.83,14.32 0,5.86 -1.94,10.71 -5.83,14.57 -3.91,3.91 -8.62,5.86 -14.11,5.86 -5.85,0 -10.82,-2.04 -14.87,-6.11 -4.05,-4.03 -6.07,-8.84 -6.07,-14.32 0,-9.43 1.79,-18.18 5.36,-26.28 3.55,-8.1 8.66,-15.41 15.32,-21.88 6.65,-6.47 14.14,-11.46 22.4,-14.87 8.27,-3.4 17.11,-5.11 26.52,-5.11 14.29,0 27.59,3.12 39.92,9.26 12.33,6.18 22.07,14.7 29.22,25.53 7.13,10.89 10.7,23.8 10.7,38.66 0,10.71 -2.34,20.96 -7.06,30.68 -4.71,9.71 -10.8,18.56 -18.25,26.48 -7.46,7.98 -16.95,17.03 -28.48,27.25 -11.52,10.22 -19.07,16.98 -22.63,20.22l-42.35 40.85 35.54 0c17.84,0 32.68,-0.16 44.53,-0.46 11.85,-0.38 18.1,-0.82 18.75,-1.49 2.93,-3.24 6.01,-14.78 9.26,-34.54l10.7 0 -10.7 66.69 -138.74 0z"/>
   <polyline class="fil1 str2" points="1526.63,3356.37 12649.2,3356.37 13840.88,3487.16 14238.12,4358.94 14635.37,4402.53 15429.84,3487.16 15827.04,4358.94 16224.28,4402.53 17018.77,3487.16 17416.01,4446.11 17813.21,4271.74 18607.68,3487.16 19004.92,4358.94 19402.17,4358.94 20593.85,4315.32 "/>
   <path class="fil2" d="M436.54 4049.33c0,2.61 -1.78,3.9 -5.34,3.9 -0.66,0 -1.79,-0.25 -3.41,-0.74 -1.61,-0.46 -2.92,-1.04 -3.88,-1.66 -0.98,-0.67 -1.47,-1.49 -1.47,-2.5 0,-16.52 -0.97,-28.02 -2.93,-34.51 -1.28,-3.57 -4.85,-6.18 -10.7,-7.8l-222.47 -55.42c-2.59,-0.67 -4.53,-0.97 -5.85,-0.97 -2.91,0 -4.53,1.62 -4.85,4.83 -0.99,5.19 -1.48,14.95 -1.48,29.19 0,2.61 -1.78,3.9 -5.34,3.9 -3.57,-0.99 -5.92,-1.69 -7.04,-2.2 -1.15,-0.45 -1.72,-1.99 -1.72,-4.57l0 -108.53c0,-2.91 1.78,-4.37 5.34,-4.37 0.65,0 1.71,0.25 3.15,0.71 1.47,0.51 2.77,1.08 3.91,1.74 1.13,0.62 1.69,1.58 1.69,2.87 0,16.56 0.98,28.07 2.94,34.58 1.28,3.58 4.85,6.16 10.72,7.77l131.41 32.59 -122.67 -158.61c-0.64,-0.28 -2.52,-1.99 -5.6,-5.11 -3.08,-3.07 -6.08,-4.6 -9.02,-4.6 -5.19,0 -7.79,4.52 -7.79,13.62 0,2.61 -1.78,3.91 -5.34,3.91 -2.27,-0.34 -3.98,-0.67 -5.11,-0.97 -1.15,-0.33 -2.05,-0.99 -2.68,-1.94 -0.65,-1 -0.97,-2.28 -0.97,-3.91l0 -78.3c0,-1.67 0.48,-2.79 1.46,-3.41 0.99,-0.66 2.28,-0.99 3.88,-0.99 0.65,0.33 1.79,0.74 3.41,1.2 1.62,0.49 2.92,1.08 3.88,1.74 0.98,0.62 1.46,1.58 1.46,2.87 0,19.8 9.11,41.39 27.27,64.72 0.34,0.34 0.51,0.59 0.51,0.71 0,0.16 0.08,0.42 0.24,0.75 0.15,0.33 0.24,0.49 0.24,0.49l64.72 83.67 142.17 -60.84c6.18,-3.52 9.89,-7.43 11.19,-11.66 1.31,-4.24 1.95,-10.71 1.95,-19.47 0,-2.91 1.79,-4.37 5.36,-4.37 2.92,1 5.11,1.87 6.59,2.7 1.44,0.8 2.17,2.33 2.17,4.61l0 93.88c0,2.28 -1.78,3.41 -5.34,3.41 -2.94,-0.34 -5.13,-0.71 -6.59,-1.21 -1.45,-0.49 -2.18,-1.86 -2.18,-4.14 0,-6.81 -0.72,-12.55 -2.19,-17.23 -1.47,-4.74 -4.64,-7.11 -9.49,-7.11 -1.95,0 -3.41,0 -4.39,0l-116.85 50.62 45.77 58.87 74.97 18.48c3.24,0.66 5.19,0.95 5.85,0.95 2.6,0 4.05,-1.62 4.37,-4.86 1.31,-5.19 1.95,-14.9 1.95,-29.19 0,-2.57 1.79,-3.9 5.36,-3.9 3.59,0.99 5.92,1.69 7.04,2.2 1.15,0.49 1.72,2.02 1.72,4.65l0 108.95z"/>
   <path class="fil2" d="M552.76 3726.08c0,1.91 -1.29,2.91 -3.9,2.91 -3.91,-0.67 -5.85,-1.95 -5.85,-3.91 0,-5.85 -0.56,-9.92 -1.69,-12.16 -1.13,-2.28 -3.83,-4.07 -8.04,-5.37l-126.07 -31.59c-3.59,-1.29 -8.13,-1.95 -13.63,-1.95 -8.12,0 -12.18,2.58 -12.18,7.77 0,5.85 3.48,10.22 10.46,13.16 6.99,2.91 15.83,5.68 26.52,8.26 1.32,0 1.97,0.84 1.97,2.45l0 3.37c0,0.33 -0.33,0.74 -0.97,1.25 -0.66,0.49 -1.32,0.74 -1.95,0.74 -8.11,-1.95 -15.01,-3.86 -20.7,-5.64 -5.66,-1.75 -10.86,-4.7 -15.57,-8.72 -4.7,-4.07 -7.04,-9.02 -7.04,-14.87 0,-6.49 1.85,-12.12 5.57,-17.03 3.74,-4.85 8.7,-7.92 14.88,-9.25 -5.84,-5.19 -10.71,-10.84 -14.62,-17.03 -3.9,-6.14 -5.83,-12.45 -5.83,-18.93 0,-7.82 2.11,-14.62 6.33,-20.43 4.2,-5.85 9.71,-10.22 16.54,-13.16 6.81,-2.91 14.11,-4.4 21.9,-4.4 12.33,0 24.9,3.11 37.72,9.25 12.82,6.19 23.43,14.54 31.87,25.08 8.45,10.55 12.68,21.8 12.68,33.8 0,5.52 -1.53,10.46 -4.64,14.82 -3.07,4.4 -7.05,7.89 -11.93,10.46l49.67 12.66c2.93,0.33 4.54,0.62 4.86,1 2.6,0 3.9,-6.19 3.9,-18.53 0,-1.94 1.13,-2.91 3.43,-2.91 2.59,0.67 4.3,1.13 5.11,1.46 0.8,0.33 1.21,1.45 1.21,3.4l0 54.02zm-58.91 -76.4c0,-6.49 -2.7,-12.58 -8.05,-18.23 -5.33,-5.68 -11.25,-10.17 -17.75,-13.41 -5.19,-2.58 -11.36,-5.03 -18.51,-7.27 -7.12,-2.28 -14.82,-4.24 -23.12,-5.85 -8.26,-1.62 -14.83,-2.45 -19.71,-2.45 -4.21,0 -8.19,0.58 -11.91,1.69 -3.73,1.17 -6.91,3.04 -9.5,5.65 -2.6,2.58 -3.9,5.98 -3.9,10.22 0,6.77 2.44,13.29 7.3,19.43 4.87,6.19 11.05,11.66 18.51,16.52l0.95 0 61.84 15.57c6.5,-1.28 12.09,-3.83 16.78,-7.52 4.71,-3.73 7.06,-8.51 7.06,-14.36z"/>
   <path class="fil2" d="M466.58 3544.34c-4.21,0 -8.84,-0.46 -13.86,-1.46 -5.03,-0.95 -9.16,-1.94 -12.41,-2.91 -3.26,-0.99 -9.58,-3.27 -18.98,-6.85 -9.42,-3.53 -14.3,-5.31 -14.62,-5.31 -6.81,-2.62 -12.32,-3.91 -16.55,-3.91 -5.84,0 -8.76,2.12 -8.76,6.31 0,7.47 3.81,13.54 11.44,18.23 7.62,4.73 16.14,8.23 25.54,10.46 1.32,0.33 1.97,1.17 1.97,2.45l0 3.4c0,1.62 -0.81,2.46 -2.44,2.46l-0.95 0c-11.05,-3.25 -20.96,-7.98 -29.73,-14.12 -8.74,-6.18 -13.11,-13.95 -13.11,-23.33 0,-6.81 2.18,-12.5 6.54,-17.03 4.38,-4.57 9.99,-6.85 16.82,-6.85 3.54,0 7.27,0.84 11.19,2.45 9.4,3.58 16.95,6.39 22.6,8.51 5.7,2.12 12.12,4.07 19.28,5.81 7.12,1.79 13.61,2.71 19.46,2.71 7.12,0 12.88,-1.62 17.27,-4.86 4.38,-3.24 6.58,-8.26 6.58,-15.08 0,-12.95 -9.91,-24.62 -29.7,-35 -6.49,-3.27 -14.11,-6.34 -22.87,-9.25 -8.76,-2.95 -15.91,-4.4 -21.44,-4.4 -5.83,0 -10.29,0.87 -13.36,2.65 -3.08,1.79 -6.34,4.15 -9.76,7.11 -3.4,2.91 -6.07,4.35 -8.03,4.35 -3.9,0 -7.3,-1.53 -10.23,-4.6 -2.91,-3.12 -4.35,-6.44 -4.35,-10.02 0,-4.52 2.01,-7.76 6.07,-9.71 4.05,-1.95 8.67,-2.91 13.86,-2.91 6.17,0 13.56,0.87 22.15,2.66 8.6,1.78 17.53,4.24 26.76,7.31 9.26,3.07 16.49,6.06 21.68,9 24.35,12.29 36.51,26.58 36.51,42.81 0,12.01 -2.93,21.47 -8.78,28.45 -5.84,6.97 -14.44,10.46 -25.8,10.46z"/>
   <polygon class="fil0" points="1526.63,7067.7 20593.79,7067.7 20593.79,5292.98 1526.63,5292.98 "/>
   <line class="fil1 str0" x1="1526.63" y1="7067.7" x2="1526.63" y2= "5293" />
   <line class="fil1 str0" x1="4704.52" y1="7067.7" x2="4704.52" y2= "5293" />
   <line class="fil1 str0" x1="7882.4" y1="7067.7" x2="7882.4" y2= "5293" />
   <line class="fil1 str0" x1="11060.23" y1="7067.7" x2="11060.23" y2= "5293" />
   <line class="fil1 str0" x1="14238.12" y1="7067.7" x2="14238.12" y2= "5293" />
   <line class="fil1 str0" x1="17416.01" y1="7067.7" x2="17416.01" y2= "5293" />
   <line class="fil1 str0" x1="20593.85" y1="7067.7" x2="20593.85" y2= "5293" />
   <line class="fil1 str0" x1="20593.85" y1="7067.7" x2="1526.63" y2= "7067.7" />
   <line class="fil1 str0" x1="20593.85" y1="6476.13" x2="1526.63" y2= "6476.13" />
   <line class="fil1 str0" x1="20593.85" y1="5884.56" x2="1526.63" y2= "5884.56" />
   <line class="fil1 str0" x1="20593.85" y1="5293" x2="1526.63" y2= "5293" />
   <line class="fil1 str1" x1="1526.63" y1="7067.7" x2="20593.85" y2= "7067.7" />
   <line class="fil1 str1" x1="1526.63" y1="7067.7" x2="1526.63" y2= "6877.14" />
   <line class="fil1 str1" x1="4704.52" y1="7067.7" x2="4704.52" y2= "6877.14" />
   <line class="fil1 str1" x1="7882.4" y1="7067.7" x2="7882.4" y2= "6877.14" />
   <line class="fil1 str1" x1="11060.23" y1="7067.7" x2="11060.23" y2= "6877.14" />
   <line class="fil1 str1" x1="14238.12" y1="7067.7" x2="14238.12" y2= "6877.14" />
   <line class="fil1 str1" x1="17416.01" y1="7067.7" x2="17416.01" y2= "6877.14" />
   <line class="fil1 str1" x1="20593.85" y1="7067.7" x2="20593.85" y2= "6877.14" />
   <path class="fil2" d="M1526.63 7506.08c-30.53,0 -51.29,-12.56 -62.31,-37.7 -11.03,-25.14 -16.55,-55.06 -16.55,-89.77 0,-21.72 1.94,-42.08 5.83,-61.05 3.91,-18.97 11.77,-35.2 23.61,-48.66 11.84,-13.46 28.31,-20.19 49.42,-20.19 16.54,0 30.02,4.06 40.41,12.17 10.37,8.1 18.34,18.48 23.86,31.14 5.51,12.63 9.24,26.26 11.19,40.84 1.94,14.59 2.93,29.84 2.93,45.74 0,21.41 -1.97,41.44 -5.87,60.08 -3.87,18.66 -11.58,34.53 -23.12,47.67 -11.52,13.15 -27.99,19.71 -49.4,19.71zm0 -9.73c13.95,0 24.33,-7.13 31.14,-21.4 6.83,-14.29 11.03,-30.01 12.65,-47.2 1.61,-17.2 2.42,-35.52 2.42,-54.98 0,-18.82 -0.81,-36.17 -2.42,-52.07 -1.62,-15.88 -5.83,-30.21 -12.65,-43.03 -6.81,-12.83 -17.2,-19.23 -31.14,-19.23 -13.96,0 -24.34,6.49 -31.15,19.44 -6.81,12.97 -11.03,27.33 -12.65,43.07 -1.62,15.72 -2.44,33 -2.44,51.82 0,13.62 0.33,26.6 0.98,38.91 0.64,12.32 2.41,25.06 5.36,38.2 2.9,13.14 7.6,24.15 14.1,33.06 6.5,8.91 15.09,13.39 25.81,13.39z"/>
   <path class="fil2" d="M4629.51 7497.8l0 -10.22c0,-0.64 0.33,-1.29 0.95,-1.97l57.93 -64.19c8.79,-9.42 15.9,-17.36 21.46,-23.85 5.48,-6.49 10.92,-13.95 16.28,-22.4 5.36,-8.42 9.59,-16.94 12.66,-25.53 3.12,-8.59 4.61,-17.76 4.61,-27.49 0,-10.38 -1.87,-20.17 -5.6,-29.42 -3.7,-9.23 -9.31,-16.69 -16.78,-22.37 -7.47,-5.67 -16.56,-8.5 -27.27,-8.5 -10.68,0 -20.43,3.32 -29.19,9.96 -8.77,6.65 -14.91,15.01 -18.48,25.06 0.95,0 2.4,0 4.35,0 5.52,0 10.22,1.88 14.12,5.61 3.9,3.71 5.85,8.47 5.85,14.31 0,5.86 -1.95,10.72 -5.85,14.61 -3.91,3.91 -8.6,5.85 -14.12,5.85 -5.85,0 -10.79,-2.02 -14.87,-6.1 -4.03,-4.05 -6.06,-8.84 -6.06,-14.36 0,-9.4 1.79,-18.15 5.36,-26.23 3.58,-8.13 8.69,-15.43 15.32,-21.89 6.64,-6.5 14.11,-11.45 22.42,-14.85 8.26,-3.4 17.1,-5.11 26.49,-5.11 14.32,0 27.61,3.08 39.94,9.25 12.33,6.17 22.06,14.68 29.19,25.53 7.19,10.89 10.72,23.76 10.72,38.66 0,10.71 -2.33,20.94 -7.06,30.67 -4.7,9.71 -10.79,18.54 -18.27,26.51 -7.44,7.94 -16.95,17.03 -28.45,27.24 -11.55,10.2 -19.1,16.95 -22.67,20.21l-42.31 40.85 35.54 0c17.81,0 32.67,-0.16 44.51,-0.47 11.88,-0.34 18.1,-0.82 18.76,-1.46 2.91,-3.26 6.03,-14.79 9.22,-34.57l10.72 0 -10.72 66.66 -138.72 0z"/>
   <path class="fil2" d="M7799.09 7436.02l0 -13.14 115.84 -172.24c0.67,-1.29 1.95,-1.93 3.91,-1.93l5.36 0c2.91,0 4.4,1.46 4.4,4.39l0 169.78 36.5 0 0 13.14 -36.5 0 0 36.97c0,4.85 3.61,8.03 10.96,9.49 7.31,1.46 15.65,2.19 25.08,2.19l0 13.14 -102.73 0 0 -13.14c9.38,0 17.73,-0.73 25.03,-2.19 7.31,-1.46 10.97,-4.64 10.97,-9.49l0 -36.97 -98.82 0zm12.66 -13.14l88.56 0 0 -132.32 -88.56 132.32z"/>
   <path class="fil2" d="M11060.15 7506.08c-15.57,0 -28.44,-4.14 -38.7,-12.41 -10.2,-8.27 -18.14,-18.89 -23.83,-31.86 -5.68,-12.97 -9.67,-26.68 -11.96,-41.14 -2.24,-14.43 -3.4,-28.93 -3.4,-43.52 0,-19.77 3.91,-39.56 11.71,-59.34 7.77,-19.77 19.06,-36.24 33.84,-49.37 14.74,-13.14 32.34,-19.71 52.81,-19.71 8.77,0 16.78,1.62 24.09,4.85 7.3,3.25 13.08,8.03 17.27,14.36 4.24,6.32 6.36,13.89 6.36,22.65 0,5.19 -1.71,9.49 -5.16,12.88 -3.4,3.4 -7.67,5.11 -12.91,5.11 -4.81,0 -9.05,-1.71 -12.62,-5.11 -3.58,-3.39 -5.36,-7.69 -5.36,-12.88 0,-4.88 1.78,-9.03 5.36,-12.43 3.57,-3.4 7.8,-5.11 12.62,-5.11l2 0c-3.25,-4.54 -7.73,-7.86 -13.42,-9.96 -5.65,-2.13 -11.75,-3.18 -18.23,-3.18 -7.47,0 -14.36,1.62 -20.71,4.88 -6.31,3.24 -12.08,7.6 -17.27,13.1 -5.19,5.53 -9.51,11.7 -12.92,18.5 -3.4,6.8 -5.98,14.51 -7.76,23.1 -1.79,8.59 -2.95,16.7 -3.41,24.34 -0.49,7.63 -0.71,17.11 -0.71,28.47 4.2,-10.38 10.38,-18.82 18.44,-25.32 8.13,-6.47 17.23,-9.72 27.28,-9.72 11.04,0 21.13,2.27 30.18,6.8 9.1,4.54 16.98,10.78 23.63,18.73 6.64,7.96 11.66,17.03 15.07,27.25 3.4,10.22 5.11,20.5 5.11,30.88 0,14.59 -3.24,28.55 -9.71,41.84 -6.52,13.32 -15.65,23.87 -27.49,31.65 -11.88,7.77 -25.25,11.66 -40.19,11.66zm0 -12.17c9.76,0 17.57,-2.19 23.37,-6.57 5.86,-4.38 10.13,-10.13 12.92,-17.29 2.73,-7.12 4.44,-14.41 5.1,-21.88 0.62,-7.46 0.97,-16.52 0.97,-27.25 0,-13.95 -0.75,-25.94 -2.17,-35.99 -1.49,-10.04 -5.11,-18.8 -10.96,-26.27 -5.86,-7.45 -14.95,-11.18 -27.24,-11.18 -10.1,0 -18.36,3.41 -24.83,10.2 -6.52,6.81 -11.3,15.41 -14.37,25.79 -3.11,10.38 -4.65,20.28 -4.65,29.67 0,3.24 0.16,5.84 0.51,7.78 0,0.34 0,0.59 0,0.74 0,0.15 -0.18,0.39 -0.51,0.72 0,10.72 1.13,21.59 3.41,32.6 2.28,11.03 6.51,20.27 12.66,27.75 6.18,7.44 14.77,11.17 25.78,11.17z"/>
   <path class="fil2" d="M14160.13 7440.88c0,-14.92 4.94,-28.15 14.87,-39.66 9.89,-11.5 22.63,-20.99 38.2,-28.45l-14.12 -9.26c-8.43,-5.5 -15.32,-12.86 -20.68,-22.12 -5.39,-9.24 -8.05,-19.07 -8.05,-29.45 0,-11.98 3.15,-22.77 9.51,-32.34 6.31,-9.57 14.65,-17.11 25.03,-22.61 10.38,-5.51 21.42,-8.27 33.13,-8.27 11,0 21.72,2.27 32.1,6.81 10.38,4.53 18.86,11.02 25.38,19.47 6.44,8.42 9.71,18.47 9.71,30.13 0,8.11 -1.95,15.83 -5.85,23.13 -3.91,7.3 -9.26,13.78 -16.07,19.47 -6.81,5.67 -14.12,10.46 -21.93,14.36l21.47 13.61c9.71,6.5 17.56,14.99 23.59,25.53 5.98,10.55 9,21.49 9,32.84 0,13.63 -3.65,25.95 -10.96,37 -7.31,11 -16.87,19.6 -28.69,25.76 -11.88,6.17 -24.46,9.25 -37.75,9.25 -12.99,0 -25.49,-2.6 -37.49,-7.77 -12.01,-5.19 -21.76,-12.84 -29.24,-22.89 -7.43,-10.05 -11.17,-21.55 -11.17,-34.53zm20.43 0c0,10.04 2.66,19.13 8.05,27.24 5.36,8.11 12.5,14.42 21.43,18.96 8.92,4.55 18.22,6.83 27.98,6.83 14.62,0 27.74,-4.21 39.45,-12.63 11.66,-8.45 17.48,-19.64 17.48,-33.58 0,-4.54 -0.87,-9.18 -2.66,-13.88 -1.79,-4.7 -4.4,-8.99 -7.8,-12.9 -3.4,-3.87 -7.23,-6.96 -11.42,-9.24l-50.12 -32.6c-7.82,4.23 -14.95,9.5 -21.47,15.81 -6.49,6.34 -11.58,13.41 -15.32,21.19 -3.73,7.79 -5.6,16.05 -5.6,24.81zm25.79 -113.83l45.34 29.17c10.38,-6.17 18.89,-13.55 25.53,-22.14 6.65,-8.58 9.97,-18.24 9.97,-28.95 0,-8.42 -2.37,-16.12 -7.06,-23.09 -4.68,-6.98 -10.79,-12.41 -18.22,-16.29 -7.47,-3.91 -15.62,-5.85 -24.38,-5.85 -7.47,0 -14.99,1.46 -22.63,4.39 -7.64,2.92 -13.95,7.21 -19.01,12.88 -5.03,5.68 -7.52,12.39 -7.52,20.19 0,11.69 5.98,21.59 17.98,29.71z"/>
   <path class="fil2" d="M17263.48 7497.8l0 -13.14c31.18,0 46.75,-3.9 46.75,-11.68l0 -196.53c-12.66,6.47 -28.89,9.71 -48.66,9.71l0 -13.14c30.51,0 53.55,-8.11 69.12,-24.32l5.32 0c0.66,0 1.41,0.41 2.2,1.22 0.82,0.79 1.25,1.52 1.25,2.17l0 220.88c0,7.78 15.57,11.68 46.7,11.68l0 13.14 -122.69 0z"/>
   <path class="fil2" d="M17509.33 7506.08c-30.48,0 -51.28,-12.56 -62.29,-37.7 -11.04,-25.14 -16.56,-55.06 -16.56,-89.77 0,-21.72 1.94,-42.08 5.8,-61.05 3.91,-18.97 11.79,-35.2 23.63,-48.66 11.83,-13.46 28.32,-20.19 49.41,-20.19 16.56,0 30.01,4.06 40.39,12.17 10.43,8.1 18.36,18.48 23.88,31.14 5.52,12.63 9.25,26.26 11.2,40.84 1.95,14.59 2.91,29.84 2.91,45.74 0,21.41 -1.95,41.44 -5.85,60.08 -3.91,18.66 -11.58,34.53 -23.13,47.67 -11.5,13.15 -27.99,19.71 -49.41,19.71zm0 -9.73c13.95,0 24.38,-7.13 31.18,-21.4 6.81,-14.29 11,-30.01 12.63,-47.2 1.61,-17.2 2.45,-35.52 2.45,-54.98 0,-18.82 -0.84,-36.17 -2.45,-52.07 -1.62,-15.88 -5.81,-30.21 -12.63,-43.03 -6.8,-12.83 -17.23,-19.23 -31.18,-19.23 -13.96,0 -24.34,6.49 -31.14,19.44 -6.81,12.97 -11.04,27.33 -12.66,43.07 -1.62,15.72 -2.41,33 -2.41,51.82 0,13.62 0.29,26.6 0.95,38.91 0.62,12.32 2.46,25.06 5.37,38.2 2.91,13.14 7.59,24.15 14.11,33.06 6.47,8.91 15.08,13.39 25.79,13.39z"/>
   <path class="fil2" d="M20441.36 7497.8l0 -13.14c31.14,0 46.71,-3.9 46.71,-11.68l0 -196.53c-12.66,6.47 -28.86,9.71 -48.67,9.71l0 -13.14c30.52,0 53.56,-8.11 69.14,-24.32l5.31 0c0.67,0 1.41,0.41 2.25,1.22 0.79,0.79 1.2,1.52 1.2,2.17l0 220.88c0,7.78 15.57,11.68 46.71,11.68l0 13.14 -122.65 0z"/>
   <path class="fil2" d="M20612.22 7497.8l0 -10.22c0,-0.64 0.33,-1.29 0.95,-1.97l57.92 -64.19c8.8,-9.42 15.95,-17.36 21.47,-23.85 5.52,-6.49 10.92,-13.95 16.28,-22.4 5.36,-8.42 9.59,-16.94 12.66,-25.53 3.11,-8.59 4.65,-17.76 4.65,-27.49 0,-10.38 -1.91,-20.17 -5.6,-29.42 -3.74,-9.23 -9.35,-16.69 -16.82,-22.37 -7.44,-5.67 -16.57,-8.5 -27.24,-8.5 -10.72,0 -20.48,3.32 -29.19,9.96 -8.8,6.65 -14.95,15.01 -18.53,25.06 0.95,0 2.41,0 4.4,0 5.48,0 10.17,1.88 14.12,5.61 3.86,3.71 5.8,8.47 5.8,14.31 0,5.86 -1.94,10.72 -5.8,14.61 -3.95,3.91 -8.64,5.85 -14.12,5.85 -5.9,0 -10.84,-2.02 -14.9,-6.1 -4.04,-4.05 -6.06,-8.84 -6.06,-14.36 0,-9.4 1.78,-18.15 5.36,-26.23 3.57,-8.13 8.67,-15.43 15.31,-21.89 6.69,-6.5 14.12,-11.45 22.42,-14.85 8.26,-3.4 17.11,-5.11 26.54,-5.11 14.28,0 27.56,3.08 39.9,9.25 12.33,6.17 22.09,14.68 29.22,25.53 7.14,10.89 10.72,23.76 10.72,38.66 0,10.71 -2.37,20.94 -7.11,30.67 -4.68,9.71 -10.75,18.54 -18.22,26.51 -7.47,7.94 -16.95,17.03 -28.48,27.24 -11.55,10.2 -19.07,16.95 -22.63,20.21l-42.35 40.85 35.53 0c17.85,0 32.68,-0.16 44.51,-0.47 11.88,-0.34 18.1,-0.82 18.77,-1.46 2.91,-3.26 6.01,-14.79 9.25,-34.57l10.72 0 -10.72 66.66 -138.75 0z"/>
   <line class="fil1 str1" x1="1526.63" y1="7067.7" x2="1526.63" y2= "5293" />
   <line class="fil1 str1" x1="1526.63" y1="7067.7" x2="1717.31" y2= "7067.7" />
   <line class="fil1 str1" x1="1526.63" y1="6476.13" x2="1717.31" y2= "6476.13" />
   <line class="fil1 str1" x1="1526.63" y1="5884.56" x2="1717.31" y2= "5884.56" />
   <line class="fil1 str1" x1="1526.63" y1="5293" x2="1717.31" y2= "5293" />
   <path class="fil2" d="M1316.84 7165.66c-30.52,0 -51.28,-12.56 -62.31,-37.69 -11.03,-25.14 -16.55,-55.07 -16.55,-89.77 0,-21.74 1.95,-42.08 5.83,-61.05 3.91,-18.98 11.78,-35.2 23.62,-48.68 11.84,-13.44 28.29,-20.16 49.41,-20.16 16.55,0 30.02,4.06 40.41,12.17 10.38,8.09 18.33,18.47 23.82,31.13 5.53,12.64 9.29,26.26 11.23,40.84 1.94,14.61 2.93,29.85 2.93,45.75 0,21.4 -1.95,41.43 -5.86,60.08 -3.88,18.64 -11.58,34.53 -23.12,47.67 -11.53,13.14 -27.99,19.7 -49.41,19.7zm0 -9.75c13.96,0 24.34,-7.12 31.14,-21.37 6.81,-14.29 11.03,-30.02 12.65,-47.21 1.62,-17.18 2.44,-35.51 2.44,-54.99 0,-18.8 -0.81,-36.16 -2.44,-52.05 -1.62,-15.88 -5.84,-30.24 -12.65,-43.03 -6.8,-12.83 -17.18,-19.26 -31.14,-19.26 -13.96,0 -24.34,6.49 -31.15,19.47 -6.81,12.97 -11.03,27.33 -12.65,43.07 -1.61,15.72 -2.42,33 -2.42,51.8 0,13.64 0.32,26.61 0.97,38.92 0.64,12.32 2.42,25.06 5.36,38.2 2.91,13.14 7.6,24.16 14.11,33.06 6.49,8.92 15.08,13.38 25.8,13.38z"/>
   <path class="fil2" d="M1054.95 6565.81l0 -10.22c0,-0.62 0.31,-1.29 0.97,-1.95l57.92 -64.19c8.76,-9.43 15.9,-17.36 21.43,-23.87 5.5,-6.44 10.93,-13.91 16.29,-22.39 5.37,-8.43 9.58,-16.9 12.69,-25.49 3.07,-8.59 4.6,-17.77 4.6,-27.53 0,-10.38 -1.87,-20.17 -5.6,-29.39 -3.72,-9.26 -9.32,-16.74 -16.8,-22.43 -7.46,-5.64 -16.55,-8.46 -27.27,-8.46 -10.69,0 -20.42,3.32 -29.18,9.96 -8.77,6.65 -14.94,14.99 -18.5,25.05 0.98,0 2.44,0 4.38,0 5.51,0 10.22,1.86 14.12,5.6 3.87,3.74 5.83,8.51 5.83,14.37 0,5.8 -1.95,10.71 -5.83,14.57 -3.91,3.9 -8.62,5.85 -14.12,5.85 -5.86,0 -10.8,-2.04 -14.85,-6.1 -4.06,-4.04 -6.07,-8.85 -6.07,-14.32 0,-9.43 1.79,-18.2 5.36,-26.28 3.55,-8.1 8.66,-15.41 15.32,-21.89 6.65,-6.47 14.11,-11.45 22.4,-14.87 8.27,-3.4 17.11,-5.1 26.52,-5.1 14.29,0 27.59,3.11 39.9,9.25 12.35,6.14 22.09,14.67 29.22,25.54 7.16,10.88 10.72,23.75 10.72,38.65 0,10.71 -2.34,20.93 -7.06,30.68 -4.72,9.72 -10.8,18.56 -18.27,26.49 -7.44,7.93 -16.95,17.02 -28.47,27.24 -11.52,10.22 -19.08,16.94 -22.66,20.22l-42.32 40.85 35.53 0c17.84,0 32.68,-0.16 44.53,-0.49 11.88,-0.33 18.11,-0.79 18.76,-1.45 2.92,-3.24 6,-14.78 9.24,-34.54l10.72 0 -10.72 66.64 -138.72 0z"/>
   <path class="fil2" d="M1316.84 6574.09c-30.52,0 -51.28,-12.57 -62.31,-37.69 -11.03,-25.16 -16.55,-55.06 -16.55,-89.77 0,-21.76 1.95,-42.1 5.83,-61.07 3.91,-18.98 11.78,-35.17 23.62,-48.67 11.84,-13.45 28.29,-20.17 49.41,-20.17 16.55,0 30.02,4.06 40.41,12.21 10.38,8.1 18.33,18.48 23.82,31.1 5.53,12.66 9.29,26.28 11.23,40.85 1.94,14.62 2.93,29.86 2.93,45.76 0,21.39 -1.95,41.39 -5.86,60.08 -3.88,18.64 -11.58,34.54 -23.12,47.67 -11.53,13.14 -27.99,19.7 -49.41,19.7zm0 -9.75c13.96,0 24.34,-7.14 31.14,-21.39 6.81,-14.28 11.03,-30.01 12.65,-47.21 1.62,-17.18 2.44,-35.5 2.44,-54.97 0,-18.82 -0.81,-36.17 -2.44,-52.07 -1.62,-15.9 -5.84,-30.24 -12.65,-43.02 -6.8,-12.83 -17.18,-19.27 -31.14,-19.27 -13.96,0 -24.34,6.52 -31.15,19.48 -6.81,12.99 -11.03,27.32 -12.65,43.05 -1.61,15.74 -2.42,33 -2.42,51.82 0,13.62 0.32,26.61 0.97,38.9 0.64,12.33 2.42,25.08 5.36,38.2 2.91,13.16 7.6,24.16 14.11,33.08 6.49,8.91 15.08,13.37 25.8,13.37z"/>
   <path class="fil2" d="M1046.67 5912.47l0 -13.12 115.85 -172.23c0.66,-1.28 1.95,-1.95 3.9,-1.95l5.37 0c2.91,0 4.37,1.46 4.37,4.4l0 169.78 36.51 0 0 13.12 -36.51 0 0 36.96c0,4.86 3.65,8.05 10.96,9.51 7.29,1.45 15.65,2.15 25.08,2.15l0 13.16 -102.72 0 0 -13.16c9.4,0 17.76,-0.71 25.03,-2.15 7.32,-1.46 10.98,-4.65 10.98,-9.51l0 -36.96 -98.82 0zm12.64 -13.12l88.6 0 0 -132.33 -88.6 132.33z"/>
   <path class="fil2" d="M1316.84 5982.51c-30.52,0 -51.28,-12.53 -62.31,-37.7 -11.03,-25.12 -16.55,-55.06 -16.55,-89.72 0,-21.76 1.95,-42.1 5.83,-61.09 3.91,-18.97 11.78,-35.2 23.62,-48.66 11.84,-13.45 28.29,-20.19 49.41,-20.19 16.55,0 30.02,4.07 40.41,12.17 10.38,8.1 18.33,18.48 23.82,31.14 5.53,12.66 9.29,26.23 11.23,40.85 1.94,14.57 2.93,29.81 2.93,45.76 0,21.37 -1.95,41.39 -5.86,60.07 -3.88,18.64 -11.58,34.51 -23.12,47.67 -11.53,13.12 -27.99,19.68 -49.41,19.68zm0 -9.71c13.96,0 24.34,-7.14 31.14,-21.42 6.81,-14.24 11.03,-29.98 12.65,-47.17 1.62,-17.18 2.44,-35.54 2.44,-54.98 0,-18.84 -0.81,-36.2 -2.44,-52.07 -1.62,-15.9 -5.84,-30.22 -12.65,-43.05 -6.8,-12.83 -17.18,-19.22 -31.14,-19.22 -13.96,0 -24.34,6.47 -31.15,19.47 -6.81,12.96 -11.03,27.33 -12.65,43.07 -1.61,15.74 -2.42,32.97 -2.42,51.81 0,13.62 0.32,26.58 0.97,38.91 0.64,12.33 2.42,25.08 5.36,38.19 2.91,13.12 7.6,24.18 14.11,33.05 6.49,8.93 15.08,13.42 25.8,13.42z"/>
   <path class="fil2" d="M1129.9 5390.96c-15.57,0 -28.48,-4.15 -38.7,-12.42 -10.22,-8.26 -18.16,-18.89 -23.86,-31.84 -5.67,-13.01 -9.65,-26.71 -11.93,-41.15 -2.26,-14.42 -3.39,-28.94 -3.39,-43.52 0,-19.76 3.9,-39.57 11.68,-59.37 7.8,-19.77 19.07,-36.22 33.84,-49.37 14.77,-13.12 32.37,-19.68 52.81,-19.68 8.77,0 16.8,1.58 24.1,4.86 7.31,3.24 13.05,8.02 17.27,14.32 4.21,6.36 6.32,13.91 6.32,22.67 0,5.19 -1.69,9.46 -5.11,12.88 -3.4,3.4 -7.7,5.11 -12.89,5.11 -4.87,0 -9.09,-1.71 -12.65,-5.11 -3.57,-3.41 -5.36,-7.69 -5.36,-12.88 0,-4.9 1.79,-9.05 5.36,-12.45 3.57,-3.41 7.78,-5.11 12.65,-5.11l1.95 0c-3.24,-4.53 -7.7,-7.85 -13.39,-9.97 -5.67,-2.12 -11.76,-3.15 -18.25,-3.15 -7.45,0 -14.36,1.62 -20.69,4.86 -6.33,3.27 -12.1,7.64 -17.29,13.12 -5.19,5.52 -9.5,11.7 -12.9,18.51 -3.41,6.77 -6,14.49 -7.79,23.08 -1.79,8.6 -2.92,16.7 -3.39,24.34 -0.48,7.64 -0.71,17.1 -0.71,28.48 4.21,-10.38 10.36,-18.81 18.47,-25.33 8.11,-6.49 17.21,-9.72 27.26,-9.72 11.05,0 21.1,2.28 30.19,6.81 9.1,4.52 16.97,10.79 23.61,18.73 6.66,7.93 11.69,17.02 15.09,27.24 3.4,10.22 5.11,20.51 5.11,30.9 0,14.61 -3.25,28.57 -9.73,41.85 -6.49,13.29 -15.67,23.83 -27.51,31.64 -11.84,7.77 -25.22,11.66 -40.16,11.66zm0 -12.16c9.75,0 17.54,-2.2 23.37,-6.57 5.84,-4.4 10.13,-10.17 12.89,-17.31 2.77,-7.1 4.47,-14.41 5.12,-21.88 0.65,-7.44 0.97,-16.52 0.97,-27.24 0,-13.96 -0.73,-25.95 -2.19,-36 -1.45,-10.05 -5.11,-18.81 -10.96,-26.28 -5.84,-7.43 -14.92,-11.17 -27.27,-11.17 -10.05,0 -18.31,3.4 -24.8,10.22 -6.5,6.8 -11.29,15.41 -14.36,25.79 -3.1,10.38 -4.64,20.26 -4.64,29.68 0,3.24 0.16,5.81 0.49,7.77 0,0.33 0,0.58 0,0.74 0,0.16 -0.16,0.38 -0.49,0.71 0,10.71 1.14,21.6 3.43,32.59 2.26,11.05 6.47,20.31 12.65,27.79 6.17,7.43 14.76,11.17 25.79,11.17z"/>
   <path class="fil2" d="M1316.84 5390.96c-30.52,0 -51.28,-12.58 -62.31,-37.7 -11.03,-25.12 -16.55,-55.06 -16.55,-89.77 0,-21.76 1.95,-42.07 5.83,-61.04 3.91,-18.97 11.78,-35.2 23.62,-48.66 11.84,-13.5 28.29,-20.19 49.41,-20.19 16.55,0 30.02,4.03 40.41,12.17 10.38,8.1 18.33,18.48 23.82,31.13 5.53,12.63 9.29,26.25 11.23,40.82 1.94,14.62 2.93,29.86 2.93,45.76 0,21.42 -1.95,41.44 -5.86,60.08 -3.88,18.64 -11.58,34.54 -23.12,47.66 -11.53,13.17 -27.99,19.73 -49.41,19.73zm0 -9.76c13.96,0 24.34,-7.1 31.14,-21.39 6.81,-14.28 11.03,-30.01 12.65,-47.21 1.62,-17.18 2.44,-35.5 2.44,-54.98 0,-18.81 -0.81,-36.16 -2.44,-52.06 -1.62,-15.87 -5.84,-30.19 -12.65,-43.02 -6.8,-12.83 -17.18,-19.22 -31.14,-19.22 -13.96,0 -24.34,6.47 -31.15,19.43 -6.81,12.99 -11.03,27.32 -12.65,43.05 -1.61,15.74 -2.42,33 -2.42,51.81 0,13.63 0.32,26.62 0.97,38.91 0.64,12.33 2.42,25.08 5.36,38.2 2.91,13.16 7.6,24.16 14.11,33.08 6.49,8.93 15.08,13.37 25.8,13.37z"/>
   <polyline class="fil1 str2" points="1526.63,5544.69 1923.86,5556.53 2321.1,5559.48 2718.34,5551.21 3115.58,5500.37 3512.8,5592.93 3910.03,5570.43 4307.27,5549.14 4704.52,5587.87 5101.75,5626.06 5498.96,5566.62 5896.23,5594.09 6293.43,5616.25 6690.67,5618.67 7087.92,5618.67 7485.16,5632.24 7882.4,5587.87 8279.6,5628.71 8676.84,5609.75 9074.08,5625.19 9471.32,5650.88 9868.56,5681.05 10265.81,5616.84 10663.05,5662.99 11060.23,5621.9 11457.48,5664.49 11854.71,5670.14 12251.95,5638.17 12649.2,5634.9 13046.39,5440.31 13443.63,6120.87 13840.88,6393.62 14238.12,6356.05 14635.37,6367 15032.6,6389.46 15429.84,6376.76 15827.04,6373.2 16224.28,6360.2 16621.52,6382.99 17018.77,6402.5 17416.01,6354.27 17813.21,6357.8 18210.45,6399.55 18607.68,6392.12 19004.92,6362.81 19402.17,6349.79 19799.41,6344.51 20196.65,6399.55 20593.85,6370.54 "/>
   <path class="fil2" d="M445.31 6857.24c0,20.09 -4.63,37.99 -13.88,53.73 -9.24,15.74 -22.14,27.89 -38.7,36.5 -16.54,8.59 -34.89,12.89 -55.01,12.89 -29.53,0 -58.83,-8.34 -87.86,-25.06 -29.06,-16.69 -52.82,-38.66 -71.31,-65.91 -18.5,-27.24 -27.75,-55.78 -27.75,-85.63 0,-15.57 2.75,-29.77 8.29,-42.56 5.5,-12.82 13.21,-23.6 23.12,-32.36 9.87,-8.76 21.41,-15.57 34.54,-20.42 13.16,-4.88 27.51,-7.31 43.1,-7.31 17.84,0 35.84,3.15 54.02,9.49 18.16,6.33 35.05,14.99 50.62,26.02 15.57,11.04 29.37,23.92 41.41,38.68 12.01,14.76 21.41,30.57 28.22,47.46 12.33,-1.97 22.07,-4.64 29.19,-8.05 7.16,-3.39 10.72,-10.13 10.72,-20.19 0,-10.69 -3.81,-20.67 -11.44,-29.93 -7.62,-9.24 -16.62,-15.15 -27.01,-17.74 -2.27,-0.34 -3.43,-1.8 -3.43,-4.4 0,-2.9 1.79,-4.37 5.37,-4.37 8.44,1.97 17.11,4.87 26.03,8.77 8.93,3.88 17.3,8.59 25.09,14.09 7.78,5.53 14.11,12.02 18.97,19.47 4.88,7.47 7.32,15.75 7.32,24.81 0,22.72 -14.45,34.06 -43.35,34.06 -1.94,0 -6.65,-0.32 -14.1,-0.95 -7.49,-0.67 -13.49,-1.01 -18.01,-1.01 3.87,12.98 5.83,26.28 5.83,39.92zm-27.74 15.07c10.71,0 16.04,-6 16.04,-17.98 0,-12.01 -2.91,-24.66 -8.74,-37.96l-3.88 0c-10.72,0 -19.17,1.71 -25.34,5.1 -6.14,3.4 -9.23,10.15 -9.23,20.21 0,4.86 1.46,9.65 4.37,14.35 2.93,4.7 6.83,8.58 11.69,11.68 4.88,3.08 9.91,4.61 15.1,4.61zm0.98 10.22c-7.16,0 -14.05,-1.94 -20.7,-5.83 -6.66,-3.91 -12.02,-9.02 -16.07,-15.36 -4.06,-6.31 -6.07,-13.02 -6.07,-20.15 0,-12.01 3.98,-20.61 11.92,-25.8 7.93,-5.18 18.25,-8.76 30.92,-10.7 -10.07,-17.2 -24.69,-32.44 -43.81,-45.74 -19.16,-13.29 -40.18,-23.34 -63.06,-30.14 -22.87,-6.83 -44.54,-10.25 -64.99,-10.25 -14.94,0 -28.72,2.44 -41.37,7.32 -12.65,4.86 -22.87,12.39 -30.66,22.61 -7.78,10.23 -11.68,22.81 -11.68,37.69 0,14.61 3.55,28.64 10.69,42.11 7.14,13.44 16.56,25.86 28.26,37.2 11.66,11.02 25.95,20.99 42.83,29.93 16.87,8.91 34.54,15.72 53.06,20.42 18.49,4.7 36.17,7.06 53.07,7.06 17.18,0 32.84,-3.4 46.96,-10.22 14.11,-6.8 24.25,-17.35 30.41,-31.63 -2.59,0.98 -5.84,1.46 -9.71,1.46z"/>
   <path class="fil2" d="M504.56 6585.33c0,23.03 -9.5,38.61 -28.47,46.69 -19,8.13 -41.45,12.19 -67.42,12.19 -16.22,0 -31.48,-1.47 -45.77,-4.4 -14.28,-2.91 -26.44,-8.74 -36.51,-17.5 -10.06,-8.76 -15.09,-21.08 -15.09,-36.98 0,-12.31 3,-22.35 9,-30.12 6,-7.8 13.78,-13.78 23.37,-18.02 9.57,-4.24 19.79,-7.06 30.65,-8.51 10.89,-1.46 22.34,-2.2 34.34,-2.2 16.22,0 31.3,1.45 45.27,4.35 13.95,2.95 25.88,8.77 35.76,17.53 9.91,8.76 14.87,21.09 14.87,36.97zm-7.29 0c0,-10.38 -5.37,-18.16 -16.08,-23.35 -10.72,-5.19 -22.57,-8.34 -35.56,-9.46 -12.97,-1.17 -26.78,-1.71 -41.37,-1.71 -13.96,0 -26.86,0.54 -38.7,1.71 -11.84,1.12 -22.62,4.27 -32.37,9.46 -9.73,5.19 -14.61,12.97 -14.61,23.35 0,10.71 4.87,18.57 14.61,23.6 9.75,5.04 20.53,8.11 32.37,9.25 11.84,1.13 24.74,1.72 38.7,1.72 10.38,0 20.21,-0.26 29.47,-0.74 9.25,-0.49 18.74,-1.79 28.48,-3.9 9.71,-2.11 17.98,-5.6 24.83,-10.46 6.8,-4.87 10.22,-11.36 10.22,-19.47z"/>
   <path class="fil2" d="M536.83 6228.49c-11.7,14.95 -25.23,27.82 -40.65,38.7 -15.42,10.88 -31.8,19.76 -49.17,26.74 -17.35,6.97 -35.53,12.16 -54.51,15.57 -19,3.4 -38.05,5.14 -57.21,5.14 -19.48,0 -38.71,-1.74 -57.68,-5.14 -19,-3.41 -37.24,-8.6 -54.74,-15.57 -17.54,-6.98 -33.93,-15.95 -49.2,-26.99 -15.24,-11.05 -28.57,-23.83 -39.91,-38.45 -0.65,0 -0.98,-0.62 -0.98,-1.91l0 -3.91c0,-0.66 0.33,-1.33 0.98,-1.95 0.65,-0.66 1.44,-0.99 2.44,-0.99 1.29,0 2.28,0.2 2.92,0.49 12.64,13.29 26.35,24.33 41.12,33.1 14.76,8.76 30.51,15.82 47.23,21.17 16.72,5.36 33.99,9.22 51.83,11.66 17.84,2.45 36.51,3.66 55.99,3.66 85.7,0 150.91,-23.05 195.69,-69.1 0.65,-0.66 1.79,-0.99 3.44,-0.99 0.64,0 1.37,0.33 2.18,0.99 0.81,0.62 1.21,1.29 1.21,1.95l0 3.91c0,1.28 -0.32,1.91 -0.97,1.91z"/>
   <path class="fil2" d="M436.54 6095.4l-148.96 58.88c-4.87,2.61 -7.96,6.47 -9.24,11.66 -1.32,5.19 -1.97,12.01 -1.97,20.47l-14.58 0 0 -85.15 14.58 0c0,15.24 3.08,22.88 9.25,22.88 1.31,0 2.12,-0.16 2.42,-0.51l114.41 -45.25 -103.19 -40.85c-1.97,-0.95 -4.07,-1.46 -6.32,-1.46 -5.21,0 -9.26,1.95 -12.18,5.81 -2.94,3.91 -4.4,8.64 -4.4,14.16l-14.58 0 0 -67.64 14.58 0c0,8.44 1.87,15.82 5.6,22.14 3.74,6.31 9.33,11.09 16.8,14.36l137.77 54.48c2.94,1.28 4.4,3.57 4.4,6.8l0 2.91c0,3.24 -1.46,5.36 -4.4,6.31z"/>
   <path class="fil2" d="M396.63 5984.05c-15.91,0 -28.88,-6.31 -38.95,-18.94 -10.06,-12.7 -17.21,-27.94 -21.42,-45.75 -4.21,-17.85 -6.32,-34.72 -6.32,-50.62l-16.55 0c-7.78,0 -15.35,1.71 -22.66,5.11 -7.29,3.41 -13.29,8.34 -18.01,14.87 -4.68,6.49 -7.04,13.62 -7.04,21.39 0,17.85 4.06,31.47 12.15,40.9 0,-5.19 1.95,-9.43 5.86,-12.66 3.88,-3.28 8.42,-4.9 13.62,-4.9 5.19,0 9.73,1.91 13.64,5.64 3.88,3.7 5.83,8.14 5.83,13.34 0,5.52 -1.94,10.25 -5.83,14.16 -3.91,3.86 -8.45,5.81 -13.64,5.81 -14.27,0 -24.89,-6.49 -31.88,-19.48 -6.97,-12.96 -10.46,-27.24 -10.46,-42.81 0,-11 2.35,-22.04 7.04,-33.05 4.72,-11.05 11.45,-20.06 20.23,-27.04 8.76,-6.97 18.83,-10.46 30.18,-10.46l91.51 0c5.19,0 9.98,-1.12 14.36,-3.4 4.39,-2.24 6.58,-5.81 6.58,-10.71 0,-4.53 -2.28,-7.85 -6.83,-9.97 -4.54,-2.12 -9.24,-3.15 -14.11,-3.15l-26.29 0 0 -11.66 26.29 0c5.84,0 11.52,1.53 17.05,4.6 5.51,3.12 9.89,7.31 13.14,12.66 3.24,5.36 4.86,11.13 4.86,17.28 0,8.1 -3.08,14.98 -9.26,20.68 -6.16,5.64 -13.46,8.84 -21.89,9.51 10.05,4.85 18.08,12.12 24.12,21.88 6,9.71 9,20.22 9,31.59 0,10.05 -1.46,20.14 -4.4,30.15 -2.93,10.09 -7.72,18.43 -14.35,25.07 -6.65,6.65 -15.17,9.97 -25.56,9.97zm0 -33.05c9.73,0 17.76,-3.48 24.08,-10.46 6.34,-6.98 9.51,-15.16 9.51,-24.59 0,-8.76 -2.11,-16.69 -6.32,-23.83 -4.23,-7.13 -10.15,-12.83 -17.8,-17.02 -7.63,-4.24 -15.48,-6.36 -23.59,-6.36l-42.36 0c0,12.33 2.02,24.92 6.1,37.71 4.05,12.83 10.38,23.41 18.97,31.88 8.6,8.43 19.08,12.66 31.4,12.66z"/>
   <path class="fil2" d="M436.54 5783.92l-14.11 0c0,-9.1 -0.72,-16.65 -2.19,-22.63 -1.47,-6.01 -5.12,-9 -10.96,-9l-110.51 0c-7.14,0 -12.33,1.12 -15.58,3.45 -3.22,2.24 -5.18,5.39 -5.83,9.46 -0.66,4.07 -0.99,10.3 -0.99,18.73l-14.58 0 -4.39 -57.88 39.91 0c-12.02,-4.23 -21.64,-10.38 -28.94,-18.51 -7.32,-8.1 -10.97,-17.81 -10.97,-29.19 0,-8.1 2.44,-15.28 7.29,-21.63 4.88,-6.36 11.22,-9.51 19.01,-9.51 4.86,0 9.07,1.79 12.65,5.36 3.57,3.58 5.34,7.98 5.34,13.16 0,4.86 -1.78,9.06 -5.34,12.63 -3.58,3.57 -7.79,5.36 -12.65,5.36 -7.49,0 -12.66,-2.58 -15.57,-7.77l0 2.41c0,11.04 3.97,19.97 11.92,26.78 7.94,6.81 17.76,11.68 29.45,14.58 11.66,2.94 22.87,4.4 33.58,4.4l66.21 0c8.78,0 13.15,-13.01 13.15,-38.96l14.11 0 0 98.78z"/>
   <path class="fil2" d="M537.8 5607.37c0,2.28 -1.13,3.4 -3.39,3.4 -1.31,0 -2.28,-0.16 -2.93,-0.46 -45.1,-46.42 -110.5,-69.58 -196.19,-69.58 -85.66,0 -150.9,22.88 -195.69,68.59 -0.66,0.95 -1.8,1.45 -3.41,1.45 -1,0 -1.79,-0.33 -2.44,-0.95 -0.65,-0.66 -0.98,-1.45 -0.98,-2.45l0 -3.86c0,-0.67 0.33,-1.33 0.98,-1.99 15.27,-19.43 33.85,-35.54 55.73,-48.37 21.9,-12.83 45.2,-22.22 69.85,-28.24 24.67,-6.03 49.99,-9.02 75.95,-9.02 19.16,0 37.97,1.62 56.46,4.91 18.51,3.24 36.76,8.34 54.78,15.31 18.01,6.98 34.64,15.9 49.9,26.74 15.24,10.88 28.71,23.75 40.41,38.66 0.65,0.66 0.97,1.32 0.97,1.99l0 3.86z"/>
   <polygon class="fil0" points="1526.63,9527.37 20593.79,9527.37 20593.79,7783.8 1526.63,7783.8 "/>
   <line class="fil1 str0" x1="1526.63" y1="9527.37" x2="1526.63" y2= "7783.8" />
   <line class="fil1 str0" x1="4704.52" y1="9527.37" x2="4704.52" y2= "7783.8" />
   <line class="fil1 str0" x1="7882.4" y1="9527.37" x2="7882.4" y2= "7783.8" />
   <line class="fil1 str0" x1="11060.23" y1="9527.37" x2="11060.23" y2= "7783.8" />
   <line class="fil1 str0" x1="14238.12" y1="9527.37" x2="14238.12" y2= "7783.8" />
   <line class="fil1 str0" x1="17416.01" y1="9527.37" x2="17416.01" y2= "7783.8" />
   <line class="fil1 str0" x1="20593.85" y1="9527.37" x2="20593.85" y2= "7783.8" />
   <line class="fil1 str0" x1="20593.85" y1="9398.23" x2="1526.63" y2= "9398.23" />
   <line class="fil1 str0" x1="20593.85" y1="8752.44" x2="1526.63" y2= "8752.44" />
   <line class="fil1 str0" x1="20593.85" y1="8106.68" x2="1526.63" y2= "8106.68" />
   <line class="fil1 str1" x1="1526.63" y1="9527.37" x2="20593.85" y2= "9527.37" />
   <line class="fil1 str1" x1="1526.63" y1="9527.37" x2="1526.63" y2= "9336.83" />
   <line class="fil1 str1" x1="4704.52" y1="9527.37" x2="4704.52" y2= "9336.83" />
   <line class="fil1 str1" x1="7882.4" y1="9527.37" x2="7882.4" y2= "9336.83" />
   <line class="fil1 str1" x1="11060.23" y1="9527.37" x2="11060.23" y2= "9336.83" />
   <line class="fil1 str1" x1="14238.12" y1="9527.37" x2="14238.12" y2= "9336.83" />
   <line class="fil1 str1" x1="17416.01" y1="9527.37" x2="17416.01" y2= "9336.83" />
   <line class="fil1 str1" x1="20593.85" y1="9527.37" x2="20593.85" y2= "9336.83" />
   <path class="fil2" d="M1526.63 9965.77c-30.53,0 -51.29,-12.56 -62.31,-37.71 -11.03,-25.14 -16.55,-55.06 -16.55,-89.76 0,-21.73 1.94,-42.09 5.83,-61.06 3.91,-18.96 11.77,-35.19 23.61,-48.66 11.84,-13.44 28.31,-20.17 49.42,-20.17 16.54,0 30.02,4.05 40.41,12.16 10.37,8.11 18.34,18.48 23.86,31.14 5.51,12.63 9.24,26.26 11.19,40.85 1.94,14.58 2.93,29.84 2.93,45.74 0,21.4 -1.97,41.43 -5.87,60.1 -3.87,18.63 -11.58,34.52 -23.12,47.67 -11.52,13.14 -27.99,19.7 -49.4,19.7zm0 -9.75c13.95,0 24.33,-7.13 31.14,-21.39 6.83,-14.28 11.03,-30.02 12.65,-47.2 1.61,-17.2 2.42,-35.52 2.42,-54.99 0,-18.82 -0.81,-36.17 -2.42,-52.07 -1.62,-15.88 -5.83,-30.21 -12.65,-43.03 -6.81,-12.83 -17.2,-19.23 -31.14,-19.23 -13.96,0 -24.34,6.49 -31.15,19.47 -6.81,12.96 -11.03,27.31 -12.65,43.04 -1.62,15.75 -2.44,33 -2.44,51.82 0,13.64 0.33,26.6 0.98,38.91 0.64,12.32 2.41,25.07 5.36,38.22 2.9,13.14 7.6,24.14 14.1,33.05 6.5,8.93 15.09,13.39 25.81,13.39z"/>
   <path class="fil2" d="M4629.51 9957.48l0 -10.22c0,-0.64 0.33,-1.29 0.95,-1.97l57.93 -64.19c8.79,-9.4 15.9,-17.35 21.46,-23.85 5.48,-6.49 10.92,-13.95 16.28,-22.4 5.36,-8.42 9.59,-16.94 12.66,-25.53 3.12,-8.58 4.61,-17.74 4.61,-27.49 0,-10.38 -1.87,-20.17 -5.6,-29.41 -3.7,-9.24 -9.31,-16.69 -16.78,-22.39 -7.47,-5.66 -16.56,-8.5 -27.27,-8.5 -10.68,0 -20.43,3.32 -29.19,9.96 -8.77,6.65 -14.91,15.01 -18.48,25.07 0.95,0 2.4,0 4.35,0 5.52,0 10.22,1.87 14.12,5.6 3.9,3.71 5.85,8.5 5.85,14.32 0,5.85 -1.95,10.72 -5.85,14.59 -3.91,3.91 -8.6,5.85 -14.12,5.85 -5.85,0 -10.79,-2.02 -14.87,-6.1 -4.03,-4.04 -6.06,-8.82 -6.06,-14.35 0,-9.42 1.79,-18.15 5.36,-26.25 3.58,-8.11 8.69,-15.41 15.32,-21.89 6.64,-6.49 14.11,-11.44 22.42,-14.84 8.26,-3.41 17.1,-5.11 26.49,-5.11 14.32,0 27.61,3.08 39.94,9.24 12.33,6.17 22.06,14.68 29.19,25.53 7.19,10.89 10.72,23.76 10.72,38.66 0,10.72 -2.33,20.94 -7.06,30.67 -4.7,9.72 -10.79,18.56 -18.27,26.51 -7.44,7.94 -16.95,17.03 -28.45,27.24 -11.55,10.22 -19.1,16.95 -22.67,20.21l-42.31 40.85 35.54 0c17.81,0 32.67,-0.16 44.51,-0.47 11.88,-0.32 18.1,-0.81 18.76,-1.46 2.91,-3.26 6.03,-14.77 9.22,-34.57l10.72 0 -10.72 66.66 -138.72 0z"/>
   <path class="fil2" d="M7799.09 9895.7l0 -13.14 115.84 -172.23c0.67,-1.28 1.95,-1.93 3.91,-1.93l5.36 0c2.91,0 4.4,1.46 4.4,4.39l0 169.77 36.5 0 0 13.14 -36.5 0 0 36.97c0,4.86 3.61,8.03 10.96,9.5 7.31,1.45 15.65,2.18 25.08,2.18l0 13.14 -102.73 0 0 -13.14c9.38,0 17.73,-0.73 25.03,-2.18 7.31,-1.47 10.97,-4.64 10.97,-9.5l0 -36.97 -98.82 0zm12.66 -13.14l88.56 0 0 -132.32 -88.56 132.32z"/>
   <path class="fil2" d="M11060.15 9965.77c-15.57,0 -28.44,-4.14 -38.7,-12.42 -10.2,-8.27 -18.14,-18.88 -23.83,-31.86 -5.68,-12.97 -9.67,-26.68 -11.96,-41.12 -2.24,-14.42 -3.4,-28.94 -3.4,-43.54 0,-19.77 3.91,-39.56 11.71,-59.33 7.77,-19.79 19.06,-36.25 33.84,-49.39 14.74,-13.14 32.34,-19.7 52.81,-19.7 8.77,0 16.78,1.61 24.09,4.85 7.3,3.24 13.08,8.03 17.27,14.35 4.24,6.34 6.36,13.89 6.36,22.65 0,5.19 -1.71,9.49 -5.16,12.89 -3.4,3.41 -7.67,5.1 -12.91,5.1 -4.81,0 -9.05,-1.68 -12.62,-5.1 -3.58,-3.4 -5.36,-7.7 -5.36,-12.89 0,-4.88 1.78,-9.02 5.36,-12.43 3.57,-3.4 7.8,-5.11 12.62,-5.11l2 0c-3.25,-4.54 -7.73,-7.86 -13.42,-9.96 -5.65,-2.12 -11.75,-3.18 -18.23,-3.18 -7.47,0 -14.36,1.64 -20.71,4.88 -6.31,3.25 -12.08,7.6 -17.27,13.12 -5.19,5.51 -9.51,11.68 -12.92,18.49 -3.4,6.81 -5.98,14.5 -7.76,23.09 -1.79,8.59 -2.95,16.7 -3.41,24.35 -0.49,7.62 -0.71,17.1 -0.71,28.46 4.2,-10.38 10.38,-18.82 18.44,-25.32 8.13,-6.47 17.23,-9.72 27.28,-9.72 11.04,0 21.13,2.27 30.18,6.8 9.1,4.54 16.98,10.78 23.63,18.73 6.64,7.97 11.66,17.05 15.07,27.26 3.4,10.22 5.11,20.51 5.11,30.87 0,14.61 -3.24,28.55 -9.71,41.85 -6.52,13.31 -15.65,23.86 -27.49,31.64 -11.88,7.78 -25.25,11.68 -40.19,11.68zm0 -12.18c9.76,0 17.57,-2.19 23.37,-6.57 5.86,-4.38 10.13,-10.13 12.92,-17.27 2.73,-7.12 4.44,-14.42 5.1,-21.89 0.62,-7.45 0.97,-16.54 0.97,-27.26 0,-13.95 -0.75,-25.93 -2.17,-35.99 -1.49,-10.04 -5.11,-18.8 -10.96,-26.27 -5.86,-7.45 -14.95,-11.17 -27.24,-11.17 -10.1,0 -18.36,3.4 -24.83,10.22 -6.52,6.79 -11.3,15.39 -14.37,25.78 -3.11,10.37 -4.65,20.27 -4.65,29.67 0,3.22 0.16,5.83 0.51,7.77 0,0.34 0,0.59 0,0.77 0,0.13 -0.18,0.38 -0.51,0.72 0,10.7 1.13,21.56 3.41,32.59 2.28,11.02 6.51,20.27 12.66,27.74 6.18,7.45 14.77,11.17 25.78,11.17z"/>
   <path class="fil2" d="M14160.13 9900.58c0,-14.92 4.94,-28.14 14.87,-39.68 9.89,-11.5 22.63,-20.99 38.2,-28.45l-14.12 -9.25c-8.43,-5.51 -15.32,-12.88 -20.68,-22.1 -5.39,-9.26 -8.05,-19.07 -8.05,-29.45 0,-12.01 3.15,-22.79 9.51,-32.37 6.31,-9.57 14.65,-17.09 25.03,-22.59 10.38,-5.53 21.42,-8.29 33.13,-8.29 11,0 21.72,2.26 32.1,6.8 10.38,4.53 18.86,11.02 25.38,19.47 6.44,8.44 9.71,18.48 9.71,30.13 0,8.13 -1.95,15.83 -5.85,23.15 -3.91,7.29 -9.26,13.77 -16.07,19.44 -6.81,5.67 -14.12,10.46 -21.93,14.36l21.47 13.61c9.71,6.51 17.56,15.01 23.59,25.53 5.98,10.55 9,21.49 9,32.86 0,13.61 -3.65,25.93 -10.96,36.98 -7.31,11.03 -16.87,19.61 -28.69,25.79 -11.88,6.17 -24.46,9.24 -37.75,9.24 -12.99,0 -25.49,-2.59 -37.49,-7.78 -12.01,-5.19 -21.76,-12.83 -29.24,-22.89 -7.43,-10.05 -11.17,-21.55 -11.17,-34.52zm20.43 0c0,10.04 2.66,19.11 8.05,27.25 5.36,8.09 12.5,14.39 21.43,18.96 8.92,4.53 18.22,6.8 27.98,6.8 14.62,0 27.74,-4.21 39.45,-12.63 11.66,-8.45 17.48,-19.64 17.48,-33.58 0,-4.53 -0.87,-9.16 -2.66,-13.88 -1.79,-4.68 -4.4,-8.98 -7.8,-12.9 -3.4,-3.87 -7.23,-6.96 -11.42,-9.24l-50.12 -32.6c-7.82,4.25 -14.95,9.52 -21.47,15.83 -6.49,6.32 -11.58,13.38 -15.32,21.16 -3.73,7.79 -5.6,16.05 -5.6,24.82zm25.79 -113.83l45.34 29.15c10.38,-6.16 18.89,-13.55 25.53,-22.12 6.65,-8.6 9.97,-18.25 9.97,-28.98 0,-8.42 -2.37,-16.11 -7.06,-23.09 -4.68,-6.98 -10.79,-12.41 -18.22,-16.28 -7.47,-3.91 -15.62,-5.86 -24.38,-5.86 -7.47,0 -14.99,1.46 -22.63,4.4 -7.64,2.92 -13.95,7.21 -19.01,12.88 -5.03,5.67 -7.52,12.38 -7.52,20.17 0,11.7 5.98,21.59 17.98,29.72z"/>
   <path class="fil2" d="M17263.48 9957.48l0 -13.14c31.18,0 46.75,-3.9 46.75,-11.68l0 -196.53c-12.66,6.49 -28.89,9.72 -48.66,9.72l0 -13.15c30.51,0 53.55,-8.11 69.12,-24.3l5.32 0c0.66,0 1.41,0.4 2.2,1.21 0.82,0.81 1.25,1.53 1.25,2.18l0 220.87c0,7.78 15.57,11.68 46.7,11.68l0 13.14 -122.69 0z"/>
   <path class="fil2" d="M17509.33 9965.77c-30.48,0 -51.28,-12.56 -62.29,-37.71 -11.04,-25.14 -16.56,-55.06 -16.56,-89.76 0,-21.73 1.94,-42.09 5.8,-61.06 3.91,-18.96 11.79,-35.19 23.63,-48.66 11.83,-13.44 28.32,-20.17 49.41,-20.17 16.56,0 30.01,4.05 40.39,12.16 10.43,8.11 18.36,18.48 23.88,31.14 5.52,12.63 9.25,26.26 11.2,40.85 1.95,14.58 2.91,29.84 2.91,45.74 0,21.4 -1.95,41.43 -5.85,60.1 -3.91,18.63 -11.58,34.52 -23.13,47.67 -11.5,13.14 -27.99,19.7 -49.41,19.7zm0 -9.75c13.95,0 24.38,-7.13 31.18,-21.39 6.81,-14.28 11,-30.02 12.63,-47.2 1.61,-17.2 2.45,-35.52 2.45,-54.99 0,-18.82 -0.84,-36.17 -2.45,-52.07 -1.62,-15.88 -5.81,-30.21 -12.63,-43.03 -6.8,-12.83 -17.23,-19.23 -31.18,-19.23 -13.96,0 -24.34,6.49 -31.14,19.47 -6.81,12.96 -11.04,27.31 -12.66,43.04 -1.62,15.75 -2.41,33 -2.41,51.82 0,13.64 0.29,26.6 0.95,38.91 0.62,12.32 2.46,25.07 5.37,38.22 2.91,13.14 7.59,24.14 14.11,33.05 6.47,8.93 15.08,13.39 25.79,13.39z"/>
   <path class="fil2" d="M20441.36 9957.48l0 -13.14c31.14,0 46.71,-3.9 46.71,-11.68l0 -196.53c-12.66,6.49 -28.86,9.72 -48.67,9.72l0 -13.15c30.52,0 53.56,-8.11 69.14,-24.3l5.31 0c0.67,0 1.41,0.4 2.25,1.21 0.79,0.81 1.2,1.53 1.2,2.18l0 220.87c0,7.78 15.57,11.68 46.71,11.68l0 13.14 -122.65 0z"/>
   <path class="fil2" d="M20612.22 9957.48l0 -10.22c0,-0.64 0.33,-1.29 0.95,-1.97l57.92 -64.19c8.8,-9.4 15.95,-17.35 21.47,-23.85 5.52,-6.49 10.92,-13.95 16.28,-22.4 5.36,-8.42 9.59,-16.94 12.66,-25.53 3.11,-8.58 4.65,-17.74 4.65,-27.49 0,-10.38 -1.91,-20.17 -5.6,-29.41 -3.74,-9.24 -9.35,-16.69 -16.82,-22.39 -7.44,-5.66 -16.57,-8.5 -27.24,-8.5 -10.72,0 -20.48,3.32 -29.19,9.96 -8.8,6.65 -14.95,15.01 -18.53,25.07 0.95,0 2.41,0 4.4,0 5.48,0 10.17,1.87 14.12,5.6 3.86,3.71 5.8,8.5 5.8,14.32 0,5.85 -1.94,10.72 -5.8,14.59 -3.95,3.91 -8.64,5.85 -14.12,5.85 -5.9,0 -10.84,-2.02 -14.9,-6.1 -4.04,-4.04 -6.06,-8.82 -6.06,-14.35 0,-9.42 1.78,-18.15 5.36,-26.25 3.57,-8.11 8.67,-15.41 15.31,-21.89 6.69,-6.49 14.12,-11.44 22.42,-14.84 8.26,-3.41 17.11,-5.11 26.54,-5.11 14.28,0 27.56,3.08 39.9,9.24 12.33,6.17 22.09,14.68 29.22,25.53 7.14,10.89 10.72,23.76 10.72,38.66 0,10.72 -2.37,20.94 -7.11,30.67 -4.68,9.72 -10.75,18.56 -18.22,26.51 -7.47,7.94 -16.95,17.03 -28.48,27.24 -11.55,10.22 -19.07,16.95 -22.63,20.21l-42.35 40.85 35.53 0c17.85,0 32.68,-0.16 44.51,-0.47 11.88,-0.32 18.1,-0.81 18.77,-1.46 2.91,-3.26 6.01,-14.77 9.25,-34.57l10.72 0 -10.72 66.66 -138.75 0z"/>
   <path class="fil2" d="M10089.23 10457.98l0 -14.11c13.32,0 26.4,-0.81 39.23,-2.44 12.79,-1.6 19.18,-5.19 19.18,-10.7l0 -222.34c0,-5.84 -1.61,-9.38 -4.85,-10.69 -3.2,-1.29 -8.39,-1.95 -15.57,-1.95l-17.03 0c-22.37,0 -38.11,4.87 -47.21,14.61 -4.9,4.85 -8.38,12.64 -10.46,23.36 -2.12,10.69 -3.99,24.15 -5.6,40.37l-11.66 0 7.76 -92.44 247.31 0 7.8 92.44 -11.66 0c-1.66,-17.18 -3.45,-30.91 -5.4,-41.14 -1.91,-10.2 -5.36,-17.75 -10.22,-22.6 -9.71,-9.73 -25.61,-14.61 -47.7,-14.61l-17.03 0c-4.9,0 -8.67,0.18 -11.45,0.49 -2.74,0.31 -4.94,1.45 -6.57,3.39 -1.61,1.97 -2.45,4.88 -2.45,8.76l0 222.34c0,5.51 6.44,9.1 19.23,10.7 12.83,1.62 25.91,2.44 39.19,2.44l0 14.11 -154.83 0z"/>
   <path class="fil2" d="M10330.3 10457.98l0 -14.11c9.1,0 16.61,-0.73 22.63,-2.18 5.98,-1.47 9,-5.12 9,-10.96l0 -110.44c0,-10.38 -2.04,-16.71 -6.06,-18.96 -4.07,-2.3 -12.08,-3.43 -24.13,-3.43l0 -14.58 58.43 -4.38 0 151.78c0,5.84 2.61,9.49 7.8,10.96 5.19,1.45 12.01,2.18 20.43,2.18l0 14.11 -88.11 0zm17.02 -248.59c0,-5.86 2.28,-11.05 6.81,-15.57 4.57,-4.54 9.59,-6.81 15.11,-6.81 3.91,0 7.6,1.05 11.17,3.14 3.57,2.11 6.36,4.97 8.31,8.53 1.94,3.57 2.94,7.13 2.94,10.71 0,5.84 -2.2,11.03 -6.6,15.56 -4.35,4.53 -9.63,6.8 -15.82,6.8 -5.52,0 -10.55,-2.27 -15.11,-6.8 -4.53,-4.53 -6.81,-9.72 -6.81,-15.56z"/>
   <path class="fil2" d="M10444.07 10457.98l0 -14.11c9.05,0 16.61,-0.73 22.59,-2.18 6.06,-1.47 9.05,-5.12 9.05,-10.96l0 -110.44c0,-7.14 -1.12,-12.33 -3.45,-15.57 -2.24,-3.24 -5.39,-5.18 -9.46,-5.83 -4.07,-0.67 -10.3,-0.99 -18.73,-0.99l0 -14.58 58.38 -4.38 0 39.89c5.57,-11.66 13.66,-21.23 24.38,-28.72 10.71,-7.46 22.21,-11.17 34.59,-11.17 31.13,0 49.45,12.65 54.97,37.96 5.19,-11.36 12.96,-20.53 23.39,-27.49 10.37,-6.98 21.88,-10.46 34.54,-10.46 12.04,0 22.26,2.02 30.68,6.06 8.43,4.07 14.74,10.16 18.97,18.25 4.19,8.11 6.31,18.16 6.31,30.17l0 97.3c0,5.84 2.99,9.49 9.02,10.96 6.01,1.45 13.57,2.18 22.67,2.18l0 14.11 -92.51 0 0 -14.11c9.09,0 16.65,-0.73 22.63,-2.18 6.01,-1.47 9,-5.12 9,-10.96l0 -95.84c0,-13.61 -1.95,-24.56 -5.85,-32.85 -3.91,-8.25 -11.84,-12.39 -23.83,-12.39 -15.57,0 -28.4,6.25 -38.5,18.73 -10.04,12.49 -15.07,26.68 -15.07,42.56l0 79.8c0,5.84 2.91,9.49 8.76,10.96 5.86,1.45 13.5,2.18 22.88,2.18l0 14.11 -92.97 0 0 -14.11c9.39,0 17.03,-0.73 22.88,-2.18 5.86,-1.47 8.76,-5.12 8.76,-10.96l0 -95.84c0,-13.3 -1.86,-24.18 -5.6,-32.59 -3.73,-8.43 -11.58,-12.65 -23.62,-12.65 -15.57,0 -28.4,6.25 -38.45,18.73 -10.05,12.49 -15.07,26.68 -15.07,42.56l0 79.8c0,5.84 2.91,9.49 8.76,10.96 5.81,1.45 13.29,2.18 22.42,2.18l0 14.11 -92.51 0z"/>
   <path class="fil2" d="M10875.35 10462.36c-16.52,0 -31.6,-4.3 -45.25,-12.88 -13.62,-8.62 -24.41,-20.15 -32.34,-34.57 -7.98,-14.43 -11.96,-29.59 -11.96,-45.49 0,-15.89 3.57,-30.97 10.71,-45.24 7.14,-14.25 17.18,-25.76 30.19,-34.53 12.99,-8.76 27.24,-13.14 42.81,-13.14 12.7,0 23.54,2.11 32.64,6.33 9.09,4.21 16.64,9.97 22.67,17.27 5.98,7.29 10.42,15.96 13.32,26.03 2.95,10.04 4.4,21.07 4.4,33.07 0,3.57 -1.28,5.36 -3.91,5.36l-117.3 0 0 4.38c0,22.37 4.53,41.58 13.63,57.64 9.09,16.05 23.83,24.1 44.3,24.1 8.1,0 15.74,-1.88 22.88,-5.61 7.13,-3.73 13.32,-8.84 18.51,-15.31 5.19,-6.5 8.59,-13.64 10.22,-21.42 0.33,-0.65 0.87,-1.38 1.69,-2.19 0.84,-0.8 1.54,-1.2 2.2,-1.2l3.86 0c2.62,0 3.91,1.78 3.91,5.36 -3.57,15.23 -11.66,27.72 -24.33,37.45 -12.66,9.72 -26.95,14.59 -42.85,14.59zm-53.56 -108.01l92.02 0c0,-10.06 -1.38,-20.29 -4.15,-30.66 -2.74,-10.38 -7.43,-19.04 -14.08,-26 -6.69,-6.98 -15.36,-10.46 -26.07,-10.46 -15.24,0 -26.99,7.13 -35.3,21.39 -8.26,14.29 -12.42,29.54 -12.42,45.74z"/>
   <path class="fil2" d="M11220.01 10558.2c-14.9,-11.69 -27.81,-25.25 -38.65,-40.63 -10.88,-15.42 -19.81,-31.78 -26.79,-49.13 -6.97,-17.36 -12.16,-35.52 -15.56,-54.51 -3.41,-18.96 -5.11,-38.02 -5.11,-57.15 0,-19.48 1.69,-38.7 5.11,-57.66 3.4,-18.97 8.59,-37.2 15.56,-54.71 6.98,-17.51 16,-33.92 27.04,-49.16 11,-15.24 23.83,-28.53 38.4,-39.88 0,-0.65 0.67,-0.98 2,-0.98l3.86 0c0.66,0 1.33,0.33 1.94,0.98 0.67,0.62 0.97,1.44 0.97,2.41 0,1.31 -0.13,2.28 -0.46,2.93 -13.34,12.64 -24.34,26.34 -33.13,41.1 -8.77,14.76 -15.78,30.5 -21.14,47.21 -5.36,16.7 -9.26,33.97 -11.66,51.8 -2.45,17.84 -3.7,36.47 -3.7,55.95 0,85.63 23.05,150.81 69.12,195.56 0.67,0.65 0.97,1.79 0.97,3.43 0,0.65 -0.29,1.38 -0.97,2.19 -0.61,0.81 -1.28,1.21 -1.94,1.21l-3.86 0c-1.33,0 -2,-0.32 -2,-0.97z"/>
   <path class="fil2" d="M11266.56 10457.98l0 -14.11c9.09,0 16.61,-0.73 22.62,-2.18 6.03,-1.47 9.02,-5.12 9.02,-10.96l0 -110.44c0,-7.14 -1.12,-12.33 -3.4,-15.57 -2.28,-3.24 -5.44,-5.18 -9.47,-5.83 -4.06,-0.67 -10.33,-0.99 -18.76,-0.99l0 -14.58 58.41 -4.38 0 39.89c5.53,-11.66 13.63,-21.23 24.34,-28.72 10.71,-7.46 22.26,-11.17 34.58,-11.17 31.14,0 49.46,12.65 54.98,37.96 5.19,-11.36 12.99,-20.53 23.37,-27.49 10.38,-6.98 21.88,-10.46 34.59,-10.46 11.99,0 22.21,2.02 30.64,6.06 8.44,4.07 14.78,10.16 18.98,18.25 4.23,8.11 6.34,18.16 6.34,30.17l0 97.3c0,5.84 2.99,9.49 9.02,10.96 6.01,1.45 13.54,2.18 22.63,2.18l0 14.11 -92.51 0 0 -14.11c9.09,0 16.64,-0.73 22.67,-2.18 5.98,-1.47 8.97,-5.12 8.97,-10.96l0 -95.84c0,-13.61 -1.95,-24.56 -5.86,-32.85 -3.86,-8.25 -11.83,-12.39 -23.83,-12.39 -15.56,0 -28.4,6.25 -38.44,18.73 -10.1,12.49 -15.11,26.68 -15.11,42.56l0 79.8c0,5.84 2.94,9.49 8.76,10.96 5.85,1.45 13.49,2.18 22.92,2.18l0 14.11 -93.01 0 0 -14.11c9.43,0 17.07,-0.73 22.92,-2.18 5.81,-1.47 8.72,-5.12 8.72,-10.96l0 -95.84c0,-13.3 -1.87,-24.18 -5.6,-32.59 -3.74,-8.43 -11.58,-12.65 -23.59,-12.65 -15.61,0 -28.4,6.25 -38.49,18.73 -10.05,12.49 -15.08,26.68 -15.08,42.56l0 79.8c0,5.84 2.91,9.49 8.77,10.96 5.85,1.45 13.32,2.18 22.37,2.18l0 14.11 -92.46 0z"/>
   <path class="fil2" d="M11609.77 10457.98l0 -14.11c9.06,0 16.62,-0.73 22.6,-2.18 6.01,-1.47 9,-5.12 9,-10.96l0 -110.44c0,-10.38 -1.99,-16.71 -6.06,-18.96 -4.07,-2.3 -12.09,-3.43 -24.13,-3.43l0 -14.58 58.43 -4.38 0 151.78c0,5.84 2.61,9.49 7.8,10.96 5.19,1.45 12.01,2.18 20.47,2.18l0 14.11 -88.11 0zm17.03 -248.59c0,-5.86 2.24,-11.05 6.8,-15.57 4.53,-4.54 9.56,-6.81 15.12,-6.81 3.86,0 7.59,1.05 11.16,3.14 3.58,2.11 6.36,4.97 8.31,8.53 1.91,3.57 2.86,7.13 2.86,10.71 0,5.84 -2.15,11.03 -6.56,15.56 -4.35,4.53 -9.63,6.8 -15.77,6.8 -5.57,0 -10.59,-2.27 -15.12,-6.8 -4.57,-4.53 -6.8,-9.72 -6.8,-15.56z"/>
   <path class="fil2" d="M11723.5 10457.98l0 -14.11c9.1,0 16.65,-0.73 22.63,-2.18 6.01,-1.47 9,-5.12 9,-10.96l0 -110.44c0,-7.14 -1.12,-12.33 -3.4,-15.57 -2.25,-3.24 -5.44,-5.18 -9.51,-5.83 -4.03,-0.67 -10.3,-0.99 -18.73,-0.99l0 -14.58 58.43 -4.38 0 39.89c5.52,-11.66 13.62,-21.23 24.33,-28.72 10.71,-7.46 22.26,-11.17 34.54,-11.17 18.86,0 32.97,4.53 42.39,13.61 9.38,9.09 14.11,22.7 14.11,40.88l0 97.3c0,5.84 2.91,9.49 8.77,10.96 5.81,1.45 13.45,2.18 22.83,2.18l0 14.11 -92.97 0 0 -14.11c9.43,0 17.07,-0.73 22.88,-2.18 5.85,-1.47 8.8,-5.12 8.8,-10.96l0 -95.84c0,-13.3 -1.87,-24.18 -5.65,-32.59 -3.7,-8.43 -11.58,-12.65 -23.59,-12.65 -15.57,0 -28.4,6.25 -38.44,18.73 -10.1,12.49 -15.11,26.68 -15.11,42.56l0 79.8c0,5.84 2.91,9.49 8.79,10.96 5.81,1.45 13.29,2.18 22.34,2.18l0 14.11 -92.46 0z"/>
   <path class="fil2" d="M11966.06 10559.17c-2.24,0 -3.35,-1.13 -3.35,-3.4 0,-1.29 0.12,-2.27 0.45,-2.92 46.42,-45.09 69.63,-110.44 69.63,-196.06 0,-85.61 -22.87,-150.81 -68.63,-195.56 -1,-0.66 -1.45,-1.81 -1.45,-3.44 0,-0.98 0.33,-1.79 0.95,-2.41 0.62,-0.65 1.45,-0.98 2.4,-0.98l3.91 0c0.66,0 1.28,0.33 1.95,0.98 19.47,15.24 35.63,33.81 48.41,55.69 12.88,21.89 22.3,45.17 28.28,69.81 6.01,24.65 9,49.95 9,75.9 0,19.14 -1.62,37.93 -4.9,56.41 -3.24,18.5 -8.34,36.73 -15.32,54.74 -6.98,18 -15.9,34.63 -26.78,49.87 -10.89,15.25 -23.75,28.71 -38.7,40.39 -0.67,0.65 -1.29,0.97 -1.95,0.97l-3.91 0z"/>
   <line class="fil1 str1" x1="1526.63" y1="9527.37" x2="1526.63" y2= "7783.8" />
   <line class="fil1 str1" x1="1526.63" y1="9398.23" x2="1717.31" y2= "9398.23" />
   <line class="fil1 str1" x1="1526.63" y1="8752.44" x2="1717.31" y2= "8752.44" />
   <line class="fil1 str1" x1="1526.63" y1="8106.68" x2="1717.31" y2= "8106.68" />
   <path class="fil2" d="M1257.92 9487.93l0 -13.15c31.15,0 46.73,-3.88 46.73,-11.68l0 -196.53c-12.63,6.47 -28.87,9.72 -48.66,9.72l0 -13.14c30.51,0 53.55,-8.11 69.15,-24.32l5.32 0c0.66,0 1.39,0.4 2.2,1.22 0.81,0.8 1.21,1.52 1.21,2.17l0 220.87c0,7.79 15.6,11.68 46.75,11.68l0 13.15 -122.7 0z"/>
   <path class="fil2" d="M1241.88 8842.15l0 -10.22c0,-0.64 0.33,-1.29 0.95,-1.97l57.92 -64.19c8.78,-9.42 15.91,-17.36 21.44,-23.85 5.5,-6.49 10.93,-13.95 16.3,-22.4 5.36,-8.42 9.59,-16.94 12.66,-25.53 3.08,-8.58 4.63,-17.75 4.63,-27.49 0,-10.38 -1.88,-20.17 -5.61,-29.41 -3.71,-9.24 -9.31,-16.7 -16.78,-22.39 -7.46,-5.66 -16.55,-8.5 -27.27,-8.5 -10.7,0 -20.43,3.32 -29.19,9.96 -8.77,6.65 -14.94,14.99 -18.5,25.07 0.98,0 2.42,0 4.39,0 5.5,0 10.2,1.87 14.11,5.6 3.88,3.71 5.83,8.5 5.83,14.32 0,5.85 -1.94,10.71 -5.83,14.59 -3.91,3.91 -8.62,5.85 -14.11,5.85 -5.85,0 -10.82,-2.02 -14.87,-6.1 -4.05,-4.04 -6.07,-8.83 -6.07,-14.35 0,-9.42 1.79,-18.15 5.36,-26.25 3.55,-8.13 8.66,-15.41 15.32,-21.9 6.65,-6.49 14.14,-11.43 22.4,-14.83 8.27,-3.41 17.11,-5.12 26.52,-5.12 14.29,0 27.59,3.08 39.92,9.25 12.33,6.17 22.07,14.68 29.22,25.53 7.13,10.89 10.7,23.76 10.7,38.66 0,10.72 -2.34,20.94 -7.06,30.67 -4.71,9.71 -10.8,18.55 -18.25,26.51 -7.46,7.94 -16.95,17.03 -28.48,27.24 -11.52,10.22 -19.07,16.95 -22.63,20.21l-42.35 40.85 35.54 0c17.84,0 32.68,-0.16 44.53,-0.47 11.85,-0.33 18.1,-0.81 18.75,-1.46 2.93,-3.26 6.01,-14.77 9.26,-34.57l10.7 0 -10.7 66.66 -138.74 0z"/>
   <path class="fil2" d="M1258.92 8167.67c5.83,8.44 13.69,14.68 23.59,18.75 9.91,4.04 20.54,6.07 31.91,6.07 14.27,0 24.49,-6.17 30.65,-18.49 6.17,-12.33 9.25,-26.28 9.25,-41.84 0,-7.12 -0.64,-14.18 -1.93,-21.15 -1.29,-6.98 -3.5,-13.55 -6.57,-19.71 -3.11,-6.17 -7.24,-11.03 -12.43,-14.59 -5.2,-3.57 -11.7,-5.36 -19.48,-5.36l-24.83 0c-2.27,0 -3.39,-1.13 -3.39,-3.39l0 -3.4c0,-1.94 1.12,-2.92 3.39,-2.92l20.47 -1.97c8.74,0 16.04,-3.25 21.9,-9.71 5.84,-6.51 10.13,-14.45 12.9,-23.85 2.77,-9.4 4.14,-18.34 4.14,-26.75 0,-12.01 -2.84,-21.81 -8.53,-29.41 -5.67,-7.65 -14.19,-11.48 -25.54,-11.48 -9.42,0 -18.51,1.79 -27.27,5.36 -8.76,3.57 -15.57,8.93 -20.43,16.08 0.31,0 0.64,-0.08 0.95,-0.26 0.33,-0.16 0.81,-0.25 1.48,-0.25 5.5,0 10.12,1.94 13.84,5.86 3.75,3.87 5.61,8.57 5.61,14.1 0,5.5 -1.86,10.2 -5.61,14.1 -3.72,3.87 -8.34,5.83 -13.84,5.83 -5.53,0 -10.24,-1.95 -14.11,-5.83 -3.92,-3.9 -5.87,-8.6 -5.87,-14.1 0,-10.72 3.26,-19.96 9.76,-27.75 6.47,-7.78 14.75,-13.78 24.81,-17.98 10.06,-4.21 20.29,-6.32 30.68,-6.32 7.44,0 15.39,1.13 23.82,3.39 8.45,2.28 16.09,5.53 22.9,9.75 6.81,4.21 12.32,9.64 16.55,16.29 4.21,6.66 6.32,14.21 6.32,22.63 0,10.37 -2.27,20.03 -6.83,28.95 -4.53,8.91 -10.93,16.52 -19.22,22.86 -8.27,6.32 -17.28,11.11 -27.01,14.36 11.03,1.94 21.41,5.99 31.17,12.12 9.73,6.18 17.51,13.95 23.35,23.36 5.84,9.42 8.76,19.63 8.76,30.66 0,13.96 -3.73,26.44 -11.19,37.45 -7.44,11.03 -17.34,19.71 -29.68,26.03 -12.33,6.34 -25.32,9.5 -38.93,9.5 -11.7,0 -23.47,-2.27 -35.31,-6.83 -11.84,-4.53 -21.49,-11.18 -28.97,-19.95 -7.46,-8.76 -11.19,-19.46 -11.19,-32.1 0,-6.16 2.11,-11.26 6.32,-15.32 4.23,-4.07 9.4,-6.1 15.58,-6.1 3.9,0 7.56,0.89 10.97,2.67 3.4,1.79 6.07,4.38 8.02,7.79 1.94,3.4 2.92,7.05 2.92,10.96 0,6.17 -2.19,11.36 -6.57,15.56 -4.38,4.21 -9.5,6.32 -15.34,6.32l-1.93 0z"/>
   <polyline class="fil1 str2" points="1526.63,8164.8 1923.86,8164.8 2321.1,8158.36 2718.34,8113.14 3115.58,8164.8 3512.8,8145.44 3910.03,8138.96 4307.27,8138.96 4704.52,8197.09 5101.75,8151.87 5498.96,8151.87 5896.23,8138.96 6293.43,8164.8 6690.67,8158.36 7087.92,8132.51 7485.16,8132.51 7882.4,8145.44 8279.6,8138.96 8676.84,8119.6 9074.08,8126.08 9471.32,8119.6 9868.56,8138.96 10265.81,8113.14 10663.05,8087.31 11060.23,8158.36 11457.48,8138.96 11854.71,8080.87 12251.95,8145.44 13443.63,8145.44 13840.88,8532.89 14238.12,8558.72 14635.37,8720.17 15032.6,8584.57 15429.84,8584.57 15827.04,8481.22 16621.52,8481.22 17018.77,8623.3 17416.01,8552.25 17813.21,8519.95 18210.45,8519.95 18607.68,8662.04 19004.92,8578.08 19402.17,8584.57 19799.41,8584.57 20196.65,9049.51 20593.85,8603.94 "/>
   <path class="fil2" d="M436.54 8996.82c0,2.6 -1.78,3.9 -5.34,3.9 -0.66,0 -1.79,-0.24 -3.41,-0.72 -1.61,-0.47 -2.92,-1.04 -3.88,-1.71 -0.98,-0.65 -1.47,-1.45 -1.47,-2.42 0,-16.55 -0.97,-28.06 -2.93,-34.53 -1.28,-3.57 -4.85,-6.17 -10.7,-7.79l-222.47 -55.45c-2.59,-0.67 -4.53,-0.99 -5.85,-0.99 -2.91,0 -4.53,1.62 -4.85,4.88 -0.99,5.19 -1.48,14.92 -1.48,29.18 0,2.59 -1.78,3.9 -5.34,3.9 -3.57,-0.98 -5.92,-1.71 -7.04,-2.18 -1.15,-0.51 -1.72,-2.06 -1.72,-4.64l0 -108.49c0,-2.92 1.78,-4.38 5.34,-4.38 0.65,0 1.71,0.25 3.15,0.74 1.47,0.47 2.77,1.04 3.91,1.68 1.13,0.66 1.69,1.65 1.69,2.92 0,16.55 0.98,28.07 2.94,34.57 1.28,3.55 4.85,6.14 10.72,7.79l131.41 32.57 -122.67 -158.57c-0.64,-0.34 -2.52,-2.05 -5.6,-5.11 -3.08,-3.11 -6.08,-4.65 -9.02,-4.65 -5.19,0 -7.79,4.54 -7.79,13.65 0,2.59 -1.78,3.88 -5.34,3.88 -2.27,-0.34 -3.98,-0.66 -5.11,-1 -1.15,-0.31 -2.05,-0.94 -2.68,-1.93 -0.65,-0.98 -0.97,-2.27 -0.97,-3.9l0 -78.33c0,-1.61 0.48,-2.75 1.46,-3.4 0.99,-0.64 2.28,-0.95 3.88,-0.95 0.65,0.31 1.79,0.71 3.41,1.21 1.62,0.47 2.92,1.04 3.88,1.67 0.98,0.67 1.46,1.64 1.46,2.94 0,19.76 9.11,41.34 27.27,64.7 0.34,0.32 0.51,0.58 0.51,0.74 0,0.16 0.08,0.4 0.24,0.71 0.15,0.34 0.24,0.51 0.24,0.51l64.72 83.66 142.17 -60.8c6.18,-3.57 9.89,-7.46 11.19,-11.68 1.31,-4.23 1.95,-10.71 1.95,-19.47 0,-2.91 1.79,-4.37 5.36,-4.37 2.92,0.97 5.11,1.85 6.59,2.66 1.44,0.82 2.17,2.38 2.17,4.64l0 93.9c0,2.27 -1.78,3.39 -5.34,3.39 -2.94,-0.33 -5.13,-0.73 -6.59,-1.2 -1.45,-0.51 -2.18,-1.88 -2.18,-4.15 0,-6.79 -0.72,-12.57 -2.19,-17.27 -1.47,-4.7 -4.64,-7.04 -9.49,-7.04 -1.95,0 -3.41,0 -4.39,0l-116.85 50.59 45.77 58.86 74.97 18.48c3.24,0.65 5.19,0.97 5.85,0.97 2.6,0 4.05,-1.61 4.37,-4.85 1.31,-5.19 1.95,-14.92 1.95,-29.18 0,-2.6 1.79,-3.9 5.36,-3.9 3.59,0.98 5.92,1.71 7.04,2.19 1.15,0.47 1.72,2.01 1.72,4.6l0 108.97z"/>
   <path class="fil2" d="M548.86 8625.41c-3.91,-0.65 -5.85,-1.78 -5.85,-3.43 0,-6.8 -0.56,-12.15 -1.69,-16.03 -1.13,-3.9 -3.83,-6.5 -8.04,-7.79l-47.68 -11.66c10.37,10.7 15.56,21.22 15.56,31.6 0,12.02 -4.37,21.34 -13.15,27.99 -8.76,6.64 -19.31,9.96 -31.65,9.96 -11.99,0 -24.42,-3.07 -37.24,-9.24 -12.81,-6.17 -23.52,-14.51 -32.11,-25.05 -8.59,-10.55 -12.9,-21.97 -12.9,-34.3 0,-5.52 1.71,-10.55 5.11,-15.07 3.41,-4.54 7.85,-7.96 13.37,-10.23 -1.93,-1.29 -5.5,-4.38 -10.69,-9.24 -5.19,-4.88 -7.79,-8.45 -7.79,-10.71 0,-1.95 1.31,-2.93 3.9,-2.93l156.24 39.43c2.93,0.31 4.54,0.46 4.86,0.46 2.6,0 3.9,-6.16 3.9,-18.47 0,-0.97 0.32,-1.72 0.99,-2.2 0.65,-0.48 1.46,-0.72 2.44,-0.72 2.59,0.64 4.3,1.2 5.11,1.71 0.8,0.48 1.21,1.53 1.21,3.14l0 59.85c0,1.95 -1.29,2.92 -3.9,2.92zm-55.01 -7.78c0,-6.49 -2.44,-12.83 -7.3,-19 -4.86,-6.14 -10.7,-11.64 -17.54,-16.52l-63.29 -15.57c-6.47,0.98 -12.16,3.32 -17.03,7.07 -4.86,3.71 -7.3,8.64 -7.3,14.82 0,6.17 2.6,12.01 7.79,17.53 5.19,5.5 11.37,10.04 18.5,13.61 7.46,3.57 17.68,7.05 30.65,10.46 12.99,3.4 23.21,5.11 30.67,5.11 6.17,0 11.84,-1.37 17.03,-4.11 5.19,-2.78 7.8,-7.23 7.8,-13.39z"/>
   <path class="fil2" d="M466.58 8497.85c-4.21,0 -8.84,-0.48 -13.86,-1.46 -5.03,-0.98 -9.16,-1.95 -12.41,-2.92 -3.26,-0.99 -9.58,-3.26 -18.98,-6.83 -9.42,-3.55 -14.3,-5.32 -14.62,-5.32 -6.81,-2.6 -12.32,-3.9 -16.55,-3.9 -5.84,0 -8.76,2.11 -8.76,6.32 0,7.45 3.81,13.54 11.44,18.25 7.62,4.68 16.14,8.17 25.54,10.46 1.32,0.31 1.97,1.12 1.97,2.41l0 3.4c0,1.61 -0.81,2.42 -2.44,2.42l-0.95 0c-11.05,-3.24 -20.96,-7.93 -29.73,-14.1 -8.74,-6.16 -13.11,-13.95 -13.11,-23.35 0,-6.81 2.18,-12.49 6.54,-17.03 4.38,-4.54 9.99,-6.81 16.82,-6.81 3.54,0 7.27,0.81 11.19,2.45 9.4,3.55 16.95,6.39 22.6,8.5 5.7,2.13 12.12,4.07 19.28,5.86 7.12,1.77 13.61,2.65 19.46,2.65 7.12,0 12.88,-1.61 17.27,-4.86 4.38,-3.24 6.58,-8.25 6.58,-15.07 0,-12.97 -9.91,-24.66 -29.7,-35.04 -6.49,-3.22 -14.11,-6.32 -22.87,-9.24 -8.76,-2.92 -15.91,-4.39 -21.44,-4.39 -5.83,0 -10.29,0.88 -13.36,2.67 -3.08,1.8 -6.34,4.15 -9.76,7.07 -3.4,2.91 -6.07,4.35 -8.03,4.35 -3.9,0 -7.3,-1.54 -10.23,-4.6 -2.91,-3.08 -4.35,-6.39 -4.35,-9.96 0,-4.55 2.01,-7.8 6.07,-9.75 4.05,-1.97 8.67,-2.94 13.86,-2.94 6.17,0 13.56,0.89 22.15,2.68 8.6,1.78 17.53,4.23 26.76,7.31 9.26,3.08 16.49,6.08 21.68,9 24.35,12.32 36.51,26.6 36.51,42.82 0,11.98 -2.93,21.48 -8.78,28.45 -5.84,6.98 -14.44,10.46 -25.8,10.46z"/>
  </g>
 </g>
</svg>
