<?xml version="1.0" encoding="UTF-8"?>
<!DOCTYPE svg PUBLIC "-//W3C//DTD SVG 1.1//EN" "http://www.w3.org/Graphics/SVG/1.1/DTD/svg11.dtd">
<!-- Creator: CorelDRAW 2021 (64-Bit) -->
<svg xmlns="http://www.w3.org/2000/svg" xml:space="preserve" width="179.917mm" height="91.0166mm" version="1.1" style="shape-rendering:geometricPrecision; text-rendering:geometricPrecision; image-rendering:optimizeQuality; fill-rule:evenodd; clip-rule:evenodd"
viewBox="0 0 16283.55 8237.56"
 xmlns:xlink="http://www.w3.org/1999/xlink"
 xmlns:xodm="http://www.corel.com/coreldraw/odm/2003">
 <defs>
  <style type="text/css">
   <![CDATA[
    .str2 {stroke:#00678F;stroke-width:38.31;stroke-linejoin:round;stroke-miterlimit:10}
    .str0 {stroke:#E9EAEA;stroke-width:15.97;stroke-linejoin:round;stroke-miterlimit:10}
    .str1 {stroke:#434343;stroke-width:15.97;stroke-linecap:square;stroke-linejoin:round;stroke-miterlimit:10}
    .str3 {stroke:#810031;stroke-width:30.65;stroke-linejoin:bevel;stroke-miterlimit:10;stroke-dasharray:237.642062 145.651586}
    .fil1 {fill:none;fill-rule:nonzero}
    .fil2 {fill:#434343;fill-rule:nonzero}
    .fil0 {fill:white;fill-rule:nonzero}
   ]]>
  </style>
 </defs>
 <g id="Layer_x0020_1">
  <metadata id="CorelCorpID_0Corel-Layer"/>
  <g id="_1789204036160">
   <polygon class="fil0" points="-0,8237.56 16283.55,8237.56 16283.55,0 -0,0 "/>
   <polygon class="fil0" points="-0,8237.56 16283.55,8237.56 16283.55,0 -0,0 "/>
   <polygon class="fil0" points="1173.38,1628.35 15828.57,1628.35 15828.57,263.41 1173.38,263.41 "/>
   <line class="fil1 str0" x1="1173.38" y1="1628.35" x2="1173.38" y2= "263.41" />
   <line class="fil1 str0" x1="3267" y1="1628.35" x2="3267" y2= "263.41" />
   <line class="fil1 str0" x1="5360.58" y1="1628.35" x2="5360.58" y2= "263.41" />
   <line class="fil1 str0" x1="7454.17" y1="1628.35" x2="7454.17" y2= "263.41" />
   <line class="fil1 str0" x1="9547.79" y1="1628.35" x2="9547.79" y2= "263.41" />
   <line class="fil1 str0" x1="11641.37" y1="1628.35" x2="11641.37" y2= "263.41" />
   <line class="fil1 str0" x1="13734.95" y1="1628.35" x2="13734.95" y2= "263.41" />
   <line class="fil1 str0" x1="15828.57" y1="1628.35" x2="15828.57" y2= "263.41" />
   <line class="fil1 str0" x1="15828.57" y1="1628.35" x2="1173.38" y2= "1628.35" />
   <line class="fil1 str0" x1="15828.57" y1="945.88" x2="1173.38" y2= "945.88" />
   <line class="fil1 str0" x1="15828.57" y1="263.41" x2="1173.38" y2= "263.41" />
   <line class="fil1 str1" x1="1173.38" y1="1628.35" x2="15828.57" y2= "1628.35" />
   <line class="fil1 str1" x1="1173.38" y1="1628.35" x2="1173.38" y2= "1481.8" />
   <line class="fil1 str1" x1="3267" y1="1628.35" x2="3267" y2= "1481.8" />
   <line class="fil1 str1" x1="5360.58" y1="1628.35" x2="5360.58" y2= "1481.8" />
   <line class="fil1 str1" x1="7454.17" y1="1628.35" x2="7454.17" y2= "1481.8" />
   <line class="fil1 str1" x1="9547.79" y1="1628.35" x2="9547.79" y2= "1481.8" />
   <line class="fil1 str1" x1="11641.37" y1="1628.35" x2="11641.37" y2= "1481.8" />
   <line class="fil1 str1" x1="13734.95" y1="1628.35" x2="13734.95" y2= "1481.8" />
   <line class="fil1 str1" x1="15828.57" y1="1628.35" x2="15828.57" y2= "1481.8" />
   <path class="fil2" d="M1173.38 1965.49c-23.44,0 -39.41,-9.64 -47.89,-28.99 -8.48,-19.31 -12.73,-42.34 -12.73,-69.03 0,-16.7 1.49,-32.37 4.49,-46.96 3,-14.6 9.04,-27.08 18.15,-37.42 9.1,-10.34 21.77,-15.51 37.98,-15.51 12.73,0 23.08,3.12 31.06,9.35 7.98,6.23 14.09,14.21 18.35,23.95 4.23,9.74 7.1,20.21 8.59,31.41 1.51,11.24 2.26,22.96 2.26,35.19 0,16.47 -1.51,31.87 -4.51,46.2 -3,14.36 -8.91,26.56 -17.77,36.68 -8.86,10.09 -21.52,15.13 -37.99,15.13zm0 -7.47c10.72,0 18.71,-5.49 23.95,-16.48 5.24,-10.95 8.48,-23.08 9.73,-36.27 1.24,-13.22 1.86,-27.33 1.86,-42.3 0,-14.46 -0.62,-27.81 -1.86,-40.04 -1.25,-12.23 -4.49,-23.24 -9.73,-33.12 -5.24,-9.87 -13.22,-14.78 -23.95,-14.78 -10.72,0 -18.71,4.98 -23.95,14.98 -5.23,9.96 -8.47,21.01 -9.72,33.11 -1.24,12.1 -1.86,25.39 -1.86,39.85 0,10.5 0.25,20.46 0.74,29.95 0.5,9.45 1.86,19.25 4.11,29.37 2.24,10.09 5.86,18.58 10.85,25.41 5,6.87 11.6,10.32 19.83,10.32z"/>
   <path class="fil2" d="M3209.37 1959.13l0 -7.86c0,-0.51 0.25,-0.99 0.73,-1.49l44.51 -49.4c6.73,-7.21 12.26,-13.34 16.47,-18.33 4.28,-4.98 8.44,-10.72 12.55,-17.21 4.08,-6.48 7.34,-13.06 9.74,-19.67 2.36,-6.62 3.54,-13.64 3.54,-21.14 0,-7.98 -1.43,-15.51 -4.31,-22.64 -2.87,-7.09 -7.15,-12.83 -12.9,-17.21 -5.75,-4.34 -12.74,-6.52 -20.98,-6.52 -8.21,0 -15.71,2.55 -22.41,7.63 -6.74,5.14 -11.49,11.56 -14.25,19.29 0.77,0 1.88,0 3.38,0 4.24,0 7.86,1.44 10.86,4.31 2.97,2.88 4.46,6.54 4.46,11.01 0,4.51 -1.49,8.27 -4.46,11.24 -3,3 -6.62,4.5 -10.86,4.5 -4.5,0 -8.3,-1.57 -11.43,-4.69 -3.1,-3.13 -4.66,-6.81 -4.66,-11.05 0,-7.21 1.38,-13.95 4.12,-20.17 2.72,-6.23 6.64,-11.85 11.78,-16.83 5.1,-5 10.85,-8.81 17.21,-11.42 6.35,-2.62 13.16,-3.93 20.41,-3.93 10.95,0 21.2,2.36 30.65,7.11 9.49,4.72 16.99,11.28 22.48,19.64 5.49,8.36 8.24,18.26 8.24,29.72 0,8.24 -1.82,16.13 -5.43,23.59 -3.64,7.48 -8.3,14.27 -14.05,20.37 -5.75,6.13 -13.02,13.09 -21.87,20.94 -8.88,7.89 -14.69,13.06 -17.44,15.55l-32.53 31.42 27.32 0c13.7,0 25.1,-0.1 34.2,-0.35 9.13,-0.25 13.92,-0.64 14.43,-1.12 2.24,-2.52 4.63,-11.37 7.12,-26.59l8.24 0 -8.24 51.27 -106.64 0z"/>
   <path class="fil2" d="M5296.59 1911.63l0 -10.12 89.05 -132.45c0.51,-1.01 1.5,-1.49 3,-1.49l4.12 0c2.24,0 3.35,1.11 3.35,3.38l0 130.56 28.07 0 0 10.12 -28.07 0 0 28.42c0,3.73 2.81,6.16 8.43,7.31 5.62,1.11 12.04,1.66 19.26,1.66l0 10.12 -78.93 0 0 -10.12c7.21,0 13.67,-0.54 19.25,-1.66 5.62,-1.15 8.44,-3.58 8.44,-7.31l0 -28.42 -75.96 0zm9.7 -10.12l68.11 0 0 -101.76 -68.11 101.76z"/>
   <path class="fil2" d="M7454.17 1965.49c-11.97,0 -21.88,-3.16 -29.73,-9.55 -7.86,-6.35 -13.98,-14.53 -18.35,-24.48 -4.34,-10 -7.41,-20.54 -9.17,-31.64 -1.76,-11.08 -2.62,-22.26 -2.62,-33.46 0,-15.23 3,-30.43 9.01,-45.66 5.97,-15.2 14.65,-27.88 25.98,-37.97 11.37,-10.12 24.88,-15.16 40.58,-15.16 6.74,0 12.93,1.24 18.55,3.73 5.58,2.5 10.03,6.16 13.25,11.05 3.26,4.85 4.89,10.66 4.89,17.4 0,3.99 -1.31,7.28 -3.93,9.93 -2.62,2.62 -5.94,3.93 -9.93,3.93 -3.74,0 -7,-1.31 -9.74,-3.93 -2.75,-2.65 -4.09,-5.94 -4.09,-9.93 0,-3.77 1.34,-6.93 4.09,-9.55 2.74,-2.62 6,-3.93 9.74,-3.93l1.49 0c-2.49,-3.51 -5.9,-6.06 -10.27,-7.67 -4.38,-1.63 -9.04,-2.45 -14.06,-2.45 -5.71,0 -11.01,1.24 -15.9,3.77 -4.85,2.49 -9.29,5.84 -13.28,10.09 -3.99,4.24 -7.28,8.97 -9.9,14.2 -2.62,5.24 -4.62,11.18 -6,17.78 -1.38,6.62 -2.24,12.84 -2.62,18.72 -0.35,5.87 -0.54,13.15 -0.54,21.9 3.22,-7.98 7.98,-14.46 14.21,-19.48 6.23,-4.98 13.21,-7.48 20.94,-7.48 8.49,0 16.22,1.76 23.21,5.24 6.99,3.48 13.02,8.27 18.13,14.4 5.11,6.13 8.98,13.09 11.59,20.94 2.62,7.86 3.93,15.78 3.93,23.76 0,11.24 -2.49,21.97 -7.48,32.18 -4.98,10.25 -12.04,18.35 -21.13,24.33 -9.1,6 -19.38,8.97 -30.87,8.97zm0 -9.35c7.5,0 13.47,-1.67 17.97,-5.05 4.47,-3.38 7.79,-7.79 9.89,-13.28 2.14,-5.49 3.45,-11.08 3.93,-16.86 0.52,-5.71 0.77,-12.71 0.77,-20.94 0,-10.73 -0.58,-19.96 -1.69,-27.69 -1.11,-7.72 -3.93,-14.46 -8.4,-20.21 -4.5,-5.71 -11.49,-8.59 -20.94,-8.59 -7.76,0 -14.11,2.62 -19.1,7.86 -5.01,5.24 -8.68,11.85 -11.04,19.83 -2.4,7.98 -3.57,15.58 -3.57,22.83 0,2.49 0.13,4.47 0.38,5.97 0,0.25 0,0.44 0,0.57 0,0.13 -0.13,0.33 -0.38,0.54 0,8.27 0.89,16.61 2.64,25.1 1.73,8.46 4.99,15.59 9.71,21.33 4.76,5.75 11.37,8.59 19.83,8.59z"/>
   <path class="fil2" d="M9487.92 1915.36c0,-11.47 3.8,-21.65 11.4,-30.49 7.6,-8.85 17.4,-16.16 29.37,-21.9l-10.85 -7.12c-6.48,-4.22 -11.78,-9.9 -15.9,-16.99 -4.12,-7.12 -6.16,-14.69 -6.16,-22.67 0,-9.22 2.43,-17.52 7.31,-24.87 4.85,-7.38 11.24,-13.15 19.22,-17.4 7.98,-4.22 16.47,-6.35 25.48,-6.35 8.46,0 16.7,1.76 24.68,5.23 7.98,3.48 14.46,8.46 19.48,14.98 4.98,6.48 7.47,14.21 7.47,23.18 0,6.23 -1.49,12.16 -4.46,17.78 -3.04,5.62 -7.16,10.6 -12.39,14.97 -5.24,4.38 -10.82,8.05 -16.83,11.05l16.47 10.44c7.48,5 13.54,11.56 18.14,19.67 4.62,8.07 6.92,16.51 6.92,25.25 0,10.47 -2.81,19.96 -8.39,28.45 -5.66,8.46 -13,15.07 -22.1,19.83 -9.1,4.72 -18.77,7.09 -28.99,7.09 -9.99,0 -19.6,-1.97 -28.8,-5.96 -9.23,-3.99 -16.73,-9.87 -22.48,-17.59 -5.75,-7.73 -8.59,-16.57 -8.59,-26.56zm15.71 0c0,7.72 2.05,14.72 6.16,20.94 4.12,6.23 9.61,11.11 16.47,14.59 6.87,3.48 14.02,5.24 21.52,5.24 11.2,0 21.33,-3.23 30.3,-9.71 8.97,-6.51 13.48,-15.1 13.48,-25.83 0,-3.48 -0.71,-7.05 -2.08,-10.66 -1.37,-3.61 -3.35,-6.93 -5.96,-9.93 -2.62,-2.97 -5.56,-5.33 -8.82,-7.09l-38.51 -25.1c-6,3.26 -11.49,7.31 -16.47,12.16 -4.98,4.89 -8.91,10.31 -11.78,16.28 -2.87,6 -4.31,12.35 -4.31,19.1zm19.83 -87.55l34.8 22.45c7.98,-4.76 14.53,-10.44 19.64,-17.05 5.1,-6.62 7.66,-14.02 7.66,-22.26 0,-6.48 -1.78,-12.42 -5.39,-17.78 -3.64,-5.33 -8.3,-9.51 -14.05,-12.52 -5.75,-3 -11.97,-4.5 -18.71,-4.5 -5.75,0 -11.53,1.11 -17.4,3.38 -5.84,2.23 -10.72,5.55 -14.59,9.89 -3.86,4.37 -5.81,9.55 -5.81,15.55 0,8.97 4.62,16.61 13.86,22.83z"/>
   <path class="fil2" d="M11524.26 1959.13l0 -10.12c23.95,0 35.92,-2.97 35.92,-8.97l0 -151.15c-9.74,4.98 -22.19,7.48 -37.39,7.48l0 -10.09c23.43,0 41.15,-6.26 53.13,-18.71l4.09 0c0.51,0 1.09,0.32 1.69,0.92 0.63,0.63 0.95,1.18 0.95,1.69l0 169.86c0,6 11.97,8.97 35.92,8.97l0 10.12 -94.32 0z"/>
   <path class="fil2" d="M11713.21 1965.49c-23.43,0 -39.4,-9.64 -47.89,-28.99 -8.46,-19.31 -12.71,-42.34 -12.71,-69.03 0,-16.7 1.47,-32.37 4.47,-46.96 3,-14.6 9.07,-27.08 18.16,-37.42 9.1,-10.34 21.74,-15.51 37.96,-15.51 12.72,0 23.09,3.12 31.07,9.35 7.98,6.23 14.08,14.21 18.33,23.95 4.24,9.74 7.12,20.21 8.62,31.41 1.5,11.24 2.24,22.96 2.24,35.19 0,16.47 -1.49,31.87 -4.5,46.2 -2.97,14.36 -8.91,26.56 -17.78,36.68 -8.84,10.09 -21.49,15.13 -37.97,15.13zm0 -7.47c10.73,0 18.72,-5.49 23.95,-16.48 5.24,-10.95 8.5,-23.08 9.74,-36.27 1.25,-13.22 1.86,-27.33 1.86,-42.3 0,-14.46 -0.61,-27.81 -1.86,-40.04 -1.24,-12.23 -4.5,-23.24 -9.74,-33.12 -5.23,-9.87 -13.21,-14.78 -23.95,-14.78 -10.72,0 -18.71,4.98 -23.94,14.98 -5.24,9.96 -8.46,21.01 -9.71,33.11 -1.24,12.1 -1.88,25.39 -1.88,39.85 0,10.5 0.25,20.46 0.77,29.95 0.48,9.45 1.85,19.25 4.08,29.37 2.24,10.09 5.87,18.58 10.86,25.41 4.98,6.87 11.58,10.32 19.82,10.32z"/>
   <path class="fil2" d="M13617.84 1959.13l0 -10.12c23.95,0 35.92,-2.97 35.92,-8.97l0 -151.15c-9.71,4.98 -22.19,7.48 -37.39,7.48l0 -10.09c23.43,0 41.15,-6.26 53.13,-18.71l4.09 0c0.51,0 1.08,0.32 1.68,0.92 0.64,0.63 0.96,1.18 0.96,1.69l0 169.86c0,6 11.97,8.97 35.92,8.97l0 10.12 -94.32 0z"/>
   <path class="fil2" d="M13749.19 1959.13l0 -7.86c0,-0.51 0.26,-0.99 0.73,-1.49l44.51 -49.4c6.77,-7.21 12.26,-13.34 16.47,-18.33 4.28,-4.98 8.44,-10.72 12.55,-17.21 4.12,-6.48 7.34,-13.06 9.74,-19.67 2.36,-6.62 3.54,-13.64 3.54,-21.14 0,-7.98 -1.43,-15.51 -4.31,-22.64 -2.87,-7.09 -7.15,-12.83 -12.9,-17.21 -5.75,-4.34 -12.71,-6.52 -20.94,-6.52 -8.24,0 -15.71,2.55 -22.45,7.63 -6.74,5.14 -11.49,11.56 -14.25,19.29 0.77,0 1.88,0 3.38,0 4.24,0 7.86,1.44 10.86,4.31 2.97,2.88 4.47,6.54 4.47,11.01 0,4.51 -1.5,8.27 -4.47,11.24 -3,3 -6.62,4.5 -10.86,4.5 -4.5,0 -8.3,-1.57 -11.43,-4.69 -3.1,-3.13 -4.66,-6.81 -4.66,-11.05 0,-7.21 1.38,-13.95 4.12,-20.17 2.75,-6.23 6.68,-11.85 11.78,-16.83 5.11,-5 10.86,-8.81 17.21,-11.42 6.35,-2.62 13.15,-3.93 20.4,-3.93 10.98,0 21.2,2.36 30.65,7.11 9.48,4.72 16.98,11.28 22.47,19.64 5.49,8.36 8.24,18.26 8.24,29.72 0,8.24 -1.82,16.13 -5.42,23.59 -3.61,7.48 -8.31,14.27 -14.06,20.37 -5.75,6.13 -13.02,13.09 -21.87,20.94 -8.88,7.89 -14.65,13.06 -17.4,15.55l-32.56 31.42 27.33 0c13.69,0 25.12,-0.1 34.19,-0.35 9.13,-0.25 13.92,-0.64 14.43,-1.12 2.27,-2.52 4.63,-11.37 7.12,-26.59l8.24 0 -8.24 51.27 -106.64 0z"/>
   <path class="fil2" d="M15711.46 1959.13l0 -10.12c23.95,0 35.92,-2.97 35.92,-8.97l0 -151.15c-9.74,4.98 -22.19,7.48 -37.42,7.48l0 -10.09c23.47,0 41.18,-6.26 53.15,-18.71l4.09 0c0.51,0 1.05,0.32 1.69,0.92 0.61,0.63 0.92,1.18 0.92,1.69l0 169.86c0,6 11.97,8.97 35.92,8.97l0 10.12 -94.29 0z"/>
   <path class="fil2" d="M15836.43 1911.63l0 -10.12 89.05 -132.45c0.52,-1.01 1.5,-1.49 3,-1.49l4.12 0c2.24,0 3.35,1.11 3.35,3.38l0 130.56 28.07 0 0 10.12 -28.07 0 0 28.42c0,3.73 2.81,6.16 8.44,7.31 5.61,1.11 12.04,1.66 19.28,1.66l0 10.12 -78.96 0 0 -10.12c7.21,0 13.67,-0.54 19.25,-1.66 5.62,-1.15 8.44,-3.58 8.44,-7.31l0 -28.42 -75.96 0zm9.71 -10.12l68.13 0 0 -101.76 -68.13 101.76z"/>
   <line class="fil1 str1" x1="1173.38" y1="1628.35" x2="1173.38" y2= "263.41" />
   <line class="fil1 str1" x1="1173.38" y1="1628.35" x2="1319.92" y2= "1628.35" />
   <line class="fil1 str1" x1="1173.38" y1="945.88" x2="1319.92" y2= "945.88" />
   <line class="fil1 str1" x1="1173.38" y1="263.41" x2="1319.92" y2= "263.41" />
   <path class="fil2" d="M1012.14 1703.68c-23.45,0 -39.42,-9.65 -47.9,-29 -8.48,-19.31 -12.72,-42.34 -12.72,-69.03 0,-16.7 1.49,-32.37 4.49,-46.96 2.99,-14.59 9.04,-27.08 18.15,-37.42 9.09,-10.34 21.77,-15.51 37.98,-15.51 12.73,0 23.08,3.13 31.06,9.35 7.97,6.23 14.09,14.21 18.32,23.95 4.25,9.74 7.11,20.21 8.62,31.42 1.51,11.23 2.25,22.95 2.25,35.18 0,16.48 -1.51,31.87 -4.5,46.2 -3,14.36 -8.91,26.56 -17.78,36.68 -8.85,10.09 -21.51,15.14 -37.98,15.14zm0 -7.48c10.72,0 18.71,-5.49 23.95,-16.47 5.24,-10.95 8.48,-23.09 9.73,-36.27 1.23,-13.21 1.86,-27.33 1.86,-42.3 0,-14.46 -0.62,-27.81 -1.86,-40.04 -1.25,-12.23 -4.49,-23.24 -9.73,-33.11 -5.24,-9.87 -13.22,-14.79 -23.95,-14.79 -10.72,0 -18.71,4.99 -23.95,14.98 -5.24,9.96 -8.48,21.01 -9.73,33.11 -1.23,12.1 -1.86,25.39 -1.86,39.85 0,10.5 0.25,20.46 0.73,29.95 0.51,9.45 1.87,19.25 4.12,29.37 2.24,10.09 5.86,18.59 10.85,25.42 4.99,6.86 11.6,10.31 19.83,10.31z"/>
   <path class="fil2" d="M535.81 1014.85l0 -10.12c23.95,0 35.92,-2.97 35.92,-8.97l0 -151.15c-9.71,4.98 -22.18,7.48 -37.4,7.48l0 -10.09c23.45,0 41.16,-6.26 53.14,-18.71l4.09 0c0.52,0 1.08,0.32 1.7,0.92 0.62,0.63 0.93,1.18 0.93,1.69l0 169.86c0,6 11.97,8.97 35.92,8.97l0 10.12 -94.31 0z"/>
   <path class="fil2" d="M724.78 1021.2c-23.45,0 -39.42,-9.64 -47.9,-28.99 -8.48,-19.31 -12.72,-42.34 -12.72,-69.03 0,-16.7 1.49,-32.37 4.49,-46.96 2.99,-14.6 9.04,-27.08 18.15,-37.42 9.09,-10.34 21.77,-15.51 37.98,-15.51 12.73,0 23.08,3.12 31.06,9.35 7.97,6.23 14.09,14.21 18.32,23.95 4.25,9.74 7.11,20.21 8.62,31.41 1.51,11.24 2.25,22.96 2.25,35.19 0,16.47 -1.51,31.87 -4.5,46.2 -3,14.36 -8.91,26.56 -17.78,36.68 -8.85,10.09 -21.51,15.13 -37.98,15.13zm0 -7.47c10.72,0 18.71,-5.49 23.95,-16.48 5.24,-10.95 8.48,-23.08 9.73,-36.27 1.23,-13.22 1.86,-27.33 1.86,-42.3 0,-14.47 -0.62,-27.81 -1.86,-40.04 -1.25,-12.23 -4.49,-23.24 -9.73,-33.12 -5.24,-9.87 -13.22,-14.78 -23.95,-14.78 -10.72,0 -18.71,4.98 -23.95,14.98 -5.24,9.96 -8.48,21.01 -9.73,33.11 -1.23,12.1 -1.86,25.38 -1.86,39.85 0,10.5 0.25,20.46 0.73,29.95 0.51,9.45 1.87,19.25 4.12,29.37 2.24,10.09 5.86,18.58 10.85,25.41 4.99,6.87 11.6,10.32 19.83,10.32z"/>
   <path class="fil2" d="M868.46 1021.2c-23.45,0 -39.42,-9.64 -47.9,-28.99 -8.48,-19.31 -12.72,-42.34 -12.72,-69.03 0,-16.7 1.49,-32.37 4.49,-46.96 2.99,-14.6 9.04,-27.08 18.15,-37.42 9.09,-10.34 21.77,-15.51 37.98,-15.51 12.73,0 23.08,3.12 31.06,9.35 7.97,6.23 14.09,14.21 18.32,23.95 4.25,9.74 7.11,20.21 8.62,31.41 1.51,11.24 2.25,22.96 2.25,35.19 0,16.47 -1.51,31.87 -4.5,46.2 -3,14.36 -8.91,26.56 -17.78,36.68 -8.85,10.09 -21.51,15.13 -37.98,15.13zm0 -7.47c10.72,0 18.71,-5.49 23.95,-16.48 5.24,-10.95 8.48,-23.08 9.73,-36.27 1.23,-13.22 1.86,-27.33 1.86,-42.3 0,-14.47 -0.62,-27.81 -1.86,-40.04 -1.25,-12.23 -4.49,-23.24 -9.73,-33.12 -5.24,-9.87 -13.22,-14.78 -23.95,-14.78 -10.72,0 -18.71,4.98 -23.95,14.98 -5.24,9.96 -8.48,21.01 -9.73,33.11 -1.23,12.1 -1.86,25.38 -1.86,39.85 0,10.5 0.25,20.46 0.73,29.95 0.51,9.45 1.87,19.25 4.12,29.37 2.24,10.09 5.86,18.58 10.85,25.41 4.99,6.87 11.6,10.32 19.83,10.32z"/>
   <path class="fil2" d="M1012.14 1021.2c-23.45,0 -39.42,-9.64 -47.9,-28.99 -8.48,-19.31 -12.72,-42.34 -12.72,-69.03 0,-16.7 1.49,-32.37 4.49,-46.96 2.99,-14.6 9.04,-27.08 18.15,-37.42 9.09,-10.34 21.77,-15.51 37.98,-15.51 12.73,0 23.08,3.12 31.06,9.35 7.97,6.23 14.09,14.21 18.32,23.95 4.25,9.74 7.11,20.21 8.62,31.41 1.51,11.24 2.25,22.96 2.25,35.19 0,16.47 -1.51,31.87 -4.5,46.2 -3,14.36 -8.91,26.56 -17.78,36.68 -8.85,10.09 -21.51,15.13 -37.98,15.13zm0 -7.47c10.72,0 18.71,-5.49 23.95,-16.48 5.24,-10.95 8.48,-23.08 9.73,-36.27 1.23,-13.22 1.86,-27.33 1.86,-42.3 0,-14.47 -0.62,-27.81 -1.86,-40.04 -1.25,-12.23 -4.49,-23.24 -9.73,-33.12 -5.24,-9.87 -13.22,-14.78 -23.95,-14.78 -10.72,0 -18.71,4.98 -23.95,14.98 -5.24,9.96 -8.48,21.01 -9.73,33.11 -1.23,12.1 -1.86,25.38 -1.86,39.85 0,10.5 0.25,20.46 0.73,29.95 0.51,9.45 1.87,19.25 4.12,29.37 2.24,10.09 5.86,18.58 10.85,25.41 4.99,6.87 11.6,10.32 19.83,10.32z"/>
   <path class="fil2" d="M523.48 332.37l0 -7.86c0,-0.51 0.25,-0.99 0.75,-1.5l44.51 -49.39c6.73,-7.21 12.24,-13.35 16.48,-18.33 4.23,-4.98 8.41,-10.72 12.52,-17.21 4.14,-6.48 7.37,-13.05 9.73,-19.67 2.38,-6.61 3.57,-13.63 3.57,-21.13 0,-7.98 -1.43,-15.52 -4.32,-22.64 -2.85,-7.09 -7.16,-12.83 -12.89,-17.21 -5.74,-4.34 -12.73,-6.51 -20.95,-6.51 -8.24,0 -15.7,2.55 -22.45,7.63 -6.73,5.14 -11.48,11.56 -14.22,19.29 0.75,0 1.87,0 3.38,0 4.23,0 7.84,1.43 10.83,4.31 3,2.87 4.49,6.54 4.49,11.01 0,4.5 -1.49,8.27 -4.49,11.24 -3,3 -6.61,4.5 -10.83,4.5 -4.51,0 -8.32,-1.57 -11.43,-4.7 -3.11,-3.12 -4.68,-6.8 -4.68,-11.04 0,-7.21 1.39,-13.96 4.14,-20.18 2.73,-6.23 6.64,-11.84 11.77,-16.83 5.1,-5.01 10.83,-8.81 17.2,-11.43 6.37,-2.62 13.17,-3.93 20.4,-3.93 10.98,0 21.21,2.36 30.67,7.12 9.49,4.72 16.97,11.27 22.46,19.64 5.49,8.36 8.25,18.26 8.25,29.72 0,8.24 -1.83,16.12 -5.44,23.59 -3.63,7.47 -8.31,14.27 -14.03,20.37 -5.74,6.13 -13.04,13.09 -21.89,20.94 -8.87,7.88 -14.66,13.06 -17.41,15.55l-32.54 31.41 27.31 0c13.72,0 25.13,-0.09 34.22,-0.35 9.12,-0.25 13.92,-0.63 14.42,-1.11 2.24,-2.53 4.62,-11.37 7.11,-26.6l8.25 0 -8.25 51.28 -106.64 0z"/>
   <path class="fil2" d="M724.78 338.73c-23.45,0 -39.42,-9.64 -47.9,-28.99 -8.48,-19.32 -12.72,-42.34 -12.72,-69.03 0,-16.7 1.49,-32.37 4.49,-46.97 2.99,-14.59 9.04,-27.07 18.15,-37.42 9.09,-10.34 21.77,-15.52 37.98,-15.52 12.73,0 23.08,3.13 31.06,9.36 7.97,6.23 14.09,14.21 18.32,23.95 4.25,9.74 7.11,20.21 8.62,31.41 1.51,11.24 2.25,22.96 2.25,35.19 0,16.47 -1.51,31.86 -4.5,46.19 -3,14.37 -8.91,26.57 -17.78,36.69 -8.85,10.09 -21.51,15.13 -37.98,15.13zm0 -7.47c10.72,0 18.71,-5.49 23.95,-16.48 5.24,-10.95 8.48,-23.08 9.73,-36.27 1.23,-13.22 1.86,-27.33 1.86,-42.31 0,-14.46 -0.62,-27.8 -1.86,-40.04 -1.25,-12.23 -4.49,-23.24 -9.73,-33.11 -5.24,-9.87 -13.22,-14.78 -23.95,-14.78 -10.72,0 -18.71,4.98 -23.95,14.97 -5.24,9.96 -8.48,21.02 -9.73,33.12 -1.23,12.1 -1.86,25.38 -1.86,39.84 0,10.51 0.25,20.47 0.73,29.95 0.51,9.46 1.87,19.26 4.12,29.38 2.24,10.09 5.86,18.58 10.85,25.41 4.99,6.87 11.6,10.32 19.83,10.32z"/>
   <path class="fil2" d="M868.46 338.73c-23.45,0 -39.42,-9.64 -47.9,-28.99 -8.48,-19.32 -12.72,-42.34 -12.72,-69.03 0,-16.7 1.49,-32.37 4.49,-46.97 2.99,-14.59 9.04,-27.07 18.15,-37.42 9.09,-10.34 21.77,-15.52 37.98,-15.52 12.73,0 23.08,3.13 31.06,9.36 7.97,6.23 14.09,14.21 18.32,23.95 4.25,9.74 7.11,20.21 8.62,31.41 1.51,11.24 2.25,22.96 2.25,35.19 0,16.47 -1.51,31.86 -4.5,46.19 -3,14.37 -8.91,26.57 -17.78,36.69 -8.85,10.09 -21.51,15.13 -37.98,15.13zm0 -7.47c10.72,0 18.71,-5.49 23.95,-16.48 5.24,-10.95 8.48,-23.08 9.73,-36.27 1.23,-13.22 1.86,-27.33 1.86,-42.31 0,-14.46 -0.62,-27.8 -1.86,-40.04 -1.25,-12.23 -4.49,-23.24 -9.73,-33.11 -5.24,-9.87 -13.22,-14.78 -23.95,-14.78 -10.72,0 -18.71,4.98 -23.95,14.97 -5.24,9.96 -8.48,21.02 -9.73,33.12 -1.23,12.1 -1.86,25.38 -1.86,39.84 0,10.51 0.25,20.47 0.73,29.95 0.51,9.46 1.87,19.26 4.12,29.38 2.24,10.09 5.86,18.58 10.85,25.41 4.99,6.87 11.6,10.32 19.83,10.32z"/>
   <path class="fil2" d="M1012.14 338.73c-23.45,0 -39.42,-9.64 -47.9,-28.99 -8.48,-19.32 -12.72,-42.34 -12.72,-69.03 0,-16.7 1.49,-32.37 4.49,-46.97 2.99,-14.59 9.04,-27.07 18.15,-37.42 9.09,-10.34 21.77,-15.52 37.98,-15.52 12.73,0 23.08,3.13 31.06,9.36 7.97,6.23 14.09,14.21 18.32,23.95 4.25,9.74 7.11,20.21 8.62,31.41 1.51,11.24 2.25,22.96 2.25,35.19 0,16.47 -1.51,31.86 -4.5,46.19 -3,14.37 -8.91,26.57 -17.78,36.69 -8.85,10.09 -21.51,15.13 -37.98,15.13zm0 -7.47c10.72,0 18.71,-5.49 23.95,-16.48 5.24,-10.95 8.48,-23.08 9.73,-36.27 1.23,-13.22 1.86,-27.33 1.86,-42.31 0,-14.46 -0.62,-27.8 -1.86,-40.04 -1.25,-12.23 -4.49,-23.24 -9.73,-33.11 -5.24,-9.87 -13.22,-14.78 -23.95,-14.78 -10.72,0 -18.71,4.98 -23.95,14.97 -5.24,9.96 -8.48,21.02 -9.73,33.12 -1.23,12.1 -1.86,25.38 -1.86,39.84 0,10.51 0.25,20.47 0.73,29.95 0.51,9.46 1.87,19.26 4.12,29.38 2.24,10.09 5.86,18.58 10.85,25.41 4.99,6.87 11.6,10.32 19.83,10.32z"/>
   <polyline class="fil1 str2" points="1173.38,625.32 1435.09,625.54 1696.77,627.78 1958.49,628.61 2220.17,628.57 2481.89,626.53 2743.57,625.52 3005.28,625.16 3267,625.86 3528.68,627.55 3790.37,627.07 4052.09,625.58 4313.77,626.19 4575.46,629.15 4837.17,629.34 5098.89,626.4 5360.58,626.38 5622.26,628.86 5883.99,629.79 6145.67,628.76 6407.36,626.5 6669.07,627.81 6930.79,629.63 7192.48,631.26 7454.17,632.63 7715.89,632 7977.57,630.87 8239.26,629.41 8500.97,633.21 8762.7,634.55 9024.38,632.76 9286.07,632.06 9547.79,635.92 9809.48,632.82 10071.16,634.03 10332.88,636.11 10594.6,637.14 10856.28,637.2 11117.97,636.75 11379.69,634.19 11641.37,634.36 11903.06,634.32 12164.78,634.93 12426.5,634.36 12688.18,634.42 12949.86,635.32 13211.58,637.2 13473.27,638 13734.95,639.37 13996.67,638.92 14258.39,638.79 14520.08,636.56 "/>
   <path class="fil2" d="M335.54 1469.2c0,1.97 -1.38,3 -4.13,3 -0.49,0 -1.37,-0.13 -2.61,-0.38 -1.25,-0.25 -2.24,-0.71 -3,-1.31 -0.75,-0.61 -1.12,-1.3 -1.12,-2.07 0,-12.71 -0.75,-21.55 -2.26,-26.54 -0.98,-2.74 -3.72,-4.75 -8.23,-6l-170.98 -42.66c-2,-0.25 -3.49,-0.35 -4.51,-0.35 -2.24,0 -3.48,1.09 -3.73,3.36 -0.76,3.99 -1.13,11.46 -1.13,22.45 0,2.26 -1.38,3.38 -4.12,3.38 -0.5,-0.26 -1.36,-0.52 -2.61,-0.77 -1.25,-0.25 -2.24,-0.67 -3,-1.31 -0.75,-0.61 -1.12,-1.3 -1.12,-2.05l0 -107.4c0,-9.96 1.75,-19.58 5.24,-28.8 3.48,-9.23 8.78,-16.8 15.9,-22.64 7.1,-5.85 15.78,-8.78 26,-8.78 13.22,0 25.01,4.66 35.34,14.01 10.37,9.36 18.41,20.95 24.14,34.81 5.74,13.86 8.61,27.23 8.61,40.19l0 50.55 77.08 19.09c2,0.23 3.49,0.35 4.51,0.35 0.74,0 1.37,-0.13 1.86,-0.35 0.5,-0.25 0.88,-0.57 1.12,-0.96 0.24,-0.38 0.36,-1.05 0.36,-2.04 1.01,-3.99 1.51,-11.63 1.51,-22.83 0,-2.01 1.38,-3 4.12,-3 2.74,0.73 4.55,1.3 5.41,1.69 0.87,0.34 1.32,1.66 1.32,3.92l0 83.44zm-106.27 -80.81l0 -43.8c0,-20.18 -5.49,-35.51 -16.45,-46.01 -5.24,-5.23 -12.97,-9.61 -23.21,-13.09 -10.21,-3.48 -19.44,-5.24 -27.67,-5.24 -10.25,0 -17.48,3.93 -21.7,11.78 -4.24,7.86 -6.37,17.53 -6.37,29.03l0 29.91c0,5.72 0.51,9.49 1.5,11.24 1,1.72 3.99,3.35 8.99,4.85l84.92 21.33z"/>
   <path class="fil2" d="M387.81 1227.72c0,17.72 -7.29,29.7 -21.88,35.92 -14.6,6.23 -31.87,9.35 -51.82,9.35 -12.46,0 -24.19,-1.11 -35.17,-3.38 -10.98,-2.24 -20.33,-6.7 -28.08,-13.44 -7.72,-6.73 -11.58,-16.22 -11.58,-28.45 0,-9.49 2.31,-17.21 6.92,-23.18 4.61,-6 10.6,-10.6 17.96,-13.86 7.36,-3.26 15.21,-5.43 23.56,-6.54 8.37,-1.12 17.16,-1.69 26.39,-1.69 12.47,0 24.07,1.11 34.8,3.35 10.72,2.26 19.89,6.73 27.49,13.5 7.62,6.74 11.42,16.19 11.42,28.42zm-5.6 0c0,-7.98 -4.13,-13.98 -12.35,-17.97 -8.25,-3.99 -17.35,-6.42 -27.33,-7.29 -9.97,-0.86 -20.57,-1.3 -31.79,-1.3 -10.73,0 -20.64,0.44 -29.74,1.3 -9.1,0.87 -17.4,3.29 -24.88,7.29 -7.48,3.99 -11.23,9.99 -11.23,17.97 0,8.24 3.75,14.27 11.23,18.14 7.48,3.86 15.78,6.25 24.88,7.11 9.1,0.9 19.01,1.31 29.74,1.31 7.98,0 15.54,-0.19 22.65,-0.57 7.1,-0.35 14.4,-1.38 21.89,-2.98 7.47,-1.62 13.83,-4.31 19.08,-8.05 5.24,-3.73 7.86,-8.74 7.86,-14.97z"/>
   <path class="fil2" d="M412.62 953.26c-8.99,11.49 -19.4,21.4 -31.25,29.73 -11.84,8.39 -24.44,15.22 -37.78,20.59 -13.35,5.37 -27.31,9.36 -41.91,11.97 -14.59,2.62 -29.24,3.93 -43.96,3.93 -14.98,0 -29.76,-1.31 -44.35,-3.93 -14.6,-2.62 -28.63,-6.61 -42.09,-11.97 -13.47,-5.37 -26.07,-12.26 -37.8,-20.75 -11.72,-8.5 -21.95,-18.36 -30.68,-29.57 -0.5,0 -0.73,-0.48 -0.73,-1.5l0 -2.97c0,-0.51 0.24,-1.02 0.73,-1.53 0.5,-0.48 1.12,-0.73 1.87,-0.73 1.01,0 1.76,0.13 2.24,0.38 9.73,10.22 20.26,18.71 31.61,25.45 11.35,6.73 23.45,12.16 36.29,16.28 12.86,4.12 26.15,7.12 39.85,8.97 13.72,1.88 28.07,2.81 43.04,2.81 65.85,0 115.97,-17.72 150.4,-53.16 0.5,-0.48 1.37,-0.73 2.63,-0.73 0.5,0 1.06,0.25 1.68,0.73 0.62,0.51 0.93,1.02 0.93,1.53l0 2.97c0,1.02 -0.25,1.5 -0.75,1.5z"/>
   <path class="fil2" d="M338.91 829.95l-195.33 63.6c-4.23,1.76 -6.91,4.95 -8.04,9.58 -1.12,4.6 -1.68,10.66 -1.68,18.13l-10.84 0 0 -83.46 10.84 0c0,17.46 2.75,26.21 8.24,26.21l1.48 0 153.43 -49.78 -130.96 -42.28 -22.46 7.1c-4.23,1.53 -6.91,4.62 -8.04,9.39 -1.12,4.72 -1.68,10.85 -1.68,18.33l-10.84 0 0 -83.43 10.84 0c0,17.68 2.75,26.53 8.24,26.53 0.24,0 0.68,-0.13 1.31,-0.35 0.62,-0.25 1.06,-0.38 1.29,-0.38l152.3 -49.39 -144.8 -46.75c-0.52,-0.25 -1.51,-0.38 -3,-0.38 -5.48,0 -9.41,2.87 -11.78,8.59 -2.37,5.75 -3.57,11.84 -3.57,18.35l-10.84 0 0 -66.6 10.84 0c0,16.19 6.12,26.27 18.35,30.27l186.71 60.67c2.24,0.71 3.36,2.34 3.36,4.85l0 2.24c0,2.24 -1.11,3.74 -3.36,4.51l-158.29 51.24 158.29 51.62c2.24,0.77 3.36,2.36 3.36,4.89l0 2.24c0,2.24 -1.11,3.74 -3.36,4.47z"/>
   <path class="fil2" d="M413.37 581.8c0,1.76 -0.88,2.62 -2.62,2.62 -1,0 -1.75,-0.13 -2.25,-0.38 -34.67,-35.67 -84.93,-53.52 -150.78,-53.52 -65.85,0 -115.99,17.59 -150.41,52.75 -0.52,0.77 -1.38,1.15 -2.63,1.15 -0.75,0 -1.38,-0.25 -1.87,-0.76 -0.5,-0.52 -0.73,-1.12 -0.73,-1.86l0 -3c0,-0.51 0.24,-1.02 0.73,-1.49 11.74,-14.98 26.02,-27.37 42.85,-37.23 16.83,-9.87 34.74,-17.08 53.69,-21.71 18.96,-4.6 38.43,-6.92 58.39,-6.92 14.72,0 29.17,1.24 43.39,3.77 14.22,2.49 28.25,6.42 42.09,11.78 13.85,5.36 26.63,12.19 38.37,20.59 11.71,8.34 22.07,18.24 31.05,29.73 0.5,0.47 0.75,0.99 0.75,1.49l0 3z"/>
   <polygon class="fil0" points="1173.38,3520.12 15828.57,3520.12 15828.57,2179.13 1173.38,2179.13 "/>
   <line class="fil1 str0" x1="1173.38" y1="3520.12" x2="1173.38" y2= "2179.13" />
   <line class="fil1 str0" x1="3267" y1="3520.12" x2="3267" y2= "2179.13" />
   <line class="fil1 str0" x1="5360.58" y1="3520.12" x2="5360.58" y2= "2179.13" />
   <line class="fil1 str0" x1="7454.17" y1="3520.12" x2="7454.17" y2= "2179.13" />
   <line class="fil1 str0" x1="9547.79" y1="3520.12" x2="9547.79" y2= "2179.13" />
   <line class="fil1 str0" x1="11641.37" y1="3520.12" x2="11641.37" y2= "2179.13" />
   <line class="fil1 str0" x1="13734.95" y1="3520.12" x2="13734.95" y2= "2179.13" />
   <line class="fil1 str0" x1="15828.57" y1="3520.12" x2="15828.57" y2= "2179.13" />
   <line class="fil1 str0" x1="15828.57" y1="3520.12" x2="1173.38" y2= "3520.12" />
   <line class="fil1 str0" x1="15828.57" y1="2849.62" x2="1173.38" y2= "2849.62" />
   <line class="fil1 str0" x1="15828.57" y1="2179.13" x2="1173.38" y2= "2179.13" />
   <line class="fil1 str1" x1="1173.38" y1="3520.12" x2="15828.57" y2= "3520.12" />
   <line class="fil1 str1" x1="1173.38" y1="3520.12" x2="1173.38" y2= "3373.57" />
   <line class="fil1 str1" x1="3267" y1="3520.12" x2="3267" y2= "3373.57" />
   <line class="fil1 str1" x1="5360.58" y1="3520.12" x2="5360.58" y2= "3373.57" />
   <line class="fil1 str1" x1="7454.17" y1="3520.12" x2="7454.17" y2= "3373.57" />
   <line class="fil1 str1" x1="9547.79" y1="3520.12" x2="9547.79" y2= "3373.57" />
   <line class="fil1 str1" x1="11641.37" y1="3520.12" x2="11641.37" y2= "3373.57" />
   <line class="fil1 str1" x1="13734.95" y1="3520.12" x2="13734.95" y2= "3373.57" />
   <line class="fil1 str1" x1="15828.57" y1="3520.12" x2="15828.57" y2= "3373.57" />
   <path class="fil2" d="M1173.38 3857.26c-23.44,0 -39.41,-9.64 -47.89,-28.99 -8.48,-19.31 -12.73,-42.34 -12.73,-69.03 0,-16.7 1.49,-32.37 4.49,-46.97 3,-14.59 9.04,-27.07 18.15,-37.42 9.1,-10.34 21.77,-15.52 37.98,-15.52 12.73,0 23.08,3.13 31.06,9.36 7.98,6.23 14.09,14.21 18.35,23.95 4.23,9.74 7.1,20.21 8.59,31.41 1.51,11.24 2.26,22.96 2.26,35.19 0,16.47 -1.51,31.87 -4.51,46.2 -3,14.36 -8.91,26.56 -17.77,36.68 -8.86,10.09 -21.52,15.13 -37.99,15.13zm0 -7.47c10.72,0 18.71,-5.49 23.95,-16.48 5.24,-10.95 8.48,-23.08 9.73,-36.27 1.24,-13.22 1.86,-27.33 1.86,-42.31 0,-14.46 -0.62,-27.8 -1.86,-40.03 -1.25,-12.24 -4.49,-23.25 -9.73,-33.12 -5.24,-9.87 -13.22,-14.78 -23.95,-14.78 -10.72,0 -18.71,4.98 -23.95,14.97 -5.23,9.96 -8.47,21.02 -9.72,33.12 -1.24,12.1 -1.86,25.38 -1.86,39.84 0,10.51 0.25,20.47 0.74,29.95 0.5,9.46 1.86,19.26 4.11,29.38 2.24,10.09 5.86,18.58 10.85,25.41 5,6.87 11.6,10.32 19.83,10.32z"/>
   <path class="fil2" d="M3209.37 3850.9l0 -7.86c0,-0.51 0.25,-0.99 0.73,-1.5l44.51 -49.39c6.73,-7.21 12.26,-13.35 16.47,-18.33 4.28,-4.98 8.44,-10.72 12.55,-17.21 4.08,-6.49 7.34,-13.06 9.74,-19.68 2.36,-6.61 3.54,-13.63 3.54,-21.13 0,-7.98 -1.43,-15.51 -4.31,-22.64 -2.87,-7.09 -7.15,-12.83 -12.9,-17.21 -5.75,-4.34 -12.74,-6.51 -20.98,-6.51 -8.21,0 -15.71,2.55 -22.41,7.63 -6.74,5.14 -11.49,11.56 -14.25,19.29 0.77,0 1.88,0 3.38,0 4.24,0 7.86,1.43 10.86,4.31 2.97,2.87 4.46,6.54 4.46,11.01 0,4.5 -1.49,8.27 -4.46,11.24 -3,3 -6.62,4.5 -10.86,4.5 -4.5,0 -8.3,-1.57 -11.43,-4.69 -3.1,-3.13 -4.66,-6.81 -4.66,-11.05 0,-7.21 1.38,-13.96 4.12,-20.18 2.72,-6.22 6.64,-11.84 11.78,-16.83 5.1,-5.01 10.85,-8.81 17.21,-11.43 6.35,-2.62 13.16,-3.93 20.41,-3.93 10.95,0 21.2,2.36 30.65,7.12 9.49,4.72 16.99,11.27 22.48,19.64 5.49,8.36 8.24,18.26 8.24,29.72 0,8.24 -1.82,16.13 -5.43,23.59 -3.64,7.48 -8.3,14.27 -14.05,20.37 -5.75,6.13 -13.02,13.09 -21.87,20.94 -8.88,7.88 -14.69,13.06 -17.44,15.55l-32.53 31.41 27.32 0c13.7,0 25.1,-0.09 34.2,-0.34 9.13,-0.26 13.92,-0.64 14.43,-1.12 2.24,-2.53 4.63,-11.37 7.12,-26.6l8.24 0 -8.24 51.28 -106.64 0z"/>
   <path class="fil2" d="M5296.59 3803.4l0 -10.13 89.05 -132.44c0.51,-1.02 1.5,-1.5 3,-1.5l4.12 0c2.24,0 3.35,1.12 3.35,3.38l0 130.56 28.07 0 0 10.13 -28.07 0 0 28.41c0,3.74 2.81,6.16 8.43,7.31 5.62,1.12 12.04,1.67 19.26,1.67l0 10.12 -78.93 0 0 -10.12c7.21,0 13.67,-0.54 19.25,-1.67 5.62,-1.15 8.44,-3.57 8.44,-7.31l0 -28.41 -75.96 0zm9.7 -10.13l68.11 0 0 -101.76 -68.11 101.76z"/>
   <path class="fil2" d="M7454.17 3857.26c-11.97,0 -21.88,-3.16 -29.73,-9.55 -7.86,-6.35 -13.98,-14.53 -18.35,-24.48 -4.34,-10 -7.41,-20.54 -9.17,-31.65 -1.76,-11.08 -2.62,-22.25 -2.62,-33.46 0,-15.22 3,-30.43 9.01,-45.65 5.97,-15.21 14.65,-27.88 25.98,-37.97 11.37,-10.12 24.88,-15.17 40.58,-15.17 6.74,0 12.93,1.25 18.55,3.74 5.58,2.49 10.03,6.16 13.25,11.05 3.26,4.85 4.89,10.66 4.89,17.4 0,3.99 -1.31,7.29 -3.93,9.94 -2.62,2.62 -5.94,3.92 -9.93,3.92 -3.74,0 -7,-1.3 -9.74,-3.92 -2.75,-2.65 -4.09,-5.95 -4.09,-9.94 0,-3.77 1.34,-6.92 4.09,-9.54 2.74,-2.62 6,-3.93 9.74,-3.93l1.49 0c-2.49,-3.51 -5.9,-6.07 -10.27,-7.67 -4.38,-1.63 -9.04,-2.46 -14.06,-2.46 -5.71,0 -11.01,1.25 -15.9,3.77 -4.85,2.49 -9.29,5.84 -13.28,10.08 -3.99,4.25 -7.28,8.98 -9.9,14.21 -2.62,5.24 -4.62,11.18 -6,17.78 -1.38,6.62 -2.24,12.83 -2.62,18.72 -0.35,5.87 -0.54,13.15 -0.54,21.9 3.22,-7.98 7.98,-14.46 14.21,-19.48 6.23,-4.99 13.21,-7.48 20.94,-7.48 8.49,0 16.22,1.76 23.21,5.24 6.99,3.48 13.02,8.26 18.13,14.4 5.11,6.13 8.98,13.09 11.59,20.94 2.62,7.86 3.93,15.78 3.93,23.76 0,11.23 -2.49,21.97 -7.48,32.18 -4.98,10.25 -12.04,18.35 -21.13,24.33 -9.1,6 -19.38,8.97 -30.87,8.97zm0 -9.36c7.5,0 13.47,-1.66 17.97,-5.04 4.47,-3.38 7.79,-7.79 9.89,-13.28 2.14,-5.49 3.45,-11.09 3.93,-16.86 0.52,-5.72 0.77,-12.71 0.77,-20.94 0,-10.73 -0.58,-19.96 -1.69,-27.69 -1.11,-7.73 -3.93,-14.46 -8.4,-20.21 -4.5,-5.71 -11.49,-8.59 -20.94,-8.59 -7.76,0 -14.11,2.62 -19.1,7.86 -5.01,5.23 -8.68,11.85 -11.04,19.83 -2.4,7.98 -3.57,15.58 -3.57,22.83 0,2.49 0.13,4.47 0.38,5.97 0,0.25 0,0.44 0,0.57 0,0.13 -0.13,0.32 -0.38,0.54 0,8.27 0.89,16.61 2.64,25.1 1.73,8.46 4.99,15.59 9.71,21.33 4.76,5.75 11.37,8.58 19.83,8.58z"/>
   <path class="fil2" d="M9487.92 3807.13c0,-11.47 3.8,-21.65 11.4,-30.5 7.6,-8.84 17.4,-16.16 29.37,-21.9l-10.85 -7.11c-6.48,-4.22 -11.78,-9.9 -15.9,-16.99 -4.12,-7.12 -6.16,-14.69 -6.16,-22.67 0,-9.22 2.43,-17.53 7.31,-24.87 4.85,-7.38 11.24,-13.15 19.22,-17.4 7.98,-4.21 16.47,-6.35 25.48,-6.35 8.46,0 16.7,1.76 24.68,5.24 7.98,3.48 14.46,8.46 19.48,14.98 4.98,6.48 7.47,14.2 7.47,23.18 0,6.23 -1.49,12.16 -4.46,17.78 -3.04,5.62 -7.16,10.6 -12.39,14.97 -5.24,4.37 -10.82,8.05 -16.83,11.05l16.47 10.44c7.48,5.01 13.54,11.56 18.14,19.67 4.62,8.08 6.92,16.51 6.92,25.26 0,10.47 -2.81,19.96 -8.39,28.45 -5.66,8.46 -13,15.07 -22.1,19.83 -9.1,4.72 -18.77,7.09 -28.99,7.09 -9.99,0 -19.6,-1.98 -28.8,-5.97 -9.23,-3.99 -16.73,-9.87 -22.48,-17.59 -5.75,-7.73 -8.59,-16.57 -8.59,-26.56zm15.71 0c0,7.72 2.05,14.72 6.16,20.94 4.12,6.23 9.61,11.11 16.47,14.59 6.87,3.48 14.02,5.23 21.52,5.23 11.2,0 21.33,-3.22 30.3,-9.7 8.97,-6.52 13.48,-15.11 13.48,-25.83 0,-3.48 -0.71,-7.06 -2.08,-10.66 -1.37,-3.61 -3.35,-6.93 -5.96,-9.93 -2.62,-2.97 -5.56,-5.33 -8.82,-7.1l-38.51 -25.09c-6,3.25 -11.49,7.31 -16.47,12.16 -4.98,4.88 -8.91,10.31 -11.78,16.28 -2.87,6 -4.31,12.35 -4.31,19.1zm19.83 -87.56l34.8 22.45c7.98,-4.75 14.53,-10.44 19.64,-17.04 5.1,-6.62 7.66,-14.02 7.66,-22.26 0,-6.48 -1.78,-12.43 -5.39,-17.78 -3.64,-5.33 -8.3,-9.52 -14.05,-12.52 -5.75,-3 -11.97,-4.51 -18.71,-4.51 -5.75,0 -11.53,1.12 -17.4,3.38 -5.84,2.24 -10.72,5.56 -14.59,9.9 -3.86,4.37 -5.81,9.55 -5.81,15.55 0,8.97 4.62,16.6 13.86,22.83z"/>
   <path class="fil2" d="M11524.26 3850.9l0 -10.12c23.95,0 35.92,-2.97 35.92,-8.98l0 -151.15c-9.74,4.98 -22.19,7.47 -37.39,7.47l0 -10.08c23.43,0 41.15,-6.26 53.13,-18.72l4.09 0c0.51,0 1.09,0.33 1.69,0.93 0.63,0.63 0.95,1.18 0.95,1.69l0 169.85c0,6.01 11.97,8.98 35.92,8.98l0 10.12 -94.32 0z"/>
   <path class="fil2" d="M11713.21 3857.26c-23.43,0 -39.4,-9.64 -47.89,-28.99 -8.46,-19.31 -12.71,-42.34 -12.71,-69.03 0,-16.7 1.47,-32.37 4.47,-46.97 3,-14.59 9.07,-27.07 18.16,-37.42 9.1,-10.34 21.74,-15.52 37.96,-15.52 12.72,0 23.09,3.13 31.07,9.36 7.98,6.23 14.08,14.21 18.33,23.95 4.24,9.74 7.12,20.21 8.62,31.41 1.5,11.24 2.24,22.96 2.24,35.19 0,16.47 -1.49,31.87 -4.5,46.2 -2.97,14.36 -8.91,26.56 -17.78,36.68 -8.84,10.09 -21.49,15.13 -37.97,15.13zm0 -7.47c10.73,0 18.72,-5.49 23.95,-16.48 5.24,-10.95 8.5,-23.08 9.74,-36.27 1.25,-13.22 1.86,-27.33 1.86,-42.31 0,-14.46 -0.61,-27.8 -1.86,-40.03 -1.24,-12.24 -4.5,-23.25 -9.74,-33.12 -5.23,-9.87 -13.21,-14.78 -23.95,-14.78 -10.72,0 -18.71,4.98 -23.94,14.97 -5.24,9.96 -8.46,21.02 -9.71,33.12 -1.24,12.1 -1.88,25.38 -1.88,39.84 0,10.51 0.25,20.47 0.77,29.95 0.48,9.46 1.85,19.26 4.08,29.38 2.24,10.09 5.87,18.58 10.86,25.41 4.98,6.87 11.58,10.32 19.82,10.32z"/>
   <path class="fil2" d="M13617.84 3850.9l0 -10.12c23.95,0 35.92,-2.97 35.92,-8.98l0 -151.15c-9.71,4.98 -22.19,7.47 -37.39,7.47l0 -10.08c23.43,0 41.15,-6.26 53.13,-18.72l4.09 0c0.51,0 1.08,0.33 1.68,0.93 0.64,0.63 0.96,1.18 0.96,1.69l0 169.85c0,6.01 11.97,8.98 35.92,8.98l0 10.12 -94.32 0z"/>
   <path class="fil2" d="M13749.19 3850.9l0 -7.86c0,-0.51 0.26,-0.99 0.73,-1.5l44.51 -49.39c6.77,-7.21 12.26,-13.35 16.47,-18.33 4.28,-4.98 8.44,-10.72 12.55,-17.21 4.12,-6.49 7.34,-13.06 9.74,-19.68 2.36,-6.61 3.54,-13.63 3.54,-21.13 0,-7.98 -1.43,-15.51 -4.31,-22.64 -2.87,-7.09 -7.15,-12.83 -12.9,-17.21 -5.75,-4.34 -12.71,-6.51 -20.94,-6.51 -8.24,0 -15.71,2.55 -22.45,7.63 -6.74,5.14 -11.49,11.56 -14.25,19.29 0.77,0 1.88,0 3.38,0 4.24,0 7.86,1.43 10.86,4.31 2.97,2.87 4.47,6.54 4.47,11.01 0,4.5 -1.5,8.27 -4.47,11.24 -3,3 -6.62,4.5 -10.86,4.5 -4.5,0 -8.3,-1.57 -11.43,-4.69 -3.1,-3.13 -4.66,-6.81 -4.66,-11.05 0,-7.21 1.38,-13.96 4.12,-20.18 2.75,-6.22 6.68,-11.84 11.78,-16.83 5.11,-5.01 10.86,-8.81 17.21,-11.43 6.35,-2.62 13.15,-3.93 20.4,-3.93 10.98,0 21.2,2.36 30.65,7.12 9.48,4.72 16.98,11.27 22.47,19.64 5.49,8.36 8.24,18.26 8.24,29.72 0,8.24 -1.82,16.13 -5.42,23.59 -3.61,7.48 -8.31,14.27 -14.06,20.37 -5.75,6.13 -13.02,13.09 -21.87,20.94 -8.88,7.88 -14.65,13.06 -17.4,15.55l-32.56 31.41 27.33 0c13.69,0 25.12,-0.09 34.19,-0.34 9.13,-0.26 13.92,-0.64 14.43,-1.12 2.27,-2.53 4.63,-11.37 7.12,-26.6l8.24 0 -8.24 51.28 -106.64 0z"/>
   <path class="fil2" d="M15711.46 3850.9l0 -10.12c23.95,0 35.92,-2.97 35.92,-8.98l0 -151.15c-9.74,4.98 -22.19,7.47 -37.42,7.47l0 -10.08c23.47,0 41.18,-6.26 53.15,-18.72l4.09 0c0.51,0 1.05,0.33 1.69,0.93 0.61,0.63 0.92,1.18 0.92,1.69l0 169.85c0,6.01 11.97,8.98 35.92,8.98l0 10.12 -94.29 0z"/>
   <path class="fil2" d="M15836.43 3803.4l0 -10.13 89.05 -132.44c0.52,-1.02 1.5,-1.5 3,-1.5l4.12 0c2.24,0 3.35,1.12 3.35,3.38l0 130.56 28.07 0 0 10.13 -28.07 0 0 28.41c0,3.74 2.81,6.16 8.44,7.31 5.61,1.12 12.04,1.67 19.28,1.67l0 10.12 -78.96 0 0 -10.12c7.21,0 13.67,-0.54 19.25,-1.67 5.62,-1.15 8.44,-3.57 8.44,-7.31l0 -28.41 -75.96 0zm9.71 -10.13l68.13 0 0 -101.76 -68.13 101.76z"/>
   <line class="fil1 str1" x1="1173.38" y1="3520.12" x2="1173.38" y2= "2179.13" />
   <line class="fil1 str1" x1="1173.38" y1="3520.12" x2="1319.92" y2= "3520.12" />
   <line class="fil1 str1" x1="1173.38" y1="2849.62" x2="1319.92" y2= "2849.62" />
   <line class="fil1 str1" x1="1173.38" y1="2179.13" x2="1319.92" y2= "2179.13" />
   <path class="fil2" d="M743.36 3589.09l0 -10.12c23.95,0 35.92,-2.97 35.92,-8.97l0 -151.15c-9.73,4.99 -22.2,7.48 -37.42,7.48l0 -10.09c23.44,0 41.15,-6.26 53.13,-18.71l4.13 0c0.49,0 1.05,0.32 1.67,0.92 0.62,0.64 0.93,1.18 0.93,1.69l0 169.86c0,6 11.97,8.97 35.92,8.97l0 10.12 -94.28 0z"/>
   <path class="fil2" d="M884.79 3573.38c0,-4.51 1.57,-8.25 4.7,-11.24 3.11,-3 6.79,-4.51 11.04,-4.51 2.5,0 5.04,0.71 7.66,2.08 2.62,1.37 4.62,3.29 5.98,5.81 1.38,2.49 2.06,5.1 2.06,7.86 0,3.99 -1.56,7.59 -4.69,10.85 -3.12,3.22 -6.79,4.85 -11.01,4.85 -4.25,0 -7.93,-1.63 -11.04,-4.85 -3.13,-3.26 -4.7,-6.86 -4.7,-10.85z"/>
   <path class="fil2" d="M972.84 3577.11c5.24,6.01 14.35,8.98 27.32,8.98 7.24,0 14.04,-2.43 20.41,-7.31 6.34,-4.82 11.27,-10.89 14.76,-18.14 3.99,-8.24 6.55,-16.95 7.67,-26.18 1.1,-9.22 1.67,-20.56 1.67,-34.03 -3.24,7.72 -7.96,14.01 -14.19,18.9 -6.24,4.85 -13.23,7.28 -20.95,7.28 -11.24,0 -21.21,-3 -29.93,-8.97 -8.73,-6 -15.48,-13.92 -20.22,-23.79 -4.74,-9.84 -7.11,-20.37 -7.11,-31.61 0,-11.46 2.62,-22.18 7.86,-32.18 5.24,-9.96 12.54,-17.87 21.88,-23.75 9.36,-5.85 19.89,-8.78 31.6,-8.78 11.48,0 21.14,3.16 29,9.54 7.87,6.35 13.86,14.54 17.96,24.53 4.12,9.96 7,20.5 8.63,31.58 1.62,11.11 2.42,22.16 2.42,33.14 0,14.72 -2.68,29.75 -8.05,45.08 -5.36,15.32 -13.47,28.19 -24.31,38.54 -10.84,10.34 -23.88,15.51 -39.1,15.51 -11.48,0 -21.14,-2.68 -29,-8.05 -7.86,-5.36 -11.78,-13.4 -11.78,-24.1 0,-3.99 1.37,-7.31 4.12,-9.93 2.75,-2.62 6.12,-3.93 10.11,-3.93 3.73,0 6.91,1.3 9.53,3.93 2.62,2.62 3.93,5.94 3.93,9.93 0,3.7 -1.31,6.96 -3.93,9.7 -2.62,2.75 -5.8,4.12 -9.53,4.12l-0.77 0zm37.79 -58.01c7.75,0 14.11,-2.62 19.09,-7.82 5,-5.23 8.62,-11.78 10.84,-19.67 2.26,-7.86 3.38,-15.65 3.38,-23.37l0 -6.74c0,-14.46 -2.12,-27.3 -6.37,-38.54 -4.23,-11.23 -12.21,-16.85 -23.95,-16.85 -7.72,0 -13.89,1.63 -18.51,4.88 -4.62,3.26 -8.05,7.6 -10.3,13.1 -2.24,5.49 -3.66,11.43 -4.28,17.78 -0.62,6.35 -0.93,13.15 -0.93,20.36 0,10.99 0.49,20.28 1.48,27.88 1,7.63 3.82,14.37 8.43,20.21 4.62,5.87 11.66,8.78 21.12,8.78z"/>
   <path class="fil2" d="M954.51 2918.59l0 -7.86c0,-0.51 0.25,-0.99 0.75,-1.5l44.51 -49.39c6.73,-7.21 12.24,-13.35 16.48,-18.33 4.23,-4.98 8.41,-10.72 12.52,-17.21 4.14,-6.48 7.38,-13.05 9.76,-19.67 2.35,-6.61 3.54,-13.63 3.54,-21.13 0,-7.98 -1.43,-15.52 -4.32,-22.64 -2.85,-7.09 -7.16,-12.83 -12.89,-17.21 -5.74,-4.34 -12.73,-6.51 -20.95,-6.51 -8.24,0 -15.7,2.55 -22.45,7.63 -6.73,5.14 -11.48,11.56 -14.22,19.29 0.75,0 1.87,0 3.38,0 4.23,0 7.84,1.43 10.83,4.31 3,2.87 4.49,6.54 4.49,11.01 0,4.5 -1.49,8.27 -4.49,11.24 -3,3 -6.61,4.5 -10.83,4.5 -4.51,0 -8.32,-1.57 -11.43,-4.7 -3.11,-3.12 -4.68,-6.8 -4.68,-11.04 0,-7.21 1.39,-13.96 4.14,-20.18 2.73,-6.23 6.64,-11.84 11.77,-16.83 5.1,-5.01 10.84,-8.81 17.22,-11.43 6.34,-2.62 13.14,-3.93 20.37,-3.93 10.98,0 21.21,2.36 30.67,7.12 9.49,4.72 16.97,11.27 22.46,19.64 5.49,8.36 8.25,18.26 8.25,29.72 0,8.24 -1.83,16.12 -5.44,23.59 -3.63,7.47 -8.31,14.27 -14.03,20.37 -5.74,6.13 -13.04,13.09 -21.89,20.94 -8.87,7.88 -14.66,13.06 -17.41,15.55l-32.54 31.41 27.31 0c13.72,0 25.13,-0.09 34.22,-0.35 9.12,-0.25 13.92,-0.63 14.42,-1.11 2.24,-2.53 4.62,-11.37 7.11,-26.6l8.25 0 -8.25 51.28 -106.64 0z"/>
   <path class="fil2" d="M731.01 2248.09l0 -7.86c0,-0.52 0.26,-1 0.77,-1.5l44.51 -49.39c6.73,-7.22 12.23,-13.35 16.45,-18.33 4.24,-4.99 8.44,-10.73 12.54,-17.21 4.12,-6.48 7.36,-13.06 9.73,-19.67 2.37,-6.61 3.57,-13.63 3.57,-21.13 0,-7.98 -1.44,-15.52 -4.32,-22.61 -2.86,-7.12 -7.17,-12.87 -12.91,-17.24 -5.75,-4.34 -12.73,-6.52 -20.95,-6.52 -8.23,0 -15.73,2.56 -22.46,7.63 -6.73,5.14 -11.46,11.56 -14.19,19.29 0.73,0 1.85,0 3.34,0 4.25,0 7.87,1.44 10.85,4.31 3,2.88 4.51,6.55 4.51,11.02 0,4.5 -1.5,8.26 -4.51,11.23 -2.98,3 -6.6,4.51 -10.85,4.51 -4.47,0 -8.27,-1.57 -11.39,-4.7 -3.13,-3.13 -4.7,-6.8 -4.7,-11.04 0,-7.22 1.37,-13.96 4.11,-20.18 2.76,-6.23 6.68,-11.85 11.79,-16.83 5.12,-5.01 10.86,-8.82 17.22,-11.43 6.35,-2.62 13.17,-3.93 20.39,-3.93 10.97,0 21.21,2.36 30.68,7.12 9.48,4.72 16.96,11.27 22.44,19.63 5.48,8.37 8.24,18.26 8.24,29.73 0,8.24 -1.8,16.12 -5.4,23.59 -3.63,7.47 -8.31,14.27 -14.05,20.36 -5.74,6.14 -13.03,13.1 -21.88,20.95 -8.87,7.88 -14.66,13.05 -17.41,15.55l-32.55 31.41 27.3 0c13.73,0 25.14,-0.1 34.25,-0.35 9.1,-0.25 13.91,-0.63 14.42,-1.11 2.24,-2.53 4.59,-11.37 7.09,-26.6l8.24 0 -8.24 51.28 -106.63 0z"/>
   <path class="fil2" d="M884.79 2232.38c0,-4.5 1.57,-8.24 4.7,-11.24 3.11,-3 6.79,-4.5 11.04,-4.5 2.5,0 5.04,0.7 7.66,2.07 2.62,1.38 4.62,3.29 5.98,5.81 1.38,2.49 2.06,5.11 2.06,7.86 0,3.99 -1.56,7.6 -4.69,10.85 -3.12,3.23 -6.79,4.86 -11.01,4.86 -4.25,0 -7.93,-1.63 -11.04,-4.86 -3.13,-3.25 -4.7,-6.86 -4.7,-10.85z"/>
   <path class="fil2" d="M966.85 2248.09l0 -10.13c23.95,0 35.92,-2.97 35.92,-8.97l0 -151.15c-9.71,4.98 -22.18,7.47 -37.4,7.47l0 -10.09c23.45,0 41.16,-6.25 53.14,-18.71l4.09 0c0.52,0 1.08,0.32 1.7,0.92 0.62,0.64 0.93,1.19 0.93,1.69l0 169.86c0,6 11.97,8.97 35.92,8.97l0 10.13 -94.31 0z"/>
   <polyline class="fil1 str2" points="1173.38,2849.62 1435.09,2916.67 4837.17,2916.67 5098.89,2983.73 5360.58,2916.67 5622.26,2916.67 5883.99,2983.73 6145.67,2916.67 14520.08,2916.67 "/>
   <path class="fil2" d="M335.54 3114.37c0,1.98 -1.38,3 -4.13,3 -0.49,0 -1.37,-0.19 -2.61,-0.58 -1.25,-0.38 -2.24,-0.8 -3,-1.3 -0.75,-0.52 -1.12,-1.15 -1.12,-1.88 0,-12.71 -0.75,-21.56 -2.26,-26.56 -0.98,-2.75 -3.72,-4.73 -8.23,-5.97l-170.98 -42.66c-2,-0.48 -3.49,-0.73 -4.51,-0.73 -2.24,0 -3.48,1.24 -3.73,3.73 -0.76,3.99 -1.13,11.47 -1.13,22.42 0,2.01 -1.38,3 -4.12,3 -2.74,-0.73 -4.55,-1.3 -5.41,-1.66 -0.88,-0.38 -1.31,-1.57 -1.31,-3.55l0 -83.46c0,-2.24 1.38,-3.36 4.12,-3.36 0.5,0 1.29,0.2 2.42,0.54 1.14,0.39 2.14,0.81 3,1.31 0.87,0.51 1.31,1.25 1.31,2.24 0,12.74 0.76,21.59 2.25,26.6 0.99,2.74 3.73,4.72 8.24,5.96l101 25.07 -94.27 -121.98c-0.5,-0.25 -1.94,-1.56 -4.32,-3.92 -2.36,-2.4 -4.67,-3.58 -6.92,-3.58 -3.99,0 -5.98,3.52 -5.98,10.51 0,1.98 -1.38,2.97 -4.12,2.97 -1.74,-0.25 -3.04,-0.48 -3.93,-0.73 -0.88,-0.25 -1.56,-0.73 -2.06,-1.5 -0.5,-0.76 -0.73,-1.76 -0.73,-3l0 -60.22c0,-1.24 0.37,-2.14 1.12,-2.65 0.75,-0.47 1.75,-0.73 3,-0.73 0.5,0.26 1.36,0.58 2.61,0.96 1.25,0.35 2.24,0.8 3,1.31 0.74,0.48 1.12,1.24 1.12,2.2 0,15.23 6.98,31.83 20.95,49.81 0.26,0.22 0.38,0.41 0.38,0.53 0,0.14 0.06,0.33 0.19,0.54 0.11,0.26 0.17,0.39 0.17,0.39l49.77 64.37 109.27 -46.77c4.74,-2.75 7.6,-5.75 8.59,-9.01 1.01,-3.23 1.51,-8.21 1.51,-14.94 0,-2.24 1.38,-3.36 4.12,-3.36 2.23,0.73 3.91,1.44 5.05,2.05 1.12,0.64 1.68,1.82 1.68,3.55l0 72.22c0,1.76 -1.38,2.62 -4.13,2.62 -2.24,-0.25 -3.93,-0.54 -5.05,-0.92 -1.11,-0.39 -1.67,-1.44 -1.67,-3.19 0,-5.24 -0.56,-9.65 -1.68,-13.25 -1.12,-3.64 -3.57,-5.47 -7.29,-5.47 -1.5,0 -2.63,0 -3.38,0l-89.8 38.93 35.19 45.27 57.61 14.21c2.5,0.52 3.99,0.77 4.51,0.77 1.99,0 3.11,-1.25 3.35,-3.77 1.01,-3.99 1.51,-11.46 1.51,-22.45 0,-1.97 1.38,-2.97 4.12,-2.97 2.74,0.73 4.55,1.31 5.41,1.67 0.87,0.38 1.32,1.57 1.32,3.57l0 83.81z"/>
   <path class="fil2" d="M424.85 2865.75c0,1.49 -1,2.23 -3,2.23 -2.99,-0.51 -4.5,-1.49 -4.5,-2.97 0,-4.5 -0.43,-7.63 -1.29,-9.39 -0.89,-1.72 -2.94,-3.1 -6.19,-4.12l-96.9 -24.3c-2.74,-1.01 -6.24,-1.49 -10.46,-1.49 -6.25,0 -9.37,1.97 -9.37,5.96 0,4.51 2.68,7.86 8.05,10.13 5.36,2.24 12.15,4.37 20.38,6.35 1,0 1.5,0.63 1.5,1.88l0 2.62c0,0.23 -0.24,0.54 -0.73,0.92 -0.52,0.39 -1.02,0.58 -1.51,0.58 -6.22,-1.5 -11.52,-2.94 -15.9,-4.31 -4.36,-1.38 -8.35,-3.64 -11.97,-6.74 -3.6,-3.12 -5.41,-6.92 -5.41,-11.43 0,-4.98 1.42,-9.35 4.29,-13.09 2.87,-3.74 6.67,-6.1 11.41,-7.12 -4.48,-3.99 -8.22,-8.36 -11.22,-13.09 -2.98,-4.72 -4.48,-9.58 -4.48,-14.59 0,-5.97 1.62,-11.21 4.87,-15.71 3.24,-4.47 7.47,-7.86 12.71,-10.09 5.24,-2.26 10.85,-3.38 16.83,-3.38 9.49,0 19.14,2.36 29,7.12 9.86,4.72 18.03,11.14 24.5,19.25 6.5,8.11 9.75,16.8 9.75,26.02 0,4.25 -1.19,8.02 -3.57,11.4 -2.37,3.35 -5.42,6.04 -9.18,8.05l38.18 9.74c2.24,0.25 3.49,0.51 3.73,0.73 1.99,0 3,-4.72 3,-14.21 0,-1.5 0.89,-2.26 2.63,-2.26 1.99,0.51 3.3,0.89 3.93,1.15 0.62,0.25 0.93,1.11 0.93,2.62l0 41.54zm-45.29 -58.76c0,-4.98 -2.05,-9.68 -6.17,-14.05 -4.1,-4.37 -8.65,-7.79 -13.64,-10.28 -3.99,-1.97 -8.73,-3.86 -14.24,-5.62 -5.48,-1.72 -11.39,-3.25 -17.76,-4.5 -6.36,-1.21 -11.41,-1.86 -15.17,-1.86 -3.24,0 -6.28,0.45 -9.14,1.31 -2.88,0.9 -5.31,2.33 -7.3,4.31 -2,2.01 -3,4.63 -3,7.86 0,5.24 1.87,10.22 5.6,14.98 3.75,4.75 8.49,8.97 14.23,12.71l0.73 0 47.55 11.97c4.97,-1 9.28,-2.94 12.91,-5.78 3.6,-2.87 5.39,-6.58 5.39,-11.05z"/>
   <path class="fil2" d="M358.61 2725.99c-3.23,0 -6.79,-0.38 -10.65,-1.11 -3.86,-0.77 -7.03,-1.53 -9.52,-2.27 -2.51,-0.76 -7.38,-2.49 -14.61,-5.23 -7.23,-2.74 -10.98,-4.12 -11.24,-4.12 -5.24,-2.01 -9.47,-3 -12.71,-3 -4.49,0 -6.73,1.63 -6.73,4.85 0,5.75 2.93,10.44 8.79,14.06 5.86,3.6 12.4,6.29 19.64,8.05 1,0.25 1.5,0.86 1.5,1.85l0 2.65c0,1.25 -0.62,1.86 -1.86,1.86l-0.74 0c-8.49,-2.49 -16.11,-6.1 -22.84,-10.86 -6.72,-4.72 -10.08,-10.72 -10.08,-17.94 0,-5.24 1.67,-9.61 5.03,-13.1 3.37,-3.51 7.67,-5.23 12.93,-5.23 2.72,0 5.59,0.61 8.59,1.85 7.23,2.75 13.03,4.92 17.39,6.58 4.38,1.59 9.3,3.1 14.81,4.47 5.48,1.38 10.46,2.05 14.97,2.05 5.47,0 9.88,-1.25 13.25,-3.74 3.37,-2.49 5.05,-6.35 5.05,-11.59 0,-9.96 -7.59,-18.96 -22.81,-26.94 -4.99,-2.49 -10.84,-4.85 -17.59,-7.09 -6.73,-2.27 -12.23,-3.38 -16.48,-3.38 -4.47,0 -7.9,0.67 -10.26,2.05 -2.38,1.37 -4.87,3.19 -7.49,5.46 -2.62,2.24 -4.68,3.35 -6.18,3.35 -2.99,0 -5.6,-1.18 -7.85,-3.54 -2.24,-2.4 -3.36,-4.95 -3.36,-7.7 0,-3.48 1.56,-5.96 4.67,-7.47 3.11,-1.5 6.67,-2.24 10.66,-2.24 4.73,0 10.41,0.67 17.02,2.05 6.61,1.38 13.47,3.26 20.56,5.62 7.12,2.36 12.67,4.66 16.66,6.92 18.73,9.45 28.08,20.44 28.08,32.92 0,9.23 -2.25,16.54 -6.76,21.9 -4.47,5.37 -11.09,8.05 -19.83,8.05z"/>
   <polygon class="fil0" points="1173.38,5435.83 15828.57,5435.83 15828.57,4070.89 1173.38,4070.89 "/>
   <line class="fil1 str0" x1="1173.38" y1="5435.83" x2="1173.38" y2= "4070.89" />
   <line class="fil1 str0" x1="3267" y1="5435.83" x2="3267" y2= "4070.89" />
   <line class="fil1 str0" x1="5360.58" y1="5435.83" x2="5360.58" y2= "4070.89" />
   <line class="fil1 str0" x1="7454.17" y1="5435.83" x2="7454.17" y2= "4070.89" />
   <line class="fil1 str0" x1="9547.79" y1="5435.83" x2="9547.79" y2= "4070.89" />
   <line class="fil1 str0" x1="11641.37" y1="5435.83" x2="11641.37" y2= "4070.89" />
   <line class="fil1 str0" x1="13734.95" y1="5435.83" x2="13734.95" y2= "4070.89" />
   <line class="fil1 str0" x1="15828.57" y1="5435.83" x2="15828.57" y2= "4070.89" />
   <line class="fil1 str0" x1="15828.57" y1="5435.83" x2="1173.38" y2= "5435.83" />
   <line class="fil1 str0" x1="15828.57" y1="4889.85" x2="1173.38" y2= "4889.85" />
   <line class="fil1 str0" x1="15828.57" y1="4343.87" x2="1173.38" y2= "4343.87" />
   <line class="fil1 str1" x1="1173.38" y1="5435.83" x2="15828.57" y2= "5435.83" />
   <line class="fil1 str1" x1="1173.38" y1="5435.83" x2="1173.38" y2= "5289.28" />
   <line class="fil1 str1" x1="3267" y1="5435.83" x2="3267" y2= "5289.28" />
   <line class="fil1 str1" x1="5360.58" y1="5435.83" x2="5360.58" y2= "5289.28" />
   <line class="fil1 str1" x1="7454.17" y1="5435.83" x2="7454.17" y2= "5289.28" />
   <line class="fil1 str1" x1="9547.79" y1="5435.83" x2="9547.79" y2= "5289.28" />
   <line class="fil1 str1" x1="11641.37" y1="5435.83" x2="11641.37" y2= "5289.28" />
   <line class="fil1 str1" x1="13734.95" y1="5435.83" x2="13734.95" y2= "5289.28" />
   <line class="fil1 str1" x1="15828.57" y1="5435.83" x2="15828.57" y2= "5289.28" />
   <path class="fil2" d="M1173.38 5772.97c-23.44,0 -39.41,-9.67 -47.89,-29 -8.48,-19.33 -12.73,-42.34 -12.73,-69.03 0,-16.72 1.49,-32.37 4.49,-46.95 3,-14.6 9.04,-27.08 18.15,-37.43 9.1,-10.35 21.77,-15.51 37.98,-15.51 12.73,0 23.08,3.11 31.06,9.35 7.98,6.24 14.09,14.22 18.35,23.95 4.23,9.73 7.1,20.2 8.59,31.41 1.51,11.23 2.26,22.95 2.26,35.19 0,16.46 -1.51,31.87 -4.51,46.2 -3,14.35 -8.91,26.57 -17.77,36.67 -8.86,10.1 -21.52,15.15 -37.99,15.15zm0 -7.49c10.72,0 18.71,-5.48 23.95,-16.45 5.24,-10.97 8.48,-23.09 9.73,-36.29 1.24,-13.21 1.86,-27.31 1.86,-42.29 0,-14.46 -0.62,-27.81 -1.86,-40.03 -1.25,-12.23 -4.49,-23.25 -9.73,-33.11 -5.24,-9.87 -13.22,-14.79 -23.95,-14.79 -10.72,0 -18.71,4.99 -23.95,14.97 -5.23,9.97 -8.47,21.02 -9.72,33.11 -1.24,12.1 -1.86,25.39 -1.86,39.85 0,10.49 0.25,20.47 0.74,29.93 0.5,9.49 1.86,19.28 4.11,29.39 2.24,10.11 5.86,18.59 10.85,25.43 5,6.86 11.6,10.29 19.83,10.29z"/>
   <path class="fil2" d="M3209.37 5766.61l0 -7.86c0,-0.5 0.25,-1 0.73,-1.51l44.51 -49.37c6.73,-7.24 12.26,-13.35 16.47,-18.35 4.28,-4.98 8.44,-10.72 12.55,-17.21 4.08,-6.49 7.34,-13.03 9.74,-19.64 2.36,-6.62 3.54,-13.66 3.54,-21.14 0,-7.98 -1.43,-15.53 -4.31,-22.64 -2.87,-7.1 -7.15,-12.83 -12.9,-17.21 -5.75,-4.35 -12.74,-6.53 -20.98,-6.53 -8.21,0 -15.71,2.55 -22.41,7.66 -6.74,5.11 -11.49,11.54 -14.25,19.28 0.77,0 1.88,0 3.38,0 4.24,0 7.86,1.44 10.86,4.31 2.97,2.87 4.46,6.53 4.46,11.02 0,4.5 -1.49,8.25 -4.46,11.22 -3,3 -6.62,4.51 -10.86,4.51 -4.5,0 -8.3,-1.57 -11.43,-4.69 -3.1,-3.12 -4.66,-6.8 -4.66,-11.04 0,-7.23 1.38,-13.97 4.12,-20.19 2.72,-6.24 6.64,-11.85 11.78,-16.83 5.1,-4.99 10.85,-8.81 17.21,-11.43 6.35,-2.61 13.16,-3.91 20.41,-3.91 10.95,0 21.2,2.37 30.65,7.1 9.49,4.74 16.99,11.29 22.48,19.63 5.49,8.37 8.24,18.28 8.24,29.75 0,8.23 -1.82,16.1 -5.43,23.59 -3.64,7.47 -8.3,14.26 -14.05,20.37 -5.75,6.12 -13.02,13.1 -21.87,20.95 -8.88,7.86 -14.69,13.04 -17.44,15.54l-32.53 31.42 27.32 0c13.7,0 25.1,-0.12 34.2,-0.36 9.13,-0.25 13.92,-0.62 14.43,-1.12 2.24,-2.51 4.63,-11.36 7.12,-26.58l8.24 0 -8.24 51.27 -106.64 0z"/>
   <path class="fil2" d="M5296.59 5719.09l0 -10.1 89.05 -132.46c0.51,-1 1.5,-1.48 3,-1.48l4.12 0c2.24,0 3.35,1.12 3.35,3.37l0 130.58 28.07 0 0 10.1 -28.07 0 0 28.43c0,3.74 2.81,6.17 8.43,7.3 5.62,1.12 12.04,1.67 19.26,1.67l0 10.11 -78.93 0 0 -10.11c7.21,0 13.67,-0.55 19.25,-1.67 5.62,-1.13 8.44,-3.57 8.44,-7.3l0 -28.43 -75.96 0zm9.7 -10.1l68.11 0 0 -101.77 -68.11 101.77z"/>
   <path class="fil2" d="M7454.17 5772.97c-11.97,0 -21.88,-3.18 -29.73,-9.55 -7.86,-6.35 -13.98,-14.52 -18.35,-24.5 -4.34,-9.97 -7.41,-20.52 -9.17,-31.63 -1.76,-11.1 -2.62,-22.26 -2.62,-33.47 0,-15.22 3,-30.44 9.01,-45.65 5.97,-15.21 14.65,-27.88 25.98,-37.98 11.37,-10.1 24.88,-15.15 40.58,-15.15 6.74,0 12.93,1.23 18.55,3.73 5.58,2.49 10.03,6.17 13.25,11.03 3.26,4.88 4.89,10.68 4.89,17.41 0,3.99 -1.31,7.29 -3.93,9.91 -2.62,2.62 -5.94,3.94 -9.93,3.94 -3.74,0 -7,-1.31 -9.74,-3.94 -2.75,-2.62 -4.09,-5.92 -4.09,-9.91 0,-3.76 1.34,-6.93 4.09,-9.56 2.74,-2.62 6,-3.93 9.74,-3.93l1.49 0c-2.49,-3.49 -5.9,-6.05 -10.27,-7.66 -4.38,-1.63 -9.04,-2.44 -14.06,-2.44 -5.71,0 -11.01,1.25 -15.9,3.76 -4.85,2.5 -9.29,5.85 -13.28,10.09 -3.99,4.24 -7.28,8.98 -9.9,14.22 -2.62,5.24 -4.62,11.16 -6,17.77 -1.38,6.62 -2.24,12.85 -2.62,18.73 -0.35,5.86 -0.54,13.16 -0.54,21.88 3.22,-7.98 7.98,-14.46 14.21,-19.47 6.23,-4.98 13.21,-7.47 20.94,-7.47 8.49,0 16.22,1.75 23.21,5.22 6.99,3.49 13.02,8.3 18.13,14.41 5.11,6.12 8.98,13.11 11.59,20.95 2.62,7.86 3.93,15.78 3.93,23.76 0,11.22 -2.49,21.95 -7.48,32.19 -4.98,10.23 -12.04,18.33 -21.13,24.32 -9.1,5.98 -19.38,8.98 -30.87,8.98zm0 -9.35c7.5,0 13.47,-1.68 17.97,-5.07 4.47,-3.37 7.79,-7.79 9.89,-13.28 2.14,-5.48 3.45,-11.1 3.93,-16.84 0.52,-5.72 0.77,-12.71 0.77,-20.95 0,-10.72 -0.58,-19.96 -1.69,-27.68 -1.11,-7.73 -3.93,-14.46 -8.4,-20.22 -4.5,-5.72 -11.49,-8.59 -20.94,-8.59 -7.76,0 -14.11,2.62 -19.1,7.86 -5.01,5.22 -8.68,11.84 -11.04,19.82 -2.4,7.98 -3.57,15.59 -3.57,22.83 0,2.49 0.13,4.49 0.38,5.98 0,0.26 0,0.45 0,0.58 0,0.11 -0.13,0.29 -0.38,0.54 0,8.25 0.89,16.6 2.64,25.08 1.73,8.47 4.99,15.59 9.71,21.33 4.76,5.74 11.37,8.61 19.83,8.61z"/>
   <path class="fil2" d="M9487.92 5722.84c0,-11.48 3.8,-21.66 11.4,-30.51 7.6,-8.84 17.4,-16.15 29.37,-21.89l-10.85 -7.1c-6.48,-4.24 -11.78,-9.9 -15.9,-17.02 -4.12,-7.1 -6.16,-14.66 -6.16,-22.64 0,-9.23 2.43,-17.52 7.31,-24.89 4.85,-7.36 11.24,-13.14 19.22,-17.38 7.98,-4.24 16.47,-6.36 25.48,-6.36 8.46,0 16.7,1.74 24.68,5.23 7.98,3.48 14.46,8.47 19.48,14.97 4.98,6.49 7.47,14.21 7.47,23.19 0,6.24 -1.49,12.17 -4.46,17.78 -3.04,5.6 -7.16,10.59 -12.39,14.97 -5.24,4.36 -10.82,8.05 -16.83,11.03l16.47 10.46c7.48,5 13.54,11.55 18.14,19.65 4.62,8.1 6.92,16.53 6.92,25.25 0,10.48 -2.81,19.96 -8.39,28.45 -5.66,8.48 -13,15.1 -22.1,19.84 -9.1,4.73 -18.77,7.1 -28.99,7.1 -9.99,0 -19.6,-1.99 -28.8,-5.98 -9.23,-3.99 -16.73,-9.86 -22.48,-17.6 -5.75,-7.72 -8.59,-16.57 -8.59,-26.55zm15.71 0c0,7.72 2.05,14.7 6.16,20.94 4.12,6.23 9.61,11.1 16.47,14.59 6.87,3.48 14.02,5.25 21.52,5.25 11.2,0 21.33,-3.25 30.3,-9.73 8.97,-6.5 13.48,-15.11 13.48,-25.82 0,-3.49 -0.71,-7.04 -2.08,-10.68 -1.37,-3.6 -3.35,-6.91 -5.96,-9.91 -2.62,-2.98 -5.56,-5.35 -8.82,-7.11l-38.51 -25.06c-6,3.25 -11.49,7.3 -16.47,12.15 -4.98,4.87 -8.91,10.31 -11.78,16.29 -2.87,5.98 -4.31,12.35 -4.31,19.09zm19.83 -87.56l34.8 22.44c7.98,-4.74 14.53,-10.42 19.64,-17.02 5.1,-6.62 7.66,-14.03 7.66,-22.26 0,-6.49 -1.78,-12.41 -5.39,-17.78 -3.64,-5.37 -8.3,-9.54 -14.05,-12.52 -5.75,-3 -11.97,-4.51 -18.71,-4.51 -5.75,0 -11.53,1.12 -17.4,3.38 -5.84,2.24 -10.72,5.55 -14.59,9.9 -3.86,4.36 -5.81,9.54 -5.81,15.52 0,8.99 4.62,16.61 13.86,22.84z"/>
   <path class="fil2" d="M11524.26 5766.61l0 -10.11c23.95,0 35.92,-3 35.92,-8.98l0 -151.15c-9.74,4.99 -22.19,7.48 -37.39,7.48l0 -10.11c23.43,0 41.15,-6.24 53.13,-18.69l4.09 0c0.51,0 1.09,0.31 1.69,0.92 0.63,0.62 0.95,1.19 0.95,1.68l0 169.87c0,5.98 11.97,8.98 35.92,8.98l0 10.11 -94.32 0z"/>
   <path class="fil2" d="M11713.21 5772.97c-23.43,0 -39.4,-9.67 -47.89,-29 -8.46,-19.33 -12.71,-42.34 -12.71,-69.03 0,-16.72 1.47,-32.37 4.47,-46.95 3,-14.6 9.07,-27.08 18.16,-37.43 9.1,-10.35 21.74,-15.51 37.96,-15.51 12.72,0 23.09,3.11 31.07,9.35 7.98,6.24 14.08,14.22 18.33,23.95 4.24,9.73 7.12,20.2 8.62,31.41 1.5,11.23 2.24,22.95 2.24,35.19 0,16.46 -1.49,31.87 -4.5,46.2 -2.97,14.35 -8.91,26.57 -17.78,36.67 -8.84,10.1 -21.49,15.15 -37.97,15.15zm0 -7.49c10.73,0 18.72,-5.48 23.95,-16.45 5.24,-10.97 8.5,-23.09 9.74,-36.29 1.25,-13.21 1.86,-27.31 1.86,-42.29 0,-14.46 -0.61,-27.81 -1.86,-40.03 -1.24,-12.23 -4.5,-23.25 -9.74,-33.11 -5.23,-9.87 -13.21,-14.79 -23.95,-14.79 -10.72,0 -18.71,4.99 -23.94,14.97 -5.24,9.97 -8.46,21.02 -9.71,33.11 -1.24,12.1 -1.88,25.39 -1.88,39.85 0,10.49 0.25,20.47 0.77,29.93 0.48,9.49 1.85,19.28 4.08,29.39 2.24,10.11 5.87,18.59 10.86,25.43 4.98,6.86 11.58,10.29 19.82,10.29z"/>
   <path class="fil2" d="M13617.84 5766.61l0 -10.11c23.95,0 35.92,-3 35.92,-8.98l0 -151.15c-9.71,4.99 -22.19,7.48 -37.39,7.48l0 -10.11c23.43,0 41.15,-6.24 53.13,-18.69l4.09 0c0.51,0 1.08,0.31 1.68,0.92 0.64,0.62 0.96,1.19 0.96,1.68l0 169.87c0,5.98 11.97,8.98 35.92,8.98l0 10.11 -94.32 0z"/>
   <path class="fil2" d="M13749.19 5766.61l0 -7.86c0,-0.5 0.26,-1 0.73,-1.51l44.51 -49.37c6.77,-7.24 12.26,-13.35 16.47,-18.35 4.28,-4.98 8.44,-10.72 12.55,-17.21 4.12,-6.49 7.34,-13.03 9.74,-19.64 2.36,-6.62 3.54,-13.66 3.54,-21.14 0,-7.98 -1.43,-15.53 -4.31,-22.64 -2.87,-7.1 -7.15,-12.83 -12.9,-17.21 -5.75,-4.35 -12.71,-6.53 -20.94,-6.53 -8.24,0 -15.71,2.55 -22.45,7.66 -6.74,5.11 -11.49,11.54 -14.25,19.28 0.77,0 1.88,0 3.38,0 4.24,0 7.86,1.44 10.86,4.31 2.97,2.87 4.47,6.53 4.47,11.02 0,4.5 -1.5,8.25 -4.47,11.22 -3,3 -6.62,4.51 -10.86,4.51 -4.5,0 -8.3,-1.57 -11.43,-4.69 -3.1,-3.12 -4.66,-6.8 -4.66,-11.04 0,-7.23 1.38,-13.97 4.12,-20.19 2.75,-6.24 6.68,-11.85 11.78,-16.83 5.11,-4.99 10.86,-8.81 17.21,-11.43 6.35,-2.61 13.15,-3.91 20.4,-3.91 10.98,0 21.2,2.37 30.65,7.1 9.48,4.74 16.98,11.29 22.47,19.63 5.49,8.37 8.24,18.28 8.24,29.75 0,8.23 -1.82,16.1 -5.42,23.59 -3.61,7.47 -8.31,14.26 -14.06,20.37 -5.75,6.12 -13.02,13.1 -21.87,20.95 -8.88,7.86 -14.65,13.04 -17.4,15.54l-32.56 31.42 27.33 0c13.69,0 25.12,-0.12 34.19,-0.36 9.13,-0.25 13.92,-0.62 14.43,-1.12 2.27,-2.51 4.63,-11.36 7.12,-26.58l8.24 0 -8.24 51.27 -106.64 0z"/>
   <path class="fil2" d="M15711.46 5766.61l0 -10.11c23.95,0 35.92,-3 35.92,-8.98l0 -151.15c-9.74,4.99 -22.19,7.48 -37.42,7.48l0 -10.11c23.47,0 41.18,-6.24 53.15,-18.69l4.09 0c0.51,0 1.05,0.31 1.69,0.92 0.61,0.62 0.92,1.19 0.92,1.68l0 169.87c0,5.98 11.97,8.98 35.92,8.98l0 10.11 -94.29 0z"/>
   <path class="fil2" d="M15836.43 5719.09l0 -10.1 89.05 -132.46c0.52,-1 1.5,-1.48 3,-1.48l4.12 0c2.24,0 3.35,1.12 3.35,3.37l0 130.58 28.07 0 0 10.1 -28.07 0 0 28.43c0,3.74 2.81,6.17 8.44,7.3 5.61,1.12 12.04,1.67 19.28,1.67l0 10.11 -78.96 0 0 -10.11c7.21,0 13.67,-0.55 19.25,-1.67 5.62,-1.13 8.44,-3.57 8.44,-7.3l0 -28.43 -75.96 0zm9.71 -10.1l68.13 0 0 -101.77 -68.13 101.77z"/>
   <line class="fil1 str1" x1="1173.38" y1="5435.83" x2="1173.38" y2= "4070.89" />
   <line class="fil1 str1" x1="1173.38" y1="5435.83" x2="1319.92" y2= "5435.83" />
   <line class="fil1 str1" x1="1173.38" y1="4889.85" x2="1319.92" y2= "4889.85" />
   <line class="fil1 str1" x1="1173.38" y1="4343.87" x2="1319.92" y2= "4343.87" />
   <path class="fil2" d="M1012.14 5511.16c-23.45,0 -39.42,-9.67 -47.9,-28.99 -8.48,-19.34 -12.72,-42.35 -12.72,-69.04 0,-16.72 1.49,-32.37 4.49,-46.95 2.99,-14.6 9.04,-27.08 18.15,-37.43 9.09,-10.35 21.77,-15.51 37.98,-15.51 12.73,0 23.08,3.11 31.06,9.35 7.97,6.24 14.09,14.22 18.32,23.95 4.25,9.73 7.11,20.21 8.62,31.41 1.51,11.23 2.25,22.95 2.25,35.19 0,16.46 -1.51,31.87 -4.5,46.21 -3,14.34 -8.91,26.56 -17.78,36.66 -8.85,10.1 -21.51,15.15 -37.98,15.15zm0 -7.49c10.72,0 18.71,-5.48 23.95,-16.44 5.24,-10.98 8.48,-23.09 9.73,-36.29 1.23,-13.22 1.86,-27.31 1.86,-42.3 0,-14.46 -0.62,-27.8 -1.86,-40.03 -1.25,-12.23 -4.49,-23.25 -9.73,-33.1 -5.24,-9.87 -13.22,-14.8 -23.95,-14.8 -10.72,0 -18.71,5 -23.95,14.97 -5.24,9.97 -8.48,21.02 -9.73,33.12 -1.23,12.09 -1.86,25.38 -1.86,39.84 0,10.5 0.25,20.47 0.73,29.94 0.51,9.48 1.87,19.27 4.12,29.39 2.24,10.1 5.86,18.58 10.85,25.42 4.99,6.86 11.6,10.29 19.83,10.29z"/>
   <path class="fil2" d="M823.17 4958.82l0 -10.12c23.95,0 35.92,-2.97 35.92,-8.98l0 -151.15c-9.71,4.98 -22.18,7.47 -37.4,7.47l0 -10.08c23.45,0 41.16,-6.26 53.14,-18.72l4.09 0c0.52,0 1.08,0.33 1.7,0.93 0.62,0.63 0.93,1.18 0.93,1.69l0 169.85c0,6.01 11.97,8.98 35.92,8.98l0 10.12 -94.31 0z"/>
   <path class="fil2" d="M1012.14 4965.17c-23.45,0 -39.42,-9.64 -47.9,-28.99 -8.48,-19.32 -12.72,-42.34 -12.72,-69.03 0,-16.7 1.49,-32.37 4.49,-46.97 2.99,-14.59 9.04,-27.07 18.15,-37.42 9.09,-10.34 21.77,-15.52 37.98,-15.52 12.73,0 23.08,3.13 31.06,9.36 7.97,6.23 14.09,14.21 18.32,23.95 4.25,9.74 7.11,20.21 8.62,31.41 1.51,11.24 2.25,22.96 2.25,35.19 0,16.47 -1.51,31.86 -4.5,46.19 -3,14.37 -8.91,26.57 -17.78,36.69 -8.85,10.09 -21.51,15.13 -37.98,15.13zm0 -7.47c10.72,0 18.71,-5.49 23.95,-16.48 5.24,-10.95 8.48,-23.08 9.73,-36.27 1.23,-13.22 1.86,-27.33 1.86,-42.31 0,-14.46 -0.62,-27.8 -1.86,-40.04 -1.25,-12.23 -4.49,-23.24 -9.73,-33.11 -5.24,-9.87 -13.22,-14.78 -23.95,-14.78 -10.72,0 -18.71,4.98 -23.95,14.97 -5.24,9.96 -8.48,21.02 -9.73,33.12 -1.23,12.1 -1.86,25.38 -1.86,39.84 0,10.51 0.25,20.47 0.73,29.95 0.51,9.46 1.87,19.26 4.12,29.38 2.24,10.09 5.86,18.58 10.85,25.41 4.99,6.87 11.6,10.32 19.83,10.32z"/>
   <path class="fil2" d="M810.84 4412.84l0 -7.86c0,-0.51 0.25,-0.99 0.75,-1.5l44.51 -49.39c6.73,-7.21 12.24,-13.35 16.48,-18.33 4.23,-4.98 8.41,-10.72 12.52,-17.21 4.14,-6.48 7.38,-13.05 9.76,-19.67 2.35,-6.61 3.54,-13.63 3.54,-21.13 0,-7.98 -1.43,-15.52 -4.32,-22.64 -2.85,-7.09 -7.16,-12.83 -12.89,-17.21 -5.74,-4.34 -12.73,-6.51 -20.95,-6.51 -8.24,0 -15.7,2.55 -22.45,7.63 -6.73,5.14 -11.48,11.56 -14.22,19.29 0.75,0 1.87,0 3.38,0 4.23,0 7.84,1.43 10.83,4.31 3,2.87 4.49,6.54 4.49,11.01 0,4.5 -1.49,8.27 -4.49,11.24 -3,3 -6.61,4.5 -10.83,4.5 -4.51,0 -8.32,-1.57 -11.43,-4.7 -3.11,-3.12 -4.68,-6.8 -4.68,-11.04 0,-7.21 1.39,-13.96 4.14,-20.18 2.73,-6.23 6.64,-11.84 11.77,-16.83 5.1,-5.01 10.84,-8.81 17.22,-11.43 6.34,-2.62 13.14,-3.93 20.37,-3.93 10.98,0 21.21,2.36 30.67,7.12 9.49,4.72 16.97,11.27 22.46,19.64 5.49,8.36 8.25,18.26 8.25,29.72 0,8.24 -1.83,16.12 -5.44,23.59 -3.63,7.47 -8.31,14.27 -14.03,20.37 -5.74,6.13 -13.04,13.09 -21.89,20.94 -8.87,7.88 -14.66,13.06 -17.41,15.55l-32.54 31.41 27.31 0c13.72,0 25.13,-0.09 34.22,-0.35 9.12,-0.25 13.92,-0.63 14.42,-1.11 2.24,-2.53 4.62,-11.37 7.11,-26.6l8.25 0 -8.25 51.28 -106.64 0z"/>
   <path class="fil2" d="M1012.14 4419.19c-23.45,0 -39.42,-9.64 -47.9,-28.99 -8.48,-19.32 -12.72,-42.34 -12.72,-69.03 0,-16.7 1.49,-32.37 4.49,-46.97 2.99,-14.59 9.04,-27.07 18.15,-37.42 9.09,-10.34 21.77,-15.52 37.98,-15.52 12.73,0 23.08,3.13 31.06,9.36 7.97,6.23 14.09,14.21 18.32,23.95 4.25,9.74 7.11,20.21 8.62,31.41 1.51,11.24 2.25,22.96 2.25,35.19 0,16.47 -1.51,31.86 -4.5,46.19 -3,14.37 -8.91,26.57 -17.78,36.69 -8.85,10.09 -21.51,15.13 -37.98,15.13zm0 -7.47c10.72,0 18.71,-5.49 23.95,-16.48 5.24,-10.95 8.48,-23.08 9.73,-36.27 1.23,-13.22 1.86,-27.33 1.86,-42.31 0,-14.46 -0.62,-27.8 -1.86,-40.04 -1.25,-12.23 -4.49,-23.24 -9.73,-33.11 -5.24,-9.87 -13.22,-14.78 -23.95,-14.78 -10.72,0 -18.71,4.98 -23.95,14.97 -5.24,9.96 -8.48,21.02 -9.73,33.12 -1.23,12.1 -1.86,25.38 -1.86,39.84 0,10.51 0.25,20.47 0.73,29.95 0.51,9.46 1.87,19.26 4.12,29.38 2.24,10.09 5.86,18.58 10.85,25.41 4.99,6.87 11.6,10.32 19.83,10.32z"/>
   <polyline class="fil1 str2" points="1173.38,4801.38 1435.09,4799.78 1696.77,4765.39 1958.49,4738.06 2220.17,4735.35 2481.89,4749.52 2743.57,4772.44 3005.28,4787.74 3267,4773.02 3528.68,4742.98 3790.37,4755.53 4052.09,4788.83 4313.77,4807.41 4575.46,4762.64 4837.17,4738.6 5098.89,4758.81 5360.58,4801.38 5622.26,4766.44 5883.99,4733.69 6145.67,4733.15 6407.36,4785 6669.07,4799.78 6930.79,4781.74 7192.48,4756.1 7454.17,4732.06 7715.89,4728.22 7977.57,4742.43 8239.26,4786.11 8500.97,4770.85 8762.7,4733.15 9024.38,4746.81 9286.07,4804.67 9547.79,4738.06 9809.48,4775.2 10071.16,4806.32 10332.88,4774.11 10594.6,4738.06 10856.28,4736.98 11117.97,4732.6 11379.69,4769.74 11641.37,4773.57 11903.06,4778.48 12164.78,4768.11 12426.5,4786.65 12688.18,4807.41 12949.86,4807.41 13211.58,4787.74 13473.27,4775.74 13734.95,4752.81 13996.67,4750.61 14258.39,4739.15 14520.08,4756.1 "/>
   <line class="fil1 str3" x1="1173.38" y1="4343.87" x2="14520.08" y2= "4343.87" />
   <path class="fil2" d="M342.27 5273.96c0,15.45 -3.56,29.22 -10.65,41.33 -7.11,12.1 -17.02,21.46 -29.75,28.07 -12.72,6.61 -26.82,9.92 -42.29,9.92 -22.7,0 -45.21,-6.43 -67.52,-19.29 -22.35,-12.83 -40.61,-29.73 -54.82,-50.68 -14.22,-20.96 -21.34,-42.91 -21.34,-65.85 0,-11.97 2.14,-22.89 6.37,-32.75 4.24,-9.85 10.15,-18.15 17.78,-24.88 7.59,-6.73 16.45,-11.97 26.55,-15.7 10.1,-3.76 21.14,-5.64 33.12,-5.64 13.72,0 27.56,2.44 41.53,7.31 13.97,4.86 26.93,11.53 38.91,20.02 11.97,8.48 22.57,18.39 31.81,29.74 9.23,11.35 16.46,23.51 21.7,36.49 9.49,-1.51 16.96,-3.57 22.44,-6.18 5.49,-2.62 8.24,-7.8 8.24,-15.54 0,-8.22 -2.93,-15.89 -8.79,-23.02 -5.86,-7.1 -12.78,-11.65 -20.76,-13.64 -1.76,-0.26 -2.63,-1.38 -2.63,-3.38 0,-2.23 1.38,-3.36 4.12,-3.36 6.49,1.51 13.16,3.75 20.02,6.74 6.87,2.99 13.3,6.61 19.28,10.85 5.99,4.24 10.85,9.22 14.58,14.96 3.76,5.74 5.63,12.1 5.63,19.09 0,17.46 -11.11,26.18 -33.31,26.18 -1.5,0 -5.12,-0.24 -10.84,-0.73 -5.76,-0.51 -10.37,-0.77 -13.85,-0.77 2.98,9.97 4.48,20.22 4.48,30.71zm-21.31 11.58c8.23,0 12.34,-4.62 12.34,-13.85 0,-9.23 -2.25,-18.96 -6.72,-29.19l-3 0c-8.25,0 -14.73,1.31 -19.47,3.94 -4.72,2.62 -7.1,7.79 -7.1,15.54 0,3.73 1.12,7.4 3.35,11.03 2.26,3.6 5.26,6.6 8.99,8.98 3.75,2.36 7.62,3.55 11.61,3.55zm0.74 7.86c-5.48,0 -10.79,-1.5 -15.9,-4.48 -5.12,-3 -9.24,-6.93 -12.35,-11.81 -3.11,-4.85 -4.67,-10.03 -4.67,-15.51 0,-9.23 3.06,-15.84 9.17,-19.83 6.1,-3.99 14.02,-6.74 23.76,-8.24 -7.75,-13.22 -18.97,-24.94 -33.67,-35.18 -14.73,-10.22 -30.87,-17.94 -48.48,-23.18 -17.57,-5.25 -34.22,-7.87 -49.95,-7.87 -11.47,0 -22.07,1.86 -31.8,5.62 -9.71,3.74 -17.57,9.53 -23.56,17.39 -5.98,7.86 -8.98,17.54 -8.98,29 0,11.22 2.74,22.01 8.22,32.37 5.49,10.35 12.73,19.88 21.71,28.63 8.97,8.46 19.95,16.14 32.93,23.01 12.96,6.86 26.55,12.1 40.79,15.7 14.2,3.63 27.79,5.44 40.78,5.44 13.2,0 25.25,-2.62 36.1,-7.86 10.84,-5.24 18.64,-13.34 23.38,-24.32 -2,0.74 -4.49,1.12 -7.48,1.12z"/>
   <path class="fil2" d="M387.81 5064.83c0,17.72 -7.29,29.7 -21.88,35.91 -14.6,6.25 -31.87,9.37 -51.82,9.37 -12.46,0 -24.19,-1.12 -35.17,-3.38 -10.98,-2.24 -20.33,-6.72 -28.08,-13.46 -7.72,-6.73 -11.58,-16.22 -11.58,-28.45 0,-9.47 2.31,-17.19 6.92,-23.19 4.61,-5.97 10.6,-10.6 17.96,-13.82 7.36,-3.26 15.21,-5.47 23.56,-6.58 8.37,-1.12 17.16,-1.67 26.39,-1.67 12.47,0 24.07,1.12 34.8,3.36 10.72,2.24 19.89,6.73 27.49,13.47 7.62,6.74 11.42,16.22 11.42,28.43zm-5.6 0c0,-7.98 -4.13,-13.97 -12.35,-17.97 -8.25,-3.97 -17.35,-6.4 -27.33,-7.27 -9.97,-0.9 -20.57,-1.34 -31.79,-1.34 -10.73,0 -20.64,0.44 -29.74,1.34 -9.1,0.87 -17.4,3.29 -24.88,7.27 -7.48,3.99 -11.23,9.98 -11.23,17.97 0,8.24 3.75,14.29 11.23,18.16 7.48,3.86 15.78,6.24 24.88,7.1 9.1,0.88 19.01,1.33 29.74,1.33 7.98,0 15.54,-0.21 22.65,-0.58 7.1,-0.37 14.4,-1.37 21.89,-3 7.47,-1.62 13.83,-4.3 19.08,-8.06 5.24,-3.73 7.86,-8.72 7.86,-14.96z"/>
   <path class="fil2" d="M412.62 4790.36c-8.99,11.49 -19.4,21.4 -31.25,29.76 -11.84,8.37 -24.44,15.23 -37.78,20.6 -13.35,5.36 -27.31,9.35 -41.91,11.97 -14.59,2.62 -29.24,3.93 -43.96,3.93 -14.98,0 -29.76,-1.31 -44.35,-3.93 -14.6,-2.62 -28.63,-6.62 -42.09,-11.97 -13.47,-5.37 -26.07,-12.29 -37.8,-20.75 -11.72,-8.5 -21.95,-18.36 -30.68,-29.6 -0.5,0 -0.73,-0.47 -0.73,-1.47l0 -3c0,-0.52 0.24,-1.02 0.73,-1.5 0.5,-0.48 1.12,-0.73 1.87,-0.73 1.01,0 1.76,0.13 2.24,0.38 9.73,10.22 20.26,18.68 31.61,25.41 11.35,6.73 23.45,12.16 36.29,16.28 12.86,4.12 26.15,7.12 39.85,8.98 13.72,1.88 28.07,2.81 43.04,2.81 65.85,0 115.97,-17.68 150.4,-53.13 0.5,-0.48 1.37,-0.73 2.63,-0.73 0.5,0 1.06,0.25 1.68,0.73 0.62,0.48 0.93,0.99 0.93,1.5l0 3c0,1 -0.25,1.47 -0.75,1.47z"/>
   <path class="fil2" d="M335.54 4688.03l-114.5 45.27c-3.75,2.02 -6.12,5.01 -7.1,9.01 -1.01,3.99 -1.51,9.23 -1.51,15.68l-11.21 0 0 -65.45 11.21 0c0,11.72 2.37,17.57 7.11,17.57 1,0 1.63,-0.13 1.86,-0.35l87.94 -34.8 -79.31 -31.42c-1.5,-0.76 -3.12,-1.11 -4.87,-1.11 -3.99,0 -7.1,1.47 -9.35,4.47 -2.26,3 -3.38,6.61 -3.38,10.85l-11.21 0 0 -52.01 11.21 0c0,6.48 1.44,12.16 4.31,17.02 2.88,4.85 7.18,8.55 12.91,11.04l105.9 41.92c2.24,1 3.37,2.72 3.37,5.2l0 2.27c0,2.49 -1.12,4.08 -3.37,4.85z"/>
   <path class="fil2" d="M304.86 4602.37c-12.23,0 -22.2,-4.85 -29.93,-14.59 -7.75,-9.74 -13.24,-21.46 -16.48,-35.15 -3.24,-13.73 -4.86,-26.7 -4.86,-38.93l-12.71 0c-5.99,0 -11.79,1.31 -17.41,3.93 -5.6,2.62 -10.22,6.42 -13.85,11.43 -3.6,4.98 -5.41,10.44 -5.41,16.44 0,13.73 3.12,24.2 9.34,31.45 0,-3.99 1.5,-7.25 4.51,-9.74 2.98,-2.53 6.47,-3.77 10.46,-3.77 3.99,0 7.48,1.47 10.49,4.31 2.98,2.87 4.48,6.29 4.48,10.28 0,4.24 -1.5,7.88 -4.48,10.89 -3,2.97 -6.5,4.47 -10.49,4.47 -10.96,0 -19.13,-4.99 -24.5,-14.98 -5.36,-9.96 -8.04,-20.94 -8.04,-32.92 0,-8.46 1.79,-16.95 5.41,-25.45 3.61,-8.49 8.81,-15.39 15.54,-20.75 6.73,-5.36 14.46,-8.05 23.2,-8.05l70.33 0c3.99,0 7.67,-0.9 11.03,-2.62 3.38,-1.76 5.07,-4.5 5.07,-8.24 0,-3.48 -1.76,-6.04 -5.25,-7.67 -3.49,-1.63 -7.11,-2.46 -10.85,-2.46l-20.21 0 0 -8.97 20.21 0c4.49,0 8.85,1.19 13.11,3.57 4.24,2.36 7.61,5.59 10.1,9.71 2.5,4.12 3.73,8.55 3.73,13.31 0,6.19 -2.37,11.49 -7.1,15.9 -4.74,4.34 -10.35,6.77 -16.84,7.28 7.74,3.74 13.91,9.36 18.54,16.83 4.62,7.48 6.92,15.59 6.92,24.33 0,7.73 -1.12,15.49 -3.37,23.18 -2.25,7.77 -5.94,14.18 -11.05,19.29 -5.1,5.11 -11.65,7.67 -19.63,7.67zm0 -25.41c7.47,0 13.64,-2.69 18.51,-8.05 4.88,-5.37 7.3,-11.68 7.3,-18.91 0,-6.73 -1.62,-12.83 -4.86,-18.33 -3.24,-5.52 -7.79,-9.87 -13.67,-13.12 -5.86,-3.22 -11.9,-4.85 -18.14,-4.85l-32.56 0c0,9.49 1.57,19.16 4.69,28.99 3.12,9.87 7.98,18.01 14.59,24.53 6.62,6.48 14.66,9.74 24.14,9.74z"/>
   <path class="fil2" d="M335.54 4448.43l-10.85 0c0,-6.99 -0.56,-12.77 -1.68,-17.4 -1.12,-4.6 -3.95,-6.93 -8.42,-6.93l-84.95 0c-5.48,0 -9.48,0.9 -11.97,2.65 -2.48,1.73 -3.98,4.15 -4.48,7.28 -0.51,3.13 -0.76,7.92 -0.76,14.4l-11.21 0 -3.37 -44.5 30.67 0c-9.23,-3.26 -16.64,-8.02 -22.25,-14.21 -5.62,-6.26 -8.43,-13.77 -8.43,-22.48 0,-6.23 1.86,-11.77 5.6,-16.64 3.76,-4.88 8.62,-7.31 14.61,-7.31 3.74,0 6.97,1.38 9.73,4.13 2.74,2.74 4.11,6.09 4.11,10.08 0,3.77 -1.37,7 -4.11,9.74 -2.76,2.75 -5.99,4.12 -9.73,4.12 -5.76,0 -9.75,-2.01 -11.97,-6l0 1.88c0,8.5 3.05,15.36 9.17,20.6 6.1,5.23 13.64,8.97 22.64,11.2 8.97,2.24 17.57,3.38 25.81,3.38l50.89 0c6.73,0 10.1,-9.99 10.1,-29.95l10.85 0 0 75.95z"/>
   <path class="fil2" d="M413.37 4312.67c0,1.73 -0.88,2.59 -2.62,2.59 -1,0 -1.75,-0.09 -2.25,-0.35 -34.67,-35.66 -84.93,-53.51 -150.78,-53.51 -65.85,0 -115.99,17.59 -150.41,52.75 -0.52,0.76 -1.38,1.11 -2.63,1.11 -0.75,0 -1.38,-0.23 -1.87,-0.73 -0.5,-0.48 -0.73,-1.12 -0.73,-1.86l0 -3c0,-0.48 0.24,-1 0.73,-1.5 11.74,-14.98 26.02,-27.36 42.85,-37.23 16.83,-9.84 34.74,-17.09 53.69,-21.71 18.96,-4.63 38.43,-6.93 58.39,-6.93 14.72,0 29.17,1.28 43.39,3.77 14.22,2.5 28.25,6.43 42.09,11.78 13.85,5.37 26.63,12.23 38.37,20.56 11.71,8.36 22.07,18.29 31.05,29.76 0.5,0.51 0.75,1.02 0.75,1.5l0 3z"/>
   <polygon class="fil0" points="1173.38,7327.6 15828.57,7327.6 15828.57,5986.59 1173.38,5986.59 "/>
   <line class="fil1 str0" x1="1173.38" y1="7327.6" x2="1173.38" y2= "5986.59" />
   <line class="fil1 str0" x1="3267" y1="7327.6" x2="3267" y2= "5986.59" />
   <line class="fil1 str0" x1="5360.58" y1="7327.6" x2="5360.58" y2= "5986.59" />
   <line class="fil1 str0" x1="7454.17" y1="7327.6" x2="7454.17" y2= "5986.59" />
   <line class="fil1 str0" x1="9547.79" y1="7327.6" x2="9547.79" y2= "5986.59" />
   <line class="fil1 str0" x1="11641.37" y1="7327.6" x2="11641.37" y2= "5986.59" />
   <line class="fil1 str0" x1="13734.95" y1="7327.6" x2="13734.95" y2= "5986.59" />
   <line class="fil1 str0" x1="15828.57" y1="7327.6" x2="15828.57" y2= "5986.59" />
   <line class="fil1 str0" x1="15828.57" y1="7327.6" x2="1173.38" y2= "7327.6" />
   <line class="fil1 str0" x1="15828.57" y1="5986.59" x2="1173.38" y2= "5986.59" />
   <line class="fil1 str1" x1="1173.38" y1="7327.6" x2="15828.57" y2= "7327.6" />
   <line class="fil1 str1" x1="1173.38" y1="7327.6" x2="1173.38" y2= "7181.05" />
   <line class="fil1 str1" x1="3267" y1="7327.6" x2="3267" y2= "7181.05" />
   <line class="fil1 str1" x1="5360.58" y1="7327.6" x2="5360.58" y2= "7181.05" />
   <line class="fil1 str1" x1="7454.17" y1="7327.6" x2="7454.17" y2= "7181.05" />
   <line class="fil1 str1" x1="9547.79" y1="7327.6" x2="9547.79" y2= "7181.05" />
   <line class="fil1 str1" x1="11641.37" y1="7327.6" x2="11641.37" y2= "7181.05" />
   <line class="fil1 str1" x1="13734.95" y1="7327.6" x2="13734.95" y2= "7181.05" />
   <line class="fil1 str1" x1="15828.57" y1="7327.6" x2="15828.57" y2= "7181.05" />
   <path class="fil2" d="M1173.38 7664.74c-23.44,0 -39.41,-9.67 -47.89,-29 -8.48,-19.33 -12.73,-42.34 -12.73,-69.03 0,-16.72 1.49,-32.37 4.49,-46.96 3,-14.59 9.04,-27.07 18.15,-37.42 9.1,-10.35 21.77,-15.51 37.98,-15.51 12.73,0 23.08,3.11 31.06,9.35 7.98,6.24 14.09,14.22 18.35,23.95 4.23,9.73 7.1,20.2 8.59,31.41 1.51,11.22 2.26,22.95 2.26,35.19 0,16.46 -1.51,31.86 -4.51,46.2 -3,14.35 -8.91,26.57 -17.77,36.67 -8.86,10.1 -21.52,15.15 -37.99,15.15zm0 -7.49c10.72,0 18.71,-5.48 23.95,-16.45 5.24,-10.98 8.48,-23.09 9.73,-36.29 1.24,-13.22 1.86,-27.31 1.86,-42.29 0,-14.46 -0.62,-27.81 -1.86,-40.04 -1.25,-12.22 -4.49,-23.24 -9.73,-33.1 -5.24,-9.87 -13.22,-14.79 -23.95,-14.79 -10.72,0 -18.71,4.99 -23.95,14.97 -5.23,9.97 -8.47,21.02 -9.72,33.11 -1.24,12.1 -1.86,25.39 -1.86,39.85 0,10.49 0.25,20.47 0.74,29.93 0.5,9.49 1.86,19.28 4.11,29.39 2.24,10.1 5.86,18.58 10.85,25.43 5,6.86 11.6,10.29 19.83,10.29z"/>
   <path class="fil2" d="M3209.37 7658.38l0 -7.86c0,-0.5 0.25,-1 0.73,-1.51l44.51 -49.37c6.73,-7.24 12.26,-13.35 16.47,-18.35 4.28,-4.97 8.44,-10.71 12.55,-17.21 4.08,-6.49 7.34,-13.03 9.74,-19.65 2.36,-6.61 3.54,-13.65 3.54,-21.13 0,-7.98 -1.43,-15.53 -4.31,-22.64 -2.87,-7.1 -7.15,-12.82 -12.9,-17.21 -5.75,-4.35 -12.74,-6.53 -20.98,-6.53 -8.21,0 -15.71,2.55 -22.41,7.66 -6.74,5.11 -11.49,11.53 -14.25,19.28 0.77,0 1.88,0 3.38,0 4.24,0 7.86,1.44 10.86,4.31 2.97,2.87 4.46,6.53 4.46,11.02 0,4.5 -1.49,8.25 -4.46,11.22 -3,3 -6.62,4.51 -10.86,4.51 -4.5,0 -8.3,-1.57 -11.43,-4.7 -3.1,-3.11 -4.66,-6.8 -4.66,-11.03 0,-7.23 1.38,-13.97 4.12,-20.19 2.72,-6.24 6.64,-11.85 11.78,-16.84 5.1,-4.99 10.85,-8.81 17.21,-11.42 6.35,-2.61 13.16,-3.91 20.41,-3.91 10.95,0 21.2,2.36 30.65,7.1 9.49,4.73 16.99,11.29 22.48,19.63 5.49,8.37 8.24,18.28 8.24,29.75 0,8.23 -1.82,16.1 -5.43,23.59 -3.64,7.47 -8.3,14.26 -14.05,20.37 -5.75,6.12 -13.02,13.1 -21.87,20.95 -8.88,7.86 -14.69,13.03 -17.44,15.54l-32.53 31.42 27.32 0c13.7,0 25.1,-0.12 34.2,-0.36 9.13,-0.25 13.92,-0.62 14.43,-1.12 2.24,-2.51 4.63,-11.37 7.12,-26.58l8.24 0 -8.24 51.27 -106.64 0z"/>
   <path class="fil2" d="M5296.59 7610.86l0 -10.1 89.05 -132.47c0.51,-1 1.5,-1.48 3,-1.48l4.12 0c2.24,0 3.35,1.11 3.35,3.36l0 130.59 28.07 0 0 10.1 -28.07 0 0 28.42c0,3.75 2.81,6.18 8.43,7.31 5.62,1.12 12.04,1.67 19.26,1.67l0 10.11 -78.93 0 0 -10.11c7.21,0 13.67,-0.55 19.25,-1.67 5.62,-1.13 8.44,-3.57 8.44,-7.31l0 -28.42 -75.96 0zm9.7 -10.1l68.11 0 0 -101.77 -68.11 101.77z"/>
   <path class="fil2" d="M7454.17 7664.74c-11.97,0 -21.88,-3.18 -29.73,-9.55 -7.86,-6.35 -13.98,-14.53 -18.35,-24.5 -4.34,-9.97 -7.41,-20.52 -9.17,-31.63 -1.76,-11.1 -2.62,-22.26 -2.62,-33.47 0,-15.22 3,-30.44 9.01,-45.65 5.97,-15.21 14.65,-27.88 25.98,-37.98 11.37,-10.1 24.88,-15.15 40.58,-15.15 6.74,0 12.93,1.23 18.55,3.73 5.58,2.49 10.03,6.17 13.25,11.03 3.26,4.88 4.89,10.68 4.89,17.41 0,3.99 -1.31,7.29 -3.93,9.91 -2.62,2.62 -5.94,3.94 -9.93,3.94 -3.74,0 -7,-1.31 -9.74,-3.94 -2.75,-2.62 -4.09,-5.92 -4.09,-9.91 0,-3.76 1.34,-6.93 4.09,-9.56 2.74,-2.62 6,-3.93 9.74,-3.93l1.49 0c-2.49,-3.49 -5.9,-6.05 -10.27,-7.66 -4.38,-1.63 -9.04,-2.44 -14.06,-2.44 -5.71,0 -11.01,1.25 -15.9,3.76 -4.85,2.49 -9.29,5.85 -13.28,10.09 -3.99,4.24 -7.28,8.98 -9.9,14.22 -2.62,5.23 -4.62,11.16 -6,17.77 -1.38,6.62 -2.24,12.85 -2.62,18.73 -0.35,5.86 -0.54,13.16 -0.54,21.88 3.22,-7.98 7.98,-14.46 14.21,-19.47 6.23,-4.98 13.21,-7.47 20.94,-7.47 8.49,0 16.22,1.75 23.21,5.22 6.99,3.49 13.02,8.29 18.13,14.41 5.11,6.12 8.98,13.11 11.59,20.95 2.62,7.86 3.93,15.78 3.93,23.76 0,11.22 -2.49,21.95 -7.48,32.19 -4.98,10.23 -12.04,18.33 -21.13,24.32 -9.1,5.98 -19.38,8.98 -30.87,8.98zm0 -9.36c7.5,0 13.47,-1.68 17.97,-5.06 4.47,-3.37 7.79,-7.79 9.89,-13.29 2.14,-5.48 3.45,-11.09 3.93,-16.83 0.52,-5.72 0.77,-12.71 0.77,-20.95 0,-10.72 -0.58,-19.96 -1.69,-27.68 -1.11,-7.73 -3.93,-14.46 -8.4,-20.22 -4.5,-5.72 -11.49,-8.59 -20.94,-8.59 -7.76,0 -14.11,2.62 -19.1,7.86 -5.01,5.22 -8.68,11.84 -11.04,19.82 -2.4,7.98 -3.57,15.59 -3.57,22.82 0,2.5 0.13,4.49 0.38,5.99 0,0.26 0,0.45 0,0.57 0,0.12 -0.13,0.3 -0.38,0.55 0,8.25 0.89,16.6 2.64,25.08 1.73,8.47 4.99,15.59 9.71,21.33 4.76,5.74 11.37,8.6 19.83,8.6z"/>
   <path class="fil2" d="M9487.92 7614.6c0,-11.48 3.8,-21.65 11.4,-30.5 7.6,-8.85 17.4,-16.15 29.37,-21.89l-10.85 -7.1c-6.48,-4.24 -11.78,-9.91 -15.9,-17.02 -4.12,-7.11 -6.16,-14.67 -6.16,-22.65 0,-9.22 2.43,-17.52 7.31,-24.88 4.85,-7.36 11.24,-13.14 19.22,-17.39 7.98,-4.24 16.47,-6.35 25.48,-6.35 8.46,0 16.7,1.74 24.68,5.23 7.98,3.48 14.46,8.47 19.48,14.97 4.98,6.49 7.47,14.21 7.47,23.19 0,6.24 -1.49,12.17 -4.46,17.78 -3.04,5.6 -7.16,10.59 -12.39,14.96 -5.24,4.37 -10.82,8.05 -16.83,11.04l16.47 10.46c7.48,5 13.54,11.55 18.14,19.65 4.62,8.1 6.92,16.53 6.92,25.25 0,10.48 -2.81,19.96 -8.39,28.45 -5.66,8.48 -13,15.1 -22.1,19.83 -9.1,4.74 -18.77,7.11 -28.99,7.11 -9.99,0 -19.6,-1.99 -28.8,-5.98 -9.23,-3.99 -16.73,-9.86 -22.48,-17.6 -5.75,-7.72 -8.59,-16.57 -8.59,-26.55zm15.71 0c0,7.72 2.05,14.71 6.16,20.95 4.12,6.23 9.61,11.1 16.47,14.58 6.87,3.49 14.02,5.25 21.52,5.25 11.2,0 21.33,-3.24 30.3,-9.73 8.97,-6.49 13.48,-15.1 13.48,-25.81 0,-3.49 -0.71,-7.05 -2.08,-10.68 -1.37,-3.6 -3.35,-6.91 -5.96,-9.91 -2.62,-2.99 -5.56,-5.35 -8.82,-7.11l-38.51 -25.06c-6,3.25 -11.49,7.3 -16.47,12.15 -4.98,4.87 -8.91,10.3 -11.78,16.29 -2.87,5.98 -4.31,12.35 -4.31,19.08zm19.83 -87.55l34.8 22.43c7.98,-4.73 14.53,-10.41 19.64,-17.02 5.1,-6.61 7.66,-14.03 7.66,-22.26 0,-6.49 -1.78,-12.41 -5.39,-17.78 -3.64,-5.37 -8.3,-9.54 -14.05,-12.53 -5.75,-3 -11.97,-4.5 -18.71,-4.5 -5.75,0 -11.53,1.12 -17.4,3.38 -5.84,2.24 -10.72,5.55 -14.59,9.9 -3.86,4.36 -5.81,9.54 -5.81,15.52 0,8.98 4.62,16.61 13.86,22.84z"/>
   <path class="fil2" d="M11524.26 7658.38l0 -10.11c23.95,0 35.92,-3 35.92,-8.99l0 -151.15c-9.74,4.99 -22.19,7.47 -37.39,7.47l0 -10.1c23.43,0 41.15,-6.24 53.13,-18.69l4.09 0c0.51,0 1.09,0.31 1.69,0.92 0.63,0.62 0.95,1.18 0.95,1.68l0 169.86c0,5.99 11.97,8.99 35.92,8.99l0 10.11 -94.32 0z"/>
   <path class="fil2" d="M11713.21 7664.74c-23.43,0 -39.4,-9.67 -47.89,-29 -8.46,-19.33 -12.71,-42.34 -12.71,-69.03 0,-16.72 1.47,-32.37 4.47,-46.96 3,-14.59 9.07,-27.07 18.16,-37.42 9.1,-10.35 21.74,-15.51 37.96,-15.51 12.72,0 23.09,3.11 31.07,9.35 7.98,6.24 14.08,14.22 18.33,23.95 4.24,9.73 7.12,20.2 8.62,31.41 1.5,11.22 2.24,22.95 2.24,35.19 0,16.46 -1.49,31.86 -4.5,46.2 -2.97,14.35 -8.91,26.57 -17.78,36.67 -8.84,10.1 -21.49,15.15 -37.97,15.15zm0 -7.49c10.73,0 18.72,-5.48 23.95,-16.45 5.24,-10.98 8.5,-23.09 9.74,-36.29 1.25,-13.22 1.86,-27.31 1.86,-42.29 0,-14.46 -0.61,-27.81 -1.86,-40.04 -1.24,-12.22 -4.5,-23.24 -9.74,-33.1 -5.23,-9.87 -13.21,-14.79 -23.95,-14.79 -10.72,0 -18.71,4.99 -23.94,14.97 -5.24,9.97 -8.46,21.02 -9.71,33.11 -1.24,12.1 -1.88,25.39 -1.88,39.85 0,10.49 0.25,20.47 0.77,29.93 0.48,9.49 1.85,19.28 4.08,29.39 2.24,10.1 5.87,18.58 10.86,25.43 4.98,6.86 11.58,10.29 19.82,10.29z"/>
   <path class="fil2" d="M13617.84 7658.38l0 -10.11c23.95,0 35.92,-3 35.92,-8.99l0 -151.15c-9.71,4.99 -22.19,7.47 -37.39,7.47l0 -10.1c23.43,0 41.15,-6.24 53.13,-18.69l4.09 0c0.51,0 1.08,0.31 1.68,0.92 0.64,0.62 0.96,1.18 0.96,1.68l0 169.86c0,5.99 11.97,8.99 35.92,8.99l0 10.11 -94.32 0z"/>
   <path class="fil2" d="M13749.19 7658.38l0 -7.86c0,-0.5 0.26,-1 0.73,-1.51l44.51 -49.37c6.77,-7.24 12.26,-13.35 16.47,-18.35 4.28,-4.97 8.44,-10.71 12.55,-17.21 4.12,-6.49 7.34,-13.03 9.74,-19.65 2.36,-6.61 3.54,-13.65 3.54,-21.13 0,-7.98 -1.43,-15.53 -4.31,-22.64 -2.87,-7.1 -7.15,-12.82 -12.9,-17.21 -5.75,-4.35 -12.71,-6.53 -20.94,-6.53 -8.24,0 -15.71,2.55 -22.45,7.66 -6.74,5.11 -11.49,11.53 -14.25,19.28 0.77,0 1.88,0 3.38,0 4.24,0 7.86,1.44 10.86,4.31 2.97,2.87 4.47,6.53 4.47,11.02 0,4.5 -1.5,8.25 -4.47,11.22 -3,3 -6.62,4.51 -10.86,4.51 -4.5,0 -8.3,-1.57 -11.43,-4.7 -3.1,-3.11 -4.66,-6.8 -4.66,-11.03 0,-7.23 1.38,-13.97 4.12,-20.19 2.75,-6.24 6.68,-11.85 11.78,-16.84 5.11,-4.99 10.86,-8.81 17.21,-11.42 6.35,-2.61 13.15,-3.91 20.4,-3.91 10.98,0 21.2,2.36 30.65,7.1 9.48,4.73 16.98,11.29 22.47,19.63 5.49,8.37 8.24,18.28 8.24,29.75 0,8.23 -1.82,16.1 -5.42,23.59 -3.61,7.47 -8.31,14.26 -14.06,20.37 -5.75,6.12 -13.02,13.1 -21.87,20.95 -8.88,7.86 -14.65,13.03 -17.4,15.54l-32.56 31.42 27.33 0c13.69,0 25.12,-0.12 34.19,-0.36 9.13,-0.25 13.92,-0.62 14.43,-1.12 2.27,-2.51 4.63,-11.37 7.12,-26.58l8.24 0 -8.24 51.27 -106.64 0z"/>
   <path class="fil2" d="M15711.46 7658.38l0 -10.11c23.95,0 35.92,-3 35.92,-8.99l0 -151.15c-9.74,4.99 -22.19,7.47 -37.42,7.47l0 -10.1c23.47,0 41.18,-6.24 53.15,-18.69l4.09 0c0.51,0 1.05,0.31 1.69,0.92 0.61,0.62 0.92,1.18 0.92,1.68l0 169.86c0,5.99 11.97,8.99 35.92,8.99l0 10.11 -94.29 0z"/>
   <path class="fil2" d="M15836.43 7610.86l0 -10.1 89.05 -132.47c0.52,-1 1.5,-1.48 3,-1.48l4.12 0c2.24,0 3.35,1.11 3.35,3.36l0 130.59 28.07 0 0 10.1 -28.07 0 0 28.42c0,3.75 2.81,6.18 8.44,7.31 5.61,1.12 12.04,1.67 19.28,1.67l0 10.11 -78.96 0 0 -10.11c7.21,0 13.67,-0.55 19.25,-1.67 5.62,-1.13 8.44,-3.57 8.44,-7.31l0 -28.42 -75.96 0zm9.71 -10.1l68.13 0 0 -101.77 -68.13 101.77z"/>
   <path class="fil2" d="M7754.71 8043.31l0 -10.85c10.25,0 20.27,-0.62 30.14,-1.87 9.83,-1.23 14.78,-3.99 14.78,-8.24l0 -171c0,-4.47 -1.24,-7.22 -3.77,-8.2 -2.46,-1.01 -6.45,-1.51 -11.97,-1.51l-13.09 0c-17.21,0 -29.28,3.74 -36.27,11.22 -3.77,3.74 -6.45,9.73 -8.05,17.96 -1.63,8.22 -3.07,18.57 -4.31,31.06l-8.98 0 5.97 -71.09 190.11 0 5.96 71.09 -8.97 0c-1.28,-13.21 -2.65,-23.77 -4.12,-31.63 -1.5,-7.86 -4.12,-13.65 -7.86,-17.39 -7.5,-7.48 -19.7,-11.22 -36.68,-11.22l-13.1 0c-3.74,0 -6.67,0.12 -8.81,0.37 -2.11,0.24 -3.8,1.11 -5.05,2.62 -1.24,1.49 -1.85,3.74 -1.85,6.72l0 171c0,4.24 4.91,7.01 14.78,8.24 9.87,1.25 19.89,1.87 30.11,1.87l0 10.85 -119 0z"/>
   <path class="fil2" d="M7939.99 8043.31l0 -10.85c6.96,0 12.77,-0.56 17.4,-1.67 4.6,-1.13 6.9,-3.94 6.9,-8.44l0 -84.93c0,-7.98 -1.53,-12.84 -4.66,-14.59 -3.1,-1.75 -9.29,-2.63 -18.52,-2.63l0 -11.2 44.89 -3.38 0 116.73c0,4.5 2.01,7.3 6,8.44 3.99,1.11 9.23,1.67 15.71,1.67l0 10.85 -67.73 0zm13.1 -191.19c0,-4.51 1.76,-8.5 5.23,-11.97 3.48,-3.5 7.35,-5.25 11.62,-5.25 2.97,0 5.85,0.81 8.59,2.42 2.75,1.63 4.86,3.82 6.35,6.56 1.5,2.74 2.27,5.48 2.27,8.25 0,4.47 -1.69,8.46 -5.08,11.96 -3.36,3.48 -7.41,5.22 -12.14,5.22 -4.27,0 -8.14,-1.74 -11.62,-5.22 -3.48,-3.5 -5.23,-7.49 -5.23,-11.96z"/>
   <path class="fil2" d="M8027.41 8043.31l0 -10.85c7,0 12.77,-0.56 17.4,-1.67 4.63,-1.13 6.93,-3.94 6.93,-8.44l0 -84.93c0,-5.5 -0.87,-9.49 -2.62,-11.97 -1.76,-2.5 -4.18,-3.99 -7.31,-4.48 -3.12,-0.51 -7.92,-0.77 -14.4,-0.77l0 -11.2 44.93 -3.38 0 30.67c4.22,-8.97 10.47,-16.33 18.68,-22.07 8.24,-5.73 17.11,-8.6 26.59,-8.6 23.95,0 38.03,9.73 42.25,29.19 3.99,-8.73 9.99,-15.78 17.97,-21.14 7.98,-5.37 16.85,-8.05 26.56,-8.05 9.22,0 17.08,1.56 23.59,4.66 6.44,3.13 11.33,7.81 14.56,14.04 3.25,6.24 4.88,13.97 4.88,23.21l0 74.83c0,4.5 2.3,7.3 6.9,8.44 4.63,1.11 10.44,1.67 17.4,1.67l0 10.85 -71.07 0 0 -10.85c7,0 12.81,-0.56 17.4,-1.67 4.62,-1.13 6.92,-3.94 6.92,-8.44l0 -73.71c0,-10.47 -1.5,-18.9 -4.5,-25.25 -3,-6.36 -9.1,-9.55 -18.33,-9.55 -11.97,0 -21.84,4.81 -29.57,14.4 -7.73,9.61 -11.58,20.53 -11.58,32.74l0 61.37c0,4.5 2.24,7.3 6.73,8.44 4.5,1.11 10.34,1.67 17.59,1.67l0 10.85 -71.49 0 0 -10.85c7.25,0 13.09,-0.56 17.59,-1.67 4.5,-1.13 6.73,-3.94 6.73,-8.44l0 -73.71c0,-10.23 -1.44,-18.58 -4.31,-25.07 -2.84,-6.48 -8.91,-9.73 -18.14,-9.73 -11.97,0 -21.84,4.81 -29.57,14.4 -7.72,9.61 -11.58,20.53 -11.58,32.74l0 61.37c0,4.5 2.24,7.3 6.73,8.44 4.47,1.11 10.22,1.67 17.21,1.67l0 10.85 -71.11 0z"/>
   <path class="fil2" d="M8358.92 8046.69c-12.71,0 -24.33,-3.3 -34.8,-9.92 -10.47,-6.62 -18.77,-15.49 -24.87,-26.57 -6.1,-11.11 -9.17,-22.76 -9.17,-35 0,-12.21 2.75,-23.81 8.21,-34.78 5.49,-10.98 13.22,-19.82 23.21,-26.57 9.96,-6.73 20.94,-10.1 32.92,-10.1 9.74,0 18.1,1.62 25.06,4.87 7,3.24 12.81,7.67 17.43,13.3 4.6,5.59 8.05,12.27 10.28,20.01 2.24,7.72 3.36,16.21 3.36,25.43 0,2.74 -1,4.12 -2.97,4.12l-90.2 0 0 3.38c0,17.21 3.48,31.98 10.5,44.33 6.96,12.35 18.3,18.54 34.04,18.54 6.23,0 12.06,-1.45 17.56,-4.32 5.52,-2.87 10.25,-6.8 14.25,-11.78 3.99,-4.99 6.61,-10.49 7.85,-16.48 0.26,-0.48 0.71,-1.04 1.31,-1.67 0.64,-0.62 1.19,-0.94 1.69,-0.94l3 0c1.97,0 2.97,1.38 2.97,4.12 -2.75,11.72 -8.98,21.33 -18.72,28.81 -9.74,7.48 -20.69,11.24 -32.92,11.24zm-41.15 -83.08l70.72 0c0,-7.75 -1.09,-15.6 -3.19,-23.59 -2.11,-7.98 -5.75,-14.64 -10.85,-19.99 -5.11,-5.37 -11.78,-8.05 -20.02,-8.05 -11.72,0 -20.75,5.48 -27.11,16.45 -6.39,10.97 -9.55,22.7 -9.55,35.17z"/>
   <path class="fil2" d="M8623.84 8120.39c-11.46,-8.98 -21.36,-19.4 -29.72,-31.24 -8.36,-11.85 -15.2,-24.45 -20.56,-37.8 -5.37,-13.34 -9.36,-27.31 -11.97,-41.9 -2.62,-14.59 -3.93,-29.24 -3.93,-43.96 0,-14.98 1.31,-29.76 3.93,-44.36 2.62,-14.59 6.61,-28.61 11.97,-42.07 5.37,-13.49 12.26,-26.07 20.75,-37.81 8.49,-11.72 18.33,-21.94 29.53,-30.68 0,-0.49 0.52,-0.73 1.54,-0.73l2.97 0c0.51,0 0.99,0.24 1.49,0.73 0.52,0.5 0.74,1.12 0.74,1.87 0,1 -0.14,1.76 -0.35,2.25 -10.25,9.72 -18.71,20.26 -25.45,31.6 -6.73,11.35 -12.16,23.45 -16.28,36.3 -4.09,12.85 -7.09,26.14 -8.97,39.85 -1.88,13.71 -2.81,28.06 -2.81,43.04 0,65.85 17.72,115.98 53.13,150.39 0.52,0.5 0.74,1.38 0.74,2.64 0,0.49 -0.23,1.05 -0.74,1.67 -0.51,0.62 -0.99,0.94 -1.49,0.94l-2.97 0c-1.02,0 -1.54,-0.25 -1.54,-0.75z"/>
   <path class="fil2" d="M8659.59 8043.31l0 -10.85c7,0 12.77,-0.56 17.44,-1.67 4.6,-1.13 6.9,-3.94 6.9,-8.44l0 -84.93c0,-5.5 -0.87,-9.49 -2.62,-11.97 -1.76,-2.5 -4.18,-3.99 -7.28,-4.48 -3.13,-0.51 -7.96,-0.77 -14.44,-0.77l0 -11.2 44.93 -3.38 0 30.67c4.22,-8.97 10.47,-16.33 18.68,-22.07 8.24,-5.73 17.11,-8.6 26.59,-8.6 23.95,0 38.03,9.73 42.25,29.19 3.99,-8.73 9.99,-15.78 17.97,-21.14 7.98,-5.37 16.85,-8.05 26.56,-8.05 9.22,0 17.08,1.56 23.59,4.66 6.44,3.13 11.33,7.81 14.56,14.04 3.25,6.24 4.88,13.97 4.88,23.21l0 74.83c0,4.5 2.3,7.3 6.93,8.44 4.6,1.11 10.41,1.67 17.37,1.67l0 10.85 -71.07 0 0 -10.85c7,0 12.81,-0.56 17.4,-1.67 4.62,-1.13 6.92,-3.94 6.92,-8.44l0 -73.71c0,-10.47 -1.5,-18.9 -4.5,-25.25 -3,-6.36 -9.1,-9.55 -18.33,-9.55 -11.97,0 -21.84,4.81 -29.57,14.4 -7.73,9.61 -11.58,20.53 -11.58,32.74l0 61.37c0,4.5 2.24,7.3 6.73,8.44 4.5,1.11 10.34,1.67 17.59,1.67l0 10.85 -71.49 0 0 -10.85c7.25,0 13.09,-0.56 17.59,-1.67 4.5,-1.13 6.73,-3.94 6.73,-8.44l0 -73.71c0,-10.23 -1.44,-18.58 -4.31,-25.07 -2.84,-6.48 -8.91,-9.73 -18.14,-9.73 -11.97,0 -21.84,4.81 -29.57,14.4 -7.72,9.61 -11.58,20.53 -11.58,32.74l0 61.37c0,4.5 2.24,7.3 6.73,8.44 4.47,1.11 10.22,1.67 17.21,1.67l0 10.85 -71.11 0z"/>
   <path class="fil2" d="M8923.39 8043.31l0 -10.85c6.99,0 12.77,-0.56 17.4,-1.67 4.6,-1.13 6.9,-3.94 6.9,-8.44l0 -84.93c0,-7.98 -1.53,-12.84 -4.66,-14.59 -3.1,-1.75 -9.29,-2.63 -18.52,-2.63l0 -11.2 44.89 -3.38 0 116.73c0,4.5 2.02,7.3 6.01,8.44 3.99,1.11 9.22,1.67 15.7,1.67l0 10.85 -67.72 0zm13.09 -191.19c0,-4.51 1.76,-8.5 5.24,-11.97 3.51,-3.5 7.38,-5.25 11.62,-5.25 2.97,0 5.84,0.81 8.59,2.42 2.74,1.63 4.85,3.82 6.35,6.56 1.5,2.74 2.24,5.48 2.24,8.25 0,4.47 -1.67,8.46 -5.05,11.96 -3.35,3.48 -7.4,5.22 -12.13,5.22 -4.24,0 -8.11,-1.74 -11.62,-5.22 -3.48,-3.5 -5.24,-7.49 -5.24,-11.96z"/>
   <path class="fil2" d="M9010.81 8043.31l0 -10.85c6.99,0 12.77,-0.56 17.4,-1.67 4.6,-1.13 6.92,-3.94 6.92,-8.44l0 -84.93c0,-5.5 -0.9,-9.49 -2.62,-11.97 -1.76,-2.5 -4.18,-3.99 -7.31,-4.48 -3.1,-0.51 -7.92,-0.77 -14.4,-0.77l0 -11.2 44.92 -3.38 0 30.67c4.22,-8.97 10.44,-16.33 18.72,-22.07 8.2,-5.73 17.08,-8.6 26.53,-8.6 14.5,0 25.35,3.49 32.57,10.46 7.24,7 10.85,17.48 10.85,31.44l0 74.83c0,4.5 2.24,7.3 6.73,8.44 4.47,1.11 10.34,1.67 17.57,1.67l0 10.85 -71.45 0 0 -10.85c7.24,0 13.09,-0.56 17.59,-1.67 4.51,-1.13 6.74,-3.94 6.74,-8.44l0 -73.71c0,-10.23 -1.44,-18.58 -4.31,-25.07 -2.88,-6.48 -8.91,-9.73 -18.14,-9.73 -11.97,0 -21.84,4.81 -29.57,14.4 -7.73,9.61 -11.59,20.53 -11.59,32.74l0 61.37c0,4.5 2.24,7.3 6.74,8.44 4.47,1.11 10.22,1.67 17.21,1.67l0 10.85 -71.1 0z"/>
   <path class="fil2" d="M9197.27 8121.14c-1.72,0 -2.62,-0.88 -2.62,-2.62 0,-1 0.13,-1.76 0.38,-2.25 35.67,-34.67 53.52,-84.93 53.52,-150.78 0,-65.85 -17.59,-115.99 -52.78,-150.41 -0.73,-0.52 -1.11,-1.39 -1.11,-2.63 0,-0.75 0.25,-1.38 0.77,-1.87 0.47,-0.49 1.08,-0.73 1.85,-0.73l3 0c0.48,0 0.99,0.24 1.5,0.73 14.97,11.74 27.36,26.02 37.19,42.85 9.87,16.84 17.11,34.75 21.75,53.69 4.6,18.97 6.9,38.43 6.9,58.39 0,14.72 -1.25,29.18 -3.74,43.39 -2.49,14.22 -6.42,28.26 -11.78,42.09 -5.36,13.84 -12.23,26.63 -20.59,38.37 -8.36,11.72 -18.26,22.07 -29.72,31.05 -0.52,0.5 -1.02,0.75 -1.5,0.75l-3 0z"/>
   <line class="fil1 str1" x1="1173.38" y1="7327.6" x2="1173.38" y2= "5986.59" />
   <line class="fil1 str1" x1="1173.38" y1="7327.6" x2="1319.92" y2= "7327.6" />
   <line class="fil1 str1" x1="1173.38" y1="5986.59" x2="1319.92" y2= "5986.59" />
   <path class="fil2" d="M1012.14 7402.93c-23.45,0 -39.42,-9.67 -47.9,-29 -8.48,-19.33 -12.72,-42.34 -12.72,-69.03 0,-16.72 1.49,-32.37 4.49,-46.95 2.99,-14.6 9.04,-27.08 18.15,-37.43 9.09,-10.35 21.77,-15.51 37.98,-15.51 12.73,0 23.08,3.11 31.06,9.35 7.97,6.24 14.09,14.22 18.32,23.95 4.25,9.73 7.11,20.2 8.62,31.41 1.51,11.23 2.25,22.95 2.25,35.19 0,16.46 -1.51,31.87 -4.5,46.2 -3,14.35 -8.91,26.57 -17.78,36.67 -8.85,10.1 -21.51,15.15 -37.98,15.15zm0 -7.49c10.72,0 18.71,-5.48 23.95,-16.45 5.24,-10.97 8.48,-23.08 9.73,-36.29 1.23,-13.21 1.86,-27.31 1.86,-42.29 0,-14.46 -0.62,-27.81 -1.86,-40.03 -1.25,-12.23 -4.49,-23.25 -9.73,-33.11 -5.24,-9.87 -13.22,-14.79 -23.95,-14.79 -10.72,0 -18.71,4.99 -23.95,14.97 -5.24,9.97 -8.48,21.02 -9.73,33.12 -1.23,12.09 -1.86,25.38 -1.86,39.84 0,10.49 0.25,20.47 0.73,29.93 0.51,9.49 1.87,19.28 4.12,29.39 2.24,10.11 5.86,18.59 10.85,25.43 4.99,6.86 11.6,10.29 19.83,10.29z"/>
   <path class="fil2" d="M788.65 6061.93c-23.46,0 -39.42,-9.68 -47.9,-29 -8.49,-19.33 -12.74,-42.35 -12.74,-69.04 0,-16.72 1.51,-32.37 4.5,-46.95 3,-14.6 9.05,-27.08 18.16,-37.43 9.09,-10.34 21.75,-15.51 37.98,-15.51 12.71,0 23.05,3.12 31.03,9.35 7.98,6.24 14.09,14.22 18.35,23.95 4.24,9.73 7.1,20.21 8.59,31.42 1.5,11.22 2.24,22.94 2.24,35.18 0,16.46 -1.48,31.87 -4.48,46.21 -2.99,14.34 -8.91,26.56 -17.76,36.66 -8.87,10.11 -21.52,15.16 -37.98,15.16zm0 -7.5c10.72,0 18.7,-5.48 23.95,-16.44 5.22,-10.98 8.46,-23.09 9.71,-36.29 1.25,-13.22 1.87,-27.31 1.87,-42.3 0,-14.46 -0.62,-27.8 -1.87,-40.03 -1.25,-12.22 -4.49,-23.25 -9.71,-33.1 -5.25,-9.87 -13.23,-14.8 -23.95,-14.8 -10.73,0 -18.72,5 -23.95,14.97 -5.25,9.98 -8.51,21.02 -9.76,33.12 -1.24,12.1 -1.86,25.38 -1.86,39.84 0,10.5 0.24,20.47 0.75,29.94 0.51,9.48 1.88,19.27 4.11,29.39 2.26,10.1 5.87,18.58 10.85,25.42 5,6.86 11.61,10.29 19.86,10.29z"/>
   <path class="fil2" d="M884.79 6039.85c0,-4.5 1.57,-8.24 4.7,-11.22 3.11,-3 6.79,-4.5 11.04,-4.5 2.5,0 5.04,0.69 7.66,2.05 2.62,1.38 4.62,3.3 5.98,5.81 1.38,2.5 2.06,5.11 2.06,7.86 0,3.99 -1.56,7.61 -4.69,10.85 -3.12,3.25 -6.79,4.87 -11.01,4.87 -4.25,0 -7.93,-1.62 -11.04,-4.87 -3.13,-3.24 -4.7,-6.86 -4.7,-10.85z"/>
   <path class="fil2" d="M965.38 6023.01c1.99,5.48 4.99,10.53 8.98,15.14 3.99,4.62 8.79,8.17 14.39,10.68 5.62,2.49 11.42,3.74 17.41,3.74 13.71,0 23.18,-5.37 28.42,-16.1 5.25,-10.72 7.88,-23.69 7.88,-38.91 0,-6.74 -0.06,-12.35 -0.2,-16.83 -0.13,-4.49 -0.81,-8.85 -2.05,-13.11 -1.76,-6.73 -4.81,-12.65 -9.17,-17.76 -4.36,-5.11 -9.79,-7.67 -16.29,-7.67 -6.47,0 -12.02,1 -16.64,3 -4.62,1.99 -8.36,4.31 -11.24,6.92 -2.86,2.62 -5.41,5.36 -7.66,8.22 -2.24,2.87 -3.76,4.44 -4.51,4.69l-2.99 0c-0.5,0 -1.12,-0.31 -1.87,-0.93 -0.74,-0.62 -1.12,-1.19 -1.12,-1.7l0 -96.14c0,-0.24 0.33,-0.7 0.96,-1.32 0.62,-0.62 1.29,-0.92 2.04,-0.92l0.76 0c12.97,6.24 26.68,9.35 41.14,9.35 14.23,0 27.95,-3.11 41.17,-9.35l0.73 0c0.75,0 1.38,0.24 1.9,0.73 0.48,0.5 0.73,1 0.73,1.51l0 3c0,0.75 -0.13,1.12 -0.37,1.12 -6.75,8.72 -15.04,15.51 -24.88,20.38 -9.86,4.87 -20.02,7.3 -30.5,7.3 -7.73,0 -15.6,-1 -23.59,-3l0 54.24c6.25,-5.23 11.87,-8.98 16.84,-11.2 5,-2.24 11.49,-3.38 19.47,-3.38 10.47,0 19.89,3.06 28.26,9.18 8.34,6.12 14.77,14.1 19.25,23.95 4.5,9.84 6.76,19.76 6.76,29.74 0,11.72 -2.82,22.45 -8.44,32.18 -5.63,9.72 -13.3,17.51 -23.01,23.38 -9.73,5.87 -20.34,8.81 -31.8,8.81 -9.49,0 -18.16,-2.43 -26.01,-7.29 -7.86,-4.89 -14.09,-11.42 -18.71,-19.65 -4.61,-8.24 -6.92,-16.96 -6.92,-26.19 0,-4.49 1.44,-8.05 4.3,-10.66 2.88,-2.63 6.43,-3.95 10.67,-3.95 4.24,0 7.72,1.38 10.48,4.12 2.74,2.74 4.11,6.24 4.11,10.49 0,3.99 -1.37,7.42 -4.11,10.29 -2.76,2.87 -6.24,4.29 -10.48,4.29 -0.75,0 -1.56,-0.06 -2.43,-0.19 -0.88,-0.11 -1.44,-0.17 -1.67,-0.17z"/>
   <line class="fil1 str2" x1="1173.38" y1="7327.6" x2="14520.08" y2= "7327.6" />
   <path class="fil2" d="M335.54 6919.52c0,1.99 -1.38,3 -4.13,3 -0.49,0 -1.37,-0.18 -2.61,-0.55 -1.25,-0.36 -2.24,-0.81 -3,-1.32 -0.75,-0.49 -1.12,-1.11 -1.12,-1.86 0,-12.73 -0.75,-21.59 -2.26,-26.57 -0.98,-2.74 -3.72,-4.73 -8.23,-5.98l-170.98 -42.65c-2,-0.51 -3.49,-0.77 -4.51,-0.77 -2.24,0 -3.48,1.26 -3.73,3.77 -0.76,3.99 -1.13,11.48 -1.13,22.44 0,2 -1.38,3 -4.12,3 -2.74,-0.75 -4.55,-1.31 -5.41,-1.67 -0.88,-0.39 -1.31,-1.58 -1.31,-3.57l0 -83.43c0,-2.24 1.38,-3.38 4.12,-3.38 0.5,0 1.29,0.21 2.42,0.59 1.14,0.36 2.14,0.8 3,1.29 0.87,0.52 1.31,1.26 1.31,2.26 0,12.72 0.76,21.58 2.25,26.57 0.99,2.73 3.73,4.73 8.24,5.99l101 25.04 -94.27 -121.96c-0.5,-0.26 -1.94,-1.57 -4.32,-3.93 -2.36,-2.38 -4.67,-3.57 -6.92,-3.57 -3.99,0 -5.98,3.49 -5.98,10.49 0,2 -1.38,3 -4.12,3 -1.74,-0.26 -3.04,-0.52 -3.93,-0.78 -0.88,-0.24 -1.56,-0.73 -2.06,-1.48 -0.5,-0.74 -0.73,-1.75 -0.73,-2.99l0 -60.26c0,-1.23 0.37,-2.11 1.12,-2.61 0.75,-0.48 1.75,-0.73 3,-0.73 0.5,0.24 1.36,0.55 2.61,0.94 1.25,0.35 2.24,0.8 3,1.28 0.74,0.52 1.12,1.26 1.12,2.26 0,15.21 6.98,31.79 20.95,49.75 0.26,0.26 0.38,0.45 0.38,0.59 0,0.12 0.06,0.31 0.19,0.54 0.11,0.25 0.17,0.38 0.17,0.38l49.77 64.34 109.27 -46.76c4.74,-2.74 7.6,-5.73 8.59,-8.98 1.01,-3.24 1.51,-8.23 1.51,-14.96 0,-2.24 1.38,-3.36 4.12,-3.36 2.23,0.73 3.91,1.41 5.05,2.04 1.12,0.63 1.68,1.83 1.68,3.57l0 72.22c0,1.74 -1.38,2.61 -4.13,2.61 -2.24,-0.25 -3.93,-0.56 -5.05,-0.93 -1.11,-0.38 -1.67,-1.45 -1.67,-3.19 0,-5.24 -0.56,-9.67 -1.68,-13.3 -1.12,-3.6 -3.57,-5.41 -7.29,-5.41 -1.5,0 -2.63,0 -3.38,0l-89.8 38.92 35.19 45.26 57.61 14.23c2.5,0.49 3.99,0.73 4.51,0.73 1.99,0 3.11,-1.25 3.35,-3.73 1.01,-3.99 1.51,-11.47 1.51,-22.44 0,-1.99 1.38,-2.99 4.12,-2.99 2.74,0.74 4.55,1.3 5.41,1.67 0.87,0.37 1.32,1.55 1.32,3.54l0 83.82z"/>
   <path class="fil2" d="M421.86 6633.88c-2.99,-0.51 -4.5,-1.38 -4.5,-2.65 0,-5.22 -0.43,-9.34 -1.29,-12.32 -0.89,-3 -2.94,-5 -6.19,-5.99l-36.66 -8.98c7.98,8.23 11.97,16.32 11.97,24.3 0,9.24 -3.37,16.42 -10.11,21.52 -6.74,5.11 -14.84,7.67 -24.33,7.67 -9.22,0 -18.77,-2.37 -28.62,-7.11 -9.84,-4.75 -18.07,-11.16 -24.68,-19.25 -6.62,-8.11 -9.92,-16.92 -9.92,-26.39 0,-4.24 1.31,-8.11 3.93,-11.59 2.62,-3.5 6.04,-6.11 10.26,-7.86 -1.48,-1 -4.21,-3.38 -8.2,-7.1 -3.99,-3.76 -5.99,-6.5 -5.99,-8.25 0,-1.49 1,-2.24 3,-2.24l120.09 30.32c2.24,0.24 3.49,0.34 3.73,0.34 1.99,0 3,-4.72 3,-14.19 0,-0.75 0.26,-1.32 0.77,-1.71 0.49,-0.36 1.11,-0.54 1.86,-0.54 1.99,0.5 3.3,0.93 3.93,1.32 0.62,0.36 0.93,1.17 0.93,2.42l0 46.02c0,1.49 -1,2.26 -3,2.26zm-42.29 -5.99c0,-5 -1.86,-9.87 -5.59,-14.62 -3.73,-4.72 -8.24,-8.95 -13.49,-12.71l-48.63 -11.97c-4.99,0.74 -9.36,2.56 -13.11,5.44 -3.73,2.85 -5.6,6.64 -5.6,11.39 0,4.74 1.99,9.23 5.98,13.49 3.99,4.23 8.73,7.71 14.24,10.46 5.72,2.74 13.58,5.43 23.56,8.05 9.97,2.62 17.83,3.93 23.56,3.93 4.74,0 9.1,-1.06 13.1,-3.17 3.99,-2.12 5.98,-5.55 5.98,-10.29z"/>
   <path class="fil2" d="M358.61 6535.76c-3.23,0 -6.79,-0.38 -10.65,-1.12 -3.86,-0.75 -7.03,-1.5 -9.52,-2.25 -2.51,-0.76 -7.38,-2.51 -14.61,-5.25 -7.23,-2.73 -10.98,-4.09 -11.24,-4.09 -5.24,-1.99 -9.47,-2.99 -12.71,-2.99 -4.49,0 -6.73,1.62 -6.73,4.86 0,5.73 2.93,10.4 8.79,14.03 5.86,3.61 12.4,6.29 19.64,8.05 1,0.24 1.5,0.86 1.5,1.87l0 2.61c0,1.25 -0.62,1.87 -1.86,1.87l-0.74 0c-8.49,-2.5 -16.11,-6.12 -22.84,-10.85 -6.72,-4.74 -10.08,-10.72 -10.08,-17.97 0,-5.23 1.67,-9.6 5.03,-13.1 3.37,-3.5 7.67,-5.25 12.93,-5.25 2.72,0 5.59,0.64 8.59,1.9 7.23,2.73 13.03,4.9 17.39,6.53 4.38,1.63 9.3,3.13 14.81,4.5 5.48,1.36 10.46,2.04 14.97,2.04 5.47,0 9.88,-1.25 13.25,-3.73 3.37,-2.5 5.05,-6.36 5.05,-11.6 0,-9.97 -7.59,-18.95 -22.81,-26.93 -4.99,-2.49 -10.84,-4.85 -17.59,-7.11 -6.73,-2.24 -12.23,-3.38 -16.48,-3.38 -4.47,0 -7.9,0.68 -10.26,2.05 -2.38,1.38 -4.87,3.19 -7.49,5.44 -2.62,2.24 -4.68,3.36 -6.18,3.36 -2.99,0 -5.6,-1.19 -7.85,-3.55 -2.24,-2.35 -3.36,-4.91 -3.36,-7.66 0,-3.5 1.56,-6 4.67,-7.49 3.11,-1.51 6.67,-2.26 10.66,-2.26 4.73,0 10.41,0.69 17.02,2.06 6.61,1.38 13.47,3.25 20.56,5.63 7.12,2.36 12.67,4.67 16.66,6.91 18.73,9.49 28.08,20.47 28.08,32.93 0,9.23 -2.25,16.53 -6.76,21.89 -4.47,5.36 -11.09,8.05 -19.83,8.05z"/>
  </g>
 </g>
</svg>
