<?xml version="1.0" encoding="UTF-8"?>
<!DOCTYPE svg PUBLIC "-//W3C//DTD SVG 1.1//EN" "http://www.w3.org/Graphics/SVG/1.1/DTD/svg11.dtd">
<!-- Creator: CorelDRAW 2021 (64-Bit) -->
<svg xmlns="http://www.w3.org/2000/svg" xml:space="preserve" width="179.917mm" height="91.0166mm" version="1.1" style="shape-rendering:geometricPrecision; text-rendering:geometricPrecision; image-rendering:optimizeQuality; fill-rule:evenodd; clip-rule:evenodd"
viewBox="0 0 17308.13 8755.88"
 xmlns:xlink="http://www.w3.org/1999/xlink"
 xmlns:xodm="http://www.corel.com/coreldraw/odm/2003">
 <defs>
  <style type="text/css">
   <![CDATA[
    .str2 {stroke:#00678F;stroke-width:40.72;stroke-linejoin:round;stroke-miterlimit:10}
    .str0 {stroke:#E9EAEA;stroke-width:16.98;stroke-linejoin:round;stroke-miterlimit:10}
    .str1 {stroke:#434343;stroke-width:16.98;stroke-linecap:square;stroke-linejoin:round;stroke-miterlimit:10}
    .fil1 {fill:none;fill-rule:nonzero}
    .fil2 {fill:#434343;fill-rule:nonzero}
    .fil0 {fill:white;fill-rule:nonzero}
   ]]>
  </style>
 </defs>
 <g id="Layer_x0020_1">
  <metadata id="CorelCorpID_0Corel-Layer"/>
  <g id="_1789699164976">
   <polygon class="fil0" points="-0,8755.88 17308.13,8755.88 17308.13,0 -0,0 "/>
   <polygon class="fil0" points="-0,8755.88 17308.13,8755.88 17308.13,0 -0,0 "/>
   <polygon class="fil0" points="1247.21,1730.81 16824.52,1730.81 16824.52,279.98 1247.21,279.98 "/>
   <line class="fil1 str0" x1="1247.21" y1="1730.81" x2="1247.21" y2= "279.98" />
   <line class="fil1 str0" x1="3472.56" y1="1730.81" x2="3472.56" y2= "279.98" />
   <line class="fil1 str0" x1="5697.87" y1="1730.81" x2="5697.87" y2= "279.98" />
   <line class="fil1 str0" x1="7923.19" y1="1730.81" x2="7923.19" y2= "279.98" />
   <line class="fil1 str0" x1="10148.54" y1="1730.81" x2="10148.54" y2= "279.98" />
   <line class="fil1 str0" x1="12373.86" y1="1730.81" x2="12373.86" y2= "279.98" />
   <line class="fil1 str0" x1="14599.17" y1="1730.81" x2="14599.17" y2= "279.98" />
   <line class="fil1 str0" x1="16824.52" y1="1730.81" x2="16824.52" y2= "279.98" />
   <line class="fil1 str0" x1="16824.52" y1="1730.81" x2="1247.21" y2= "1730.81" />
   <line class="fil1 str0" x1="16824.52" y1="1247.21" x2="1247.21" y2= "1247.21" />
   <line class="fil1 str0" x1="16824.52" y1="763.59" x2="1247.21" y2= "763.59" />
   <line class="fil1 str0" x1="16824.52" y1="279.98" x2="1247.21" y2= "279.98" />
   <line class="fil1 str1" x1="1247.21" y1="1730.81" x2="16824.52" y2= "1730.81" />
   <line class="fil1 str1" x1="1247.21" y1="1730.81" x2="1247.21" y2= "1575.04" />
   <line class="fil1 str1" x1="3472.56" y1="1730.81" x2="3472.56" y2= "1575.04" />
   <line class="fil1 str1" x1="5697.87" y1="1730.81" x2="5697.87" y2= "1575.04" />
   <line class="fil1 str1" x1="7923.19" y1="1730.81" x2="7923.19" y2= "1575.04" />
   <line class="fil1 str1" x1="10148.54" y1="1730.81" x2="10148.54" y2= "1575.04" />
   <line class="fil1 str1" x1="12373.86" y1="1730.81" x2="12373.86" y2= "1575.04" />
   <line class="fil1 str1" x1="14599.17" y1="1730.81" x2="14599.17" y2= "1575.04" />
   <line class="fil1 str1" x1="16824.52" y1="1730.81" x2="16824.52" y2= "1575.04" />
   <path class="fil2" d="M1247.21 2089.16c-24.92,0 -41.89,-10.25 -50.9,-30.81 -9.01,-20.53 -13.53,-45 -13.53,-73.37 0,-17.75 1.59,-34.41 4.77,-49.92 3.18,-15.52 9.61,-28.78 19.29,-39.78 9.67,-11 23.14,-16.49 40.37,-16.49 13.53,0 24.53,3.32 33.02,9.94 8.48,6.62 14.98,15.1 19.5,25.45 4.49,10.35 7.54,21.48 9.13,33.39 1.61,11.95 2.41,24.41 2.41,37.4 0,17.51 -1.61,33.87 -4.79,49.11 -3.18,15.27 -9.47,28.23 -18.88,38.99 -9.42,10.73 -22.88,16.08 -40.38,16.08zm0 -7.94c11.4,0 19.88,-5.84 25.45,-17.52 5.57,-11.64 9.01,-24.53 10.34,-38.55 1.32,-14.05 1.97,-29.05 1.97,-44.96 0,-15.37 -0.65,-29.56 -1.97,-42.56 -1.33,-13 -4.77,-24.7 -10.34,-35.2 -5.57,-10.49 -14.05,-15.71 -25.45,-15.71 -11.4,0 -19.88,5.29 -25.45,15.92 -5.56,10.58 -9,22.33 -10.33,35.19 -1.32,12.86 -1.98,26.98 -1.98,42.36 0,11.16 0.27,21.75 0.79,31.83 0.53,10.04 1.98,20.46 4.37,31.22 2.39,10.73 6.23,19.75 11.53,27.01 5.31,7.3 12.33,10.97 21.08,10.97z"/>
   <path class="fil2" d="M3411.3 2082.4l0 -8.35c0,-0.54 0.27,-1.05 0.78,-1.59l47.31 -52.51c7.16,-7.67 13.04,-14.18 17.51,-19.48 4.55,-5.29 8.97,-11.4 13.34,-18.29 4.34,-6.89 7.8,-13.88 10.35,-20.9 2.51,-7.03 3.76,-14.5 3.76,-22.47 0,-8.48 -1.52,-16.49 -4.58,-24.06 -3.05,-7.53 -7.6,-13.64 -13.71,-18.29 -6.11,-4.62 -13.55,-6.93 -22.3,-6.93 -8.73,0 -16.7,2.71 -23.82,8.11 -7.17,5.46 -12.22,12.28 -15.14,20.5 0.82,0 2,0 3.6,0 4.51,0 8.35,1.53 11.54,4.58 3.16,3.06 4.74,6.96 4.74,11.71 0,4.79 -1.59,8.79 -4.74,11.95 -3.19,3.19 -7.03,4.78 -11.54,4.78 -4.78,0 -8.82,-1.66 -12.15,-4.98 -3.29,-3.33 -4.95,-7.23 -4.95,-11.75 0,-7.67 1.46,-14.82 4.38,-21.44 2.89,-6.62 7.06,-12.59 12.53,-17.89 5.43,-5.32 11.53,-9.36 18.29,-12.14 6.75,-2.79 13.99,-4.18 21.69,-4.18 11.64,0 22.53,2.51 32.57,7.56 10.08,5.02 18.06,11.99 23.9,20.88 5.84,8.89 8.75,19.41 8.75,31.59 0,8.75 -1.93,17.14 -5.77,25.08 -3.87,7.95 -8.82,15.17 -14.93,21.65 -6.11,6.51 -13.84,13.91 -23.24,22.26 -9.44,8.39 -15.61,13.88 -18.54,16.53l-34.57 33.4 29.04 0c14.56,0 26.68,-0.11 36.35,-0.38 9.71,-0.27 14.8,-0.68 15.33,-1.19 2.38,-2.67 4.93,-12.08 7.57,-28.26l8.75 0 -8.75 54.5 -113.35 0z"/>
   <path class="fil2" d="M5629.86 2031.91l0 -10.76 94.65 -140.78c0.54,-1.08 1.6,-1.59 3.19,-1.59l4.38 0c2.38,0 3.56,1.18 3.56,3.6l0 138.77 29.83 0 0 10.76 -29.83 0 0 30.21c0,3.96 2.99,6.55 8.96,7.77 5.97,1.18 12.79,1.76 20.47,1.76l0 10.76 -83.9 0 0 -10.76c7.67,0 14.53,-0.58 20.46,-1.76 5.97,-1.22 8.97,-3.81 8.97,-7.77l0 -30.21 -80.74 0zm10.31 -10.76l72.39 0 0 -108.16 -72.39 108.16z"/>
   <path class="fil2" d="M7923.19 2089.16c-12.73,0 -23.25,-3.36 -31.6,-10.15 -8.35,-6.75 -14.86,-15.44 -19.51,-26.02 -4.62,-10.63 -7.88,-21.83 -9.75,-33.63 -1.87,-11.77 -2.78,-23.66 -2.78,-35.57 0,-16.19 3.19,-32.34 9.57,-48.53 6.35,-16.15 15.57,-29.63 27.62,-40.36 12.08,-10.76 26.45,-16.11 43.14,-16.11 7.17,0 13.75,1.32 19.72,3.96 5.94,2.66 10.66,6.55 14.08,11.75 3.46,5.16 5.19,11.33 5.19,18.5 0,4.24 -1.39,7.73 -4.18,10.55 -2.78,2.78 -6.31,4.18 -10.55,4.18 -3.97,0 -7.44,-1.39 -10.35,-4.18 -2.92,-2.82 -4.35,-6.31 -4.35,-10.55 0,-4.01 1.42,-7.37 4.35,-10.15 2.91,-2.78 6.38,-4.18 10.35,-4.18l1.59 0c-2.65,-3.73 -6.27,-6.45 -10.92,-8.15 -4.66,-1.73 -9.61,-2.61 -14.94,-2.61 -6.07,0 -11.71,1.32 -16.9,4 -5.16,2.65 -9.87,6.2 -14.11,10.73 -4.24,4.51 -7.73,9.53 -10.52,15.09 -2.78,5.57 -4.92,11.88 -6.38,18.9 -1.46,7.03 -2.38,13.65 -2.78,19.89 -0.38,6.24 -0.58,13.98 -0.58,23.28 3.42,-8.48 8.48,-15.37 15.1,-20.7 6.62,-5.29 14.05,-7.95 22.26,-7.95 9.02,0 17.24,1.87 24.68,5.57 7.43,3.69 13.84,8.79 19.27,15.31 5.44,6.51 9.54,13.91 12.32,22.26 2.78,8.35 4.18,16.77 4.18,25.25 0,11.95 -2.65,23.35 -7.95,34.21 -5.29,10.89 -12.79,19.51 -22.46,25.86 -9.67,6.38 -20.6,9.53 -32.81,9.53zm0 -9.94c7.98,0 14.31,-1.77 19.11,-5.37 4.75,-3.6 8.28,-8.28 10.51,-14.11 2.28,-5.84 3.67,-11.77 4.18,-17.92 0.55,-6.07 0.82,-13.51 0.82,-22.26 0,-11.41 -0.62,-21.21 -1.8,-29.43 -1.18,-8.21 -4.18,-15.37 -8.93,-21.48 -4.78,-6.07 -12.22,-9.13 -22.26,-9.13 -8.24,0 -15,2.78 -20.3,8.35 -5.33,5.57 -9.23,12.59 -11.74,21.08 -2.55,8.48 -3.8,16.56 -3.8,24.26 0,2.65 0.13,4.75 0.4,6.35 0,0.27 0,0.47 0,0.61 0,0.13 -0.13,0.35 -0.4,0.58 0,8.79 0.94,17.65 2.81,26.68 1.84,8.99 5.3,16.57 10.32,22.67 5.06,6.11 12.08,9.13 21.08,9.13z"/>
   <path class="fil2" d="M10084.91 2035.88c0,-12.19 4.04,-23.01 12.12,-32.41 8.08,-9.41 18.5,-17.17 31.22,-23.28l-11.53 -7.57c-6.89,-4.48 -12.53,-10.52 -16.9,-18.06 -4.38,-7.57 -6.55,-15.61 -6.55,-24.1 0,-9.8 2.58,-18.62 7.77,-26.44 5.16,-7.84 11.95,-13.98 20.43,-18.49 8.48,-4.48 17.51,-6.75 27.08,-6.75 8.99,0 17.75,1.87 26.23,5.56 8.48,3.7 15.37,8.99 20.7,15.92 5.29,6.89 7.94,15.1 7.94,24.64 0,6.62 -1.59,12.93 -4.74,18.9 -3.23,5.97 -7.61,11.27 -13.17,15.91 -5.57,4.66 -11.51,8.55 -17.88,11.75l17.51 11.1c7.95,5.32 14.39,12.28 19.28,20.9 4.92,8.58 7.36,17.55 7.36,26.84 0,11.13 -2.98,21.21 -8.92,30.24 -6.01,8.99 -13.81,16.02 -23.49,21.08 -9.67,5.02 -19.95,7.53 -30.81,7.53 -10.62,0 -20.84,-2.1 -30.61,-6.34 -9.81,-4.24 -17.79,-10.49 -23.9,-18.7 -6.11,-8.22 -9.13,-17.61 -9.13,-28.23zm16.7 0c0,8.21 2.17,15.64 6.55,22.26 4.38,6.62 10.22,11.81 17.51,15.51 7.3,3.7 14.9,5.57 22.88,5.57 11.91,0 22.67,-3.43 32.21,-10.32 9.53,-6.92 14.32,-16.05 14.32,-27.46 0,-3.69 -0.75,-7.49 -2.21,-11.33 -1.45,-3.84 -3.56,-7.37 -6.34,-10.55 -2.79,-3.16 -5.91,-5.67 -9.37,-7.53l-40.93 -26.68c-6.38,3.46 -12.22,7.77 -17.51,12.93 -5.29,5.19 -9.47,10.96 -12.53,17.31 -3.05,6.38 -4.58,13.13 -4.58,20.3zm21.08 -93.06l36.99 23.86c8.48,-5.06 15.44,-11.1 20.88,-18.12 5.43,-7.03 8.14,-14.9 8.14,-23.66 0,-6.89 -1.9,-13.2 -5.73,-18.9 -3.87,-5.67 -8.82,-10.11 -14.93,-13.3 -6.11,-3.19 -12.73,-4.78 -19.88,-4.78 -6.11,0 -12.26,1.18 -18.5,3.6 -6.2,2.37 -11.4,5.9 -15.51,10.51 -4.11,4.65 -6.18,10.15 -6.18,16.53 0,9.53 4.92,17.65 14.73,24.27z"/>
   <path class="fil2" d="M12249.38 2082.4l0 -10.76c25.45,0 38.18,-3.16 38.18,-9.53l0 -160.67c-10.35,5.29 -23.59,7.95 -39.74,7.95l0 -10.73c24.91,0 43.74,-6.66 56.47,-19.88l4.35 0c0.54,0 1.15,0.34 1.8,0.98 0.67,0.67 1.01,1.25 1.01,1.8l0 180.55c0,6.38 12.73,9.53 38.18,9.53l0 10.76 -100.25 0z"/>
   <path class="fil2" d="M12450.22 2089.16c-24.91,0 -41.88,-10.25 -50.9,-30.81 -8.99,-20.53 -13.51,-45 -13.51,-73.37 0,-17.75 1.56,-34.41 4.75,-49.92 3.18,-15.52 9.64,-28.78 19.31,-39.78 9.67,-11 23.11,-16.49 40.35,-16.49 13.52,0 24.54,3.32 33.03,9.94 8.48,6.62 14.97,15.1 19.48,25.45 4.51,10.35 7.57,21.48 9.16,33.39 1.6,11.95 2.38,24.41 2.38,37.4 0,17.51 -1.59,33.87 -4.78,49.11 -3.16,15.27 -9.47,28.23 -18.9,38.99 -9.4,10.73 -22.84,16.08 -40.36,16.08zm0 -7.94c11.41,0 19.89,-5.84 25.45,-17.52 5.57,-11.64 9.03,-24.53 10.35,-38.55 1.33,-14.05 1.97,-29.05 1.97,-44.96 0,-15.37 -0.64,-29.56 -1.97,-42.56 -1.32,-13 -4.78,-24.7 -10.35,-35.2 -5.56,-10.49 -14.05,-15.71 -25.45,-15.71 -11.4,0 -19.88,5.29 -25.45,15.92 -5.57,10.58 -8.99,22.33 -10.32,35.19 -1.32,12.86 -2,26.98 -2,42.36 0,11.16 0.27,21.75 0.82,31.83 0.51,10.04 1.96,20.46 4.34,31.22 2.38,10.73 6.24,19.75 11.54,27.01 5.29,7.3 12.31,10.97 21.07,10.97z"/>
   <path class="fil2" d="M14474.69 2082.4l0 -10.76c25.45,0 38.18,-3.16 38.18,-9.53l0 -160.67c-10.32,5.29 -23.59,7.95 -39.74,7.95l0 -10.73c24.91,0 43.74,-6.66 56.47,-19.88l4.35 0c0.54,0 1.14,0.34 1.79,0.98 0.68,0.67 1.02,1.25 1.02,1.8l0 180.55c0,6.38 12.73,9.53 38.18,9.53l0 10.76 -100.25 0z"/>
   <path class="fil2" d="M14614.31 2082.4l0 -8.35c0,-0.54 0.28,-1.05 0.78,-1.59l47.31 -52.51c7.2,-7.67 13.04,-14.18 17.51,-19.48 4.55,-5.29 8.97,-11.4 13.34,-18.29 4.38,-6.89 7.8,-13.88 10.35,-20.9 2.51,-7.03 3.76,-14.5 3.76,-22.47 0,-8.48 -1.52,-16.49 -4.58,-24.06 -3.05,-7.53 -7.6,-13.64 -13.71,-18.29 -6.11,-4.62 -13.51,-6.93 -22.26,-6.93 -8.75,0 -16.7,2.71 -23.86,8.11 -7.17,5.46 -12.22,12.28 -15.14,20.5 0.82,0 2,0 3.6,0 4.51,0 8.35,1.53 11.54,4.58 3.16,3.06 4.75,6.96 4.75,11.71 0,4.79 -1.6,8.79 -4.75,11.95 -3.19,3.19 -7.03,4.78 -11.54,4.78 -4.78,0 -8.82,-1.66 -12.15,-4.98 -3.29,-3.33 -4.95,-7.23 -4.95,-11.75 0,-7.67 1.46,-14.82 4.38,-21.44 2.92,-6.62 7.1,-12.59 12.53,-17.89 5.44,-5.32 11.54,-9.36 18.3,-12.14 6.75,-2.79 13.98,-4.18 21.68,-4.18 11.67,0 22.53,2.51 32.58,7.56 10.07,5.02 18.05,11.99 23.89,20.88 5.84,8.89 8.75,19.41 8.75,31.59 0,8.75 -1.93,17.14 -5.76,25.08 -3.84,7.95 -8.83,15.17 -14.94,21.65 -6.11,6.51 -13.84,13.91 -23.24,22.26 -9.44,8.39 -15.57,13.88 -18.5,16.53l-34.61 33.4 29.05 0c14.56,0 26.71,-0.11 36.34,-0.38 9.71,-0.27 14.8,-0.68 15.33,-1.19 2.41,-2.67 4.93,-12.08 7.57,-28.26l8.75 0 -8.75 54.5 -113.35 0z"/>
   <path class="fil2" d="M16700.04 2082.4l0 -10.76c25.45,0 38.18,-3.16 38.18,-9.53l0 -160.67c-10.35,5.29 -23.59,7.95 -39.77,7.95l0 -10.73c24.94,0 43.77,-6.66 56.5,-19.88l4.35 0c0.54,0 1.12,0.34 1.8,0.98 0.64,0.67 0.98,1.25 0.98,1.8l0 180.55c0,6.38 12.73,9.53 38.18,9.53l0 10.76 -100.22 0z"/>
   <path class="fil2" d="M16832.87 2031.91l0 -10.76 94.65 -140.78c0.55,-1.08 1.6,-1.59 3.19,-1.59l4.38 0c2.38,0 3.56,1.18 3.56,3.6l0 138.77 29.83 0 0 10.76 -29.83 0 0 30.21c0,3.96 2.99,6.55 8.97,7.77 5.96,1.18 12.79,1.76 20.49,1.76l0 10.76 -83.93 0 0 -10.76c7.67,0 14.53,-0.58 20.46,-1.76 5.97,-1.22 8.97,-3.81 8.97,-7.77l0 -30.21 -80.74 0zm10.32 -10.76l72.42 0 0 -108.16 -72.42 108.16z"/>
   <line class="fil1 str1" x1="1247.21" y1="1730.81" x2="1247.21" y2= "279.98" />
   <line class="fil1 str1" x1="1247.21" y1="1730.81" x2="1402.97" y2= "1730.81" />
   <line class="fil1 str1" x1="1247.21" y1="1247.21" x2="1402.97" y2= "1247.21" />
   <line class="fil1 str1" x1="1247.21" y1="763.59" x2="1402.97" y2= "763.59" />
   <line class="fil1 str1" x1="1247.21" y1="279.98" x2="1402.97" y2= "279.98" />
   <path class="fil2" d="M1075.82 1810.88c-24.93,0 -41.9,-10.26 -50.91,-30.82 -9.01,-20.53 -13.52,-45 -13.52,-73.37 0,-17.75 1.59,-34.41 4.77,-49.92 3.17,-15.51 9.61,-28.78 19.29,-39.78 9.66,-11 23.14,-16.49 40.37,-16.49 13.53,0 24.53,3.33 33.02,9.94 8.48,6.62 14.98,15.1 19.47,25.45 4.52,10.35 7.56,21.48 9.16,33.4 1.61,11.94 2.4,24.4 2.4,37.39 0,17.52 -1.61,33.87 -4.78,49.11 -3.18,15.27 -9.47,28.23 -18.89,38.99 -9.41,10.73 -22.87,16.09 -40.37,16.09zm0 -7.95c11.4,0 19.88,-5.84 25.45,-17.51 5.57,-11.64 9.01,-24.54 10.34,-38.56 1.31,-14.05 1.97,-29.05 1.97,-44.96 0,-15.37 -0.66,-29.56 -1.97,-42.56 -1.33,-13 -4.77,-24.7 -10.34,-35.19 -5.57,-10.49 -14.05,-15.72 -25.45,-15.72 -11.4,0 -19.88,5.3 -25.45,15.92 -5.57,10.59 -9.01,22.33 -10.34,35.19 -1.31,12.86 -1.97,26.98 -1.97,42.36 0,11.16 0.27,21.75 0.78,31.83 0.54,10.04 1.99,20.46 4.38,31.22 2.39,10.73 6.23,19.76 11.53,27.02 5.3,7.29 12.33,10.96 21.08,10.96z"/>
   <path class="fil2" d="M861.85 1320.51l0 -8.35c0,-0.55 0.27,-1.06 0.8,-1.6l47.31 -52.5c7.16,-7.68 13.01,-14.19 17.52,-19.48 4.49,-5.3 8.94,-11.41 13.3,-18.3 4.4,-6.89 7.84,-13.88 10.37,-20.9 2.5,-7.02 3.76,-14.49 3.76,-22.46 0,-8.48 -1.52,-16.5 -4.59,-24.07 -3.03,-7.53 -7.61,-13.64 -13.7,-18.29 -6.1,-4.62 -13.53,-6.93 -22.27,-6.93 -8.75,0 -16.69,2.72 -23.87,8.11 -7.16,5.46 -12.2,12.28 -15.11,20.5 0.8,0 1.99,0 3.6,0 4.49,0 8.33,1.53 11.52,4.58 3.18,3.06 4.77,6.96 4.77,11.72 0,4.78 -1.59,8.78 -4.77,11.94 -3.18,3.19 -7.02,4.79 -11.52,4.79 -4.79,0 -8.84,-1.66 -12.15,-4.99 -3.31,-3.33 -4.97,-7.22 -4.97,-11.74 0,-7.68 1.48,-14.83 4.4,-21.45 2.91,-6.62 7.06,-12.59 12.52,-17.88 5.43,-5.33 11.52,-9.37 18.31,-12.15 6.74,-2.78 13.97,-4.18 21.65,-4.18 11.67,0 22.54,2.51 32.6,7.57 10.09,5.02 18.04,11.98 23.88,20.87 5.84,8.9 8.76,19.41 8.76,31.6 0,8.75 -1.94,17.13 -5.78,25.08 -3.86,7.94 -8.83,15.17 -14.91,21.65 -6.1,6.52 -13.86,13.92 -23.27,22.27 -9.43,8.38 -15.58,13.87 -18.51,16.53l-34.58 33.39 29.03 0c14.58,0 26.71,-0.11 36.37,-0.38 9.7,-0.27 14.8,-0.67 15.32,-1.18 2.39,-2.68 4.92,-12.08 7.56,-28.27l8.76 0 -8.76 54.51 -113.35 0z"/>
   <path class="fil2" d="M1075.82 1327.26c-24.93,0 -41.9,-10.26 -50.91,-30.82 -9.01,-20.53 -13.52,-44.99 -13.52,-73.37 0,-17.75 1.59,-34.41 4.77,-49.92 3.17,-15.51 9.61,-28.78 19.29,-39.78 9.66,-11 23.14,-16.49 40.37,-16.49 13.53,0 24.53,3.33 33.02,9.95 8.48,6.62 14.98,15.09 19.47,25.45 4.52,10.35 7.56,21.49 9.16,33.4 1.61,11.95 2.4,24.4 2.4,37.39 0,17.52 -1.61,33.87 -4.78,49.11 -3.18,15.28 -9.47,28.23 -18.89,39 -9.41,10.72 -22.87,16.08 -40.37,16.08zm0 -7.95c11.4,0 19.88,-5.84 25.45,-17.51 5.57,-11.64 9.01,-24.54 10.34,-38.56 1.31,-14.05 1.97,-29.04 1.97,-44.96 0,-15.37 -0.66,-29.56 -1.97,-42.56 -1.33,-13 -4.77,-24.7 -10.34,-35.19 -5.57,-10.49 -14.05,-15.72 -25.45,-15.72 -11.4,0 -19.88,5.3 -25.45,15.92 -5.57,10.59 -9.01,22.33 -10.34,35.19 -1.31,12.86 -1.97,26.98 -1.97,42.36 0,11.17 0.27,21.75 0.78,31.83 0.54,10.04 1.99,20.46 4.38,31.23 2.39,10.72 6.23,19.75 11.53,27.01 5.3,7.29 12.33,10.96 21.08,10.96z"/>
   <path class="fil2" d="M855.1 786.39l0 -10.76 94.65 -140.77c0.53,-1.09 1.59,-1.6 3.18,-1.6l4.37 0c2.39,0 3.57,1.19 3.57,3.6l0 138.77 29.84 0 0 10.76 -29.84 0 0 30.21c0,3.97 3,6.55 8.97,7.77 5.95,1.19 12.79,1.77 20.49,1.77l0 10.76 -83.93 0 0 -10.76c7.69,0 14.52,-0.58 20.46,-1.77 5.98,-1.22 8.97,-3.8 8.97,-7.77l0 -30.21 -80.73 0zm10.32 -10.76l72.4 0 0 -108.16 -72.4 108.16z"/>
   <path class="fil2" d="M1075.82 843.65c-24.93,0 -41.9,-10.26 -50.91,-30.81 -9.01,-20.54 -13.52,-45 -13.52,-73.37 0,-17.75 1.59,-34.42 4.77,-49.93 3.17,-15.51 9.61,-28.77 19.29,-39.77 9.66,-11 23.14,-16.5 40.37,-16.5 13.53,0 24.53,3.33 33.02,9.95 8.48,6.62 14.98,15.1 19.47,25.45 4.52,10.35 7.56,21.48 9.16,33.39 1.61,11.95 2.4,24.4 2.4,37.4 0,17.51 -1.61,33.86 -4.78,49.1 -3.18,15.28 -9.47,28.23 -18.89,39 -9.41,10.72 -22.87,16.08 -40.37,16.08zm0 -7.95c11.4,0 19.88,-5.83 25.45,-17.51 5.57,-11.64 9.01,-24.54 10.34,-38.56 1.31,-14.05 1.97,-29.04 1.97,-44.96 0,-15.37 -0.66,-29.56 -1.97,-42.56 -1.33,-13 -4.77,-24.7 -10.34,-35.19 -5.57,-10.49 -14.05,-15.71 -25.45,-15.71 -11.4,0 -19.88,5.29 -25.45,15.91 -5.57,10.59 -9.01,22.33 -10.34,35.19 -1.31,12.87 -1.97,26.98 -1.97,42.36 0,11.17 0.27,21.75 0.78,31.83 0.54,10.04 1.99,20.46 4.38,31.23 2.39,10.73 6.23,19.75 11.53,27.01 5.3,7.29 12.33,10.96 21.08,10.96z"/>
   <path class="fil2" d="M923.11 360.04c-12.73,0 -23.26,-3.36 -31.61,-10.15 -8.34,-6.75 -14.85,-15.44 -19.49,-26.03 -4.65,-10.62 -7.89,-21.82 -9.76,-33.63 -1.84,-11.77 -2.77,-23.65 -2.77,-35.57 0,-16.18 3.18,-32.34 9.55,-48.52 6.36,-16.16 15.57,-29.63 27.64,-40.36 12.06,-10.76 26.45,-16.12 43.15,-16.12 7.16,0 13.73,1.33 19.7,3.97 5.95,2.65 10.65,6.55 14.09,11.75 3.44,5.16 5.17,11.33 5.17,18.49 0,4.24 -1.39,7.74 -4.18,10.55 -2.78,2.79 -6.29,4.18 -10.53,4.18 -3.96,0 -7.41,-1.39 -10.33,-4.18 -2.91,-2.81 -4.38,-6.31 -4.38,-10.55 0,-4 1.46,-7.36 4.38,-10.14 2.92,-2.79 6.37,-4.18 10.33,-4.18l1.61 0c-2.65,-3.73 -6.3,-6.46 -10.94,-8.15 -4.65,-1.73 -9.62,-2.62 -14.92,-2.62 -6.1,0 -11.73,1.33 -16.9,4.01 -5.18,2.65 -9.89,6.2 -14.13,10.72 -4.24,4.52 -7.75,9.54 -10.53,15.1 -2.78,5.57 -4.91,11.88 -6.37,18.9 -1.45,7.02 -2.39,13.64 -2.77,19.88 -0.39,6.25 -0.58,13.99 -0.58,23.29 3.44,-8.48 8.47,-15.38 15.08,-20.7 6.64,-5.3 14.06,-7.95 22.27,-7.95 9.03,0 17.25,1.87 24.68,5.57 7.42,3.69 13.86,8.78 19.29,15.31 5.44,6.51 9.52,13.91 12.31,22.26 2.78,8.35 4.18,16.77 4.18,25.25 0,11.94 -2.64,23.35 -7.95,34.21 -5.3,10.89 -12.8,19.51 -22.46,25.86 -9.68,6.38 -20.62,9.53 -32.81,9.53zm0 -9.95c7.96,0 14.31,-1.76 19.09,-5.36 4.77,-3.6 8.29,-8.28 10.54,-14.12 2.25,-5.83 3.65,-11.77 4.18,-17.91 0.52,-6.08 0.78,-13.51 0.78,-22.26 0,-11.41 -0.6,-21.21 -1.77,-29.43 -1.19,-8.22 -4.18,-15.37 -8.97,-21.48 -4.77,-6.08 -12.2,-9.13 -22.27,-9.13 -8.21,0 -14.97,2.78 -20.26,8.35 -5.31,5.56 -9.23,12.59 -11.73,21.07 -2.53,8.48 -3.79,16.57 -3.79,24.27 0,2.65 0.13,4.75 0.39,6.35 0,0.27 0,0.47 0,0.61 0,0.13 -0.13,0.34 -0.39,0.58 0,8.79 0.92,17.64 2.79,26.68 1.85,8.99 5.29,16.56 10.33,22.66 5.03,6.11 12.06,9.13 21.08,9.13z"/>
   <path class="fil2" d="M1075.82 360.04c-24.93,0 -41.9,-10.25 -50.91,-30.81 -9.01,-20.54 -13.52,-45 -13.52,-73.37 0,-17.75 1.59,-34.41 4.77,-49.93 3.17,-15.51 9.61,-28.77 19.29,-39.77 9.66,-11 23.14,-16.5 40.37,-16.5 13.53,0 24.53,3.33 33.02,9.95 8.48,6.62 14.98,15.1 19.47,25.45 4.52,10.35 7.56,21.48 9.16,33.39 1.61,11.95 2.4,24.41 2.4,37.4 0,17.51 -1.61,33.86 -4.78,49.1 -3.18,15.28 -9.47,28.24 -18.89,39 -9.41,10.73 -22.87,16.08 -40.37,16.08zm0 -7.94c11.4,0 19.88,-5.84 25.45,-17.52 5.57,-11.64 9.01,-24.53 10.34,-38.55 1.31,-14.05 1.97,-29.05 1.97,-44.97 0,-15.37 -0.66,-29.55 -1.97,-42.56 -1.33,-13 -4.77,-24.7 -10.34,-35.19 -5.57,-10.49 -14.05,-15.71 -25.45,-15.71 -11.4,0 -19.88,5.29 -25.45,15.91 -5.57,10.59 -9.01,22.34 -10.34,35.2 -1.31,12.86 -1.97,26.97 -1.97,42.35 0,11.17 0.27,21.76 0.78,31.83 0.54,10.05 1.99,20.47 4.38,31.23 2.39,10.73 6.23,19.75 11.53,27.01 5.3,7.3 12.33,10.97 21.08,10.97z"/>
   <polyline class="fil1 str2" points="1247.21,724.63 1525.39,744.72 1803.54,747.64 2081.72,735.76 2359.87,744.72 2638.05,766.51 2916.2,765.29 3194.38,777.41 3472.56,757.04 3750.71,743.07 4028.87,758.74 4307.05,779.34 4585.2,767.46 4863.35,744.25 5141.54,756.33 5419.72,780.73 5697.87,766.75 5976.02,746.18 6254.21,766.75 6532.36,774.73 6810.52,782.94 7088.7,778.35 7366.88,779.79 7645.04,764.31 7923.19,752.7 8201.38,771.81 8479.52,782.23 8757.68,786.81 9035.86,782.46 9314.06,765.29 9592.2,766.75 9870.36,751.71 10148.54,767.7 10426.7,789.49 10704.84,785.35 10983.04,767.93 11261.22,754.87 11539.37,767.22 11817.52,790.68 12095.71,783.17 12373.86,758.02 12652.02,772.31 12930.2,789.21 13208.39,788.98 13486.53,783.68 13764.68,784.39 14042.87,785.83 14321.02,756.8 14599.17,765.29 14877.36,787.76 15155.54,791.43 15433.7,793.08 15711.85,758.02 "/>
   <path class="fil2" d="M356.66 1561.64c0,2.1 -1.46,3.18 -4.39,3.18 -0.52,0 -1.45,-0.13 -2.77,-0.4 -1.33,-0.27 -2.39,-0.75 -3.18,-1.39 -0.8,-0.67 -1.19,-1.39 -1.19,-2.2 0,-13.51 -0.8,-22.91 -2.41,-28.21 -1.04,-2.91 -3.95,-5.05 -8.74,-6.38l-181.73 -45.34c-2.13,-0.27 -3.71,-0.38 -4.79,-0.38 -2.38,0 -3.69,1.15 -3.96,3.57 -0.81,4.24 -1.2,12.18 -1.2,23.86 0,2.41 -1.46,3.6 -4.38,3.6 -0.53,-0.28 -1.44,-0.55 -2.77,-0.82 -1.33,-0.27 -2.39,-0.71 -3.18,-1.39 -0.8,-0.64 -1.19,-1.39 -1.19,-2.17l0 -114.16c0,-10.59 1.86,-20.81 5.57,-30.61 3.69,-9.81 9.33,-17.85 16.9,-24.06 7.55,-6.21 16.77,-9.33 27.64,-9.33 14.05,0 26.58,4.95 37.57,14.89 11.02,9.95 19.57,22.27 25.66,37 6.1,14.73 9.15,28.95 9.15,42.72l0 53.73 81.92 20.29c2.13,0.24 3.71,0.38 4.79,0.38 0.79,0 1.45,-0.13 1.98,-0.38 0.53,-0.31 0.93,-0.61 1.19,-1.02 0.26,-0.4 0.38,-1.12 0.38,-2.16 1.08,-4.24 1.61,-12.36 1.61,-24.27 0,-2.14 1.46,-3.18 4.38,-3.18 2.91,0.78 4.84,1.39 5.75,1.8 0.92,0.37 1.4,1.76 1.4,4.17l0 88.69zm-112.96 -85.9l0 -46.56c0,-21.45 -5.84,-37.74 -17.49,-48.91 -5.57,-5.56 -13.79,-10.22 -24.68,-13.91 -10.85,-3.7 -20.66,-5.57 -29.41,-5.57 -10.89,0 -18.58,4.18 -23.07,12.53 -4.51,8.35 -6.77,18.63 -6.77,30.85l0 31.79c0,6.08 0.54,10.08 1.6,11.95 1.07,1.83 4.24,3.56 9.55,5.16l90.27 22.67z"/>
   <path class="fil2" d="M412.21 1304.97c0,18.84 -7.75,31.56 -23.26,38.18 -15.52,6.62 -33.87,9.94 -55.08,9.94 -13.25,0 -25.71,-1.18 -37.38,-3.6 -11.67,-2.38 -21.61,-7.12 -29.84,-14.29 -8.21,-7.16 -12.31,-17.24 -12.31,-30.24 0,-10.08 2.45,-18.3 7.36,-24.64 4.9,-6.38 11.27,-11.27 19.09,-14.73 7.82,-3.46 16.17,-5.77 25.04,-6.96 8.9,-1.19 18.24,-1.8 28.05,-1.8 13.26,0 25.59,1.18 36.99,3.56 11.4,2.41 21.14,7.16 29.22,14.32 8.1,7.2 12.14,17.24 12.14,30.24zm-5.95 0c0,-8.48 -4.39,-14.86 -13.13,-19.11 -8.76,-4.24 -18.44,-6.82 -29.05,-7.74 -10.6,-0.91 -21.87,-1.39 -33.8,-1.39 -11.41,0 -21.94,0.47 -31.61,1.39 -9.68,0.92 -18.49,3.5 -26.45,7.74 -7.96,4.24 -11.94,10.62 -11.94,19.11 0,8.75 3.98,15.17 11.94,19.28 7.96,4.11 16.77,6.65 26.45,7.56 9.67,0.92 20.2,1.39 31.61,1.39 8.48,0 16.52,-0.2 24.08,-0.61 7.55,-0.38 15.31,-1.46 23.27,-3.17 7.94,-1.72 14.7,-4.58 20.28,-8.58 5.57,-3.93 8.35,-9.26 8.35,-15.88z"/>
   <path class="fil2" d="M438.58 1013.24c-9.55,12.22 -20.63,22.74 -33.22,31.6 -12.58,8.92 -25.97,16.18 -40.15,21.89 -14.19,5.7 -29.03,9.95 -44.55,12.73 -15.51,2.78 -31.08,4.18 -46.72,4.18 -15.92,0 -31.63,-1.39 -47.14,-4.18 -15.52,-2.78 -30.43,-7.02 -44.73,-12.73 -14.31,-5.7 -27.72,-13.04 -40.18,-22.06 -12.46,-9.03 -23.33,-19.52 -32.61,-31.43 -0.53,0 -0.78,-0.51 -0.78,-1.6l0 -3.16c0,-0.54 0.25,-1.09 0.78,-1.63 0.53,-0.51 1.19,-0.78 1.99,-0.78 1.08,0 1.87,0.13 2.39,0.4 10.34,10.86 21.54,19.88 33.6,27.05 12.06,7.16 24.93,12.93 38.58,17.31 13.67,4.38 27.79,7.53 42.36,9.53 14.58,2 29.83,2.99 45.75,2.99 70,0 123.27,-18.84 159.87,-56.51 0.53,-0.51 1.45,-0.78 2.8,-0.78 0.53,0 1.13,0.27 1.79,0.78 0.65,0.54 0.99,1.09 0.99,1.63l0 3.16c0,1.09 -0.27,1.6 -0.8,1.6z"/>
   <path class="fil2" d="M360.23 882.17l-207.62 67.6c-4.49,1.87 -7.34,5.26 -8.54,10.19 -1.19,4.89 -1.79,11.33 -1.79,19.27l-11.52 0 0 -88.71 11.52 0c0,18.56 2.92,27.86 8.75,27.86l1.58 0 163.08 -52.91 -139.2 -44.94 -23.88 7.54c-4.49,1.63 -7.34,4.92 -8.54,9.98 -1.19,5.02 -1.79,11.53 -1.79,19.48l-11.52 0 0 -88.68 11.52 0c0,18.8 2.92,28.2 8.75,28.2 0.26,0 0.72,-0.13 1.39,-0.38 0.66,-0.27 1.13,-0.4 1.38,-0.4l161.89 -52.5 -153.91 -49.69c-0.55,-0.27 -1.61,-0.4 -3.18,-0.4 -5.83,0 -10,3.05 -12.53,9.13 -2.52,6.11 -3.79,12.58 -3.79,19.51l-11.52 0 0 -70.79 11.52 0c0,17.21 6.5,27.93 19.5,32.17l198.45 64.45c2.39,0.78 3.57,2.51 3.57,5.19l0 2.38c0,2.38 -1.18,3.97 -3.57,4.79l-168.25 54.47 168.25 54.87c2.39,0.82 3.57,2.51 3.57,5.19l0 2.38c0,2.38 -1.18,3.97 -3.57,4.75z"/>
   <path class="fil2" d="M439.38 618.41c0,1.87 -0.93,2.78 -2.78,2.78 -1.07,0 -1.86,-0.13 -2.4,-0.4 -36.85,-37.91 -90.27,-56.88 -160.27,-56.88 -70,0 -123.29,18.7 -159.88,56.07 -0.55,0.82 -1.47,1.22 -2.8,1.22 -0.8,0 -1.46,-0.27 -1.99,-0.81 -0.53,-0.55 -0.78,-1.19 -0.78,-1.97l0 -3.19c0,-0.54 0.25,-1.09 0.78,-1.59 12.48,-15.92 27.66,-29.09 45.54,-39.58 17.89,-10.49 36.92,-18.15 57.07,-23.08 20.15,-4.89 40.85,-7.36 62.06,-7.36 15.64,0 31.01,1.32 46.12,4 15.11,2.65 30.02,6.82 44.74,12.53 14.72,5.7 28.3,12.96 40.78,21.89 12.45,8.86 23.45,19.38 33.01,31.6 0.53,0.5 0.8,1.05 0.8,1.59l0 3.19z"/>
   <polygon class="fil0" points="1247.21,3741.61 16824.52,3741.61 16824.52,2316.24 1247.21,2316.24 "/>
   <line class="fil1 str0" x1="1247.21" y1="3741.61" x2="1247.21" y2= "2316.24" />
   <line class="fil1 str0" x1="3472.56" y1="3741.61" x2="3472.56" y2= "2316.24" />
   <line class="fil1 str0" x1="5697.87" y1="3741.61" x2="5697.87" y2= "2316.24" />
   <line class="fil1 str0" x1="7923.19" y1="3741.61" x2="7923.19" y2= "2316.24" />
   <line class="fil1 str0" x1="10148.54" y1="3741.61" x2="10148.54" y2= "2316.24" />
   <line class="fil1 str0" x1="12373.86" y1="3741.61" x2="12373.86" y2= "2316.24" />
   <line class="fil1 str0" x1="14599.17" y1="3741.61" x2="14599.17" y2= "2316.24" />
   <line class="fil1 str0" x1="16824.52" y1="3741.61" x2="16824.52" y2= "2316.24" />
   <line class="fil1 str0" x1="16824.52" y1="3741.61" x2="1247.21" y2= "3741.61" />
   <line class="fil1 str0" x1="16824.52" y1="3028.92" x2="1247.21" y2= "3028.92" />
   <line class="fil1 str0" x1="16824.52" y1="2316.24" x2="1247.21" y2= "2316.24" />
   <line class="fil1 str1" x1="1247.21" y1="3741.61" x2="16824.52" y2= "3741.61" />
   <line class="fil1 str1" x1="1247.21" y1="3741.61" x2="1247.21" y2= "3585.84" />
   <line class="fil1 str1" x1="3472.56" y1="3741.61" x2="3472.56" y2= "3585.84" />
   <line class="fil1 str1" x1="5697.87" y1="3741.61" x2="5697.87" y2= "3585.84" />
   <line class="fil1 str1" x1="7923.19" y1="3741.61" x2="7923.19" y2= "3585.84" />
   <line class="fil1 str1" x1="10148.54" y1="3741.61" x2="10148.54" y2= "3585.84" />
   <line class="fil1 str1" x1="12373.86" y1="3741.61" x2="12373.86" y2= "3585.84" />
   <line class="fil1 str1" x1="14599.17" y1="3741.61" x2="14599.17" y2= "3585.84" />
   <line class="fil1 str1" x1="16824.52" y1="3741.61" x2="16824.52" y2= "3585.84" />
   <path class="fil2" d="M1247.21 4099.96c-24.92,0 -41.89,-10.25 -50.9,-30.81 -9.01,-20.53 -13.53,-45 -13.53,-73.37 0,-17.75 1.59,-34.41 4.77,-49.93 3.18,-15.51 9.61,-28.77 19.29,-39.77 9.67,-11 23.14,-16.5 40.37,-16.5 13.53,0 24.53,3.33 33.02,9.95 8.48,6.62 14.98,15.1 19.5,25.45 4.49,10.35 7.54,21.48 9.13,33.39 1.61,11.95 2.41,24.41 2.41,37.4 0,17.51 -1.61,33.87 -4.79,49.11 -3.18,15.27 -9.47,28.23 -18.88,38.99 -9.42,10.73 -22.88,16.08 -40.38,16.08zm0 -7.94c11.4,0 19.88,-5.84 25.45,-17.52 5.57,-11.64 9.01,-24.53 10.34,-38.55 1.32,-14.05 1.97,-29.05 1.97,-44.97 0,-15.37 -0.65,-29.55 -1.97,-42.55 -1.33,-13.01 -4.77,-24.71 -10.34,-35.2 -5.57,-10.49 -14.05,-15.71 -25.45,-15.71 -11.4,0 -19.88,5.29 -25.45,15.91 -5.56,10.59 -9,22.34 -10.33,35.2 -1.32,12.86 -1.98,26.97 -1.98,42.35 0,11.17 0.27,21.76 0.79,31.83 0.53,10.05 1.98,20.47 4.37,31.23 2.39,10.73 6.23,19.75 11.53,27.01 5.31,7.3 12.33,10.97 21.08,10.97z"/>
   <path class="fil2" d="M3411.3 4093.2l0 -8.35c0,-0.54 0.27,-1.05 0.78,-1.6l47.31 -52.5c7.16,-7.67 13.04,-14.19 17.51,-19.48 4.55,-5.29 8.97,-11.4 13.34,-18.29 4.34,-6.9 7.8,-13.88 10.35,-20.91 2.51,-7.02 3.76,-14.49 3.76,-22.46 0,-8.48 -1.52,-16.49 -4.58,-24.06 -3.05,-7.53 -7.6,-13.64 -13.71,-18.3 -6.11,-4.61 -13.55,-6.92 -22.3,-6.92 -8.73,0 -16.7,2.71 -23.82,8.11 -7.17,5.46 -12.22,12.28 -15.14,20.5 0.82,0 2,0 3.6,0 4.51,0 8.35,1.52 11.54,4.58 3.16,3.05 4.74,6.96 4.74,11.71 0,4.78 -1.59,8.79 -4.74,11.95 -3.19,3.18 -7.03,4.78 -11.54,4.78 -4.78,0 -8.82,-1.66 -12.15,-4.98 -3.29,-3.33 -4.95,-7.23 -4.95,-11.75 0,-7.67 1.46,-14.83 4.38,-21.45 2.89,-6.61 7.06,-12.58 12.53,-17.88 5.43,-5.33 11.53,-9.36 18.29,-12.15 6.75,-2.78 13.99,-4.18 21.69,-4.18 11.64,0 22.53,2.51 32.57,7.57 10.08,5.02 18.06,11.98 23.9,20.88 5.84,8.89 8.75,19.41 8.75,31.59 0,8.75 -1.93,17.14 -5.77,25.08 -3.87,7.95 -8.82,15.17 -14.93,21.65 -6.11,6.51 -13.84,13.91 -23.24,22.26 -9.44,8.38 -15.61,13.88 -18.54,16.53l-34.57 33.39 29.04 0c14.56,0 26.68,-0.1 36.35,-0.37 9.71,-0.28 14.8,-0.68 15.33,-1.19 2.38,-2.68 4.93,-12.08 7.57,-28.27l8.75 0 -8.75 54.51 -113.35 0z"/>
   <path class="fil2" d="M5629.86 4042.71l0 -10.76 94.65 -140.77c0.54,-1.09 1.6,-1.6 3.19,-1.6l4.38 0c2.38,0 3.56,1.19 3.56,3.6l0 138.77 29.83 0 0 10.76 -29.83 0 0 30.2c0,3.97 2.99,6.55 8.96,7.77 5.97,1.19 12.79,1.77 20.47,1.77l0 10.76 -83.9 0 0 -10.76c7.67,0 14.53,-0.58 20.46,-1.77 5.97,-1.22 8.97,-3.8 8.97,-7.77l0 -30.2 -80.74 0zm10.31 -10.76l72.39 0 0 -108.16 -72.39 108.16z"/>
   <path class="fil2" d="M7923.19 4099.96c-12.73,0 -23.25,-3.36 -31.6,-10.15 -8.35,-6.75 -14.86,-15.44 -19.51,-26.02 -4.62,-10.63 -7.88,-21.83 -9.75,-33.64 -1.87,-11.77 -2.78,-23.65 -2.78,-35.57 0,-16.18 3.19,-32.34 9.57,-48.52 6.35,-16.16 15.57,-29.63 27.62,-40.36 12.08,-10.76 26.45,-16.12 43.14,-16.12 7.17,0 13.75,1.33 19.72,3.97 5.94,2.65 10.66,6.55 14.08,11.75 3.46,5.16 5.19,11.33 5.19,18.49 0,4.24 -1.39,7.74 -4.18,10.56 -2.78,2.78 -6.31,4.17 -10.55,4.17 -3.97,0 -7.44,-1.39 -10.35,-4.17 -2.92,-2.82 -4.35,-6.32 -4.35,-10.56 0,-4 1.42,-7.36 4.35,-10.14 2.91,-2.79 6.38,-4.18 10.35,-4.18l1.59 0c-2.65,-3.73 -6.27,-6.46 -10.92,-8.15 -4.66,-1.73 -9.61,-2.62 -14.94,-2.62 -6.07,0 -11.71,1.33 -16.9,4.01 -5.16,2.65 -9.87,6.2 -14.11,10.72 -4.24,4.52 -7.73,9.54 -10.52,15.1 -2.78,5.57 -4.92,11.88 -6.38,18.9 -1.46,7.03 -2.38,13.64 -2.78,19.89 -0.38,6.24 -0.58,13.98 -0.58,23.28 3.42,-8.48 8.48,-15.37 15.1,-20.7 6.62,-5.3 14.05,-7.95 22.26,-7.95 9.02,0 17.24,1.87 24.68,5.57 7.43,3.69 13.84,8.78 19.27,15.31 5.44,6.51 9.54,13.91 12.32,22.26 2.78,8.35 4.18,16.77 4.18,25.25 0,11.94 -2.65,23.35 -7.95,34.21 -5.29,10.89 -12.79,19.51 -22.46,25.86 -9.67,6.38 -20.6,9.53 -32.81,9.53zm0 -9.95c7.98,0 14.31,-1.76 19.11,-5.36 4.75,-3.6 8.28,-8.28 10.51,-14.11 2.28,-5.84 3.67,-11.78 4.18,-17.92 0.55,-6.08 0.82,-13.51 0.82,-22.26 0,-11.41 -0.62,-21.21 -1.8,-29.43 -1.18,-8.22 -4.18,-15.37 -8.93,-21.48 -4.78,-6.07 -12.22,-9.13 -22.26,-9.13 -8.24,0 -15,2.78 -20.3,8.35 -5.33,5.56 -9.23,12.59 -11.74,21.08 -2.55,8.48 -3.8,16.56 -3.8,24.26 0,2.65 0.13,4.75 0.4,6.35 0,0.27 0,0.47 0,0.61 0,0.13 -0.13,0.34 -0.4,0.58 0,8.79 0.94,17.65 2.81,26.68 1.84,8.99 5.3,16.57 10.32,22.67 5.06,6.11 12.08,9.12 21.08,9.12z"/>
   <path class="fil2" d="M10084.91 4046.68c0,-12.19 4.04,-23.01 12.12,-32.42 8.08,-9.4 18.5,-17.17 31.22,-23.28l-11.53 -7.56c-6.89,-4.48 -12.53,-10.52 -16.9,-18.06 -4.38,-7.57 -6.55,-15.61 -6.55,-24.1 0,-9.8 2.58,-18.63 7.77,-26.44 5.16,-7.84 11.95,-13.98 20.43,-18.5 8.48,-4.47 17.51,-6.75 27.08,-6.75 8.99,0 17.75,1.87 26.23,5.57 8.48,3.7 15.37,8.99 20.7,15.92 5.29,6.89 7.94,15.09 7.94,24.64 0,6.62 -1.59,12.93 -4.74,18.9 -3.23,5.97 -7.61,11.27 -13.17,15.91 -5.57,4.65 -11.51,8.55 -17.88,11.75l17.51 11.09c7.95,5.33 14.39,12.28 19.28,20.9 4.92,8.59 7.36,17.55 7.36,26.85 0,11.13 -2.98,21.21 -8.92,30.24 -6.01,8.99 -13.81,16.02 -23.49,21.08 -9.67,5.02 -19.95,7.53 -30.81,7.53 -10.62,0 -20.84,-2.11 -30.61,-6.35 -9.81,-4.24 -17.79,-10.49 -23.9,-18.69 -6.11,-8.22 -9.13,-17.61 -9.13,-28.23zm16.7 0c0,8.21 2.17,15.64 6.55,22.26 4.38,6.62 10.22,11.8 17.51,15.51 7.3,3.69 14.9,5.56 22.88,5.56 11.91,0 22.67,-3.42 32.21,-10.31 9.53,-6.93 14.32,-16.06 14.32,-27.46 0,-3.69 -0.75,-7.5 -2.21,-11.33 -1.45,-3.84 -3.56,-7.37 -6.34,-10.55 -2.79,-3.16 -5.91,-5.67 -9.37,-7.54l-40.93 -26.67c-6.38,3.45 -12.22,7.77 -17.51,12.93 -5.29,5.19 -9.47,10.96 -12.53,17.31 -3.05,6.38 -4.58,13.13 -4.58,20.3zm21.08 -93.06l36.99 23.86c8.48,-5.05 15.44,-11.09 20.88,-18.11 5.43,-7.03 8.14,-14.9 8.14,-23.66 0,-6.89 -1.9,-13.21 -5.73,-18.9 -3.87,-5.67 -8.82,-10.12 -14.93,-13.3 -6.11,-3.19 -12.73,-4.79 -19.88,-4.79 -6.11,0 -12.26,1.19 -18.5,3.6 -6.2,2.38 -11.4,5.91 -15.51,10.52 -4.11,4.65 -6.18,10.15 -6.18,16.53 0,9.53 4.92,17.64 14.73,24.26z"/>
   <path class="fil2" d="M12249.38 4093.2l0 -10.76c25.45,0 38.18,-3.16 38.18,-9.54l0 -160.66c-10.35,5.29 -23.59,7.94 -39.74,7.94l0 -10.72c24.91,0 43.74,-6.66 56.47,-19.89l4.35 0c0.54,0 1.15,0.35 1.8,0.99 0.67,0.67 1.01,1.25 1.01,1.8l0 180.54c0,6.39 12.73,9.54 38.18,9.54l0 10.76 -100.25 0z"/>
   <path class="fil2" d="M12450.22 4099.96c-24.91,0 -41.88,-10.25 -50.9,-30.81 -8.99,-20.53 -13.51,-45 -13.51,-73.37 0,-17.75 1.56,-34.41 4.75,-49.93 3.18,-15.51 9.64,-28.77 19.31,-39.77 9.67,-11 23.11,-16.5 40.35,-16.5 13.52,0 24.54,3.33 33.03,9.95 8.48,6.62 14.97,15.1 19.48,25.45 4.51,10.35 7.57,21.48 9.16,33.39 1.6,11.95 2.38,24.41 2.38,37.4 0,17.51 -1.59,33.87 -4.78,49.11 -3.16,15.27 -9.47,28.23 -18.9,38.99 -9.4,10.73 -22.84,16.08 -40.36,16.08zm0 -7.94c11.41,0 19.89,-5.84 25.45,-17.52 5.57,-11.64 9.03,-24.53 10.35,-38.55 1.33,-14.05 1.97,-29.05 1.97,-44.97 0,-15.37 -0.64,-29.55 -1.97,-42.55 -1.32,-13.01 -4.78,-24.71 -10.35,-35.2 -5.56,-10.49 -14.05,-15.71 -25.45,-15.71 -11.4,0 -19.88,5.29 -25.45,15.91 -5.57,10.59 -8.99,22.34 -10.32,35.2 -1.32,12.86 -2,26.97 -2,42.35 0,11.17 0.27,21.76 0.82,31.83 0.51,10.05 1.96,20.47 4.34,31.23 2.38,10.73 6.24,19.75 11.54,27.01 5.29,7.3 12.31,10.97 21.07,10.97z"/>
   <path class="fil2" d="M14474.69 4093.2l0 -10.76c25.45,0 38.18,-3.16 38.18,-9.54l0 -160.66c-10.32,5.29 -23.59,7.94 -39.74,7.94l0 -10.72c24.91,0 43.74,-6.66 56.47,-19.89l4.35 0c0.54,0 1.14,0.35 1.79,0.99 0.68,0.67 1.02,1.25 1.02,1.8l0 180.54c0,6.39 12.73,9.54 38.18,9.54l0 10.76 -100.25 0z"/>
   <path class="fil2" d="M14614.31 4093.2l0 -8.35c0,-0.54 0.28,-1.05 0.78,-1.6l47.31 -52.5c7.2,-7.67 13.04,-14.19 17.51,-19.48 4.55,-5.29 8.97,-11.4 13.34,-18.29 4.38,-6.9 7.8,-13.88 10.35,-20.91 2.51,-7.02 3.76,-14.49 3.76,-22.46 0,-8.48 -1.52,-16.49 -4.58,-24.06 -3.05,-7.53 -7.6,-13.64 -13.71,-18.3 -6.11,-4.61 -13.51,-6.92 -22.26,-6.92 -8.75,0 -16.7,2.71 -23.86,8.11 -7.17,5.46 -12.22,12.28 -15.14,20.5 0.82,0 2,0 3.6,0 4.51,0 8.35,1.52 11.54,4.58 3.16,3.05 4.75,6.96 4.75,11.71 0,4.78 -1.6,8.79 -4.75,11.95 -3.19,3.18 -7.03,4.78 -11.54,4.78 -4.78,0 -8.82,-1.66 -12.15,-4.98 -3.29,-3.33 -4.95,-7.23 -4.95,-11.75 0,-7.67 1.46,-14.83 4.38,-21.45 2.92,-6.61 7.1,-12.58 12.53,-17.88 5.44,-5.33 11.54,-9.36 18.3,-12.15 6.75,-2.78 13.98,-4.18 21.68,-4.18 11.67,0 22.53,2.51 32.58,7.57 10.07,5.02 18.05,11.98 23.89,20.88 5.84,8.89 8.75,19.41 8.75,31.59 0,8.75 -1.93,17.14 -5.76,25.08 -3.84,7.95 -8.83,15.17 -14.94,21.65 -6.11,6.51 -13.84,13.91 -23.24,22.26 -9.44,8.38 -15.57,13.88 -18.5,16.53l-34.61 33.39 29.05 0c14.56,0 26.71,-0.1 36.34,-0.37 9.71,-0.28 14.8,-0.68 15.33,-1.19 2.41,-2.68 4.93,-12.08 7.57,-28.27l8.75 0 -8.75 54.51 -113.35 0z"/>
   <path class="fil2" d="M16700.04 4093.2l0 -10.76c25.45,0 38.18,-3.16 38.18,-9.54l0 -160.66c-10.35,5.29 -23.59,7.94 -39.77,7.94l0 -10.72c24.94,0 43.77,-6.66 56.5,-19.89l4.35 0c0.54,0 1.12,0.35 1.8,0.99 0.64,0.67 0.98,1.25 0.98,1.8l0 180.54c0,6.39 12.73,9.54 38.18,9.54l0 10.76 -100.22 0z"/>
   <path class="fil2" d="M16832.87 4042.71l0 -10.76 94.65 -140.77c0.55,-1.09 1.6,-1.6 3.19,-1.6l4.38 0c2.38,0 3.56,1.19 3.56,3.6l0 138.77 29.83 0 0 10.76 -29.83 0 0 30.2c0,3.97 2.99,6.55 8.97,7.77 5.96,1.19 12.79,1.77 20.49,1.77l0 10.76 -83.93 0 0 -10.76c7.67,0 14.53,-0.58 20.46,-1.77 5.97,-1.22 8.97,-3.8 8.97,-7.77l0 -30.2 -80.74 0zm10.32 -10.76l72.42 0 0 -108.16 -72.42 108.16z"/>
   <line class="fil1 str1" x1="1247.21" y1="3741.61" x2="1247.21" y2= "2316.24" />
   <line class="fil1 str1" x1="1247.21" y1="3741.61" x2="1402.97" y2= "3741.61" />
   <line class="fil1 str1" x1="1247.21" y1="3028.92" x2="1402.97" y2= "3028.92" />
   <line class="fil1 str1" x1="1247.21" y1="2316.24" x2="1402.97" y2= "2316.24" />
   <path class="fil2" d="M790.14 3814.91l0 -10.76c25.45,0 38.18,-3.16 38.18,-9.53l0 -160.67c-10.34,5.3 -23.6,7.95 -39.78,7.95l0 -10.73c24.92,0 43.74,-6.66 56.47,-19.88l4.39 0c0.52,0 1.12,0.34 1.78,0.98 0.66,0.68 0.99,1.25 0.99,1.8l0 180.55c0,6.38 12.73,9.53 38.18,9.53l0 10.76 -100.21 0z"/>
   <path class="fil2" d="M940.46 3798.22c0,-4.79 1.66,-8.76 4.99,-11.95 3.31,-3.19 7.22,-4.79 11.74,-4.79 2.66,0 5.36,0.75 8.14,2.21 2.79,1.45 4.91,3.49 6.36,6.18 1.46,2.65 2.19,5.43 2.19,8.35 0,4.24 -1.65,8.07 -4.98,11.53 -3.32,3.42 -7.22,5.16 -11.71,5.16 -4.52,0 -8.43,-1.73 -11.74,-5.16 -3.33,-3.46 -4.99,-7.29 -4.99,-11.53z"/>
   <path class="fil2" d="M1034.05 3802.19c5.57,6.39 15.25,9.54 29.04,9.54 7.7,0 14.92,-2.58 21.69,-7.77 6.74,-5.13 11.98,-11.57 15.69,-19.28 4.24,-8.75 6.96,-18.02 8.16,-27.83 1.17,-9.8 1.77,-21.86 1.77,-36.17 -3.44,8.21 -8.47,14.89 -15.08,20.09 -6.64,5.16 -14.06,7.73 -22.27,7.73 -11.95,0 -22.55,-3.18 -31.81,-9.53 -9.28,-6.38 -16.45,-14.8 -21.49,-25.28 -5.04,-10.46 -7.56,-21.65 -7.56,-33.6 0,-12.18 2.79,-23.58 8.36,-34.21 5.57,-10.58 13.32,-19 23.26,-25.24 9.95,-6.21 21.14,-9.33 33.59,-9.33 12.2,0 22.47,3.36 30.82,10.14 8.37,6.75 14.73,15.45 19.09,26.07 4.38,10.58 7.44,21.79 9.17,33.56 1.72,11.8 2.57,23.55 2.57,35.23 0,15.64 -2.85,31.62 -8.55,47.92 -5.7,16.29 -14.31,29.97 -25.84,40.96 -11.52,11 -25.39,16.49 -41.56,16.49 -12.2,0 -22.47,-2.85 -30.82,-8.55 -8.35,-5.7 -12.53,-14.25 -12.53,-25.62 0,-4.24 1.45,-7.77 4.38,-10.55 2.92,-2.79 6.5,-4.18 10.75,-4.18 3.96,0 7.35,1.39 10.13,4.18 2.78,2.78 4.18,6.31 4.18,10.55 0,3.93 -1.39,7.4 -4.18,10.31 -2.78,2.92 -6.17,4.38 -10.13,4.38l-0.82 0zm40.16 -61.66c8.23,0 15,-2.78 20.29,-8.31 5.31,-5.56 9.16,-12.53 11.52,-20.9 2.41,-8.35 3.6,-16.63 3.6,-24.84l0 -7.17c0,-15.37 -2.25,-29.01 -6.77,-40.96 -4.49,-11.94 -12.98,-17.91 -25.45,-17.91 -8.21,0 -14.77,1.73 -19.67,5.19 -4.91,3.46 -8.55,8.08 -10.95,13.92 -2.38,5.84 -3.89,12.15 -4.55,18.9 -0.66,6.75 -0.99,13.98 -0.99,21.65 0,11.68 0.52,21.56 1.58,29.63 1.06,8.11 4.06,15.28 8.96,21.48 4.91,6.24 12.39,9.33 22.44,9.33z"/>
   <path class="fil2" d="M637.42 3102.23l0 -10.76c25.45,0 38.18,-3.16 38.18,-9.54l0 -160.66c-10.34,5.29 -23.6,7.94 -39.78,7.94l0 -10.72c24.92,0 43.74,-6.66 56.47,-19.89l4.39 0c0.52,0 1.12,0.35 1.78,0.99 0.66,0.67 0.99,1.25 0.99,1.8l0 180.54c0,6.39 12.73,9.54 38.18,9.54l0 10.76 -100.21 0z"/>
   <path class="fil2" d="M787.74 3085.53c0,-4.78 1.66,-8.75 4.99,-11.94 3.31,-3.19 7.22,-4.79 11.71,-4.79 2.66,0 5.39,0.75 8.17,2.2 2.79,1.46 4.91,3.5 6.36,6.18 1.46,2.66 2.19,5.44 2.19,8.35 0,4.24 -1.65,8.08 -4.98,11.54 -3.32,3.42 -7.22,5.16 -11.74,5.16 -4.49,0 -8.4,-1.73 -11.71,-5.16 -3.33,-3.46 -4.99,-7.3 -4.99,-11.54z"/>
   <path class="fil2" d="M881.34 3089.5c5.57,6.38 15.25,9.53 29.04,9.53 7.7,0 14.92,-2.58 21.69,-7.76 6.74,-5.13 11.98,-11.57 15.69,-19.28 4.24,-8.75 6.96,-18.03 8.16,-27.83 1.17,-9.81 1.77,-21.86 1.77,-36.18 -3.44,8.22 -8.47,14.9 -15.08,20.1 -6.64,5.16 -14.06,7.73 -22.27,7.73 -11.95,0 -22.55,-3.18 -31.81,-9.53 -9.28,-6.38 -16.45,-14.8 -21.49,-25.28 -5.04,-10.46 -7.56,-21.65 -7.56,-33.6 0,-12.18 2.79,-23.59 8.36,-34.21 5.57,-10.59 13.32,-19 23.26,-25.25 9.95,-6.2 21.14,-9.33 33.59,-9.33 12.2,0 22.47,3.37 30.82,10.15 8.37,6.75 14.73,15.44 19.09,26.06 4.38,10.59 7.44,21.79 9.17,33.56 1.72,11.81 2.57,23.56 2.57,35.23 0,15.65 -2.85,31.63 -8.55,47.92 -5.7,16.3 -14.31,29.98 -25.84,40.97 -11.52,11 -25.39,16.49 -41.56,16.49 -12.2,0 -22.47,-2.85 -30.82,-8.55 -8.35,-5.7 -12.53,-14.26 -12.53,-25.62 0,-4.24 1.45,-7.77 4.38,-10.56 2.92,-2.78 6.5,-4.18 10.75,-4.18 3.96,0 7.35,1.39 10.13,4.18 2.78,2.79 4.18,6.32 4.18,10.56 0,3.93 -1.39,7.4 -4.18,10.31 -2.78,2.91 -6.17,4.38 -10.13,4.38l-0.82 0zm40.16 -61.66c8.23,0 15,-2.78 20.29,-8.31 5.31,-5.57 9.16,-12.53 11.52,-20.9 2.41,-8.35 3.6,-16.63 3.6,-24.85l0 -7.16c0,-15.37 -2.25,-29.01 -6.77,-40.96 -4.49,-11.95 -12.98,-17.92 -25.45,-17.92 -8.21,0 -14.77,1.73 -19.67,5.19 -4.91,3.46 -8.55,8.08 -10.95,13.91 -2.38,5.84 -3.89,12.15 -4.55,18.9 -0.66,6.75 -0.99,13.99 -0.99,21.65 0,11.68 0.52,21.55 1.58,29.63 1.06,8.11 4.06,15.27 8.96,21.48 4.91,6.24 12.39,9.33 22.44,9.33z"/>
   <path class="fil2" d="M1026.12 3067.65c2.12,5.8 5.3,11.17 9.54,16.08 4.24,4.89 9.34,8.69 15.3,11.34 5.97,2.65 12.14,3.96 18.51,3.96 14.57,0 24.64,-5.7 30.21,-17.1 5.58,-11.4 8.38,-25.18 8.38,-41.37 0,-7.16 -0.07,-13.1 -0.21,-17.88 -0.13,-4.75 -0.86,-9.4 -2.18,-13.92 -1.88,-7.16 -5.12,-13.47 -9.75,-18.87 -4.64,-5.46 -10.41,-8.18 -17.32,-8.18 -6.88,0 -12.78,1.09 -17.68,3.18 -4.91,2.15 -8.89,4.59 -11.95,7.37 -3.04,2.78 -5.75,5.7 -8.14,8.73 -2.39,3.05 -3.99,4.71 -4.79,4.98l-3.17 0c-0.53,0 -1.19,-0.34 -1.99,-0.98 -0.79,-0.68 -1.19,-1.26 -1.19,-1.8l0 -102.22c0,-0.23 0.35,-0.71 1.02,-1.39 0.66,-0.64 1.38,-0.99 2.16,-0.99l0.81 0c13.79,6.62 28.36,9.95 43.73,9.95 15.12,0 29.71,-3.33 43.76,-9.95l0.78 0c0.8,0 1.47,0.28 2.02,0.78 0.51,0.55 0.78,1.06 0.78,1.6l0 3.19c0,0.82 -0.13,1.18 -0.39,1.18 -7.18,9.26 -15.99,16.5 -26.45,21.69 -10.48,5.16 -21.28,7.76 -32.42,7.76 -8.22,0 -16.59,-1.08 -25.07,-3.18l0 57.66c6.65,-5.57 12.61,-9.57 17.9,-11.95 5.31,-2.38 12.21,-3.57 20.69,-3.57 11.13,0 21.14,3.22 30.03,9.75 8.87,6.51 15.7,15 20.46,25.45 4.78,10.45 7.19,21 7.19,31.59 0,12.49 -3,23.86 -8.97,34.25 -5.98,10.31 -14.13,18.6 -24.45,24.84 -10.34,6.24 -21.62,9.33 -33.81,9.33 -10.08,0 -19.3,-2.58 -27.65,-7.73 -8.35,-5.19 -14.98,-12.15 -19.88,-20.88 -4.9,-8.75 -7.36,-18.06 -7.36,-27.86 0,-4.75 1.53,-8.55 4.57,-11.33 3.06,-2.79 6.84,-4.18 11.34,-4.18 4.51,0 8.21,1.45 11.14,4.38 2.91,2.91 4.37,6.62 4.37,11.13 0,4.24 -1.45,7.91 -4.37,10.96 -2.93,3.02 -6.63,4.55 -11.14,4.55 -0.8,0 -1.65,-0.07 -2.59,-0.2 -0.93,-0.11 -1.53,-0.17 -1.78,-0.17z"/>
   <path class="fil2" d="M1014.57 2389.54l0 -8.35c0,-0.55 0.27,-1.06 0.8,-1.6l47.31 -52.5c7.16,-7.68 13.01,-14.19 17.52,-19.48 4.49,-5.3 8.94,-11.41 13.3,-18.3 4.4,-6.89 7.84,-13.88 10.37,-20.9 2.5,-7.02 3.76,-14.49 3.76,-22.46 0,-8.48 -1.52,-16.5 -4.59,-24.07 -3.03,-7.53 -7.61,-13.64 -13.7,-18.29 -6.1,-4.62 -13.53,-6.93 -22.27,-6.93 -8.75,0 -16.69,2.72 -23.87,8.11 -7.16,5.46 -12.2,12.28 -15.11,20.5 0.8,0 1.99,0 3.6,0 4.49,0 8.33,1.53 11.52,4.58 3.18,3.06 4.77,6.96 4.77,11.72 0,4.78 -1.59,8.78 -4.77,11.94 -3.18,3.19 -7.02,4.79 -11.52,4.79 -4.79,0 -8.84,-1.66 -12.15,-4.99 -3.31,-3.33 -4.97,-7.22 -4.97,-11.74 0,-7.68 1.48,-14.83 4.4,-21.45 2.91,-6.62 7.06,-12.59 12.52,-17.88 5.43,-5.33 11.52,-9.37 18.31,-12.15 6.74,-2.78 13.97,-4.18 21.65,-4.18 11.67,0 22.54,2.51 32.6,7.57 10.09,5.02 18.04,11.98 23.88,20.87 5.84,8.9 8.76,19.41 8.76,31.6 0,8.75 -1.94,17.13 -5.78,25.08 -3.86,7.94 -8.83,15.17 -14.91,21.65 -6.1,6.52 -13.86,13.92 -23.27,22.27 -9.43,8.38 -15.58,13.87 -18.51,16.53l-34.58 33.39 29.03 0c14.58,0 26.71,-0.11 36.37,-0.38 9.7,-0.27 14.8,-0.67 15.32,-1.18 2.39,-2.68 4.92,-12.08 7.56,-28.27l8.76 0 -8.76 54.51 -113.35 0z"/>
   <polyline class="fil1 str2" points="1247.21,3456.54 1525.39,3314 1803.54,3171.47 2081.72,3456.54 2359.87,3314 2638.05,3028.92 3194.38,3028.92 3472.56,3314 3750.71,3314 4028.87,3028.92 4307.05,2886.38 4585.2,3171.47 4863.35,3314 5141.54,3171.47 5419.72,2743.85 5697.87,3171.47 5976.02,3314 6254.21,2886.38 6532.36,2886.38 6810.52,2743.85 7088.7,2886.38 7366.88,2886.38 7645.04,3028.92 7923.19,3028.92 8201.38,2886.38 8479.52,2743.85 8757.68,2743.85 9035.86,2886.38 9314.06,3171.47 9592.2,3028.92 9870.36,3314 10148.54,3028.92 10426.7,2743.85 10704.84,2886.38 10983.04,3028.92 11261.22,3171.47 11539.37,2886.38 11817.52,2601.31 12095.71,2886.38 12373.86,3171.47 12652.02,2743.85 13208.39,2743.85 13486.53,2886.38 13764.68,2743.85 14042.87,2743.85 14321.02,3028.92 14599.17,3028.92 14877.36,2743.85 15155.54,2743.85 15433.7,2601.31 15711.85,3028.92 "/>
   <path class="fil2" d="M356.66 3310.33c0,2.11 -1.46,3.19 -4.39,3.19 -0.52,0 -1.45,-0.2 -2.77,-0.62 -1.33,-0.4 -2.39,-0.85 -3.18,-1.39 -0.8,-0.55 -1.19,-1.22 -1.19,-2 0,-13.51 -0.8,-22.92 -2.41,-28.23 -1.04,-2.92 -3.95,-5.03 -8.74,-6.35l-181.73 -45.34c-2.13,-0.51 -3.71,-0.78 -4.79,-0.78 -2.38,0 -3.69,1.32 -3.96,3.96 -0.81,4.24 -1.2,12.19 -1.2,23.83 0,2.14 -1.46,3.18 -4.38,3.18 -2.91,-0.78 -4.84,-1.39 -5.75,-1.76 -0.93,-0.4 -1.39,-1.66 -1.39,-3.77l0 -88.71c0,-2.38 1.46,-3.57 4.38,-3.57 0.53,0 1.38,0.21 2.57,0.58 1.21,0.41 2.27,0.89 3.18,1.39 0.92,0.54 1.39,1.33 1.39,2.38 0,13.55 0.81,22.94 2.4,28.27 1.05,2.91 3.96,5.02 8.75,6.34l107.36 26.65 -100.2 -129.65c-0.53,-0.27 -2.06,-1.65 -4.59,-4.17 -2.51,-2.55 -4.96,-3.81 -7.36,-3.81 -4.24,0 -6.36,3.74 -6.36,11.17 0,2.11 -1.46,3.16 -4.38,3.16 -1.85,-0.24 -3.23,-0.51 -4.18,-0.78 -0.93,-0.27 -1.65,-0.78 -2.19,-1.6 -0.53,-0.81 -0.78,-1.87 -0.78,-3.18l0 -64.01c0,-1.32 0.39,-2.27 1.19,-2.78 0.8,-0.54 1.86,-0.82 3.18,-0.82 0.53,0.28 1.44,0.62 2.77,1.02 1.33,0.38 2.39,0.85 3.18,1.39 0.79,0.51 1.19,1.32 1.19,2.34 0,16.19 7.42,33.83 22.27,52.95 0.28,0.23 0.4,0.43 0.4,0.57 0,0.14 0.07,0.35 0.2,0.58 0.12,0.28 0.18,0.41 0.18,0.41l52.9 68.42 116.14 -49.72c5.04,-2.92 8.08,-6.11 9.13,-9.57 1.08,-3.43 1.61,-8.73 1.61,-15.88 0,-2.38 1.46,-3.57 4.38,-3.57 2.37,0.78 4.16,1.53 5.37,2.17 1.19,0.68 1.79,1.93 1.79,3.77l0 76.77c0,1.87 -1.46,2.78 -4.39,2.78 -2.39,-0.27 -4.18,-0.58 -5.37,-0.98 -1.18,-0.41 -1.78,-1.53 -1.78,-3.4 0,-5.57 -0.6,-10.26 -1.79,-14.08 -1.19,-3.87 -3.79,-5.81 -7.75,-5.81 -1.6,0 -2.8,0 -3.6,0l-95.45 41.38 37.4 48.12 61.23 15.1c2.66,0.55 4.24,0.82 4.79,0.82 2.12,0 3.31,-1.33 3.56,-4.01 1.08,-4.24 1.61,-12.18 1.61,-23.86 0,-2.1 1.46,-3.16 4.38,-3.16 2.91,0.78 4.84,1.39 5.75,1.77 0.92,0.4 1.4,1.66 1.4,3.8l0 89.08z"/>
   <path class="fil2" d="M451.59 3046.07c0,1.59 -1.06,2.37 -3.18,2.37 -3.17,-0.54 -4.78,-1.59 -4.78,-3.16 0,-4.78 -0.45,-8.11 -1.37,-9.98 -0.94,-1.83 -3.13,-3.29 -6.58,-4.38l-103 -25.83c-2.91,-1.08 -6.63,-1.59 -11.12,-1.59 -6.65,0 -9.96,2.1 -9.96,6.34 0,4.79 2.85,8.35 8.55,10.76 5.7,2.38 12.92,4.65 21.66,6.75 1.07,0 1.6,0.67 1.6,2l0 2.78c0,0.24 -0.26,0.58 -0.78,0.98 -0.55,0.41 -1.09,0.62 -1.61,0.62 -6.61,-1.6 -12.25,-3.13 -16.9,-4.58 -4.64,-1.46 -8.88,-3.87 -12.73,-7.17 -3.83,-3.32 -5.75,-7.36 -5.75,-12.15 0,-5.29 1.51,-9.94 4.56,-13.91 3.05,-3.97 7.09,-6.48 12.13,-7.57 -4.76,-4.24 -8.74,-8.89 -11.93,-13.91 -3.17,-5.02 -4.76,-10.18 -4.76,-15.51 0,-6.35 1.72,-11.92 5.18,-16.7 3.44,-4.75 7.94,-8.35 13.51,-10.73 5.57,-2.41 11.53,-3.6 17.89,-3.6 10.08,0 20.35,2.51 30.82,7.57 10.48,5.02 19.16,11.84 26.04,20.46 6.91,8.62 10.36,17.85 10.36,27.66 0,4.52 -1.27,8.52 -3.79,12.12 -2.52,3.56 -5.76,6.42 -9.75,8.55l40.58 10.35c2.39,0.27 3.71,0.54 3.96,0.78 2.12,0 3.18,-5.02 3.18,-15.1 0,-1.6 0.94,-2.41 2.8,-2.41 2.12,0.54 3.51,0.94 4.18,1.22 0.66,0.27 0.99,1.18 0.99,2.78l0 44.16zm-48.14 -62.45c0,-5.29 -2.18,-10.28 -6.56,-14.93 -4.36,-4.62 -9.2,-8.28 -14.5,-10.93 -4.24,-2.1 -9.28,-4.11 -15.13,-5.97 -5.82,-1.83 -12.11,-3.45 -18.87,-4.78 -6.76,-1.29 -12.13,-1.97 -16.12,-1.97 -3.44,0 -6.68,0.48 -9.72,1.39 -3.06,0.95 -5.65,2.47 -7.76,4.58 -2.13,2.14 -3.18,4.93 -3.18,8.35 0,5.57 1.99,10.86 5.95,15.92 3.98,5.05 9.02,9.53 15.12,13.51l0.78 0 50.54 12.73c5.28,-1.06 9.86,-3.13 13.72,-6.15 3.83,-3.05 5.73,-6.99 5.73,-11.75z"/>
   <path class="fil2" d="M381.18 2897.51c-3.43,0 -7.22,-0.4 -11.32,-1.18 -4.11,-0.82 -7.47,-1.63 -10.12,-2.41 -2.66,-0.81 -7.84,-2.65 -15.53,-5.56 -7.69,-2.91 -11.67,-4.38 -11.95,-4.38 -5.57,-2.14 -10.06,-3.19 -13.51,-3.19 -4.77,0 -7.16,1.73 -7.16,5.16 0,6.11 3.12,11.1 9.34,14.94 6.23,3.83 13.18,6.69 20.88,8.55 1.07,0.27 1.6,0.91 1.6,1.96l0 2.82c0,1.33 -0.66,1.97 -1.98,1.97l-0.79 0c-9.02,-2.65 -17.12,-6.48 -24.28,-11.51 -7.15,-5.06 -10.72,-11.44 -10.72,-19.11 0,-5.57 1.78,-10.22 5.35,-13.92 3.58,-3.73 8.16,-5.56 13.75,-5.56 2.9,0 5.95,0.64 9.13,1.96 7.69,2.92 13.85,5.23 18.48,6.99 4.66,1.69 9.89,3.29 15.74,4.75 5.82,1.46 11.12,2.17 15.91,2.17 5.81,0 10.51,-1.33 14.08,-3.97 3.58,-2.65 5.37,-6.75 5.37,-12.32 0,-10.58 -8.07,-20.15 -24.24,-28.64 -5.3,-2.65 -11.52,-5.16 -18.69,-7.53 -7.16,-2.41 -13,-3.6 -17.52,-3.6 -4.75,0 -8.4,0.71 -10.91,2.17 -2.53,1.45 -5.18,3.39 -7.97,5.8 -2.78,2.38 -4.97,3.56 -6.57,3.56 -3.17,0 -5.95,-1.25 -8.34,-3.76 -2.38,-2.55 -3.57,-5.26 -3.57,-8.19 0,-3.69 1.65,-6.34 4.96,-7.94 3.31,-1.6 7.09,-2.38 11.33,-2.38 5.03,0 11.06,0.71 18.1,2.17 7.02,1.46 14.31,3.46 21.86,5.97 7.57,2.51 13.47,4.98 17.71,7.36 19.9,10.04 29.84,21.72 29.84,34.99 0,9.81 -2.4,17.59 -7.19,23.28 -4.75,5.7 -11.78,8.55 -21.08,8.55z"/>
   <polygon class="fil0" points="1247.21,5777.86 16824.52,5777.86 16824.52,4327.03 1247.21,4327.03 "/>
   <line class="fil1 str0" x1="1247.21" y1="5777.86" x2="1247.21" y2= "4327.03" />
   <line class="fil1 str0" x1="3472.56" y1="5777.86" x2="3472.56" y2= "4327.03" />
   <line class="fil1 str0" x1="5697.87" y1="5777.86" x2="5697.87" y2= "4327.03" />
   <line class="fil1 str0" x1="7923.19" y1="5777.86" x2="7923.19" y2= "4327.03" />
   <line class="fil1 str0" x1="10148.54" y1="5777.86" x2="10148.54" y2= "4327.03" />
   <line class="fil1 str0" x1="12373.86" y1="5777.86" x2="12373.86" y2= "4327.03" />
   <line class="fil1 str0" x1="14599.17" y1="5777.86" x2="14599.17" y2= "4327.03" />
   <line class="fil1 str0" x1="16824.52" y1="5777.86" x2="16824.52" y2= "4327.03" />
   <line class="fil1 str0" x1="16824.52" y1="5777.86" x2="1247.21" y2= "5777.86" />
   <line class="fil1 str0" x1="16824.52" y1="5052.44" x2="1247.21" y2= "5052.44" />
   <line class="fil1 str0" x1="16824.52" y1="4327.03" x2="1247.21" y2= "4327.03" />
   <line class="fil1 str1" x1="1247.21" y1="5777.86" x2="16824.52" y2= "5777.86" />
   <line class="fil1 str1" x1="1247.21" y1="5777.86" x2="1247.21" y2= "5622.09" />
   <line class="fil1 str1" x1="3472.56" y1="5777.86" x2="3472.56" y2= "5622.09" />
   <line class="fil1 str1" x1="5697.87" y1="5777.86" x2="5697.87" y2= "5622.09" />
   <line class="fil1 str1" x1="7923.19" y1="5777.86" x2="7923.19" y2= "5622.09" />
   <line class="fil1 str1" x1="10148.54" y1="5777.86" x2="10148.54" y2= "5622.09" />
   <line class="fil1 str1" x1="12373.86" y1="5777.86" x2="12373.86" y2= "5622.09" />
   <line class="fil1 str1" x1="14599.17" y1="5777.86" x2="14599.17" y2= "5622.09" />
   <line class="fil1 str1" x1="16824.52" y1="5777.86" x2="16824.52" y2= "5622.09" />
   <path class="fil2" d="M1247.21 6136.21c-24.92,0 -41.89,-10.27 -50.9,-30.82 -9.01,-20.55 -13.53,-45 -13.53,-73.37 0,-17.77 1.59,-34.4 4.77,-49.91 3.18,-15.52 9.61,-28.78 19.29,-39.79 9.67,-11.01 23.14,-16.49 40.37,-16.49 13.53,0 24.53,3.31 33.02,9.94 8.48,6.63 14.98,15.11 19.5,25.45 4.49,10.34 7.54,21.47 9.13,33.39 1.61,11.94 2.41,24.4 2.41,37.4 0,17.5 -1.61,33.87 -4.79,49.11 -3.18,15.25 -9.47,28.24 -18.88,38.98 -9.42,10.74 -22.88,16.1 -40.38,16.1zm0 -7.97c11.4,0 19.88,-5.82 25.45,-17.49 5.57,-11.66 9.01,-24.54 10.34,-38.58 1.32,-14.05 1.97,-29.03 1.97,-44.95 0,-15.37 -0.65,-29.56 -1.97,-42.55 -1.33,-13 -4.77,-24.71 -10.34,-35.19 -5.57,-10.49 -14.05,-15.72 -25.45,-15.72 -11.4,0 -19.88,5.3 -25.45,15.91 -5.56,10.6 -9,22.34 -10.33,35.19 -1.32,12.86 -1.98,26.98 -1.98,42.36 0,11.15 0.27,21.76 0.79,31.81 0.53,10.08 1.98,20.49 4.37,31.24 2.39,10.75 6.23,19.76 11.53,27.03 5.31,7.29 12.33,10.94 21.08,10.94z"/>
   <path class="fil2" d="M3411.3 6129.45l0 -8.35c0,-0.53 0.27,-1.06 0.78,-1.61l47.31 -52.48c7.16,-7.7 13.04,-14.19 17.51,-19.5 4.55,-5.29 8.97,-11.39 13.34,-18.3 4.34,-6.9 7.8,-13.85 10.35,-20.88 2.51,-7.03 3.76,-14.52 3.76,-22.47 0,-8.48 -1.52,-16.51 -4.58,-24.06 -3.05,-7.55 -7.6,-13.64 -13.71,-18.3 -6.11,-4.63 -13.55,-6.95 -22.3,-6.95 -8.73,0 -16.7,2.71 -23.82,8.14 -7.17,5.44 -12.22,12.27 -15.14,20.49 0.82,0 2,0 3.6,0 4.51,0 8.35,1.53 11.54,4.58 3.16,3.05 4.74,6.95 4.74,11.72 0,4.78 -1.59,8.76 -4.74,11.93 -3.19,3.19 -7.03,4.79 -11.54,4.79 -4.78,0 -8.82,-1.66 -12.15,-4.98 -3.29,-3.32 -4.95,-7.22 -4.95,-11.74 0,-7.69 1.46,-14.84 4.38,-21.46 2.89,-6.63 7.06,-12.59 12.53,-17.89 5.43,-5.3 11.53,-9.36 18.29,-12.15 6.75,-2.77 13.99,-4.16 21.69,-4.16 11.64,0 22.53,2.52 32.57,7.55 10.08,5.04 18.06,12 23.9,20.87 5.84,8.9 8.75,19.43 8.75,31.62 0,8.74 -1.93,17.11 -5.77,25.07 -3.87,7.94 -8.82,15.16 -14.93,21.65 -6.11,6.5 -13.84,13.92 -23.24,22.27 -9.44,8.36 -15.61,13.86 -18.54,16.52l-34.57 33.4 29.04 0c14.56,0 26.68,-0.13 36.35,-0.38 9.71,-0.27 14.8,-0.66 15.33,-1.19 2.38,-2.66 4.93,-12.07 7.57,-28.25l8.75 0 -8.75 54.5 -113.35 0z"/>
   <path class="fil2" d="M5629.86 6078.95l0 -10.74 94.65 -140.8c0.54,-1.07 1.6,-1.58 3.19,-1.58l4.38 0c2.38,0 3.56,1.19 3.56,3.58l0 138.8 29.83 0 0 10.74 -29.83 0 0 30.22c0,3.97 2.99,6.56 8.96,7.76 5.97,1.19 12.79,1.78 20.47,1.78l0 10.75 -83.9 0 0 -10.75c7.67,0 14.53,-0.59 20.46,-1.78 5.97,-1.2 8.97,-3.79 8.97,-7.76l0 -30.22 -80.74 0zm10.31 -10.74l72.39 0 0 -108.18 -72.39 108.18z"/>
   <path class="fil2" d="M7923.19 6136.21c-12.73,0 -23.25,-3.38 -31.6,-10.15 -8.35,-6.75 -14.86,-15.43 -19.51,-26.04 -4.62,-10.6 -7.88,-21.81 -9.75,-33.62 -1.87,-11.79 -2.78,-23.66 -2.78,-35.58 0,-16.18 3.19,-32.35 9.57,-48.52 6.35,-16.17 15.57,-29.63 27.62,-40.37 12.08,-10.74 26.45,-16.1 43.14,-16.1 7.17,0 13.75,1.31 19.72,3.96 5.94,2.65 10.66,6.56 14.08,11.73 3.46,5.19 5.19,11.35 5.19,18.51 0,4.24 -1.39,7.75 -4.18,10.53 -2.78,2.79 -6.31,4.18 -10.55,4.18 -3.97,0 -7.44,-1.39 -10.35,-4.18 -2.92,-2.78 -4.35,-6.29 -4.35,-10.53 0,-3.99 1.42,-7.37 4.35,-10.16 2.91,-2.78 6.38,-4.18 10.35,-4.18l1.59 0c-2.65,-3.71 -6.27,-6.43 -10.92,-8.14 -4.66,-1.73 -9.61,-2.6 -14.94,-2.6 -6.07,0 -11.71,1.33 -16.9,3.99 -5.16,2.66 -9.87,6.21 -14.11,10.73 -4.24,4.5 -7.73,9.54 -10.52,15.11 -2.78,5.57 -4.92,11.86 -6.38,18.88 -1.46,7.03 -2.38,13.66 -2.78,19.9 -0.38,6.23 -0.58,13.99 -0.58,23.26 3.42,-8.48 8.48,-15.37 15.1,-20.69 6.62,-5.29 14.05,-7.94 22.26,-7.94 9.02,0 17.24,1.86 24.68,5.55 7.43,3.71 13.84,8.82 19.27,15.32 5.44,6.5 9.54,13.93 12.32,22.27 2.78,8.35 4.18,16.77 4.18,25.25 0,11.93 -2.65,23.33 -7.95,34.22 -5.29,10.87 -12.79,19.48 -22.46,25.85 -9.67,6.36 -20.6,9.54 -32.81,9.54zm0 -9.94c7.98,0 14.31,-1.79 19.11,-5.39 4.75,-3.58 8.28,-8.28 10.51,-14.11 2.28,-5.82 3.67,-11.79 4.18,-17.9 0.55,-6.08 0.82,-13.51 0.82,-22.27 0,-11.4 -0.62,-21.21 -1.8,-29.42 -1.18,-8.22 -4.18,-15.37 -8.93,-21.49 -4.78,-6.08 -12.22,-9.13 -22.26,-9.13 -8.24,0 -15,2.78 -20.3,8.35 -5.33,5.55 -9.23,12.58 -11.74,21.07 -2.55,8.48 -3.8,16.57 -3.8,24.26 0,2.65 0.13,4.77 0.4,6.36 0,0.28 0,0.48 0,0.62 0,0.12 -0.13,0.31 -0.4,0.58 0,8.76 0.94,17.64 2.81,26.66 1.84,9 5.3,16.58 10.32,22.67 5.06,6.1 12.08,9.15 21.08,9.15z"/>
   <path class="fil2" d="M10084.91 6082.93c0,-12.2 4.04,-23.02 12.12,-32.43 8.08,-9.4 18.5,-17.16 31.22,-23.27l-11.53 -7.55c-6.89,-4.51 -12.53,-10.52 -16.9,-18.09 -4.38,-7.55 -6.55,-15.58 -6.55,-24.07 0,-9.81 2.58,-18.62 7.77,-26.46 5.16,-7.82 11.95,-13.97 20.43,-18.47 8.48,-4.51 17.51,-6.76 27.08,-6.76 8.99,0 17.75,1.85 26.23,5.56 8.48,3.7 15.37,9 20.7,15.91 5.29,6.9 7.94,15.1 7.94,24.65 0,6.63 -1.59,12.94 -4.74,18.9 -3.23,5.95 -7.61,11.26 -13.17,15.91 -5.57,4.64 -11.51,8.55 -17.88,11.73l17.51 11.12c7.95,5.32 14.39,12.28 19.28,20.89 4.92,8.61 7.36,17.57 7.36,26.84 0,11.14 -2.98,21.21 -8.92,30.24 -6.01,9.01 -13.81,16.05 -23.49,21.09 -9.67,5.03 -19.95,7.55 -30.81,7.55 -10.62,0 -20.84,-2.12 -30.61,-6.36 -9.81,-4.24 -17.79,-10.48 -23.9,-18.71 -6.11,-8.21 -9.13,-17.61 -9.13,-28.22zm16.7 0c0,8.21 2.17,15.62 6.55,22.26 4.38,6.62 10.22,11.79 17.51,15.51 7.3,3.7 14.9,5.58 22.88,5.58 11.91,0 22.67,-3.45 32.21,-10.34 9.53,-6.91 14.32,-16.06 14.32,-27.45 0,-3.71 -0.75,-7.48 -2.21,-11.35 -1.45,-3.83 -3.56,-7.34 -6.34,-10.53 -2.79,-3.17 -5.91,-5.69 -9.37,-7.56l-40.93 -26.64c-6.38,3.45 -12.22,7.76 -17.51,12.92 -5.29,5.18 -9.47,10.96 -12.53,17.32 -3.05,6.36 -4.58,13.12 -4.58,20.29zm21.08 -93.06l36.99 23.85c8.48,-5.04 15.44,-11.07 20.88,-18.1 5.43,-7.03 8.14,-14.91 8.14,-23.67 0,-6.9 -1.9,-13.19 -5.73,-18.89 -3.87,-5.7 -8.82,-10.14 -14.93,-13.3 -6.11,-3.19 -12.73,-4.79 -19.88,-4.79 -6.11,0 -12.26,1.19 -18.5,3.6 -6.2,2.39 -11.4,5.9 -15.51,10.52 -4.11,4.64 -6.18,10.14 -6.18,16.5 0,9.55 4.92,17.65 14.73,24.28z"/>
   <path class="fil2" d="M12249.38 6129.45l0 -10.75c25.45,0 38.18,-3.18 38.18,-9.54l0 -160.67c-10.35,5.3 -23.59,7.95 -39.74,7.95l0 -10.75c24.91,0 43.74,-6.63 56.47,-19.87l4.35 0c0.54,0 1.15,0.33 1.8,0.98 0.67,0.66 1.01,1.26 1.01,1.79l0 180.56c0,6.36 12.73,9.54 38.18,9.54l0 10.75 -100.25 0z"/>
   <path class="fil2" d="M12450.22 6136.21c-24.91,0 -41.88,-10.27 -50.9,-30.82 -8.99,-20.55 -13.51,-45 -13.51,-73.37 0,-17.77 1.56,-34.4 4.75,-49.91 3.18,-15.52 9.64,-28.78 19.31,-39.79 9.67,-11.01 23.11,-16.49 40.35,-16.49 13.52,0 24.54,3.31 33.03,9.94 8.48,6.63 14.97,15.11 19.48,25.45 4.51,10.34 7.57,21.47 9.16,33.39 1.6,11.94 2.38,24.4 2.38,37.4 0,17.5 -1.59,33.87 -4.78,49.11 -3.16,15.25 -9.47,28.24 -18.9,38.98 -9.4,10.74 -22.84,16.1 -40.36,16.1zm0 -7.97c11.41,0 19.89,-5.82 25.45,-17.49 5.57,-11.66 9.03,-24.54 10.35,-38.58 1.33,-14.05 1.97,-29.03 1.97,-44.95 0,-15.37 -0.64,-29.56 -1.97,-42.55 -1.32,-13 -4.78,-24.71 -10.35,-35.19 -5.56,-10.49 -14.05,-15.72 -25.45,-15.72 -11.4,0 -19.88,5.3 -25.45,15.91 -5.57,10.6 -8.99,22.34 -10.32,35.19 -1.32,12.86 -2,26.98 -2,42.36 0,11.15 0.27,21.76 0.82,31.81 0.51,10.08 1.96,20.49 4.34,31.24 2.38,10.75 6.24,19.76 11.54,27.03 5.29,7.29 12.31,10.94 21.07,10.94z"/>
   <path class="fil2" d="M14474.69 6129.45l0 -10.75c25.45,0 38.18,-3.18 38.18,-9.54l0 -160.67c-10.32,5.3 -23.59,7.95 -39.74,7.95l0 -10.75c24.91,0 43.74,-6.63 56.47,-19.87l4.35 0c0.54,0 1.14,0.33 1.79,0.98 0.68,0.66 1.02,1.26 1.02,1.79l0 180.56c0,6.36 12.73,9.54 38.18,9.54l0 10.75 -100.25 0z"/>
   <path class="fil2" d="M14614.31 6129.45l0 -8.35c0,-0.53 0.28,-1.06 0.78,-1.61l47.31 -52.48c7.2,-7.7 13.04,-14.19 17.51,-19.5 4.55,-5.29 8.97,-11.39 13.34,-18.3 4.38,-6.9 7.8,-13.85 10.35,-20.88 2.51,-7.03 3.76,-14.52 3.76,-22.47 0,-8.48 -1.52,-16.51 -4.58,-24.06 -3.05,-7.55 -7.6,-13.64 -13.71,-18.3 -6.11,-4.63 -13.51,-6.95 -22.26,-6.95 -8.75,0 -16.7,2.71 -23.86,8.14 -7.17,5.44 -12.22,12.27 -15.14,20.49 0.82,0 2,0 3.6,0 4.51,0 8.35,1.53 11.54,4.58 3.16,3.05 4.75,6.95 4.75,11.72 0,4.78 -1.6,8.76 -4.75,11.93 -3.19,3.19 -7.03,4.79 -11.54,4.79 -4.78,0 -8.82,-1.66 -12.15,-4.98 -3.29,-3.32 -4.95,-7.22 -4.95,-11.74 0,-7.69 1.46,-14.84 4.38,-21.46 2.92,-6.63 7.1,-12.59 12.53,-17.89 5.44,-5.3 11.54,-9.36 18.3,-12.15 6.75,-2.77 13.98,-4.16 21.68,-4.16 11.67,0 22.53,2.52 32.58,7.55 10.07,5.04 18.05,12 23.89,20.87 5.84,8.9 8.75,19.43 8.75,31.62 0,8.74 -1.93,17.11 -5.76,25.07 -3.84,7.94 -8.83,15.16 -14.94,21.65 -6.11,6.5 -13.84,13.92 -23.24,22.27 -9.44,8.36 -15.57,13.86 -18.5,16.52l-34.61 33.4 29.05 0c14.56,0 26.71,-0.13 36.34,-0.38 9.71,-0.27 14.8,-0.66 15.33,-1.19 2.41,-2.66 4.93,-12.07 7.57,-28.25l8.75 0 -8.75 54.5 -113.35 0z"/>
   <path class="fil2" d="M16700.04 6129.45l0 -10.75c25.45,0 38.18,-3.18 38.18,-9.54l0 -160.67c-10.35,5.3 -23.59,7.95 -39.77,7.95l0 -10.75c24.94,0 43.77,-6.63 56.5,-19.87l4.35 0c0.54,0 1.12,0.33 1.8,0.98 0.64,0.66 0.98,1.26 0.98,1.79l0 180.56c0,6.36 12.73,9.54 38.18,9.54l0 10.75 -100.22 0z"/>
   <path class="fil2" d="M16832.87 6078.95l0 -10.74 94.65 -140.8c0.55,-1.07 1.6,-1.58 3.19,-1.58l4.38 0c2.38,0 3.56,1.19 3.56,3.58l0 138.8 29.83 0 0 10.74 -29.83 0 0 30.22c0,3.97 2.99,6.56 8.97,7.76 5.96,1.19 12.79,1.78 20.49,1.78l0 10.75 -83.93 0 0 -10.75c7.67,0 14.53,-0.59 20.46,-1.78 5.97,-1.2 8.97,-3.79 8.97,-7.76l0 -30.22 -80.74 0zm10.32 -10.74l72.42 0 0 -108.18 -72.42 108.18z"/>
   <line class="fil1 str1" x1="1247.21" y1="5777.86" x2="1247.21" y2= "4327.03" />
   <line class="fil1 str1" x1="1247.21" y1="5777.86" x2="1402.97" y2= "5777.86" />
   <line class="fil1 str1" x1="1247.21" y1="5052.44" x2="1402.97" y2= "5052.44" />
   <line class="fil1 str1" x1="1247.21" y1="4327.03" x2="1402.97" y2= "4327.03" />
   <path class="fil2" d="M1075.82 5857.92c-24.93,0 -41.9,-10.27 -50.91,-30.81 -9.01,-20.56 -13.52,-45.01 -13.52,-73.38 0,-17.77 1.59,-34.4 4.77,-49.91 3.17,-15.52 9.61,-28.78 19.29,-39.79 9.66,-11.01 23.14,-16.49 40.37,-16.49 13.53,0 24.53,3.31 33.02,9.94 8.48,6.63 14.98,15.11 19.47,25.45 4.52,10.34 7.56,21.48 9.16,33.39 1.61,11.94 2.4,24.4 2.4,37.4 0,17.5 -1.61,33.87 -4.78,49.12 -3.18,15.24 -9.47,28.23 -18.89,38.97 -9.41,10.74 -22.87,16.1 -40.37,16.1zm0 -7.97c11.4,0 19.88,-5.82 25.45,-17.48 5.57,-11.67 9.01,-24.54 10.34,-38.58 1.31,-14.05 1.97,-29.03 1.97,-44.96 0,-15.37 -0.66,-29.55 -1.97,-42.55 -1.33,-13 -4.77,-24.71 -10.34,-35.18 -5.57,-10.49 -14.05,-15.73 -25.45,-15.73 -11.4,0 -19.88,5.31 -25.45,15.91 -5.57,10.6 -9.01,22.34 -10.34,35.2 -1.31,12.85 -1.97,26.97 -1.97,42.35 0,11.16 0.27,21.76 0.78,31.82 0.54,10.07 1.99,20.48 4.38,31.24 2.39,10.74 6.23,19.75 11.53,27.02 5.3,7.29 12.33,10.94 21.08,10.94z"/>
   <path class="fil2" d="M1026.12 5091.16c2.12,5.8 5.3,11.17 9.54,16.08 4.24,4.89 9.34,8.69 15.3,11.33 5.97,2.66 12.14,3.97 18.51,3.97 14.57,0 24.64,-5.7 30.21,-17.1 5.58,-11.4 8.38,-25.18 8.38,-41.37 0,-7.17 -0.07,-13.1 -0.21,-17.88 -0.13,-4.75 -0.86,-9.41 -2.18,-13.92 -1.88,-7.16 -5.12,-13.47 -9.75,-18.87 -4.64,-5.46 -10.41,-8.18 -17.32,-8.18 -6.88,0 -12.78,1.09 -17.68,3.18 -4.91,2.14 -8.89,4.58 -11.95,7.37 -3.04,2.78 -5.75,5.7 -8.14,8.72 -2.39,3.06 -3.99,4.72 -4.79,4.99l-3.17 0c-0.53,0 -1.19,-0.34 -1.99,-0.98 -0.79,-0.68 -1.19,-1.26 -1.19,-1.8l0 -102.22c0,-0.24 0.35,-0.71 1.02,-1.39 0.66,-0.64 1.38,-0.98 2.16,-0.98l0.81 0c13.79,6.62 28.36,9.95 43.73,9.95 15.12,0 29.71,-3.33 43.76,-9.95l0.78 0c0.8,0 1.47,0.27 2.02,0.78 0.51,0.55 0.78,1.06 0.78,1.6l0 3.19c0,0.81 -0.13,1.18 -0.39,1.18 -7.18,9.26 -15.99,16.5 -26.45,21.68 -10.48,5.17 -21.28,7.77 -32.42,7.77 -8.22,0 -16.59,-1.09 -25.07,-3.18l0 57.65c6.65,-5.56 12.61,-9.57 17.9,-11.94 5.31,-2.38 12.21,-3.57 20.69,-3.57 11.13,0 21.14,3.22 30.03,9.75 8.87,6.51 15.7,15 20.46,25.45 4.78,10.46 7.19,21.01 7.19,31.6 0,12.49 -3,23.86 -8.97,34.24 -5.98,10.32 -14.13,18.61 -24.45,24.85 -10.34,6.24 -21.62,9.33 -33.81,9.33 -10.08,0 -19.3,-2.58 -27.65,-7.74 -8.35,-5.19 -14.98,-12.15 -19.88,-20.87 -4.9,-8.75 -7.36,-18.06 -7.36,-27.86 0,-4.75 1.53,-8.55 4.57,-11.34 3.06,-2.78 6.84,-4.18 11.34,-4.18 4.51,0 8.21,1.46 11.14,4.38 2.91,2.92 4.37,6.62 4.37,11.14 0,4.24 -1.45,7.91 -4.37,10.96 -2.93,3.02 -6.63,4.55 -11.14,4.55 -0.8,0 -1.65,-0.07 -2.59,-0.2 -0.93,-0.11 -1.53,-0.17 -1.78,-0.17z"/>
   <path class="fil2" d="M874.97 4400.34l0 -10.76c25.45,0 38.18,-3.16 38.18,-9.53l0 -160.67c-10.32,5.3 -23.58,7.95 -39.75,7.95l0 -10.73c24.93,0 43.75,-6.65 56.48,-19.88l4.35 0c0.55,0 1.14,0.34 1.81,0.98 0.66,0.68 0.99,1.26 0.99,1.8l0 180.55c0,6.38 12.73,9.53 38.18,9.53l0 10.76 -100.24 0z"/>
   <path class="fil2" d="M1075.82 4407.1c-24.93,0 -41.9,-10.26 -50.91,-30.82 -9.01,-20.53 -13.52,-45 -13.52,-73.37 0,-17.75 1.59,-34.41 4.77,-49.92 3.17,-15.51 9.61,-28.78 19.29,-39.78 9.66,-11 23.14,-16.49 40.37,-16.49 13.53,0 24.53,3.33 33.02,9.94 8.48,6.62 14.98,15.1 19.47,25.45 4.52,10.35 7.56,21.48 9.16,33.4 1.61,11.94 2.4,24.4 2.4,37.39 0,17.52 -1.61,33.87 -4.78,49.11 -3.18,15.27 -9.47,28.23 -18.89,38.99 -9.41,10.73 -22.87,16.09 -40.37,16.09zm0 -7.95c11.4,0 19.88,-5.84 25.45,-17.51 5.57,-11.64 9.01,-24.54 10.34,-38.56 1.31,-14.05 1.97,-29.05 1.97,-44.96 0,-15.37 -0.66,-29.56 -1.97,-42.56 -1.33,-13 -4.77,-24.7 -10.34,-35.19 -5.57,-10.49 -14.05,-15.72 -25.45,-15.72 -11.4,0 -19.88,5.3 -25.45,15.92 -5.57,10.59 -9.01,22.33 -10.34,35.19 -1.31,12.86 -1.97,26.98 -1.97,42.36 0,11.16 0.27,21.75 0.78,31.83 0.54,10.04 1.99,20.46 4.38,31.22 2.39,10.73 6.23,19.76 11.53,27.02 5.3,7.29 12.33,10.96 21.08,10.96z"/>
   <polyline class="fil1 str2" points="1247.21,5415.15 1525.39,5403.54 1803.54,5428.2 2081.72,5460.13 2359.87,5476.07 2638.05,5461.58 2916.2,5467.38 3194.38,5493.5 3472.56,5449.97 3750.71,5477.54 4028.87,5474.63 4307.05,5494.94 4585.2,5434.01 4863.35,5467.38 5141.54,5497.84 5419.72,5480.44 5697.87,5434.01 5976.02,5465.92 6254.21,5477.54 6532.36,5478.98 6810.52,5476.07 7088.7,5420.95 7366.88,5422.4 7645.04,5397.74 7923.19,5489.14 8201.38,5480.44 8479.52,5473.19 8757.68,5460.13 9035.86,5403.54 9314.06,5397.74 9592.2,5431.11 9870.36,5439.81 10148.54,5484.79 10426.7,5464.47 10704.84,5406.44 10983.04,5386.13 11261.22,5445.62 11539.37,5477.54 11817.52,5452.86 12095.71,5380.33 12373.86,5416.59 12652.02,5468.82 12930.2,5441.26 13208.39,5436.92 13486.53,5455.77 13764.68,5460.13 14042.87,5373.07 14321.02,5419.5 14599.17,5493.5 14877.36,5451.42 15155.54,5429.65 15433.7,5402.09 15711.85,5425.3 "/>
   <path class="fil2" d="M363.8 5605.8c0,16.42 -3.78,31.05 -11.32,43.93 -7.56,12.86 -18.1,22.81 -31.62,29.83 -13.52,7.02 -28.5,10.54 -44.95,10.54 -24.13,0 -48.05,-6.83 -71.77,-20.5 -23.75,-13.64 -43.17,-31.6 -58.27,-53.87 -15.11,-22.28 -22.68,-45.61 -22.68,-70 0,-12.73 2.27,-24.33 6.77,-34.81 4.5,-10.47 10.79,-19.29 18.89,-26.45 8.07,-7.16 17.49,-12.73 28.23,-16.69 10.74,-3.99 22.47,-5.99 35.2,-5.99 14.58,0 29.29,2.6 44.15,7.77 14.84,5.17 28.63,12.26 41.36,21.28 12.73,9.01 23.99,19.55 33.81,31.61 9.81,12.06 17.5,24.99 23.07,38.79 10.08,-1.61 18.03,-3.79 23.85,-6.57 5.84,-2.79 8.75,-8.29 8.75,-16.52 0,-8.74 -3.12,-16.89 -9.34,-24.46 -6.22,-7.54 -13.58,-12.38 -22.07,-14.5 -1.87,-0.28 -2.8,-1.47 -2.8,-3.6 0,-2.37 1.46,-3.57 4.38,-3.57 6.9,1.61 13.99,3.98 21.28,7.17 7.3,3.17 14.13,7.02 20.49,11.53 6.37,4.5 11.53,9.8 15.5,15.9 3.99,6.1 5.98,12.86 5.98,20.29 0,18.56 -11.8,27.83 -35.4,27.83 -1.6,0 -5.44,-0.26 -11.52,-0.78 -6.12,-0.54 -11.02,-0.82 -14.72,-0.82 3.17,10.6 4.76,21.49 4.76,32.64zm-22.66 12.31c8.74,0 13.11,-4.91 13.11,-14.72 0,-9.81 -2.4,-20.15 -7.15,-31.02l-3.18 0c-8.76,0 -15.66,1.39 -20.69,4.18 -5.02,2.78 -7.54,8.28 -7.54,16.52 0,3.96 1.19,7.87 3.56,11.73 2.41,3.83 5.59,7.01 9.55,9.54 3.98,2.51 8.1,3.77 12.34,3.77zm0.79 8.35c-5.83,0 -11.47,-1.6 -16.9,-4.76 -5.44,-3.19 -9.82,-7.37 -13.13,-12.55 -3.31,-5.16 -4.96,-10.66 -4.96,-16.49 0,-9.81 3.25,-16.84 9.75,-21.08 6.48,-4.24 14.9,-7.17 25.25,-8.75 -8.23,-14.05 -20.16,-26.51 -35.79,-37.39 -15.65,-10.86 -32.81,-19.07 -51.53,-24.64 -18.67,-5.58 -36.37,-8.37 -53.09,-8.37 -12.19,0 -23.46,1.98 -33.81,5.97 -10.32,3.97 -18.67,10.13 -25.04,18.48 -6.36,8.36 -9.54,18.64 -9.54,30.82 0,11.93 2.91,23.4 8.74,34.41 5.84,11.01 13.53,21.14 23.08,30.43 9.53,8.99 21.2,17.15 35,24.45 13.78,7.29 28.23,12.86 43.36,16.69 15.09,3.86 29.54,5.78 43.35,5.78 14.04,0 26.84,-2.78 38.37,-8.35 11.52,-5.57 19.81,-14.18 24.85,-25.85 -2.13,0.79 -4.77,1.19 -7.95,1.19z"/>
   <path class="fil2" d="M412.21 5383.51c0,18.84 -7.75,31.56 -23.26,38.17 -15.52,6.65 -33.87,9.96 -55.08,9.96 -13.25,0 -25.71,-1.19 -37.38,-3.59 -11.67,-2.38 -21.61,-7.14 -29.84,-14.31 -8.21,-7.16 -12.31,-17.24 -12.31,-30.24 0,-10.06 2.45,-18.27 7.36,-24.65 4.9,-6.35 11.27,-11.27 19.09,-14.69 7.82,-3.46 16.17,-5.81 25.04,-6.99 8.9,-1.19 18.24,-1.77 28.05,-1.77 13.26,0 25.59,1.19 36.99,3.57 11.4,2.38 21.14,7.16 29.22,14.31 8.1,7.17 12.14,17.24 12.14,30.22zm-5.95 0c0,-8.48 -4.39,-14.85 -13.13,-19.1 -8.76,-4.22 -18.44,-6.8 -29.05,-7.72 -10.6,-0.95 -21.87,-1.42 -33.8,-1.42 -11.41,0 -21.94,0.47 -31.61,1.42 -9.68,0.92 -18.49,3.5 -26.45,7.72 -7.96,4.24 -11.94,10.61 -11.94,19.1 0,8.75 3.98,15.19 11.94,19.3 7.96,4.11 16.77,6.63 26.45,7.55 9.67,0.93 20.2,1.41 31.61,1.41 8.48,0 16.52,-0.22 24.08,-0.62 7.55,-0.39 15.31,-1.45 23.27,-3.18 7.94,-1.72 14.7,-4.57 20.28,-8.56 5.57,-3.96 8.35,-9.26 8.35,-15.9z"/>
   <path class="fil2" d="M438.58 5091.77c-9.55,12.22 -20.63,22.74 -33.22,31.63 -12.58,8.9 -25.97,16.19 -40.15,21.9 -14.19,5.7 -29.03,9.94 -44.55,12.73 -15.51,2.78 -31.08,4.18 -46.72,4.18 -15.92,0 -31.63,-1.39 -47.14,-4.18 -15.52,-2.79 -30.43,-7.03 -44.73,-12.73 -14.31,-5.7 -27.72,-13.06 -40.18,-22.06 -12.46,-9.03 -23.33,-19.52 -32.61,-31.47 -0.53,0 -0.78,-0.5 -0.78,-1.56l0 -3.18c0,-0.55 0.25,-1.09 0.78,-1.6 0.53,-0.51 1.19,-0.78 1.99,-0.78 1.08,0 1.87,0.13 2.39,0.4 10.34,10.86 21.54,19.86 33.6,27.01 12.06,7.16 24.93,12.93 38.58,17.31 13.67,4.38 27.79,7.57 42.36,9.54 14.58,2 29.83,2.98 45.75,2.98 70,0 123.27,-18.8 159.87,-56.47 0.53,-0.51 1.45,-0.78 2.8,-0.78 0.53,0 1.13,0.27 1.79,0.78 0.65,0.51 0.99,1.05 0.99,1.6l0 3.18c0,1.06 -0.27,1.56 -0.8,1.56z"/>
   <path class="fil2" d="M356.66 4983.01l-121.7 48.12c-3.98,2.15 -6.5,5.33 -7.55,9.57 -1.08,4.24 -1.61,9.81 -1.61,16.66l-11.92 0 0 -69.57 11.92 0c0,12.46 2.52,18.67 7.56,18.67 1.07,0 1.73,-0.13 1.98,-0.38l93.47 -36.99 -84.3 -33.4c-1.6,-0.81 -3.32,-1.18 -5.18,-1.18 -4.24,0 -7.55,1.56 -9.94,4.75 -2.41,3.18 -3.6,7.02 -3.6,11.53l-11.92 0 0 -55.29 11.92 0c0,6.89 1.53,12.93 4.58,18.1 3.06,5.16 7.63,9.09 13.72,11.74l112.56 44.56c2.39,1.06 3.58,2.89 3.58,5.53l0 2.41c0,2.65 -1.19,4.34 -3.58,5.16z"/>
   <path class="fil2" d="M324.04 4891.95c-13,0 -23.6,-5.16 -31.81,-15.51 -8.23,-10.35 -14.07,-22.81 -17.52,-37.36 -3.44,-14.59 -5.17,-28.38 -5.17,-41.38l-13.51 0c-6.37,0 -12.53,1.39 -18.51,4.18 -5.95,2.78 -10.86,6.82 -14.72,12.15 -3.83,5.29 -5.75,11.1 -5.75,17.48 0,14.59 3.32,25.72 9.93,33.43 0,-4.24 1.6,-7.71 4.79,-10.35 3.17,-2.68 6.88,-4 11.12,-4 4.24,0 7.96,1.56 11.15,4.58 3.17,3.05 4.76,6.69 4.76,10.93 0,4.51 -1.6,8.38 -4.76,11.57 -3.19,3.16 -6.91,4.75 -11.15,4.75 -11.65,0 -20.34,-5.3 -26.04,-15.92 -5.7,-10.59 -8.54,-22.26 -8.54,-34.99 0,-8.99 1.9,-18.02 5.75,-27.05 3.84,-9.02 9.36,-16.35 16.52,-22.06 7.16,-5.7 15.37,-8.55 24.66,-8.55l74.76 0c4.24,0 8.15,-0.95 11.73,-2.78 3.6,-1.87 5.39,-4.78 5.39,-8.75 0,-3.7 -1.87,-6.42 -5.58,-8.15 -3.71,-1.73 -7.56,-2.62 -11.53,-2.62l-21.48 0 0 -9.53 21.48 0c4.77,0 9.41,1.26 13.93,3.8 4.5,2.51 8.09,5.95 10.74,10.32 2.66,4.38 3.96,9.09 3.96,14.15 0,6.58 -2.52,12.22 -7.55,16.9 -5.04,4.61 -11.01,7.2 -17.9,7.73 8.23,3.97 14.79,9.95 19.7,17.88 4.91,7.95 7.36,16.57 7.36,25.86 0,8.22 -1.19,16.46 -3.58,24.64 -2.4,8.25 -6.31,15.07 -11.75,20.5 -5.43,5.44 -12.38,8.15 -20.87,8.15zm0 -27.01c7.94,0 14.5,-2.86 19.67,-8.55 5.19,-5.7 7.76,-12.42 7.76,-20.1 0,-7.16 -1.72,-13.64 -5.17,-19.48 -3.44,-5.87 -8.28,-10.49 -14.53,-13.95 -6.23,-3.42 -12.65,-5.16 -19.28,-5.16l-34.61 0c0,10.08 1.67,20.37 4.98,30.81 3.32,10.5 8.48,19.14 15.51,26.07 7.03,6.89 15.58,10.35 25.66,10.35z"/>
   <path class="fil2" d="M356.66 4728.33l-11.53 0c0,-7.43 -0.6,-13.57 -1.79,-18.49 -1.19,-4.89 -4.19,-7.37 -8.95,-7.37l-90.29 0c-5.83,0 -10.07,0.95 -12.73,2.82 -2.64,1.84 -4.23,4.42 -4.76,7.73 -0.54,3.33 -0.81,8.42 -0.81,15.31l-11.92 0 -3.58 -47.3 32.6 0c-9.81,-3.46 -17.68,-8.52 -23.65,-15.1 -5.97,-6.66 -8.96,-14.63 -8.96,-23.9 0,-6.62 1.98,-12.52 5.95,-17.68 3.99,-5.19 9.16,-7.77 15.53,-7.77 3.97,0 7.41,1.46 10.34,4.39 2.91,2.91 4.37,6.47 4.37,10.72 0,4.01 -1.45,7.44 -4.37,10.35 -2.93,2.92 -6.37,4.38 -10.34,4.38 -6.12,0 -10.36,-2.14 -12.73,-6.38l0 2c0,9.03 3.24,16.33 9.75,21.9 6.48,5.56 14.5,9.53 24.06,11.91 9.53,2.38 18.67,3.6 27.44,3.6l54.09 0c7.16,0 10.74,-10.62 10.74,-31.83l11.53 0 0 80.73z"/>
   <path class="fil2" d="M439.38 4584.03c0,1.84 -0.93,2.75 -2.78,2.75 -1.07,0 -1.86,-0.1 -2.4,-0.38 -36.85,-37.9 -90.27,-56.87 -160.27,-56.87 -70,0 -123.29,18.7 -159.88,56.07 -0.55,0.81 -1.47,1.18 -2.8,1.18 -0.8,0 -1.46,-0.24 -1.99,-0.78 -0.53,-0.51 -0.78,-1.19 -0.78,-1.97l0 -3.18c0,-0.51 0.25,-1.06 0.78,-1.6 12.48,-15.92 27.66,-29.08 45.54,-39.57 17.89,-10.46 36.92,-18.16 57.07,-23.08 20.15,-4.93 40.85,-7.37 62.06,-7.37 15.64,0 31.01,1.36 46.12,4 15.11,2.66 30.02,6.83 44.74,12.53 14.72,5.7 28.3,13 40.78,21.86 12.45,8.89 23.45,19.44 33.01,31.63 0.53,0.54 0.8,1.09 0.8,1.6l0 3.18z"/>
   <polygon class="fil0" points="1247.21,7788.66 16824.52,7788.66 16824.52,6363.28 1247.21,6363.28 "/>
   <line class="fil1 str0" x1="1247.21" y1="7788.66" x2="1247.21" y2= "6363.28" />
   <line class="fil1 str0" x1="3472.56" y1="7788.66" x2="3472.56" y2= "6363.28" />
   <line class="fil1 str0" x1="5697.87" y1="7788.66" x2="5697.87" y2= "6363.28" />
   <line class="fil1 str0" x1="7923.19" y1="7788.66" x2="7923.19" y2= "6363.28" />
   <line class="fil1 str0" x1="10148.54" y1="7788.66" x2="10148.54" y2= "6363.28" />
   <line class="fil1 str0" x1="12373.86" y1="7788.66" x2="12373.86" y2= "6363.28" />
   <line class="fil1 str0" x1="14599.17" y1="7788.66" x2="14599.17" y2= "6363.28" />
   <line class="fil1 str0" x1="16824.52" y1="7788.66" x2="16824.52" y2= "6363.28" />
   <line class="fil1 str0" x1="16824.52" y1="7788.66" x2="1247.21" y2= "7788.66" />
   <line class="fil1 str0" x1="16824.52" y1="6363.28" x2="1247.21" y2= "6363.28" />
   <line class="fil1 str1" x1="1247.21" y1="7788.66" x2="16824.52" y2= "7788.66" />
   <line class="fil1 str1" x1="1247.21" y1="7788.66" x2="1247.21" y2= "7632.89" />
   <line class="fil1 str1" x1="3472.56" y1="7788.66" x2="3472.56" y2= "7632.89" />
   <line class="fil1 str1" x1="5697.87" y1="7788.66" x2="5697.87" y2= "7632.89" />
   <line class="fil1 str1" x1="7923.19" y1="7788.66" x2="7923.19" y2= "7632.89" />
   <line class="fil1 str1" x1="10148.54" y1="7788.66" x2="10148.54" y2= "7632.89" />
   <line class="fil1 str1" x1="12373.86" y1="7788.66" x2="12373.86" y2= "7632.89" />
   <line class="fil1 str1" x1="14599.17" y1="7788.66" x2="14599.17" y2= "7632.89" />
   <line class="fil1 str1" x1="16824.52" y1="7788.66" x2="16824.52" y2= "7632.89" />
   <path class="fil2" d="M1247.21 8147.02c-24.92,0 -41.89,-10.27 -50.9,-30.82 -9.01,-20.55 -13.53,-45 -13.53,-73.37 0,-17.77 1.59,-34.4 4.77,-49.92 3.18,-15.51 9.61,-28.77 19.29,-39.78 9.67,-11.01 23.14,-16.49 40.37,-16.49 13.53,0 24.53,3.31 33.02,9.94 8.48,6.63 14.98,15.11 19.5,25.45 4.49,10.34 7.54,21.47 9.13,33.39 1.61,11.93 2.41,24.4 2.41,37.4 0,17.5 -1.61,33.86 -4.79,49.11 -3.18,15.25 -9.47,28.24 -18.88,38.98 -9.42,10.74 -22.88,16.1 -40.38,16.1zm0 -7.97c11.4,0 19.88,-5.82 25.45,-17.49 5.57,-11.67 9.01,-24.54 10.34,-38.58 1.32,-14.05 1.97,-29.03 1.97,-44.95 0,-15.37 -0.65,-29.56 -1.97,-42.56 -1.33,-12.99 -4.77,-24.7 -10.34,-35.18 -5.57,-10.49 -14.05,-15.72 -25.45,-15.72 -11.4,0 -19.88,5.3 -25.45,15.91 -5.56,10.6 -9,22.34 -10.33,35.19 -1.32,12.86 -1.98,26.98 -1.98,42.36 0,11.15 0.27,21.76 0.79,31.81 0.53,10.08 1.98,20.49 4.37,31.24 2.39,10.74 6.23,19.75 11.53,27.03 5.31,7.29 12.33,10.94 21.08,10.94z"/>
   <path class="fil2" d="M3411.3 8140.25l0 -8.35c0,-0.53 0.27,-1.06 0.78,-1.61l47.31 -52.48c7.16,-7.7 13.04,-14.19 17.51,-19.51 4.55,-5.28 8.97,-11.38 13.34,-18.29 4.34,-6.9 7.8,-13.85 10.35,-20.89 2.51,-7.02 3.76,-14.51 3.76,-22.46 0,-8.48 -1.52,-16.51 -4.58,-24.07 -3.05,-7.54 -7.6,-13.63 -13.71,-18.29 -6.11,-4.63 -13.55,-6.95 -22.3,-6.95 -8.73,0 -16.7,2.71 -23.82,8.14 -7.17,5.44 -12.22,12.26 -15.14,20.49 0.82,0 2,0 3.6,0 4.51,0 8.35,1.53 11.54,4.58 3.16,3.05 4.74,6.95 4.74,11.72 0,4.78 -1.59,8.76 -4.74,11.93 -3.19,3.19 -7.03,4.79 -11.54,4.79 -4.78,0 -8.82,-1.66 -12.15,-4.99 -3.29,-3.31 -4.95,-7.22 -4.95,-11.73 0,-7.69 1.46,-14.84 4.38,-21.46 2.89,-6.63 7.06,-12.59 12.53,-17.9 5.43,-5.3 11.53,-9.36 18.29,-12.14 6.75,-2.77 13.99,-4.16 21.69,-4.16 11.64,0 22.53,2.51 32.57,7.55 10.08,5.03 18.06,12 23.9,20.87 5.84,8.9 8.75,19.43 8.75,31.62 0,8.74 -1.93,17.11 -5.77,25.07 -3.87,7.94 -8.82,15.16 -14.93,21.65 -6.11,6.5 -13.84,13.92 -23.24,22.27 -9.44,8.36 -15.61,13.85 -18.54,16.52l-34.57 33.4 29.04 0c14.56,0 26.68,-0.13 36.35,-0.38 9.71,-0.27 14.8,-0.66 15.33,-1.19 2.38,-2.66 4.93,-12.08 7.57,-28.25l8.75 0 -8.75 54.5 -113.35 0z"/>
   <path class="fil2" d="M5629.86 8089.75l0 -10.74 94.65 -140.81c0.54,-1.06 1.6,-1.57 3.19,-1.57l4.38 0c2.38,0 3.56,1.18 3.56,3.57l0 138.81 29.83 0 0 10.74 -29.83 0 0 30.21c0,3.98 2.99,6.57 8.96,7.77 5.97,1.19 12.79,1.78 20.47,1.78l0 10.75 -83.9 0 0 -10.75c7.67,0 14.53,-0.59 20.46,-1.78 5.97,-1.2 8.97,-3.79 8.97,-7.77l0 -30.21 -80.74 0zm10.31 -10.74l72.39 0 0 -108.18 -72.39 108.18z"/>
   <path class="fil2" d="M7923.19 8147.02c-12.73,0 -23.25,-3.38 -31.6,-10.15 -8.35,-6.75 -14.86,-15.44 -19.51,-26.04 -4.62,-10.6 -7.88,-21.81 -9.75,-33.62 -1.87,-11.79 -2.78,-23.67 -2.78,-35.58 0,-16.18 3.19,-32.35 9.57,-48.52 6.35,-16.17 15.57,-29.63 27.62,-40.37 12.08,-10.74 26.45,-16.1 43.14,-16.1 7.17,0 13.75,1.31 19.72,3.96 5.94,2.65 10.66,6.56 14.08,11.73 3.46,5.19 5.19,11.35 5.19,18.51 0,4.24 -1.39,7.75 -4.18,10.53 -2.78,2.79 -6.31,4.18 -10.55,4.18 -3.97,0 -7.44,-1.39 -10.35,-4.18 -2.92,-2.78 -4.35,-6.29 -4.35,-10.53 0,-3.99 1.42,-7.37 4.35,-10.16 2.91,-2.78 6.38,-4.18 10.35,-4.18l1.59 0c-2.65,-3.71 -6.27,-6.43 -10.92,-8.14 -4.66,-1.73 -9.61,-2.6 -14.94,-2.6 -6.07,0 -11.71,1.33 -16.9,3.99 -5.16,2.65 -9.87,6.21 -14.11,10.73 -4.24,4.5 -7.73,9.54 -10.52,15.11 -2.78,5.56 -4.92,11.86 -6.38,18.88 -1.46,7.03 -2.38,13.66 -2.78,19.9 -0.38,6.22 -0.58,13.99 -0.58,23.26 3.42,-8.48 8.48,-15.37 15.1,-20.69 6.62,-5.29 14.05,-7.94 22.26,-7.94 9.02,0 17.24,1.86 24.68,5.55 7.43,3.71 13.84,8.81 19.27,15.32 5.44,6.5 9.54,13.93 12.32,22.27 2.78,8.35 4.18,16.77 4.18,25.25 0,11.93 -2.65,23.33 -7.95,34.22 -5.29,10.87 -12.79,19.48 -22.46,25.85 -9.67,6.36 -20.6,9.54 -32.81,9.54zm0 -9.95c7.98,0 14.31,-1.79 19.11,-5.38 4.75,-3.58 8.28,-8.28 10.51,-14.12 2.28,-5.82 3.67,-11.78 4.18,-17.89 0.55,-6.08 0.82,-13.51 0.82,-22.27 0,-11.4 -0.62,-21.21 -1.8,-29.42 -1.18,-8.22 -4.18,-15.37 -8.93,-21.49 -4.78,-6.08 -12.22,-9.13 -22.26,-9.13 -8.24,0 -15,2.78 -20.3,8.35 -5.33,5.55 -9.23,12.58 -11.74,21.07 -2.55,8.48 -3.8,16.57 -3.8,24.25 0,2.66 0.13,4.77 0.4,6.37 0,0.28 0,0.48 0,0.61 0,0.13 -0.13,0.32 -0.4,0.59 0,8.76 0.94,17.64 2.81,26.66 1.84,9 5.3,16.58 10.32,22.67 5.06,6.1 12.08,9.14 21.08,9.14z"/>
   <path class="fil2" d="M10084.91 8093.72c0,-12.2 4.04,-23.01 12.12,-32.42 8.08,-9.41 18.5,-17.16 31.22,-23.27l-11.53 -7.55c-6.89,-4.51 -12.53,-10.53 -16.9,-18.09 -4.38,-7.56 -6.55,-15.59 -6.55,-24.08 0,-9.8 2.58,-18.62 7.77,-26.45 5.16,-7.82 11.95,-13.97 20.43,-18.48 8.48,-4.5 17.51,-6.75 27.08,-6.75 8.99,0 17.75,1.85 26.23,5.56 8.48,3.7 15.37,9 20.7,15.91 5.29,6.9 7.94,15.1 7.94,24.65 0,6.63 -1.59,12.94 -4.74,18.9 -3.23,5.95 -7.61,11.26 -13.17,15.9 -5.57,4.65 -11.51,8.55 -17.88,11.74l17.51 11.12c7.95,5.32 14.39,12.28 19.28,20.89 4.92,8.61 7.36,17.57 7.36,26.84 0,11.14 -2.98,21.21 -8.92,30.24 -6.01,9.01 -13.81,16.05 -23.49,21.08 -9.67,5.04 -19.95,7.56 -30.81,7.56 -10.62,0 -20.84,-2.12 -30.61,-6.36 -9.81,-4.24 -17.79,-10.48 -23.9,-18.71 -6.11,-8.21 -9.13,-17.61 -9.13,-28.23zm16.7 0c0,8.21 2.17,15.63 6.55,22.27 4.38,6.62 10.22,11.79 17.51,15.5 7.3,3.71 14.9,5.58 22.88,5.58 11.91,0 22.67,-3.44 32.21,-10.34 9.53,-6.9 14.32,-16.05 14.32,-27.44 0,-3.71 -0.75,-7.49 -2.21,-11.35 -1.45,-3.83 -3.56,-7.34 -6.34,-10.53 -2.79,-3.17 -5.91,-5.69 -9.37,-7.56l-40.93 -26.64c-6.38,3.45 -12.22,7.76 -17.51,12.92 -5.29,5.18 -9.47,10.95 -12.53,17.32 -3.05,6.36 -4.58,13.12 -4.58,20.28zm21.08 -93.06l36.99 23.84c8.48,-5.03 15.44,-11.06 20.88,-18.1 5.43,-7.02 8.14,-14.91 8.14,-23.66 0,-6.9 -1.9,-13.19 -5.73,-18.89 -3.87,-5.7 -8.82,-10.14 -14.93,-13.31 -6.11,-3.19 -12.73,-4.78 -19.88,-4.78 -6.11,0 -12.26,1.19 -18.5,3.6 -6.2,2.39 -11.4,5.9 -15.51,10.52 -4.11,4.64 -6.18,10.14 -6.18,16.5 0,9.54 4.92,17.65 14.73,24.28z"/>
   <path class="fil2" d="M12249.38 8140.25l0 -10.75c25.45,0 38.18,-3.18 38.18,-9.55l0 -160.66c-10.35,5.3 -23.59,7.94 -39.74,7.94l0 -10.74c24.91,0 43.74,-6.63 56.47,-19.87l4.35 0c0.54,0 1.15,0.33 1.8,0.98 0.67,0.65 1.01,1.25 1.01,1.79l0 180.55c0,6.37 12.73,9.55 38.18,9.55l0 10.75 -100.25 0z"/>
   <path class="fil2" d="M12450.22 8147.02c-24.91,0 -41.88,-10.27 -50.9,-30.82 -8.99,-20.55 -13.51,-45 -13.51,-73.37 0,-17.77 1.56,-34.4 4.75,-49.92 3.18,-15.51 9.64,-28.77 19.31,-39.78 9.67,-11.01 23.11,-16.49 40.35,-16.49 13.52,0 24.54,3.31 33.03,9.94 8.48,6.63 14.97,15.11 19.48,25.45 4.51,10.34 7.57,21.47 9.16,33.39 1.6,11.93 2.38,24.4 2.38,37.4 0,17.5 -1.59,33.86 -4.78,49.11 -3.16,15.25 -9.47,28.24 -18.9,38.98 -9.4,10.74 -22.84,16.1 -40.36,16.1zm0 -7.97c11.41,0 19.89,-5.82 25.45,-17.49 5.57,-11.67 9.03,-24.54 10.35,-38.58 1.33,-14.05 1.97,-29.03 1.97,-44.95 0,-15.37 -0.64,-29.56 -1.97,-42.56 -1.32,-12.99 -4.78,-24.7 -10.35,-35.18 -5.56,-10.49 -14.05,-15.72 -25.45,-15.72 -11.4,0 -19.88,5.3 -25.45,15.91 -5.57,10.6 -8.99,22.34 -10.32,35.19 -1.32,12.86 -2,26.98 -2,42.36 0,11.15 0.27,21.76 0.82,31.81 0.51,10.08 1.96,20.49 4.34,31.24 2.38,10.74 6.24,19.75 11.54,27.03 5.29,7.29 12.31,10.94 21.07,10.94z"/>
   <path class="fil2" d="M14474.69 8140.25l0 -10.75c25.45,0 38.18,-3.18 38.18,-9.55l0 -160.66c-10.32,5.3 -23.59,7.94 -39.74,7.94l0 -10.74c24.91,0 43.74,-6.63 56.47,-19.87l4.35 0c0.54,0 1.14,0.33 1.79,0.98 0.68,0.65 1.02,1.25 1.02,1.79l0 180.55c0,6.37 12.73,9.55 38.18,9.55l0 10.75 -100.25 0z"/>
   <path class="fil2" d="M14614.31 8140.25l0 -8.35c0,-0.53 0.28,-1.06 0.78,-1.61l47.31 -52.48c7.2,-7.7 13.04,-14.19 17.51,-19.51 4.55,-5.28 8.97,-11.38 13.34,-18.29 4.38,-6.9 7.8,-13.85 10.35,-20.89 2.51,-7.02 3.76,-14.51 3.76,-22.46 0,-8.48 -1.52,-16.51 -4.58,-24.07 -3.05,-7.54 -7.6,-13.63 -13.71,-18.29 -6.11,-4.63 -13.51,-6.95 -22.26,-6.95 -8.75,0 -16.7,2.71 -23.86,8.14 -7.17,5.44 -12.22,12.26 -15.14,20.49 0.82,0 2,0 3.6,0 4.51,0 8.35,1.53 11.54,4.58 3.16,3.05 4.75,6.95 4.75,11.72 0,4.78 -1.6,8.76 -4.75,11.93 -3.19,3.19 -7.03,4.79 -11.54,4.79 -4.78,0 -8.82,-1.66 -12.15,-4.99 -3.29,-3.31 -4.95,-7.22 -4.95,-11.73 0,-7.69 1.46,-14.84 4.38,-21.46 2.92,-6.63 7.1,-12.59 12.53,-17.9 5.44,-5.3 11.54,-9.36 18.3,-12.14 6.75,-2.77 13.98,-4.16 21.68,-4.16 11.67,0 22.53,2.51 32.58,7.55 10.07,5.03 18.05,12 23.89,20.87 5.84,8.9 8.75,19.43 8.75,31.62 0,8.74 -1.93,17.11 -5.76,25.07 -3.84,7.94 -8.83,15.16 -14.94,21.65 -6.11,6.5 -13.84,13.92 -23.24,22.27 -9.44,8.36 -15.57,13.85 -18.5,16.52l-34.61 33.4 29.05 0c14.56,0 26.71,-0.13 36.34,-0.38 9.71,-0.27 14.8,-0.66 15.33,-1.19 2.41,-2.66 4.93,-12.08 7.57,-28.25l8.75 0 -8.75 54.5 -113.35 0z"/>
   <path class="fil2" d="M16700.04 8140.25l0 -10.75c25.45,0 38.18,-3.18 38.18,-9.55l0 -160.66c-10.35,5.3 -23.59,7.94 -39.77,7.94l0 -10.74c24.94,0 43.77,-6.63 56.5,-19.87l4.35 0c0.54,0 1.12,0.33 1.8,0.98 0.64,0.65 0.98,1.25 0.98,1.79l0 180.55c0,6.37 12.73,9.55 38.18,9.55l0 10.75 -100.22 0z"/>
   <path class="fil2" d="M16832.87 8089.75l0 -10.74 94.65 -140.81c0.55,-1.06 1.6,-1.57 3.19,-1.57l4.38 0c2.38,0 3.56,1.18 3.56,3.57l0 138.81 29.83 0 0 10.74 -29.83 0 0 30.21c0,3.98 2.99,6.57 8.97,7.77 5.96,1.19 12.79,1.78 20.49,1.78l0 10.75 -83.93 0 0 -10.75c7.67,0 14.53,-0.59 20.46,-1.78 5.97,-1.2 8.97,-3.79 8.97,-7.77l0 -30.21 -80.74 0zm10.32 -10.74l72.42 0 0 -108.18 -72.42 108.18z"/>
   <path class="fil2" d="M8242.65 8549.4l0 -11.53c10.89,0 21.55,-0.66 32.03,-1.99 10.45,-1.31 15.71,-4.24 15.71,-8.75l0 -181.76c0,-4.75 -1.32,-7.68 -4,-8.72 -2.62,-1.08 -6.86,-1.61 -12.73,-1.61l-13.91 0c-18.3,0 -31.12,3.97 -38.56,11.93 -4,3.97 -6.86,10.34 -8.55,19.09 -1.73,8.74 -3.26,19.74 -4.58,33.02l-9.54 0 6.35 -75.57 202.07 0 6.34 75.57 -9.53 0c-1.36,-14.05 -2.82,-25.26 -4.38,-33.62 -1.6,-8.35 -4.38,-14.51 -8.35,-18.48 -7.98,-7.96 -20.94,-11.93 -38.99,-11.93l-13.92 0c-3.97,0 -7.09,0.13 -9.36,0.39 -2.24,0.26 -4.04,1.18 -5.37,2.79 -1.32,1.59 -1.96,3.97 -1.96,7.14l0 181.76c0,4.51 5.22,7.45 15.71,8.75 10.49,1.33 21.14,1.99 32.01,1.99l0 11.53 -126.48 0z"/>
   <path class="fil2" d="M8439.58 8549.4l0 -11.53c7.4,0 13.57,-0.6 18.5,-1.78 4.89,-1.2 7.33,-4.18 7.33,-8.97l0 -90.27c0,-8.48 -1.63,-13.65 -4.95,-15.51 -3.29,-1.86 -9.88,-2.8 -19.68,-2.8l0 -11.9 47.72 -3.6 0 124.08c0,4.78 2.14,7.76 6.38,8.97 4.24,1.18 9.81,1.78 16.7,1.78l0 11.53 -71.99 0zm13.92 -203.21c0,-4.79 1.87,-9.03 5.56,-12.73 3.7,-3.72 7.81,-5.58 12.35,-5.58 3.16,0 6.21,0.86 9.13,2.57 2.92,1.73 5.17,4.06 6.75,6.97 1.6,2.91 2.41,5.83 2.41,8.76 0,4.75 -1.8,8.99 -5.4,12.72 -3.57,3.7 -7.88,5.55 -12.9,5.55 -4.54,0 -8.65,-1.85 -12.35,-5.55 -3.69,-3.72 -5.56,-7.97 -5.56,-12.72z"/>
   <path class="fil2" d="M8532.5 8549.4l0 -11.53c7.44,0 13.57,-0.6 18.5,-1.78 4.93,-1.2 7.37,-4.18 7.37,-8.97l0 -90.27c0,-5.85 -0.92,-10.09 -2.79,-12.73 -1.87,-2.66 -4.44,-4.24 -7.77,-4.76 -3.32,-0.54 -8.42,-0.82 -15.31,-0.82l0 -11.9 47.75 -3.6 0 32.6c4.48,-9.53 11.13,-17.35 19.86,-23.46 8.75,-6.09 18.19,-9.14 28.26,-9.14 25.45,0 40.42,10.34 44.91,31.02 4.24,-9.28 10.62,-16.78 19.11,-22.47 8.48,-5.7 17.91,-8.55 28.23,-8.55 9.8,0 18.15,1.65 25.08,4.95 6.85,3.33 12.04,8.3 15.48,14.92 3.45,6.64 5.19,14.85 5.19,24.67l0 79.54c0,4.78 2.44,7.76 7.33,8.97 4.93,1.18 11.1,1.78 18.5,1.78l0 11.53 -75.55 0 0 -11.53c7.44,0 13.61,-0.6 18.5,-1.78 4.92,-1.2 7.36,-4.18 7.36,-8.97l0 -78.35c0,-11.13 -1.6,-20.09 -4.78,-26.84 -3.19,-6.76 -9.68,-10.15 -19.48,-10.15 -12.73,0 -23.21,5.11 -31.43,15.31 -8.22,10.22 -12.31,21.82 -12.31,34.8l0 65.23c0,4.78 2.38,7.76 7.16,8.97 4.78,1.18 11,1.78 18.7,1.78l0 11.53 -75.99 0 0 -11.53c7.71,0 13.91,-0.6 18.7,-1.78 4.78,-1.2 7.16,-4.18 7.16,-8.97l0 -78.35c0,-10.87 -1.53,-19.75 -4.58,-26.65 -3.02,-6.89 -9.47,-10.34 -19.28,-10.34 -12.73,0 -23.21,5.11 -31.43,15.31 -8.21,10.22 -12.31,21.82 -12.31,34.8l0 65.23c0,4.78 2.38,7.76 7.16,8.97 4.75,1.18 10.86,1.78 18.3,1.78l0 11.53 -75.59 0z"/>
   <path class="fil2" d="M8884.88 8552.99c-13.51,0 -25.86,-3.51 -36.99,-10.54 -11.13,-7.03 -19.95,-16.46 -26.44,-28.24 -6.48,-11.8 -9.75,-24.19 -9.75,-37.2 0,-12.98 2.92,-25.31 8.73,-36.97 5.84,-11.67 14.05,-21.07 24.68,-28.24 10.58,-7.16 22.26,-10.74 34.99,-10.74 10.35,0 19.24,1.72 26.64,5.18 7.44,3.44 13.61,8.15 18.53,14.13 4.89,5.95 8.55,13.04 10.93,21.27 2.38,8.21 3.57,17.23 3.57,27.03 0,2.91 -1.06,4.38 -3.16,4.38l-95.87 0 0 3.59c0,18.29 3.69,34 11.16,47.12 7.4,13.12 19.45,19.7 36.18,19.7 6.62,0 12.82,-1.54 18.66,-4.59 5.87,-3.05 10.9,-7.22 15.14,-12.53 4.24,-5.3 7.02,-11.15 8.34,-17.52 0.28,-0.51 0.75,-1.11 1.39,-1.77 0.68,-0.66 1.26,-1 1.8,-1l3.19 0c2.1,0 3.16,1.46 3.16,4.38 -2.92,12.46 -9.54,22.67 -19.89,30.62 -10.35,7.96 -21.99,11.95 -34.99,11.95zm-43.74 -88.3l75.17 0c0,-8.23 -1.15,-16.59 -3.4,-25.07 -2.24,-8.48 -6.11,-15.57 -11.53,-21.25 -5.44,-5.7 -12.53,-8.55 -21.28,-8.55 -12.46,0 -22.06,5.82 -28.81,17.49 -6.79,11.66 -10.15,24.13 -10.15,37.38z"/>
   <path class="fil2" d="M9166.46 8631.33c-12.18,-9.54 -22.7,-20.62 -31.59,-33.21 -8.89,-12.59 -16.15,-25.98 -21.86,-40.17 -5.7,-14.18 -9.95,-29.03 -12.73,-44.54 -2.78,-15.51 -4.18,-31.08 -4.18,-46.72 0,-15.92 1.39,-31.63 4.18,-47.15 2.78,-15.51 7.02,-30.41 12.73,-44.71 5.7,-14.33 13.04,-27.72 22.06,-40.19 9.02,-12.46 19.48,-23.32 31.39,-32.61 0,-0.52 0.55,-0.78 1.64,-0.78l3.16 0c0.54,0 1.05,0.26 1.59,0.78 0.55,0.53 0.79,1.19 0.79,1.99 0,1.07 -0.14,1.87 -0.38,2.4 -10.9,10.33 -19.88,21.53 -27.05,33.59 -7.16,12.06 -12.93,24.93 -17.31,38.59 -4.35,13.66 -7.53,27.78 -9.53,42.36 -2,14.57 -2.99,29.82 -2.99,45.74 0,70 18.84,123.28 56.47,159.86 0.55,0.53 0.79,1.47 0.79,2.81 0,0.52 -0.24,1.12 -0.79,1.78 -0.54,0.66 -1.05,1 -1.59,1l-3.16 0c-1.09,0 -1.64,-0.27 -1.64,-0.8z"/>
   <path class="fil2" d="M9204.47 8549.4l0 -11.53c7.44,0 13.57,-0.6 18.54,-1.78 4.89,-1.2 7.33,-4.18 7.33,-8.97l0 -90.27c0,-5.85 -0.92,-10.09 -2.79,-12.73 -1.87,-2.66 -4.44,-4.24 -7.73,-4.76 -3.33,-0.54 -8.46,-0.82 -15.34,-0.82l0 -11.9 47.75 -3.6 0 32.6c4.48,-9.53 11.13,-17.35 19.86,-23.46 8.75,-6.09 18.19,-9.14 28.26,-9.14 25.45,0 40.42,10.34 44.91,31.02 4.24,-9.28 10.62,-16.78 19.11,-22.47 8.48,-5.7 17.91,-8.55 28.23,-8.55 9.8,0 18.15,1.65 25.08,4.95 6.85,3.33 12.04,8.3 15.48,14.92 3.45,6.64 5.19,14.85 5.19,24.67l0 79.54c0,4.78 2.44,7.76 7.37,8.97 4.89,1.18 11.06,1.78 18.46,1.78l0 11.53 -75.55 0 0 -11.53c7.44,0 13.61,-0.6 18.5,-1.78 4.92,-1.2 7.36,-4.18 7.36,-8.97l0 -78.35c0,-11.13 -1.6,-20.09 -4.78,-26.84 -3.19,-6.76 -9.68,-10.15 -19.48,-10.15 -12.73,0 -23.21,5.11 -31.43,15.31 -8.22,10.22 -12.31,21.82 -12.31,34.8l0 65.23c0,4.78 2.38,7.76 7.16,8.97 4.78,1.18 11,1.78 18.7,1.78l0 11.53 -75.99 0 0 -11.53c7.71,0 13.91,-0.6 18.7,-1.78 4.78,-1.2 7.16,-4.18 7.16,-8.97l0 -78.35c0,-10.87 -1.53,-19.75 -4.58,-26.65 -3.02,-6.89 -9.47,-10.34 -19.28,-10.34 -12.73,0 -23.21,5.11 -31.43,15.31 -8.21,10.22 -12.31,21.82 -12.31,34.8l0 65.23c0,4.78 2.38,7.76 7.16,8.97 4.75,1.18 10.86,1.78 18.3,1.78l0 11.53 -75.59 0z"/>
   <path class="fil2" d="M9484.86 8549.4l0 -11.53c7.43,0 13.57,-0.6 18.49,-1.78 4.89,-1.2 7.33,-4.18 7.33,-8.97l0 -90.27c0,-8.48 -1.63,-13.65 -4.95,-15.51 -3.29,-1.86 -9.87,-2.8 -19.68,-2.8l0 -11.9 47.72 -3.6 0 124.08c0,4.78 2.15,7.76 6.39,8.97 4.24,1.18 9.8,1.78 16.69,1.78l0 11.53 -71.98 0zm13.91 -203.21c0,-4.79 1.87,-9.03 5.57,-12.73 3.73,-3.72 7.84,-5.58 12.35,-5.58 3.16,0 6.2,0.86 9.13,2.57 2.91,1.73 5.16,4.06 6.75,6.97 1.6,2.91 2.38,5.83 2.38,8.76 0,4.75 -1.77,8.99 -5.37,12.72 -3.56,3.7 -7.87,5.55 -12.89,5.55 -4.51,0 -8.62,-1.85 -12.35,-5.55 -3.7,-3.72 -5.57,-7.97 -5.57,-12.72z"/>
   <path class="fil2" d="M9577.78 8549.4l0 -11.53c7.43,0 13.57,-0.6 18.5,-1.78 4.89,-1.2 7.36,-4.18 7.36,-8.97l0 -90.27c0,-5.85 -0.95,-10.09 -2.78,-12.73 -1.87,-2.66 -4.44,-4.24 -7.77,-4.76 -3.29,-0.54 -8.42,-0.82 -15.31,-0.82l0 -11.9 47.74 -3.6 0 32.6c4.48,-9.53 11.1,-17.35 19.89,-23.46 8.72,-6.09 18.15,-9.14 28.2,-9.14 15.41,0 26.95,3.71 34.62,11.12 7.7,7.44 11.53,18.58 11.53,33.42l0 79.54c0,4.78 2.38,7.76 7.16,8.97 4.75,1.18 11,1.78 18.67,1.78l0 11.53 -75.95 0 0 -11.53c7.7,0 13.91,-0.6 18.69,-1.78 4.79,-1.2 7.17,-4.18 7.17,-8.97l0 -78.35c0,-10.87 -1.53,-19.75 -4.58,-26.65 -3.06,-6.89 -9.48,-10.34 -19.28,-10.34 -12.73,0 -23.21,5.11 -31.43,15.31 -8.22,10.22 -12.32,21.82 -12.32,34.8l0 65.23c0,4.78 2.38,7.76 7.17,8.97 4.75,1.18 10.86,1.78 18.29,1.78l0 11.53 -75.58 0z"/>
   <path class="fil2" d="M9775.98 8632.13c-1.83,0 -2.78,-0.93 -2.78,-2.78 0,-1.07 0.13,-1.87 0.4,-2.4 37.91,-36.85 56.88,-90.27 56.88,-160.27 0,-70 -18.7,-123.29 -56.1,-159.88 -0.78,-0.55 -1.18,-1.48 -1.18,-2.8 0,-0.8 0.27,-1.46 0.82,-1.99 0.5,-0.52 1.14,-0.78 1.96,-0.78l3.19 0c0.51,0 1.05,0.26 1.6,0.78 15.91,12.48 29.08,27.66 39.53,45.54 10.49,17.9 18.19,36.93 23.12,57.07 4.89,20.16 7.33,40.85 7.33,62.06 0,15.64 -1.33,31.02 -3.97,46.12 -2.65,15.11 -6.82,30.03 -12.53,44.74 -5.7,14.71 -13,28.3 -21.89,40.78 -8.89,12.46 -19.41,23.46 -31.59,33.01 -0.55,0.53 -1.09,0.8 -1.6,0.8l-3.19 0z"/>
   <line class="fil1 str1" x1="1247.21" y1="7788.66" x2="1247.21" y2= "6363.28" />
   <line class="fil1 str1" x1="1247.21" y1="7788.66" x2="1402.97" y2= "7788.66" />
   <line class="fil1 str1" x1="1247.21" y1="6363.28" x2="1402.97" y2= "6363.28" />
   <path class="fil2" d="M1075.82 7868.73c-24.93,0 -41.9,-10.27 -50.91,-30.82 -9.01,-20.55 -13.52,-45 -13.52,-73.37 0,-17.77 1.59,-34.4 4.77,-49.91 3.17,-15.52 9.61,-28.78 19.29,-39.79 9.66,-11.01 23.14,-16.49 40.37,-16.49 13.53,0 24.53,3.31 33.02,9.94 8.48,6.63 14.98,15.11 19.47,25.45 4.52,10.34 7.56,21.47 9.16,33.39 1.61,11.94 2.4,24.4 2.4,37.4 0,17.5 -1.61,33.87 -4.78,49.11 -3.18,15.25 -9.47,28.24 -18.89,38.98 -9.41,10.74 -22.87,16.1 -40.37,16.1zm0 -7.97c11.4,0 19.88,-5.82 25.45,-17.49 5.57,-11.66 9.01,-24.53 10.34,-38.58 1.31,-14.05 1.97,-29.03 1.97,-44.95 0,-15.37 -0.66,-29.56 -1.97,-42.55 -1.33,-13 -4.77,-24.71 -10.34,-35.19 -5.57,-10.49 -14.05,-15.72 -25.45,-15.72 -11.4,0 -19.88,5.3 -25.45,15.91 -5.57,10.6 -9.01,22.34 -10.34,35.2 -1.31,12.85 -1.97,26.97 -1.97,42.35 0,11.15 0.27,21.76 0.78,31.81 0.54,10.08 1.99,20.49 4.38,31.24 2.39,10.75 6.23,19.76 11.53,27.03 5.3,7.29 12.33,10.94 21.08,10.94z"/>
   <path class="fil2" d="M838.28 6443.35c-24.94,0 -41.91,-10.28 -50.91,-30.82 -9.02,-20.55 -13.55,-45.01 -13.55,-73.38 0,-17.77 1.61,-34.4 4.78,-49.91 3.18,-15.52 9.62,-28.78 19.31,-39.79 9.66,-11 23.12,-16.49 40.37,-16.49 13.51,0 24.5,3.32 32.99,9.94 8.48,6.63 14.98,15.11 19.5,25.45 4.5,10.34 7.55,21.48 9.13,33.4 1.6,11.93 2.39,24.39 2.39,37.39 0,17.5 -1.58,33.87 -4.76,49.12 -3.17,15.24 -9.48,28.23 -18.87,38.97 -9.43,10.75 -22.88,16.11 -40.37,16.11zm0 -7.98c11.39,0 19.88,-5.82 25.45,-17.48 5.55,-11.67 8.99,-24.54 10.32,-38.58 1.33,-14.05 1.99,-29.03 1.99,-44.96 0,-15.37 -0.66,-29.55 -1.99,-42.55 -1.33,-12.99 -4.77,-24.71 -10.32,-35.18 -5.58,-10.49 -14.06,-15.73 -25.45,-15.73 -11.41,0 -19.89,5.31 -25.45,15.91 -5.58,10.61 -9.04,22.34 -10.37,35.2 -1.32,12.86 -1.98,26.97 -1.98,42.35 0,11.16 0.26,21.76 0.8,31.82 0.54,10.07 2,20.48 4.37,31.24 2.41,10.74 6.24,19.75 11.53,27.02 5.32,7.29 12.34,10.94 21.11,10.94z"/>
   <path class="fil2" d="M940.46 6419.88c0,-4.78 1.66,-8.75 4.99,-11.93 3.31,-3.19 7.22,-4.78 11.74,-4.78 2.66,0 5.36,0.73 8.14,2.18 2.79,1.46 4.91,3.51 6.36,6.18 1.46,2.66 2.19,5.44 2.19,8.35 0,4.24 -1.65,8.09 -4.98,11.53 -3.32,3.45 -7.22,5.18 -11.71,5.18 -4.52,0 -8.43,-1.72 -11.74,-5.18 -3.33,-3.44 -4.99,-7.29 -4.99,-11.53z"/>
   <path class="fil2" d="M1026.12 6401.99c2.12,5.82 5.3,11.19 9.54,16.09 4.24,4.91 9.34,8.69 15.3,11.35 5.97,2.65 12.14,3.97 18.51,3.97 14.57,0 24.64,-5.7 30.21,-17.11 5.58,-11.4 8.38,-25.19 8.38,-41.36 0,-7.17 -0.07,-13.13 -0.21,-17.89 -0.13,-4.77 -0.86,-9.41 -2.18,-13.93 -1.88,-7.16 -5.12,-13.45 -9.75,-18.87 -4.64,-5.44 -10.41,-8.16 -17.32,-8.16 -6.88,0 -12.78,1.07 -17.68,3.18 -4.91,2.12 -8.89,4.58 -11.95,7.36 -3.04,2.78 -5.75,5.7 -8.14,8.74 -2.39,3.05 -3.99,4.72 -4.79,4.98l-3.17 0c-0.53,0 -1.19,-0.33 -1.99,-0.99 -0.79,-0.66 -1.19,-1.26 -1.19,-1.81l0 -102.19c0,-0.26 0.35,-0.74 1.02,-1.4 0.66,-0.65 1.38,-0.98 2.16,-0.98l0.81 0c13.79,6.63 28.36,9.94 43.73,9.94 15.12,0 29.71,-3.31 43.76,-9.94l0.78 0c0.8,0 1.47,0.25 2.02,0.78 0.51,0.53 0.78,1.07 0.78,1.61l0 3.18c0,0.8 -0.13,1.19 -0.39,1.19 -7.18,9.26 -15.99,16.49 -26.45,21.66 -10.48,5.18 -21.28,7.76 -32.42,7.76 -8.22,0 -16.59,-1.06 -25.07,-3.18l0 57.65c6.65,-5.56 12.61,-9.54 17.9,-11.91 5.31,-2.39 12.21,-3.6 20.69,-3.6 11.13,0 21.14,3.25 30.03,9.75 8.87,6.5 15.7,14.99 20.46,25.45 4.78,10.46 7.19,21 7.19,31.61 0,12.46 -3,23.86 -8.97,34.21 -5.98,10.33 -14.13,18.61 -24.45,24.85 -10.34,6.24 -21.62,9.36 -33.81,9.36 -10.08,0 -19.3,-2.59 -27.65,-7.75 -8.35,-5.19 -14.98,-12.14 -19.88,-20.89 -4.9,-8.75 -7.36,-18.03 -7.36,-27.84 0,-4.77 1.53,-8.55 4.57,-11.33 3.06,-2.8 6.84,-4.19 11.34,-4.19 4.51,0 8.21,1.46 11.14,4.38 2.91,2.91 4.37,6.63 4.37,11.15 0,4.24 -1.45,7.89 -4.37,10.94 -2.93,3.05 -6.63,4.56 -11.14,4.56 -0.8,0 -1.65,-0.07 -2.59,-0.2 -0.93,-0.12 -1.53,-0.18 -1.78,-0.18z"/>
   <line class="fil1 str2" x1="1247.21" y1="7788.66" x2="15711.85" y2= "7788.66" />
   <path class="fil2" d="M356.66 7354.91c0,2.12 -1.46,3.18 -4.39,3.18 -0.52,0 -1.45,-0.19 -2.77,-0.59 -1.33,-0.38 -2.39,-0.87 -3.18,-1.4 -0.8,-0.52 -1.19,-1.18 -1.19,-1.97 0,-13.53 -0.8,-22.94 -2.41,-28.24 -1.04,-2.91 -3.95,-5.03 -8.74,-6.36l-181.73 -45.33c-2.13,-0.54 -3.71,-0.82 -4.79,-0.82 -2.38,0 -3.69,1.34 -3.96,4 -0.81,4.24 -1.2,12.2 -1.2,23.85 0,2.13 -1.46,3.18 -4.38,3.18 -2.91,-0.8 -4.84,-1.39 -5.75,-1.78 -0.93,-0.41 -1.39,-1.68 -1.39,-3.8l0 -88.68c0,-2.39 1.46,-3.6 4.38,-3.6 0.53,0 1.38,0.22 2.57,0.63 1.21,0.38 2.27,0.85 3.18,1.37 0.92,0.55 1.39,1.34 1.39,2.41 0,13.52 0.81,22.93 2.4,28.24 1.05,2.91 3.96,5.03 8.75,6.37l107.36 26.62 -100.2 -129.63c-0.53,-0.28 -2.06,-1.66 -4.59,-4.18 -2.51,-2.53 -4.96,-3.79 -7.36,-3.79 -4.24,0 -6.36,3.71 -6.36,11.15 0,2.13 -1.46,3.18 -4.38,3.18 -1.85,-0.28 -3.23,-0.55 -4.18,-0.83 -0.93,-0.25 -1.65,-0.78 -2.19,-1.58 -0.53,-0.79 -0.78,-1.86 -0.78,-3.17l0 -64.05c0,-1.31 0.39,-2.24 1.19,-2.77 0.8,-0.51 1.86,-0.78 3.18,-0.78 0.53,0.25 1.44,0.59 2.77,1 1.33,0.38 2.39,0.85 3.18,1.36 0.79,0.55 1.19,1.34 1.19,2.41 0,16.17 7.42,33.79 22.27,52.88 0.28,0.28 0.4,0.48 0.4,0.63 0,0.13 0.07,0.33 0.2,0.58 0.12,0.27 0.18,0.4 0.18,0.4l52.9 68.39 116.14 -49.71c5.04,-2.91 8.08,-6.09 9.13,-9.54 1.08,-3.44 1.61,-8.74 1.61,-15.9 0,-2.38 1.46,-3.57 4.38,-3.57 2.37,0.78 4.16,1.5 5.37,2.16 1.19,0.67 1.79,1.94 1.79,3.79l0 76.77c0,1.85 -1.46,2.77 -4.39,2.77 -2.39,-0.27 -4.18,-0.6 -5.37,-0.99 -1.18,-0.4 -1.78,-1.54 -1.78,-3.39 0,-5.57 -0.6,-10.27 -1.79,-14.13 -1.19,-3.83 -3.79,-5.75 -7.75,-5.75 -1.6,0 -2.8,0 -3.6,0l-95.45 41.37 37.4 48.11 61.23 15.12c2.66,0.52 4.24,0.78 4.79,0.78 2.12,0 3.31,-1.33 3.56,-3.96 1.08,-4.24 1.61,-12.19 1.61,-23.85 0,-2.12 1.46,-3.17 4.38,-3.17 2.91,0.79 4.84,1.39 5.75,1.77 0.92,0.39 1.4,1.65 1.4,3.76l0 89.09z"/>
   <path class="fil2" d="M448.4 7051.29c-3.17,-0.54 -4.78,-1.47 -4.78,-2.82 0,-5.55 -0.45,-9.93 -1.37,-13.09 -0.94,-3.19 -3.13,-5.32 -6.58,-6.37l-38.96 -9.54c8.48,8.74 12.73,17.35 12.73,25.83 0,9.82 -3.58,17.45 -10.75,22.88 -7.17,5.44 -15.78,8.16 -25.86,8.16 -9.8,0 -19.95,-2.52 -30.42,-7.56 -10.46,-5.05 -19.21,-11.86 -26.23,-20.46 -7.03,-8.62 -10.54,-17.98 -10.54,-28.05 0,-4.51 1.39,-8.62 4.18,-12.32 2.79,-3.72 6.42,-6.49 10.91,-8.35 -1.58,-1.07 -4.47,-3.59 -8.72,-7.55 -4.24,-3.99 -6.37,-6.91 -6.37,-8.76 0,-1.59 1.06,-2.39 3.18,-2.39l127.65 32.23c2.39,0.25 3.71,0.37 3.96,0.37 2.12,0 3.18,-5.02 3.18,-15.08 0,-0.8 0.28,-1.4 0.82,-1.82 0.52,-0.38 1.18,-0.58 1.98,-0.58 2.12,0.53 3.51,0.99 4.18,1.4 0.66,0.38 0.99,1.24 0.99,2.57l0 48.92c0,1.59 -1.06,2.41 -3.18,2.41zm-44.95 -6.37c0,-5.32 -1.97,-10.49 -5.95,-15.54 -3.96,-5.02 -8.75,-9.51 -14.33,-13.51l-51.69 -12.73c-5.3,0.79 -9.95,2.72 -13.93,5.78 -3.96,3.03 -5.95,7.06 -5.95,12.11 0,5.04 2.12,9.81 6.36,14.33 4.24,4.49 9.28,8.2 15.13,11.12 6.08,2.91 14.43,5.77 25.04,8.55 10.6,2.78 18.95,4.18 25.04,4.18 5.04,0 9.68,-1.13 13.92,-3.37 4.24,-2.25 6.36,-5.9 6.36,-10.94z"/>
   <path class="fil2" d="M381.18 6947c-3.43,0 -7.22,-0.4 -11.32,-1.19 -4.11,-0.8 -7.47,-1.6 -10.12,-2.4 -2.66,-0.81 -7.84,-2.66 -15.53,-5.58 -7.69,-2.91 -11.67,-4.35 -11.95,-4.35 -5.57,-2.12 -10.06,-3.17 -13.51,-3.17 -4.77,0 -7.16,1.72 -7.16,5.17 0,6.09 3.12,11.05 9.34,14.91 6.23,3.84 13.18,6.69 20.88,8.55 1.07,0.25 1.6,0.91 1.6,1.99l0 2.77c0,1.33 -0.66,1.99 -1.98,1.99l-0.79 0c-9.02,-2.66 -17.12,-6.5 -24.28,-11.53 -7.15,-5.04 -10.72,-11.4 -10.72,-19.1 0,-5.56 1.78,-10.21 5.35,-13.92 3.58,-3.72 8.16,-5.58 13.75,-5.58 2.9,0 5.95,0.68 9.13,2.02 7.69,2.91 13.85,5.2 18.48,6.95 4.66,1.73 9.89,3.33 15.74,4.78 5.82,1.44 11.12,2.16 15.91,2.16 5.81,0 10.51,-1.33 14.08,-3.96 3.58,-2.66 5.37,-6.76 5.37,-12.33 0,-10.6 -8.07,-20.14 -24.24,-28.63 -5.3,-2.65 -11.52,-5.16 -18.69,-7.56 -7.16,-2.39 -13,-3.59 -17.52,-3.59 -4.75,0 -8.4,0.72 -10.91,2.18 -2.53,1.47 -5.18,3.4 -7.97,5.78 -2.78,2.39 -4.97,3.57 -6.57,3.57 -3.17,0 -5.95,-1.26 -8.34,-3.77 -2.38,-2.5 -3.57,-5.22 -3.57,-8.14 0,-3.72 1.65,-6.38 4.96,-7.97 3.31,-1.61 7.09,-2.41 11.33,-2.41 5.03,0 11.06,0.73 18.1,2.19 7.02,1.46 14.31,3.45 21.86,5.98 7.57,2.51 13.47,4.96 17.71,7.35 19.9,10.09 29.84,21.76 29.84,35 0,9.81 -2.4,17.57 -7.19,23.27 -4.75,5.7 -11.78,8.55 -21.08,8.55z"/>
  </g>
 </g>
</svg>
